<?xml version="1.0" encoding="UTF-8"?>
<svg id="Capa_2" data-name="Capa 2" xmlns="http://www.w3.org/2000/svg" viewBox="0 0 20.29 20.29">
  <defs>
    <style>
      .cls-1 {
        fill: #fff;
      }

      .cls-2 {
        fill: #02a5a5;
      }
    </style>
  </defs>
  <g id="Layer_1" data-name="Layer 1">
    <g>
      <circle class="cls-1" cx="10.15" cy="10.15" r="10.15"/>
      <path class="cls-2" d="m13.62,8.64h-.44v-1.3c0-1.67-1.36-3.03-3.03-3.03s-3.03,1.36-3.03,3.03v1.3h-.44c-.24,0-.43.19-.43.43,0,0,0,0,0,0h0v5.18c0,.24.19.43.43.44h6.93c.24,0,.43-.19.43-.43,0,0,0,0,0,0h0v-5.18c0-.23-.18-.43-.41-.44,0,0,0,0-.01,0Zm-3.03,3.32v.72c0,.14-.12.26-.26.26h-.35c-.14,0-.26-.12-.26-.26v-.72c-.41-.24-.56-.77-.32-1.18s.77-.56,1.18-.32c.41.24.56.77.32,1.18,0,0,0,0,0,0-.08.13-.19.24-.32.32h0Zm1.73-3.32h-4.33v-1.3c0-1.2.97-2.16,2.16-2.16s2.16.97,2.16,2.16v1.3Z"/>
    </g>
  </g>
</svg>