<?xml version="1.0" encoding="UTF-8"?>
<svg id="Capa_1" xmlns="http://www.w3.org/2000/svg" version="1.1" viewBox="0 0 36 36">
  <!-- Generator: Adobe Illustrator 29.1.0, SVG Export Plug-In . SVG Version: 2.1.0 Build 142)  -->
  <path d="M14.8,32c0,1.8,1.4,3.2,3.2,3.2s3.2-1.4,3.2-3.2h-6.4ZM18,8.1c4.5,0,8,3.5,8,8v11.2h-16v-11.2c0-4.5,3.5-8,8-8M18,.8c-1.3,0-2.4,1.1-2.4,2.4v1.9c-4.9,1.1-8.8,5.6-8.8,10.9v9.6l-3.2,3.2v1.6h28.7v-1.6l-3.2-3.2v-9.6c0-5.3-3.8-9.9-8.8-10.9v-1.9c0-1.3-1.1-2.4-2.4-2.4M16.4,11.3h3.2v6.4h-3.2s0-6.4,0-6.4ZM16.4,20.9h3.2v3.2h-3.2v-3.2Z"/>
</svg>