<?xml version="1.0" encoding="utf-8"?>
<!-- Generator: Adobe Illustrator 27.4.1, SVG Export Plug-In . SVG Version: 6.00 Build 0)  -->
<svg version="1.1" id="Capa_1" xmlns="http://www.w3.org/2000/svg" xmlns:xlink="http://www.w3.org/1999/xlink" x="0px" y="0px"
	 viewBox="0 0 32 30" style="enable-background:new 0 0 32 30;" xml:space="preserve">
<style type="text/css">
	.st0{fill:#004481;}
	.st1{fill:#0E457F;}
	.st2{fill:#00A5A5;}
	.st3{fill:#BA2A46;}
	.st4{fill:#DA3B52;}
	.st5{fill:#FFFFFF;}
</style>
<path class="st4" d="M2.6,27.8h26.7c0.8,0,1.5-0.7,1.5-1.5c0-0.3-0.1-0.5-0.2-0.7L17.3,2.2c-0.4-0.7-1.3-1-2-0.5
	C15,1.8,14.9,2,14.7,2.2L1.4,25.6c-0.4,0.7-0.2,1.6,0.5,2C2.1,27.7,2.4,27.8,2.6,27.8z"/>
<path class="st5" d="M16,20.3c-0.6,0-1.2-0.5-1.2-1.2c0,0,0,0,0,0V9.4c0-0.6,0.5-1.2,1.1-1.2c0.6,0,1.2,0.5,1.2,1.1c0,0,0,0,0,0.1
	v9.7C17.2,19.8,16.6,20.3,16,20.3L16,20.3z"/>
<circle class="st5" cx="16" cy="23.4" r="1.4"/>
</svg>
