<svg width="24" height="27" viewBox="0 0 24 27" fill="none" xmlns="http://www.w3.org/2000/svg">
<circle cx="12" cy="15" r="12" fill="#F8CD51"/>
<path d="M11.8008 11.04C11.3965 11.04 11.0859 10.9287 10.8691 10.7061C10.6523 10.4775 10.5439 10.1992 10.5439 9.87109C10.5439 9.53711 10.6523 9.25879 10.8691 9.03613C11.0859 8.81348 11.3965 8.70215 11.8008 8.70215C12.2168 8.70215 12.5361 8.81348 12.7588 9.03613C12.9873 9.25879 13.1016 9.53711 13.1016 9.87109C13.1016 10.1992 12.9873 10.4775 12.7588 10.7061C12.5361 10.9287 12.2168 11.04 11.8008 11.04ZM12.917 22H10.7285V12.4639H12.917V22Z" fill="#004481"/>
</svg>
