<?xml version="1.0" encoding="UTF-8"?>
<svg id="Capa_1" xmlns="http://www.w3.org/2000/svg" version="1.1" viewBox="0 0 36 36">
  <!-- Generator: Adobe Illustrator 29.1.0, SVG Export Plug-In . SVG Version: 2.1.0 Build 142)  -->
  <defs>
    <style>
      .st0 {
        fill: none;
        stroke: #fff;
        stroke-linecap: round;
        stroke-linejoin: round;
        stroke-width: 2px;
      }

      .st1 {
        fill: #69be28;
      }
    </style>
  </defs>
  <path class="st1" d="M18,1.4c-3.4,0-6.6,1-9.4,2.8-2.8,1.8-4.9,4.5-6.1,7.5s-1.5,6.4-1,9.6c.7,3.2,2.2,6.3,4.6,8.5,2.4,2.4,5.3,3.9,8.5,4.6,3.2.7,6.6.3,9.6-1,3.1-1.3,5.7-3.4,7.5-6.1s2.8-6,2.8-9.4-1.8-8.7-4.9-11.9c-3.2-3.2-7.4-4.9-11.9-4.9h.1Z"/>
  <polyline class="st0" points="8.8 18 15.2 25.5 27.2 10.7"/>
</svg>