<?xml version="1.0" encoding="utf-8"?>
<!-- Generator: Adobe Illustrator 23.0.1, SVG Export Plug-In . SVG Version: 6.00 Build 0)  -->
<svg version="1.1" id="Capa_1" xmlns="http://www.w3.org/2000/svg" xmlns:xlink="http://www.w3.org/1999/xlink" x="0px" y="0px"
	 viewBox="0 0 600 600" style="enable-background:new 0 0 600 600;" xml:space="preserve">
<style type="text/css">
	.st0{fill:url(#SVGID_1_);}
	.st1{fill:#28AD68;}
	.st2{fill:#FFFFFF;}
</style>
<title>Mesa de trabajo 1 copia 2</title>
<g>
	<g>
		
			<linearGradient id="SVGID_1_" gradientUnits="userSpaceOnUse" x1="234.8232" y1="546.2089" x2="425.9732" y2="905.7089" gradientTransform="matrix(1 0 0 1 0 -400)">
			<stop  offset="0" style="stop-color:#192647"/>
			<stop  offset="0" style="stop-color:#192647;stop-opacity:0.5"/>
			<stop  offset="1" style="stop-color:#192647;stop-opacity:0"/>
		</linearGradient>
		<path class="st0" d="M558.9,318.5c0,128.4-104.1,232.5-232.5,232.5S94,446.9,94,318.5S198.1,86.1,326.5,86.1
			S558.9,190.2,558.9,318.5"/>
		<path class="st1" d="M510.5,268.4c0,129-104.5,233.6-233.4,233.6S43.5,397.6,43.5,268.7S147.9,35.1,276.8,35
			S510.4,139.4,510.5,268.4"/>
		<g>
			<path class="st2" d="M228.8,372.7c-5.3,0-10.4-2.1-14.1-5.9l-71.9-71.9c-7.8-7.8-7.8-20.5,0-28.3c7.8-7.8,20.5-7.8,28.3,0
				l57.8,57.8l154.1-154.2c7.8-7.8,20.5-7.8,28.3,0c7.8,7.8,7.8,20.5,0,28.3L242.9,366.8C239.2,370.6,234.1,372.7,228.8,372.7
				C228.8,372.7,228.8,372.7,228.8,372.7z"/>
		</g>
	</g>
</g>
</svg>
