<?xml version="1.0" encoding="UTF-8"?>
<svg id="Capa_1" data-name="Capa 1" xmlns="http://www.w3.org/2000/svg" version="1.1" viewBox="0 0 288.6 288.6">
  <defs>
    <style>
      .cls-1 {
        fill: #333;
      }

      .cls-1, .cls-2 {
        stroke-width: 0px;
      }

      .cls-2 {
        fill: #000;
      }
    </style>
  </defs>
  <path class="cls-1" d="M240.3,31.1l-96,96L48.3,31.1c-4.7-4.7-12.4-4.7-17.2,0-4.7,4.7-4.7,12.4,0,17.2l96,96L31.1,240.3c-4.7,4.7-4.7,12.4,0,17.2,4.7,4.7,12.4,4.7,17.2,0l96-96,96,96c4.7,4.7,12.4,4.7,17.2,0s4.7-12.4,0-17.2l-96-96,96-96c11.2-11.3-5.9-28.3-17.2-17.2h0Z"/>
  <path class="cls-2" d="M248.9,273c-6.2,0-12.4-2.4-17.1-7.1l-87.5-87.5-87.5,87.5c-9.4,9.4-24.7,9.4-34.1,0-4.6-4.6-7.1-10.6-7.1-17.1s2.5-12.5,7.1-17.1l87.5-87.5L22.7,56.8c-4.6-4.6-7.1-10.6-7.1-17.1s2.5-12.5,7.1-17.1c4.6-4.6,10.6-7.1,17.1-7.1s12.5,2.5,17.1,7.1l87.5,87.5L231.8,22.6c9.7-9.6,24.2-9.5,33.9.2,9.7,9.7,9.8,24.3.2,33.9l-87.5,87.5,87.5,87.5c4.6,4.6,7.1,10.6,7.1,17.1s-2.5,12.5-7.1,17.1-10.9,7.1-17.1,7.1Z"/>
</svg>