<svg width="1920" height="484" viewBox="0 0 1920 484" fill="none" xmlns="http://www.w3.org/2000/svg">
<mask id="mask0_575_783" style="mask-type:alpha" maskUnits="userSpaceOnUse" x="0" y="0" width="1920" height="484">
<rect width="1920" height="484" fill="#D9D9D9"/>
</mask>
<g mask="url(#mask0_575_783)">
<path d="M1924.58 130.256C1927.57 124.56 1929.27 118.07 1929.27 111.195C1929.27 88.4384 1910.79 70 1887.97 70C1877.73 70 1868.39 73.7221 1861.18 79.8683C1851.73 73.6426 1840.43 70 1828.27 70C1807.33 70 1788.93 80.7558 1778.26 97.0218C1772.51 93.9885 1765.95 92.2665 1758.99 92.2665C1737.14 92.2665 1719.25 109.221 1717.8 130.667C1699.56 134.932 1685.97 151.264 1685.97 170.762H1958.35C1958.35 150.575 1943.8 133.793 1924.58 130.269V130.256Z" fill="#39B44A"/>
<path d="M1837.65 137.594C1834.05 137.594 1830.61 138.177 1827.37 139.237C1825.24 122.97 1811.33 110.387 1794.44 110.387C1777.55 110.387 1764.31 122.361 1761.68 138.071C1759.94 137.793 1758.16 137.607 1756.34 137.607C1737.97 137.607 1723.09 152.456 1723.09 170.775H1870.9C1870.9 152.456 1856.01 137.607 1837.65 137.607V137.594Z" fill="#61C36E"/>
<path d="M1471.81 205.97C1470.33 202.062 1469.47 197.863 1469.36 193.452C1468.83 172.364 1485.54 154.827 1506.69 154.297C1517.22 154.032 1526.86 158.032 1533.95 164.722C1535.8 145.78 1551.55 130.759 1571.09 130.255C1592.23 129.726 1609.81 146.389 1610.35 167.49C1610.37 168.377 1610.35 169.238 1610.31 170.113C1616.63 165.026 1624.61 161.9 1633.34 161.675C1654.48 161.145 1672.07 177.809 1672.6 198.909C1672.61 199.638 1672.6 200.367 1672.6 201.082C1676.55 199.572 1680.82 198.698 1685.29 198.578C1706.43 198.048 1724.01 214.712 1724.54 235.813L1446.67 242.807C1446.24 225.984 1456.79 211.44 1471.79 205.97H1471.81Z" fill="#2B8738"/>
<path d="M1743.92 199.135C1745.19 195.161 1745.84 190.922 1745.74 186.511C1745.21 165.424 1727.64 148.747 1706.49 149.277C1695.95 149.542 1686.53 154.019 1679.78 161.053C1676.99 142.23 1660.5 128.004 1640.94 128.507C1619.8 129.037 1603.08 146.561 1603.61 167.662C1603.64 168.55 1603.69 169.411 1603.77 170.285C1597.2 165.53 1589.07 162.801 1580.34 163.013C1559.2 163.543 1542.48 181.08 1543.01 202.168C1543.02 202.897 1543.07 203.625 1543.13 204.34C1539.1 203.042 1534.8 202.367 1530.33 202.486C1509.19 203.016 1492.47 220.54 1493 241.641L1770.86 234.661C1770.44 217.838 1759.18 203.85 1743.91 199.135H1743.92Z" fill="#39B44A"/>
<path d="M1494.35 218.739C1493.43 216.275 1492.88 213.613 1492.81 210.831C1492.48 197.505 1503.04 186.432 1516.4 186.101C1523.05 185.928 1529.15 188.458 1533.62 192.684C1534.79 180.723 1544.73 171.225 1557.08 170.921C1570.44 170.59 1581.54 181.12 1581.88 194.446C1581.89 195.002 1581.88 195.558 1581.85 196.101C1585.85 192.896 1590.88 190.909 1596.4 190.776C1609.76 190.445 1620.86 200.976 1621.19 214.301C1621.19 214.765 1621.19 215.215 1621.19 215.679C1623.69 214.725 1626.39 214.169 1629.22 214.103C1642.57 213.771 1653.68 224.302 1654.01 237.628L1478.47 242.038C1478.21 231.415 1484.86 222.222 1494.35 218.765V218.739Z" fill="#61C36E"/>
<path d="M1658.39 200.883C1657 196.949 1656.21 192.737 1656.2 188.326C1656.09 167.225 1673.14 150.031 1694.3 149.926C1704.83 149.873 1714.39 154.058 1721.35 160.893C1723.56 141.991 1739.62 127.288 1759.18 127.182C1780.33 127.076 1797.57 144.084 1797.67 165.185C1797.67 166.072 1797.65 166.933 1797.59 167.808C1804.02 162.854 1812.05 159.887 1820.8 159.834C1841.96 159.728 1859.19 176.735 1859.3 197.836C1859.3 198.565 1859.29 199.293 1859.25 200.009C1863.23 198.578 1867.52 197.783 1871.98 197.77C1893.14 197.664 1910.37 214.672 1910.48 235.773L1632.54 237.217C1632.44 220.394 1643.28 206.062 1658.4 200.883H1658.39Z" fill="#2B8738"/>
<path d="M1931.57 199.479C1932.92 195.532 1933.65 191.306 1933.64 186.895C1933.53 165.795 1916.3 148.787 1895.14 148.893C1884.61 148.946 1875.09 153.237 1868.21 160.138C1865.8 141.263 1849.6 126.719 1830.04 126.825C1808.88 126.931 1791.83 144.124 1791.94 165.225C1791.94 166.112 1791.99 166.973 1792.06 167.848C1785.59 162.96 1777.52 160.072 1768.77 160.112C1747.62 160.218 1730.56 177.411 1730.67 198.512C1730.67 199.241 1730.7 199.969 1730.75 200.684C1726.75 199.294 1722.46 198.552 1717.99 198.578C1696.84 198.684 1679.79 215.878 1679.89 236.979L1957.83 235.535C1957.74 218.712 1946.76 204.486 1931.59 199.479H1931.57Z" fill="#39B44A"/>
<path d="M1680.67 214.103C1679.8 211.626 1679.3 208.95 1679.28 206.169C1679.21 192.843 1689.98 181.981 1703.35 181.915C1710.01 181.875 1716.05 184.525 1720.44 188.843C1721.85 176.908 1731.98 167.61 1744.34 167.543C1757.7 167.477 1768.59 178.22 1768.66 191.558C1768.66 192.115 1768.63 192.671 1768.61 193.214C1772.67 190.088 1777.74 188.207 1783.26 188.181C1796.62 188.114 1807.51 198.857 1807.58 212.196C1807.58 212.659 1807.58 213.11 1807.54 213.573C1810.05 212.672 1812.76 212.169 1815.59 212.156C1828.94 212.09 1839.83 222.832 1839.9 236.171L1664.31 237.085C1664.26 226.461 1671.1 217.401 1680.65 214.129L1680.67 214.103Z" fill="#61C36E"/>
<path fill-rule="evenodd" clip-rule="evenodd" d="M636.653 194.282C250.041 197.581 -27.4997 206.357 -32 216.696H-28.4492V486H1984L1984 216.696L1984 215.12H1981.18C1949.87 205.184 1665.91 196.932 1282.25 194.015V197.76H636.653V194.282Z" fill="#578BC7"/>
<path d="M-22 469L633 194V198.461L-22 484.5V469Z" fill="#2B5B92"/>
<path d="M1903 469L1283 194V196.978L1903 485.5V469Z" fill="#2B5B92"/>
<path d="M635.211 199.538L1281.07 199L1904 486H-25L635.211 199.538Z" fill="#D6DBE6"/>
</g>
<g clip-path="url(#clip0_575_783)">
<path d="M804.259 215L787.186 250H836.776L848.807 215H804.259Z" fill="white"/>
<path d="M641.422 215L600 250H638.408L670.632 215H641.422Z" fill="white"/>
<path d="M715.179 215L687.998 250H737.596L759.719 215H715.179Z" fill="white"/>
<path d="M893.347 215L886.366 250H935.964L937.888 215H893.347Z" fill="white"/>
<path d="M1320 250L1278.58 215H1249.69L1283.1 250H1320Z" fill="white"/>
<path d="M1205.14 215H1160.6L1183.92 250H1233.51L1205.14 215Z" fill="white"/>
<path d="M982.436 215L985.554 250H1035.14L1026.98 215H982.436Z" fill="white"/>
<path d="M1071.52 215L1084.73 250H1134.32L1116.06 215H1071.52Z" fill="white"/>
</g>
<g clip-path="url(#clip1_575_783)">
<path d="M280.755 308.907L274.23 305.393V61.7344L284.487 63.6828L280.755 308.907Z" fill="#434343"/>
<path d="M284.487 69.3312L274.23 67.4988V58.9512L284.487 60.946V69.3312Z" fill="#333333"/>
<path d="M285.027 68.9135L273.67 66.8723V58L285.027 60.2268V68.9135Z" fill="#323232"/>
<path d="M416.221 273.869L412.849 272.188V87.9912L418.652 89.093L416.221 273.869Z" fill="#434343"/>
<path d="M418.652 93.3617L412.849 92.3179V85.9043L418.652 87.0293V93.3617Z" fill="#333333"/>
<path d="M418.962 93.0249L412.528 91.8652V85.208L418.962 86.4722V93.0249Z" fill="#323232"/>
<path d="M290.061 305.521L279.984 309V62.5928L290.061 64.5064V305.521Z" fill="#767676"/>
<path d="M290.061 70.1086L279.984 68.2993V59.8213L290.061 61.7813V70.1086Z" fill="#333333"/>
<path d="M290.591 69.691L279.434 67.6846V58.8818L290.591 61.0738V69.691Z" fill="#606060"/>
<path d="M421.915 271.853L416.171 273.871V88.4102L421.915 89.5004V271.853Z" fill="#767676"/>
<path d="M421.915 93.745L416.171 92.7128V86.334L421.915 87.4474V93.745Z" fill="#333333"/>
<path d="M422.215 93.4084L415.851 92.2718V85.6494L422.215 86.8904V93.4084Z" fill="#606060"/>
<path d="M439.425 194.819L238.828 208.853C232.353 209.305 227 203.889 227 196.756V80.8358C227 73.6916 232.353 68.7857 238.828 69.8411L439.425 102.535C442.227 102.988 444.468 107.082 444.468 111.663V186.156C444.468 190.748 442.227 194.622 439.425 194.819Z" fill="#2B8738"/>
<path d="M442.097 190.053L248.184 201.419C241.96 201.779 236.816 196.641 236.816 189.926V80.9176C236.816 74.2025 241.96 69.6098 248.184 70.642L442.097 102.733C444.819 103.185 447 107.071 447 111.408V181.9C447 186.237 444.819 189.891 442.097 190.053Z" fill="#39B44A"/>
<path d="M442.177 186.458L248.003 196.049C244.501 196.223 241.619 193.301 241.619 189.543V81.8225C241.619 78.0648 244.501 75.4437 248.003 76.0004L442.177 106.34C443.718 106.584 444.969 108.787 444.969 111.246V181.854C444.969 184.324 443.718 186.388 442.177 186.47V186.458ZM248.003 78.3199C245.712 77.972 243.841 79.6885 243.841 82.1356V189.462C243.841 191.921 245.712 193.834 248.003 193.73L442.177 184.904C443.187 184.857 444.008 183.501 444.008 181.888V111.107C444.008 109.483 443.187 108.045 442.177 107.894L248.003 78.3199Z" fill="white"/>
<path d="M321.029 98.1512C321.55 98.4179 321.72 98.8818 321.71 99.5313C321.69 101.561 321.71 103.602 321.71 105.632C321.71 106.687 321.52 106.896 320.659 106.884C317.387 106.85 314.225 107.487 311.203 108.937C305.149 111.848 300.606 116.905 297.694 124.095C296.484 127.099 295.723 130.3 295.383 133.675C295.333 134.174 295.293 134.684 295.253 135.183C295.193 135.902 294.893 136.238 294.272 136.204C292.281 136.099 290.27 135.983 288.238 135.856C287.568 135.821 287.188 135.334 287.238 134.568C287.588 128.793 288.839 123.376 291.06 118.366C293.041 113.901 295.643 110.062 298.845 106.884C303.148 102.605 308.061 99.8792 313.545 98.6963C315.856 98.1976 318.187 98.012 320.549 98.1396C320.619 98.1396 320.689 98.128 320.759 98.1164C320.849 98.128 320.939 98.1396 321.039 98.1512H321.029Z" fill="white"/>
<path d="M303.218 136.726C302.258 136.668 301.297 136.621 300.337 136.563C299.616 136.517 299.266 136.053 299.336 135.218C299.906 128.828 302.018 123.388 305.68 118.981C308.702 115.339 312.324 113.02 316.507 111.976C317.918 111.628 319.349 111.466 320.8 111.454C321.34 111.454 321.71 111.918 321.71 112.637C321.71 114.539 321.71 116.441 321.71 118.332C321.71 118.656 321.71 118.981 321.71 119.306C321.71 119.978 321.46 120.303 320.92 120.338C319.279 120.442 317.688 120.848 316.187 121.614C311.944 123.771 309.062 127.563 307.661 132.991C307.411 133.942 307.291 134.951 307.131 135.937C307.021 136.598 306.751 136.911 306.17 136.888C305.19 136.842 304.209 136.772 303.228 136.726H303.218Z" fill="white"/>
<path d="M325.032 98.696C325.563 98.8352 326.093 98.9628 326.613 99.1136C330.426 100.157 333.998 101.932 337.33 104.449C337.801 104.808 337.931 105.365 337.65 105.945C336.65 108.021 335.649 110.085 334.639 112.173C333.078 115.385 331.517 118.621 329.936 121.868C329.845 122.042 329.745 122.228 329.605 122.356C329.345 122.599 329.045 122.518 328.745 122.332C327.714 121.706 326.633 121.219 325.513 120.883C325.253 120.801 324.992 120.744 324.732 120.662C324.352 120.535 324.122 120.164 324.092 119.688C324.092 119.584 324.092 119.491 324.092 119.387C324.092 112.88 324.092 106.362 324.092 99.8558C324.092 99.0788 324.212 98.8816 324.792 98.6729C324.862 98.6729 324.942 98.696 325.012 98.7076L325.032 98.696Z" fill="white"/>
<path d="M331.757 124.13C331.807 123.956 331.847 123.758 331.927 123.596C333.908 119.479 335.87 115.408 337.821 111.36C338.431 110.096 339.032 108.844 339.632 107.591C339.912 107.011 340.333 106.93 340.793 107.371C343.755 110.247 346.276 113.587 348.358 117.414C348.678 117.994 348.968 118.586 349.268 119.177C349.598 119.827 349.498 120.349 349.008 120.673C344.815 123.399 340.543 126.182 336.2 129.001C336.14 129.035 336.08 129.082 336.02 129.117C335.59 129.372 335.239 129.256 334.939 128.746C334.139 127.354 333.198 126.113 332.137 125.011C331.917 124.779 331.767 124.512 331.747 124.13H331.757Z" fill="white"/>
<path d="M346.146 139.195C343.715 139.056 341.253 138.917 338.771 138.766C338.081 138.731 337.881 138.488 337.791 137.641C337.621 136.075 337.3 134.568 336.83 133.083C336.61 132.387 336.71 131.993 337.21 131.657C340.372 129.569 343.494 127.528 346.576 125.498C347.727 124.744 348.878 123.979 350.029 123.225C350.569 122.877 350.959 123.063 351.229 123.805C352.56 127.423 353.461 131.17 353.901 135.055C354.031 136.215 354.121 137.386 354.191 138.557C354.241 139.323 353.961 139.648 353.381 139.613C350.999 139.474 348.588 139.334 346.146 139.195Z" fill="white"/>
<path d="M324.112 169.223C324.112 165.94 324.112 162.67 324.112 159.388C324.112 158.587 324.322 158.286 324.972 158.181C328.064 157.694 330.746 156.21 333.037 153.728C333.438 153.299 333.838 153.322 334.218 153.809C335.999 156.094 337.771 158.367 339.532 160.617C341.083 162.6 342.624 164.572 344.145 166.532C344.395 166.857 344.645 167.17 344.885 167.495C345.285 168.028 345.285 168.538 344.865 169.049C342.654 171.739 340.162 173.989 337.37 175.787C334.308 177.77 331.046 179.116 327.564 179.8C326.733 179.962 325.903 180.067 325.062 180.171C324.412 180.252 324.092 179.869 324.092 179.069C324.092 175.775 324.092 172.493 324.092 169.199L324.112 169.223Z" fill="white"/>
<path d="M352.79 151.919C352.69 152.012 352.6 152.128 352.49 152.186C351.769 152.557 351.039 152.882 350.328 153.288C348.457 154.355 347.246 156.268 346.476 158.704C346.286 159.318 346.116 159.945 345.916 160.548C345.866 160.687 345.725 160.861 345.635 160.861C345.535 160.861 345.405 160.675 345.355 160.525C344.995 159.469 344.695 158.379 344.305 157.347C343.454 155.108 342.023 153.624 340.252 152.626C339.722 152.325 339.191 152.07 338.651 151.78C338.491 151.699 338.301 151.641 338.301 151.362C338.301 151.107 338.481 151.061 338.631 150.991C339.462 150.585 340.302 150.214 341.103 149.739C342.834 148.718 343.954 146.967 344.695 144.786C344.925 144.102 345.125 143.406 345.335 142.722C345.395 142.525 345.445 142.316 345.635 142.328C345.836 142.328 345.876 142.56 345.936 142.757C346.276 144.021 346.656 145.25 347.176 146.422C348.057 148.428 349.398 149.739 350.969 150.655C351.469 150.945 351.989 151.2 352.49 151.478C352.6 151.536 352.69 151.675 352.79 151.78C352.79 151.826 352.79 151.873 352.79 151.919Z" fill="white"/>
<path d="M321.74 169.211C321.74 172.47 321.74 175.729 321.74 178.988C321.74 179.266 321.71 179.556 321.62 179.8C321.48 180.183 321.18 180.357 320.839 180.322C319.498 180.171 318.158 180.009 316.807 179.835C316.597 179.811 316.386 179.753 316.176 179.695C315.676 179.556 315.416 179.034 315.546 178.443C316.667 173.363 317.787 168.295 318.898 163.261C319.218 161.788 319.548 160.327 319.869 158.866C319.989 158.344 320.319 158.054 320.719 158.089C321.35 158.147 321.66 158.437 321.73 159.051C321.75 159.225 321.75 159.411 321.75 159.585C321.75 162.797 321.75 166.01 321.75 169.223L321.74 169.211Z" fill="white"/>
<path d="M297.345 139.474C300.296 139.625 303.208 139.775 306.09 139.926C306.871 139.973 307.341 140.75 307.111 141.631C307.011 142.014 306.771 142.223 306.45 142.315C302.308 143.44 298.105 144.577 293.832 145.725C292.281 146.143 290.72 146.572 289.149 146.989C288.469 147.175 287.989 146.815 287.889 146.003C287.648 144.148 287.438 142.281 287.228 140.425C287.138 139.636 287.368 139.184 287.869 139.033C288.019 138.987 288.179 138.998 288.329 138.998C291.371 139.149 294.373 139.311 297.345 139.462V139.474Z" fill="white"/>
<path d="M316.536 156.615C317.077 156.685 317.737 157.125 317.497 158.181C316.106 164.42 314.715 170.706 313.314 177.016C313.264 177.236 313.224 177.456 313.174 177.677C313.004 178.361 312.554 178.663 312.003 178.431C310.983 178.001 309.972 177.538 308.951 177.062C308.521 176.865 308.111 176.621 307.691 176.378C307.06 176.018 306.93 175.462 307.28 174.731C309.262 170.625 311.223 166.554 313.164 162.507C314.015 160.732 314.865 158.969 315.716 157.218C315.896 156.847 316.126 156.569 316.546 156.604L316.536 156.615Z" fill="white"/>
<path d="M291.981 157.671C291.601 157.613 291.321 157.427 291.161 157.056C290.36 155.235 289.69 153.345 289.139 151.397C288.959 150.759 289.239 150.214 289.79 150.063C292.952 149.181 296.084 148.312 299.176 147.465C301.837 146.723 304.479 145.992 307.091 145.273C307.621 145.122 308.001 145.366 308.211 145.98C308.462 146.676 308.352 147.152 307.851 147.476C304.059 149.947 300.206 152.452 296.304 154.992C295.063 155.792 293.822 156.604 292.572 157.416C292.391 157.532 292.181 157.601 291.991 157.694L291.981 157.671Z" fill="white"/>
<path d="M299.416 169.361C299.556 169.095 299.666 168.782 299.846 168.561C301.407 166.706 302.968 164.873 304.519 163.052C307.051 160.083 309.552 157.137 312.034 154.226C312.554 153.612 313.305 153.774 313.655 154.574C313.815 154.945 313.775 155.293 313.605 155.641C312.554 157.81 311.504 159.979 310.443 162.171C308.662 165.847 306.871 169.547 305.07 173.27C304.719 173.989 304.209 174.163 303.649 173.664C302.378 172.551 301.127 171.403 299.856 170.266C299.626 170.057 299.476 169.779 299.496 169.419C299.466 169.396 299.446 169.385 299.416 169.361Z" fill="white"/>
<path d="M297.234 166.844C297.024 166.705 296.764 166.624 296.614 166.415C295.463 164.931 294.412 163.342 293.472 161.649C293.181 161.115 293.302 160.547 293.782 160.222C294.903 159.468 296.033 158.726 297.154 157.995C300.556 155.757 303.908 153.553 307.23 151.373C307.861 150.955 308.491 150.538 309.122 150.144C309.632 149.819 310.002 149.946 310.372 150.549C310.693 151.06 310.653 151.57 310.262 152.022C306.25 156.708 302.177 161.475 298.035 166.311C297.824 166.554 297.604 166.786 297.284 166.763C297.274 166.786 297.254 166.821 297.244 166.844H297.234Z" fill="white"/>
<path d="M367.269 138.952C366.608 138.917 365.978 138.801 365.388 138.627V135.507C365.588 135.565 365.788 135.623 366.018 135.681C366.248 135.739 366.478 135.786 366.739 135.809C367.339 135.844 367.759 135.681 368.019 135.299C368.28 134.916 368.4 134.243 368.4 133.292V119.642L371.982 120.013V133.223C371.982 135.206 371.592 136.679 370.811 137.653C370.031 138.627 368.85 139.068 367.269 138.964V138.952Z" fill="white"/>
<path d="M382.338 138.453L374.783 137.966V120.291L382.338 121.068V124.837L378.255 124.455V127.215L382.038 127.551V131.321L378.255 131.019V134.336L382.338 134.638V138.465V138.453Z" fill="white"/>
<path d="M394.796 130.44C394.796 133.258 394.256 135.392 393.155 136.842C392.054 138.303 390.503 138.964 388.492 138.836L384.52 138.581V121.277L388.762 121.718C390.703 121.915 392.194 122.773 393.235 124.27C394.276 125.766 394.786 127.819 394.786 130.428L394.796 130.44ZM391.454 130.324C391.454 128.758 391.234 127.587 390.804 126.798C390.363 125.998 389.703 125.557 388.802 125.476L387.842 125.383V134.998L388.572 135.056C389.573 135.125 390.293 134.777 390.753 134C391.214 133.223 391.444 132.005 391.444 130.335L391.454 130.324Z" fill="white"/>
<path d="M396.897 139.381V122.564L400.059 122.889V139.59L396.897 139.393V139.381Z" fill="white"/>
<path d="M369.291 163.168L365.738 163.133V145.11L373.553 145.481V149.32L369.291 149.158V152.568L373.223 152.695V156.546L369.291 156.453V163.168Z" fill="white"/>
<path d="M383.209 163.284L375.685 163.215V145.574L383.209 145.934V149.691L379.137 149.529V152.278L382.909 152.405V156.175L379.137 156.082V159.387L383.209 159.457V163.272V163.284Z" fill="white"/>
<path d="M390.694 163.354L388.213 150.979H388.143C388.263 153.09 388.313 154.725 388.313 155.885V163.33L385.381 163.307V146.038L389.774 146.247L392.285 158.436H392.355L394.787 146.49L399.01 146.688V163.423L396.108 163.4V156.012C396.108 155.629 396.108 155.2 396.118 154.736C396.118 154.273 396.158 153.124 396.228 151.292H396.158L393.776 163.377L390.694 163.354Z" fill="white"/>
<path d="M408.856 158.54C408.856 159.549 408.686 160.454 408.336 161.231C407.985 162.02 407.485 162.623 406.815 163.052C406.154 163.481 405.374 163.701 404.473 163.69C403.723 163.69 403.082 163.597 402.572 163.446C402.062 163.295 401.521 163.005 400.961 162.623V158.61C401.551 159.062 402.162 159.422 402.802 159.677C403.433 159.932 404.013 160.071 404.543 160.071C404.993 160.071 405.324 159.967 405.534 159.746C405.744 159.526 405.854 159.225 405.854 158.865C405.854 158.645 405.814 158.436 405.724 158.273C405.644 158.1 405.504 157.926 405.314 157.752C405.124 157.578 404.623 157.206 403.813 156.65C403.072 156.139 402.512 155.652 402.142 155.177C401.771 154.701 401.491 154.168 401.311 153.565C401.131 152.962 401.041 152.243 401.041 151.431C401.041 149.9 401.421 148.717 402.192 147.893C402.962 147.07 404.003 146.699 405.324 146.757C406.484 146.815 407.665 147.267 408.866 148.102L407.945 151.477C406.905 150.735 405.994 150.341 405.234 150.317C404.833 150.306 404.553 150.387 404.373 150.584C404.193 150.781 404.103 151.025 404.103 151.326C404.103 151.651 404.213 151.941 404.443 152.208C404.673 152.475 405.294 152.962 406.304 153.669C407.265 154.342 407.935 155.038 408.306 155.78C408.676 156.522 408.866 157.438 408.866 158.54H408.856Z" fill="white"/>
<path d="M417.201 163.586L416.68 160.57L413.188 160.512L412.638 163.539L409.386 163.516L412.958 147.279L416.84 147.465L420.333 163.609L417.211 163.586H417.201ZM416.08 156.998L415.62 154.342C415.51 153.751 415.38 152.985 415.229 152.046C415.079 151.107 414.969 150.434 414.919 150.028C414.879 150.399 414.789 151.014 414.659 151.872C414.529 152.73 414.239 154.412 413.789 156.94L416.08 156.998Z" fill="white"/>
</g>
<defs>
<clipPath id="clip0_575_783">
<rect width="720" height="35" fill="white" transform="translate(600 215)"/>
</clipPath>
<clipPath id="clip1_575_783">
<rect width="220" height="251" fill="white" transform="translate(227 58)"/>
</clipPath>
</defs>
</svg>
