<svg viewBox="0 0 1440 810" xmlns="http://www.w3.org/2000/svg"><g fill="#e3e3e4"><path d="m282.06.25c7.28 5.97 14.59 11.92 21.84 17.93 17.83 14.75 34.25 30.95 49.85 48.04 11.76 12.88 22.88 26.24 33.18 40.31 13.85 18.92 26.3 38.68 37.53 59.29 14.21 26.07 25.58 53.3 35.03 81.36 7.49 22.23 13.28 44.96 17.2 68.06 2.42 14.27 5.01 28.58 5.2 43.24.06 4.44 1.09 9.13 1.13 13.75.07 9.04-3.76 13.67-12.63 13.76-27.15.25-54.31.21-81.47.03-7.97-.05-12.36-5.27-12.76-15.39-.65-16.2-3.82-32-6.79-47.85-2.76-14.77-7.16-29.1-11.62-43.43-5.41-17.4-12.41-34.17-20.49-50.43-12.96-26.08-28.63-50.47-46.97-73.19-12.79-15.84-26.82-30.48-41.68-44.25-23.08-21.39-48.68-39.42-76.24-54.75-12.95-7.2-26.2-13.91-39.83-19.35-16.83-6.73-34.1-12.64-51.87-16.88-19.83-4.73-39.77-8.53-60.09-10.36-3.45-.31-6.9-.73-10.37-.97-5.02-.35-7.72-4.02-10.12-7.92 1.11-2.09 3.04-.93 4.5-.93 92.49-.07 184.98-.06 277.46-.06z"/><path d="m24.09 66.22c12.25.92 24.23 3.47 36.16 6.22 29.62 6.84 57.79 17.61 84.46 32.15 19.42 10.59 37.56 23.08 54.66 37.2 12.23 10.1 23.57 21.1 34.27 32.69 18.18 19.68 33.62 41.41 46.64 64.92 10.19 18.4 18.65 37.49 25.09 57.46 7.15 22.17 12.69 44.72 14.75 68.02.22 2.46.69 4.91 1.03 7.36 1 7.14-4.84 13.77-12.95 13.8-27.49.1-54.99.17-82.48-.05-8.01-.06-12.83-5.09-13.59-13.09-1.26-13.25-4.61-26.01-8.45-38.69-8.67-28.57-22.68-54.35-41.56-77.3-27.4-33.32-61.59-57.43-102.19-72.18-10.26-3.73-20.83-6.52-31.59-8.59-5.02-.97-9.9-2.63-15.09-2.75-5.97-.15-10.42-2.8-13.15-8.19v-92.96c4.47-7.37 11.65-7.38 18.98-6.97 1.45 1.5 3.31.82 5.02.96z"/><path d="m418.04 809.91c-6.06-6.16-13.33-10.83-19.93-16.34-18.91-15.79-36.64-32.77-53.12-51.1-13.21-14.7-25.48-30.12-37.01-46.15-2.52-3.5-4.79-7.19-7.16-10.79-5.17-7.84-3.52-14.99 4.66-19.72 17.54-10.15 35.12-20.22 52.66-30.37 31.19-18.05 62.34-36.18 93.54-54.21 21.72-12.55 43.48-25.02 65.25-37.46 6.06-3.46 12.54-1.92 16.76 3.66 12.59 16.66 27.34 31.18 43.89 43.88 6.66 5.11 7.67 11 3.47 18.21-12.2 20.95-24.21 42.01-36.32 63.02-11.45 19.85-22.93 39.68-34.4 59.52-13.22 22.86-26.46 45.7-39.62 68.58-1.72 2.99-4.17 5.66-4.68 9.27z"/><path d="m507.03 809.91c10.71-18.74 21.37-37.51 32.15-56.21 12.02-20.86 24.15-41.65 36.2-62.49 12.48-21.55 24.92-43.13 37.39-64.68 3.61-6.24 8.93-8.57 15.47-5.87 16.51 6.79 33.73 11.12 51 15.25 3.25.78 6.83.35 10.26 1.01 7.97 1.54 11.5 5.54 11.5 13.61v159.37h-193.97z"/><path d="m1439.91 48.23c-7.47 4.87-16.29 6.47-24.35 9.92-19.49 8.36-38.03 18.14-52.86 33.77-12.3 12.95-20.72 28.32-27.67 44.56-3.45 8.06-6.4 16.34-9.48 24.56-.81 2.17-1.78 3.99-4.37 4.06-2.91.09-4.07-2.09-4.84-4.3-3.06-8.85-6.36-17.6-10.08-26.21-10.98-25.42-26.41-46.94-50.58-61.66-14.57-8.87-30.15-15.19-46.07-20.93-1.09-.39-2.23-.68-3.29-1.15-2.15-.96-4.44-1.94-4.29-4.85.13-2.59 2.24-3.57 4.26-4.37 8.02-3.17 16.12-6.15 24.11-9.39 17.19-6.99 33.1-16.05 46.34-29.3.81-.81 1.47-1.78 2.19-2.68h83.99c4.1 2 6.96 5.57 10.42 8.37 15.3 12.36 32.88 20.36 50.98 27.51 5.29 2.09 11.38 2.59 15.58 7.1v5z"/><path d="m973.97 809.91c-3.65-9.7-9.64-18.13-14.72-27.05-13.07-22.93-26.38-45.72-39.59-68.57-11.47-19.83-22.94-39.66-34.41-59.49-9.22-15.95-18.47-31.89-27.63-47.88-2.71-4.73-1.41-11.22 2.61-14.46 7.79-6.27 13.6-7.01 19.26-2.37 1.16.94 2.15 2.08 3.21 3.14 55.94 55.92 111.77 111.96 167.92 167.68 11.2 11.11 8.63 18.1-2.3 26.83-9.17 7.33-18.24 14.77-27.36 22.17z"/><path d="m847.98 809.91c-2.69-10.36-5.26-20.79-8.05-31.08-2.67-9.83-5.45-19.7-8.24-29.54-5.36-18.95-10.37-38-15.46-57.03-4.88-18.23-9.72-36.46-14.5-54.72-2.11-8.09.17-12.8 7-15.94 9.43-4.34 14.38-1.85 18.32 4.71 9.66 16.07 18.96 32.34 28.36 48.56 20.8 35.89 41.6 71.77 62.33 107.7 5.21 9.03 10.16 18.22 15.22 27.33h-84.99z"/><path d="m739 809.91c0-52.76.22-105.51-.16-158.27-.09-12.12 9.86-16.72 19.39-14.64 3.73.82 6.41 3.08 7.47 6.64 5.19 17.44 9.51 35.11 14.25 52.67 3.3 12.24 6.65 24.49 10 36.73 6.63 24.19 12.98 48.45 19.48 72.67.38 1.43 1.03 2.8 1.56 4.19h-71.99z"/><path d="m1109.95 54.23c3.29.32 5.22 2.71 7.33 4.82 47.12 47.1 94.24 94.21 141.35 141.31 10.1 10.1 20.22 20.19 30.3 30.3 5.6 5.62 6.08 10.92.86 17.1-15.06 17.84-28.4 36.77-38.22 58.05-5.16 11.17-8.98 22.81-12.8 34.49-3.17 9.69-3.59 19.96-7.06 29.55-.68 1.89.37 4.35-.08 6.39-1.29 5.83-6.34 9.56-12.88 9.82-2.66.11-5.33.02-8 .02-77.63 0-155.26 0-232.89 0-13.25 0-19.01-5.99-16.67-19.03 1.91-10.63 1.99-21.38 3.53-32.03 2.25-15.58 5-31.03 8.56-46.33 9.69-41.69 24.53-81.5 44.63-119.29 14.6-27.46 31.5-53.42 50.93-77.77 8.8-11.03 18.4-21.34 27.44-32.14 2.03-2.42 4.47-4.44 7.66-5.26 2-.33 4 .22 6 0z"/><path d="m353.02 424.09h118.98c11.94 0 15.77 4.44 17.21 16.3 1.91 15.8 5.98 31.21 11.61 46.15 1.41 3.73 2.99 7.39 4.47 11.09 2.01 5.05-.1 11.37-5.12 14.28-21.54 12.52-43.15 24.93-64.73 37.39-20.72 11.96-41.42 23.93-62.14 35.88-20.27 11.7-40.55 23.38-60.82 35.08-8.2 4.73-16.55 9.23-24.54 14.3-7.55 4.79-16.12 1.6-19.58-5.52-13.9-28.64-25.17-58.22-33.72-88.85-5.19-18.59-9.3-37.46-12.27-56.5-2.14-13.69-3.58-27.54-4.55-41.42-.46-6.66-.36-12.21 5.65-16.06 3.01-1.93 6.53-2.13 10.06-2.13 39.83.02 79.65.02 119.48.02z"/><path d="m1087.03 424.09c39.63 0 79.27.16 118.9-.1 10.63-.07 18.42 5.42 16.49 18.65-1.95 13.35-2.82 26.94-4.59 40.37-1.08 8.18-2.71 16.31-4.64 24.33-1.58 6.54-8.13 10.05-14.84 8.29-14.58-3.82-29.08-7.91-43.65-11.77-12.96-3.43-26.1-6.26-38.92-10.15-19.72-5.99-39.78-10.75-59.59-16.4-12.14-3.46-24.51-6.5-36.84-9.51-19.38-4.74-38.55-10.33-57.76-15.75-7.55-2.13-11.41-7.44-10.51-13.57 1.47-10.12 5.79-14.32 15.05-14.37 13.82-.07 27.64-.02 41.46-.02h79.43z"/><path d="m934.96 498.03c2.2-8.79 8.07-13.8 19.08-10.62 20.05 5.78 40.38 10.62 60.53 16.04 19.51 5.24 38.93 10.85 58.45 16.07 33.45 8.95 66.95 17.7 100.42 26.6 6.18 1.64 12.32 3.46 18.4 5.43 5.1 1.66 7.72 9.12 5.32 15.91-4.79 13.51-9.66 27-15.54 40.09-3.34 7.43-6.94 14.75-10.54 22.06-3.57 7.25-10.52 9.61-17.42 5.67-15.86-9.04-31.59-18.29-47.4-27.42-20.72-11.96-41.46-23.86-62.19-35.81-20.15-11.61-40.28-23.25-60.42-34.88-14.24-8.22-28.46-16.48-42.74-24.64-3.05-1.74-5.36-3.9-5.97-7.5.15-2.34-.15-4.67.01-7.01z"/><path d="m916.47 542.01c5.44-.63 9.07 3.21 13.13 5.51 27.28 15.53 54.4 31.35 81.56 47.08 27.02 15.65 54.03 31.32 81.07 46.94 13.81 7.98 27.66 15.88 41.5 23.81 9.2 5.27 10.74 11.72 4.8 20.63-12.16 18.24-25.45 35.64-40.13 51.91-6.39 7.08-13.1 6.91-19.73.28-57.39-57.36-114.77-114.73-172.15-172.09-4.8-4.8-6.11-9.46-3.4-14.76 2.73-5.34 6.48-9.76 13.35-9.3z"/><path d="m934.96 498.03c1.08 2.34 1.86 4.67-.01 7.01-1.54-2.34-1.54-4.67.01-7.01z"/><path d="m1109.95 54.23c-2 1.92-4 .88-6 0 2-1.51 4-1.51 6 0z"/></g></svg>