<svg viewBox="0 0 52 70.5" xmlns="http://www.w3.org/2000/svg"><path d="m49.82 7.57-36.76-7.03c-.14-.03-.29-.04-.43-.04-1.06 0-2 .75-2.21 1.83l-1.87 9.78h1.57l1.82-9.49c.06-.33.36-.58.69-.58s.09 0 .14.01l36.76 7.03c.38.07.64.45.56.83l-6.27 32.76v8.2l7.78-40.67c.23-1.22-.57-2.4-1.79-2.63z" fill="#862633"/><rect fill="#862633" height="56.85" rx="2.25" width="41.92" x=".36" y="13.65"/><g fill="#fff"><path d="m32.59 39.91v-.04c-.04-2.53-.89-4.9-2.47-6.87-1.82-2.27-4.47-3.76-7.33-4.13v-.02s-.61-.05-.61-.05c-.08 0-.17 0-.25-.01v-.02h-1.22v.02c-.08 0-.17 0-.25.01l-.61.05v.02c-2.76.36-5.26 1.71-7.09 3.85-1.71 1.99-2.67 4.53-2.71 7.16v.04s0 .09 0 .14c0 2.59.9 5.13 2.54 7.13 1.87 2.29 4.57 3.75 7.49 4.08v.02s.61.03.61.03h.03v.02h1.22v-.02s.02 0 .03 0l.61-.03v-.02c3.05-.34 5.84-1.91 7.72-4.38 1.51-1.98 2.3-4.34 2.3-6.83 0-.05 0-.09 0-.14zm-7.52 5.2c-.05.14-.1.27-.16.41-.01.02-.02.05-.03.07-.05.11-.09.22-.14.33-.02.05-.04.09-.06.14-.04.09-.08.17-.12.26-.02.05-.05.1-.07.15-.04.08-.08.16-.13.24-.03.05-.05.1-.08.14-.05.08-.09.17-.14.25-.02.04-.05.08-.07.12-.06.11-.13.22-.2.32 0 .01-.02.03-.02.04-.08.12-.15.23-.23.35-.02.04-.05.07-.08.11-.06.08-.11.16-.17.23-.03.04-.06.08-.09.13-.05.07-.11.14-.16.21-.03.04-.07.08-.1.12-.06.07-.11.14-.17.2-.03.04-.06.08-.1.11-.07.08-.14.15-.2.22-.02.03-.05.05-.07.08-.09.1-.19.19-.28.29-.02.02-.05.04-.07.06-.06.06-.12.12-.18.17v-5.6s.08 0 .12 0h.16c.12 0 .23.01.35.02.05 0 .09 0 .14.01.16.01.32.03.48.05h.06c.14.02.28.04.42.06.05 0 .1.02.15.03.11.02.22.04.33.06l.15.03c.13.03.25.06.37.09.03 0 .06.01.1.02.14.04.28.07.42.12-.03.08-.05.16-.08.23-.01.04-.03.08-.04.11zm-4.95 4.18c-.07-.07-.14-.15-.21-.23-.03-.04-.06-.07-.09-.11-.06-.07-.11-.13-.17-.2-.03-.04-.07-.08-.1-.12-.05-.07-.11-.13-.16-.2-.03-.04-.06-.08-.09-.12-.05-.07-.11-.15-.16-.22-.03-.04-.05-.07-.08-.11-.08-.11-.15-.22-.22-.33 0 0 0 0 0-.01-.07-.11-.14-.22-.21-.34-.02-.04-.05-.08-.07-.12-.05-.08-.09-.16-.14-.24-.03-.05-.05-.09-.08-.14-.04-.08-.08-.15-.12-.23-.02-.05-.05-.1-.07-.14-.04-.08-.08-.16-.12-.25-.02-.05-.04-.09-.06-.14-.05-.1-.09-.2-.13-.3-.01-.03-.03-.06-.04-.09-.06-.13-.11-.26-.16-.4-.01-.03-.03-.07-.04-.1-.03-.08-.06-.16-.09-.24.15-.05.31-.1.46-.14.04-.01.09-.03.13-.04.12-.03.24-.07.37-.1.05-.01.09-.02.14-.03.16-.04.32-.07.49-.11h.04c.15-.03.31-.06.46-.08.05 0 .1-.01.14-.02.13-.02.26-.04.39-.05.04 0 .08 0 .12-.01.16-.02.31-.03.47-.04v5.58c-.06-.05-.11-.11-.17-.16-.03-.02-.05-.05-.08-.07-.09-.09-.19-.19-.28-.28-.02-.02-.04-.05-.06-.07zm-2.45-14.74c.04-.09.07-.18.11-.26.02-.04.03-.08.05-.11.05-.12.11-.25.17-.37 0-.01.01-.03.02-.04.05-.11.1-.21.15-.32l.06-.12c.04-.08.08-.16.12-.23.02-.04.05-.09.07-.13l.12-.21c.03-.05.05-.09.08-.13.04-.07.08-.14.13-.2.03-.04.05-.09.08-.13.04-.07.09-.14.14-.21.03-.04.05-.08.08-.12.05-.08.11-.15.16-.23.02-.03.04-.06.06-.09.08-.1.16-.21.24-.31.01-.02.02-.03.04-.04.07-.08.14-.17.21-.25.03-.03.06-.07.09-.1.05-.06.11-.13.17-.19.03-.04.07-.07.1-.11.05-.06.11-.11.16-.17l.11-.11.16-.16c.04-.03.07-.07.11-.1.02-.02.04-.03.05-.05v5.41c-.15-.01-.31-.02-.46-.04-.04 0-.08 0-.12-.01-.13-.01-.26-.03-.38-.05-.05 0-.1-.01-.14-.02-.15-.02-.31-.05-.46-.08 0 0-.02 0-.03 0-.16-.03-.32-.07-.48-.1-.05-.01-.09-.02-.14-.03-.12-.03-.25-.06-.37-.1-.04-.01-.08-.02-.13-.04-.15-.04-.3-.09-.45-.14.02-.05.04-.11.06-.16s.04-.1.06-.14zm5.15-3.59s.06.07.09.1c.07.09.15.18.22.27 0 .01.02.02.03.04.08.1.16.21.24.31.02.03.05.07.07.1.05.07.11.15.16.23.03.04.06.08.08.13.05.07.09.14.14.21.03.05.06.09.09.14.04.07.09.14.13.21.03.05.06.09.08.14.04.07.08.14.12.22.03.05.05.09.08.14l.12.24.06.12c.05.11.1.22.16.33 0 .02.01.03.02.04.06.13.11.25.17.38.02.04.03.08.05.12.04.09.07.18.11.27l.06.15c.02.05.04.11.06.16-.13.04-.27.08-.41.11-.03 0-.05.01-.08.02-.13.03-.26.06-.39.09-.05.01-.1.02-.15.03-.11.02-.22.04-.33.06-.05 0-.1.02-.15.03-.13.02-.27.04-.4.06-.02 0-.05 0-.07 0-.16.02-.31.03-.47.05-.05 0-.09 0-.14 0-.11 0-.23.02-.35.02-.05 0-.11 0-.16 0-.04 0-.08 0-.12 0v-5.44s.04.04.06.05c.04.04.08.07.11.11.06.05.11.11.17.16l.11.11c.06.06.11.12.17.17.03.04.07.07.1.11.06.06.11.13.17.19zm2.14 12.48c-.13-.03-.27-.06-.41-.09-.06-.01-.11-.02-.17-.03-.12-.02-.24-.05-.36-.07-.06 0-.11-.02-.17-.03-.14-.02-.28-.04-.43-.06-.03 0-.06 0-.1-.01-.18-.02-.35-.04-.53-.05-.05 0-.1 0-.14-.01-.13 0-.26-.02-.39-.02-.06 0-.12 0-.18 0-.05 0-.1 0-.16 0v-2.55h4.05s0 0 0 0v.04c0 .15-.01.3-.02.45 0 .05 0 .09-.01.14 0 .12-.02.25-.03.37 0 .04 0 .08-.01.12-.02.16-.04.32-.06.48 0 .03 0 .06-.01.09-.02.13-.04.26-.06.39 0 .05-.02.09-.03.14-.02.13-.05.26-.08.38 0 .03-.01.06-.02.09-.03.14-.06.27-.1.41-.15-.04-.31-.09-.46-.13-.04 0-.07-.02-.11-.03zm-4.67-.34s-.07 0-.1 0c-.12.01-.24.02-.36.04-.02 0-.03 0-.05 0-.13.02-.27.04-.4.06-.03 0-.06.01-.1.02-.12.02-.23.04-.35.06-.02 0-.04 0-.06.01-.13.03-.26.05-.39.08-.03 0-.06.01-.09.02-.11.03-.22.05-.34.08-.02 0-.05.01-.07.02-.13.03-.26.07-.38.11-.03 0-.06.02-.09.03-.11.03-.22.07-.32.1-.02 0-.03.01-.05.02-.04-.14-.07-.29-.11-.43 0-.03-.01-.07-.02-.1-.03-.13-.06-.26-.08-.4 0-.05-.02-.1-.03-.15-.02-.13-.05-.26-.07-.4 0-.04-.01-.07-.02-.11-.02-.16-.05-.33-.06-.5 0-.04 0-.08-.01-.12-.01-.13-.03-.26-.04-.39 0-.05 0-.1-.01-.15 0-.14-.02-.29-.02-.43 0-.03 0-.05 0-.08v-.02h4.04v2.58s0 0 0 0c-.14 0-.27.02-.41.03zm-2.74-6.97s.06.02.09.03c.13.04.25.07.38.11.02 0 .04.01.06.02.11.03.22.06.33.08.03 0 .06.01.09.02.13.03.26.06.39.08.02 0 .04 0 .06.01.11.02.23.04.35.06.03 0 .07.01.1.02.13.02.26.04.39.06h.05c.12.01.24.03.36.04h.1c.13.01.27.02.4.03v2.58h-4.04c0-.16.02-.33.03-.49 0-.05 0-.09.01-.13.01-.13.02-.26.04-.39 0-.05.01-.09.02-.14.02-.17.04-.34.07-.5 0-.01 0-.03 0-.04.02-.15.05-.31.08-.46 0-.05.02-.1.03-.14.03-.13.05-.26.08-.39 0-.04.02-.08.03-.12.04-.15.07-.3.11-.44.02 0 .03 0 .05.01.11.04.22.07.32.1zm4.71.57c.13 0 .26-.01.39-.02.05 0 .1 0 .14-.01.17-.01.35-.03.52-.05.03 0 .06 0 .1-.01.14-.02.28-.04.42-.06.06 0 .11-.02.17-.03.12-.02.24-.04.36-.07.06-.01.11-.02.17-.03.13-.03.27-.06.4-.09.04 0 .07-.02.11-.03.15-.04.31-.08.46-.12.04.14.07.28.1.42 0 .04.02.07.02.11.03.13.05.25.08.38 0 .05.02.09.03.14.03.15.05.3.08.46v.02c.02.16.04.32.06.48 0 .05.01.09.02.14.01.13.03.25.04.38 0 .04 0 .08.01.12.01.15.02.3.03.45h-4.04v-2.55h.15.18zm4.93 2.57c0-.18-.02-.35-.03-.53 0-.05 0-.1-.01-.16-.01-.13-.02-.26-.04-.39 0-.05-.01-.11-.02-.16-.02-.17-.04-.34-.07-.51 0 0 0-.01 0-.02-.03-.17-.06-.35-.09-.52 0-.05-.02-.1-.03-.15-.03-.13-.05-.26-.08-.39-.01-.05-.02-.1-.03-.15-.04-.17-.08-.34-.13-.51.15-.06.31-.12.46-.19.04-.02.09-.04.13-.06.12-.05.23-.11.35-.16l.12-.06c.15-.07.3-.15.44-.23l.06-.03c.13-.07.25-.14.38-.22.04-.02.08-.05.13-.08l.33-.21c.03-.02.07-.04.1-.06.12-.08.25-.17.37-.25 1.06 1.49 1.68 3.21 1.82 5.03h-4.15zm1.56-5.99c-.1.07-.2.14-.3.2-.01 0-.02.02-.04.02-.11.07-.23.15-.34.22-.03.02-.07.04-.1.06-.12.07-.24.14-.36.21-.01 0-.02.01-.03.02-.13.07-.26.14-.4.21-.04.02-.07.03-.11.05-.11.05-.23.11-.34.16-.03.01-.05.02-.08.03-.12.05-.24.1-.36.15-.01-.04-.03-.07-.04-.1-.05-.13-.1-.26-.15-.39-.02-.06-.04-.11-.07-.17-.06-.15-.12-.3-.19-.44-.01-.03-.02-.06-.04-.08-.08-.17-.16-.34-.24-.51-.02-.05-.05-.09-.07-.14-.06-.12-.13-.24-.19-.36-.03-.05-.06-.11-.09-.16-.07-.12-.14-.25-.22-.37-.02-.04-.05-.08-.07-.11-.1-.16-.2-.31-.3-.46-.02-.04-.05-.07-.08-.11-.08-.12-.16-.23-.25-.34-.04-.05-.07-.09-.11-.14-.08-.11-.17-.21-.25-.32-.02-.03-.04-.06-.07-.08 1.86.49 3.57 1.52 4.88 2.96zm-10.05-2.88c-.08.1-.16.19-.23.29-.03.04-.07.09-.1.13-.09.11-.17.23-.25.34-.02.03-.04.06-.06.08-.1.14-.2.29-.29.44-.03.04-.05.08-.07.12-.07.11-.14.23-.21.34-.03.05-.06.1-.09.16-.06.11-.13.23-.19.34-.02.05-.05.09-.07.14-.08.16-.16.32-.24.49 0 .02-.02.04-.03.06-.07.15-.13.3-.2.45-.02.05-.04.11-.07.16-.05.12-.1.24-.14.37-.01.03-.03.06-.04.1-.11-.05-.22-.1-.33-.15-.02 0-.03-.02-.05-.02-.12-.06-.24-.12-.35-.18-.03-.02-.07-.04-.1-.05-.13-.07-.26-.14-.38-.22 0 0-.01 0-.02 0-.12-.07-.24-.15-.36-.22-.03-.02-.06-.04-.1-.06-.11-.08-.23-.15-.34-.23 0 0-.02-.01-.02-.02-.09-.07-.18-.13-.27-.2 1.29-1.33 2.89-2.26 4.65-2.72-.02.03-.04.05-.06.08zm-5.39 3.57c.11.09.23.17.34.26.03.02.05.04.08.05.11.08.22.15.33.22.04.03.08.05.12.08.12.08.23.15.35.22.02.01.04.03.06.04l.42.24c.04.02.08.04.11.06.11.06.22.12.34.17l.12.06c.15.07.29.14.44.2v.02c0 .03-.02.06-.02.09-.04.15-.08.29-.11.44-.01.06-.03.11-.04.17-.03.13-.06.26-.09.39-.01.05-.02.11-.03.16-.04.18-.07.36-.1.54v.04c-.03.17-.05.34-.07.51 0 .06-.01.11-.02.17-.02.13-.03.27-.04.4 0 .06-.01.11-.01.17-.01.17-.02.34-.03.51v.05h-4.15c.15-1.92.85-3.76 2.01-5.3zm-2.03 6.52h4.16s0 .03 0 .05v.14c0 .14.01.28.02.41 0 .06 0 .12.01.18.01.13.02.27.04.4 0 .05.01.11.02.16.02.18.04.36.07.54v.06c.02.16.05.32.08.48.01.06.02.11.03.17.03.13.05.26.08.38.01.06.02.11.04.17.03.15.07.29.11.44 0 .03.01.06.02.09v.02c-.01 0-.03.01-.04.02-.14.06-.29.13-.43.2-.04.02-.09.04-.13.07-.12.06-.24.12-.35.18-.04.02-.07.04-.11.06-.15.08-.29.17-.44.25-.03.02-.06.03-.08.05-.12.07-.23.15-.35.22-.04.03-.08.06-.12.08-.11.08-.23.16-.34.24-.03.02-.05.04-.08.06-.12.09-.24.18-.35.27-1.14-1.58-1.79-3.47-1.88-5.42zm2.65 6.37c.1-.08.2-.16.31-.24.02-.02.04-.03.07-.05.1-.07.21-.15.31-.22.03-.02.07-.04.1-.07.13-.08.25-.17.38-.24 0 0 .01 0 .02-.01.12-.08.25-.15.38-.22.04-.02.07-.04.11-.06.12-.06.23-.12.35-.18l.06-.03c.11-.06.23-.11.35-.16.01.04.03.07.04.1.05.14.1.28.16.41.02.06.05.11.07.17.07.17.14.33.22.49 0 .02.02.04.02.05.08.18.17.35.26.53.03.05.05.1.08.15.07.13.14.25.21.38.03.05.06.1.09.16.08.14.17.28.25.42.02.03.03.05.05.08.1.16.21.32.32.47.03.04.06.08.09.12.08.12.17.23.26.34.04.05.07.09.11.14.09.12.19.23.29.35.02.02.04.05.06.07-1.91-.47-3.66-1.49-5.01-2.95zm9.76 2.95c.09-.11.18-.21.27-.32.02-.03.05-.06.07-.09.08-.1.17-.21.25-.32 0 0 .01-.02.02-.03.09-.12.17-.23.26-.35l.06-.09c.08-.11.15-.22.22-.34 0-.01.02-.02.02-.03.08-.12.16-.25.23-.38.02-.03.04-.06.06-.1.07-.12.13-.23.2-.35 0-.01.02-.03.02-.04.07-.13.14-.26.21-.4.02-.03.03-.07.05-.1.06-.12.12-.24.17-.36 0-.02.02-.03.02-.05.06-.14.12-.27.18-.41.01-.03.03-.07.04-.1.05-.12.1-.25.15-.37 0-.02.02-.04.02-.06.04-.11.08-.23.12-.35.13.05.26.1.38.16.03.01.06.03.09.04.12.05.23.11.35.16l.12.06c.28.14.55.29.82.45.04.02.07.04.11.07.11.07.21.14.32.21.03.02.05.03.08.05.11.08.22.16.33.24-1.38 1.6-3.22 2.72-5.25 3.21zm5.99-4.18c-.12-.09-.25-.18-.38-.27-.03-.02-.06-.04-.1-.06-.11-.08-.23-.15-.34-.22-.04-.03-.09-.06-.13-.08-.12-.07-.25-.15-.37-.22-.03-.02-.05-.03-.08-.05-.15-.08-.3-.16-.46-.24-.04-.02-.08-.04-.12-.06-.12-.06-.24-.11-.36-.17-.05-.02-.09-.04-.14-.06-.15-.07-.3-.13-.45-.19-.01 0-.02 0-.04-.01.04-.17.08-.33.12-.5.01-.05.02-.1.03-.15.03-.12.05-.25.07-.37.01-.05.02-.11.03-.16.03-.15.05-.3.07-.45 0-.02 0-.05.01-.07.02-.17.05-.35.07-.52 0-.05 0-.1.01-.15.01-.13.02-.26.03-.39 0-.06 0-.11.01-.17 0-.14.02-.28.02-.42 0-.04 0-.08 0-.11 0-.01 0-.02 0-.03h4.16c-.08 1.85-.66 3.61-1.69 5.14z"/><path d="m10.04 60.26h22.55v1.94h-22.55z"/><path d="m13.04 56.32h16.57v1.94h-16.57z"/><path d="m10.04 21.44h22.55v1.94h-22.55z"/></g></svg>