<svg viewBox="0 0 50 50" xmlns="http://www.w3.org/2000/svg"><circle cx="25" cy="25" fill="#578bc7" r="24.5"/><path d="m37.09 30.54c0 2.99-2.35 6.73-4.76 6.73-.68 0-1.26-.24-1.63-.68-1.53.68-3.33 1.19-5.37 1.19-6.42 0-12.41-5.78-12.41-12.88s5.85-12.68 13.16-12.68c2.18 0 3.98.47 5.44 1.12.34-.58.92-.92 1.63-.92 2.31 0 3.94 3.33 3.94 6.49 0 2.86-1.53 3.67-2.58 3.67-1.5 0-2.18-.88-3.26-2.24-1.6-2.04-3.23-3.54-5.41-3.57-2.69-.03-3.84 2.04-3.84 4.96 0 5 3.54 9.69 7.27 9.69 1.39 0 2.69-.51 3.84-1.84.58-.64 1.12-1.5 2.21-1.5 1.16 0 1.77 1.02 1.77 2.45z" fill="#222"/></svg>