<svg fill="none" height="19" viewBox="0 0 22 19" width="22" xmlns="http://www.w3.org/2000/svg" xmlns:xlink="http://www.w3.org/1999/xlink"><clipPath id="a"><path d="m.5625 0h21v19h-21z"/></clipPath><g clip-path="url(#a)" fill="#2dcccd"><path d="m5.91338 19.0001c2.53863.049 4.78802-2.6466 6.33052-4.4437 1.5907-1.8461-1.0604-4.5744-2.66717-2.712-.61056.7025-1.23719 1.3723-1.91202 2.0095-.40168.3757-1.17291 1.3233-1.75133 1.3233-2.42617-.049-2.42617 3.7902 0 3.8392z"/><path d="m4.69195 10.8315c-.11247-2.0258-.24101-4.0516-.35348-6.06106-.14461-2.45056-3.920433-2.46689-3.775827 0 .112471 2.0258.24101 4.05159.353481 6.06106.144606 2.4506 3.920426 2.4669 3.775826 0z"/><path d="m10.3956 4.31302c1.205-.45743 2.4261-.63714 3.6954-.37575.9962.21238 2.0406-.29407 2.3137-1.33964.2571-.94755-.3213-2.140153-1.3175-2.352534-1.912-.408427-3.8722-.3430785-5.70389.375752-.94797.359415-1.60673 1.290632-1.31752 2.352532.25708.93122 1.36573 1.7154 2.31371 1.33964z"/><path d="m16.9195 10.4067c.8997.6372 1.0122 1.8298.6748 2.7937-.3374.9802.3856 2.0911 1.3175 2.3525 1.0444.2941 1.9763-.3594 2.3137-1.3396.9319-2.663-.1928-5.52197-2.4101-7.123-.8355-.60447-2.1048-.14703-2.5868.68616-.5463.96388-.1607 2.02579.6748 2.63024z"/></g></svg>