<svg viewBox="0 0 59.03 214.61" xmlns="http://www.w3.org/2000/svg"><path d="m56.07 53.2c-4.64-21.99-18.63-33.58-18.63-33.58v-4.35h1.36c.54 0 .97-.44.97-.97v-.7c0-.54-.44-.97-.97-.97h-.61c0-.08.02-.16.02-.24v-10.02c0-1.31-1.06-2.37-2.37-2.37h-13.09c-1.31 0-2.37 1.06-2.37 2.37v10.03c0 .08.02.16.02.24h-.53c-.54 0-.97.44-.97.97v.7c0 .54.44.97.97.97h1.73v4.35s-14 11.58-18.63 33.57c0 0-3.12 9.92-2.97 24.79v109.01s.64 7.52 3.28 13.92c0 0 4.4 11.2 8.16 11.36 0 0 2.08 2.16 5.36 2.32s6.24-2.24 7.68-3.2 1.68-.4 3.2.48c.5.29.92.45 1.27.55v.09s.2.05.56.01c.36.03.56-.01.56-.01v-.09c.35-.1.77-.26 1.27-.55 1.52-.88 1.76-1.44 3.2-.48s4.4 3.36 7.68 3.2 5.36-2.32 5.36-2.32c3.76-.16 8.16-11.36 8.16-11.36 2.64-6.4 3.28-13.92 3.28-13.92v-109.01c.16-14.88-2.96-24.79-2.96-24.79z" fill="#28bef0"/></svg>