<svg fill="none" height="220" viewBox="0 0 210 220" width="210" xmlns="http://www.w3.org/2000/svg"><g fill="#f05a5f"><path d="m.0296021 157.659c0-18.377 0-36.755 0-55.133 0-4.5064 1.4789079-6.1963 5.9508079-6.83 21.51439-3.063 40.45839-11.759 56.69099-26.2288 2.8522-2.5348 5.7395-2.4644 8.486.2817 12.8876 12.8503 25.7399 25.7006 38.5926 38.5861 11.408 11.407 22.817 22.779 34.19 34.185 1.866 1.866 3.733 3.732 5.599 5.598 3.028 3.098 2.993 6.126-.141 9.119-16.549 15.631-34.965 28.517-55.3177 38.656-22.1482 11.02-45.4584 18.273-69.9306 21.688-5.7748.809-11.5847 1.302-17.39463 1.725-4.4719.352-6.6902486-1.866-6.6902486-6.302 0-18.448 0-36.897 0-55.345z"/><path d="m209.786 55.5253c-.774.5633-1.479 1.3027-2.359 1.6547-5.528 2.3237-11.197 4.4008-16.655 6.9357-14.331 6.6188-23.522 18.0257-29.296 32.4251-1.444 3.5912-2.712 7.2882-4.226 10.8792-.352.809-1.408 1.866-2.112 1.83-.74 0-1.726-1.091-2.078-1.936-2.676-6.126-4.965-12.4983-7.923-18.4834-6.373-12.956-16.972-21.3703-30.07-26.8625-3.874-1.6195-7.817-3.063-11.761-4.5768-1.162-.4577-2.571-.7041-2.535-2.3588.035-1.4787 1.302-1.7604 2.429-2.218 6.092-2.5349 12.254-4.8233 18.17-7.7455 12.817-6.3019 21.232-16.7582 26.69-29.7141 1.725-4.0488 3.24-8.16794 4.824-12.25188.423-1.16181.81-2.394036 2.289-2.394036 1.514 0 1.831 1.302646 2.253 2.429246 2.536 7.28777 5.458 14.43467 9.332 21.12387 6.69 11.6181 16.866 19.0466 28.979 24.1163 3.873 1.6195 7.852 2.9926 11.725 4.5769.845.3521 1.55 1.1266 2.324 1.7251z"/></g></svg>