<svg fill="none" height="307" viewBox="0 0 307 307" width="307" xmlns="http://www.w3.org/2000/svg"><path d="m144.342.963867c2.35.748693 3.127 2.392573 3.095 4.817703-.081 7.58463-.033 15.16923-.033 22.77013 0 3.9225-.858 4.8014-4.779 5.1432-14.697 1.3021-28.761 4.9968-41.999 11.556-26.1193 12.9557-45.3037 32.7799-57.4398 59.3751-5.023 11.002-8.1502 22.591-9.5437 34.619-.2106 1.79-.3726 3.581-.5347 5.371-.243 2.572-1.4907 3.809-4.0345 3.809-8.134.016-16.2842.016-24.41811 0-2.68972 0-4.180404-1.612-4.00217-4.314 1.39347-20.263 6.40022-39.567 15.36058-57.7957 8.0691-16.4062 18.6983-30.9244 31.9201-43.4895 18.0664-17.1549 39.0494-29.248 62.9493-36.14905 10.224-2.94596 20.626-4.8177 31.239-5.50129.324-.01628.648-.13021.972-.195317h1.248z" fill="#f7a11e"/><path d="m66.3038 148.442c-4.0507 0-8.1015 0-12.1523 0-2.9976 0-4.472-1.611-4.1642-4.606 2.3981-22.965 11.2288-43.034 26.7837-60.0746 12.9949-14.2252 28.761-24.0722 47.216-29.5247 6.303-1.8555 12.736-3.0273 19.265-3.6458 2.463-.2279 4.132 1.3672 4.148 4.0364.017 7.0801 0 14.1602 0 21.2565v3.6459c-.032 2.539-1.118 3.8248-3.597 4.1341-7.437.944-14.55 2.9785-21.258 6.3151-18.715 9.2936-31.256 23.9421-37.3159 44.0271-1.0532 3.515-1.6042 7.177-2.2685 10.807-.4537 2.441-1.6527 3.613-4.1318 3.629-4.1804.017-8.3446 0-12.525 0z" fill="#f7a11e"/><g fill="#578bc7"><path d="m162.631.963867c2.446.260413 4.877.488283 7.324.764973 17.791 2.01823 34.707 6.98241 50.748 14.99026 2.3 1.1393 2.884 3.2552 1.555 5.5989-4.812 8.431-9.657 16.8457-14.502 25.2604-7.421 12.9232-14.858 25.83-22.295 38.7369-.405.7162-.907 1.4323-1.539 1.9369-1.248 1.0091-2.609.7812-4.019.1953-4.828-2.0182-9.819-3.4831-14.988-4.362-1.199-.1953-2.398-.3255-3.581-.5697-1.749-.358-2.819-1.6601-2.932-3.4342-.016-.3743 0-.7487 0-1.1393 0-24.3978 0-48.7955 0-73.17701 0-2.92968.534-3.72721 3.24-4.801423h1.005z"/><path d="m194 94.2577c.259-.6999.421-1.4486.794-2.0834 9.398-16.3737 18.812-32.7473 28.21-49.1047 2.949-5.1107 5.881-10.2377 8.83-15.3483 1.377-2.3763 3.435-2.9134 5.688-1.3998 14.615 9.7982 27.188 21.7448 37.704 35.8887 1.604 2.1484 3.111 4.3619 4.634 6.5592 1.669 2.4414 1.183 4.541-1.328 6.0058-21.097 12.2396-42.21 24.4792-63.306 36.7188-.292.163-.583.325-.875.488-2.058 1.107-3.759.765-5.185-1.107-3.84-5.061-8.296-9.521-13.319-13.3784-1.053-.8138-1.734-1.8067-1.831-3.2389z"/><path d="m265.497 148.425c-12.136 0-24.288 0-36.424 0-3.338 0-4.343-.863-4.78-4.118-.81-5.974-2.366-11.735-4.651-17.302-1.069-2.604-.567-4.166 1.848-5.582 15.376-8.936 30.769-17.855 46.162-26.7906 5.817-3.3692 11.634-6.7546 17.451-10.1237 2.738-1.5951 4.731-.9929 6.125 1.8554 6.821 13.8999 11.455 28.4829 13.772 43.8149.697 4.59 1.135 9.229 1.523 13.851.26 3.011-1.182 4.395-4.212 4.395-12.266 0-24.532 0-36.798 0z"/></g><path d="m158.371 263.565c0-12.902 0-25.821 0-38.723 0-3.165 1.022-4.363 4.157-4.808 15.041-2.156 28.277-8.265 39.639-18.412 1.993-1.779 4.003-1.728 5.928.206 8.994 9.017 17.989 18.069 26.983 27.087 7.972 8.008 15.944 15.999 23.916 24.007 1.295 1.3 2.607 2.618 3.901 3.936 2.13 2.173 2.096 4.295-.102 6.399-11.549 10.969-24.445 20.037-38.685 27.156-15.468 7.751-31.77 12.85-48.89 15.246-4.037.565-8.108.907-12.162 1.215-3.135.239-4.668-1.301-4.668-4.432 0-12.953 0-25.906 0-38.86z" fill="#f05a5f"/><path d="m306.519 191.818c-.545.393-1.039.907-1.636 1.163-3.883 1.643-7.836 3.097-11.651 4.86-10.017 4.654-16.439 12.645-20.476 22.758-1.005 2.532-1.908 5.116-2.964 7.631-.238.565-.988 1.318-1.465 1.301-.511-.017-1.192-.77-1.448-1.352-1.874-4.312-3.475-8.761-5.536-12.987-4.446-9.103-11.873-15.007-21.021-18.857-2.708-1.146-5.468-2.156-8.21-3.217-.818-.308-1.789-.496-1.772-1.66.034-1.043.92-1.232 1.704-1.574 4.241-1.779 8.568-3.405 12.69-5.441 8.96-4.432 14.837-11.773 18.67-20.876 1.193-2.84 2.266-5.732 3.373-8.607.307-.804.562-1.677 1.601-1.677 1.056 0 1.295.907 1.567 1.711 1.789 5.117 3.816 10.13 6.525 14.853 4.684 8.145 11.788 13.364 20.254 16.94 2.708 1.146 5.485 2.105 8.211 3.217.596.239 1.073.787 1.618 1.198v.599z" fill="#f05a5f"/><path d="m147.548 265.576c0 12.158 0 24.3-.016 36.458 0 1.026-.146 2.133-.567 3.044-.648 1.416-2.01 2.035-3.533 1.856-6.043-.7-12.087-1.433-18.115-2.181-.939-.114-1.879-.342-2.819-.57-2.22-.553-3.37-2.49-2.787-4.688 4.974-18.684 9.965-37.369 14.956-56.038 1.458-5.452 2.916-10.921 4.391-16.374.518-1.937 2.025-3.06 3.823-2.962 2.836.163 4.262 1.237 4.586 3.499.097.668.097 1.335.097 2.002v35.954z" fill="#662d90"/><path d="m41.7482 159.41h36.8134c3.354 0 5.3632 2.735 4.3748 5.973-.4212 1.4-1.442 2.214-2.8355 2.588-17.5966 4.737-35.1931 9.457-52.8059 14.193-6.3192 1.693-12.6384 3.402-18.97382 5.094-2.73833.733-4.65029-.439-5.07157-3.271-.93978-6.462-1.81475-12.939-2.624906-19.417-.340265-2.735.567106-4.346 2.560086-4.965.58331-.179 1.23144-.195 1.84716-.195h36.68385z" fill="#ec1b23"/><path d="m124.156 219.012c2.414.196 5.347 1.791 4.294 5.697-6.222 23.112-12.38 46.256-18.553 69.385-.211.814-.389 1.627-.632 2.425-.745 2.49-2.706 3.581-5.152 2.669-4.4563-1.66-8.8797-3.418-13.2708-5.208-1.8471-.749-3.6457-1.66-5.4442-2.556-2.7059-1.35-3.2892-3.352-1.7661-5.989 8.5228-14.844 17.0621-29.671 25.5851-44.499 3.759-6.526 7.518-13.053 11.245-19.596.793-1.4 1.798-2.409 3.678-2.344z" fill="#0071bb"/><path d="m19.7508 224.516c-1.5555-.179-2.6735-.814-3.3378-2.132-3.2082-6.364-5.9465-12.939-8.15016-19.727-.72914-2.229.38888-4.166 2.62486-4.768 12.8005-3.467 25.6171-6.901 38.4338-10.352 11.1639-3.011 22.3117-6.006 33.4756-9.017 2.2846-.618 3.9049.179 4.8285 2.376 1.0694 2.507.5995 4.216-1.5717 5.485-16.2193 9.424-32.4386 18.816-48.6741 28.223-5.0878 2.962-10.1917 5.925-15.2957 8.854-.7454.423-1.5717.7-2.3657 1.042z" fill="#f6921e"/><path d="m50.3359 265.827c.5996-.961 1.037-2.051 1.8148-2.832 6.546-6.657 13.1407-13.249 19.7192-19.857 10.8074-10.84 21.5987-21.696 32.4061-32.536 2.285-2.295 5.574-1.758 7.113 1.107.713 1.335.535 2.637-.21 3.939-4.618 8.008-9.22 16.048-13.8217 24.056-7.7126 13.427-15.4415 26.855-23.1542 40.283-1.4907 2.588-3.6457 3.174-6.06 1.367-5.3794-4.036-10.6616-8.203-15.9762-12.321-.9722-.749-1.5717-1.725-1.4907-3.027-.1134-.065-.2106-.13-.3241-.196z" fill="#39b44a"/><path d="m41.2932 256.839c-.8749-.489-1.9443-.798-2.5763-1.498-4.7313-5.257-9.0413-10.872-12.8814-16.813-1.1991-1.855-.6968-3.89 1.28-5.062 4.5855-2.734 9.2196-5.403 13.8537-8.089 14.1615-8.219 28.3068-16.439 42.4683-24.642 2.7059-1.578 5.4118-3.157 8.1501-4.687 2.2037-1.237 3.824-.798 5.4119 1.318 1.3934 1.839 1.2314 3.679-.4699 5.404-17.3211 17.399-34.626 34.782-51.9471 52.181-.875.879-1.7662 1.692-3.1272 1.611-.0487.098-.0973.195-.1621.293z" fill="#fbed20"/></svg>