<svg fill="none" height="8" viewBox="0 0 23 8" width="23" xmlns="http://www.w3.org/2000/svg"><path d="m22.0614 1.845c-.6828.525-1.2138 1.14-1.6993 1.71-1.0469 1.245-1.76 1.995-3.1862 1.995s-2.1393-.765-3.1862-1.995c-1.0621-1.245-2.3669-2.805-4.93105-2.805-2.56414 0-3.88414 1.56-4.93104 2.805-1.04689 1.245-1.76 1.995-3.186204 1.995v2.25c2.564134 0 3.884134-1.56 4.931034-2.805s1.76-1.995 3.18621-1.995c1.42625 0 2.13935.765 3.18625 1.995 1.062 1.245 2.3669 2.805 4.931 2.805s3.8841-1.56 4.931-2.805c.0152-.015.0304-.03.0455-.045-.0607-1.035-.091-2.07-.1062-3.105z" fill="#fff" opacity=".56"/></svg>