<svg viewBox="0 0 1952.29 512.5" xmlns="http://www.w3.org/2000/svg" xmlns:xlink="http://www.w3.org/1999/xlink"><linearGradient id="a" gradientTransform="matrix(1 0 0 -1 0 260)" gradientUnits="userSpaceOnUse" x1="-396.77" x2="1353.57" y1="571.99" y2="-109.44"><stop offset="0" stop-color="#fff"/><stop offset=".73" stop-color="#9fbee2"/></linearGradient><path d="m1874.42 122.1v-39.78h-196.01v77.7h-63.09v-37.39l-100.1-30.13v42.14h-31.25v-69.54h-92.61v111.08h-125.92v-176.18h-119.74v71.53h-134.97v85.38h-99.59v-54.26l-76.16-22.94-87.68 26.4v35.25h-130.07v34.21h-36.63v-9.33h-3.35v-47.6h-41.29v47.6h-31.15v55.58h-75.28v-21.27h-33.88v28.46h-73.62v-51.96h-84.94v38.17h-12.17v-114.12h-27.53v114.12h-13.76v-29.18h-50.22v14.51h-36.38v-17.14h-85.72l-11.31.26v148.7h1952.29v-210.27z" fill="url(#a)"/><path d="m1770.72 122.76v78.64h-46.78v-49.79h-121.02v26.4h-58.51v-26.4h-10.25v-35.6h-46.11v35.6h-11.78v26.4h-30.26v48.3h-70.8v31.09h-125.01v-124.02h-93.12v38.37h-84.63v37.17h-21.72v21.59h-15.96v74.33h-143.61v-109.27h-82.45v-62.19h-55.85-55.85v62.19h-82.45v109.27h-107.45v-29.41h-36.17v-44.92h-15.95v-21.59h-21.72v-37.17h-84.63v-38.37h-93.13v124.02h-122.1v-154.7h-39.98v-14.25h-70.9v36.66h-14.69v143.59 27.66 22.88h21.61 24.81 363.34 89.51 1094.2 122.63 46.78 71.39 39.86v-196.48z" fill="#a1a8d1"/><path d="m569.46 272.3c0-16.74-10.17-30.31-22.71-30.31s-22.71 13.57-22.71 30.31c0 15.84 9.11 28.84 20.72 30.19v16.76h3.98v-16.76c11.61-1.35 20.72-14.34 20.72-30.19z" fill="#a1a8d1"/><path d="m211.16 263.29c0-19.95-12.12-36.12-27.06-36.12s-27.06 16.17-27.06 36.12c0 18.88 10.86 34.37 24.69 35.97v19.98h4.74v-19.98c13.83-1.6 24.69-17.09 24.69-35.97z" fill="#a1a8d1"/><ellipse cx="186.25" cy="228.56" fill="#a1a8d1" rx="15.14" ry="24.72"/><path d="m569.46 243.93c0 15.67-7.02 28.37-15.67 28.37s-15.67-12.7-15.67-28.37 7.02-28.37 15.67-28.37 15.67 12.7 15.67 28.37z" fill="#a1a8d1"/><path d="m553.78 257.06c0 13-6.66 23.54-14.87 23.54s-14.87-10.54-14.87-23.54 6.66-23.54 14.87-23.54 14.87 10.54 14.87 23.54z" fill="#a1a8d1"/><g fill="#91b7ce"><path d="m778.26 111.23h12.39v14.82h-12.39z"/><path d="m811.86 111.23h12.39v14.82h-12.39z"/><path d="m845.57 111.23h12.39v14.82h-12.39z"/><path d="m1065.44 83.3h12.39v14.82h-12.39z"/><path d="m1099.04 83.3h12.39v14.82h-12.39z"/><path d="m1132.76 83.3h12.39v14.82h-12.39z"/><path d="m1065.38 104.24h12.39v14.82h-12.39z"/><path d="m1098.98 104.24h12.39v14.82h-12.39z"/><path d="m1132.7 104.24h12.39v14.82h-12.39z"/><path d="m1160.28 47.53h10.1v12.66h-10.1z"/><path d="m1160.28 25.02h10.1v12.66h-10.1z"/><path d="m1160.28 70.21h10.1v12.66h-10.1z"/><path d="m1160.28 88.44h10.1v12.66h-10.1z"/></g><path d="m336.17 320.25h-44.5v-176.04h34.41v168.93c0 .56-.92 1.01-2.07 1.01s-2.07-.45-2.07-1.01v-166.91h-26.15v171.99h36.24v-176.22h-42.67v177.24c0 .56-.92 1.01-2.07 1.01s-2.07-.45-2.07-1.01v-179.26h50.92v180.27h.01z" fill="#6d789b"/><path d="m112.07 107.88h7.34v16.36h-7.34z" fill="#6d789b" opacity=".36"/><path d="m1868.2 149.47h84.08v182.9h-84.08z" fill="#a1a8d1"/><path d="m112.07 128.95h7.34v16.36h-7.34z" fill="#6d789b" opacity=".36"/><path d="m112.07 152.8h7.34v16.36h-7.34z" fill="#6d789b" opacity=".36"/><path d="m112.07 175.02h7.34v16.36h-7.34z" fill="#6d789b" opacity=".36"/><path d="m83.85 88.45h9.63v230.79h-9.63z" fill="#6d789b" opacity=".36"/><path d="m69.63 88.45h9.63v230.79h-9.63z" fill="#6d789b" opacity=".36"/><path d="m54.49 88.45h9.63v230.79h-9.63z" fill="#6d789b" opacity=".36"/><path d="m41.64 88.45h9.63v230.79h-9.63z" fill="#6d789b" opacity=".36"/><path d="m399.25 175.02h27.53v18.24h-27.53z" fill="#6d789b" opacity=".39"/><path d="m363.47 175.02h27.53v18.24h-27.53z" fill="#6d789b" opacity=".39"/><path d="m633.67 207.13h11.93v7.91h-11.93z" fill="#6d789b" opacity=".39"/><path d="m621.75 199.22h11.93v7.91h-11.93z" fill="#6d789b" opacity=".39"/><path d="m648.36 199.89h11.93v7.91h-11.93z" fill="#6d789b" opacity=".39"/><path d="m667.17 199.89h11.93v7.91h-11.93z" fill="#6d789b" opacity=".39"/><path d="m688.27 131.75h123.58v2.69h-123.58z" fill="#79839b"/><path d="m.44 313.53h1951.84v18.84h-1951.84z" fill="#79839b"/><path d="m.44 332.37h1951.84v180.13h-1951.84z" fill="#e3e7ed"/><path d="m.44 332.37h1951.84v41.44h-1951.84z" fill="#ede35f"/><path d="m.44 332.37h1951.84v31.15h-1951.84z" fill="#b7e897"/><path d="m.44 331.99h1951.84v9.83h-1951.84z" fill="#8cd35e"/><path d="m.28 372.68h1952v9.43h-1952z" fill="#fff9c5"/><path d="m.28 377.39h1952v4.71h-1952z" fill="#7b787f"/><path d="m.44 382.11h1951.84v60.34h-1951.84z" fill="#8d8796"/><path d="m.44 442.46h1951.84v9.43h-1951.84z" fill="#4b4751"/><path d="m.44 438.42h1951.84v4.04h-1951.84z" fill="#ccc7d3"/><path d="m52.69 438.42-16.53 4.04-.4 9.43h1.34l.14-9.43z" fill="#38393d"/><path d="m87.95 438.42-16.53 4.04-.4 9.43h1.35l.13-9.43z" fill="#38393d"/><path d="m130.33 438.42-16.54 4.04-.4 9.43h1.35l.13-9.43z" fill="#38393d"/><path d="m193.06 438.42-16.53 4.04-.4 9.43h1.35l.13-9.43z" fill="#38393d"/><path d="m285.11 438.42-16.53 4.04-.41 9.43h1.35l.13-9.43z" fill="#38393d"/><path d="m377.15 438.42-16.53 4.04-.41 9.43h1.35l.13-9.43z" fill="#38393d"/><path d="m469.19 438.42-16.53 4.04-.4 9.43h1.34l.14-9.43z" fill="#38393d"/><path d="m561.23 438.42-16.52 4.04-.41 9.43h1.35l.13-9.43z" fill="#38393d"/><path d="m653.27 438.42-16.53 4.04-.4 9.43h1.35l.13-9.43z" fill="#38393d"/><path d="m745.32 438.42-16.53 4.04-.4 9.43h1.34l.14-9.43z" fill="#38393d"/><path d="m1712.57 438.42-33.58 4.04-.82 9.43h2.74l.27-9.43z" fill="#38393d"/><path d="m1899.57 438.42-33.58 4.04-.81 9.43h2.73l.27-9.43z" fill="#38393d"/></svg>