<svg viewBox="0 0 106.13 75.52" xmlns="http://www.w3.org/2000/svg"><path d="m35.51 3.19c.87-1.41 2.71-1.84 4.12-.97l8.75 5.41c1.41.87 1.84 2.71.97 4.12l-35.06 56.69c-.87 1.41-2.71 1.84-4.12.97l-8.75-5.41c-1.41-.87-1.84-2.71-.97-4.12z" fill="#c5d3cf"/><path d="m9.18 68.8.99.61c1.41.87 3.25.43 4.12-.97l35.06-56.69c.87-1.41.43-3.25-.97-4.12l-.99-.61z" fill="#ed193e"/><path d="m7.44 55.05-.48-.09s0 0 0 0 .03.4.08.44c.03.03 1.23.77 1.79 1.11v.04c-.02.28-.04.58-.06.89v.08c0 .16-.02.31-.03.47v.07c0 .15-.02.31-.02.46v.04c-.03.6-.05 1.22-.07 1.81l-.65-.14s0 0 0 0 0-.01 0-.02c0 0 0 0 0-.01s-.01-.05-.02-.07c0 0 0 0-.01 0s-.03 0-.04 0 0 0-.01 0v.05s0 .01 0 .02v.01l-.63-.14s0-.01 0-.02c0 0 0 0 0-.01s-.01-.05-.02-.07c0 0 0 0-.01 0s-.03 0-.04 0 0 0-.01 0c0 .01 0 .03-.01.05v.02l-.49-.11-.14-.03s0 0 0-.01c0 0 0 0 0-.01s0-.05-.02-.07c0 0 0 0-.01 0s-.03 0-.05 0 0 0-.01 0v.05s0 .01 0 .02l-.63-.14s0 0 0 0 0-.01 0-.02v-.01s0-.05-.01-.07h-.01s0 0 0 0c-.01 0-.03 0-.04 0s0 0-.01 0v.05t0 0s0 .02 0 .03l-.64-.14s-.05.12 0 .18c0 0 0 0 .01.01s.01.01.02.02h.01c.01 0 .03.02.04.03 0 0 0 0 .01.01.04.03.09.07.15.11 0 0 .01 0 .02.01.03.02.06.04.09.07.01 0 .02.02.03.02.43.31 1.13.81 1.79 1.27 0 .07 0 .16.01.25s0 0 0 0c0 .07.02.14.03.2s0 0 0 0h.02.02s.02 0 .03 0c.07.01.17.03.28.02.02 0 .04 0 .05-.01h.02s0 0 0 0h.01c.03 0 .07-.02.1-.03 0 0 0-.01 0-.03.16.12.32.22.45.32.02.01.03.02.05.04.09.06.17.12.25.17v.37c0 .27-.01.5-.01.68v.05.08.05.06.04.08c0 .91.28 1.65.61 1.65s.6-.74.59-1.66c0-.02 0-.05 0-.08 0-.02 0-.03 0-.05s0-.03 0-.05 0-.05 0-.07c0-.01 0-.03 0-.04 0-.09 0-.18 0-.29 0-.04 0-.09 0-.13 0 0 0-.02 0-.03 0-.1 0-.2-.01-.31 0-.12-.01-.24-.02-.38.07-.05.15-.11.23-.17.15-.11.32-.23.5-.36v.03c.03.01.07.02.1.03h.01s.01 0 .02 0h.05c.1 0 .2 0 .26-.02.02 0 .03 0 .04-.01s.01 0 .02 0h.02c.02-.07.02-.14.03-.21 0-.09 0-.18 0-.25.33-.24.67-.49.98-.71.02-.01.03-.02.04-.04.04-.03.08-.06.13-.09.04-.03.07-.05.1-.08.02 0 .03-.02.04-.03.03-.03.07-.05.1-.07.01 0 .02-.02.04-.03.04-.03.08-.06.12-.09.07-.06.14-.11.21-.15.01 0 .02-.02.03-.02.03-.02.06-.05.09-.07.06-.05.12-.09.16-.12.02-.01.03-.02.04-.03h.01s.02-.01.02-.02.01-.01.01-.01c.03-.05 0-.13 0-.17 0-.01 0-.02 0-.02l-.64.15s0 0 0 0 0-.02 0-.03c0-.02 0-.04-.01-.05 0 0 0 0-.01 0s-.03 0-.04 0 0 0-.01 0c0 .02 0 .04-.01.07t0 0s0 0 0 0v.02l-.63.15s0-.01 0-.02 0-.04-.01-.05c0 0 0 0-.01 0s-.03 0-.04 0 0 0-.01 0c0 .02 0 .04-.01.07v.02l-.42.1-.2.05s0-.02 0-.03c0-.02 0-.04 0-.05 0 0 0 0-.01 0s-.03 0-.04 0 0 0-.01 0c0 .02-.01.04-.01.07s0 0 0 0v.02l-.62.15s0 0 0 0 0-.02 0-.03c0-.02 0-.04-.01-.05 0 0 0 0-.01 0s-.03 0-.05 0 0 0-.01 0c0 .02-.01.04-.02.07s0 0 0 0v.03l-.64.15c-.03-.6-.06-1.24-.1-1.85s0-.04 0-.06c0-.14-.02-.28-.02-.41 0-.03 0-.05 0-.07-.01-.15-.02-.29-.03-.43 0-.04 0-.09-.01-.13 0-.14-.02-.28-.03-.42 0-.02 0-.03 0-.05-.01-.13-.02-.26-.03-.39 0-.01 0-.03 0-.04.05-.03.1-.07.17-.11 0 0 .02-.01.03-.02.34-.21.79-.5 1.12-.71.01 0 .03-.02.04-.02.03-.02.06-.04.09-.06.01 0 .02-.02.04-.02.06-.04.12-.07.16-.1h.01c.02-.01.04-.03.06-.04t0 0s.03-.02.04-.03c.01 0 .02-.01.02-.01.03-.02.05-.21.06-.34 0-.06 0-.1 0-.1l-.48.1s0 0 0 0l-1.48.3h-.02s0-.03 0-.05 0-.05 0-.07c0-.05-.02-.1-.02-.14-.04 0-.08-.01-.13-.01-.04 0-.08 0-.12.01 0 .03-.01.06-.01.09v.05.04t0 0s0 .04 0 .06l-1.5-.28z" fill="#fff"/><path d="m9.58 63.34h11.05v.76h-11.05z" fill="#fff" transform="matrix(.52562014 -.85071938 .85071938 .52562014 -47.04 43.08)"/><path d="m12.34 62.78h3.55v.76h-3.55z" fill="#fff" transform="matrix(.5269558 -.84989269 .84989269 .5269558 -47 41.87)"/><path d="m14.35 59.53h3.55v.76h-3.55z" fill="#fff" transform="matrix(.52591706 -.85053586 .85053586 .52591706 -43.31 42.12)"/><path d="m10.38 65.95h3.55v.75h-3.55z" fill="#fff" transform="matrix(.5260655 -.85044405 .85044405 .5260655 -50.65 41.77)"/><path d="m48.15 9.56.32.2-5.81 9.4-.33-.2z" fill="#fff"/><path d="m43.12 13.91h3.55v.38h-3.55z" fill="#fff" transform="matrix(.52636233 -.85026037 .85026037 .52636233 9.27 44.85)"/><path d="m45.13 10.66h3.55v.38h-3.55z" fill="#fff" transform="matrix(.52636233 -.85026037 .85026037 .52636233 12.99 45.02)"/><path d="m41.16 17.08h3.55v.38h-3.55z" fill="#fff" transform="matrix(.5260655 -.85044405 .85044405 .5260655 5.66 44.7)"/><path d="m33.86 23.89h11.05v.38h-11.05z" fill="#fff" transform="matrix(.52576861 -.85062763 .85062763 .52576861 -1.81 44.93)"/><path d="m37.11 23.64h3.55v.38h-3.55z" fill="#fff" transform="matrix(.52264737 -.85254896 .85254896 .52264737 -1.75 44.52)"/><path d="m39.12 20.38h3.55v.38h-3.55z" fill="#fff" transform="matrix(.52725243 -.8497087 .8497087 .52725243 1.85 44.47)"/><path d="m35.15 26.81h3.55v.38h-3.55z" fill="#fff" transform="matrix(.52621392 -.85035222 .85035222 .52621392 -5.46 44.19)"/><path d="m2.44 63.8 1.47.91c-1.25-.77-1.58-2.51-.73-3.89l34.24-55.36c.85-1.37 2.55-1.86 3.8-1.08l-1.47-.91c-1.25-.77-2.95-.29-3.8 1.08l-34.24 55.36c-.85 1.37-.52 3.11.73 3.88z" fill="#dedfe0"/><path d="m27.7 15.57h21.55v.74h-21.55z" fill="#adafb2" transform="matrix(.52576861 -.85062763 .85062763 .52576861 4.69 40.29)"/><path d="m34.03 15.07h6.92v.74h-6.92z" fill="#adafb2" transform="matrix(.52591706 -.85053586 .85053586 .52591706 4.64 39.2)"/><path d="m37.95 8.73h6.91v.74h-6.91z" fill="#adafb2" transform="matrix(.52636233 -.85026037 .85026037 .52636233 11.88 39.51)"/><path d="m30.21 21.25h6.92v.74h-6.92z" fill="#adafb2" transform="matrix(.52591706 -.85053586 .85053586 .52591706 -2.43 38.88)"/><path d="m15.98 34.53h21.55v.73h-21.55z" fill="#adafb2" transform="matrix(.52547165 -.85081111 .85081111 .52547165 -16.99 39.32)"/><path d="m22.31 34.03h6.91v.74h-6.91z" fill="#adafb2" transform="matrix(.52591706 -.85053586 .85053586 .52591706 -17.04 38.22)"/><path d="m26.23 27.68h6.92v.74h-6.92z" fill="#adafb2" transform="matrix(.52621392 -.85035222 .85035222 .52621392 -9.79 38.53)"/><path d="m18.48 40.21h6.92v.74h-6.92z" fill="#adafb2" transform="matrix(.52591706 -.85053586 .85053586 .52591706 -24.11 37.9)"/><path d="m25.48 1.86c.62-1.53 2.37-2.27 3.9-1.64l9.53 3.88c1.53.62 2.27 2.37 1.64 3.9l-25.15 61.73c-.62 1.53-2.37 2.27-3.9 1.64l-9.53-3.88c-1.53-.62-2.27-2.37-1.64-3.9z" fill="#e3f2ed"/><path d="m10.42 70.94 1.08.44c1.53.62 3.28-.11 3.9-1.64l25.15-61.73c.62-1.53-.11-3.28-1.64-3.9l-1.08-.44z" fill="#ed193e"/><path d="m6.42 57.67h-.49s0 0 0 0 .1.39.15.42c.04.02 1.34.55 1.95.79v.04c.03.28.06.58.09.89v.08c.02.16.03.31.05.47v.07c.02.15.04.31.06.46v.03c.07.6.15 1.21.23 1.79l-.66-.03s0 0 0 0 0-.01 0-.02c0 0 0 0 0-.01s-.02-.05-.03-.06c0 0 0 0-.01 0s-.03 0-.04 0 0 0-.01 0v.05t0 0s0 .01 0 .02v.01l-.64-.03s0-.01 0-.02c0 0 0 0 0-.01s-.02-.05-.03-.06c0 0 0 0-.01 0s-.03 0-.04 0 0 0 0 0v.05.02l-.5-.02h-.14s0-.02 0-.02v-.01s-.02-.05-.03-.06c0 0 0 0-.01 0s-.03 0-.04.01 0 0-.01 0v.05s0 .01 0 .02l-.64-.03s0 0 0 0 0-.01 0-.02c0 0 0 0 0-.01s-.02-.05-.03-.07c0 0 0 0-.01 0s-.03 0-.04.01 0 0-.01 0v.05.03l-.66-.03s-.03.12.02.18h.01s.02 0 .03.01h.01c.01 0 .03.01.05.02h.01c.04.02.1.05.17.08h.02c.03.02.07.03.1.05.01 0 .02.01.03.02.47.23 1.25.61 1.97.96.01.07.03.16.05.24s0 0 0 0c.02.07.04.13.07.2s.01 0 .02 0h.02s0 0 0 0 .02 0 .03 0c.07 0 .17 0 .28-.03.01 0 .03-.01.05-.02h.02s0 0 0 0h.01c.03-.01.06-.03.09-.05 0 0 0-.01 0-.03.18.09.35.17.5.24l.06.03c.1.05.19.09.27.13.02.13.04.25.05.37.04.27.07.49.1.67v.05c0 .03 0 .05.01.08v.05.06.04c0 .03 0 .06.01.08.16.9.55 1.58.88 1.52s.47-.83.31-1.73c0-.02 0-.05-.02-.08 0-.02 0-.03 0-.05 0-.01 0-.03-.01-.05 0-.02 0-.05-.01-.07 0-.01 0-.03 0-.04-.02-.08-.04-.18-.06-.29 0-.04-.02-.09-.03-.13v-.02c-.02-.09-.04-.19-.06-.3-.02-.12-.05-.24-.08-.37l.2-.2c.13-.13.27-.28.43-.44v.03c.04 0 .07 0 .1.01h.01s.01 0 .02 0h.05c.11 0 .2-.04.26-.06.02 0 .03-.01.04-.02s0 0 0 0 .01 0 .02 0h.02c0-.07 0-.14 0-.21 0-.09-.02-.18-.04-.24.29-.29.58-.59.85-.87.01-.01.03-.03.04-.04.04-.04.07-.07.11-.11.03-.03.06-.06.09-.09l.04-.04c.03-.03.06-.06.09-.09.01-.01.02-.02.03-.03.03-.04.07-.07.11-.11.06-.07.12-.13.18-.19s.02-.02.03-.03c.03-.03.06-.06.08-.08.05-.06.1-.1.13-.14.01-.02.03-.03.04-.04h.01s.02-.02.02-.02.01-.01.01-.01c.02-.06-.01-.13-.03-.16 0-.01-.01-.02-.01-.02l-.61.26s0 0 0 0v-.02c0-.02-.01-.04-.02-.05 0 0 0 0-.01 0s-.03 0-.04.01 0 0-.01 0v.07s0 0 0 0v.02l-.59.25s0-.01 0-.02c0-.02-.01-.04-.02-.05h-.01s-.03 0-.04 0 0 0-.01 0v.07.02l-.4.17-.19.08s0-.02 0-.03c0-.02-.01-.04-.02-.05 0 0 0 0-.01 0s-.03 0-.04 0 0 0-.01 0v.07s0 0 0 0v.02l-.59.25s0 0 0 0v-.02c0-.02-.01-.04-.02-.05 0 0 0 0-.01 0s-.03 0-.05.01 0 0 0 0v.07s0 0 0 0v.03l-.61.25c-.13-.59-.27-1.21-.41-1.81s-.01-.04-.02-.06c-.03-.14-.06-.27-.09-.4 0-.02-.01-.05-.02-.07-.04-.14-.07-.28-.1-.42-.01-.04-.02-.09-.03-.13-.03-.14-.07-.27-.1-.41 0-.02 0-.03-.01-.05-.03-.13-.06-.26-.1-.38 0-.01 0-.02 0-.04.04-.04.09-.08.14-.13 0 0 .02-.01.02-.02.3-.27.7-.62.99-.89.01 0 .02-.02.03-.03.03-.02.05-.05.08-.07.01-.01.02-.02.03-.03.05-.05.1-.09.14-.13 0 0 0 0 .01-.01.02-.02.04-.03.05-.05t0 0s.03-.02.03-.03.01-.01.02-.02c.02-.03.01-.22 0-.34 0-.06 0-.1 0-.1l-.46.18s0 0 0 0l-1.41.54h-.01s0-.02-.01-.04c0-.02-.02-.04-.02-.07-.02-.05-.03-.1-.05-.14-.04 0-.08 0-.13 0-.04 0-.08.02-.12.04v.09.05.04.06l-1.52-.03z" fill="#fff"/><path d="m9.89 64.56h11.05v.76h-11.05z" fill="#fff" transform="matrix(.37670934 -.92633151 .92633151 .37670934 -50.55 54.76)"/><path d="m12.58 64.18h3.55v.76h-3.55z" fill="#fff" transform="matrix(.37864862 -.9255405 .9255405 .37864862 -50.83 53.39)"/><path d="m14.02 60.63h3.55v.76h-3.55z" fill="#fff" transform="matrix(.37751757 -.92600242 .92600242 .37751757 -46.67 52.6)"/><path d="m11.17 67.63h3.55v.75h-3.55z" fill="#fff" transform="matrix(.37751757 -.92600242 .92600242 .37751757 -54.92 54.32)"/><path d="m31.57 11.05h11.05v.38h-11.05z" fill="#fff" transform="matrix(.37800238 -.92580463 .92580463 .37800238 12.67 41.33)"/><path d="m34.78 10.88h3.55v.38h-3.55z" fill="#fff" transform="matrix(.37994055 -.92501091 .92501091 .37994055 12.43 40.68)"/><path d="m36.22 7.34h3.55v.38h-3.55z" fill="#fff" transform="matrix(.37703267 -.92619996 .92619996 .37703267 16.7 39.88)"/><path d="m33.37 14.33h3.55v.38h-3.55z" fill="#fff" transform="matrix(.37509201 -.92698758 .92698758 .37509201 8.51 41.66)"/><path d="m34.69 16.63.35.15-4.17 10.23-.35-.14z" fill="#fff"/><path d="m30.47 21.47h3.55v.38h-3.55z" fill="#fff" transform="matrix(.37703267 -.92619996 .92619996 .37703267 .03 43.35)"/><path d="m31.91 17.92h3.55v.38h-3.55z" fill="#fff" transform="matrix(.37994055 -.92501091 .92501091 .37994055 4.13 42.39)"/><path d="m29.06 24.92h3.55v.38h-3.55z" fill="#fff" transform="matrix(.37913318 -.92534212 .92534212 .37913318 -4.09 44.12)"/><path d="m2.94 67.13 1.6.65c-1.36-.55-1.97-2.22-1.36-3.71l24.57-60.29c.61-1.5 2.21-2.26 3.57-1.7l-1.6-.65c-1.36-.55-2.96.21-3.57 1.7l-24.57 60.28c-.61 1.49 0 3.15 1.36 3.71z" fill="#dedfe0"/><path d="m19.75 13.58h21.55v.73h-21.55z" fill="#adafb2" transform="matrix(.37784079 -.92587058 .92587058 .37784079 6.08 36.94)"/><path d="m26.01 13.25h6.91v.74h-6.91z" fill="#adafb2" transform="matrix(.37767919 -.92593652 .92593652 .37767919 5.73 35.76)"/><path d="m28.83 6.34h6.91v.74h-6.91z" fill="#adafb2" transform="matrix(.37816395 -.92573864 .92573864 .37816395 13.87 34.06)"/><path d="m23.27 19.98h6.92v.74h-6.92z" fill="#adafb2" transform="matrix(.37816395 -.92573864 .92573864 .37816395 -2.22 37.4)"/><path d="m11.34 34.22h21.55v.73h-21.55z" fill="#adafb2" transform="matrix(.37784079 -.92587058 .92587058 .37784079 -18.26 42)"/><path d="m17.6 33.89h6.91v.74h-6.91z" fill="#adafb2" transform="matrix(.37767919 -.92593652 .92593652 .37767919 -18.61 40.82)"/><path d="m20.42 26.98h6.91v.74h-6.91z" fill="#adafb2" transform="matrix(.37816395 -.92573864 .92573864 .37816395 -10.47 39.11)"/><path d="m14.86 40.62h6.92v.74h-6.92z" fill="#adafb2" transform="matrix(.37848707 -.92560658 .92560658 .37848707 -26.55 42.43)"/><path d="m8.06 11.19s-1.44 1.02-1.44 2.88-.03 51.42-.03 55.83 1.35 4.58 3.47 4.58 36.43.02 40.16.02 4.62.19 5.29.68 1.49.41 2.12.06c.67-.36 2.03-.36 3.07-.36 1.03 0 28.94.01 33.21.02h9.66c1.26 0 2.53-.68 2.53-2.9s.03-55.9.03-57.81.08-2.78-1.59-2.78-96.48-.22-96.48-.22z" fill="#5e1e00"/><path d="m10.3 9.57s-3.12.37-3.12 3.6-.03 53.48-.03 56.61c0 2.77.05 4.38 2.32 4.38s37.29.02 40.19.02 5.08-.09 5.98.58c.89.67 1.2.49 2.01.09.8-.4 4.73-.18 7.94-.17 3.21 0 30.34.01 34.24.02 3.9 0 5.93.19 5.93-3.16 0-3.34.02-47.55.02-51.32s0-5.05 0-7.05c0-1.99-.43-2.71-1.28-2.71s-94.2-.9-94.2-.9z" fill="#bbbab2"/><path d="m10.65 9.57s-3.1.37-3.1 3.59-.03 53.31-.03 56.43c0 2.76.05 4.36 2.31 4.36s37.01.02 39.89.02 5.05-.09 5.93.58c.89.67 1.2.49 1.99.09.8-.4 4.69-.18 7.88-.17 3.19 0 30.12.01 33.99.02 3.87 0 5.88.19 5.88-3.14 0-3.34.02-47.4.03-51.16 0-3.76 0-5.04 0-7.02 0-1.99-.42-2.7-1.27-2.7s-93.5-.9-93.5-.9z" fill="#bbbab2"/><path d="m50.03 9.18s2 0 3.78 0 3 .67 3 1.67-.03 63.75-.03 63.75-.78-.78-2.78-.78-30.88-.02-34.65-.02c-2.13 0-8.65 0-9.46 0s-1.83-.51-1.82-2.59c0-2.08.02-34.38.02-39.29s0-14.31 0-17.19v-1.94c0-1.56.4-3.63 3.74-3.63s38.21.01 38.21.01z" fill="#f6f3e6"/><path d="m56.81 10.84s.15-1.68 1.9-1.67c1.75 0 43.5.02 44.48.02s1.85.34 1.85 1.85-.01 29.18-.02 32.88c0 0-.01 25.77-.01 27.26 0 2.42-1.17 3.06-3.52 3.06s-42.07-.02-42.99-.02c-.5 0-1.68 0-1.68.52v-63.9z" fill="#f6f3e6"/><path d="m53.81 9.18c-.66 0-1.35 0-1.95 0 1.22.88 3.31 2.36 3.31 4.83 0 7.26-.02 40.47-.03 49.01 0 6.51-1.17 9.67-5.43 10.81h4.28c2 0 2.78.78 2.78.78s.03-62.76.03-63.75c0-1-1.22-1.67-3-1.67z" fill="#f6f3e6"/><path d="m58.66 68.67c0-2.89.02-49.58.03-54.85 0-2.64 1.5-3.97 3-4.66-1.66 0-2.73 0-2.99 0-1.75 0-1.9 1.67-1.9 1.67v63.9c0-.52 1.19-.52 1.68-.52h4.18c-2.62-.65-4-3.43-4-5.55z" fill="#f6f3e6"/><path d="m56.52 10.42.17 63.75s.95-60.46-.17-63.75z" fill="#dddbd1"/><path d="m8.85 10.24s-.02.02-.06.06c-.02.02-.04.05-.06.08s-.05.07-.07.12c-.06.09-.11.21-.17.34-.06.14-.1.31-.16.49-.04.19-.09.4-.13.63-.02.23-.06.49-.08.76 0 .27-.01.56-.02.87v.96c0 1.34.02 2.91.03 4.59 0 1.68 0 3.47.01 5.26 0 1.79-.01 3.58-.02 5.26s-.02 3.25-.04 4.59-.03 2.46-.04 3.25c-.01.78-.02 1.23-.02 1.23s0-.45-.02-1.23c0-.78-.02-1.9-.04-3.25 0-1.35-.02-2.91-.03-4.59 0-1.68 0-3.47-.01-5.26 0-1.79.01-3.58.02-5.26s.03-3.25.04-4.59c0-.34 0-.66.01-.96.01-.31.03-.6.04-.87.02-.27.07-.53.1-.76.04-.23.1-.44.14-.64.07-.19.12-.35.18-.49.07-.14.12-.26.19-.34.03-.04.06-.08.08-.11.03-.03.05-.06.07-.08.04-.04.06-.06.06-.06z" fill="#fff" opacity=".8"/><path d="m104.99 11.27s0 .42.02 1.16c0 .74.02 1.79.04 3.05.01 1.26.02 2.74.03 4.32 0 1.58 0 3.27.01 4.95 0 1.68-.01 3.37-.02 4.95s-.02 3.06-.04 4.32-.03 2.32-.04 3.05c-.01.74-.02 1.16-.02 1.16s0-.42-.02-1.16c0-.74-.02-1.79-.04-3.05 0-1.26-.02-2.74-.03-4.32 0-1.58 0-3.27-.01-4.95 0-1.68.01-3.37.02-4.95s.02-3.06.03-4.32c.02-1.26.03-2.32.04-3.06s.02-1.16.02-1.16z" fill="#fff" opacity=".8"/><path d="m104.6 29.55v-16.77s.29-2.94-2.72-3.24h-15.44l15.29.37s2.28.29 2.5 2.87l.37 16.76z" fill="#fff"/><path d="m8.51 29.77v-16.77s-.29-2.94 2.72-3.23h15.44l-15.29.37s-2.28.29-2.5 2.87z" fill="#fff"/><path d="m97.53 47.25-14.3 4.02c-1.72.48-2.88 1.69-2.59 2.7l1.47 5.22c.28 1.01 1.9 1.43 3.62.95l14.3-4.02c1.72-.48 2.88-1.69 2.59-2.7l-1.47-5.22c-.28-1.01-1.91-1.43-3.62-.95zm4.23 6.15c.26.92-.82 2.02-2.4 2.47l-13.19 3.71c-1.58.45-3.08.06-3.33-.85l-1.33-4.74c-.26-.92.82-2.02 2.4-2.47l13.19-3.71c1.58-.45 3.08-.06 3.33.85z" fill="#f26d80"/><path d="m88.43 53.02c-.09 0-.26.03-.51.1l-.69.19.73 2.59.43-.12-.28-.98.28-.08c.26-.07.43-.15.53-.23.09-.08.15-.2.19-.34.04-.15.03-.31-.03-.5-.06-.21-.15-.36-.26-.47-.12-.11-.25-.16-.38-.17zm.02 1.05s-.07.04-.27.1l-.1.03-.13-.45.07-.02c.23-.06.3-.06.31-.06.03 0 .06.02.09.04.03.03.06.07.07.13.02.06.02.11 0 .15-.01.04-.03.06-.05.08z" fill="#f26d80"/><path d="m91.08 54.03c-.08-.06-.18-.11-.29-.15.17-.08.29-.2.35-.35s.06-.33 0-.53c-.04-.16-.11-.29-.21-.39s-.2-.15-.31-.17-.28 0-.51.07l-.9.25.73 2.59.43-.12-.3-1.08.09-.02c.1-.03.17-.04.22-.03.05 0 .1.03.16.07.05.04.16.15.33.32l.47.48.51-.14-.4-.43c-.16-.17-.28-.29-.36-.35zm-.54-.63s-.07.04-.32.11l-.18.05-.1-.37.19-.05c.24-.07.3-.07.31-.07.03 0 .05.01.07.03s.04.06.06.11c.02.06.02.11 0 .14-.01.04-.03.05-.04.06z" fill="#f26d80"/><path d="m86.45 53.58c-.09 0-.26.03-.51.1l-.69.19.73 2.59.43-.12-.27-.98.28-.08c.26-.07.43-.15.53-.23.09-.08.15-.19.19-.34s.03-.31-.03-.5c-.06-.21-.15-.36-.27-.47s-.25-.16-.38-.17zm.02 1.05s-.07.04-.27.1l-.09.03-.13-.45.07-.02c.23-.07.3-.06.31-.06.03 0 .06.02.09.04.03.03.06.07.07.13.02.06.02.11 0 .15-.01.04-.03.06-.05.08z" fill="#f26d80"/><path d="m92.27 51.85c-.21.06-.37.16-.49.3s-.2.32-.23.55 0 .49.08.8c.12.43.31.73.59.92.24.16.51.2.82.11s.52-.26.63-.53c.13-.3.14-.67.02-1.1s-.31-.73-.56-.91c-.26-.18-.54-.22-.84-.14zm.85 1.84c-.11.27-.38.35-.61.17-.13-.1-.23-.28-.31-.54-.08-.27-.09-.48-.03-.63.05-.13.14-.21.27-.25s.24-.01.36.07c.12.09.22.28.3.54.08.27.09.49.03.63z" fill="#f26d80"/><path d="m83.71 54.31-.1 2.82.46-.13v-.64s.86-.24.86-.24l.35.53.47-.13-1.58-2.35-.45.13zm.53 1.39v-.35s.2.3.2.3l-.2.06z" fill="#f26d80"/><path d="m96.47 52.29 1.07-.3-.13-.44-1.06.3-.17-.57 1.15-.33-.12-.44-1.58.45.73 2.59 1.62-.46-.13-.44-1.18.34z" fill="#f26d80"/><path d="m94.98 53.21-1.08-1.77-.46.13 1.49 2.38.45-.13.04-2.8-.46.13z" fill="#f26d80"/><path d="m99.2 50.27c-.11-.08-.23-.13-.34-.15s-.27 0-.47.06l-.78.22.73 2.59.8-.23c.17-.05.31-.11.4-.19.1-.08.17-.18.22-.3s.08-.27.08-.45-.03-.38-.09-.6c-.07-.25-.15-.45-.25-.6s-.2-.27-.32-.35zm.05 1.52c0 .13 0 .19-.02.21-.01.04-.04.07-.07.1-.02.02-.08.05-.24.1l-.18.05-.4-1.43h.05c.21-.07.29-.08.32-.08.06 0 .11.01.15.04.05.03.1.09.15.17.05.09.1.23.15.41.05.17.08.32.08.43z" fill="#f26d80"/><path d="m48.18 56.25.5-.22s0 0 0 0-.28-.35-.34-.35c-.05 0-1.61.07-2.33.1 0-.01-.02-.03-.02-.04-.16-.27-.33-.55-.51-.85-.02-.03-.03-.05-.05-.08-.09-.15-.18-.3-.27-.45-.01-.02-.03-.05-.04-.07-.09-.15-.18-.29-.27-.44 0-.01-.01-.02-.02-.03-.35-.57-.71-1.15-1.06-1.7l.69-.27s0 0 0 0 0 .01.01.01v.01s.04.04.06.05h.02s.03-.01.04-.03 0 0 0-.01c0-.02-.02-.03-.03-.05s0-.01-.01-.02c0 0 0 0 0-.01l.66-.26s.01.01.01.02c0 0 0 0 .01.01s.04.04.06.05h.01s.03-.02.04-.03 0 0 0-.01c0-.02-.02-.03-.02-.05s0 0-.01-.01l.52-.21.14-.06s0 0 0 0v.01s.04.04.06.05h.01s.03-.02.04-.03 0 0 0-.01c0-.02-.02-.04-.02-.05s0-.01-.01-.02l.66-.26s0 0 0 0 0 0 .01.01v.01s.04.04.06.05h.01s.03-.02.04-.03 0 0 0-.01-.02-.03-.02-.05 0-.02-.01-.03l.68-.27s-.03-.14-.11-.17c0 0 0 0-.02 0 0 0 0 0-.01 0 0 0-.02 0-.03 0 0 0 0 0-.02 0s-.03 0-.06 0c0 0-.01 0-.02 0-.06 0-.13 0-.21 0h-.02c-.04 0-.08 0-.12 0 0 0 0 0-.01 0s-.03 0-.04 0c-.58-.02-1.54-.04-2.43-.05-.04-.07-.1-.14-.16-.22s0 0 0 0c-.05-.06-.1-.12-.16-.17s-.01 0-.02 0c0 0-.01 0-.02 0s0 0 0 0-.02 0-.03.01c-.07.03-.17.08-.26.16-.01.01-.03.03-.04.04 0 0 0 0-.01.01s0 0 0 0c-.03.03-.05.06-.07.09 0 0 0 .01.02.03-.22 0-.43 0-.61-.01-.02 0-.05 0-.07 0-.13 0-.24 0-.34 0-.08-.12-.15-.23-.22-.34-.16-.25-.3-.46-.41-.63-.01-.02-.02-.03-.03-.05-.02-.03-.03-.05-.05-.08-.01-.02-.02-.03-.03-.05s-.03-.04-.04-.06c0-.02-.02-.03-.03-.04-.02-.03-.04-.05-.05-.07-.57-.83-1.28-1.33-1.59-1.13-.31.21-.09 1.05.49 1.89.01.02.03.04.05.07 0 .01.02.03.03.05.01.01.02.03.03.04.02.02.03.04.05.06 0 .01.02.03.03.04.05.08.12.16.19.26l.09.12s0 .02.02.02c.06.08.13.18.2.28.08.11.16.22.25.33-.03.09-.07.19-.11.3-.07.19-.15.41-.23.64-.01-.02-.02-.03-.02-.03-.04 0-.08.02-.11.03h-.01s-.01 0-.02 0c-.02 0-.04.02-.05.03-.1.05-.18.13-.23.18-.01.01-.02.03-.03.04s0 0 0 0 0 .01-.01.02c0 0 0 .01-.01.02.03.07.06.14.1.21.05.09.1.17.15.23-.15.43-.31.86-.45 1.27 0 .02-.01.04-.02.06-.02.05-.04.11-.06.16s-.03.09-.05.13c0 .02-.01.04-.02.06-.01.04-.03.09-.04.13 0 .02-.01.03-.02.05-.02.05-.04.1-.06.16-.03.1-.06.19-.1.27 0 .01 0 .03-.01.04v.01c-.02.04-.03.08-.04.12v.01c-.03.08-.05.15-.07.2 0 .02-.01.04-.02.06v.01c0 .01 0 .03-.01.03v.01.02c0 .06.07.12.11.15.01 0 .02.01.02.01l.49-.54s0 0 0 0 .01.02.02.02.03.03.04.04h.02s.03-.01.04-.03 0 0 0-.01c0-.02-.02-.05-.03-.07s0 0 0-.01c0 0 0-.02-.01-.02l.48-.52s0 .01.01.02.03.03.04.04h.02s.03-.01.04-.03 0 0 0-.01c0-.02-.02-.04-.03-.07s0-.01 0-.02l.33-.36.15-.17s.01.01.02.02c.01.02.03.03.04.04h.02s.03-.01.04-.03 0 0 0-.01c0-.02-.02-.05-.03-.07s0 0 0 0 0-.02-.01-.02l.48-.52s0 0 0 0 .01.02.02.02l.04.04h.02s.03-.01.04-.03 0 0 0-.01c0-.02-.02-.05-.03-.07s0 0 0-.01c0 0-.01-.02-.02-.03l.49-.54c.4.53.83 1.09 1.24 1.63s.03.04.04.05c.09.12.19.24.28.36.02.02.04.04.05.07.1.13.2.25.3.38l.09.12c.1.13.19.25.29.36.01.01.02.03.03.04.09.11.18.23.27.34 0 .01.02.02.03.03-.03.06-.05.13-.09.2 0 .01-.01.02-.01.03-.18.41-.41.95-.59 1.35 0 .02-.01.03-.02.05-.02.04-.03.07-.05.11 0 .02-.01.03-.02.04-.03.07-.06.14-.08.2v.02c-.01.03-.02.05-.03.07t0 0s-.01.04-.02.05v.02c-.01.04.09.23.15.35.03.06.06.1.06.1l.38-.39s0 0 0 0l1.17-1.19h.01s.02.01.03.03c.02.02.04.04.05.06.04.04.08.08.11.12.04-.02.08-.04.12-.07s.07-.06.1-.09c-.01-.03-.03-.06-.04-.09s-.02-.04-.02-.05c0-.01-.01-.03-.02-.04 0-.02-.02-.04-.03-.06l1.55-.68z" fill="#5277a6"/><path d="m43.77 60.9c-4.51 0-8.18-3.67-8.18-8.18s3.67-8.18 8.18-8.18 8.18 3.67 8.18 8.18-3.67 8.18-8.18 8.18zm0-16.08c-4.36 0-7.9 3.55-7.9 7.9s3.55 7.9 7.9 7.9 7.9-3.54 7.9-7.9-3.54-7.9-7.9-7.9z" fill="#5277a6"/><path d="m43.77 59.7c-3.85 0-6.98-3.13-6.98-6.98s3.13-6.97 6.98-6.97 6.98 3.13 6.98 6.97-3.13 6.98-6.98 6.98zm0-13.81c-3.77 0-6.84 3.07-6.84 6.83s3.07 6.84 6.84 6.84 6.84-3.07 6.84-6.84-3.07-6.83-6.84-6.83z" fill="#5277a6"/><path d="m80.87 38.75c-5.44 0-9.87-4.43-9.87-9.87s4.43-9.87 9.87-9.87 9.87 4.43 9.87 9.87-4.43 9.87-9.87 9.87zm0-19.4c-5.26 0-9.53 4.28-9.53 9.53s4.28 9.53 9.53 9.53 9.53-4.28 9.53-9.53-4.28-9.53-9.53-9.53z" fill="#5277a6"/><path d="m87.38 29.56.23-.59s0 0 0 0-.52-.06-.58 0c-.05.03-1.28 1.39-1.86 2.02-.02 0-.04-.01-.05-.01-.35-.09-.73-.19-1.13-.29-.04 0-.07-.02-.11-.03-.2-.05-.39-.1-.6-.15-.03 0-.06-.02-.09-.02-.19-.05-.39-.1-.59-.14-.01 0-.03 0-.05-.01-.76-.18-1.55-.37-2.29-.54l.34-.8s0 0 0 0h.02.02s.07 0 .09 0c0 0 0-.01.01-.02s.02-.04 0-.06 0-.01 0-.02c-.02 0-.04-.01-.06-.02t0 0s-.01 0-.02 0c0 0-.01 0-.02 0l.33-.77s.02 0 .03 0h.02s.07 0 .09 0c0 0 0 0 .01-.01s.01-.04 0-.06 0-.01 0-.02c-.02 0-.04-.01-.06-.02s-.01 0-.02 0c0 0 0 0-.01 0l.26-.6.07-.17s.01 0 .02 0h.02s.07 0 .09 0c0 0 0 0 .01-.01s.02-.04.01-.06 0-.01 0-.02c-.02 0-.04-.02-.06-.03s-.02 0-.03 0l.33-.77s0 0 0 0h.02.02s.07 0 .09 0c0 0 0 0 .01-.01s.01-.04.01-.06 0-.01 0-.02c-.02 0-.04-.01-.06-.02-.01 0-.02 0-.04 0l.34-.79s-.14-.09-.23-.06c0 0-.01 0-.02.01 0 0 0 0-.01 0 0 0-.02.01-.03.02 0 0 0 0-.01.01s-.03.03-.05.04c0 0 0 0-.01.01-.05.04-.11.1-.18.16 0 0-.01.01-.02.02-.03.03-.07.06-.11.1-.01.01-.03.02-.04.03-.5.47-1.31 1.25-2.06 1.97-.09-.02-.2-.04-.32-.05s0 0 0 0c-.09 0-.18-.01-.27 0s0 0 0 0v.02s0 .01-.01.02 0 0 0 0-.01.02-.02.04c-.04.08-.08.21-.09.35v.07.02s0 0 0 0v.02c0 .04 0 .09.01.13 0 0 .02 0 .04.01-.19.18-.36.35-.52.5-.02.02-.04.04-.06.06-.11.1-.2.19-.28.27-.16-.04-.32-.07-.47-.1-.34-.08-.63-.14-.87-.19-.03 0-.05 0-.07-.01-.04 0-.07-.02-.1-.02-.02 0-.05 0-.07-.02-.03 0-.06-.01-.08-.02-.02 0-.04 0-.05-.01-.04 0-.07-.01-.1-.02-1.17-.22-2.18-.05-2.26.38s.8.95 1.97 1.17c.03 0 .06.01.1.02.02 0 .04 0 .07.01h.06c.03 0 .06.01.09.02.02 0 .04 0 .06.01.11.02.23.04.38.06.06 0 .11.02.17.03h.03c.12.02.25.04.4.06.15.02.31.05.48.07.05.1.1.21.16.34.1.22.22.46.34.73-.02 0-.04 0-.04 0-.02.04-.04.08-.06.12v.02s0 .01 0 .02c0 .02-.02.05-.02.07-.04.13-.05.25-.04.34v.06s0 .02 0 .03v.02s0 0 0 0c.08.04.17.07.26.09.11.03.22.05.32.07.23.48.46.98.67 1.43 0 .02.02.04.03.07.03.06.06.12.09.18.02.05.05.1.07.15 0 .02.02.04.03.06.02.05.04.1.07.14 0 .02.02.03.02.05.03.06.06.12.08.18.05.11.1.21.15.31 0 .02.02.03.02.05v.01c.02.05.04.09.06.14v.01c.04.09.08.17.11.23.01.02.02.05.03.06v.02c0 .01.02.03.02.04 0 .01.01.02.01.02.06.05.16.04.21.04h.03l-.04-.86s0 0 0 0h.03.07s0 0 .01-.01.01-.04 0-.06 0-.01 0-.02c-.02-.01-.05-.02-.08-.03s0 0-.01 0c0 0-.02 0-.03 0l-.03-.84s.02 0 .03 0 .05 0 .07 0c0 0 .01 0 .01-.01s.02-.04.01-.06 0-.01 0-.02c-.02-.01-.05-.02-.08-.03s0 0-.01 0-.02 0-.02 0l-.02-.57v-.27s.01 0 .02 0 .05 0 .07 0c0 0 .01 0 .01-.01s.02-.03.01-.06 0-.01 0-.02c-.02-.01-.05-.03-.08-.04s0 0 0 0-.02 0-.03 0l-.03-.84s0 0 0 0h.03.07s.01 0 .01-.01.02-.03.01-.06 0-.01 0-.01c-.02-.01-.05-.02-.08-.04s0 0-.01 0c0 0-.02 0-.03 0l-.04-.86c.78.11 1.6.22 2.39.33s.05 0 .08 0c.18.03.36.05.54.07.03 0 .06 0 .1.01.19.02.38.04.56.07.06 0 .12.01.17.02.19.02.37.04.54.06h.06l.51.06h.05c.03.07.06.15.09.24 0 .01.01.03.02.04.19.49.44 1.13.63 1.62 0 .02.01.04.02.06.02.05.03.09.05.13 0 .02.01.04.02.05.04.09.07.17.09.23v.02c.01.03.02.06.03.08t0 0s.02.04.02.06c0 .01 0 .02.01.03.02.04.26.12.42.16.07.02.13.04.13.04v-.64s0 0 0 0v-1.97s-.01-.02-.01-.02h.06.09.19c.02-.05.04-.1.05-.16.01-.05.01-.11.01-.16-.03-.01-.07-.03-.11-.04s-.04-.01-.06-.02c0 0 0 0-.01 0-.02 0-.03-.01-.05-.02 0 0 0 0-.01 0-.02 0-.05-.02-.07-.03l.73-1.85z" fill="#5277a6"/><path d="m75.49 25.27-.34-.1-.67.88.2.31c.08.12.12.21.14.27s0 .12-.05.18c-.04.06-.1.09-.17.1s-.13 0-.18-.04c-.03-.02-.05-.05-.08-.08-.02-.03-.05-.08-.09-.15l-.96-1.6s-.06-.1-.1-.17c-.04-.06-.07-.12-.08-.18-.02-.05-.02-.11-.01-.17 0-.06.04-.12.08-.18.05-.06.1-.1.15-.13.05-.02.11-.03.16-.03.06 0 .11 0 .16.02.05.01.13.03.22.06l1.8.48c.14.03.23.07.28.11s.08.09.09.17c0 .07 0 .14-.05.2-.03.03-.05.06-.09.07-.03.02-.06.02-.1.03-.03 0-.08 0-.14-.02-.06-.01-.11-.03-.15-.04zm-1.25.42.49-.65-1.12-.34z" fill="#5277a6"/><path d="m76.28 23.49-.16.1.44.73c.06.1.08.18.06.25-.01.07-.06.13-.13.17-.08.05-.15.06-.22.03-.07-.02-.13-.08-.19-.17l-1.07-1.75c-.06-.1-.08-.19-.06-.26s.08-.14.18-.2l.77-.47c.11-.06.2-.11.28-.15s.16-.06.24-.07c.09-.01.18-.01.27.01s.17.06.25.12c.07.06.14.13.19.21.1.17.14.33.1.5-.04.16-.14.32-.31.49.11 0 .23 0 .36.05.13.04.25.09.37.15s.22.12.3.17c.08.06.13.1.15.13s.03.07.02.11c0 .04-.01.08-.04.12-.02.04-.06.07-.1.1-.05.03-.1.05-.15.04-.05 0-.1-.01-.15-.04-.05-.02-.12-.06-.2-.1l-.38-.19c-.14-.07-.25-.12-.34-.15s-.17-.03-.24-.02-.14.04-.23.09zm-.31-1.12-.43.26.38.63.42-.26c.11-.07.2-.14.27-.2.06-.07.1-.13.12-.2.01-.07 0-.15-.05-.23-.04-.06-.09-.11-.15-.14s-.13-.04-.2-.02c-.07 0-.19.06-.35.16z" fill="#5277a6"/><path d="m79 22.41-.19.02.11.85c.01.11 0 .2-.04.26s-.11.09-.19.1c-.09.01-.16 0-.21-.06-.06-.05-.09-.13-.1-.23l-.26-2.04c-.01-.12 0-.2.05-.26s.13-.1.25-.11l.89-.11c.12-.02.23-.02.32-.02s.17 0 .24.03c.09.02.17.07.24.12.07.06.13.13.18.21.04.08.07.17.09.27.03.2-.01.36-.11.5-.1.13-.26.24-.48.32.1.04.21.1.31.19s.19.18.28.28c.08.1.15.2.2.28s.08.14.08.18c0 .03 0 .07-.02.11s-.05.07-.08.09c-.04.02-.08.04-.13.05-.06 0-.11 0-.16-.02s-.09-.05-.12-.09c-.04-.04-.09-.1-.15-.18l-.27-.33c-.1-.12-.18-.21-.25-.27s-.14-.1-.21-.12-.15-.02-.25 0zm.17-1.15-.5.06.09.73.49-.06c.13-.02.24-.04.33-.08.09-.03.15-.08.19-.14s.05-.14.04-.23c0-.07-.04-.14-.08-.19-.05-.05-.1-.09-.17-.11s-.19-.02-.38 0z" fill="#5277a6"/><path d="m81.05 23.16.2-2.09c.01-.11.04-.19.1-.24s.12-.07.2-.06c.08 0 .15.04.19.1.05.06.06.14.05.25l-.2 2.09c-.01.11-.04.19-.1.24s-.13.07-.21.06c-.08 0-.14-.04-.19-.1s-.06-.14-.05-.25z" fill="#5277a6"/><path d="m83.25 21.43-.05 1.89 1.21-1.47c.06-.08.11-.13.14-.16s.06-.05.11-.07c.05-.01.1-.01.16.01.04.02.08.04.11.08s.05.08.06.12v.12c-.01.03-.02.05-.04.08s-.04.05-.06.08c-.02.02-.04.05-.06.07l-1.23 1.4c-.05.05-.09.1-.13.15s-.09.09-.13.12-.1.05-.15.06c-.06 0-.12 0-.19-.03s-.12-.06-.16-.11c-.04-.04-.06-.09-.08-.15-.01-.06-.02-.11-.02-.18 0-.06 0-.13 0-.2v-1.85s0-.07 0-.1 0-.07 0-.1c0-.04.01-.06.02-.09.02-.06.07-.1.13-.13.07-.03.13-.03.21 0 .09.03.14.08.16.15s.02.17.02.3z" fill="#5277a6"/><path d="m85.59 25.25.13-.34-.81-.75-.33.16c-.13.06-.22.1-.28.11-.06 0-.12-.01-.18-.07-.05-.05-.08-.11-.08-.18s.01-.13.06-.18c.02-.03.05-.05.09-.07s.09-.05.15-.08l1.68-.81s.11-.05.17-.08c.07-.03.13-.06.18-.07.06-.01.11-.01.17 0s.11.05.17.1.09.11.11.16c.02.06.02.11.02.17 0 .05-.02.11-.04.16s-.05.12-.08.21l-.64 1.75c-.05.13-.09.22-.13.27s-.1.07-.17.07-.14-.02-.19-.07c-.03-.03-.05-.06-.07-.09-.01-.03-.02-.07-.02-.1s.01-.08.03-.13c.02-.06.04-.1.05-.15zm-.31-1.28.6.55.44-1.09z" fill="#5277a6"/><path d="m88.23 25.43-1.71.92.53.98c.04.08.06.15.04.21-.01.06-.05.11-.11.14s-.12.04-.17.01c-.06-.02-.11-.07-.15-.15l-.63-1.17c-.06-.11-.08-.19-.05-.26.02-.07.08-.13.18-.19l1.81-.98c.1-.05.18-.07.25-.05s.13.06.17.13.05.14.03.22c-.02.07-.08.13-.18.18z" fill="#5277a6"/><g fill="#00618f"><path d="m49.28 28.43h-15.17l7.58-11.59 7.58 11.59zm-14.71-.25h14.26l-7.13-10.9z"/><path d="m51.98 30.01h-20.49l10.24-15.61 10.24 15.61zm-20.03-.24h19.58l-9.79-14.92z"/><path d="m37.06 27.04h8.86v.24h-8.86z"/><path d="m33.53 29.11c0 .09-.07.16-.16.16s-.16-.07-.16-.16.07-.16.16-.16.16.07.16.16z"/><path d="m34.83 29.11c0 .09-.07.16-.16.16s-.16-.07-.16-.16.07-.16.16-.16.16.07.16.16z"/><path d="m36.13 29.11c0 .09-.07.16-.16.16s-.16-.07-.16-.16.07-.16.16-.16.16.07.16.16z"/><path d="m37.43 29.11c0 .09-.07.16-.16.16s-.16-.07-.16-.16.07-.16.16-.16.16.07.16.16z"/><path d="m38.73 29.11c0 .09-.07.16-.16.16s-.16-.07-.16-.16.07-.16.16-.16.16.07.16.16z"/><path d="m40.03 29.11c0 .09-.07.16-.16.16s-.16-.07-.16-.16.07-.16.16-.16.16.07.16.16z"/><path d="m41.33 29.11c0 .09-.07.16-.16.16s-.16-.07-.16-.16.07-.16.16-.16.16.07.16.16z"/><path d="m42.63 29.11c0 .09-.07.16-.16.16s-.16-.07-.16-.16.07-.16.16-.16.16.07.16.16z"/><path d="m43.93 29.11c0 .09-.07.16-.16.16s-.16-.07-.16-.16.07-.16.16-.16.16.07.16.16z"/><path d="m45.23 29.11c0 .09-.07.16-.16.16s-.16-.07-.16-.16.07-.16.16-.16.16.07.16.16z"/><path d="m46.53 29.11c0 .09-.07.16-.16.16s-.16-.07-.16-.16.07-.16.16-.16.16.07.16.16z"/><path d="m47.83 29.11c0 .09-.07.16-.16.16s-.16-.07-.16-.16.07-.16.16-.16.16.07.16.16z"/><path d="m49.13 29.11c0 .09-.07.16-.16.16s-.16-.07-.16-.16.07-.16.16-.16.16.07.16.16z"/><path d="m50.43 29.13c0 .09-.07.16-.16.16s-.16-.07-.16-.16.07-.16.16-.16.16.07.16.16z"/><path d="m41.82 16.16c-.07.05-.17.03-.22-.05-.05-.07-.02-.17.05-.22s.17-.02.22.05.02.17-.05.22z"/><path d="m42.78 17.26c-.07.05-.17.02-.22-.05s-.02-.17.05-.22.17-.02.22.05.02.17-.05.22z"/><path d="m43.48 18.35c-.07.05-.17.02-.22-.05s-.03-.17.05-.22c.07-.05.17-.02.22.05s.02.17-.05.22z"/><path d="m44.17 19.45c-.07.05-.17.02-.22-.05s-.02-.17.05-.22.17-.02.22.05.02.17-.05.22z"/><path d="m44.87 20.55c-.07.05-.17.02-.22-.05s-.02-.17.05-.22.17-.02.22.05.02.17-.05.22z"/><path d="m45.56 21.65c-.07.05-.17.02-.22-.05s-.02-.17.05-.22.17-.02.22.05.03.17-.05.22z"/><path d="m46.26 22.75c-.07.05-.17.02-.22-.05s-.03-.17.05-.22c.07-.05.17-.02.22.05s.03.17-.05.22z"/><path d="m46.95 23.85c-.07.05-.17.02-.22-.05s-.02-.17.05-.22.17-.02.22.05.02.17-.05.22z"/><path d="m47.65 24.95c-.07.05-.17.02-.22-.05s-.02-.17.05-.22.17-.03.22.05c.05.07.03.17-.05.22z"/><path d="m48.35 26.04c-.07.05-.17.02-.22-.05s-.03-.17.05-.22c.07-.05.17-.02.22.05s.02.17-.05.22z"/><path d="m49.04 27.14c-.07.05-.17.02-.22-.05s-.02-.17.05-.22.17-.02.22.05.02.17-.05.22z"/><path d="m49.72 28.25c-.07.05-.17.02-.22-.05s-.02-.17.05-.22.17-.02.22.05.03.17-.05.22z"/><path d="m40.76 17.26c.07.05.17.02.22-.05s.02-.17-.05-.22-.17-.02-.22.05-.03.17.05.22z"/><path d="m40.07 18.35c.07.05.17.02.22-.05s.02-.17-.05-.22-.17-.02-.22.05-.02.17.05.22z"/><path d="m39.37 19.45c.07.05.17.02.22-.05s.03-.17-.05-.22c-.07-.05-.17-.02-.22.05s-.02.17.05.22z"/><path d="m38.68 20.55c.07.05.17.02.22-.05s.02-.17-.05-.22-.17-.02-.22.05-.02.17.05.22z"/><path d="m37.98 21.65c.07.05.17.02.22-.05s.02-.17-.05-.22-.17-.02-.22.05-.03.17.05.22z"/><path d="m37.29 22.75c.07.05.17.02.22-.05s.02-.17-.05-.22-.17-.02-.22.05-.03.17.05.22z"/><path d="m36.59 23.85c.07.05.17.02.22-.05s.02-.17-.05-.22-.17-.02-.22.05-.03.17.05.22z"/><path d="m35.9 24.95c.07.05.17.02.22-.05s.02-.17-.05-.22-.17-.03-.22.05c-.05.07-.02.17.05.22z"/><path d="m35.2 26.04c.07.05.17.02.22-.05s.03-.17-.05-.22c-.07-.05-.17-.02-.22.05s-.02.17.05.22z"/><path d="m34.5 27.14c.07.05.17.02.22-.05s.03-.17-.05-.22c-.07-.05-.17-.02-.22.05s-.02.17.05.22z"/><path d="m33.82 28.25c.07.05.17.02.22-.05s.02-.17-.05-.22-.17-.02-.22.05-.03.17.05.22z"/><path d="m44.11 25.37.24-.11s0 0 0 0-.14-.17-.17-.17c-.02 0-.79.03-1.15.05 0 0 0-.01-.01-.02-.08-.13-.16-.27-.25-.42 0-.01-.02-.03-.02-.04-.04-.07-.09-.15-.13-.22 0-.01-.01-.02-.02-.03-.04-.07-.09-.14-.13-.21 0 0 0-.01 0-.02-.17-.28-.35-.57-.52-.84l.34-.13s0 0 0 0 .02.02.03.03.02 0 .02-.01 0 0 0 0 0-.02-.01-.03 0 0 0 0l.33-.13s0 0 0 0 .02.02.03.03.02 0 .02-.01 0 0 0 0 0-.02-.01-.03 0 0 0 0l.25-.1.07-.03s0 0 0 0 .02.02.03.02.02 0 .02-.01 0 0 0 0 0-.02-.01-.03 0 0 0 0l.33-.13s0 0 0 0 .02.02.03.03.02 0 .02-.02 0 0 0 0 0-.02-.01-.03 0 0 0-.01l.33-.13s-.01-.07-.05-.09 0 0-.02 0-.02 0-.03 0c-.03 0-.06 0-.1 0 0 0 0 0-.01 0-.02 0-.04 0-.06 0s-.01 0-.02 0 0 0 0 0c-.29 0-.76-.02-1.2-.02-.02-.03-.05-.07-.08-.11s0 0 0 0c-.02-.03-.05-.06-.08-.08s0 0 0 0 0 0-.01 0 0 0-.02 0c-.04.01-.08.04-.13.08s-.01.01-.02.02 0 0 0 0c-.01.01-.02.03-.04.04v.02c-.1 0-.2 0-.29 0-.01 0-.02 0-.04 0-.06 0-.12 0-.17 0-.04-.06-.07-.12-.11-.17-.08-.12-.15-.23-.2-.31 0 0-.01-.02-.02-.03 0-.01-.02-.02-.03-.04 0 0-.01-.02-.02-.02 0-.01-.01-.02-.02-.03 0 0 0-.01-.01-.02 0-.01-.02-.03-.03-.04-.28-.41-.63-.66-.78-.56s-.04.52.24.93c0 0 .02.02.03.04 0 0 0 .01.02.02 0 0 0 .01.02.02 0 0 .01.02.02.03 0 0 0 .01.01.02.03.04.06.08.09.13.01.02.03.04.04.06v.01c.03.04.06.09.1.14.04.05.08.11.12.17-.02.04-.03.09-.06.15-.03.09-.07.2-.11.32v-.01c-.02 0-.04.01-.06.02s0 0 0 0-.02 0-.03.01c-.05.03-.09.06-.11.09 0 0-.01.01-.02.02s0 0 0 0c.01.04.03.07.05.1s.05.08.07.11c-.07.21-.15.43-.22.62v.03c0 .03-.02.05-.03.08 0 .02-.01.04-.02.07v.03c0 .02-.02.04-.02.06v.02c0 .03-.02.05-.03.08-.02.05-.03.09-.05.13v.02c0 .02-.02.04-.02.06-.01.04-.02.07-.03.1v.03.02.01c0 .03.04.06.05.07l.24-.27s0 0 0 0v.01s.02.01.02.02.01 0 .02-.01 0 0 0 0 0-.02-.02-.03 0 0 0 0 0 0 0-.01l.24-.26s0 0 0 0 .02.01.02.02.02 0 .02-.01 0 0 0 0 0-.02-.02-.04l.16-.18.08-.08s0 0 0 .01.01.01.02.02.02 0 .02-.02 0 0 0 0 0-.02-.01-.03 0 0 0 0 0 0 0-.01l.24-.26s0 0 0 0v.01s.01.01.02.02.02 0 .02-.02 0 0 0 0c0-.01 0-.02-.01-.04s0 0 0 0 0 0 0-.01l.24-.26c.2.26.41.54.61.8s.01.02.02.03c.05.06.09.12.14.18 0 .01.02.02.02.03.05.06.1.12.15.19.02.02.03.04.05.06.05.06.09.12.14.18 0 0 .01.01.02.02.05.06.09.11.13.17 0 0 0 .01.01.02-.01.03-.03.06-.04.1v.02c-.09.2-.2.47-.29.67v.02c0 .02-.02.04-.02.05v.02c-.02.04-.03.07-.04.1 0 .01-.01.02-.01.03s0 .02 0 .02v.01c0 .02.04.11.08.17s.03.05.03.05l.19-.19s0 0 0 0l.58-.59s.01 0 .02.01c0 0 .02.02.03.03.02.02.04.04.05.06.02 0 .04-.02.06-.03s.04-.03.05-.04c0-.01-.01-.03-.02-.04s0-.02-.01-.03 0-.01 0-.02 0-.02-.01-.03l.76-.33z"/></g><path d="m79.73 65.19h-15.17l7.58-11.6 7.58 11.6zm-14.71-.24h14.26l-7.13-10.9z" fill="#c72c5e"/><path d="m82.43 66.78h-20.49l10.24-15.61 10.24 15.61zm-20.03-.25h19.58l-9.79-14.92z" fill="#c72c5e"/><path d="m63.98 65.87c0 .09-.07.16-.16.16s-.16-.07-.16-.16.07-.16.16-.16.16.07.16.16z" fill="#c72c5e"/><circle cx="65.12" cy="65.87" fill="#c72c5e" r=".16"/><path d="m66.58 65.87c0 .09-.07.16-.16.16s-.16-.07-.16-.16.07-.16.16-.16.16.07.16.16z" fill="#c72c5e"/><path d="m67.88 65.87c0 .09-.07.16-.16.16s-.16-.07-.16-.16.07-.16.16-.16.16.07.16.16z" fill="#c72c5e"/><circle cx="69.02" cy="65.87" fill="#c72c5e" r=".16"/><circle cx="70.32" cy="65.87" fill="#c72c5e" r=".16"/><path d="m71.78 65.87c0 .09-.07.16-.16.16s-.16-.07-.16-.16.07-.16.16-.16.16.07.16.16z" fill="#c72c5e"/><circle cx="72.92" cy="65.87" fill="#c72c5e" r=".16"/><circle cx="74.22" cy="65.87" fill="#c72c5e" r=".16"/><path d="m75.68 65.87c0 .09-.07.16-.16.16s-.16-.07-.16-.16.07-.16.16-.16.16.07.16.16z" fill="#c72c5e"/><path d="m76.98 65.87c0 .09-.07.16-.16.16s-.16-.07-.16-.16.07-.16.16-.16.16.07.16.16z" fill="#c72c5e"/><path d="m78.28 65.87c0 .09-.07.16-.16.16s-.16-.07-.16-.16.07-.16.16-.16.16.07.16.16z" fill="#c72c5e"/><circle cx="79.42" cy="65.87" fill="#c72c5e" r=".16"/><path d="m80.88 65.89c0 .09-.07.16-.16.16s-.16-.07-.16-.16.07-.16.16-.16.16.07.16.16z" fill="#c72c5e"/><path d="m72.27 52.92c-.07.05-.17.03-.22-.05-.05-.07-.02-.17.05-.22s.17-.02.22.05.03.17-.05.22z" fill="#c72c5e"/><path d="m73.23 54.02c-.07.05-.17.03-.22-.05-.05-.07-.02-.17.05-.22s.17-.02.22.05.02.17-.05.22z" fill="#c72c5e"/><path d="m73.93 55.11c-.07.05-.17.02-.22-.05s-.02-.17.05-.22.17-.02.22.05.02.17-.05.22z" fill="#c72c5e"/><path d="m74.62 56.21c-.07.05-.17.02-.22-.05s-.02-.17.05-.22.17-.02.22.05.02.17-.05.22z" fill="#c72c5e"/><path d="m75.32 57.31c-.07.05-.17.02-.22-.05s-.02-.17.05-.22.17-.02.22.05.03.17-.05.22z" fill="#c72c5e"/><path d="m76.01 58.41c-.07.05-.17.02-.22-.05s-.02-.17.05-.22.17-.03.22.05c.05.07.03.17-.05.22z" fill="#c72c5e"/><path d="m76.71 59.51c-.07.05-.17.02-.22-.05s-.03-.17.05-.22c.07-.05.17-.02.22.05s.02.17-.05.22z" fill="#c72c5e"/><path d="m77.4 60.61c-.07.05-.17.02-.22-.05s-.02-.17.05-.22.17-.02.22.05.02.17-.05.22z" fill="#c72c5e"/><path d="m78.1 61.71c-.07.05-.17.02-.22-.05s-.02-.17.05-.22.17-.02.22.05.02.17-.05.22z" fill="#c72c5e"/><path d="m78.8 62.8c-.07.05-.17.02-.22-.05s-.02-.17.05-.22.17-.02.22.05.03.17-.05.22z" fill="#c72c5e"/><path d="m79.49 63.9c-.07.05-.17.02-.22-.05s-.02-.17.05-.22.17-.03.22.05c.05.07.03.17-.05.22z" fill="#c72c5e"/><path d="m80.17 65.01c-.07.05-.17.03-.22-.05-.05-.07-.02-.17.05-.22s.17-.02.22.05.02.17-.05.22z" fill="#c72c5e"/><path d="m71.21 54.02c.07.05.17.03.22-.05.05-.07.02-.17-.05-.22s-.17-.02-.22.05-.03.17.05.22z" fill="#c72c5e"/><path d="m70.52 55.11c.07.05.17.02.22-.05s.03-.17-.05-.22c-.07-.05-.17-.02-.22.05s-.02.17.05.22z" fill="#c72c5e"/><path d="m69.82 56.21c.07.05.17.02.22-.05s.02-.17-.05-.22-.17-.02-.22.05-.03.17.05.22z" fill="#c72c5e"/><path d="m69.13 57.31c.07.05.17.02.22-.05s.02-.17-.05-.22-.17-.02-.22.05-.02.17.05.22z" fill="#c72c5e"/><path d="m68.43 58.41c.07.05.17.02.22-.05s.02-.17-.05-.22-.17-.03-.22.05c-.05.07-.02.17.05.22z" fill="#c72c5e"/><path d="m67.74 59.51c.07.05.17.02.22-.05s.02-.17-.05-.22-.17-.02-.22.05-.02.17.05.22z" fill="#c72c5e"/><path d="m67.04 60.61c.07.05.17.02.22-.05s.02-.17-.05-.22-.17-.02-.22.05-.02.17.05.22z" fill="#c72c5e"/><path d="m66.35 61.71c.07.05.17.02.22-.05s.02-.17-.05-.22-.17-.02-.22.05-.03.17.05.22z" fill="#c72c5e"/><path d="m65.65 62.8c.07.05.17.02.22-.05s.02-.17-.05-.22-.17-.02-.22.05-.03.17.05.22z" fill="#c72c5e"/><path d="m64.96 63.9c.07.05.17.02.22-.05s.02-.17-.05-.22-.17-.03-.22.05c-.05.07-.03.17.05.22z" fill="#c72c5e"/><path d="m64.27 65.01c.07.05.17.03.22-.05.05-.07.02-.17-.05-.22s-.17-.02-.22.05-.02.17.05.22z" fill="#c72c5e"/><path d="m73.32 63.9.3.04s0 0 0 0-.03-.24-.06-.26c-.02-.02-.77-.44-1.12-.63 0 0 0-.02 0-.03 0-.17 0-.35.01-.54 0-.02 0-.03 0-.05 0-.09 0-.19 0-.29 0-.02 0-.03 0-.04 0-.09 0-.19 0-.28 0 0 0-.01 0-.02 0-.37 0-.74 0-1.1l.4.07s0 0 0 0v.01s0 .03.01.04.02 0 .03 0 0 0 0 0 0-.02 0-.03 0 0 0-.01l.38.07s0 0 0 .01 0 .03.01.04.02 0 .03 0 0 0 0 0 0-.02 0-.03 0 0 0 0l.3.05h.08s0 .02 0 .02 0 .03.01.04.02 0 .03 0 0 0 0 0 0-.02 0-.03 0 0 0-.01l.38.07s0 0 0 0 0 .03 0 .04.02 0 .03 0 0 0 0 0 0-.02 0-.03t0 0s0-.01 0-.02l.4.07s.03-.07 0-.11 0 0-.01-.01-.01-.02-.02-.02c-.03-.02-.06-.04-.09-.06 0 0 0 0-.01 0-.02-.01-.04-.02-.06-.04s-.01-.01-.02-.01 0 0 0 0c-.27-.18-.7-.46-1.12-.73 0-.04 0-.1-.01-.15s-.01-.08-.03-.12 0 0-.01 0c0 0 0 0-.01 0s-.01 0-.02 0c-.04 0-.1-.01-.17 0s-.02 0-.03 0c0 0 0 0-.01 0s0 0 0 0c-.02 0-.04.01-.06.02v.02c-.1-.07-.2-.13-.28-.18 0 0-.02-.01-.03-.02-.06-.04-.11-.07-.15-.1 0-.08 0-.15 0-.22 0-.16 0-.3 0-.41 0-.01 0-.02 0-.03 0-.02 0-.03 0-.05 0-.01 0-.02 0-.03s0-.03 0-.04c0 0 0-.02 0-.03 0-.02 0-.04 0-.05-.03-.56-.21-1-.41-.99-.2 0-.35.47-.32 1.02v.05.03.03.04.03c0 .05 0 .11.01.18v.08.02c0 .06 0 .12.01.19 0 .07.01.15.02.23-.04.03-.09.07-.14.11-.09.07-.19.15-.29.23 0-.01 0-.02 0-.02-.02 0-.04-.01-.06-.02s0 0-.01 0c0 0-.02 0-.03 0-.06 0-.12 0-.16.02h-.02s0 0-.01 0c0 0 0 0-.01 0s0 0 0 0c-.01.04-.01.08-.02.13v.15c-.2.15-.4.31-.58.46 0 0-.02.01-.03.02-.02.02-.05.04-.07.06s-.04.03-.06.05c0 0-.02.01-.03.02-.02.02-.04.03-.06.05 0 0-.01.01-.02.02-.03.02-.05.04-.07.06-.04.04-.09.07-.12.1s-.01 0-.02.01c-.02.02-.04.03-.06.04-.04.03-.07.05-.09.07s-.02.02-.03.03 0 .01-.01.01c-.02.03 0 .08 0 .1v.01l.39-.11s0 0 0 0v.02s0 .02 0 .03.02 0 .03 0 0 0 0 0c0-.01 0-.03 0-.04s0 0 0 0 0 0 0-.01l.38-.1s0 0 0 .01 0 .02 0 .03.02 0 .03 0 0 0 0 0c0-.01 0-.03 0-.04s0 0 0-.01l.25-.07.12-.03s0 .01 0 .02 0 .02 0 .03.02 0 .03 0 0 0 0 0c0-.01 0-.03 0-.04s0 0 0 0 0 0 0-.01l.38-.1s0 0 0 0v.02s0 .02 0 .03.02 0 .03 0 0 0 0 0c0-.01 0-.03 0-.04s0 0 0 0 0-.01 0-.02l.39-.11c.03.37.07.75.1 1.12s0 .03 0 .04c0 .08.02.17.02.25v.04c.01.09.02.18.03.26v.08c0 .09.02.17.03.25v.03c0 .08.02.16.03.24v.02c-.03.02-.06.04-.1.07 0 0-.01 0-.02.01-.2.14-.47.32-.67.46 0 0-.02.01-.02.02-.02.01-.04.02-.05.04 0 0-.02.01-.02.01-.04.03-.07.05-.1.07-.01 0-.02.02-.03.02t0 0s-.02.01-.02.02t0 0s0 0-.01 0c-.02.02-.03.13-.03.21s0 .06 0 .06l.29-.07s.89-.21.89-.21 0 .02 0 .03v.04c0 .03.01.06.02.09h.08c.03 0 .05 0 .08-.01 0-.02 0-.03 0-.05t0 0s0-.02 0-.03 0-.02 0-.03t0 0s0-.02 0-.04l.92.14z" fill="#c72c5e"/><path d="m29.88 40.31s-14.76 3.04-14.76 3.04c-.49.1-.98.04-1.38-.16s-.66-.52-.74-.91l-1.25-6.13c-.16-.79.52-1.6 1.52-1.81l14.77-3.04c.49-.1.98-.04 1.38.16s.66.52.74.91l1.24 6.13c.16.79-.52 1.61-1.52 1.81zm-16.56-5.79c-.88.18-1.48.89-1.34 1.58l1.25 6.13c.07.34.3.62.65.79.35.18.77.22 1.2.14l14.76-3.03.03.09-.02-.09c.87-.18 1.47-.89 1.33-1.58l-1.25-6.13c-.07-.34-.3-.62-.65-.79-.35-.18-.77-.22-1.2-.14z" fill="#ef4637"/><path d="m28.96 34.31-15.35 3.21c-.1.02-.19-.04-.21-.14s.04-.19.14-.21l15.35-3.21c.1-.02.19.04.21.14s-.04.19-.14.21z" fill="#ef4637"/><path d="m29.85 38.55-15.35 3.21c-.1.02-.19-.04-.21-.14s.04-.19.14-.21l15.35-3.21c.1-.02.19.04.21.14s-.04.19-.14.21z" fill="#ef4637"/><path d="m28.85 36 .03-.18s0 0 0 0-.15.01-.16.03c-.01.01-.28.47-.41.68h-.01c-.11 0-.22-.01-.34-.02-.01 0-.02 0-.03 0-.06 0-.12 0-.18 0 0 0-.02 0-.03 0-.06 0-.11 0-.17 0 0 0 0 0-.01 0-.23 0-.46-.01-.68-.02l.05-.25s0 0 0 0 .02 0 .02 0 0-.01 0-.02 0 0 0 0-.01 0-.02 0 0 0 0 0l.05-.24s0 0 0 0 .02 0 .03 0 0-.01 0-.02 0 0 0 0-.01 0-.02 0t0 0s0 0 0 0l.04-.19v-.05s.01 0 .02 0 .02 0 .03 0 0-.01 0-.02 0 0 0 0-.01 0-.02 0 0 0 0 0l.05-.24s0 0 0 0 .02 0 .03 0 0-.01 0-.02 0 0 0 0-.01 0-.02 0 0 0-.01 0l.05-.24s-.04-.02-.07 0 0 0-.01.02c-.01.02-.02.04-.04.06 0 .01-.01.02-.02.03v.01c-.11.16-.3.43-.47.68-.03 0-.06 0-.09 0s0 0 0 0c-.03 0-.05 0-.08.01s0 0 0 0 0 0 0 .01v.1s0 .01 0 .02 0 0 0 0c0 .01 0 .02.01.04h.01c-.04.06-.08.12-.12.17 0 0 0 .01-.01.02s-.04.07-.06.09c-.05 0-.09 0-.14 0-.1 0-.19 0-.26 0h-.11s-.02 0-.03 0c-.34 0-.62.12-.62.24 0 .13.28.22.63.21h.03.02s.01 0 .02 0h.03.02s.07 0 .11 0h.05.12s.09 0 .14 0c.02.03.04.05.06.09.04.05.09.12.14.18h-.01c0 .01 0 .03-.01.04s0 0 0 0v.02s0 .07 0 .1v.02s0 0 0 0c.03 0 .05 0 .08.01s.07 0 .09 0c.09.12.19.25.27.36 0 0 .01.01.01.02.01.02.02.03.03.05.01.01.02.03.03.04 0 0 0 .01.01.02 0 .01.02.03.03.04 0 0 0 0 .01.01.01.02.02.03.03.05.02.03.04.05.06.08s0 0 .01.01c0 .01.02.02.03.03.02.02.03.04.05.06s0 .01.01.02c.02.01.05 0 .06 0l-.06-.24s0 0 .01 0 .01 0 .02 0 0-.01 0-.02 0 0 0 0-.02 0-.03 0 0 0 0 0l-.06-.23s0 0 0 0 .01 0 .02 0 0-.01 0-.02 0 0 0 0-.02 0-.03 0 0 0 0 0l-.04-.16-.02-.08s0 0 .01 0h.02s0-.01 0-.02 0 0 0 0-.02 0-.03 0 0 0 0 0l-.06-.24s0 0 0 0 .01 0 .02 0 0-.01 0-.02 0 0 0 0h-.02s0 0-.01 0l-.06-.24c.23-.01.46-.03.7-.05s.02 0 .02 0c.05 0 .1 0 .15-.01h.03c.05 0 .11 0 .16-.01h.05c.05 0 .11 0 .16-.01h.02c.05 0 .1 0 .15-.01h.01c.01.02.02.04.04.06.08.13.19.29.27.42v.01c0 .01.02.02.02.03v.01c.01.02.03.04.04.06s.01.02.01.02v.01c0 .01.08.02.13.02s.04 0 .04 0l-.04-.18s0 0 0 0l-.12-.55s.01 0 .02 0h.03c.02 0 .04 0 .05-.01 0-.02 0-.03 0-.05s0-.03 0-.05c0 0-.02 0-.03 0s-.01 0-.02 0-.01 0-.02 0 0 0 0 0h-.02s.1-.57.1-.57z" fill="#ef4637"/><path d="m23.6 37.06.03-.18s0 0 0 0-.15.01-.16.03c-.01.01-.28.47-.41.68h-.01c-.11 0-.22-.01-.34-.02-.01 0-.02 0-.03 0-.06 0-.12 0-.18 0 0 0-.02 0-.03 0-.06 0-.11 0-.17 0 0 0 0 0-.01 0-.23 0-.46-.01-.68-.02l.05-.25s0 0 0 0 .02 0 .02 0 0-.01 0-.02 0 0 0 0-.01 0-.02 0 0 0 0 0l.05-.24s0 0 0 0 .02 0 .03 0 0-.01 0-.02 0 0 0 0-.01 0-.02 0t0 0s0 0 0 0l.04-.19v-.05s.01 0 .02 0 .02 0 .03 0 0-.01 0-.02 0 0 0 0-.01 0-.02 0 0 0 0 0l.05-.24s0 0 0 0 .02 0 .03 0 0-.01 0-.02 0 0 0 0-.01 0-.02 0 0 0-.01 0l.05-.24s-.04-.02-.07 0 0 0-.01.02c-.01.02-.02.04-.04.06 0 .01-.01.02-.02.03v.01c-.11.16-.3.43-.47.68-.03 0-.06 0-.09 0s0 0 0 0c-.03 0-.05 0-.08.01s0 0 0 0 0 0 0 .01v.1s0 .01 0 .02 0 0 0 0c0 .01 0 .02.01.04h.01c-.04.06-.08.12-.12.17 0 0 0 .01-.01.02s-.04.07-.06.09c-.05 0-.09 0-.14 0-.1 0-.19 0-.26 0h-.11s-.02 0-.03 0c-.34 0-.62.12-.62.24 0 .13.28.22.63.21h.03.02s.01 0 .02 0h.03.02s.07 0 .11 0h.05.12s.09 0 .14 0c.02.03.04.05.06.09.04.05.09.12.14.18h-.01c0 .01 0 .03-.01.04s0 0 0 0v.02s0 .07 0 .1v.02s0 0 0 0c.03 0 .05 0 .08.01s.07 0 .09 0c.09.12.19.25.27.36 0 0 .01.01.01.02.01.02.02.03.03.05.01.01.02.03.03.04 0 0 0 .01.01.02 0 .01.02.03.03.04 0 0 0 0 .01.01.01.02.02.03.03.05.02.03.04.05.06.08s0 0 .01.01c0 .01.02.02.03.03.02.02.03.04.05.06s0 .01.01.02c.02.01.05 0 .06 0l-.06-.24s0 0 .01 0 .01 0 .02 0 0-.01 0-.02 0 0 0 0-.02 0-.03 0 0 0 0 0l-.06-.23s0 0 0 0 .01 0 .02 0 0-.01 0-.02 0 0 0 0-.02 0-.03 0 0 0 0 0l-.04-.16-.02-.08s0 0 .01 0h.02s0-.01 0-.02 0 0 0 0-.02 0-.03 0 0 0 0 0l-.06-.24s0 0 0 0 .01 0 .02 0 0-.01 0-.02 0 0 0 0h-.02s0 0-.01 0l-.06-.24c.23-.01.46-.03.7-.05s.02 0 .02 0c.05 0 .1 0 .15-.01h.03c.05 0 .11 0 .16-.01h.05c.05 0 .11 0 .16-.01h.02c.05 0 .1 0 .15-.01h.01c.01.02.02.04.04.06.08.13.19.29.27.42v.01c0 .01.02.02.02.03v.01c.01.02.03.04.04.06s.01.02.01.02v.01c0 .01.08.02.13.02s.04 0 .04 0l-.04-.18s0 0 0 0l-.12-.55s.01 0 .02 0h.03c.02 0 .04 0 .05-.01 0-.02 0-.03 0-.05s0-.03 0-.05c0 0-.02 0-.03 0s-.01 0-.02 0-.01 0-.02 0 0 0 0 0h-.02s.1-.57.1-.57z" fill="#ef4637"/><path d="m18.2 38.15.03-.18s0 0 0 0-.15.01-.16.03c-.01.01-.28.47-.41.68h-.01c-.11 0-.22-.01-.34-.02-.01 0-.02 0-.03 0-.06 0-.12 0-.18 0 0 0-.02 0-.03 0-.06 0-.11 0-.17 0 0 0 0 0-.01 0-.23 0-.46-.01-.68-.02l.05-.25s0 0 0 0 .02 0 .02 0 0-.01 0-.02 0 0 0 0-.01 0-.02 0 0 0 0 0l.05-.24s0 0 0 0 .02 0 .03 0 0-.01 0-.02 0 0 0 0-.01 0-.02 0t0 0s0 0 0 0l.04-.19v-.05s.01 0 .02 0 .02 0 .03 0 0-.01 0-.02 0 0 0 0-.01 0-.02 0 0 0 0 0l.05-.24s0 0 0 0 .02 0 .03 0 0-.01 0-.02 0 0 0 0-.01 0-.02 0 0 0-.01 0l.05-.24s-.04-.02-.07 0 0 0-.01.02c-.01.02-.02.04-.04.06 0 .01-.01.02-.02.03v.01c-.11.16-.3.43-.47.68-.03 0-.06 0-.09 0s0 0 0 0c-.03 0-.05 0-.08.01s0 0 0 0 0 0 0 .01v.1s0 .01 0 .02 0 0 0 0c0 .01 0 .02.01.04h.01c-.04.06-.08.12-.12.17 0 0 0 .01-.01.02s-.04.07-.06.09c-.05 0-.09 0-.14 0-.1 0-.19 0-.26 0h-.11s-.02 0-.03 0c-.34 0-.62.12-.62.24 0 .13.28.22.63.21h.03.02s.01 0 .02 0h.03.02s.07 0 .11 0h.05.12s.09 0 .14 0c.02.03.04.05.06.09.04.05.09.12.14.18h-.01c0 .01 0 .03-.01.04s0 0 0 0v.02s0 .07 0 .1v.02s0 0 0 0c.03 0 .05 0 .08.01s.07 0 .09 0c.09.12.19.25.27.36 0 0 .01.01.01.02.01.02.02.03.03.05.01.01.02.03.03.04 0 0 0 .01.01.02 0 .01.02.03.03.04 0 0 0 0 .01.01.01.02.02.03.03.05.02.03.04.05.06.08s0 0 .01.01c0 .01.02.02.03.03.02.02.03.04.05.06s0 .01.01.02c.02.01.05 0 .06 0l-.06-.24s0 0 .01 0 .01 0 .02 0 0-.01 0-.02 0 0 0 0-.02 0-.03 0 0 0 0 0l-.06-.23s0 0 0 0 .01 0 .02 0 0-.01 0-.02 0 0 0 0-.02 0-.03 0 0 0 0 0l-.04-.16-.02-.08s0 0 .01 0h.02s0-.01 0-.02 0 0 0 0-.02 0-.03 0 0 0 0 0l-.06-.24s0 0 0 0 .01 0 .02 0 0-.01 0-.02 0 0 0 0h-.02s0 0-.01 0l-.06-.24c.23-.01.46-.03.7-.05s.02 0 .02 0c.05 0 .1 0 .15-.01h.03c.05 0 .11 0 .16-.01h.05c.05 0 .11 0 .16-.01h.02c.05 0 .1 0 .15-.01h.01c.01.02.02.04.04.06.08.13.19.29.27.42v.01c0 .01.02.02.02.03v.01c.01.02.03.04.04.06s.01.02.01.02v.01c0 .01.08.02.13.02s.04 0 .04 0l-.04-.18s0 0 0 0l-.12-.55s.01 0 .02 0h.03c.02 0 .04 0 .05-.01 0-.02 0-.03 0-.05s0-.03 0-.05c0 0-.02 0-.03 0s-.01 0-.02 0-.01 0-.02 0 0 0 0 0h-.02s.1-.57.1-.57z" fill="#ef4637"/><path d="m14.43 35.78c.04.18-.08.36-.26.39s-.36-.08-.39-.26c-.04-.18.08-.36.26-.39.18-.04.36.08.39.26z" fill="#ef4637"/><path d="m18.29 35.02c.04.18-.08.36-.26.39-.18.04-.36-.08-.39-.26-.04-.18.08-.36.26-.39.18-.04.36.08.39.26z" fill="#ef4637"/><path d="m16.36 35.4c.04.18-.08.36-.26.39-.18.04-.36-.08-.39-.26-.04-.18.08-.36.26-.39s.36.08.39.26z" fill="#ef4637"/><path d="m20.23 34.64c.04.18-.08.36-.26.39-.18.04-.36-.08-.39-.26-.04-.18.08-.36.26-.39.18-.04.36.08.39.26z" fill="#ef4637"/><path d="m22.16 34.26c.04.18-.08.36-.26.39-.18.04-.36-.08-.39-.26-.04-.18.08-.36.26-.39.18-.04.36.08.39.26z" fill="#ef4637"/><path d="m26.02 33.5c.04.18-.08.36-.26.39-.18.04-.36-.08-.39-.26-.04-.18.08-.36.26-.39.18-.04.36.08.39.26z" fill="#ef4637"/><path d="m24.09 33.88c.04.18-.08.36-.26.39-.18.04-.36-.08-.39-.26-.04-.18.08-.36.26-.39.18-.04.36.08.39.26z" fill="#ef4637"/><path d="m27.96 33.12c.04.18-.08.36-.26.39-.18.04-.36-.08-.39-.26-.04-.18.08-.36.26-.39.18-.04.36.08.39.26z" fill="#ef4637"/><path d="m29.77 68.38-18.15-2.83c-.08-.01-.14-.07-.13-.12l.99-6.34c0-.05.08-.08.16-.07l18.15 2.83c.08.01.14.07.13.12l-.99 6.34c0 .05-.08.08-.16.07zm-17.97-3 17.85 2.78.96-6.15-17.85-2.78z" fill="#549f45"/><path d="m13.35 62.89-.29-.04 1.34-2.21.31.05.53 2.5-.33-.05-.14-.69-1.04-.16-.37.61zm.5-.83.86.13-.24-1.16z" fill="#549f45"/><path d="m15.82 63.28-.31-.05.37-2.36.66.1c.25.04.42.09.52.16.09.07.16.15.2.26s.04.23.02.36c-.03.22-.14.39-.31.52s-.41.17-.71.12l-.29-.05-.15.93zm.18-1.17.21.03c.27.04.46.02.56-.07s.17-.21.19-.36c.02-.13 0-.24-.06-.32-.06-.09-.19-.15-.39-.18l-.36-.06z" fill="#549f45"/><path d="m17.64 63.56-.31-.05.37-2.36.66.1c.25.04.42.09.52.16.09.07.16.15.2.26s.05.23.02.36c-.03.22-.14.4-.31.52-.17.13-.41.17-.71.12l-.29-.05-.15.93zm.18-1.17.21.03c.27.04.46.02.56-.07s.16-.21.19-.36c.02-.13 0-.23-.06-.32s-.19-.15-.39-.18l-.36-.06z" fill="#549f45"/><path d="m19.46 63.84-.31-.05.37-2.36.73.11c.18.03.31.08.39.14.08.07.14.15.18.26s.05.22.03.33c-.01.09-.05.18-.1.26s-.11.15-.19.21-.18.1-.33.14c.05.04.08.07.1.1s.05.08.07.14c.03.06.05.12.07.17l.27.76-.35-.06-.23-.67c-.06-.16-.14-.31-.25-.44l-.31-.05-.16 1.02zm.19-1.25.3.05c.13.02.23.01.3-.01.07-.03.13-.08.18-.15s.08-.14.09-.23c.01-.07 0-.14-.01-.2-.02-.06-.06-.12-.11-.17s-.15-.08-.29-.11l-.32-.05-.14.88z" fill="#549f45"/><path d="m21.95 64.3c-.3-.04-.52-.19-.67-.44s-.2-.57-.14-.97.2-.7.43-.88c.22-.19.48-.26.77-.21.3.05.52.19.67.44s.2.57.14.97-.2.7-.42.88c-.22.19-.48.26-.78.21zm.04-.23c.22.03.4-.03.55-.2s.25-.4.3-.71.03-.56-.07-.77c-.09-.2-.25-.32-.46-.36-.22-.03-.4.03-.55.2s-.25.4-.3.71-.03.56.07.77c.09.2.25.32.46.36z" fill="#549f45"/><path d="m25.41 62.35.29.04-1.33 2.21-.31-.05-.53-2.5.34.05.44 2.1 1.11-1.86z" fill="#549f45"/><path d="m25.6 64.8.37-2.36 1.34.21-.04.26-1.03-.16-.12.75.9.14-.04.23-.9-.14-.13.86 1.11.17-.04.26z" fill="#549f45"/><path d="m27.4 65.08.37-2.36.65.1c.32.05.54.13.68.24.13.11.23.26.28.45s.06.41.02.67c-.04.24-.11.44-.21.6s-.24.28-.4.36c-.17.08-.4.1-.7.05l-.7-.11zm.34-.21.36.06c.22.03.38.03.5-.02s.22-.13.3-.26.14-.29.17-.5.03-.39 0-.54c-.03-.16-.09-.28-.19-.37s-.26-.15-.5-.18l-.36-.05-.29 1.87z" fill="#549f45"/><path d="m13.2 64.38c-.01.1-.11.17-.21.15s-.17-.11-.15-.21.11-.17.21-.15c.1.01.17.11.15.21z" fill="#549f45"/><path d="m15.63 64.76c-.01.1-.11.17-.21.15s-.17-.11-.15-.21.11-.17.21-.15c.1.01.16.11.15.21z" fill="#549f45"/><path d="m14.42 64.57c-.01.1-.11.17-.21.15s-.17-.11-.15-.21c.01-.1.11-.16.21-.15s.16.11.15.21z" fill="#549f45"/><path d="m16.84 64.95c-.02.1-.11.17-.21.15s-.17-.11-.15-.21.11-.17.21-.15c.1.01.17.11.15.21z" fill="#549f45"/><path d="m18.06 65.14c-.02.1-.11.17-.21.15-.1-.01-.17-.11-.15-.21s.11-.17.21-.15c.1.01.17.11.15.21z" fill="#549f45"/><path d="m20.48 65.52c-.01.1-.11.17-.21.15-.1-.01-.17-.11-.15-.21s.11-.17.21-.15.17.11.15.21z" fill="#549f45"/><path d="m19.27 65.33c-.01.1-.11.16-.21.15s-.17-.11-.15-.21c.01-.1.11-.17.21-.15.1.01.17.11.15.21z" fill="#549f45"/><path d="m21.7 65.7c-.02.1-.11.17-.21.15-.1-.01-.17-.11-.15-.21s.11-.17.21-.15.17.11.15.21z" fill="#549f45"/><path d="m22.91 65.89c-.02.1-.11.17-.21.15s-.17-.11-.15-.21.11-.17.21-.15c.1.01.17.11.15.21z" fill="#549f45"/><path d="m25.33 66.27c-.01.1-.11.17-.2.15-.1-.02-.17-.11-.15-.21s.11-.17.21-.15.17.11.15.21z" fill="#549f45"/><path d="m24.12 66.08c-.01.1-.11.17-.21.15s-.17-.11-.15-.21.11-.17.21-.15.17.11.15.21z" fill="#549f45"/><path d="m26.55 66.46c-.02.1-.11.17-.21.15s-.17-.11-.15-.21.11-.17.21-.15.17.11.15.21z" fill="#549f45"/><path d="m27.76 66.65c-.02.1-.11.17-.21.15s-.17-.11-.15-.21.11-.16.21-.15c.1.02.17.11.15.21z" fill="#549f45"/><path d="m28.97 66.84c-.01.1-.11.17-.21.15s-.17-.11-.15-.21.11-.17.21-.15c.1.01.17.11.15.21z" fill="#549f45"/></svg>