<svg viewBox="0 0 297.45 289.61" xmlns="http://www.w3.org/2000/svg" xmlns:xlink="http://www.w3.org/1999/xlink"><clipPath id="a"><path d="m0 0h297.45v289.61h-297.45z"/></clipPath><clipPath id="b"><path d="m54.5 38.26c-19.29 1.38-33.81 18.13-32.44 37.42l1.37 19.21c1.38 19.29 18.13 33.81 37.42 32.44 5.7-.41 10.99-2.16 15.57-4.92 2.33-1.4 4.48-3.07 6.41-4.96.69-.67 1.36-1.38 1.99-2.11.58-.67 1.14-1.37 1.67-2.08 1.61-2.17 2.97-4.52 4.04-7.02 2.15-4.98 3.17-10.54 2.76-16.33l-1.37-19.21c-1.38-19.29-18.13-33.81-37.42-32.44z"/></clipPath><g clip-path="url(#a)"><path d="m101.26 74.8c-.24-3.05-.33-7.98-1.58-12.77-2.65-10.18-8.46-18.43-15.99-24.16-13.99-10.68-33.9-12.67-50.39-2.16-13.25 8.44-20.13 20.86-20.54 36.64-.17 6.48 1.1 18.85 1.64 25.3.15 1.85.54 3.7 1.04 5.49 4.5 16.02 14.68 26.59 30.54 31.64 5.47 1.74 8.26 5.96 7.72 11.64-.5 5.18-1.02 10.35-1.33 15.54-.27 4.51 1.67 8.05 5.65 10.22 4.03 2.2 8.09 1.9 11.75-.87 3.62-2.73 4.98-6.51 4.08-10.94-.92-4.51-2.05-8.98-3.12-13.47-1.88-7.86-.2-11.22 7.01-14.92 4.4-2.26 8.22-4.96 11.46-8.09 6.63-6.41 10.84-14.63 12.65-24.6 1.01-5.59-.05-17.07-.6-24.48zm-14.77 38.3c-.53.71-1.09 1.41-1.67 2.08-.63.73-1.3 1.43-1.99 2.11-1.93 1.89-4.08 3.56-6.41 4.96-4.58 2.76-9.87 4.51-15.57 4.92-19.29 1.38-36.04-13.15-37.42-32.44l-1.37-19.21c-1.38-19.29 13.15-36.04 32.44-37.42s36.04 13.14 37.42 32.44l1.37 19.21c.41 5.79-.61 11.34-2.76 16.33-1.07 2.5-2.44 4.85-4.04 7.02zm-23.04 52.31c-1.65.13-3.07-1.11-3.16-2.75-.08-1.58 1.11-2.92 2.71-3.05 1.66-.13 3.08 1.11 3.16 2.74.08 1.58-1.11 2.93-2.71 3.05z" fill="#fc7c95"/><path d="m54.5 38.11c-19.29 1.38-33.81 18.13-32.44 37.42l1.37 19.21c1.38 19.29 18.13 33.81 37.42 32.44 5.7-.41 10.99-2.16 15.57-4.92 2.33-1.4 4.48-3.07 6.41-4.96.69-.67 1.36-1.38 1.99-2.11.58-.67 1.14-1.37 1.67-2.08 1.61-2.17 2.97-4.52 4.04-7.02 2.15-4.98 3.17-10.54 2.76-16.33l-1.37-19.21c-1.38-19.29-18.13-33.81-37.42-32.44z" fill="#fefefe"/><path d="m188.19 16.06s15.44-3.69 30.2 15.53c14.84 19.33 12.11 26.34 16.4 32.97 7.53 11.65 21.21 14.25 21.92 22.44.9 10.4-3.35 8.58-1.21 13.81s11.73 8.38 12.6 15.02c1.65 12.56-8.43 8.37-1.55 15.53 6.21 6.47 8.46 20.87-7.51 18.9-4.49-.55 8.54 11.91-10.1 20.19-17.36 7.72-53.92 13.99-83.23 9.22s-34.47-17.76-34.47-17.76-8.07 2.69-15.23-3.2c-7.15-5.88 4.05-16.74-.08-18.15s-7.73-1.26-9.79-7.25c-3.2-9.25 6.11-13.48 2.96-15.98s-4.09-8.02.21-12.71c4.06-4.42 9.89-3.94 5.92-7.91s-3.14-14.06 6.92-20.68c6.1-4.01 11.85-7.33 13.91-19.07 2.07-11.74 6.56-33.14 29.93-40.62 10.16-3.25 22.2-.29 22.2-.29z" fill="#252a4f"/><path d="m245.33 159.65s-55.58-36.02-60.7-35.15c-16.37 2.76-54.89 35.15-54.89 35.15s-16.14 37.94-11.89 56.8c6.18 27.39 10.16 112.2 10.16 112.2l96.91-.47z" fill="#eb8ea3"/><path d="m176.05 186.11c-11.26-1.01-19.43-13.73-19.43-30.71 0-8.33 2.87-15.76 5.92-21.36 8.75-4.9 16.25-8.55 22.09-9.53 1.88-.32 10.62 3.66 20.96 8.84 1.66 7.25 2.78 15.08 0 24.83-4.88 17.11-18.08 28.96-29.54 27.94z" fill="#ffcdab"/><path d="m177.46 186.77c-.49 0-.98-.02-1.46-.06-11.57-1.03-19.97-14.2-19.97-31.31h1.2c0 16.47 7.94 29.13 18.88 30.11.46.04.92.06 1.38.06 11.14 0 23.02-11.77 27.53-27.56 2.58-9.04 1.86-16.35 0-24.54l1.17-.27c1.91 8.37 2.64 15.84 0 25.13-4.65 16.3-17.04 28.43-28.7 28.43z" fill="#cd677e"/><path d="m211.46 81.99c-2.73-21.74-23.72-32.11-24.68-46.45-5.84 12.36-37.54 12.62-36.74 34.97.28 7.95-.45 16.29 1.68 23.17 3.8 12.26 10.15 20.81 16.3 25.51l-2.2 24.73 38.63.18-2.89-34.38c5.03-7.08 8.7-16.57 9.89-27.73z" fill="#ffcdab"/><path d="m262.24 386.68s-34.7-13.21-49.06-67.59c-5.19-19.62-6.53-89.41-5.44-113.59 1.26-27.75-2.71-61.11-4.19-72.27 0-.02 0-.05-.01-.08l-.47-6.05c2.79 1.82 32.54 23.51 53.98 34.43 2.23 15.63-19.84 90.37-21.17 124.78-.47 11.86 26.35 100.38 26.35 100.38z" fill="#644c87"/><path d="m166.99 129.17-.12 3.02c-3.92 7.12-19.08 43.59-21.74 75.55-2.22 26.67-4.83 85.09-5.71 103.24-1.43 29.52-8.56 73.62-16.45 89.82-4.66 9.59-19.94 15.32-20.41 15.48.29-1.26 22.61-97.18 21.45-130.55-1.06-30.47-9.36-64.54-7.99-75.26 1.36-10.72-.19-46.66 8.73-51.61 11.31-6.29 37.57-26.46 42.24-29.69z" fill="#644c87"/><path d="m262.23 387.28c-.07 0-.14-.01-.21-.04-.35-.13-35.15-13.95-49.42-67.99-5.24-19.84-6.53-90.08-5.45-113.77 1.53-33.45-3.88-73.86-3.93-74.26-.04-.33.19-.63.51-.67.33-.05.63.19.68.51.05.41 5.47 40.92 3.94 74.48-1.08 23.64.2 93.67 5.41 113.41 7.37 27.92 20.22 44.69 29.7 53.85 10.27 9.92 18.9 13.29 18.99 13.33.31.12.46.46.35.77-.09.24-.32.39-.56.39z" fill="#252a4f"/><path d="m35.22 178.02c7.62-3.22 11.74-8.76 10.92-10.69s-6.79-.93-14.68 4.17c-6.95 4.49-11.74 8.03-11.61 8.89.32 2.07 7.75.85 15.37-2.36z" fill="#252a4f"/><path d="m102.92 416.61c-.25 0-.48-.15-.56-.4-.11-.31.05-.66.36-.77.15-.05 15.15-5.5 19.73-14.92 7.89-16.23 14.97-60.24 16.38-89.59l.41-8.58c1.09-23.16 3.36-71.35 5.3-94.68 2.83-34.12 20.55-74.13 21.31-75.81.13-.3.49-.44.79-.3.3.13.44.49.3.79-.75 1.68-18.39 41.5-21.21 75.42-1.94 23.31-4.21 71.49-5.3 94.64l-.41 8.58c-1.42 29.47-8.55 73.7-16.5 90.05-4.79 9.86-19.77 15.29-20.4 15.52-.07.02-.13.04-.2.04z" fill="#252a4f"/><path d="m257.03 161.54s7.45 3.77 11.5 15.38c2.57 7.39 25.19 106.86 25.19 118.7 0 39.09-21.47 106.01-21.47 106.01s-5.76-23.93-23.66-29.95c5.66-29.05 7.15-74.76 7.15-74.76l-17.77-57.05 19.07-78.32z" fill="#644c87"/><path d="m42.73 174.81-1.35-7.94 13.1-8.23s3.24-1.11 6.63-1.57c2.29-.31 4.58.11 6.24-.28 1.3-.3 5.14-2.02 3.84-4.49 6.29-.95 5.46-3.32 5.15-4.98 3.4-.51 4.08-2.47 3.82-3.88-.78-4.17-21.56-5.6-21.56-5.6s-.6-.93 1.22-1.22 7.58-.39 10.19-.44c2.79-.05 7.27 1.28 8.93 1.21 5.12-.19 5.9-3.97 4.53-4.93-4.24-2.97-24.35-3.84-32.08-.99-9 3.32-24.78 19.26-26.26 25.78-1.52 6.69-2.28 27.51-2.28 27.51l19.86-9.95z" fill="#ffcdab"/><path d="m56.28 144.66c-.03-.06-.05-.13-.05-.2-.03-.33.22-.62.55-.65 6.61-.56 13.33.51 19.44 3.09.3.13.45.48.32.79-.13.3-.48.45-.79.32-5.93-2.51-12.45-3.55-18.87-3-.26.02-.49-.12-.6-.35z" fill="#e48779"/><path d="m55.91 152.1s-.04-.1-.05-.15c-.06-.33.16-.64.49-.69 4.44-.78 10.12-1.46 14.75.24.31.11.47.46.36.77s-.46.47-.77.36c-4.36-1.6-9.84-.94-14.13-.19-.27.05-.54-.1-.65-.34z" fill="#e48779"/><path d="m153.93 143.72s-22.35 9.92-32.13 16.78c-5.75 4.03-41.38 31.58-59.68 51.13l-15.98-44.27s-2.67 3.65-11.08 8.02c-10.9 5.66-15.23 5.02-15.23 5.02s7.34 80.22 28.73 78.09c16.01-1.6 93.82-48.62 93.82-48.62l11.55-66.14z" fill="#644c87"/><path d="m179.14 123.59c-3.5 0-6.93-.9-9.87-2.78-.28-.18-.36-.55-.18-.83s.55-.36.83-.18c7.72 4.93 19.06 2.63 25.27-5.12.21-.26.59-.3.84-.09.26.21.3.58.09.84-4.23 5.28-10.71 8.16-16.98 8.16z" fill="#e48779"/><path d="m242.15 252.53s-.08 0-.12-.01c-.33-.06-.54-.38-.47-.7 1.8-9.21 3.53-19.48 5.21-29.41 3.5-20.68 6.8-40.21 10.32-48.68.13-.31.48-.45.78-.32.31.13.45.48.32.78-3.46 8.34-6.76 27.81-10.24 48.42-1.68 9.94-3.42 20.21-5.22 29.44-.06.29-.31.49-.59.49z" fill="#252a4f"/><path d="m123.89 300.49s-.03 0-.04 0c-.33-.02-.58-.31-.56-.64 1-15.11-1.22-28.33-3.57-42.32-1.9-11.31-3.86-23-4.24-36.45-.43-15.23 1.48-30.84 5.69-46.41.09-.32.42-.51.74-.42s.51.42.42.74c-4.17 15.45-6.07 30.95-5.64 46.06.38 13.36 2.33 25.01 4.23 36.28 2.36 14.07 4.6 27.35 3.59 42.6-.02.32-.28.56-.6.56z" fill="#252a4f"/><path d="m65.49 236.4c-.21-.16-.3-.45-.19-.71 2.16-5.28 1.06-16.33-3.61-22.65-.2-.27-.14-.64.13-.84s.64-.14.84.13c4.98 6.74 6.09 18.13 3.76 23.82-.13.31-.48.45-.78.33-.05-.02-.1-.05-.14-.08z" fill="#252a4f"/><path d="m209.74 277.82s-.08 0-.12-.01c-.33-.06-.54-.38-.47-.71l16.96-85.84-8.26-2.8c-.21-.07-.37-.26-.4-.48s.06-.44.24-.58l7.33-5.41c-.73-3.27-6.37-27.22-18.94-48.13-.17-.28-.08-.65.21-.82.28-.17.65-.08.82.21 13.57 22.57 19.11 48.62 19.17 48.88.05.23-.04.47-.23.61l-6.72 4.96 7.67 2.6c.28.1.45.39.4.68l-17.06 86.35c-.06.29-.31.48-.59.48z" fill="#252a4f"/><path d="m140.13 277.82c-.3 0-.56-.22-.59-.53l-10.65-89.33c-.04-.33.19-.62.51-.67l7.71-1.05-6.12-3.14c-.28-.15-.4-.49-.28-.78.1-.22 9.99-22.5 27.42-45.37.2-.26.58-.31.84-.11s.31.58.11.84c-15.88 20.83-25.46 41.15-27.05 44.62l7.31 3.75c.23.12.36.38.32.63-.04.26-.25.46-.51.49l-9.01 1.23 10.58 88.74c.04.33-.2.63-.52.67-.02 0-.05 0-.07 0z" fill="#252a4f"/><path d="m180.74 320.29c-5.73 0-13.67-7.05-17.43-11.22-5.35-5.94-7.44-14.4-9.29-21.86-1.62-6.52-3.14-12.69-6.55-15.92-.24-.23-.25-.61-.02-.85s.61-.25.85-.02c3.66 3.48 5.22 9.8 6.88 16.5 1.81 7.32 3.87 15.62 9.02 21.34 4.69 5.21 13.38 12.32 18.13 10.56.31-.11.66.04.77.35.12.31-.04.66-.35.77-.63.23-1.3.34-2.01.34z" fill="#cd677e"/><path d="m199.91 71.23c-.24 0-.48-.1-.66-.28-.25-.26-6.08-6.4-11.86-2.73-.42.27-.97.14-1.24-.28-.26-.42-.14-.97.28-1.24 7.05-4.47 14.07 2.95 14.14 3.02.34.36.32.93-.05 1.26-.17.16-.39.24-.61.24z" fill="#252a4f"/><path d="m154.78 71.23c-.21 0-.42-.07-.59-.22-.37-.33-.41-.89-.08-1.26.06-.07 6.29-7.03 13.25-2.93.43.25.57.8.32 1.23s-.8.57-1.23.32c-5.7-3.35-10.95 2.51-11 2.57-.18.2-.42.3-.67.3z" fill="#252a4f"/><path d="m177.03 96.6c-1.95 0-4.65-.47-5.85-2.26-.77-1.15-.34-2.61.38-5.03.37-1.25.83-2.81 1.26-4.73.74-3.35.16-8.38.16-8.43-.04-.33.2-.63.53-.67s.63.2.67.53c.03.21.61 5.28-.18 8.82-.43 1.97-.9 3.55-1.28 4.82-.62 2.08-.99 3.34-.54 4.02 1.04 1.55 4.03 1.86 5.78 1.69.33-.03.62.21.66.54.03.33-.21.62-.54.66-.31.03-.67.05-1.05.05z" fill="#e48779"/><path d="m184.67 102.42c-1.94-1.29-2.65-2.01-4.47-2.26-.84-.12-1.79.29-2.47 1.03-.37.41-.98.48-1.38.1-.76-.72-1.83-1.05-2.58-.91-1.3.24-2.08 1.45-2.92 2.5v.37c.16 3.03 2.65 5.74 6.33 6.05 4.06.35 7.49-3.86 7.68-6.69z" fill="#dc6d6e"/><path d="m176.7 104.8c-2.46 0-5.07-.51-7.45-1.99-.28-.17-.37-.54-.19-.83.18-.28.54-.37.83-.19 6.99 4.33 16.48-.57 16.58-.62.29-.15.66-.04.81.25s.04.66-.25.81c-.28.15-4.96 2.56-10.32 2.56z" fill="#bd5a5d"/><path d="m160.48 73.92h-.48c-.74.71-1.18 2.06-1.07 3.58.17 2.16 1.38 3.83 2.72 3.73s2.29-1.94 2.12-4.1c-.01-.2-.04-.39-.07-.57-.26-1.55-1.66-2.64-3.23-2.64z" fill="#252a4f"/><path d="m164.71 77.11c-.18 0-.36-.08-.48-.23-1.13-1.46-2.54-2.32-4.1-2.49-1.42-.16-2.7.31-3.28.8-.25.21-.63.18-.85-.07-.21-.25-.18-.63.07-.85.79-.67 2.39-1.27 4.18-1.08 1.32.14 3.24.76 4.92 2.95.2.26.15.64-.11.84-.11.08-.24.12-.37.12z" fill="#252a4f"/><path d="m194.95 73.65h-1.66c-.91.52-1.64 1.84-1.79 3.43-.21 2.16.7 4.02 2.03 4.15s2.59-1.52 2.8-3.67c.17-1.78-.42-3.33-1.37-3.91z" fill="#252a4f"/><path d="m189.32 77.2c-.14 0-.27-.05-.39-.14-.25-.21-.29-.59-.07-.85 2-2.38 3.96-2.91 5.26-2.94 1.77-.06 3.18.8 3.91 1.59.22.24.21.62-.04.85s-.62.21-.85-.04c-.53-.57-1.63-1.22-3-1.2-1.52.03-2.99.88-4.36 2.51-.12.14-.29.21-.46.21z" fill="#252a4f"/><g fill="#45497d"><path d="m147.71 61.78c-.06 0-.13-.01-.19-.03-.31-.11-.48-.45-.38-.76 3.42-10.15 8.42-16.42 17.26-21.63 2.7-1.59 5.85-2.74 8.9-3.86 6.24-2.28 12.13-4.43 14.32-10 .12-.31.47-.46.78-.34s.46.47.34.78c-2.39 6.07-8.81 8.42-15.02 10.69-3 1.09-6.1 2.23-8.71 3.76-8.56 5.05-13.41 11.12-16.73 20.98-.08.25-.32.41-.57.41z"/><path d="m146.22 61.92c-.28 0-.53-.2-.59-.49-.99-5.1.05-21.88 17.23-31.74 4.74-2.72 9.48-3.2 13.67-3.61 4.34-.43 8.08-.81 11.09-3.4.25-.21.63-.19.85.06s.19.63-.06.85c-3.3 2.84-7.41 3.25-11.76 3.68-4.27.43-8.68.87-13.19 3.46-16.57 9.52-17.59 25.59-16.65 30.47.06.33-.15.64-.47.7-.04 0-.08.01-.11.01z"/><path d="m216.32 76.03c-.31 0-.58-.25-.6-.56-1.04-17.29-9.32-24.72-16.62-31.28-5.99-5.38-11.17-10.03-11.17-18.81 0-.33.27-.6.6-.6s.6.27.6.6c0 8.25 4.99 12.73 10.77 17.92 7.47 6.71 15.95 14.31 17.02 32.1.02.33-.23.62-.56.63-.01 0-.02 0-.04 0z"/><path d="m222.64 123.88c-.11 0-.23-.03-.33-.1-.28-.18-.35-.56-.17-.83 4.05-6.11 5.67-10.8 4.93-14.33-.74-3.58-3.83-5.58-6.81-7.51-2.2-1.43-4.28-2.78-5.44-4.71-1.43-2.37-1.47-4.82-1.51-7.19-.03-1.9-.07-3.86-.82-5.79-.12-.31.04-.66.34-.78.31-.12.66.03.78.34.82 2.13.86 4.2.9 6.2.04 2.31.08 4.5 1.34 6.6 1.02 1.7 2.99 2.97 5.07 4.32 3.04 1.97 6.49 4.21 7.34 8.28.8 3.87-.87 8.85-5.11 15.24-.12.17-.31.27-.5.27z"/><path d="m235.31 144.52c-.21 0-.41-.11-.52-.3-.16-.29-.06-.65.23-.82 1.88-1.06 3.22-2.97 3.59-5.09.37-2.13-.25-4.37-1.66-6-.67-.77-1.48-1.39-2.33-2.05-.5-.39-1.03-.78-1.52-1.22-1.21-1.07-2.63-2.78-2.52-4.87.02-.33.3-.56.63-.57.33.02.59.3.57.63-.08 1.61 1.1 3.02 2.11 3.91.46.41.96.79 1.45 1.17.87.66 1.77 1.35 2.51 2.22 1.64 1.9 2.37 4.52 1.94 7s-1.99 4.7-4.18 5.93c-.09.05-.2.08-.3.08z"/><path d="m244.88 109.45c-.22 0-.44-.13-.54-.34-.14-.3-.02-.66.28-.8 1.65-.79 2.86-2.4 3.16-4.2s-.32-3.72-1.62-5c-1.07-1.06-2.49-1.65-3.98-2.28-.39-.16-.78-.33-1.16-.5-2.6-1.17-4.12-2.6-4.65-4.4-.09-.32.09-.65.4-.75.32-.09.65.09.75.4.43 1.44 1.73 2.63 4 3.64.37.17.75.33 1.13.49 1.54.64 3.13 1.31 4.36 2.53 1.57 1.55 2.33 3.88 1.96 6.06s-1.83 4.13-3.83 5.08c-.08.04-.17.06-.26.06z"/><path d="m244.53 125.83c-.17 0-.35-.08-.47-.22-.21-.26-.17-.63.09-.84 1.29-1.05 1.82-3.07 1.28-4.9-.47-1.61-1.71-3.14-3.48-4.31-1.64-1.08-3.55-1.77-5.4-2.44-.31-.11-.47-.46-.36-.77s.46-.47.77-.36c1.91.69 3.89 1.41 5.65 2.56 2.01 1.32 3.42 3.08 3.97 4.97.67 2.29-.02 4.82-1.68 6.17-.11.09-.25.13-.38.13z"/><path d="m137.86 139.85s-.07 0-.11-.01c-2.01-.38-3.55-1.93-4.13-4.16-.79-3.06.21-7.84 5.38-12.11.3-.25.67-.51 1.08-.82 2.4-1.74 6.04-4.38 4.77-9.26-.08-.32.11-.65.43-.73s.65.11.73.43c1.47 5.68-2.73 8.72-5.23 10.54-.39.28-.74.54-1.02.77-4.73 3.9-5.67 8.18-4.98 10.88.45 1.76 1.65 2.99 3.19 3.28.33.06.54.38.48.7-.05.29-.31.49-.59.49z"/><path d="m133.8 110.74c-.2 0-.4-.1-.52-.29-2.69-4.5-1.79-10.82 2.05-14.39.65-.6 1.36-1.13 2.05-1.63.91-.67 1.77-1.3 2.48-2.09 1.16-1.29 1.83-3.3.87-4.66-.19-.27-.13-.64.14-.84.27-.19.65-.13.84.14 1.32 1.87.52 4.51-.96 6.15-.79.88-1.74 1.58-2.66 2.25-.69.51-1.35.99-1.94 1.54-3.44 3.2-4.25 8.87-1.84 12.9.17.28.08.65-.21.82-.1.06-.2.09-.31.09z"/><path d="m122.16 138.61c-.13 0-.26-.04-.37-.13-1.78-1.41-3.41-2.86-3.83-4.94-.39-1.9.39-4.06 2.09-5.78 1.14-1.15 2.53-2.01 3.88-2.84 1.98-1.22 3.86-2.38 4.87-4.35.15-.29.51-.41.81-.26.29.15.41.51.26.81-1.17 2.27-3.27 3.56-5.31 4.82-1.29.79-2.62 1.62-3.66 2.66-1.41 1.43-2.07 3.19-1.77 4.69.34 1.69 1.81 2.97 3.41 4.24.26.21.3.58.1.84-.12.15-.29.23-.47.23z"/></g><path d="m259.56 295.23c-.15 0-.3-.05-.41-.16-.24-.23-.25-.61-.02-.85 4.71-4.97 12.52-6.9 19.01-4.69.31.11.48.45.37.76s-.45.48-.76.38c-6.05-2.06-13.35-.26-17.75 4.38-.12.12-.28.19-.44.19z" fill="#252a4f"/><path d="m262.23 289.61c-.11 0-.23-.03-.33-.1-.28-.18-.35-.55-.17-.83 2.28-3.45 5.88-6.04 9.87-7.12.32-.09.65.1.74.42s-.1.65-.42.74c-3.71 1-7.06 3.42-9.18 6.62-.12.17-.31.27-.5.27z" fill="#252a4f"/><path d="m180.56 151.73c-1.98 0-3.97-.97-5.19-2.54-.2-.26-.16-.64.1-.84s.64-.16.84.11c1 1.29 2.63 2.08 4.27 2.07 1.63-.01 3.26-.83 4.24-2.13.2-.26.57-.32.84-.12.26.2.32.58.12.84-1.2 1.59-3.19 2.59-5.19 2.61-.01 0-.03 0-.04 0z" fill="#e48779"/><path d="m203.02 91.7c3.82-2.87 3.84-7.6-.54-8.71-4.64-1.17-9.28 3.26-11.12 7.09-2.34 4.87 4.81 6.77 11.66 1.62z" fill="#feb196"/><path d="m154.23 91.68c-3.01-2.85-2.99-7.58.48-8.71 3.68-1.2 7.33 3.2 8.77 7.01 1.82 4.86-3.86 6.8-9.25 1.7z" fill="#feb196"/><g clip-path="url(#b)" opacity=".6"><path d="m128.11 129.54c-1.94 5.61-5.32 5.47-9.19 6.8-2.51.86 1.01 5.44 1.98 10.06-2.85 4.37-6.77 7.84-11.32 10.53-2.95.14-5.04-.55-5.04-.55s-.74 1.86-3.27 4.39c-9.09 3.29-18.75 4.85-28.31 5.99-11.98 1.43-23.78 3.05-35.83 1.18-8.06-1.26-15.96-3.28-24.05-4.36-8.01-1.07-16.09-1.71-24.06-3.06-.46-.08-.93-.16-1.39-.25-7.41-7.2.49-15.26-3.02-14.83-14.99 1.85-12.88-11.66-7.05-17.74 6.46-6.73-3.01-2.79-1.46-14.58.82-6.23 9.82-9.19 11.83-14.09 2.01-4.91-1.98-3.2-1.13-12.96.67-7.68 13.5-10.12 20.57-21.06 4.02-6.22 1.46-12.8 15.39-30.94 13.85-18.04 28.35-14.58 28.35-14.58s11.3-2.78 20.83.27c21.93 7.02 26.15 27.1 28.09 38.12s7.33 14.13 13.06 17.9c9.45 6.21 10.22 15.69 6.5 19.41s1.75 3.27 5.56 7.43c4.04 4.4 3.15 9.58.19 11.93s5.78 6.31 2.78 15z" fill="#252a4f"/><path d="m102.13 160.47c-9.34 3.5-19.3 5.11-29.16 6.29-11.98 1.43-23.78 3.05-35.83 1.18-8.06-1.26-15.96-3.28-24.05-4.36-4.89-.65-9.8-1.15-14.69-1.74l-.92-7.57s52.16-33.8 56.97-32.99c15.37 2.59 51.51 32.99 51.51 32.99s.6 1.43 1.53 3.82c-1.72.89-3.52 1.69-5.36 2.38z" fill="#eb8ea3"/><path d="m72.97 166.76c-10.1 1.21-20.07 2.54-30.17 1.81-3.45-4.27-6.29-9.63-8.02-15.69-2.61-9.16-1.56-16.5 0-23.31 9.7-4.86 17.91-8.59 19.67-8.29 5.48.93 12.52 4.35 20.74 8.95 2.86 5.26 5.55 12.24 5.55 20.05 0 5.97-1.08 11.39-2.98 15.87-1.6.22-3.19.43-4.79.62z" fill="#febca5"/><path d="m35.32 152.72c1.74 6.11 4.67 11.58 8.23 15.9-.5-.03-1.01-.07-1.51-.11-3.37-4.3-6.13-9.6-7.81-15.48-2.49-8.72-1.8-15.74 0-23.59l1.1.25c-1.76 7.68-2.43 14.54 0 23.03z" fill="#cd677e"/><path d="m77.06 166.23c1.98-4.49 3.11-9.96 3.11-15.96h1.13c0 5.88-1.06 11.27-2.94 15.78-.43.06-.86.12-1.3.18z" fill="#cd677e"/><path d="m29.26 81.37c2.56-20.41 22.26-30.14 23.16-43.59 5.48 11.6 35.24 11.84 34.48 32.82-.27 7.46.42 15.29-1.58 21.75-3.57 11.51-9.53 19.53-15.3 23.94l2.07 23.21-36.26.16 2.71-32.27c-4.72-6.64-8.16-15.55-9.28-26.03z" fill="#febca5"/><path d="m36.69 129.45c-.87 6.56-2.66 21.3-3.58 37.79-6.67-1.22-13.28-2.77-20.02-3.67-8.01-1.07-16.09-1.71-24.06-3.06-.88-.15-1.77-.31-2.66-.47-.07-1.6-.04-2.96.11-4.02 20.13-10.25 48.05-30.61 50.67-32.32l-.44 5.68s0 .06 0 .08z" fill="#644c87"/><path d="m102.13 160.47c-5.61 2.1-11.44 3.52-17.34 4.57-5.08-17.71-11.39-32.41-13.67-36.55l-.11-2.84c4.38 3.03 29.03 21.96 39.64 27.86.64.36 1.22.91 1.76 1.58-3.1 2.2-6.58 3.98-10.27 5.37z" fill="#644c87"/><path d="m32.4 167.11c1.04-21.44 3.45-39.44 3.48-39.7.04-.31.32-.53.63-.48.31.04.52.33.48.63-.04.26-2.45 18.3-3.48 39.75-.37-.07-.74-.14-1.12-.21z" fill="#252a4f"/><path d="m84.16 165.15c-5.65-19.65-12.66-35.49-13.12-36.5-.13-.28 0-.62.28-.74.29-.13.62 0 .74.28.46 1.02 7.52 16.97 13.2 36.75-.37.07-.74.14-1.11.21z" fill="#252a4f"/><path d="m102.13 160.47c-4.7 1.76-9.55 3.04-14.48 4.03l-4.4-25.19s20.26 8.99 29.67 15.41c-3.23 2.38-6.9 4.28-10.8 5.75z" fill="#644c87"/><path d="m59.6 120.41c3.28 0 6.51-.84 9.27-2.61.26-.17.34-.52.17-.78s-.52-.34-.78-.17c-7.24 4.63-17.89 2.47-23.72-4.81-.19-.24-.55-.28-.79-.09s-.28.55-.09.79c3.97 4.95 10.05 7.66 15.94 7.66z" fill="#e48779"/><path d="m19.42 164.59c-.37-.07-.74-.13-1.12-.2 2.78-9.13 7.64-22.57 15.06-34.92.16-.27.51-.35.77-.19.27.16.35.51.19.77-7.33 12.19-12.14 25.47-14.91 34.53z" fill="#252a4f"/><path d="m96.98 162.18c-4.35-7.83-10.61-18.12-18.56-28.54-.19-.25-.14-.6.11-.79s.6-.14.79.11c8.06 10.57 14.39 21 18.77 28.89-.37.12-.74.22-1.1.33z" fill="#252a4f"/><path d="m40.1 71.27c.23 0 .45-.09.62-.27.23-.25 5.71-6.01 11.14-2.56.39.25.91.13 1.16-.26s.13-.91-.26-1.16c-6.62-4.2-13.2 2.77-13.27 2.84-.32.34-.3.87.04 1.19.16.15.37.22.57.22z" fill="#252a4f"/><path d="m82.46 71.27c.2 0 .39-.07.55-.21.35-.31.38-.84.08-1.19-.06-.07-5.91-6.6-12.44-2.75-.4.24-.53.75-.3 1.15.24.4.75.53 1.15.3 5.35-3.15 10.27 2.36 10.32 2.41.17.19.4.29.63.29z" fill="#252a4f"/><path d="m61.58 95.09c1.83 0 4.36-.44 5.49-2.12.72-1.08.31-2.45-.36-4.72-.35-1.17-.78-2.63-1.18-4.44-.69-3.14-.15-7.86-.15-7.91.04-.31-.18-.59-.49-.63s-.59.19-.63.49c-.02.2-.57 4.95.17 8.28.41 1.85.85 3.33 1.2 4.52.58 1.96.93 3.14.51 3.77-.98 1.46-3.78 1.74-5.43 1.58-.31-.03-.59.2-.62.51s.2.58.51.62c.29.03.62.05.99.05z" fill="#e48779"/><path d="m54.41 100.54c1.82-1.21 2.49-1.88 4.19-2.12.79-.11 1.68.27 2.32.97.35.38.92.45 1.3.09.71-.68 1.72-.98 2.42-.86 1.22.22 1.95 1.36 2.74 2.35v.35c-.15 2.85-2.49 5.39-5.94 5.68-3.81.32-7.03-3.62-7.21-6.28z" fill="#dc6d6e"/><path d="m61.89 102.78c2.31 0 4.76-.48 7-1.87.26-.16.35-.51.18-.78-.16-.26-.51-.35-.78-.18-6.56 4.06-15.47-.53-15.56-.58-.27-.14-.62-.04-.76.24s-.04.62.24.76c.27.14 4.66 2.4 9.68 2.4z" fill="#bd5a5d"/><path d="m77.12 73.8h.45c.69.66 1.11 1.93 1 3.36-.16 2.03-1.3 3.6-2.55 3.5s-2.15-1.82-1.99-3.85c.01-.18.04-.36.07-.54.25-1.45 1.56-2.48 3.03-2.48z" fill="#252a4f"/><path d="m73.15 76.79c.17 0 .34-.08.45-.22 1.06-1.37 2.39-2.18 3.85-2.33 1.34-.15 2.53.29 3.08.75.24.2.59.17.79-.07s.17-.59-.07-.79c-.75-.63-2.25-1.19-3.92-1.01-1.24.13-3.04.72-4.62 2.77-.19.25-.14.6.1.79.1.08.22.12.34.12z" fill="#252a4f"/><path d="m44.76 73.54h1.56c.85.49 1.54 1.72 1.68 3.22.2 2.03-.66 3.77-1.91 3.89s-2.43-1.42-2.62-3.45c-.16-1.67.39-3.13 1.29-3.67z" fill="#252a4f"/><path d="m50.05 76.87c.13 0 .26-.04.36-.13.24-.2.27-.56.07-.79-1.87-2.23-3.72-2.73-4.93-2.76-1.66-.06-2.99.75-3.67 1.49-.21.23-.19.59.03.8s.59.19.8-.03c.49-.54 1.53-1.15 2.82-1.13 1.43.03 2.81.82 4.09 2.35.11.13.27.2.43.2z" fill="#252a4f"/><g fill="#45497d"><path d="m89.09 62.4c.06 0 .12-.01.18-.03.29-.1.45-.42.35-.71-3.21-9.53-7.91-15.41-16.2-20.3-2.53-1.49-5.49-2.57-8.36-3.62-5.85-2.14-11.38-4.16-13.44-9.39-.11-.29-.44-.43-.73-.32s-.43.44-.32.73c2.24 5.7 8.27 7.9 14.1 10.03 2.81 1.03 5.73 2.09 8.17 3.53 8.04 4.74 12.59 10.44 15.71 19.69.08.24.3.38.53.38z"/><path d="m90.49 62.53c.26 0 .5-.19.55-.46.93-4.79-.05-20.53-16.17-29.79-4.45-2.56-8.9-3-12.83-3.39-4.07-.41-7.59-.76-10.41-3.19-.24-.2-.59-.18-.79.06s-.18.59.06.79c3.09 2.66 6.95 3.05 11.03 3.46 4 .4 8.14.81 12.38 3.25 15.55 8.93 16.51 24.02 15.62 28.6-.06.31.14.6.45.66.04 0 .07.01.11.01z"/><path d="m24.7 75.78c.3 0 .54-.23.56-.53.98-16.23 8.74-23.2 15.6-29.35 5.63-5.05 10.49-9.41 10.49-17.66 0-.31-.25-.56-.56-.56s-.56.25-.56.56c0 7.74-4.69 11.95-10.11 16.82-7.01 6.3-14.97 13.43-15.97 30.12-.02.31.22.58.53.6h.03z"/><path d="m18.77 120.69c.11 0 .22-.03.31-.09.26-.17.33-.52.16-.78-3.81-5.73-5.32-10.13-4.63-13.45.7-3.36 3.59-5.24 6.39-7.05 2.07-1.34 4.02-2.61 5.11-4.42 1.34-2.23 1.38-4.53 1.42-6.75.03-1.78.07-3.62.77-5.44.11-.29-.03-.62-.32-.73s-.62.03-.73.32c-.77 2-.81 3.94-.84 5.82-.04 2.17-.08 4.22-1.26 6.19-.96 1.59-2.8 2.79-4.76 4.06-2.86 1.85-6.09 3.95-6.88 7.77-.75 3.63.81 8.31 4.8 14.3.11.16.29.25.47.25z"/><path d="m6.88 140.06c.2 0 .39-.1.49-.29.15-.27.06-.61-.21-.77-1.76-1-3.02-2.79-3.37-4.78-.35-2 .24-4.1 1.56-5.64.62-.72 1.39-1.31 2.19-1.92.47-.36.96-.74 1.42-1.14 1.13-1 2.46-2.61 2.36-4.57-.02-.31-.28-.53-.59-.53-.31.02-.55.28-.53.59.08 1.52-1.04 2.83-1.98 3.67-.44.38-.9.74-1.36 1.09-.82.62-1.66 1.27-2.36 2.08-1.54 1.79-2.22 4.24-1.82 6.57.4 2.32 1.87 4.41 3.92 5.57.09.05.18.07.28.07z"/><path d="m-2.1 107.14c.21 0 .41-.12.51-.32.13-.28.02-.62-.26-.75-1.55-.74-2.68-2.25-2.97-3.94-.28-1.69.3-3.49 1.52-4.7 1-.99 2.33-1.55 3.74-2.14.37-.15.73-.31 1.09-.47 2.44-1.09 3.87-2.44 4.37-4.13.09-.3-.08-.61-.38-.7s-.61.08-.7.38c-.4 1.35-1.63 2.47-3.75 3.42-.35.16-.71.31-1.06.46-1.44.6-2.94 1.23-4.1 2.38-1.48 1.46-2.18 3.64-1.84 5.68.34 2.05 1.72 3.88 3.59 4.77.08.04.16.06.24.06z"/><path d="m-1.77 122.51c.16 0 .33-.07.44-.21.2-.24.16-.6-.08-.79-1.21-.99-1.71-2.88-1.2-4.6.44-1.51 1.6-2.95 3.27-4.04 1.54-1.01 3.33-1.66 5.06-2.29.29-.11.44-.43.34-.72-.11-.29-.43-.44-.72-.34-1.8.65-3.65 1.32-5.3 2.4-1.89 1.24-3.21 2.89-3.73 4.67-.63 2.15.02 4.53 1.57 5.79.1.08.23.13.35.13z"/><path d="m98.34 135.68s.07 0 .1-.01c1.89-.35 3.33-1.81 3.87-3.9.74-2.87-.2-7.36-5.05-11.36-.28-.23-.63-.48-1.02-.77-2.26-1.64-5.67-4.11-4.48-8.69.08-.3-.1-.61-.4-.69s-.61.1-.69.4c-1.38 5.33 2.56 8.18 4.91 9.89.37.27.7.5.96.72 4.44 3.66 5.32 7.68 4.67 10.21-.43 1.66-1.54 2.81-2.99 3.08-.31.06-.51.35-.45.66.05.27.29.46.55.46z"/><path d="m102.16 108.35c.19 0 .38-.1.48-.27 2.52-4.22 1.68-10.16-1.93-13.51-.61-.57-1.28-1.06-1.92-1.53-.85-.63-1.66-1.22-2.33-1.96-1.09-1.21-1.72-3.1-.82-4.37.18-.25.12-.6-.14-.78-.25-.18-.61-.12-.79.14-1.24 1.76-.49 4.23.9 5.77.75.83 1.64 1.48 2.5 2.11.65.48 1.26.93 1.82 1.45 3.23 3 3.99 8.32 1.73 12.11-.16.27-.07.61.19.77.09.05.19.08.29.08z"/><path d="m113.08 134.51c.12 0 .25-.04.35-.12 1.67-1.33 3.2-2.68 3.6-4.64.36-1.78-.37-3.81-1.96-5.42-1.07-1.08-2.38-1.89-3.64-2.67-1.86-1.15-3.62-2.23-4.57-4.08-.14-.28-.48-.39-.76-.24-.28.14-.39.48-.24.76 1.09 2.13 3.07 3.35 4.98 4.52 1.21.75 2.46 1.52 3.43 2.5 1.33 1.34 1.95 2.99 1.66 4.4-.32 1.59-1.7 2.79-3.2 3.98-.24.19-.28.55-.09.79.11.14.28.21.44.21z"/></g><path d="m58.26 146.83c1.86 0 3.73-.91 4.87-2.38.19-.24.15-.6-.1-.79s-.6-.15-.79.1c-.94 1.21-2.47 1.95-4.01 1.94-1.53-.01-3.06-.78-3.98-2-.19-.25-.54-.3-.79-.11s-.3.54-.11.79c1.13 1.5 3 2.43 4.87 2.45z" fill="#e48779"/><path d="m37.18 90.48c-3.58-2.7-3.61-7.14.5-8.17 4.35-1.1 8.71 3.06 10.44 6.65 2.2 4.57-4.52 6.36-10.94 1.52z" fill="#feb196"/><path d="m82.98 90.46c2.82-2.67 2.81-7.11-.45-8.18-3.46-1.13-6.88 3-8.23 6.58-1.71 4.56 3.62 6.38 8.68 1.59z" fill="#feb196"/></g></g></svg>