<svg viewBox="0 0 68.33 186.78" xmlns="http://www.w3.org/2000/svg"><ellipse cx="34.17" cy="183.14" fill="#e0e0e0" rx="34.17" ry="3.64"/><rect fill="#c1c1c1" height="8.5" rx="1.93" width="15.93" x="26.2"/><path d="m29.11 8.5h10.12v173.48h-10.12z" fill="#c1c1c1"/><path d="m34.17 8.5v132.97s-.13 2.48-1.11 3.46c-1.2 1.2-2.92 1.54-2.92 1.54h4.03v35.51h5.06v-173.48z" fill="#afafaf"/><path d="m30.14 146.47h8.05c2.17 0 3.94 1.77 3.94 3.94v31.57h-15.93v-31.57c0-2.17 1.77-3.94 3.94-3.94z" fill="#999"/><path d="m34.1 146.47h-3.96c-2.18 0-3.94 1.76-3.94 3.94v31.57h11.83v-31.57c0-2.18-1.76-3.94-3.94-3.94z" fill="#c1c1c1"/></svg>