<svg fill="none" height="1080" viewBox="0 0 1920 1080" width="1920" xmlns="http://www.w3.org/2000/svg"><g fill="#578bc7" opacity=".1"><path d="m375.996.334755c9.708 7.960885 19.456 15.895145 29.124 23.909345 23.777 19.6688 45.673 41.2712 66.476 64.0604 15.682 17.1755 30.51 34.9905 44.245 53.7525 18.469 25.23 35.072 51.579 50.047 79.062 18.949 34.764 34.111 71.075 46.713 108.492 9.988 29.644 17.709 59.954 22.936 90.757 3.227 19.029 6.681 38.111 6.934 57.66.08 5.921 1.454 12.175 1.507 18.335.094 12.055-5.014 18.229-16.842 18.349-36.205.333-72.423.28-108.641.04-10.628-.067-16.482-7.028-17.016-20.522-.866-21.603-5.094-42.672-9.054-63.807-3.681-19.696-9.548-38.805-15.495-57.914-7.215-23.202-16.549-45.565-27.324-67.247-17.282-34.777-38.178-67.301-62.635-97.598-17.056-21.122-35.765-40.644-55.581-59.006-30.777-28.523-64.915-52.5659-101.666-73.0082-17.269-9.6011-34.938-18.5487-53.114-25.8029-22.443-8.9743-45.473-16.8552-69.169-22.5091-26.4437-6.3074-53.0338-11.3746-80.1307-13.8149-4.6006-.4134-9.2012-.9735-13.8285-1.2935-6.6809-.4667-10.28138-5.36059-13.4818-10.56116 1.4802-2.78698 4.05387-1.240141 6.00079-1.240141 123.33621-.093344 246.67221-.080009 369.99521-.080009z"/><path d="m32.0046 88.3059c16.3354 1.2268 32.3109 4.6272 48.2197 8.2942 39.4987 9.1209 77.0637 23.4829 112.6277 42.8719 25.897 14.121 50.087 30.776 72.89 49.605 16.309 13.468 31.431 28.137 45.699 43.592 24.244 26.242 44.833 55.219 62.195 86.569 13.589 24.536 24.87 49.992 33.458 76.622 9.535 29.563 16.922 59.633 19.669 90.703.294 3.281.92 6.548 1.374 9.815 1.333 9.521-6.454 18.362-17.269 18.402-36.658.133-73.33.227-109.988-.067-10.681-.08-17.109-6.787-18.122-17.455-1.681-17.669-6.148-34.684-11.269-51.592-11.561-38.098-30.244-72.475-55.42-103.079-36.538-44.431-82.131-76.581-136.2715-96.25-13.6818-4.974-27.777-8.695-42.1255-11.455-6.6942-1.293-13.2018-3.507-20.1227-3.667-7.96103-.2-13.89515-3.734-17.5356281-10.921v-123.9606c5.9607881-9.8277 15.5354281-9.8411 25.3100281-9.2943 1.9336 2.0002 4.4139 1.0934 6.6942 1.2801z"/><path d="m557.34 1080c-8.081-8.21-17.776-14.44-26.577-21.79-25.217-21.05-48.86-43.7-70.836-68.139-17.616-19.602-33.978-40.164-49.353-61.54-3.361-4.667-6.388-9.587-9.548-14.388-6.894-10.454-4.694-19.989 6.214-26.296 23.39-13.535 46.833-26.963 70.223-40.498 41.592-24.069 83.131-48.246 124.736-72.288 28.964-16.735 57.981-33.364 87.012-49.952 8.081-4.614 16.722-2.561 22.349 4.88 16.789 22.216 36.458 41.578 58.528 58.513 8.881 6.814 10.228 14.669 4.627 24.283-16.269 27.937-32.284 56.02-48.433 84.036-15.268 26.47-30.577 52.913-45.873 79.369-17.629 30.48-35.284 60.94-52.833 91.45-2.294 3.99-5.561 7.55-6.241 12.36z"/><path d="m675.996 1080c14.282-24.99 28.497-50.02 42.872-74.95 16.029-27.82 32.205-55.543 48.273-83.333 16.643-28.736 33.231-57.513 49.86-86.25 4.814-8.32 11.909-11.428 20.63-7.827 22.016 9.054 44.979 14.828 68.009 20.335 4.334 1.041 9.108.467 13.682 1.347 10.628 2.054 15.335 7.388 15.335 18.149v212.519h-258.661z"/><path d="m1920 64.3167c-9.96 6.4941-21.72 8.6276-32.47 13.2282-25.99 11.1479-50.71 24.1891-70.49 45.0321-16.4 17.268-27.63 37.764-36.9 59.419-4.6 10.748-8.53 21.79-12.64 32.751-1.08 2.893-2.37 5.32-5.83 5.414-3.88.12-5.43-2.787-6.45-5.734-4.08-11.802-8.48-23.47-13.44-34.951-14.65-33.897-35.22-62.593-67.45-82.2223-19.43-11.828-40.21-20.2556-61.44-27.9098-1.45-.52-2.97-.9067-4.38-1.5335-2.87-1.2801-5.93-2.5869-5.73-6.4673.18-3.4538 2.99-4.7606 5.69-5.8274 10.69-4.2271 21.49-8.2009 32.15-12.5214 22.92-9.321 44.14-21.4023 61.79-39.07096 1.08-1.08012 1.96-2.3736 2.92-3.573731h112c5.47 2.666961 9.28 7.427491 13.9 11.161191 20.4 16.4819 43.84 27.1497 67.98 36.6841 7.05 2.787 15.18 3.4537 20.78 9.4677v6.6675z"/><path d="m1298.66 1080c-4.86-12.93-12.85-24.17-19.62-36.07-17.43-30.57-35.18-60.965-52.8-91.435-15.29-26.443-30.59-52.886-45.88-79.329-12.3-21.269-24.63-42.524-36.85-63.847-3.61-6.307-1.88-14.961 3.48-19.282 10.39-8.361 18.14-9.347 25.68-3.16 1.55 1.253 2.87 2.774 4.28 4.187 74.6 74.568 149.05 149.297 223.93 223.596 14.93 14.82 11.51 24.14-3.07 35.78-12.23 9.77-24.32 19.7-36.48 29.56z"/><path d="m1130.67 1080c-3.59-13.81-7.01-27.72-10.74-41.44-3.56-13.11-7.26-26.27-10.98-39.395-7.15-25.269-13.83-50.672-20.62-76.048-6.51-24.309-12.96-48.619-19.34-72.968-2.81-10.788.23-17.069 9.34-21.256 12.57-5.787 19.18-2.467 24.43 6.281 12.88 21.429 25.28 43.125 37.82 64.754 27.73 47.858 55.47 95.704 83.12 143.612 6.94 12.05 13.54 24.3 20.29 36.45h-113.33z"/><path d="m985.329 1080c0-70.35.294-140.693-.213-211.047-.12-16.162 13.148-22.296 25.854-19.522 4.98 1.093 8.55 4.107 9.96 8.854 6.92 23.256 12.69 46.819 19.01 70.234 4.4 16.322 8.86 32.657 13.33 48.979 8.84 32.262 17.31 64.612 25.98 96.902.51 1.91 1.37 3.74 2.08 5.59h-96.001z"/><path d="m1480.01 72.3164c4.39.4267 6.96 3.6137 9.77 6.4273 62.84 62.8073 125.67 125.6273 188.49 188.4343 13.47 13.468 26.97 26.923 40.41 40.405 7.47 7.494 8.11 14.561 1.15 22.802-20.09 23.789-37.87 49.032-50.97 77.409-6.88 14.895-11.97 30.416-17.07 45.991-4.23 12.922-4.79 26.617-9.41 39.405-.91 2.52.49 5.8-.11 8.521-1.72 7.774-8.45 12.748-17.18 13.095-3.54.146-7.1.026-10.66.026-103.52 0-207.04 0-310.56 0-17.67 0-25.35-7.987-22.23-25.376 2.54-14.175 2.65-28.51 4.7-42.711 3-20.776 6.67-41.378 11.42-61.781 12.92-55.592 32.71-108.678 59.51-159.071 19.47-36.617 42.01-71.234 67.92-103.704 11.73-14.709 24.53-28.4569 36.59-42.8585 2.71-3.227 5.96-5.9207 10.21-7.0141 2.67-.4401 5.34.2933 8.01 0z"/><path d="m470.635 565.517h158.661c15.922 0 21.03 5.921 22.95 21.736 2.547 21.069 7.974 41.618 15.482 61.54 1.88 4.974 3.987 9.855 5.961 14.788 2.68 6.735-.134 15.162-6.828 19.043-28.724 16.695-57.541 33.243-86.318 49.858-27.63 15.949-55.234 31.911-82.864 47.846-27.031 15.602-54.074 31.177-81.104 46.778-10.935 6.308-22.07 12.308-32.725 19.069-10.068 6.387-21.496 2.134-26.11-7.361-18.536-38.191-33.564-77.635-44.966-118.48-6.921-24.789-12.401-49.952-16.362-75.341-2.854-18.256-4.774-36.724-6.067-55.233-.614-8.881-.48-16.282 7.534-21.416 4.014-2.573 8.708-2.84 13.415-2.84 53.114.027 106.214.027 159.328.027z"/><path d="m1449.44 565.519c52.85 0 105.71.213 158.56-.133 14.17-.094 24.56 7.227 21.99 24.869-2.6 17.802-3.76 35.924-6.12 53.833-1.44 10.908-3.62 21.749-6.19 32.443-2.11 8.721-10.84 13.402-19.79 11.055-19.44-5.094-38.78-10.548-58.21-15.695-17.28-4.574-34.8-8.348-51.9-13.535-26.29-7.988-53.04-14.335-79.46-21.869-16.19-4.614-32.69-8.668-49.13-12.682-25.84-6.32-51.4-13.774-77.02-21.002-10.07-2.84-15.22-9.921-14.02-18.095 1.96-13.495 7.72-19.096 20.07-19.162 18.43-.094 36.86-.027 55.29-.027h105.92z"/><path d="m1246.66 664.115c2.93-11.721 10.76-18.402 25.44-14.161 26.74 7.707 53.85 14.161 80.72 21.389 26.02 6.987 51.91 14.468 77.94 21.429 44.61 11.934 89.28 23.602 133.91 35.47 8.24 2.187 16.43 4.614 24.54 7.241 6.8 2.214 10.29 12.161 7.09 21.216-6.38 18.015-12.88 36.004-20.72 53.459-4.45 9.908-9.25 19.669-14.05 29.417-4.76 9.667-14.03 12.814-23.23 7.561-21.15-12.055-42.13-24.39-63.21-36.565-27.63-15.948-55.29-31.816-82.93-47.752-26.87-15.481-53.72-31.003-80.57-46.511-18.99-10.962-37.95-21.976-57-32.857-4.06-2.321-7.15-5.201-7.96-10.002.2-3.12-.2-6.227.01-9.347z"/><path d="m1222 722.762c7.26-.84 12.1 4.28 17.51 7.347 36.38 20.709 72.54 41.805 108.76 62.78 36.03 20.869 72.05 41.765 108.11 62.594 18.41 10.641 36.88 21.176 55.34 31.75 12.27 7.028 14.32 15.629 6.4 27.51-16.22 24.323-33.94 47.525-53.51 69.221-8.52 9.441-17.47 9.214-26.31.373-76.53-76.488-153.05-152.99-229.57-229.478-6.4-6.401-8.14-12.615-4.53-19.683 3.64-7.12 8.64-13.014 17.8-12.401z"/><path d="m1246.66 664.115c1.44 3.121 2.48 6.228-.02 9.348-2.05-3.12-2.05-6.227.02-9.348z"/><path d="m1480.01 72.3168c-2.67 2.5603-5.34 1.1735-8 0 2.66-2.0135 5.33-2.0135 8 0z"/></g></svg>