<svg fill="none" height="222" viewBox="0 0 222 222" width="222" xmlns="http://www.w3.org/2000/svg"><path d="m221.03 159.666c0 18.202 0 36.368-.036 54.57 0 1.514-.211 3.168-.845 4.541-.986 2.113-2.993 3.028-5.317 2.782-9.084-1.021-18.169-2.148-27.254-3.274-1.408-.177-2.852-.529-4.225-.845-3.345-.81-5.071-3.732-4.19-7.006 7.5-27.954 15-55.908 22.5-83.897 2.183-8.168 4.366-16.336 6.585-24.504.774-2.8869 3.028-4.5768 5.739-4.436 4.261.2465 6.409 1.866 6.902 5.246.141.986.141 2.007.141 2.992z" fill="#662d90"/><path d="m61.9074.744141h55.3526c5.071 0 8.064 4.083949 6.585 8.942429-.634 2.11243-2.183 3.30943-4.261 3.87273-26.4789 7.0765-52.923 14.1529-79.4023 21.2294-9.5071 2.5349-19.0143 5.105-28.5215 7.6046-4.1198 1.0914-7.00717-.6689-7.60577-4.8937-1.40847-9.6817-2.71131-19.3635-3.943724-29.04525-.528177-4.08394.845084-6.51319 3.873304-7.42855.88029-.281653 1.86622-.281659 2.78173-.281659h55.17686z" fill="#ec1b23"/><path d="m185.853 89.9572c3.627.3168 8.028 2.6757 6.444 8.5199-9.367 34.6079-18.627 69.2509-27.923 103.8589-.317 1.197-.599 2.429-.951 3.626-1.127 3.732-4.084 5.352-7.746 3.979-6.691-2.5-13.346-5.105-19.966-7.781-2.781-1.127-5.493-2.5-8.169-3.838-4.084-2.006-4.929-4.999-2.676-8.977 12.817-22.215 25.67-44.395 38.487-66.611 5.634-9.787 11.303-19.539 16.937-29.3266 1.197-2.0772 2.711-3.6263 5.528-3.4854z" fill="#0071bb"/><path d="m28.8436 98.2308c-2.324-.2464-4.0142-1.2322-5.0353-3.1686-4.8241-9.5409-8.9438-19.3635-12.2537-29.503-1.0916-3.3446.5986-6.2315 3.9437-7.1468 19.2608-5.1754 38.5217-10.3507 57.7826-15.4909 16.796-4.5064 33.5571-8.9776 50.3531-13.484 3.45-.9154 5.88.2816 7.253 3.5558 1.585 3.7319.916 6.302-2.359 8.2031-24.402 14.0826-48.8034 28.1651-73.17 42.2477-7.6761 4.436-15.3171 8.872-22.9933 13.2376-1.1267.6337-2.3592 1.021-3.5564 1.5491z" fill="#f6921e"/><path d="m74.8302 160.018c.8803-1.444 1.5493-3.063 2.7113-4.26 9.8241-9.964 19.7538-19.821 29.6485-29.714 16.232-16.231 32.465-32.4607 48.733-48.6908 3.416-3.415 8.38-2.6405 10.704 1.6547 1.057 2.0067.81 3.9431-.317 5.9146-6.936 12.0054-13.873 24.0105-20.774 36.0165-11.62 20.103-23.205 40.205-34.825 60.273-2.254 3.873-5.493 4.753-9.12 2.042-8.0633-6.055-16.0212-12.287-24.0143-18.448-1.4789-1.127-2.3592-2.57-2.2535-4.542-.1761-.105-.3169-.211-.493-.281z" fill="#39b44a"/><path d="m61.2384 146.604c-1.3028-.739-2.9226-1.197-3.8733-2.253-7.1128-7.886-13.5917-16.266-19.3665-25.173-1.7958-2.781-1.0563-5.809 1.9015-7.569 6.9015-4.084 13.8734-8.098 20.8101-12.1111 21.268-12.287 42.5708-24.6093 63.8738-36.8963 4.085-2.3589 8.134-4.7177 12.254-7.0061 3.31-1.8307 5.74-1.197 8.134 1.9716 2.078 2.7461 1.866 5.5274-.704 8.0622-26.022 26.0528-52.0784 52.0707-78.1351 78.0877-1.3029 1.303-2.6409 2.535-4.6832 2.394-.0704.141-.1409.317-.2465.458z" fill="#fbed20"/></svg>