<svg viewBox="0 0 382.33 383.67" xmlns="http://www.w3.org/2000/svg"><path d="m165.49 46.64 20.19-43.93c1.93-3 5.61-3.44 8.62-1.68l23.11 45.37c1.46.43 2.96.83 4.46 1.12 11.77 2.28 24.61 2.83 36.49 4.92 6.08 1.07 11.79 2.84 8 10.25l-32.88 34.01 7.81 48.52c-.53 5.98-4.22 8-9.74 5.7-10.16-4.23-21.78-12.26-31.9-17.47-2.64-1.36-5.32-2.79-8.11-3.82l-43 23.14-5.58-3.24-.33-6.71 6.99-45.32-33.36-33.56c-2.71-3.2-1.02-8.8 2.98-9.81l46.27-7.49zm26.43-25.33-1.75 1.03c-4.59 9.55-8.51 19.52-13.22 28.99-1.43 2.87-2.83 6.38-6.29 7.25-10.96 2.77-23.91 2.73-34.95 5.68-.98.26-1.35-.42-1.12 1.24l27.72 28.83-5.42 40.06 34.63-18.37 3.79 1.05 31.65 17.32-6.22-40.86 27.72-30.01-38.66-6.34-2.91-3.46-14.98-32.41z"/><path d="m93.8 188.37c-.92.92-4.86 2.32-6.22 1.42l-29.85-15.59-29.84 16.41c-6.59.53-7.62-3.88-7.12-9.57.79-9.02 3.73-18.94 4.66-28 .1-1.01.24-1.99-.08-2.99l-22.97-23.21c-3.18-4.19-3.35-7.6 1.39-10.58l32.88-5.34c1.26-.63 3.34-5.43 4.12-7.03 3.4-6.99 7.03-17.85 11.12-23.92 1.1-1.64 2.52-2.94 4.42-3.59 2.11-.5 4.11.7 5.39 2.3l15.56 31.42 32.84 5.39c2.67.39 4.91 3.91 4.47 6.4-.78 4.37-14.83 16.22-18.62 20.46-.87.97-5.69 6.48-5.82 6.92-.36 1.2-.19 2.56-.07 3.79.96 9.84 4.24 20.47 5.5 30.4.05 1.04-1.14 4.3-1.76 4.92zm-35.67-90.61c-.86-1.1-1.4.06-1.75 1.01-1.62 4.4-3.97 9.67-6.05 13.87-1.14 2.3-3.14 7.24-4.95 8.59l-25.46 4.4c-.33 1.36.52 1.59 1.19 2.39 4.13 4.96 12.28 10.68 15.55 15.51.72 1.05 1.06 2.21 1.44 3.41l-3.85 25.68c1.18.25 1.73-.45 2.63-.95 3.71-2.11 17.82-11.05 20.87-11.05 2.03 0 6.78 2.8 8.91 3.89 3.7 1.9 7.95 5 11.62 6.7 1.01.46 1.81.8 2.96.62-.89-7.11-3.28-14.92-3.92-21.96-.14-1.52-.25-3.07.09-4.57.89-3.95 18.11-17.93 18.15-19.26-.82-1.32-1.6-1.01-2.77-1.2-6.31-1.03-13.62-1.24-19.74-2.56-2.51-.54-3.81-1.44-5.23-3.53-3.9-5.74-6.78-14.59-9.69-20.98z"/><path d="m344.93 110.41 31.19 4.25c4.27.75 7.05 3.44 5.99 8.04-.74 3.21-15.26 15.93-18.58 19.64-.87.97-5.69 6.48-5.82 6.92-.36 1.2-.19 2.56-.07 3.79.96 9.84 4.24 20.47 5.5 30.4-.08 4.18-3.88 7.63-7.98 6.34l-29.85-15.59c-9.43 4.36-18.69 11.59-28.06 15.74-6.53 2.89-9.44-2.09-8.98-8.18.69-9.19 3.8-19.46 4.74-28.72.1-1.01.24-1.99-.08-2.99l-24.16-25.21c-1.5-5.76.4-8.05 5.76-9.38 7.13-1.77 16.2-2.16 23.64-3.44 1.6-.27 6.72-.94 7.47-1.7l13.83-30.36c3.3-4.87 7.6-4.91 10.9 0l14.55 30.44zm-19.22-12.65-1.75 1.03-10.37 21.89-3.6 1.58-22.5 3.38c-.33 1.36.52 1.59 1.19 2.39 4.13 4.95 12.28 10.68 15.55 15.51.71 1.05 1.06 2.21 1.44 3.41l-3.85 25.68c1.2.28 1.73-.49 2.63-.95 4.01-2.09 17.66-11.05 20.87-11.05 2.09 0 8.19 3.5 10.5 4.69 4.38 2.26 8.62 5.02 12.99 7.32.77-.92-3.6-20.25-3.92-23.55-.35-3.7.44-4.81 2.71-7.52 4.48-5.38 10.89-10.15 15.54-15.51-.82-1.32-1.6-1.01-2.77-1.2-6.31-1.03-13.62-1.24-19.74-2.56-2.51-.54-3.81-1.44-5.23-3.53-3.9-5.74-6.78-14.59-9.69-20.98z"/><path d="m188.55 216.64c28.25-2.19 51.6 24.95 46.19 52.56-6.49 33.12-46.42 47.71-72.3 25.7-30.49-25.94-13.86-75.15 26.11-78.25zm-3.2 12.72c-9.99 1.38-20.43 10.46-24.08 19.72-12.03 30.5 24.79 57.61 49.79 37.05 25.81-21.23 7.69-61.39-25.71-56.77z"/><path d="m266.78 380.46-11.93 3.2c-5.89-23.95-25.09-49.65-49.37-56.95-37.6-11.31-68.99 23.83-78.83 56.6l-11.96-2.84c4.11-12.55 9.36-24.29 17.19-34.97 7.92-10.81 20.17-21.73 32.43-27.3 38.41-17.42 75.36 5.46 93.88 39.42 1.49 2.72 10.21 21.55 8.6 22.83z"/><path d="m54.76 223.01c24.86-2.43 42.52 25.25 30.31 47.02-12.56 22.4-45.88 21.39-56.55-2.09-9.18-20.2 4.4-42.8 26.24-44.94zm-1.63 12.7c-4.85.83-9.98 4.89-12.37 9.13-9.58 16.97 7.92 35.51 25.37 26.96 19.23-9.42 10.35-40.09-13-36.09z"/><path d="m322.34 223.01c24.86-2.43 42.52 25.25 30.31 47.02-12.56 22.4-45.88 21.39-56.55-2.09-9.18-20.2 4.4-42.8 26.24-44.94zm-1.62 12.7c-4.85.83-9.98 4.89-12.37 9.13-9.58 16.97 7.92 35.51 25.37 26.96 19.23-9.42 10.35-40.09-13-36.09z"/><path d="m113.89 348.62-11.9 2.35c-4.61-18.95-20.51-43.77-41.82-45.39-24.22-1.84-42.69 24.19-47.45 45.4l-12.71-2.36c6.13-20.9 19.49-43.78 40.62-52.16 35.88-14.22 66.23 19.83 73.27 52.16z"/><path d="m381.47 348.62-12.74 2.39c-4.51-26.67-32.41-57.64-61.08-40.76-12.47 7.34-22.17 22.77-26.56 36.35-.48 1.47-.93 2.82-.78 4.41l-12.73-2.39c6.13-20.9 19.49-43.78 40.62-52.16 36.26-14.37 65.66 19.9 73.27 52.16z"/></svg>