<svg fill="none" height="221" viewBox="0 0 221 221" width="221" xmlns="http://www.w3.org/2000/svg"><g fill="#578bc7"><path d="m6.36771 0c3.66199.38727 7.35929.739334 11.02129 1.1266 26.761 2.99255 52.2191 10.4563 76.304 22.4265 3.4508 1.7251 4.331 4.8937 2.324 8.3791-7.2537 12.6039-14.5425 25.2078-21.7961 37.8117-11.1622 19.3283-22.3243 38.6561-33.5217 57.9851-.6338 1.056-1.3732 2.147-2.3239 2.922-1.8663 1.514-3.9438 1.162-6.0213.282-7.2536-3.028-14.7889-5.211-22.53552-6.549-1.7958-.317-3.5916-.493-5.3874-.845-2.64089-.528-4.260631-2.499-4.4014779-5.14 0-.563 0-1.126 0-1.69 0-36.5088 0-73.0179 0-109.5269 0-4.40079.8098619-5.59781 4.8592179-7.1821h1.51411z"/><path d="m53.5515 139.629c.3873-1.057.6338-2.148 1.1972-3.099 14.1199-24.503 28.2751-49.0068 42.4302-73.5105 4.4371-7.675 8.8381-15.3148 13.2751-22.9898 2.077-3.5558 5.176-4.3656 8.556-2.0771 21.972 14.6458 40.881 32.5659 56.691 53.7249 2.395 3.2038 4.683 6.5132 6.972 9.8225 2.5 3.662 1.796 6.795-2.007 8.978-31.726 18.307-63.452 36.65-95.2126 54.957-.4225.246-.8803.493-1.3028.739-3.0987 1.655-5.6691 1.127-7.7819-1.654-5.7747-7.57-12.4649-14.259-20.0355-20.033-1.5845-1.197-2.6056-2.711-2.7465-4.858z"/><path d="m158.905 220.709c-18.275 0-36.514 0-54.789 0-5.0004 0-6.5145-1.268-7.1835-6.161-1.2324-8.943-3.5564-17.568-7.0072-25.912-1.6197-3.908-.8802-6.232 2.7818-8.344 23.1339-13.379 46.2679-26.722 69.4029-40.1 8.732-5.035 17.5-10.104 26.232-15.139 4.12-2.394 7.113-1.479 9.226 2.781 10.246 20.807 17.218 42.635 20.704 65.555 1.057 6.865 1.691 13.801 2.289 20.736.387 4.507-1.76 6.584-6.338 6.584-18.451 0-36.902 0-55.353 0z"/></g></svg>