<svg fill="none" height="484" viewBox="0 0 1920 484" width="1920" xmlns="http://www.w3.org/2000/svg" xmlns:xlink="http://www.w3.org/1999/xlink"><clipPath id="a"><path d="m600 215h720v35h-720z"/></clipPath><clipPath id="b"><path d="m227 58h220v251h-220z"/></clipPath><mask id="c" height="484" maskUnits="userSpaceOnUse" width="1920" x="0" y="0"><path d="m0 0h1920v484h-1920z" fill="#d9d9d9"/></mask><g mask="url(#c)"><path d="m1924.58 130.256c2.99-5.696 4.69-12.186 4.69-19.061 0-22.7566-18.48-41.195-41.3-41.195-10.24 0-19.58 3.7221-26.79 9.8683-9.45-6.2257-20.75-9.8683-32.91-9.8683-20.94 0-39.34 10.7558-50.01 27.0218-5.75-3.0333-12.31-4.7553-19.27-4.7553-21.85 0-39.74 16.9545-41.19 38.4005-18.24 4.265-31.83 20.597-31.83 40.095h272.38c0-20.187-14.55-36.969-33.77-40.493z" fill="#39b44a"/><path d="m1837.65 137.594c-3.6 0-7.04.583-10.28 1.643-2.13-16.267-16.04-28.85-32.93-28.85s-30.13 11.974-32.76 27.684c-1.74-.278-3.52-.464-5.34-.464-18.37 0-33.25 14.849-33.25 33.168h147.81c0-18.319-14.89-33.168-33.25-33.168z" fill="#61c36e"/><path d="m1471.81 205.97c-1.48-3.908-2.34-8.107-2.45-12.518-.53-21.088 16.18-38.625 37.33-39.155 10.53-.265 20.17 3.735 27.26 10.425 1.85-18.942 17.6-33.963 37.14-34.467 21.14-.529 38.72 16.134 39.26 37.235.02.887 0 1.748-.04 2.623 6.32-5.087 14.3-8.213 23.03-8.438 21.14-.53 38.73 16.134 39.26 37.234.01.729 0 1.458 0 2.173 3.95-1.51 8.22-2.384 12.69-2.504 21.14-.53 38.72 16.134 39.25 37.235l-277.87 6.994c-.43-16.823 10.12-31.367 25.12-36.837z" fill="#2b8738"/><path d="m1743.92 199.135c1.27-3.974 1.92-8.213 1.82-12.624-.53-21.087-18.1-37.764-39.25-37.234-10.54.265-19.96 4.742-26.71 11.776-2.79-18.823-19.28-33.049-38.84-32.546-21.14.53-37.86 18.054-37.33 39.155.03.888.08 1.749.16 2.623-6.57-4.755-14.7-7.484-23.43-7.272-21.14.53-37.86 18.067-37.33 39.155.01.729.06 1.457.12 2.172-4.03-1.298-8.33-1.973-12.8-1.854-21.14.53-37.86 18.054-37.33 39.155l277.86-6.98c-.42-16.823-11.68-30.811-26.95-35.526z" fill="#39b44a"/><path d="m1494.35 218.739c-.92-2.464-1.47-5.126-1.54-7.908-.33-13.326 10.23-24.399 23.59-24.73 6.65-.173 12.75 2.357 17.22 6.583 1.17-11.961 11.11-21.459 23.46-21.763 13.36-.331 24.46 10.199 24.8 23.525.01.556 0 1.112-.03 1.655 4-3.205 9.03-5.192 14.55-5.325 13.36-.331 24.46 10.2 24.79 23.525v1.378c2.5-.954 5.2-1.51 8.03-1.576 13.35-.332 24.46 10.199 24.79 23.525l-175.54 4.41c-.26-10.623 6.39-19.816 15.88-23.273z" fill="#61c36e"/><path d="m1658.39 200.883c-1.39-3.934-2.18-8.146-2.19-12.557-.11-21.101 16.94-38.295 38.1-38.4 10.53-.053 20.09 4.132 27.05 10.967 2.21-18.902 18.27-33.605 37.83-33.711 21.15-.106 38.39 16.902 38.49 38.003 0 .887-.02 1.748-.08 2.623 6.43-4.954 14.46-7.921 23.21-7.974 21.16-.106 38.39 16.901 38.5 38.002 0 .729-.01 1.457-.05 2.173 3.98-1.431 8.27-2.226 12.73-2.239 21.16-.106 38.39 16.902 38.5 38.003l-277.94 1.444c-.1-16.823 10.74-31.155 25.86-36.334z" fill="#2b8738"/><path d="m1931.57 199.479c1.35-3.947 2.08-8.173 2.07-12.584-.11-21.1-17.34-38.108-38.5-38.002-10.53.053-20.05 4.344-26.93 11.245-2.41-18.875-18.61-33.419-38.17-33.313-21.16.106-38.21 17.299-38.1 38.4 0 .887.05 1.748.12 2.623-6.47-4.888-14.54-7.776-23.29-7.736-21.15.106-38.21 17.299-38.1 38.4 0 .729.03 1.457.08 2.172-4-1.39-8.29-2.132-12.76-2.106-21.15.106-38.2 17.3-38.1 38.401l277.94-1.444c-.09-16.823-11.07-31.049-26.24-36.056z" fill="#39b44a"/><path d="m1680.67 214.103c-.87-2.477-1.37-5.153-1.39-7.934-.07-13.326 10.7-24.188 24.07-24.254 6.66-.04 12.7 2.61 17.09 6.928 1.41-11.935 11.54-21.233 23.9-21.3 13.36-.066 24.25 10.677 24.32 24.015 0 .557-.03 1.113-.05 1.656 4.06-3.126 9.13-5.007 14.65-5.033 13.36-.067 24.25 10.676 24.32 24.015 0 .463 0 .914-.04 1.377 2.51-.901 5.22-1.404 8.05-1.417 13.35-.066 24.24 10.676 24.31 24.015l-175.59.914c-.05-10.624 6.79-19.684 16.34-22.956z" fill="#61c36e"/><path clip-rule="evenodd" d="m636.653 194.282c-386.612 3.299-664.1527 12.075-668.653 22.414h3.5508v269.304h2012.4492v-269.304-1.576h-2.82c-31.31-9.936-315.27-18.188-698.93-21.105v3.745h-645.597z" fill="#578bc7" fill-rule="evenodd"/><path d="m-22 469 655-275v4.461l-655 286.039z" fill="#2b5b92"/><path d="m1903 469-620-275v2.978l620 288.522z" fill="#2b5b92"/><path d="m635.211 199.538 645.859-.538 622.93 287h-1929z" fill="#d6dbe6"/></g><g clip-path="url(#a)" fill="#fff"><path d="m804.259 215-17.073 35h49.59l12.031-35z"/><path d="m641.422 215-41.422 35h38.408l32.224-35z"/><path d="m715.179 215-27.181 35h49.598l22.123-35z"/><path d="m893.347 215-6.981 35h49.598l1.924-35z"/><path d="m1320 250-41.42-35h-28.89l33.41 35z"/><path d="m1205.14 215h-44.54l23.32 35h49.59z"/><path d="m982.436 215 3.118 35h49.586l-8.16-35z"/><path d="m1071.52 215 13.21 35h49.59l-18.26-35z"/></g><g clip-path="url(#b)"><path d="m280.755 308.907-6.525-3.514v-243.6586l10.257 1.9484z" fill="#434343"/><path d="m284.487 69.3312-10.257-1.8324v-8.5476l10.257 1.9948z" fill="#333"/><path d="m285.027 68.9135-11.357-2.0412v-8.8723l11.357 2.2268z" fill="#323232"/><path d="m416.221 273.869-3.372-1.681v-184.1968l5.803 1.1018z" fill="#434343"/><path d="m418.652 93.3617-5.803-1.0438v-6.4136l5.803 1.125z" fill="#333"/><path d="m418.962 93.0249-6.434-1.1597v-6.6572l6.434 1.2642z" fill="#323232"/><path d="m290.061 305.521-10.077 3.479v-246.4072l10.077 1.9136z" fill="#767676"/><path d="m290.061 70.1086-10.077-1.8093v-8.478l10.077 1.96z" fill="#333"/><path d="m290.591 69.691-11.157-2.0064v-8.8028l11.157 2.192z" fill="#606060"/><path d="m421.915 271.853-5.744 2.018v-185.4608l5.744 1.0902z" fill="#767676"/><path d="m421.915 93.745-5.744-1.0322v-6.3788l5.744 1.1134z" fill="#333"/><path d="m422.215 93.4084-6.364-1.1366v-6.6224l6.364 1.241z" fill="#606060"/><path d="m439.425 194.819-200.597 14.034c-6.475.452-11.828-4.964-11.828-12.097v-115.9202c0-7.1442 5.353-12.0501 11.828-10.9947l200.597 32.6939c2.802.453 5.043 4.547 5.043 9.128v74.493c0 4.592-2.241 8.466-5.043 8.663z" fill="#2b8738"/><path d="m442.097 190.053-193.913 11.366c-6.224.36-11.368-4.778-11.368-11.493v-109.0084c0-6.7151 5.144-11.3078 11.368-10.2756l193.913 32.091c2.722.452 4.903 4.338 4.903 8.675v70.492c0 4.337-2.181 7.991-4.903 8.153z" fill="#39b44a"/><g fill="#fff"><path d="m442.177 186.458-194.174 9.591c-3.502.174-6.384-2.748-6.384-6.506v-107.7205c0-3.7577 2.882-6.3788 6.384-5.8221l194.174 30.3396c1.541.244 2.792 2.447 2.792 4.906v70.608c0 2.47-1.251 4.534-2.792 4.616zm-194.174-108.1381c-2.291-.3479-4.162 1.3686-4.162 3.8157v107.3264c0 2.459 1.871 4.372 4.162 4.268l194.174-8.826c1.01-.047 1.831-1.403 1.831-3.016v-70.781c0-1.624-.821-3.062-1.831-3.213z"/><path d="m321.029 98.1512c.521.2667.691.7306.681 1.3801-.02 2.0297 0 4.0707 0 6.1007 0 1.055-.19 1.264-1.051 1.252-3.272-.034-6.434.603-9.456 2.053-6.054 2.911-10.597 7.968-13.509 15.158-1.21 3.004-1.971 6.205-2.311 9.58-.05.499-.09 1.009-.13 1.508-.06.719-.36 1.055-.981 1.021-1.991-.105-4.002-.221-6.034-.348-.67-.035-1.05-.522-1-1.288.35-5.775 1.601-11.192 3.822-16.202 1.981-4.465 4.583-8.304 7.785-11.482 4.303-4.279 9.216-7.0048 14.7-8.1877 2.311-.4987 4.642-.6843 7.004-.5567.07 0 .14-.0116.21-.0232.09.0116.18.0232.28.0348z"/><path d="m303.218 136.726c-.96-.058-1.921-.105-2.881-.163-.721-.046-1.071-.51-1.001-1.345.57-6.39 2.682-11.83 6.344-16.237 3.022-3.642 6.644-5.961 10.827-7.005 1.411-.348 2.842-.51 4.293-.522.54 0 .91.464.91 1.183v5.695.974c0 .672-.25.997-.79 1.032-1.641.104-3.232.51-4.733 1.276-4.243 2.157-7.125 5.949-8.526 11.377-.25.951-.37 1.96-.53 2.946-.11.661-.38.974-.961.951-.98-.046-1.961-.116-2.942-.162z"/><path d="m325.032 98.696c.531.1392 1.061.2668 1.581.4176 3.813 1.0434 7.385 2.8184 10.717 5.3354.471.359.601.916.32 1.496-1 2.076-2.001 4.14-3.011 6.228-1.561 3.212-3.122 6.448-4.703 9.695-.091.174-.191.36-.331.488-.26.243-.56.162-.86-.024-1.031-.626-2.112-1.113-3.232-1.449-.26-.082-.521-.139-.781-.221-.38-.127-.61-.498-.64-.974 0-.104 0-.197 0-.301 0-6.507 0-13.025 0-19.5312 0-.777.12-.9742.7-1.1829.07 0 .15.0231.22.0347z"/><path d="m331.757 124.13c.05-.174.09-.372.17-.534 1.981-4.117 3.943-8.188 5.894-12.236.61-1.264 1.211-2.516 1.811-3.769.28-.58.701-.661 1.161-.22 2.962 2.876 5.483 6.216 7.565 10.043.32.58.61 1.172.91 1.763.33.65.23 1.172-.26 1.496-4.193 2.726-8.465 5.509-12.808 8.328-.06.034-.12.081-.18.116-.43.255-.781.139-1.081-.371-.8-1.392-1.741-2.633-2.802-3.735-.22-.232-.37-.499-.39-.881z"/><path d="m346.146 139.195c-2.431-.139-4.893-.278-7.375-.429-.69-.035-.89-.278-.98-1.125-.17-1.566-.491-3.073-.961-4.558-.22-.696-.12-1.09.38-1.426 3.162-2.088 6.284-4.129 9.366-6.159 1.151-.754 2.302-1.519 3.453-2.273.54-.348.93-.162 1.2.58 1.331 3.618 2.232 7.365 2.672 11.25.13 1.16.22 2.331.29 3.502.05.766-.23 1.091-.81 1.056-2.382-.139-4.793-.279-7.235-.418z"/><path d="m324.112 169.223c0-3.283 0-6.553 0-9.835 0-.801.21-1.102.86-1.207 3.092-.487 5.774-1.971 8.065-4.453.401-.429.801-.406 1.181.081 1.781 2.285 3.553 4.558 5.314 6.808 1.551 1.983 3.092 3.955 4.613 5.915.25.325.5.638.74.963.4.533.4 1.043-.02 1.554-2.211 2.69-4.703 4.94-7.495 6.738-3.062 1.983-6.324 3.329-9.806 4.013-.831.162-1.661.267-2.502.371-.65.081-.97-.302-.97-1.102 0-3.294 0-6.576 0-9.87z"/><path d="m352.79 151.919c-.1.093-.19.209-.3.267-.721.371-1.451.696-2.162 1.102-1.871 1.067-3.082 2.98-3.852 5.416-.19.614-.36 1.241-.56 1.844-.05.139-.191.313-.281.313-.1 0-.23-.186-.28-.336-.36-1.056-.66-2.146-1.05-3.178-.851-2.239-2.282-3.723-4.053-4.721-.53-.301-1.061-.556-1.601-.846-.16-.081-.35-.139-.35-.418 0-.255.18-.301.33-.371.831-.406 1.671-.777 2.472-1.252 1.731-1.021 2.851-2.772 3.592-4.953.23-.684.43-1.38.64-2.064.06-.197.11-.406.3-.394.201 0 .241.232.301.429.34 1.264.72 2.493 1.24 3.665.881 2.006 2.222 3.317 3.793 4.233.5.29 1.02.545 1.521.823.11.058.2.197.3.302z"/><path d="m321.74 169.211v9.777c0 .278-.03.568-.12.812-.14.383-.44.557-.781.522-1.341-.151-2.681-.313-4.032-.487-.21-.024-.421-.082-.631-.14-.5-.139-.76-.661-.63-1.252 1.121-5.08 2.241-10.148 3.352-15.182.32-1.473.65-2.934.971-4.395.12-.522.45-.812.85-.777.631.058.941.348 1.011.962.02.174.02.36.02.534v9.638z"/><path d="m297.345 139.474c2.951.151 5.863.301 8.745.452.781.047 1.251.824 1.021 1.705-.1.383-.34.592-.661.684-4.142 1.125-8.345 2.262-12.618 3.41-1.551.418-3.112.847-4.683 1.264-.68.186-1.16-.174-1.26-.986-.241-1.855-.451-3.722-.661-5.578-.09-.789.14-1.241.641-1.392.15-.046.31-.035.46-.035 3.042.151 6.044.313 9.016.464z"/><path d="m316.536 156.615c.541.07 1.201.51.961 1.566-1.391 6.239-2.782 12.525-4.183 18.835-.05.22-.09.44-.14.661-.17.684-.62.986-1.171.754-1.02-.43-2.031-.893-3.052-1.369-.43-.197-.84-.441-1.26-.684-.631-.36-.761-.916-.411-1.647 1.982-4.106 3.943-8.177 5.884-12.224.851-1.775 1.701-3.538 2.552-5.289.18-.371.41-.649.83-.614z"/><path d="m291.981 157.671c-.38-.058-.66-.244-.82-.615-.801-1.821-1.471-3.711-2.022-5.659-.18-.638.1-1.183.651-1.334 3.162-.882 6.294-1.751 9.386-2.598 2.661-.742 5.303-1.473 7.915-2.192.53-.151.91.093 1.12.707.251.696.141 1.172-.36 1.496-3.792 2.471-7.645 4.976-11.547 7.516-1.241.8-2.482 1.612-3.732 2.424-.181.116-.391.185-.581.278z"/><path d="m299.416 169.361c.14-.266.25-.579.43-.8 1.561-1.855 3.122-3.688 4.673-5.509 2.532-2.969 5.033-5.915 7.515-8.826.52-.614 1.271-.452 1.621.348.16.371.12.719-.05 1.067-1.051 2.169-2.101 4.338-3.162 6.53-1.781 3.676-3.572 7.376-5.373 11.099-.351.719-.861.893-1.421.394-1.271-1.113-2.522-2.261-3.793-3.398-.23-.209-.38-.487-.36-.847-.03-.023-.05-.034-.08-.058z"/><path d="m297.234 166.844c-.21-.139-.47-.22-.62-.429-1.151-1.484-2.202-3.073-3.142-4.766-.291-.534-.17-1.102.31-1.427 1.121-.754 2.251-1.496 3.372-2.227 3.402-2.238 6.754-4.442 10.076-6.622.631-.418 1.261-.835 1.892-1.229.51-.325.88-.198 1.25.405.321.511.281 1.021-.11 1.473-4.012 4.686-8.085 9.453-12.227 14.289-.211.243-.431.475-.751.452-.01.023-.03.058-.04.081z"/><path d="m367.269 138.952c-.661-.035-1.291-.151-1.881-.325v-3.12c.2.058.4.116.63.174s.46.105.721.128c.6.035 1.02-.128 1.28-.51.261-.383.381-1.056.381-2.007v-13.65l3.582.371v13.21c0 1.983-.39 3.456-1.171 4.43-.78.974-1.961 1.415-3.542 1.311z"/><path d="m382.338 138.453-7.555-.487v-17.675l7.555.777v3.769l-4.083-.382v2.76l3.783.336v3.77l-3.783-.302v3.317l4.083.302v3.827z"/><path d="m394.796 130.44c0 2.818-.54 4.952-1.641 6.402-1.101 1.461-2.652 2.122-4.663 1.994l-3.972-.255v-17.304l4.242.441c1.941.197 3.432 1.055 4.473 2.552 1.041 1.496 1.551 3.549 1.551 6.158zm-3.342-.116c0-1.566-.22-2.737-.65-3.526-.441-.8-1.101-1.241-2.002-1.322l-.96-.093v9.615l.73.058c1.001.069 1.721-.279 2.181-1.056.461-.777.691-1.995.691-3.665z"/><path d="m396.897 139.381v-16.817l3.162.325v16.701l-3.162-.197z"/><path d="m369.291 163.168-3.553-.035v-18.023l7.815.371v3.839l-4.262-.162v3.41l3.932.127v3.851l-3.932-.093z"/><path d="m383.209 163.284-7.524-.069v-17.641l7.524.36v3.757l-4.072-.162v2.749l3.772.127v3.77l-3.772-.093v3.305l4.072.07v3.815z"/><path d="m390.694 163.354-2.481-12.375h-.07c.12 2.111.17 3.746.17 4.906v7.445l-2.932-.023v-17.269l4.393.209 2.511 12.189h.07l2.432-11.946 4.223.198v16.735l-2.902-.023v-7.388c0-.383 0-.812.01-1.276 0-.463.04-1.612.11-3.444h-.07l-2.382 12.085z"/><path d="m408.856 158.54c0 1.009-.17 1.914-.52 2.691-.351.789-.851 1.392-1.521 1.821-.661.429-1.441.649-2.342.638-.75 0-1.391-.093-1.901-.244s-1.051-.441-1.611-.823v-4.013c.59.452 1.201.812 1.841 1.067.631.255 1.211.394 1.741.394.45 0 .781-.104.991-.325.21-.22.32-.521.32-.881 0-.22-.04-.429-.13-.592-.08-.173-.22-.347-.41-.521s-.691-.546-1.501-1.102c-.741-.511-1.301-.998-1.671-1.473-.371-.476-.651-1.009-.831-1.612s-.27-1.322-.27-2.134c0-1.531.38-2.714 1.151-3.538.77-.823 1.811-1.194 3.132-1.136 1.16.058 2.341.51 3.542 1.345l-.921 3.375c-1.04-.742-1.951-1.136-2.711-1.16-.401-.011-.681.07-.861.267s-.27.441-.27.742c0 .325.11.615.34.882s.851.754 1.861 1.461c.961.673 1.631 1.369 2.002 2.111.37.742.56 1.658.56 2.76z"/><path d="m417.201 163.586-.521-3.016-3.492-.058-.55 3.027-3.252-.023 3.572-16.237 3.882.186 3.493 16.144-3.122-.023zm-1.121-6.588-.46-2.656c-.11-.591-.24-1.357-.391-2.296-.15-.939-.26-1.612-.31-2.018-.04.371-.13.986-.26 1.844s-.42 2.54-.87 5.068z"/></g></g></svg>