<svg fill="none" height="914" viewBox="0 0 546 914" width="546" xmlns="http://www.w3.org/2000/svg" xmlns:xlink="http://www.w3.org/1999/xlink"><mask id="a" height="914" maskUnits="userSpaceOnUse" width="546" x="0" y="0"><path d="m0 0h546v914h-546z" fill="#d9d9d9"/></mask><g mask="url(#a)"><path d="m240 203h22v-42.827h-22z" fill="#767676"/><path d="m319 203h23v-42.827h-23z" fill="#767676"/><rect fill="#39b44a" height="179" rx="21.7998" width="506" x="38"/><rect fill="#39b44a" height="146.45" rx="10.8999" stroke="#fff" stroke-width="5.44994" width="475.45" x="53.275" y="15.275"/><path d="m319.184 127.192-15.411 2.199.278-15.995-18.986-.33-.279 16.041-15.868-2.797c-3.725-.656-5.813 4.139-2.796 6.419l27.652 20.894 28.007-19.933c3.075-2.188 1.139-7.031-2.597-6.498z" fill="#fff"/><rect fill="#168125" height="713" rx="43.1195" width="503" x="41" y="201"/><rect fill="#168125" height="665.101" rx="19.1698" stroke="#fff" stroke-width="6" width="455.101" x="64.9497" y="224.949"/><g fill="#767676"><path d="m.00000032 769-.00000032 22h43v-22z"/><path d="m.00000033 345-.00000033 23h43v-23z"/></g></g></svg>