<svg fill="none" height="17" viewBox="0 0 17 17" width="17" xmlns="http://www.w3.org/2000/svg" xmlns:xlink="http://www.w3.org/1999/xlink"><clipPath id="a"><path d="m.0625.5h16v16h-16z"/></clipPath><g clip-path="url(#a)" fill="#d4edfc"><path d="m2.13914.5c-1.147097 0-2.07664.933-2.07664 2.08437 0 1.15136.929543 2.08436 2.07664 2.08436 1.14709 0 2.07664-.933 2.07664-2.08436 0-1.15137-.92955-2.08437-2.07664-2.08437z"/><path d="m2.13914 12.3114c-1.147097 0-2.07664.933-2.07664 2.0844 0 1.1513.929543 2.0843 2.07664 2.0843 1.14709 0 2.07664-.933 2.07664-2.0843 0-1.1514-.92955-2.0844-2.07664-2.0844z"/><path d="m13.9858.5c-1.1471 0-2.0766.933-2.0766 2.08437 0 1.15136.9295 2.08436 2.0766 2.08436s2.0767-.933 2.0767-2.08436c0-1.15137-.9296-2.08437-2.0767-2.08437z"/><path d="m13.9858 12.3114c-1.1471 0-2.0766.933-2.0766 2.0844 0 1.1513.9295 2.0843 2.0766 2.0843s2.0767-.933 2.0767-2.0843c0-1.1514-.9296-2.0844-2.0767-2.0844z"/></g></svg>