<svg viewBox="0 0 48.54 78.57" xmlns="http://www.w3.org/2000/svg"><path d="m18.68 2.68c.21-1.67 1.73-2.86 3.41-2.65l10.42 1.29c1.67.21 2.86 1.73 2.65 3.41l-8.37 67.48c-.21 1.67-1.73 2.86-3.4 2.65l-10.42-1.29c-1.67-.21-2.86-1.73-2.65-3.4z" fill="#c5d3cf"/><path d="m22.2 74.71 1.18.15c1.67.21 3.2-.98 3.4-2.65l8.38-67.49c.21-1.67-.98-3.2-2.65-3.41l-1.18-.15-9.12 73.54z" fill="#ed193e"/><path d="m14.74 62.7-.48.12s0 0 0 0 .2.36.26.37c.04.01 1.47.18 2.13.26 0 .01.01.03.01.04.1.27.21.55.33.85.01.03.02.05.03.08.06.15.12.3.18.45 0 .02.02.05.03.07.06.15.12.29.18.44 0 .01 0 .02.01.03.23.57.47 1.15.7 1.7l-.67.14s0 0 0 0 0-.01 0-.02c0 0 0 0 0-.01s-.03-.04-.04-.06c0 0 0 0-.01 0s-.03 0-.04.02 0 0 0 0c0 .01 0 .03.01.05s0 .01 0 .02v.01l-.64.14s0-.01-.01-.02c0 0 0 0 0-.01s-.03-.04-.04-.06c0 0 0 0-.01 0s-.03 0-.04.02 0 0 0 0c0 .02 0 .03.01.05v.01.01l-.5.11-.14.03s0 0 0-.01c0 0 0 0 0-.01s-.03-.04-.04-.05c0 0 0 0-.01 0s-.03 0-.04.02 0 0-.01 0c0 .02 0 .03.01.05s0 .01 0 .02l-.64.14s0 0 0 0 0 0 0-.01c0 0 0 0 0-.01s-.03-.04-.04-.06h-.01s-.03.01-.04.02 0 0 0 0c0 .01 0 .03.01.05t0 0s0 .02 0 .03l-.66.14s0 .13.07.17h.02.01.03.01c.01 0 .03 0 .05.01h.01c.05 0 .11.02.19.04h.02c.03 0 .07.01.11.02h.04c.53.1 1.39.27 2.2.42.03.07.07.15.11.22s0 0 0 0c.03.06.07.12.12.17s0 0 0 0h.02.02s.02 0 .03 0c.07-.02.17-.05.26-.1.01 0 .03-.02.04-.03h.01s0 0 0 0h.01c.03-.02.05-.04.08-.07 0 0 0-.01 0-.03.2.04.39.07.55.1.02 0 .04 0 .06.01.11.02.21.04.3.06.05.12.1.24.15.35.11.25.2.47.28.64 0 .02.01.03.02.05.01.03.02.05.03.08 0 .02.01.03.02.05 0 .02.02.04.03.06 0 .01.01.03.02.04.01.03.02.05.04.07.39.84.96 1.41 1.27 1.27s.24-.94-.16-1.79c0-.02-.02-.05-.03-.07 0-.01-.01-.03-.02-.05 0-.01-.01-.03-.02-.04-.01-.02-.02-.04-.03-.07 0-.01-.01-.03-.02-.04-.04-.08-.08-.17-.13-.27-.02-.04-.04-.08-.06-.12 0 0 0-.02-.01-.02-.04-.09-.09-.18-.14-.28-.06-.11-.11-.22-.17-.34.04-.08.09-.16.15-.26.09-.16.2-.35.31-.55 0 .02.02.03.02.03.04 0 .07 0 .1-.01h.01s.01 0 .02 0c.02 0 .04 0 .05-.01.1-.04.18-.09.24-.13.01 0 .02-.02.04-.03s0-.01.01-.01c0 0 .01 0 .01-.01-.01-.07-.04-.14-.06-.21-.03-.09-.07-.17-.1-.23.2-.36.41-.74.61-1.08 0-.02.02-.03.03-.05.03-.05.05-.09.08-.14.02-.04.04-.08.06-.11.01-.02.02-.03.03-.05.02-.04.04-.07.06-.11 0-.01.01-.03.02-.04.02-.05.05-.09.07-.13.04-.08.09-.16.13-.23 0-.01.01-.02.02-.03.02-.04.04-.07.06-.1.04-.07.07-.13.09-.17 0-.02.02-.04.03-.05 0 0 0 0 0-.01s.01-.02.01-.03 0-.01 0-.02c0-.06-.05-.13-.07-.15 0 0-.02-.01-.02-.01l-.53.41s0 0 0 0 0-.02-.01-.02c-.01-.01-.02-.03-.03-.04h-.01s-.03.01-.04.02 0 0 0 0c0 .02 0 .04.02.07t0 0s0 0 0 0v.02l-.52.4s0-.01-.01-.02-.02-.03-.03-.04h-.01s-.03 0-.04.02 0 0 0 0c0 .02 0 .04.02.07v.02l-.35.27-.17.13s-.01-.01-.01-.02c-.01-.02-.02-.03-.03-.04h-.01s-.03 0-.04.02 0 0 0 0c0 .02 0 .04.01.07s0 0 0 0v.02l-.52.4s0 0 0 0-.01-.02-.01-.02c-.01-.01-.02-.03-.03-.04h-.01s-.03 0-.04.02 0 0 0 0c0 .02 0 .04.01.07s0 0 0 0v.03l-.53.41c-.29-.55-.58-1.12-.88-1.67s-.02-.04-.03-.06c-.07-.13-.13-.25-.2-.37-.01-.02-.02-.04-.04-.07-.07-.13-.14-.26-.21-.39-.02-.04-.04-.08-.07-.12-.07-.13-.14-.25-.21-.37 0-.01-.02-.03-.02-.04-.07-.12-.13-.24-.2-.35 0-.01-.01-.02-.02-.03.03-.05.07-.11.11-.17 0 0 .01-.02.02-.03.22-.34.52-.8.74-1.14 0-.01.02-.03.03-.04l.06-.09c0-.01.02-.03.02-.04.04-.06.08-.12.1-.16 0 0 0 0 0-.01.01-.02.03-.04.04-.06t0 0s.02-.03.03-.04.01-.02.01-.02c.02-.03-.04-.22-.08-.34-.02-.06-.04-.1-.04-.1l-.4.29s0 0 0 0l-1.24.91h-.01s-.02-.02-.03-.03c-.01-.02-.03-.04-.04-.06-.03-.04-.06-.09-.08-.12-.04.01-.08.02-.12.04s-.08.04-.11.07c0 .03.01.06.02.09 0 .02 0 .03.01.05 0 .01 0 .03.01.04t0 0s.01.04.02.06l-1.51.38z" fill="#fff"/><path d="m19.89 67.09h11.28v.77h-11.28z" fill="#fff" transform="matrix(.12256224 -.99246083 .99246083 .12256224 -44.57 84.54)"/><path d="m22.57 67h3.62v.77h-3.62z" fill="#fff" transform="matrix(.12429422 -.99224541 .99224541 .12429422 -45.51 83.2)"/><path d="m23.05 63.12h3.62v.77h-3.62z" fill="#fff" transform="matrix(.12290867 -.99241799 .99241799 .12290867 -41.23 80.37)"/><path d="m22.1 70.77h3.62v.77h-3.62z" fill="#fff" transform="matrix(.12325508 -.99237502 .99237502 .12325508 -49.65 86.11)"/><path d="m33.11 3.2.38.05-1.38 11.19-.39-.05z" fill="#fff"/><path d="m30.22 8.61h3.62v.38h-3.62z" fill="#fff" transform="matrix(.12360148 -.99233194 .99233194 .12360148 19.34 39.49)"/><path d="m30.7 4.73h3.62v.38h-3.62z" fill="#fff" transform="matrix(.12360148 -.99233194 .99233194 .12360148 23.6 36.58)"/><path d="m29.75 12.38h3.62v.38h-3.62z" fill="#fff" transform="matrix(.12308188 -.99239652 .99239652 .12308188 15.2 42.35)"/><path d="m25.53 20.2h11.28v.39h-11.28z" fill="#fff" transform="matrix(.12290867 -.99241799 .99241799 .12290867 7.1 48.83)"/><path d="m28.78 20.18h3.62v.38h-3.62z" fill="#fff" transform="matrix(.11927045 -.9928618 .9928618 .11927045 6.72 48.32)"/><path d="m29.26 16.31h3.62v.38h-3.62z" fill="#fff" transform="matrix(.12464058 -.99220196 .99220196 .12464058 10.83 45.27)"/><path d="m28.32 23.95h3.62v.38h-3.62z" fill="#fff" transform="matrix(.12325508 -.99237502 .99237502 .12325508 2.45 51.06)"/><path d="m13.82 72.94 1.75.22c-1.49-.18-2.53-1.66-2.33-3.29l8.18-65.91c.2-1.63 1.57-2.81 3.06-2.62l-1.75-.22c-1.49-.18-2.86.99-3.06 2.62l-8.17 65.9c-.2 1.63.84 3.11 2.33 3.29z" fill="#dedfe0"/><path d="m15.87 12.86h21.98v.75h-21.98z" fill="#adafb2" transform="matrix(.12290867 -.99241799 .99241799 .12290867 10.43 38.27)"/><path d="m22.2 12.82h7.05v.75h-7.05z" fill="#adafb2" transform="matrix(.12308188 -.99239652 .99239652 .12308188 9.47 37.1)"/><path d="m23.14 5.27h7.05v.75h-7.05z" fill="#adafb2" transform="matrix(.12360148 -.99233194 .99233194 .12360148 17.77 31.4)"/><path d="m21.29 20.17h7.05v.75h-7.05z" fill="#adafb2" transform="matrix(.12290867 -.99241799 .99241799 .12290867 1.37 42.65)"/><path d="m13.07 35.42h21.98v.75h-21.98z" fill="#adafb2" transform="matrix(.12256224 -.99246083 .99246083 .12256224 -14.41 55.29)"/><path d="m19.41 35.38h7.05v.75h-7.05z" fill="#adafb2" transform="matrix(.12290867 -.99241799 .99241799 .12290867 -15.37 54.12)"/><path d="m20.34 27.83h7.05v.75h-7.05z" fill="#adafb2" transform="matrix(.12342828 -.9923535 .9923535 .12342828 -7.07 48.41)"/><path d="m18.49 42.74h7.06v.75h-7.06z" fill="#adafb2" transform="matrix(.12290867 -.99241799 .99241799 .12290867 -23.48 59.67)"/><path d="m8.82 5.72c-.07-1.69 1.23-3.11 2.92-3.18l10.49-.46c1.68-.07 3.11 1.23 3.18 2.92l2.96 67.93c.07 1.68-1.23 3.11-2.92 3.18l-10.49.46c-1.68.07-3.11-1.23-3.18-2.92z" fill="#e3f2ed"/><path d="m24.27 76.16 1.19-.05c1.69-.07 2.99-1.5 2.92-3.18l-2.97-67.93c-.07-1.69-1.5-2.99-3.18-2.92l-1.19.05z" fill="#ed193e"/><path d="m14.91 65.56-.46.2s0 0 0 0 .26.32.31.32c.04 0 1.48-.06 2.15-.09 0 .01.01.03.02.04.14.25.3.51.47.78.01.03.03.05.04.07.08.14.16.27.25.41.01.02.03.04.04.06.08.13.16.27.25.4 0 .01.01.02.02.03.32.52.65 1.06.97 1.56l-.63.25s0 0 0 0 0-.01-.01-.01c0 0 0 0 0-.01s-.04-.04-.05-.05c0 0 0 0-.01 0s-.03.01-.04.03 0 0 0 .01.01.03.02.05t0 0s0 0 0 .01v.01l-.61.24s0-.01-.01-.01c0 0 0 0 0-.01s-.04-.04-.05-.05c0 0 0 0-.01 0s-.03.01-.04.03 0 0 0 .01.01.03.02.05v.01l-.48.19-.13.05s0 0 0 0 0 0 0-.01-.04-.04-.05-.05c0 0 0 0-.01 0s-.03.01-.04.03 0 0 0 .01.01.03.02.05 0 .01 0 .02l-.61.24s0 0 0 0 0 0-.01-.01c0 0 0 0 0-.01s-.04-.04-.05-.05h-.01s-.03.02-.04.03 0 0 0 .01.02.03.02.05 0 .02.01.03l-.63.25s.03.13.1.16h.02.01.03.01.05.01.19.02.11.04c.54.01 1.41.03 2.23.05.04.06.09.13.15.2s0 0 0 0c.04.05.09.11.15.15s0 0 .01 0h.02s0 0 0 0 .02 0 .03-.01c.06-.03.16-.07.24-.15.01-.01.03-.02.04-.04h.01s0 0 0 0c.02-.03.05-.05.07-.08 0 0 0-.01-.01-.03h.56.07.31c.07.11.14.22.2.32.15.23.27.43.38.58.01.02.02.03.03.05.02.02.03.05.05.07.01.02.02.03.03.05s.03.04.04.05c0 .01.02.03.02.04.02.03.03.05.05.07.53.77 1.18 1.23 1.46 1.04s.08-.97-.45-1.74c-.01-.02-.03-.04-.05-.07 0-.01-.02-.03-.03-.04 0-.01-.02-.03-.03-.04-.01-.02-.03-.04-.04-.06 0-.01-.02-.02-.03-.04-.05-.07-.11-.15-.18-.24-.03-.04-.05-.07-.08-.11 0 0-.01-.01-.01-.02-.06-.08-.12-.16-.19-.25-.07-.1-.15-.2-.23-.31.03-.08.06-.17.1-.28.06-.17.13-.38.21-.59.01.01.02.02.02.02.04 0 .07-.02.1-.03h.01s.01 0 .02 0c.02 0 .03-.02.05-.03.09-.05.17-.12.21-.17.01-.01.02-.02.03-.03s0 0 0 0 0-.01.01-.01c0 0 0-.01.01-.01-.02-.07-.06-.13-.09-.19-.05-.08-.09-.15-.14-.21.14-.39.29-.8.42-1.17 0-.02.01-.04.02-.05.02-.05.04-.1.05-.15.01-.04.03-.08.04-.12 0-.02.01-.04.02-.05.01-.04.03-.08.04-.12 0-.01.01-.03.02-.04.02-.05.03-.1.05-.14.03-.09.06-.17.09-.25 0-.01 0-.03.01-.04 0 0 0 0 0-.01.01-.04.03-.08.04-.11.03-.07.05-.14.06-.19 0-.02.01-.04.02-.05v-.01c0-.01 0-.02.01-.03v-.02c0-.06-.07-.11-.1-.14 0 0-.02-.01-.02-.01l-.45.5s0 0 0 0-.01-.02-.02-.02c-.01-.01-.03-.03-.04-.04 0 0 0 0-.01 0s-.03.01-.04.03 0 0 0 0c0 .02.02.04.03.07s0 0 0 0 0 .01.01.02l-.45.48s0-.01-.01-.02c-.01-.01-.03-.03-.04-.04h-.01s-.03.01-.04.03 0 0 0 .01c0 .02.02.04.03.06v.02l-.3.33-.14.16s-.01-.01-.02-.02c-.01-.01-.03-.03-.04-.04h-.01s-.03.01-.04.03 0 0 0 .01c0 .02.01.04.03.07s0 0 0 0 0 .01.01.02l-.44.48s0 0 0 0-.01-.01-.02-.02c-.01-.01-.03-.03-.04-.04h-.01s-.03.01-.04.03 0 0 0 0c0 .02.01.04.03.07s0 0 0 0 0 .02.01.03l-.45.49c-.37-.49-.76-1.01-1.15-1.5s-.03-.03-.04-.05c-.09-.11-.17-.22-.26-.33-.02-.02-.03-.04-.05-.06-.09-.12-.18-.23-.27-.35-.03-.04-.06-.07-.09-.11-.09-.11-.18-.23-.27-.33-.01-.01-.02-.03-.03-.04-.08-.11-.17-.21-.25-.31 0 0-.02-.02-.02-.03.02-.06.05-.12.08-.18 0-.01 0-.02.01-.03.16-.37.38-.87.54-1.25 0-.01.01-.03.02-.04.02-.03.03-.07.04-.1 0-.01.01-.03.02-.04.03-.07.05-.13.08-.18 0 0 0 0 0-.01.01-.02.02-.05.03-.06t0 0s.01-.03.02-.04v-.02c.01-.04-.08-.21-.14-.32-.03-.05-.05-.09-.05-.09l-.35.36s0 0 0 0l-1.08 1.1h-.01s-.02-.01-.03-.03c-.02-.02-.03-.03-.05-.05-.04-.04-.07-.07-.1-.11-.04.02-.08.04-.11.06-.04.02-.07.05-.1.08.01.03.02.05.04.08 0 .01.01.03.02.04 0 .01.01.03.02.04 0 .02.02.04.03.05l-1.42.62z" fill="#fff"/><path d="m25.96 62.84h.77v11.28h-.77z" fill="#fff" transform="matrix(.99901753 -.04431684 .04431684 .99901753 -3.01 1.23)"/><path d="m24.8 66.77h.77v3.62h-.77z" fill="#fff" transform="matrix(.99910815 -.04222441 .04222441 .99910815 -2.87 1.12)"/><path d="m24.63 62.87h.77v3.62h-.77z" fill="#fff" transform="matrix(.99906339 -.04327065 .04327065 .99906339 -2.78 1.14)"/><path d="m24.97 70.57h.77v3.62h-.77z" fill="#fff" transform="matrix(.99906339 -.04327065 .04327065 .99906339 -3.11 1.17)"/><path d="m23.39 3.82h.39v11.28h-.39z" fill="#fff" transform="matrix(.99908591 -.04274754 .04274754 .99908591 -.38 1.02)"/><path d="m22.81 7.73h.38v3.62h-.38z" fill="#fff" transform="matrix(.99916613 -.04082935 .04082935 .99916613 -.37 .95)"/><path d="m22.64 3.83h.38v3.62h-.38z" fill="#fff" transform="matrix(.99903293 -.04396812 .04396812 .99903293 -.23 1.01)"/><path d="m22.98 11.53h.38v3.62h-.38z" fill="#fff" transform="matrix(.99893866 -.04606039 .04606039 .99893866 -.59 1.08)"/><path d="m23.65 15.49.38-.02.49 11.27-.38.01z" fill="#fff"/><path d="m23.32 19.38h.38v3.62h-.38z" fill="#fff" transform="matrix(.99904059 -.04379375 .04379375 .99904059 -.91 1.05)"/><path d="m23.15 15.48h.38v3.62h-.38z" fill="#fff" transform="matrix(.99917325 -.04065496 .04065496 .99917325 -.68 .96)"/><path d="m23.48 23.18h.39v3.62h-.39z" fill="#fff" transform="matrix(.99913012 -.04170127 .04170127 .99913012 -1.02 1.01)"/><path d="m15.71 75.81 1.76-.08c-1.5.07-2.77-1.22-2.84-2.86l-2.89-66.34c-.07-1.65 1.08-3.03 2.58-3.1l-1.76.08c-1.5.07-2.66 1.45-2.58 3.1l2.89 66.35c.07 1.64 1.34 2.92 2.84 2.86z" fill="#dedfe0"/><path d="m18.27 3.78h.75v21.98h-.75z" fill="#adafb2" transform="matrix(.99907843 -.04292191 .04292191 .99907843 -.62 .81)"/><path d="m17.15 11.39h.75v7.05h-.75z" fill="#adafb2" transform="matrix(.99906339 -.04327065 .04327065 .99906339 -.63 .77)"/><path d="m16.82 3.79h.75v7.05h-.75z" fill="#adafb2" transform="matrix(.99908591 -.04274754 .04274754 .99908591 -.3 .74)"/><path d="m17.47 18.8h.75v7.05h-.75z" fill="#adafb2" transform="matrix(.99908591 -.04274754 .04274754 .99908591 -.94 .78)"/><path d="m19.26 26.49h.75v21.98h-.75z" fill="#adafb2" transform="matrix(.99907843 -.04292191 .04292191 .99907843 -1.59 .88)"/><path d="m18.14 34.1h.75v7.05h-.75z" fill="#adafb2" transform="matrix(.99906339 -.04327065 .04327065 .99906339 -1.61 .83)"/><path d="m17.8 26.5h.75v7.05h-.75z" fill="#adafb2" transform="matrix(.99908591 -.04274754 .04274754 .99908591 -1.26 .8)"/><path d="m18.46 41.51h.75v7.05h-.75z" fill="#adafb2" transform="matrix(.99910815 -.04222441 .04222441 .99910815 -1.89 .84)"/><path d="m46.8 78.46c.76-.25 1.74-.71 1.74-2.14v-61.83c-.04-1.23-.7-2.15-1.64-2.39-.37-.1-.61-.14-1.02-.17h-45.88v66.64h45.97c.3 0 .68-.05.83-.1z" fill="#5e1e00"/><path d="m4.39 74v-57.96c.21-3.6 8.74-4.08 8.74-4.08l-.02-.03h-13.11v66.64h12.42c-.37-.06-.78-.09-1.24-.1-6.69-.1-6.79-4.47-6.79-4.47z" fill="#5e1e00" opacity=".4"/><path d="m38.49 12.13h6.59s2.87-.09 3.18 2.18l-.13 13.64-.18-12.87s-.61-2.45-2.77-2.69c-1.75-.19-6.69-.25-6.69-.25z" fill="#294468"/><path d="m9.95 59.56c0-.12.09-.17.23-.21.09-.04.11-.16.11-.33v-1.76c0-.17-.01-.29-.1-.33-.12-.03-.23-.09-.23-.22 0-.18.22-.24.57-.24h.41c.18 0 .46-.02.66-.02.92 0 1.36.4 1.36 1.05 0 .72-.57 1.14-1.36 1.14-.11 0-.23 0-.35-.02v.39c0 .17.02.29.11.33.16.03.26.09.26.2 0 .21-.34.27-.86.27s-.82-.06-.82-.27zm1.55-1.37c.33 0 .5-.2.5-.61 0-.37-.12-.65-.47-.65-.09 0-.17.02-.21.06-.05.04-.06.14-.06.3v.88c.08.01.17.02.24.02z" fill="#fff"/><path d="m12.63 59.56c0-.11.08-.18.23-.23.12-.04.2-.14.39-.55.19-.42.58-1.32.65-1.55.05-.13.05-.22.06-.32.02-.29.18-.46.5-.46.26 0 .46.11.6.39.21.4.71 1.58.92 2.06.15.33.22.41.3.43.12.03.21.1.21.21 0 .2-.34.28-.91.28s-.9-.08-.9-.28c0-.11.09-.17.27-.21.07-.02.08-.15.02-.38l-.02-.08c-.19-.02-.38-.03-.58-.03-.22 0-.39 0-.58.03-.02.07-.04.12-.06.18-.06.19-.05.26.05.28.17.04.26.1.26.21 0 .2-.29.28-.71.28s-.68-.09-.68-.27zm1.72-1.15h.41c-.13-.31-.29-.67-.43-.96-.13.29-.27.65-.39.96z" fill="#fff"/><path d="m17.28 59.67c-.03.11-.11.17-.22.17-.29 0-.54-.45-.54-.87 0-.25.12-.38.24-.38s.2.1.32.29c.18.28.53.51.91.51.32 0 .51-.16.51-.38s-.19-.32-.67-.42c-.67-.15-1.24-.41-1.24-1.09 0-.62.53-1.08 1.26-1.08.29 0 .53.08.7.17.04-.09.11-.16.22-.16.29 0 .51.47.51.8 0 .2-.12.33-.24.33-.14 0-.22-.12-.29-.22-.16-.24-.39-.44-.75-.44-.29 0-.5.15-.5.36 0 .23.2.32.65.42.67.15 1.26.41 1.26 1.09s-.56 1.11-1.3 1.11c-.33 0-.62-.1-.82-.2z" fill="#fff"/><path d="m19.38 59.56c0-.11.08-.18.23-.23.12-.04.2-.14.39-.55.19-.42.58-1.32.65-1.55.05-.13.05-.22.06-.32.02-.29.18-.46.5-.46.26 0 .46.11.6.39.21.4.71 1.58.92 2.06.15.33.22.41.3.43.12.03.21.1.21.21 0 .2-.34.28-.91.28s-.9-.08-.9-.28c0-.11.09-.17.27-.21.07-.02.08-.15.02-.38l-.02-.08c-.19-.02-.38-.03-.59-.03-.22 0-.39 0-.58.03-.02.07-.04.12-.06.18-.06.19-.05.26.05.28.17.04.26.1.26.21 0 .2-.29.28-.7.28s-.68-.09-.68-.27zm1.72-1.15h.41c-.13-.31-.29-.67-.43-.96-.13.29-.27.65-.39.96z" fill="#fff"/><path d="m23.29 59.56c0-.12.09-.17.23-.21.09-.04.11-.16.11-.33v-1.76c0-.17-.01-.29-.1-.33-.12-.03-.23-.09-.23-.22 0-.18.22-.24.57-.24h.41c.18 0 .46-.02.66-.02.92 0 1.36.4 1.36 1.05 0 .72-.57 1.14-1.36 1.14-.11 0-.23 0-.35-.02v.39c0 .17.02.29.11.33.16.03.26.09.26.2 0 .21-.34.27-.86.27s-.82-.06-.82-.27zm1.54-1.37c.33 0 .5-.2.5-.61 0-.37-.12-.65-.47-.65-.09 0-.17.02-.21.06-.05.04-.06.14-.06.3v.88c.08.01.17.02.24.02z" fill="#fff"/><path d="m26.46 58.15c0-1.01.81-1.72 1.83-1.72s1.77.76 1.77 1.73-.79 1.72-1.83 1.72-1.76-.77-1.76-1.72zm2 1.2c.36 0 .6-.31.6-.8 0-.65-.4-1.6-1-1.6-.36 0-.59.31-.59.8 0 .65.4 1.6 1 1.6z" fill="#fff"/><path d="m30.19 59.56c0-.12.09-.17.24-.21.09-.03.1-.16.1-.33v-1.76c0-.17 0-.29-.1-.33-.14-.03-.25-.09-.25-.22 0-.18.22-.24.59-.24h.41c.18 0 .48-.02.78-.02.8 0 1.25.34 1.25.9 0 .4-.25.69-.65.83.35.08.49.33.63.65.1.22.15.36.24.41.08.05.15.05.21.07.05.02.07.06.07.12 0 .17-.26.38-.65.38-.57 0-.74-.42-.85-.82-.09-.31-.17-.58-.47-.58h-.26v.59c0 .17.02.3.11.33.17.03.27.09.27.2 0 .21-.33.27-.87.27s-.82-.06-.82-.27zm1.57-1.55c.33 0 .5-.2.5-.53 0-.31-.14-.56-.47-.56-.1 0-.18.02-.23.06-.04.03-.05.13-.05.29v.73c.08 0 .16.01.25.01z" fill="#fff"/><path d="m34.28 59.56c0-.12.1-.17.26-.21.1-.03.12-.15.12-.33v-1.58c0-.36-.02-.49-.12-.49h-.04c-.15 0-.27.03-.33.11s-.11.2-.15.32c-.08.22-.15.33-.29.33s-.25-.14-.25-.42c0-.45.22-.91.47-.91.1 0 .17.05.2.12h1.99c.04-.07.11-.12.21-.12.25 0 .47.47.47.91 0 .28-.11.42-.25.42s-.21-.11-.29-.33c-.04-.12-.09-.24-.15-.32s-.18-.11-.33-.11h-.04c-.1 0-.12.13-.12.49v1.58c0 .17.03.29.13.32.17.04.26.09.26.21 0 .21-.34.27-.87.27s-.88-.06-.88-.27z" fill="#fff"/><path d="m39.32 59.8h-1.11c-.24 0-.46 0-.61 0-.43 0-.65-.05-.65-.24 0-.13.11-.18.24-.22.09-.03.1-.16.1-.33v-1.74c0-.17 0-.29-.1-.33-.13-.03-.24-.09-.24-.22 0-.18.21-.24.64-.24h.61 1.07c.04-.07.11-.12.19-.12.23 0 .42.4.42.79 0 .27-.11.4-.24.4s-.19-.09-.25-.24c-.05-.14-.09-.23-.14-.28-.07-.06-.22-.1-.52-.1h-.29c-.17 0-.2.11-.2.45v.52c.39 0 .59-.03.59-.12.01-.18.05-.28.2-.28.19 0 .27.27.27.61 0 .33-.08.61-.27.61-.15 0-.18-.09-.2-.27-.01-.09-.2-.12-.59-.12v.53c0 .36.02.47.19.47h.3c.33 0 .5-.05.57-.12.06-.07.11-.19.16-.34.06-.17.14-.29.28-.29s.25.13.25.41c0 .43-.22.92-.47.92-.1 0-.17-.05-.21-.12z" fill="#fff"/><path d="m23.44 26.08c6.88-1.14 13.01 3.66 14.01 10.06 1.09 7-3.53 13.18-10.43 14.17-6.39.91-12.75-3.85-13.64-10.2-.95-6.81 3.55-13.09 10.07-14.03zm10.78 19.33c1.41-1.13 3.01-5.59 2.46-6.9-1.47 0-2.97.01-4.54.02-.08 1.76-.51 3.4-1.04 5.02 1.14.56 2.16 1.14 3.12 1.86zm-2.08-7.63h4.61c.36-1.72-1.24-5.95-2.59-6.81-.94.64-1.91 1.28-3 1.78.55 1.65.92 3.27.98 5.03zm-18.03.74c-.43 1.57 1.19 5.86 2.52 6.84.94-.58 1.88-1.16 2.87-1.76-.73-1.63-.98-3.29-1.14-5.07-1.47 0-2.86 0-4.25 0zm-.13-.73h4.37c.1-1.33.26-2.56.56-3.76.12-.47.69-1.04.27-1.39-.79-.66-1.75-1.12-2.66-1.68-1.63 2.01-2.43 4.23-2.55 6.84zm5.13.74c.14 1.77.44 3.31 1.11 4.82 1.19-.38 2.31-.81 3.48-.81 1.01 0 1.31-.37 1.2-1.34-.1-.87-.05-1.75-.06-2.68-1.95 0-3.78.01-5.73.02zm.98-5.57c-.61 1.58-.97 3.12-.94 4.83 1.94 0 3.78-.01 5.7-.02 0-1.34 0-2.54 0-3.79-1.66-.17-3.22-.48-4.76-1.03zm11.16 4.82c.29-.96-.38-4.09-.98-4.71-1.45.6-3.03.75-4.66.93v3.78h5.63zm-5.63 4.61c1.65.07 3.18.31 4.71.85.63-1.53 1.02-3.04.98-4.73-1.94 0-3.79.01-5.69.02v3.87zm4.46-10.11c-1-2.2-2.44-3.99-4.49-5.58 0 2.28 0 4.33.01 6.34.79.29 3.2-.14 4.48-.76zm-5.24-5.42c-1.28.45-4.08 4-4.3 5.31.62.58 3.59 1.17 4.31.8 0-1.99 0-4.02-.01-6.11zm5.05 17.04c-1.35-.45-2.73-.78-4.27-.72 0 2.02.01 3.98.02 5.96 1.24-.36 4.2-4.05 4.25-5.24zm-9.27.3c.95 2 2.34 3.62 4.06 4.98.24-.31.3-5.36.11-5.9-.71-.22-3.55.38-4.16.92zm6.22 5.21c1.66.35 6.28-2.04 6.8-3.45-.82-.74-1.81-1.22-2.88-1.7-1.01 1.93-2.26 3.65-3.93 5.15zm6.78-19.08c-.73-1.44-5.04-3.71-6.5-3.41 1.5 1.5 2.79 3.09 3.68 5.05 1.11-.33 1.99-.95 2.82-1.64zm-9.95 19.02c-1.63-1.45-2.87-3.09-3.86-4.98-.96.52-1.86.94-2.61 1.6.74 1.45 5.02 3.73 6.47 3.38zm-3.97-17.45c.93-1.82 2.01-3.44 3.49-4.82-1.15-.38-5.15 1.8-6.04 3.24.74.66 1.57 1.16 2.55 1.57z" fill="#fff"/><g fill="#5e1e00"><path d="m34.22 45.41c-.96-.72-1.97-1.31-3.12-1.86.53-1.62.96-3.26 1.04-5.02 1.56 0 3.06-.01 4.54-.02.56 1.31-1.04 5.77-2.46 6.9z"/><path d="m32.14 37.78c-.07-1.77-.43-3.38-.98-5.03 1.1-.5 2.07-1.14 3-1.78 1.34.86 2.94 5.09 2.59 6.81-1.5 0-3.02 0-4.61 0z"/><path d="m14.11 38.52h4.25c.15 1.78.4 3.44 1.14 5.07-.98.6-1.93 1.19-2.87 1.76-1.33-.97-2.95-5.27-2.52-6.84z"/><path d="m13.98 37.79c.12-2.61.92-4.83 2.55-6.84.91.56 1.87 1.01 2.66 1.68.42.35-.16.92-.27 1.39-.3 1.21-.46 2.44-.56 3.76-1.45 0-2.85 0-4.37 0z"/><path d="m19.11 38.53c1.95 0 3.78-.01 5.73-.02.02.93-.03 1.82.06 2.68.11.97-.19 1.34-1.2 1.34-1.17 0-2.29.43-3.48.81-.68-1.51-.97-3.05-1.11-4.82z"/><path d="m20.09 32.96c1.54.55 3.1.86 4.76 1.03v3.78c-1.91 0-3.76.01-5.7.02-.03-1.71.33-3.25.94-4.83z"/><path d="m31.25 37.78c-1.85 0-3.71 0-5.63 0 0-1.29 0-2.51 0-3.78 1.63-.19 3.21-.33 4.66-.93.6.62 1.27 3.74.98 4.71z"/><path d="m25.62 42.39c0-1.32 0-2.53 0-3.87 1.9 0 3.75-.01 5.69-.02.04 1.7-.35 3.2-.98 4.73-1.54-.54-3.06-.78-4.71-.85z"/><path d="m30.08 32.28c-1.28.62-3.69 1.04-4.48.76 0-2.01 0-4.07-.01-6.34 2.05 1.59 3.49 3.38 4.49 5.58z"/><path d="m24.84 26.86c0 2.09 0 4.12.01 6.11-.72.37-3.69-.22-4.31-.8.22-1.31 3.02-4.86 4.3-5.31z"/><path d="m29.89 43.9c-.06 1.2-3.01 4.89-4.25 5.24 0-1.98-.01-3.94-.02-5.96 1.53-.07 2.91.26 4.27.72z"/><path d="m20.62 44.2c.61-.55 3.46-1.14 4.16-.93.2.55.14 5.6-.11 5.9-1.72-1.36-3.11-2.98-4.06-4.98z"/><path d="m26.84 49.41c1.66-1.5 2.92-3.22 3.93-5.15 1.06.48 2.05.96 2.88 1.7-.52 1.41-5.14 3.8-6.8 3.45z"/><path d="m33.62 30.34c-.83.69-1.7 1.32-2.82 1.64-.89-1.96-2.18-3.55-3.68-5.05 1.46-.31 5.77 1.97 6.5 3.41z"/><path d="m23.67 49.35c-1.45.35-5.73-1.92-6.47-3.38.75-.66 1.65-1.08 2.61-1.6.99 1.89 2.24 3.53 3.86 4.98z"/><path d="m19.7 31.9c-.98-.41-1.81-.92-2.55-1.57.89-1.44 4.89-3.63 6.04-3.24-1.48 1.38-2.56 3-3.49 4.82z"/></g><path d="m28.3 66.37c.07.5.12.89-.02 1.36-.66-.05-1.35.39-1.91-.44-.42-.61-1.35-.56-1.85 0-.47.53-1.02.65-1.85.39 0-.4 0-.81.01-1.3h5.62z" fill="#fff"/><path d="m22.74 69.66c-.16-.38-.07-.77-.03-1.23.46-.01.92-.02 1.41-.03.37.53.74 1.1 1.55.94.28-.05.58-.14.7-.37.45-.9 1.21-.52 1.88-.56.24.42.07.81.11 1.19-.38.2-5.03.24-5.61.05z" fill="#fff"/><path d="m25.6 68.84c-.42.01-.75-.12-.83-.59-.07-.44.09-.77.55-.85.44-.07.76.11.83.57.07.43-.09.75-.55.86z" fill="#fff"/></svg>