<svg viewBox="0 0 1944.35 455.46" xmlns="http://www.w3.org/2000/svg" xmlns:xlink="http://www.w3.org/1999/xlink"><clipPath id="a"><path d="m579.01 287.75h834.38v40.02h-834.38z"/></clipPath><mask id="b" height="40.02" maskUnits="userSpaceOnUse" width="834.38" x="579.01" y="287.75"><path d="m1395.67 287.75h-789.21v16.37h789.21z" fill="#fff"/></mask><path d="m230.4 103.02h-80.08v101.47h80.08z" fill="#f9d0d5"/><g fill="#f1a5af"><path d="m194.75 113.51h-8.81v9.35h8.81z"/><path d="m168.9 113.51h-8.81v9.35h8.81z"/><path d="m220.61 113.51h-8.81v9.35h8.81z"/><path d="m194.75 131.22h-8.81v9.35h8.81z"/><path d="m168.9 131.22h-8.81v9.35h8.81z"/><path d="m220.61 131.22h-8.81v9.35h8.81z"/><path d="m194.75 148.94h-8.81v9.35h8.81z"/><path d="m168.9 148.94h-8.81v9.35h8.81z"/><path d="m220.61 148.94h-8.81v9.35h8.81z"/><path d="m194.75 166.65h-8.81v9.35h8.81z"/><path d="m168.9 166.65h-8.81v9.35h8.81z"/><path d="m220.61 166.65h-8.81v9.35h8.81z"/><path d="m194.75 184.37h-8.81v9.36h8.81z"/><path d="m220.61 184.37h-8.81v9.36h8.81z"/><path d="m150.32 103.02h-22.78v101.47h22.78z"/></g><path d="m971.04 269.01h-971.04v10.78h971.04z" fill="#397bc7"/><path d="m940.72 193.53c-2.62-.81-5.37-1.25-8.22-1.25-8.31 0-15.84 3.7-21.41 9.68-3.04-7.15-9.49-12.08-16.99-12.08s-14.34 5.22-17.25 12.7c-4.32-2.57-9.23-4.03-14.46-4.03-6.34 0-12.22 2.15-17.15 5.82-4.88-12.14-15.71-20.6-28.31-20.6-9.62 0-18.21 4.92-23.92 12.64-3.46-4.57-8.58-7.45-14.33-7.45-6.58 0-12.37 3.8-15.74 9.56-5.64-8.92-14.87-14.75-25.33-14.75-6.48 0-12.5 2.24-17.48 6.06-5.2-11.16-15.56-18.78-27.53-18.78-13.13 0-24.33 9.18-28.9 22.13-3.14-2.64-7.03-4.21-11.24-4.21-7.56 0-14.05 5.02-17.06 12.25-4.65-4.34-10.61-6.93-17.12-6.93-4.95 0-9.58 1.54-13.56 4.17-2.07-14.4-13.13-25.39-26.49-25.39-10.63 0-19.8 6.98-24.15 17.07-3.31-3.27-7.63-5.25-12.38-5.25-9.39 0-17.16 7.76-18.59 17.88-2.49-1.36-5.27-2.15-8.22-2.15s-5.8.81-8.31 2.2c-2.86-7.64-9.56-12.98-17.38-12.98-8.67 0-15.95 6.61-18.16 15.59-4.92-6.78-12.41-11.12-20.8-11.12-5.92 0-11.37 2.18-15.81 5.83-3.69-11.16-13.22-19.13-24.41-19.13-10.08 0-18.79 6.44-23.14 15.87-5.26-4.58-11.83-7.33-18.99-7.33-9.16 0-17.35 4.47-23.05 11.58-3.17-6.7-9.43-11.29-16.64-11.29-8.19 0-15.15 5.89-17.74 14.12-3.41-3.91-8.16-6.35-13.43-6.35-.88 0-1.74.09-2.59.23-5.67-8.51-14.67-14.03-24.85-14.03s-20.07 6.06-25.67 15.29c-5.57-5.89-13.05-9.54-21.28-9.54-6.74 0-12.96 2.44-18.05 6.55-2.63-8.15-9.55-13.97-17.7-13.97-4.52 0-8.67 1.8-11.91 4.78-5.66-6.64-13.61-10.8-22.42-10.8-13.69 0-25.3 9.99-29.44 23.84-3.21-1.59-6.74-2.49-10.47-2.49-2.01 0-3.97.27-5.85.76-4.55-12.99-15.77-22.2-28.91-22.2-10.97 0-20.6 6.43-26.13 16.1-4.48-2.92-9.68-4.63-15.23-4.63-3.5 0-6.84.7-9.96 1.92v30.45h914.14v-26.31h-.01z" fill="#114e19"/><path d="m228.55 222.02-23.07-19.87h-30.28l-23.05 19.87.99 1.31h.03v40.64h73.44v-41.43l.92.79 1.01-1.31z" fill="#170a0c"/><path d="m296.38 224.02-23.05-19.88h-30.28l-23.07 19.88 1.01 1.3h.03l-2.07 45.77 32.32 9.53-2.07-9.53 45.27-5.13v-41.43l.92.79z" fill="#170a0c"/><path d="m472.1 227.06-23.07-19.87h-30.28l-23.05 19.87 1.01 1.3h.03v40.65h73.44v-41.44l.91.79z" fill="#2b8738"/><path d="m610.93 220.57-23.05-19.87h-30.28l-23.07 19.87 1.01 1.31h.03v40.63h73.44v-41.43l.92.79.99-1.31z" fill="#170a0c"/><path d="m708.62 224.02-23.07-19.88h-30.28l-23.05 19.88.99 1.3h.03v40.63h73.44v-41.43l.92.79 1.01-1.3z" fill="#170a0c"/><path d="m846.97 229.38-23.07-19.87h-30.28l-23.05 19.87.99 1.31h.03v40.63h73.46v-41.43l.91.8z" fill="#170a0c"/><path d="m963.12 226.22-23.05-19.87h-30.28l-23.07 19.87 1.01 1.31h.03v40.63h73.44v-41.43l.92.79.99-1.31z" fill="#170a0c"/><path d="m555.5 228.75-23.05-19.87h-30.28l-23.07 19.87 1.01 1.3h.03v40.65h73.44v-41.43l.92.78.99-1.3z" fill="#170a0c"/><path d="m170.36 237.3c-1.67 2.2-2.66 4.98-2.66 8.02 0 3.22 1.14 6.15 3 8.41-2.82 1.77-4.74 5.01-4.74 8.75 0 3.95 2.14 7.36 5.25 9.05-.66 1.39-1.08 2.93-1.08 4.6 0 .38.07.75.1 1.13h34.96c0-5.13-3.59-9.35-8.24-10.06 1.27-1.73 2.04-3.86 2.04-6.23 0-5.19-3.67-9.44-8.41-10.08.78-1.68 1.22-3.57 1.22-5.57 0-6.49-4.56-11.83-10.48-12.66.82-1.51 1.34-3.24 1.34-5.1 0-5.64-4.31-10.2-9.62-10.2s-9.62 4.57-9.62 10.2c0 4.64 2.94 8.52 6.94 9.76z" fill="#1d5a25"/><path d="m631.74 254.19c-.98 1.28-1.57 2.92-1.57 4.7 0 1.89.66 3.62 1.76 4.93-1.66 1.04-2.78 2.95-2.78 5.13 0 2.32 1.27 4.32 3.08 5.31-.39.81-.63 1.73-.63 2.7 0 .23.04.44.06.66h20.52c0-3.01-2.1-5.48-4.84-5.91.75-1.01 1.2-2.27 1.2-3.65 0-3.05-2.16-5.54-4.94-5.91.45-.99.72-2.09.72-3.27 0-3.82-2.68-6.95-6.15-7.44.49-.88.78-1.89.78-2.99 0-3.31-2.53-5.99-5.64-5.99s-5.64 2.69-5.64 5.99c0 2.72 1.73 4.99 4.08 5.73h.01z" fill="#1d5a25"/><path d="m510.25 237.3c-1.67 2.2-2.66 4.98-2.66 8.02 0 3.22 1.14 6.15 2.99 8.41-2.82 1.77-4.74 5.01-4.74 8.75 0 3.95 2.15 7.36 5.26 9.05-.66 1.39-1.08 2.93-1.08 4.6 0 .38.07.75.1 1.13h34.96c0-5.13-3.58-9.35-8.24-10.06 1.27-1.73 2.04-3.86 2.04-6.23 0-5.19-3.67-9.44-8.41-10.08.78-1.68 1.22-3.57 1.22-5.57 0-6.49-4.56-11.83-10.48-12.66.82-1.51 1.34-3.24 1.34-5.1 0-5.64-4.3-10.2-9.62-10.2s-9.62 4.57-9.62 10.2c0 4.64 2.94 8.52 6.94 9.76l-.02-.02z" fill="#1d5a25"/><path d="m748.87 237.3c-1.67 2.2-2.66 4.98-2.66 8.02 0 3.22 1.14 6.15 2.99 8.41-2.82 1.77-4.74 5.01-4.74 8.75 0 3.95 2.15 7.36 5.26 9.05-.66 1.39-1.08 2.93-1.08 4.6 0 .38.07.75.1 1.13h34.96c0-5.13-3.59-9.35-8.24-10.06 1.27-1.73 2.04-3.86 2.04-6.23 0-5.19-3.67-9.44-8.41-10.08.78-1.68 1.22-3.57 1.22-5.57 0-6.49-4.56-11.83-10.48-12.66.82-1.51 1.34-3.24 1.34-5.1 0-5.64-4.3-10.2-9.62-10.2s-9.62 4.57-9.62 10.2c0 4.64 2.94 8.52 6.94 9.76l-.02-.02z" fill="#1d5a25"/><path d="m935.24 237.3c-1.67 2.2-2.66 4.98-2.66 8.02 0 3.22 1.14 6.15 2.99 8.41-2.82 1.77-4.74 5.01-4.74 8.75 0 3.95 2.14 7.36 5.26 9.05-.66 1.39-1.08 2.93-1.08 4.6 0 .38.07.75.1 1.13h34.96c0-5.13-3.59-9.35-8.24-10.06 1.27-1.73 2.04-3.86 2.04-6.23 0-5.19-3.67-9.44-8.41-10.08.78-1.68 1.22-3.57 1.22-5.57 0-6.49-4.57-11.83-10.48-12.66.82-1.51 1.34-3.24 1.34-5.1 0-5.64-4.3-10.2-9.62-10.2s-9.62 4.57-9.62 10.2c0 4.64 2.94 8.52 6.94 9.76z" fill="#114e19"/><path d="m270.06 251.37c1.08 1.42 1.73 3.22 1.73 5.19 0 2.09-.73 3.99-1.94 5.45 1.83 1.16 3.07 3.25 3.07 5.66 0 2.57-1.4 4.77-3.41 5.86.43.9.71 1.91.71 2.98 0 .24-.04.49-.07.73h-22.66c0-3.33 2.32-6.06 5.34-6.52-.82-1.11-1.32-2.5-1.32-4.03 0-3.38 2.38-6.12 5.46-6.54-.5-1.1-.79-2.32-.79-3.62 0-4.21 2.97-7.68 6.8-8.21-.53-.98-.86-2.09-.86-3.31 0-3.65 2.79-6.61 6.24-6.61s6.23 2.96 6.23 6.61c0 3.01-1.9 5.53-4.51 6.32v.03z" fill="#1d5a25"/><path d="m665.22 278.45h40.2v-55.74h-40.2z" fill="#eabfc5"/><path d="m665.17 224.43 29.32-25.24 29.3 25.24 1.34-1.73-30.64-26.4-30.65 26.4 1.34 1.73z" fill="#89a6c7"/><path d="m705.41 278.44h57.39v-56.85l-27.7-23.85-29.69 23.85z" fill="#e9d4d7"/><path d="m705.41 224.43 29.3-25.24 29.31 25.24 1.33-1.73-30.64-26.4-30.64 26.4z" fill="#eabfc5"/><path d="m663.83 222.71h40.24l30.64-26.4h-40.23z" fill="#578bc7"/><path d="m663.83 222.71h40.24l1.34 1.73h-40.24z" fill="#294f7a"/><path d="m732.01 224.13h7.54v-11.99h-7.54z" fill="#f1a5af"/><path d="m732.02 224.52h7.92v-12.78h-7.92v.81h7.16v11.16h-7.16z" fill="#eabfc5"/><path d="m732.01 225.05h9.11v-1.33h-9.11z" fill="#eabfc5"/><path d="m732.01 225.05h2.98v-1.33h-2.98z" fill="#f9d0d5"/><path d="m732.01 212.55h.98v-.81h-.98z" fill="#f9d0d5"/><path d="m745.31 267.31h9.11v-1.33h-9.11z" fill="#c3d5eb"/><path d="m745.31 267.31h2.98v-1.33h-2.98z" fill="#adc6e4"/><path d="m718.72 244.41h7.54v-11.99h-7.54z" fill="#f1a5af"/><path d="m718.72 244.8h7.92v-12.78h-7.92v.81h7.16v11.16h-7.16z" fill="#eabfc5"/><path d="m718.72 245.32h9.11v-1.33h-9.11z" fill="#eabfc5"/><path d="m718.72 245.32h2.98v-1.33h-2.98z" fill="#f9d0d5"/><path d="m718.72 232.82h.98v-.81h-.98z" fill="#f9d0d5"/><path d="m718.72 266.81h7.54v-11.99h-7.54z" fill="#6b99ce"/><path d="m718.72 267.21h7.92v-12.8h-7.92v.82h7.16v11.16h-7.16v.81z" fill="#c3d5eb"/><path d="m718.72 267.72h9.11v-1.33h-9.11z" fill="#c3d5eb"/><path d="m718.72 267.72h2.98v-1.33h-2.98z" fill="#adc6e4"/><path d="m718.72 255.23h.98v-.81h-.98z" fill="#adc6e4"/><path d="m678.35 232.02h-7.54v11.99h7.54z" fill="#9e2d3c"/><path d="m678.35 244.41h-7.92v-12.8h7.92v.81h-7.16v11.18h7.16z" fill="#f9d0d5"/><path d="m678.35 243.6h-9.11v1.33h9.11z" fill="#f9d0d5"/><path d="m678.35 243.6h-2.98v1.33h2.98z" fill="#f1a5af"/><path d="m678.35 231.61h-.98v.81h.98z" fill="#f1a5af"/><path d="m678.35 254.41h-7.54v11.99h7.54z" fill="#9e2d3c"/><path d="m678.35 266.81h-7.92v-12.8h7.92v.81h-7.16v11.18h7.16z" fill="#f9d0d5"/><path d="m678.35 266h-9.11v1.33h9.11z" fill="#adc6e4"/><path d="m678.35 266h-2.98v1.33h2.98z" fill="#f1a5af"/><path d="m678.35 254.01h-.98v.81h.98z" fill="#f1a5af"/><path d="m698.62 232.42h-7.55v11.99h7.55z" fill="#9e2d3c"/><path d="m698.62 244.8h-7.93v-12.78h7.93v.81h-7.17v11.16h7.17z" fill="#f9d0d5"/><path d="m698.62 243.99h-9.11v1.33h9.11z" fill="#f9d0d5"/><path d="m698.6 243.99h-2.98v1.33h2.98z" fill="#f1a5af"/><path d="m698.62 232.02h-.98v.81h.98z" fill="#f1a5af"/><path d="m698.62 254.82h-7.55v11.99h7.55z" fill="#6b99ce"/><path d="m698.62 267.21h-7.93v-12.8h7.93v.83h-7.17v11.16h7.17z" fill="#adc6e4"/><path d="m698.62 266.4h-9.11v1.33h9.11z" fill="#adc6e4"/><path d="m698.6 266.4h-2.98v1.33h2.98z" fill="#9ab9dd"/><path d="m698.62 254.41h-.98v.81h.98z" fill="#adc6e4"/><path d="m840.27 278.45h40.2v-55.74h-40.2z" fill="#eabfc5"/><path d="m840.22 224.43 29.31-25.24 29.32 25.24 1.32-1.73-30.64-26.4-30.64 26.4z" fill="#89a6c7"/><path d="m880.47 278.44h57.4v-56.85l-27.7-23.85-29.7 23.85z" fill="#e9d4d7"/><path d="m880.47 224.43 29.31-25.24 29.31 25.24 1.33-1.73-30.64-26.4-30.64 26.4z" fill="#eabfc5"/><path d="m838.9 222.71h40.24l30.64-26.4h-40.24z" fill="#f05a5f"/><path d="m838.9 222.71h40.24l1.32 1.73h-40.24l-1.33-1.73z" fill="#9e2d3c"/><path d="m907.07 224.13h7.54v-11.99h-7.54z" fill="#f1a5af"/><path d="m907.07 224.52h7.92v-12.78h-7.92v.81h7.16v11.16h-7.16z" fill="#eabfc5"/><path d="m907.07 225.05h9.11v-1.33h-9.11z" fill="#eabfc5"/><path d="m907.07 225.05h2.98v-1.33h-2.98z" fill="#f9d0d5"/><path d="m907.07 212.55h.98v-.81h-.98z" fill="#f9d0d5"/><path d="m920.36 243.99h7.54v-11.99h-7.54z" fill="#f1a5af"/><path d="m920.38 244.41h7.92v-12.8h-7.92v.81h7.16v11.18h-7.16z" fill="#eabfc5"/><path d="m920.36 244.91h9.11v-1.33h-9.11z" fill="#eabfc5"/><path d="m920.38 244.91h2.98v-1.33h-2.98z" fill="#f9d0d5"/><path d="m920.36 232.42h.98v-.81h-.98z" fill="#f9d0d5"/><path d="m920.36 266.41h7.54v-11.99h-7.54z" fill="#f1a5af"/><path d="m920.38 266.81h7.92v-12.8h-7.92v.81h7.15v11.18h-7.15z" fill="#eabfc5"/><path d="m920.36 267.31h9.11v-1.33h-9.11z" fill="#97b7dc"/><path d="m920.38 267.31h2.98v-1.33h-2.98z" fill="#81a8d5"/><path d="m920.36 254.82h.98v-.81h-.98z" fill="#f9d0d5"/><path d="m893.77 244.41h7.55v-11.99h-7.55z" fill="#f1a5af"/><path d="m893.78 244.8h7.92v-12.78h-7.92v.81h7.16v11.16h-7.16z" fill="#eabfc5"/><path d="m893.77 245.32h9.11v-1.33h-9.11z" fill="#eabfc5"/><path d="m893.77 245.32h2.98v-1.33h-2.98z" fill="#f9d0d5"/><path d="m893.77 232.82h.98v-.81h-.98z" fill="#f9d0d5"/><path d="m893.77 266.81h7.55v-11.99h-7.55z" fill="#f1a5af"/><path d="m893.78 267.21h7.92v-12.8h-7.92v.83h7.16v11.16h-7.16z" fill="#eabfc5"/><path d="m893.77 267.73h9.11v-1.33h-9.11z" fill="#eabfc5"/><path d="m893.77 267.73h2.98v-1.33h-2.98z" fill="#f9d0d5"/><path d="m893.77 255.23h.98v-.81h-.98z" fill="#f9d0d5"/><path d="m853.41 232.02h-7.54v11.99h7.54z" fill="#6b99ce"/><path d="m853.4 244.41h-7.92v-12.8h7.92v.81h-7.15v11.18h7.15z" fill="#adc6e4"/><path d="m853.4 243.6h-9.11v1.33h9.11z" fill="#adc6e4"/><path d="m853.4 243.6h-2.98v1.33h2.98z" fill="#9ab9dd"/><path d="m853.4 231.61h-.98v.81h.98z" fill="#9ab9dd"/><path d="m853.41 254.41h-7.54v11.99h7.54z" fill="#6b99ce"/><path d="m853.4 266.81h-7.92v-12.8h7.92v.81h-7.15v11.18h7.15z" fill="#adc6e4"/><path d="m853.4 266h-9.11v1.33h9.11z" fill="#adc6e4"/><path d="m853.4 266h-2.98v1.33h2.98z" fill="#9ab9dd"/><path d="m853.4 254.01h-.98v.81h.98z" fill="#adc6e4"/><path d="m873.68 232.42h-7.55v11.99h7.55z" fill="#9e2d3c"/><path d="m873.67 244.8h-7.92v-12.78h7.92v.81h-7.16v11.16h7.16z" fill="#f9d0d5"/><path d="m873.67 243.99h-9.11v1.33h9.11z" fill="#f9d0d5"/><path d="m873.67 243.99h-2.98v1.33h2.98z" fill="#f1a5af"/><path d="m873.67 232.02h-.98v.81h.98z" fill="#f1a5af"/><path d="m873.68 254.82h-7.55v11.99h7.55z" fill="#9e2d3c"/><path d="m873.67 267.21h-7.92v-12.8h7.92v.83h-7.16v11.16h7.16z" fill="#f9d0d5"/><path d="m873.67 266.4h-9.11v1.33h9.11z" fill="#f9d0d5"/><path d="m873.67 266.4h-2.98v1.33h2.98z" fill="#f1a5af"/><path d="m873.67 254.41h-.98v.81h.98z" fill="#f1a5af"/><path d="m787.07 278.44h30.25v-41.95h-30.25z" fill="#eabfc5"/><path d="m787.04 237.81 22.06-19.01 22.06 19.01.99-1.31-23.05-19.87-23.05 19.87z" fill="#89a6c7"/><path d="m817.32 278.44h43.19v-42.77l-20.85-17.96-22.35 17.96v42.77z" fill="#e9d4d7"/><path d="m817.32 237.81 22.06-19.01 22.06 19.01 1.01-1.31-23.07-19.87-23.05 19.87z" fill="#eabfc5"/><path d="m786.04 236.5h30.28l23.05-19.87h-30.28z" fill="#f7a11e"/><path d="m786.04 236.5h30.28l.99 1.31h-30.28z" fill="#9e2d3c"/><path d="m837.34 237.57h5.67v-9.01h-5.67z" fill="#f1a5af"/><path d="m837.34 237.87h5.96v-9.62h-5.96v.61h5.39v8.4h-5.39z" fill="#eabfc5"/><path d="m837.34 238.27h6.85v-.99h-6.85z" fill="#eabfc5"/><path d="m837.34 238.27h2.25v-.99h-2.25z" fill="#f9d0d5"/><path d="m837.34 228.86h.73v-.61h-.73z" fill="#f9d0d5"/><path d="m847.35 252.53h5.67v-9.01h-5.67z" fill="#f1a5af"/><path d="m847.35 252.82h5.96v-9.62h-5.96v.61h5.39v8.41h-5.39z" fill="#eabfc5"/><path d="m847.35 253.2h6.85v-.99h-6.85z" fill="#eabfc5"/><path d="m847.35 253.2h2.25v-.99h-2.25z" fill="#f9d0d5"/><path d="m847.35 243.81h.73v-.61h-.73z" fill="#f9d0d5"/><path d="m847.35 270.08h6.85v-.99h-6.85z" fill="#c3d5eb"/><path d="m847.35 270.08h2.25v-.99h-2.25z" fill="#adc6e4"/><path d="m847.35 260.67h.74v-.61h-.74z" fill="#adc6e4"/><path d="m827.34 252.84h5.67v-9.01h-5.67z" fill="#f1a5af"/><path d="m827.34 253.13h5.96v-9.62h-5.96v.61h5.39v8.41h-5.39z" fill="#eabfc5"/><path d="m827.34 253.51h6.85v-.99h-6.85z" fill="#eabfc5"/><path d="m827.34 253.51h2.25v-.99h-2.25z" fill="#f9d0d5"/><path d="m827.34 244.12h.73v-.61h-.73z" fill="#f9d0d5"/><path d="m827.34 269.68h5.67v-9.01h-5.67z" fill="#6b99ce"/><path d="m827.34 269.99h5.96v-9.62h-5.96v.61h5.39v8.4h-5.39z" fill="#c3d5eb"/><path d="m827.34 270.38h6.85v-.99h-6.85z" fill="#c3d5eb"/><path d="m827.34 270.38h2.25v-.99h-2.25z" fill="#adc6e4"/><path d="m827.34 260.98h.73v-.61h-.73z" fill="#adc6e4"/><path d="m796.96 243.51h-5.67v9.01h5.67z" fill="#9e2d3c"/><path d="m796.96 252.82h-5.96v-9.62h5.96v.61h-5.38v8.41h5.38z" fill="#f9d0d5"/><path d="m796.94 252.22h-6.85v.99h6.85z" fill="#f9d0d5"/><path d="m796.96 252.22h-2.25v.99h2.25z" fill="#f1a5af"/><path d="m796.96 243.2h-.73v.61h.73z" fill="#f1a5af"/><path d="m796.96 260.36h-5.67v9.01h5.67z" fill="#9e2d3c"/><path d="m796.96 269.68h-5.96v-9.62h5.96v.61h-5.38v8.4h5.38z" fill="#f9d0d5"/><path d="m796.94 269.07h-6.85v.99h6.85z" fill="#adc6e4"/><path d="m796.96 269.07h-2.25v.99h2.25z" fill="#9ab9dd"/><path d="m796.96 260.06h-.73v.61h.73z" fill="#f1a5af"/><path d="m812.21 243.81h-5.67v9.01h5.67z" fill="#9e2d3c"/><path d="m812.21 253.13h-5.96v-9.62h5.96v.61h-5.39v8.41h5.39z" fill="#f9d0d5"/><path d="m812.21 252.53h-6.85v.99h6.85z" fill="#f9d0d5"/><path d="m812.21 252.53h-2.25v.99h2.25z" fill="#f1a5af"/><path d="m812.21 243.51h-.73v.61h.73z" fill="#f1a5af"/><path d="m812.21 260.67h-5.67v9.01h5.67z" fill="#9e2d3c"/><path d="m812.21 269.99h-5.96v-9.62h5.96v.61h-5.39v8.4h5.39z" fill="#f9d0d5"/><path d="m812.21 269.37h-6.85v.99h6.85z" fill="#adc6e4"/><path d="m812.21 269.37h-2.25v.99h2.25z" fill="#9ab9dd"/><path d="m812.21 260.36h-.73v.61h.73z" fill="#f1a5af"/><path d="m562.86 278.44h30.25v-41.95h-30.25z" fill="#eabfc5"/><path d="m562.83 237.81 22.06-19.01 22.06 19.01.99-1.31-23.05-19.87-23.07 19.87z" fill="#89a6c7"/><path d="m593.11 278.44h43.19v-42.77l-20.85-17.96-22.34 17.96z" fill="#e9d4d7"/><path d="m593.11 237.81 22.06-19.01 22.06 19.01.99-1.31-23.05-19.87-23.07 19.87z" fill="#eabfc5"/><path d="m561.82 236.5h30.28l23.07-19.87h-30.28z" fill="#f05a5f"/><path d="m561.82 236.5h30.28l1.01 1.31h-30.28z" fill="#9e2d3c"/><path d="m613.14 237.57h5.67v-9.01h-5.67z" fill="#f1a5af"/><path d="m613.12 237.87h5.96v-9.62h-5.96v.61h5.39v8.4h-5.39z" fill="#eabfc5"/><path d="m613.14 238.27h6.85v-.99h-6.85z" fill="#eabfc5"/><path d="m613.14 238.27h2.25v-.99h-2.25z" fill="#f9d0d5"/><path d="m613.14 228.86h.74v-.61h-.74z" fill="#f9d0d5"/><path d="m623.15 252.53h5.67v-9.01h-5.67z" fill="#f1a5af"/><path d="m623.13 252.82h5.96v-9.62h-5.96v.61h5.39v8.41h-5.39z" fill="#eabfc5"/><path d="m623.15 253.2h6.85v-.99h-6.85z" fill="#eabfc5"/><path d="m623.15 253.2h2.25v-.99h-2.25z" fill="#f9d0d5"/><path d="m623.14 243.81h.74v-.61h-.74z" fill="#f9d0d5"/><path d="m623.15 269.37h5.67v-9.01h-5.67z" fill="#f1a5af"/><path d="m623.13 269.68h5.96v-9.62h-5.96v.61h5.39v8.4h-5.39z" fill="#eabfc5"/><path d="m623.15 270.08h6.85v-.99h-6.85z" fill="#4a8bd6"/><path d="m623.15 270.08h2.25v-.99h-2.25z" fill="#0760c7"/><path d="m623.14 260.67h.74v-.61h-.74z" fill="#f9d0d5"/><path d="m603.13 252.84h5.67v-9.01h-5.67z" fill="#f1a5af"/><path d="m603.12 253.12h5.96v-9.62h-5.96v.61h5.4v8.41h-5.4z" fill="#eabfc5"/><path d="m603.13 253.51h6.85v-.99h-6.85z" fill="#eabfc5"/><path d="m603.13 253.51h2.25v-.99h-2.25z" fill="#f9d0d5"/><path d="m603.13 244.12h.74v-.61h-.74z" fill="#f9d0d5"/><path d="m603.13 269.68h5.67v-9.01h-5.67z" fill="#6b99ce"/><path d="m603.12 269.99h5.96v-9.62h-5.96v.61h5.4v8.4h-5.4z" fill="#4a8bd6"/><path d="m603.13 270.38h6.85v-.99h-6.85z" fill="#4a8bd6"/><path d="m603.13 270.38h2.25v-.99h-2.25z" fill="#0760c7"/><path d="m603.13 260.98h.74v-.61h-.74z" fill="#0760c7"/><path d="m572.74 243.51h-5.67v9.01h5.67z" fill="#9e2d3c"/><path d="m572.74 252.82h-5.96v-9.62h5.96v.61h-5.38v8.41h5.38z" fill="#f9d0d5"/><path d="m572.74 252.22h-6.85v.99h6.85z" fill="#f9d0d5"/><path d="m572.74 252.22h-2.25v.99h2.25z" fill="#9ab9dd"/><path d="m572.74 243.2h-.74v.61h.74z" fill="#f1a5af"/><path d="m572.74 260.36h-5.67v9.01h5.67z" fill="#6b99ce"/><path d="m572.74 269.68h-5.96v-9.62h5.96v.61h-5.38v8.4h5.38z" fill="#adc6e4"/><path d="m572.74 269.07h-6.85v.99h6.85z" fill="#adc6e4"/><path d="m572.74 269.07h-2.25v.99h2.25z" fill="#9ab9dd"/><path d="m572.74 260.06h-.73v.61h.73z" fill="#adc6e4"/><path d="m588 243.81h-5.67v9.01h5.67z" fill="#9e2d3c"/><path d="m588 253.13h-5.96v-9.62h5.96v.61h-5.39v8.41h5.39z" fill="#f9d0d5"/><path d="m587.98 252.53h-6.85v.99h6.85z" fill="#adc6e4"/><path d="m588 252.53h-2.25v.99h2.25z" fill="#9ab9dd"/><path d="m587.99 243.51h-.74v.61h.74z" fill="#f1a5af"/><path d="m588 260.67h-5.67v9.01h5.67z" fill="#6b99ce"/><path d="m588 269.99h-5.96v-9.62h5.96v.61h-5.39v8.4h5.39z" fill="#adc6e4"/><path d="m587.98 269.37h-6.85v.99h6.85z" fill="#adc6e4"/><path d="m588 269.37h-2.25v.99h2.25z" fill="#9ab9dd"/><path d="m587.99 260.36h-.74v.61h.74z" fill="#adc6e4"/><path d="m15.05 278.25h62.47v-121.78h-62.47z" fill="#9e2d3c"/><path d="m40.16 278.25h54.77v-121.78h-54.77z" fill="#eabfc5"/><path d="m40.14 156.91h49.7v-6.44h-49.7z" fill="#f9d0d5"/><path d="m19.39 156.94h20.76v-6.44h-20.76z" fill="#9e2d3c"/><path d="m40.16 157.82h55.36v-3.31h-55.36z" fill="#eabfc5"/><path d="m13.71 157.82h26.43v-3.31h-26.43z" fill="#f9d0d5"/><path d="m40.13 160.77h54.78v-2.95h-54.78z" fill="#f9d0d5"/><path d="m15.05 160.77h25.1v-2.95h-25.1z" fill="#9e2d3c"/><path d="m49.5 186.91h9.27v-14.74h-9.27z" fill="#9e2d3c"/><path d="m49.5 187.4h9.73v-15.73h-9.73v.99h8.8v13.74h-8.8v.99z" fill="#f9d0d5"/><path d="m49.5 188.03h11.2v-1.63h-11.2z" fill="#f9d0d5"/><path d="m49.49 188.03h3.67v-1.63h-3.67z" fill="#f9d0d5"/><path d="m49.49 172.67h1.21v-.99h-1.21z" fill="#f9d0d5"/><path d="m77.52 186.58h9.27v-14.74h-9.27z" fill="#9e2d3c"/><path d="m77.52 187.08h9.75v-15.73h-9.75v.99h8.81v13.74h-8.81v.99z" fill="#f9d0d5"/><path d="m77.53 187.71h11.2v-1.63h-11.2z" fill="#f9d0d5"/><path d="m77.52 187.71h3.67v-1.63h-3.67z" fill="#f9d0d5"/><path d="m77.52 172.35h1.21v-.99h-1.21z" fill="#f9d0d5"/><path d="m58.77 198.61h-9.27v14.74h9.27z" fill="#9e2d3c"/><path d="m49.5 213.85h9.73v-15.73h-9.73v.99h8.8v13.73h-8.8z" fill="#f9d0d5"/><path d="m60.7 212.84h-11.2v1.63h11.2z" fill="#f9d0d5"/><path d="m53.17 212.84h-3.67v1.63h3.67z" fill="#f9d0d5"/><path d="m50.71 198.12h-1.21v.99h1.21z" fill="#f9d0d5"/><path d="m86.79 198.31h-9.27v14.74h9.27z" fill="#9e2d3c"/><path d="m77.52 213.53h9.75v-15.73h-9.75v.99h8.81v13.74h-8.81v.99z" fill="#f9d0d5"/><path d="m88.72 212.54h-11.2v1.63h11.2z" fill="#aec7e4"/><path d="m81.19 212.54h-3.67v1.63h3.67z" fill="#89aed8"/><path d="m78.73 197.8h-1.21v.99h1.21z" fill="#f9d0d5"/><path d="m86.79 225.23h-9.27v14.74h9.27z" fill="#6b99ce"/><path d="m77.52 240.45h9.75v-15.73h-9.75v1.01h8.81v13.73h-8.81z" fill="#aec7e4"/><path d="m88.72 239.46h-11.2v1.63h11.2z" fill="#aec7e4"/><path d="m81.19 239.46h-3.67v1.63h3.67z" fill="#89aed8"/><path d="m78.73 224.72h-1.21v.99h1.21z" fill="#89aed8"/><path d="m49.5 266.24h9.27v-14.74h-9.27z" fill="#6b99ce"/><path d="m49.5 266.73h9.73v-15.73h-9.73v1.01h8.8v13.73h-8.8z" fill="#aec7e4"/><path d="m49.5 267.37h11.2v-1.63h-11.2z" fill="#aec7e4"/><path d="m49.49 267.37h3.67v-1.63h-3.67z" fill="#89aed8"/><path d="m49.49 252.01h1.21v-.99h-1.21z" fill="#89aed8"/><path d="m77.52 265.92h9.27v-14.74h-9.27z" fill="#6b99ce"/><path d="m77.52 266.43h9.75v-15.73h-9.75v.99h8.81v13.73h-8.81z" fill="#aec7e4"/><path d="m77.53 267.05h11.2v-1.63h-11.2z" fill="#aec7e4"/><path d="m77.52 267.05h3.67v-1.63h-3.67z" fill="#89aed8"/><path d="m77.52 251.68h1.21v-.99h-1.21z" fill="#89aed8"/><path d="m435.24 279.79h62.47v-121.78h-62.47z" fill="#9e2d3c"/><path d="m460.33 279.79h54.77v-121.78h-54.77z" fill="#edcacf"/><path d="m460.32 158.45h49.7v-6.44h-49.7z" fill="#578bc7"/><path d="m439.58 158.48h20.76v-6.44h-20.76z" fill="#294f7a"/><path d="m460.35 159.37h55.36v-3.31h-55.36z" fill="#e9d4d7"/><path d="m433.9 159.37h26.43v-3.31h-26.43z" fill="#f9d0d5"/><path d="m435.24 162.31h25.1v-2.95h-25.1z" fill="#9e2d3c"/><path d="m469.69 188.44h9.27v-14.74h-9.27z" fill="#9e2d3c"/><path d="m469.68 188.94h9.75v-15.73h-9.75v.99h8.81v13.74h-8.81v.99z" fill="#f9d0d5"/><path d="m469.69 189.57h11.2v-1.63h-11.2z" fill="#f9d0d5"/><path d="m469.68 189.57h3.67v-1.63h-3.67z" fill="#f9d0d5"/><path d="m469.68 174.21h1.21v-.99h-1.21z" fill="#f9d0d5"/><path d="m497.7 188.14h9.27v-14.74h-9.27z" fill="#9e2d3c"/><path d="m497.71 188.62h9.73v-15.73h-9.73v1.01h8.8v13.73h-8.8z" fill="#f9d0d5"/><path d="m497.71 189.26h11.2v-1.63h-11.2z" fill="#f9d0d5"/><path d="m497.7 189.26h3.67v-1.63h-3.67z" fill="#f9d0d5"/><path d="m497.7 173.9h1.21v-.99h-1.21z" fill="#f9d0d5"/><path d="m478.95 200.17h-9.27v14.74h9.27z" fill="#9e2d3c"/><path d="m469.68 215.39h9.75v-15.73h-9.75v.99h8.81v13.74h-8.81v.99z" fill="#f9d0d5"/><path d="m480.88 214.4h-11.2v1.63h11.2z" fill="#f9d0d5"/><path d="m473.35 214.4h-3.67v1.63h3.67z" fill="#f9d0d5"/><path d="m470.89 199.66h-1.21v.99h1.21z" fill="#f9d0d5"/><path d="m506.98 199.85h-9.27v14.74h9.27z" fill="#9e2d3c"/><path d="m497.71 215.07h9.73v-15.73h-9.73v.99h8.8v13.74h-8.8v.99z" fill="#f9d0d5"/><path d="m508.91 214.08h-11.2v1.63h11.2z" fill="#f9d0d5"/><path d="m501.38 214.08h-3.67v1.63h3.67z" fill="#f9d0d5"/><path d="m498.92 199.34h-1.21v.99h1.21z" fill="#f9d0d5"/><path d="m478.95 226.6h-9.27v14.73h9.27z" fill="#9e2d3c"/><path d="m469.68 241.84h9.75v-15.73h-9.75v.99h8.81v13.74h-8.81v.99z" fill="#f9d0d5"/><path d="m480.88 240.85h-11.2v1.63h11.2z" fill="#f9d0d5"/><path d="m473.35 240.85h-3.67v1.63h3.67z" fill="#f9d0d5"/><path d="m470.89 226.11h-1.21v.99h1.21z" fill="#f9d0d5"/><path d="m506.98 226.77h-9.27v14.73h9.27z" fill="#9e2d3c"/><path d="m497.71 242.01h9.73v-15.73h-9.73v.99h8.8v13.73h-8.8z" fill="#f9d0d5"/><path d="m508.91 241h-11.2v1.63h11.2z" fill="#f9d0d5"/><path d="m501.38 241h-3.67v1.63h3.67z" fill="#f9d0d5"/><path d="m498.92 226.28h-1.21v.99h1.21z" fill="#f9d0d5"/><path d="m469.69 267.79h9.27v-14.74h-9.27z" fill="#9e2d3c"/><path d="m469.68 268.29h9.75v-15.73h-9.75v.99h8.81v13.73h-8.81z" fill="#f9d0d5"/><path d="m469.69 268.92h11.2v-1.63h-11.2z" fill="#f9d0d5"/><path d="m469.68 268.92h3.67v-1.63h-3.67z" fill="#f9d0d5"/><path d="m469.68 253.55h1.21v-.99h-1.21z" fill="#f9d0d5"/><path d="m497.7 267.46h9.27v-14.74h-9.27z" fill="#9e2d3c"/><path d="m497.71 267.97h9.73v-15.73h-9.73v.99h8.8v13.74h-8.8v.99z" fill="#f9d0d5"/><path d="m497.71 268.59h11.2v-1.63h-11.2z" fill="#f9d0d5"/><path d="m497.7 268.59h3.67v-1.63h-3.67z" fill="#89aed8"/><path d="m497.7 253.23h1.21v-.99h-1.21z" fill="#f9d0d5"/><path d="m321.9 278.45h40.2v-55.74h-40.2z" fill="#eabfc5"/><path d="m321.85 224.43 29.32-25.24 29.31 25.24 1.33-1.73-30.64-26.4-30.64 26.4z" fill="#89a6c7"/><path d="m362.1 278.44h57.4v-56.85l-27.72-23.85-29.69 23.85v56.85z" fill="#e9d4d7"/><path d="m362.1 224.43 29.32-25.24 29.3 25.24 1.34-1.73-30.64-26.4-30.64 26.4z" fill="#eabfc5"/><path d="m320.53 222.71h40.24l30.64-26.4h-40.24z" fill="#f7a11e"/><path d="m320.53 222.71h40.24l1.33 1.73h-40.24l-1.32-1.73z" fill="#9e2d3c"/><path d="m388.7 224.13h7.55v-11.99h-7.55z" fill="#f1a5af"/><path d="m388.7 224.52h7.92v-12.78h-7.92v.81h7.15v11.16h-7.15z" fill="#eabfc5"/><path d="m388.7 225.05h9.11v-1.33h-9.11z" fill="#eabfc5"/><path d="m388.7 225.05h2.98v-1.33h-2.98z" fill="#f9d0d5"/><path d="m388.7 212.55h.98v-.81h-.98z" fill="#f9d0d5"/><path d="m401.99 243.99h7.54v-11.99h-7.54z" fill="#f1a5af"/><path d="m402.01 244.41h7.92v-12.8h-7.92v.81h7.16v11.18h-7.16z" fill="#eabfc5"/><path d="m401.99 244.91h9.11v-1.33h-9.11z" fill="#eabfc5"/><path d="m401.99 244.91h2.98v-1.33h-2.98z" fill="#f9d0d5"/><path d="m401.99 232.42h.98v-.81h-.98z" fill="#f9d0d5"/><path d="m401.99 266.41h7.54v-11.99h-7.54z" fill="#f1a5af"/><path d="m402.01 266.81h7.92v-12.8h-7.92v.81h7.16v11.18h-7.16z" fill="#eabfc5"/><path d="m401.99 267.31h9.11v-1.33h-9.11z" fill="#c3d5eb"/><path d="m401.99 267.31h2.98v-1.33h-2.98z" fill="#adc6e4"/><path d="m401.99 254.82h.98v-.81h-.98z" fill="#f9d0d5"/><path d="m375.4 244.41h7.54v-11.99h-7.54z" fill="#f1a5af"/><path d="m375.4 244.8h7.92v-12.78h-7.92v.81h7.16v11.16h-7.16z" fill="#eabfc5"/><path d="m375.41 245.32h9.11v-1.33h-9.11z" fill="#eabfc5"/><path d="m375.41 245.32h2.98v-1.33h-2.98z" fill="#f9d0d5"/><path d="m375.41 232.82h.98v-.81h-.98z" fill="#f9d0d5"/><path d="m375.4 266.81h7.54v-11.99h-7.54z" fill="#f1a5af"/><path d="m375.4 267.21h7.92v-12.8h-7.92v.83h7.16v11.16h-7.16z" fill="#eabfc5"/><path d="m375.41 267.73h9.11v-1.33h-9.11z" fill="#eabfc5"/><path d="m375.41 267.73h2.98v-1.33h-2.98z" fill="#f9d0d5"/><path d="m375.41 255.23h.98v-.81h-.98z" fill="#f9d0d5"/><path d="m335.04 232.02h-7.54v11.99h7.54z" fill="#6b99ce"/><path d="m335.03 244.41h-7.92v-12.8h7.92v.81h-7.15v11.18h7.15z" fill="#adc6e4"/><path d="m335.03 243.6h-9.11v1.33h9.11z" fill="#adc6e4"/><path d="m335.03 243.6h-2.98v1.33h2.98z" fill="#9ab9dd"/><path d="m335.03 231.61h-.98v.81h.98z" fill="#9ab9dd"/><path d="m335.04 254.41h-7.54v11.99h7.54z" fill="#6b99ce"/><path d="m335.03 266.81h-7.92v-12.8h7.92v.81h-7.15v11.18h7.15z" fill="#adc6e4"/><path d="m335.03 266h-9.11v1.33h9.11z" fill="#adc6e4"/><path d="m335.03 266h-2.98v1.33h2.98z" fill="#9ab9dd"/><path d="m335.03 254.01h-.98v.81h.98z" fill="#adc6e4"/><path d="m355.3 232.42h-7.55v11.99h7.55z" fill="#9e2d3c"/><path d="m355.3 244.8h-7.92v-12.78h7.92v.81h-7.16v11.16h7.16z" fill="#f9d0d5"/><path d="m355.3 243.99h-9.11v1.33h9.11z" fill="#f9d0d5"/><path d="m355.3 243.99h-2.98v1.33h2.98z" fill="#f1a5af"/><path d="m355.3 232.02h-.98v.81h.98z" fill="#f1a5af"/><path d="m355.3 254.82h-7.55v11.99h7.55z" fill="#9e2d3c"/><path d="m355.3 267.21h-7.92v-12.8h7.92v.83h-7.16v11.16h7.16z" fill="#f9d0d5"/><path d="m355.3 266.4h-9.11v1.33h9.11z" fill="#f9d0d5"/><path d="m355.3 266.4h-2.98v1.33h2.98z" fill="#9ab9dd"/><path d="m355.3 254.41h-.98v.81h.98z" fill="#f1a5af"/><path d="m268.7 278.44h30.25v-41.95h-30.25z" fill="#eabfc5"/><path d="m268.67 237.81 22.06-19.01 22.06 19.01.99-1.31-23.05-19.87-23.07 19.87z" fill="#89a6c7"/><path d="m298.95 278.44h43.19v-42.77l-20.85-17.96-22.35 17.96v42.77z" fill="#e9d4d7"/><path d="m298.95 237.81 22.06-19.01 22.06 19.01.99-1.31-23.05-19.87-23.07 19.87z" fill="#eabfc5"/><path d="m267.66 236.5h30.28l23.07-19.87h-30.28z" fill="#578bc7"/><path d="m267.66 236.5h30.28l1.01 1.31h-30.28z" fill="#294f7a"/><path d="m318.96 237.57h5.67v-9.01h-5.67z" fill="#f1a5af"/><path d="m318.97 237.87h5.96v-9.62h-5.96v.61h5.39v8.4h-5.39z" fill="#eabfc5"/><path d="m318.97 238.27h6.85v-.99h-6.85z" fill="#eabfc5"/><path d="m318.96 238.27h2.25v-.99h-2.25z" fill="#f9d0d5"/><path d="m318.96 228.86h.73v-.61h-.73z" fill="#f9d0d5"/><path d="m328.96 252.53h5.67v-9.01h-5.67z" fill="#f1a5af"/><path d="m328.98 252.82h5.96v-9.62h-5.96v.61h5.39v8.41h-5.39z" fill="#eabfc5"/><path d="m328.98 253.2h6.85v-.99h-6.85z" fill="#eabfc5"/><path d="m328.96 253.2h2.25v-.99h-2.25z" fill="#f9d0d5"/><path d="m328.96 243.81h.74v-.61h-.74z" fill="#f9d0d5"/><path d="m328.96 269.37h5.67v-9.01h-5.67z" fill="#f1a5af"/><path d="m328.98 269.68h5.96v-9.62h-5.96v.61h5.38v8.4h-5.38z" fill="#eabfc5"/><path d="m328.98 270.08h6.85v-.99h-6.85z" fill="#eabfc5"/><path d="m328.96 270.08h2.25v-.99h-2.25z" fill="#adc6e4"/><path d="m328.96 260.67h.74v-.61h-.74z" fill="#f9d0d5"/><path d="m308.95 252.84h5.67v-9.01h-5.67z" fill="#f1a5af"/><path d="m308.96 253.13h5.96v-9.62h-5.96v.61h5.39v8.41h-5.39z" fill="#eabfc5"/><path d="m308.97 253.51h6.85v-.99h-6.85z" fill="#eabfc5"/><path d="m308.95 253.51h2.25v-.99h-2.25z" fill="#f9d0d5"/><path d="m308.95 244.12h.74v-.61h-.74z" fill="#f9d0d5"/><path d="m308.95 269.68h5.67v-9.01h-5.67z" fill="#f1a5af"/><path d="m308.96 269.99h5.96v-9.62h-5.96v.61h5.39v8.4h-5.39z" fill="#eabfc5"/><path d="m308.97 270.38h6.85v-.99h-6.85z" fill="#c3d5eb"/><path d="m308.95 270.38h2.25v-.99h-2.25z" fill="#adc6e4"/><path d="m308.95 260.98h.74v-.61h-.74z" fill="#f9d0d5"/><path d="m278.57 243.51h-5.67v9.01h5.67z" fill="#9e2d3c"/><path d="m278.57 252.82h-5.95v-9.62h5.95v.61h-5.38v8.41h5.38z" fill="#f9d0d5"/><path d="m278.57 252.22h-6.85v.99h6.85z" fill="#f9d0d5"/><path d="m278.59 252.22h-2.25v.99h2.25z" fill="#f1a5af"/><path d="m278.57 243.2h-.73v.61h.73z" fill="#f1a5af"/><path d="m278.57 260.36h-5.67v9.01h5.67z" fill="#9e2d3c"/><path d="m278.57 269.68h-5.95v-9.62h5.95v.61h-5.38v8.4h5.38z" fill="#f9d0d5"/><path d="m278.57 269.07h-6.85v.99h6.85z" fill="#adc6e4"/><path d="m278.59 269.07h-2.25v.99h2.25z" fill="#9ab9dd"/><path d="m278.57 260.06h-.73v.61h.73z" fill="#f9d0d5"/><path d="m293.83 243.81h-5.67v9.01h5.67z" fill="#9e2d3c"/><path d="m293.83 253.13h-5.96v-9.62h5.96v.61h-5.39v8.41h5.39z" fill="#f9d0d5"/><path d="m293.83 252.53h-6.85v.99h6.85z" fill="#f9d0d5"/><path d="m293.83 252.53h-2.25v.99h2.25z" fill="#f1a5af"/><path d="m293.83 243.51h-.74v.61h.74z" fill="#f1a5af"/><path d="m293.83 260.67h-5.67v9.01h5.67z" fill="#9e2d3c"/><path d="m293.83 269.99h-5.96v-9.62h5.96v.61h-5.39v8.4h5.39z" fill="#f9d0d5"/><path d="m293.83 269.37h-6.85v.99h6.85z" fill="#f9d0d5"/><path d="m293.83 269.37h-2.25v.99h2.25z" fill="#f1a5af"/><path d="m293.83 260.36h-.74v.61h.74z" fill="#f1a5af"/><path d="m91.73 229.87c2.02 2.66 3.23 6.03 3.23 9.71 0 3.91-1.37 7.47-3.63 10.2 3.43 2.15 5.74 6.08 5.74 10.61 0 4.81-2.61 8.92-6.38 10.96.81 1.68 1.31 3.56 1.31 5.57 0 .47-.09.92-.13 1.37h-42.37c0-6.23 4.35-11.33 9.99-12.2-1.53-2.09-2.48-4.69-2.48-7.54 0-6.31 4.45-11.44 10.19-12.22-.94-2.05-1.48-4.34-1.48-6.77 0-7.86 5.54-14.35 12.7-15.35-1.01-1.83-1.61-3.92-1.61-6.18 0-6.84 5.23-12.37 11.66-12.37s11.66 5.54 11.66 12.37c0 5.63-3.57 10.32-8.42 11.83v-.02z" fill="#1d5a25"/><path d="m83.91 279.04h37.75v-52.35h-37.75z" fill="#eabfc5"/><path d="m83.87 228.31 27.53-23.71 27.53 23.71 1.24-1.62-28.77-24.8-28.78 24.8z" fill="#89a6c7"/><path d="m121.65 279.04h53.92v-53.38l-26.02-22.42-27.9 22.42z" fill="#e9d4d7"/><path d="m121.65 228.31 27.53-23.71 27.53 23.71 1.25-1.62-28.78-24.8-28.77 24.8z" fill="#eabfc5"/><path d="m82.62 226.69h37.79l28.77-24.8h-37.78z" fill="#578bc7"/><path d="m82.62 226.69h37.79l1.24 1.62h-37.78z" fill="#9e2d3c"/><path d="m146.64 217.15h.92v-.76h-.92z" fill="#f9d0d5"/><path d="m159.13 246.7h7.08v-11.25h-7.08z" fill="#f1a5af"/><path d="m159.14 247.06h7.43v-12.02h-7.43v.76h6.71v10.49h-6.71v.76z" fill="#eabfc5"/><path d="m159.13 247.55h8.55v-1.24h-8.55z" fill="#eabfc5"/><path d="m159.13 247.55h2.81v-1.24h-2.81z" fill="#f9d0d5"/><path d="m159.12 235.82h.92v-.76h-.92z" fill="#f9d0d5"/><path d="m159.13 268.59h8.55v-1.24h-8.55z" fill="#97b7dc"/><path d="m159.13 268.59h2.81v-1.24h-2.81z" fill="#81a8d5"/><path d="m134.15 247.06h7.08v-11.25h-7.08z" fill="#f1a5af"/><path d="m134.16 247.44h7.43v-12.02h-7.43v.76h6.72v10.49h-6.72v.76z" fill="#eabfc5"/><path d="m134.16 247.93h8.55v-1.24h-8.55z" fill="#eabfc5"/><path d="m134.15 247.93h2.81v-1.24h-2.81z" fill="#f9d0d5"/><path d="m134.14 236.21h.92v-.76h-.92z" fill="#f9d0d5"/><path d="m134.15 268.1h7.08v-11.25h-7.08z" fill="#6b99ce"/><path d="m134.16 268.49h7.43v-12.02h-7.43v.76h6.72v10.49h-6.72v.76z" fill="#97b7dc"/><path d="m134.16 268.96h8.55v-1.24h-8.55z" fill="#97b7dc"/><path d="m134.15 268.96h2.81v-1.24h-2.81z" fill="#81a8d5"/><path d="m134.14 257.23h.92v-.76h-.92z" fill="#81a8d5"/><path d="m96.24 235.43h-7.08v11.25h7.08z" fill="#9e2d3c"/><path d="m96.24 247.06h-7.44v-12.02h7.44v.76h-6.72v10.49h6.72v.76z" fill="#f9d0d5"/><path d="m96.24 246.3h-8.55v1.24h8.55z" fill="#f9d0d5"/><path d="m96.24 246.3h-2.81v1.24h2.81z" fill="#f1a5af"/><path d="m96.24 235.05h-.92v.76h.92z" fill="#f1a5af"/><path d="m96.24 256.47h-7.08v11.25h7.08z" fill="#9e2d3c"/><path d="m96.24 268.11h-7.44v-12.02h7.44v.76h-6.72v10.49h6.72v.76z" fill="#f9d0d5"/><path d="m96.24 267.34h-8.55v1.24h8.55z" fill="#f9d0d5"/><path d="m96.24 267.34h-2.81v1.24h2.81z" fill="#f1a5af"/><path d="m96.24 256.09h-.92v.76h.92z" fill="#f1a5af"/><path d="m115.27 235.81h-7.08v11.25h7.08z" fill="#9e2d3c"/><path d="m115.27 247.44h-7.43v-12.02h7.43v.76h-6.72v10.49h6.72v.76z" fill="#f9d0d5"/><path d="m115.27 246.68h-8.55v1.24h8.55z" fill="#f9d0d5"/><path d="m115.29 246.68h-2.81v1.24h2.81z" fill="#f1a5af"/><path d="m115.27 235.43h-.92v.76h.92z" fill="#f1a5af"/><path d="m115.27 256.85h-7.08v11.25h7.08z" fill="#9e2d3c"/><path d="m115.27 268.49h-7.43v-12.02h7.43v.76h-6.72v10.49h6.72v.76z" fill="#f9d0d5"/><path d="m115.27 267.72h-8.55v1.24h8.55z" fill="#adc6e4"/><path d="m115.29 267.72h-2.81v1.24h2.81z" fill="#9ab9dd"/><path d="m115.27 256.47h-.92v.76h.92z" fill="#f1a5af"/><path d="m56.97 227.26c0 9.68-5.21 20.66-14.34 20.66s-22.91-6.49-22.91-16.17 4.65-21.65 13.78-21.65 23.47 7.47 23.47 17.15v.02z" fill="#39b44a"/><path d="m38.08 263.54c-.14 0-.26-.12-.26-.27v-45.29c0-.15.12-.28.26-.28s.26.12.26.28v45.29c0 .15-.12.27-.26.27z" fill="#123a18"/><path d="m38.08 239.54s-.1 0-.14-.05l-4.65-3.13c-.12-.08-.16-.24-.07-.38.07-.12.24-.17.36-.08l4.65 3.13c.12.08.16.24.07.38-.04.08-.13.12-.22.12z" fill="#123a18"/><path d="m38.08 226.62c-.07 0-.14-.03-.2-.11-.09-.12-.07-.29.04-.38l5.17-4.37c.12-.09.27-.08.36.05.09.12.07.29-.04.38l-5.17 4.37s-.1.06-.16.06z" fill="#123a18"/><path d="m38.08 223.17s-.12-.02-.17-.08l-2.04-1.92c-.1-.09-.12-.27-.03-.38s.26-.12.36-.02l2.04 1.92c.1.09.12.28.03.38-.06.06-.12.09-.19.09z" fill="#123a18"/><path d="m38.08 233.57c-.09 0-.17-.05-.22-.14-.07-.12-.03-.29.09-.37l2.04-1.3c.12-.08.27-.03.35.09.07.12.03.29-.09.37l-2.04 1.3s-.09.05-.13.05z" fill="#123a18"/><path d="m38.34 242.71c-.09 0-.17-.05-.22-.14-.07-.12-.03-.29.09-.38l2.04-1.3c.12-.08.27-.03.35.09.07.12.03.29-.09.37l-2.04 1.3s-.09.05-.13.05z" fill="#123a18"/><path d="m38.08 231.06s-.1-.01-.14-.05l-2.04-1.57c-.12-.09-.14-.26-.06-.38.09-.12.24-.15.36-.06l2.04 1.57c.12.09.14.26.06.38-.04.08-.13.11-.2.11h-.01z" fill="#123a18"/><path d="m52.44 230.07c0 2.61-2 4.73-4.46 4.73s-4.46-2.12-4.46-4.73 2-4.73 4.46-4.73 4.46 2.12 4.46 4.73z" fill="#1c5724"/><path d="m47.44 235.44c0 1.25-.96 2.28-2.15 2.28s-2.15-1.02-2.15-2.28.96-2.27 2.15-2.27 2.15 1.02 2.15 2.27z" fill="#1c5724"/><path d="m29.76 229.9c0 2.06-1.57 3.73-3.51 3.73s-3.51-1.67-3.51-3.73 1.57-3.73 3.51-3.73 3.51 1.66 3.51 3.73z" fill="#1c5724"/><path d="m570.97 215.64c0 12.11-9.73 22.71-21.15 22.71s-23.11-11.38-23.11-23.49 9.26-21.91 20.66-21.91 23.58 10.6 23.58 22.71v-.02z" fill="#39b44a"/><path d="m548.84 260.2c-.17 0-.32-.15-.32-.34v-56.67c0-.18.14-.34.32-.34s.32.15.32.34v56.67c0 .18-.14.34-.32.34z" fill="#1c5724"/><path d="m548.84 230.14s-.12-.02-.17-.05l-5.82-3.92c-.14-.11-.19-.3-.1-.47.1-.15.3-.2.45-.11l5.82 3.92c.14.11.19.31.1.47-.06.11-.16.15-.27.15z" fill="#1c5724"/><path d="m548.84 219.23c-.1 0-.19-.05-.26-.12-.12-.15-.09-.37.06-.47l6.48-5.47c.14-.12.35-.09.45.06.12.15.09.37-.06.47l-6.48 5.47s-.13.08-.2.08h.01z" fill="#1c5724"/><path d="m548.84 209.67c-.07 0-.16-.03-.22-.09l-2.56-2.41c-.13-.12-.14-.34-.03-.49.11-.14.32-.15.46-.03l2.56 2.41c.13.12.14.34.03.49-.06.08-.16.12-.24.12z" fill="#1c5724"/><path d="m548.84 213.26c-.11 0-.22-.06-.27-.17-.09-.17-.04-.37.11-.47l2.56-1.62c.16-.09.35-.05.45.12.09.17.04.37-.12.47l-2.56 1.62s-.12.05-.16.05z" fill="#1c5724"/><path d="m548.84 223.84s-.13-.02-.19-.06l-2.56-1.97c-.14-.11-.17-.32-.07-.47s.3-.18.45-.08l2.56 1.97c.14.11.17.32.07.47-.06.09-.16.14-.26.14z" fill="#1c5724"/><path d="m541.21 218.63c0 2.81-2.15 5.1-4.81 5.1s-4.81-2.27-4.81-5.1 2.14-5.1 4.81-5.1 4.81 2.28 4.81 5.1z" fill="#1c5724"/><path d="m541.84 205.99c0 1.18-.89 2.12-2 2.12s-2-.95-2-2.12.89-2.12 2-2.12 2 .95 2 2.12z" fill="#1c5724"/><path d="m561.36 223.62c0 1.99-1.51 3.59-3.38 3.59s-3.38-1.6-3.38-3.59 1.51-3.59 3.38-3.59 3.38 1.6 3.38 3.59z" fill="#1c5724"/><path d="m971.04 280.28v-13.01c-2.78-.81-5.7-1.25-8.73-1.25-8.83 0-16.82 3.7-22.75 9.68-3.22-7.15-10.08-12.08-18.04-12.08s-15.23 5.22-18.33 12.71c-4.59-2.57-9.8-4.03-15.36-4.03-6.74 0-12.99 2.15-18.21 5.82-5.18-12.14-16.69-20.6-30.08-20.6-10.22 0-19.35 4.92-25.4 12.64-3.67-4.57-9.13-7.45-15.22-7.45-6.98 0-13.13 3.8-16.72 9.56-5.99-8.92-15.79-14.75-26.9-14.75-6.88 0-13.27 2.24-18.56 6.06-5.53-11.16-16.54-18.78-29.24-18.78-13.94 0-25.84 9.18-30.7 22.13-3.34-2.64-7.46-4.21-11.94-4.21-8.02 0-14.93 5.02-18.13 12.25-4.94-4.34-11.27-6.93-18.18-6.93-5.26 0-10.16 1.54-14.4 4.17-2.2-14.4-13.94-25.4-28.13-25.4-11.29 0-21.02 6.98-25.66 17.07-3.51-3.27-8.11-5.25-13.16-5.25-9.98 0-18.23 7.76-19.75 17.88-2.65-1.36-5.6-2.15-8.74-2.15s-6.16.81-8.83 2.2c-3.04-7.64-10.15-12.98-18.46-12.98-9.21 0-16.95 6.61-19.28 15.59-5.24-6.78-13.19-11.12-22.09-11.12-6.29 0-12.08 2.18-16.8 5.83-3.92-11.16-14.04-19.13-25.93-19.13-10.7 0-19.97 6.44-24.58 15.87-5.59-4.58-12.57-7.33-20.17-7.33-9.72 0-18.43 4.47-24.48 11.57-3.37-6.7-10.02-11.29-17.68-11.29-8.7 0-16.08 5.9-18.85 14.12-3.63-3.91-8.68-6.35-14.27-6.35-.94 0-1.86.09-2.75.23-6.03-8.51-15.59-14.03-26.39-14.03-11.33 0-21.32 6.06-27.27 15.29-5.92-5.89-13.85-9.54-22.6-9.54-7.16 0-13.76 2.44-19.18 6.55-2.79-8.15-10.15-13.97-18.79-13.97-4.81 0-9.2 1.8-12.66 4.78-6.02-6.64-14.44-10.8-23.81-10.8-14.56 0-26.88 9.99-31.29 23.84-3.41-1.59-7.17-2.49-11.13-2.49-2.15 0-4.22.28-6.22.76-4.82-12.99-16.74-22.2-30.71-22.2-11.66 0-21.88 6.43-27.76 16.1-4.77-2.92-10.28-4.63-16.17-4.63-3.71 0-7.26.7-10.58 1.92v17.15h971.04-.01z" fill="#114e19"/><path d="m1179.34 102.45h-80.08v101.47h80.08z" fill="#f9d0d5"/><path d="m1143.69 112.96h-8.81v9.35h8.81z" fill="#f1a5af"/><path d="m1117.85 112.96h-8.82v9.35h8.82z" fill="#f1a5af"/><path d="m1169.55 112.96h-8.81v9.35h8.81z" fill="#f1a5af"/><path d="m1143.69 130.67h-8.81v9.35h8.81z" fill="#f1a5af"/><path d="m1117.85 130.67h-8.82v9.35h8.82z" fill="#f1a5af"/><path d="m1169.55 130.67h-8.81v9.35h8.81z" fill="#f1a5af"/><path d="m1143.69 148.39h-8.81v9.35h8.81z" fill="#f1a5af"/><path d="m1117.85 148.39h-8.82v9.35h8.82z" fill="#f1a5af"/><path d="m1169.55 148.39h-8.81v9.35h8.81z" fill="#f1a5af"/><path d="m1143.69 166.1h-8.81v9.35h8.81z" fill="#f1a5af"/><path d="m1117.85 166.1h-8.82v9.35h8.82z" fill="#f1a5af"/><path d="m1169.55 166.1h-8.81v9.35h8.81z" fill="#f1a5af"/><path d="m1143.69 183.8h-8.81v9.36h8.81z" fill="#f1a5af"/><path d="m1169.55 183.8h-8.81v9.36h8.81z" fill="#f1a5af"/><path d="m1099.26 102.45h-22.78v101.47h22.78z" fill="#f1a5af"/><path d="m1919.99 268.44h-971.05v10.78h971.05z" fill="#397bc7"/><path d="m1889.66 192.96c-2.62-.81-5.37-1.25-8.22-1.25-8.31 0-15.84 3.7-21.41 9.68-3.04-7.15-9.49-12.08-16.99-12.08s-14.34 5.22-17.25 12.71c-4.32-2.57-9.23-4.03-14.45-4.03-6.34 0-12.23 2.15-17.15 5.82-4.88-12.14-15.71-20.6-28.31-20.6-9.61 0-18.21 4.92-23.91 12.64-3.46-4.57-8.58-7.45-14.33-7.45-6.58 0-12.36 3.8-15.73 9.56-5.65-8.92-14.88-14.75-25.33-14.75-6.48 0-12.5 2.24-17.48 6.06-5.2-11.16-15.56-18.78-27.53-18.78-13.13 0-24.33 9.18-28.9 22.13-3.13-2.64-7.02-4.21-11.24-4.21-7.56 0-14.05 5.02-17.06 12.25-4.65-4.34-10.61-6.93-17.12-6.93-4.95 0-9.58 1.54-13.56 4.17-2.08-14.4-13.13-25.39-26.5-25.39-10.62 0-19.79 6.98-24.14 17.07-3.31-3.27-7.63-5.25-12.38-5.25-9.39 0-17.17 7.76-18.59 17.88-2.49-1.36-5.27-2.15-8.22-2.15s-5.8.81-8.31 2.2c-2.87-7.64-9.56-12.98-17.38-12.98-8.67 0-15.95 6.61-18.15 15.59-4.93-6.78-12.42-11.12-20.81-11.12-5.92 0-11.37 2.18-15.81 5.83-3.68-11.16-13.22-19.13-24.4-19.13-10.08 0-18.79 6.44-23.14 15.87-5.26-4.58-11.84-7.33-18.99-7.33-9.16 0-17.35 4.47-23.05 11.57-3.17-6.7-9.43-11.28-16.65-11.28-8.19 0-15.14 5.89-17.74 14.12-3.41-3.91-8.16-6.35-13.43-6.35-.88 0-1.74.09-2.59.23-5.67-8.51-14.67-14.03-24.85-14.03s-20.07 6.06-25.67 15.29c-5.57-5.89-13.05-9.54-21.28-9.54-6.74 0-12.96 2.44-18.06 6.55-2.63-8.15-9.54-13.97-17.69-13.97-4.52 0-8.67 1.8-11.91 4.78-5.66-6.64-13.61-10.8-22.42-10.8-13.69 0-25.3 9.99-29.44 23.84-3.21-1.59-6.74-2.49-10.47-2.49-2.01 0-3.97.27-5.84.76-4.55-12.99-15.77-22.2-28.92-22.2-10.97 0-20.6 6.43-26.13 16.1-4.48-2.92-9.67-4.63-15.23-4.63-3.5 0-6.84.7-9.96 1.92v30.45h914.15v-26.31h-.02z" fill="#114e19"/><path d="m1177.5 221.46-23.07-19.87h-30.28l-23.05 19.87.99 1.31h.03v40.63h73.45v-41.43l.92.79 1.01-1.31z" fill="#170a0c"/><path d="m1245.32 223.46-23.05-19.87h-30.28l-23.06 19.87 1.01 1.3h.03l-2.08 45.78 32.33 9.53-2.08-9.53 45.27-5.13v-41.43l.92.78z" fill="#170a0c"/><path d="m1421.04 226.49-23.07-19.87h-30.28l-23.05 19.87 1.01 1.31h.01v40.63h73.46v-41.43l.91.79 1.01-1.31z" fill="#2b8738"/><path d="m1559.88 220-23.05-19.87h-30.28l-23.07 19.87 1.01 1.31h.03v40.63h73.44v-41.43l.92.79 1-1.31z" fill="#170a0c"/><path d="m1657.57 223.46-23.07-19.87h-30.28l-23.05 19.87 1 1.3h.02v40.65h73.45v-41.43l.92.78z" fill="#170a0c"/><path d="m1795.92 228.82-23.07-19.87h-30.28l-23.05 19.87 1 1.31h.03v40.63h73.45v-41.43l.91.79 1.01-1.31z" fill="#170a0c"/><path d="m1912.07 225.67-23.05-19.87h-30.28l-23.07 19.87 1.01 1.3h.03v40.65h73.44v-41.44l.92.79z" fill="#170a0c"/><path d="m1504.45 228.19-23.06-19.87h-30.27l-23.07 19.87 1.01 1.31h.03v40.64h73.44v-41.43l.92.79z" fill="#170a0c"/><path d="m1119.3 236.76c-1.67 2.2-2.66 4.98-2.66 8.02 0 3.22 1.13 6.15 2.99 8.41-2.82 1.77-4.74 5.01-4.74 8.75 0 3.95 2.15 7.36 5.26 9.06-.66 1.39-1.08 2.93-1.08 4.6 0 .38.07.75.1 1.13h34.96c0-5.13-3.59-9.35-8.24-10.06 1.27-1.73 2.05-3.86 2.05-6.23 0-5.19-3.67-9.44-8.41-10.08.78-1.68 1.22-3.57 1.22-5.57 0-6.49-4.56-11.83-10.48-12.66.82-1.51 1.34-3.24 1.34-5.1 0-5.64-4.31-10.2-9.62-10.2s-9.62 4.57-9.62 10.2c0 4.64 2.94 8.52 6.94 9.76h-.01z" fill="#1d5a25"/><path d="m1580.68 253.63c-.98 1.28-1.57 2.92-1.57 4.7 0 1.89.67 3.62 1.76 4.93-1.66 1.04-2.78 2.95-2.78 5.13 0 2.32 1.27 4.32 3.08 5.31-.39.81-.63 1.72-.63 2.7 0 .23.04.44.06.66h20.51c0-3.01-2.1-5.48-4.83-5.91.74-1.01 1.19-2.28 1.19-3.65 0-3.05-2.16-5.54-4.94-5.91.45-.99.72-2.09.72-3.27 0-3.82-2.68-6.95-6.15-7.44.49-.89.78-1.89.78-2.99 0-3.31-2.53-5.99-5.64-5.99s-5.65 2.69-5.65 5.99c0 2.72 1.73 4.99 4.08 5.73h.01z" fill="#1d5a25"/><path d="m1459.19 236.76c-1.67 2.2-2.66 4.98-2.66 8.02 0 3.22 1.14 6.15 2.99 8.41-2.82 1.77-4.73 5.01-4.73 8.75 0 3.95 2.14 7.36 5.25 9.06-.66 1.39-1.08 2.93-1.08 4.6 0 .38.07.75.1 1.13h34.96c0-5.13-3.58-9.35-8.23-10.06 1.26-1.73 2.04-3.86 2.04-6.23 0-5.19-3.67-9.44-8.41-10.08.78-1.68 1.23-3.57 1.23-5.57 0-6.49-4.57-11.83-10.49-12.66.82-1.51 1.34-3.24 1.34-5.1 0-5.64-4.3-10.2-9.62-10.2s-9.61 4.57-9.61 10.2c0 4.64 2.93 8.52 6.94 9.76h-.02z" fill="#1d5a25"/><path d="m1697.81 236.76c-1.67 2.2-2.66 4.98-2.66 8.02 0 3.22 1.13 6.15 2.99 8.41-2.82 1.77-4.74 5.01-4.74 8.75 0 3.95 2.15 7.36 5.26 9.06-.66 1.39-1.08 2.93-1.08 4.6 0 .38.07.75.1 1.13h34.96c0-5.13-3.59-9.35-8.24-10.06 1.27-1.73 2.05-3.86 2.05-6.23 0-5.19-3.67-9.44-8.41-10.08.78-1.68 1.22-3.57 1.22-5.57 0-6.49-4.56-11.83-10.48-12.66.82-1.51 1.34-3.24 1.34-5.1 0-5.64-4.3-10.2-9.62-10.2s-9.62 4.57-9.62 10.2c0 4.64 2.94 8.52 6.94 9.76z" fill="#1d5a25"/><path d="m1884.18 236.76c-1.67 2.2-2.67 4.98-2.67 8.02 0 3.22 1.14 6.15 3 8.41-2.82 1.77-4.74 5.01-4.74 8.75 0 3.95 2.15 7.36 5.26 9.06-.67 1.39-1.08 2.93-1.08 4.6 0 .38.07.75.1 1.13h34.96c0-5.13-3.59-9.35-8.24-10.06 1.27-1.73 2.05-3.86 2.05-6.23 0-5.19-3.68-9.44-8.41-10.08.77-1.68 1.22-3.57 1.22-5.57 0-6.49-4.56-11.83-10.48-12.66.82-1.51 1.34-3.24 1.34-5.1 0-5.64-4.31-10.2-9.62-10.2s-9.62 4.57-9.62 10.2c0 4.64 2.94 8.52 6.94 9.76z" fill="#114e19"/><path d="m1219.01 250.8c1.08 1.42 1.72 3.22 1.72 5.19 0 2.09-.73 3.99-1.94 5.45 1.83 1.16 3.07 3.25 3.07 5.67 0 2.57-1.4 4.76-3.42 5.86.44.9.71 1.91.71 2.98 0 .24-.04.49-.07.73h-22.66c0-3.33 2.31-6.06 5.34-6.52-.82-1.11-1.33-2.5-1.33-4.03 0-3.38 2.38-6.12 5.46-6.54-.51-1.1-.79-2.32-.79-3.62 0-4.21 2.96-7.68 6.79-8.21-.53-.98-.86-2.09-.86-3.31 0-3.65 2.79-6.61 6.23-6.61s6.24 2.96 6.24 6.61c0 3.01-1.9 5.53-4.51 6.32z" fill="#1d5a25"/><path d="m1614.16 277.89h40.2v-55.74h-40.2z" fill="#eabfc5"/><path d="m1614.11 223.88 29.32-25.26 29.3 25.26 1.34-1.74-30.64-26.4-30.65 26.4z" fill="#89a6c7"/><path d="m1654.36 277.88h57.39v-56.84l-27.7-23.87-29.69 23.87z" fill="#e9d4d7"/><path d="m1654.36 223.88 29.3-25.26 29.31 25.26 1.33-1.74-30.64-26.4-30.64 26.4z" fill="#eabfc5"/><path d="m1612.78 222.14h40.24l30.64-26.4h-40.23z" fill="#578bc7"/><path d="m1612.78 222.14h40.24l1.34 1.74h-40.25z" fill="#294f7a"/><path d="m1680.95 223.56h7.54v-11.99h-7.54z" fill="#f1a5af"/><path d="m1680.96 223.97h7.92v-12.8h-7.92v.81h7.16v11.18h-7.16z" fill="#eabfc5"/><path d="m1680.95 224.48h9.11v-1.33h-9.11z" fill="#eabfc5"/><path d="m1680.95 224.48h2.98v-1.33h-2.98z" fill="#f9d0d5"/><path d="m1680.95 211.99h.98v-.81h-.98z" fill="#f9d0d5"/><path d="m1694.25 266.75h9.12v-1.33h-9.12z" fill="#c3d5eb"/><path d="m1694.25 266.75h2.98v-1.33h-2.98z" fill="#adc6e4"/><path d="m1667.66 243.84h7.55v-11.99h-7.55z" fill="#f1a5af"/><path d="m1667.66 244.25h7.92v-12.8h-7.92v.81h7.16v11.16h-7.16v.82z" fill="#eabfc5"/><path d="m1667.66 244.77h9.12v-1.33h-9.12z" fill="#eabfc5"/><path d="m1667.66 244.77h2.98v-1.33h-2.98z" fill="#f9d0d5"/><path d="m1667.66 232.27h.98v-.81h-.98z" fill="#f9d0d5"/><path d="m1667.66 266.24h7.55v-11.99h-7.55z" fill="#6b99ce"/><path d="m1667.66 266.64h7.92v-12.78h-7.92v.81h7.16v11.16h-7.16z" fill="#c3d5eb"/><path d="m1667.66 267.17h9.12v-1.33h-9.12z" fill="#c3d5eb"/><path d="m1667.66 267.17h2.98v-1.33h-2.98z" fill="#adc6e4"/><path d="m1667.66 254.67h.98v-.81h-.98z" fill="#adc6e4"/><path d="m1627.29 231.46h-7.55v11.99h7.55z" fill="#9e2d3c"/><path d="m1627.29 243.84h-7.92v-12.8h7.92v.81h-7.16v11.18h7.16z" fill="#f9d0d5"/><path d="m1627.29 243.03h-9.11v1.33h9.11z" fill="#f9d0d5"/><path d="m1627.29 243.03h-2.98v1.33h2.98z" fill="#f1a5af"/><path d="m1627.29 231.04h-.98v.81h.98z" fill="#f1a5af"/><path d="m1627.29 253.86h-7.55v11.99h7.55z" fill="#9e2d3c"/><path d="m1627.29 266.24h-7.92v-12.8h7.92v.81h-7.16v11.18h7.16z" fill="#f9d0d5"/><path d="m1627.29 265.43h-9.11v1.33h9.11z" fill="#adc6e4"/><path d="m1627.29 265.43h-2.98v1.33h2.98z" fill="#f1a5af"/><path d="m1627.29 253.44h-.98v.81h.98z" fill="#f1a5af"/><path d="m1647.56 231.85h-7.54v11.99h7.54z" fill="#9e2d3c"/><path d="m1647.56 244.25h-7.93v-12.8h7.93v.81h-7.17v11.16h7.17z" fill="#f9d0d5"/><path d="m1647.56 243.43h-9.11v1.33h9.11z" fill="#f9d0d5"/><path d="m1647.55 243.43h-2.98v1.33h2.98z" fill="#f1a5af"/><path d="m1647.56 231.46h-.98v.81h.98z" fill="#f1a5af"/><path d="m1647.56 254.25h-7.54v11.99h7.54z" fill="#6b99ce"/><path d="m1647.56 266.64h-7.93v-12.78h7.93v.81h-7.17v11.16h7.17z" fill="#adc6e4"/><path d="m1647.56 265.83h-9.11v1.33h9.11z" fill="#adc6e4"/><path d="m1647.55 265.83h-2.98v1.33h2.98z" fill="#9ab9dd"/><path d="m1647.56 253.86h-.98v.81h.98z" fill="#adc6e4"/><path d="m1789.21 277.89h40.2v-55.74h-40.2z" fill="#eabfc5"/><path d="m1789.17 223.88 29.31-25.26 29.31 25.26 1.33-1.74-30.64-26.4-30.64 26.4z" fill="#89a6c7"/><path d="m1829.41 277.88h57.4v-56.84l-27.7-23.87-29.7 23.87z" fill="#e9d4d7"/><path d="m1829.41 223.88 29.31-25.26 29.32 25.26 1.32-1.74-30.64-26.4-30.64 26.4z" fill="#eabfc5"/><path d="m1787.84 222.14h40.24l30.64-26.4h-40.24z" fill="#f05a5f"/><path d="m1787.84 222.14h40.24l1.33 1.74h-40.24z" fill="#9e2d3c"/><path d="m1856.02 223.56h7.54v-11.99h-7.54z" fill="#f1a5af"/><path d="m1856.01 223.97h7.92v-12.8h-7.92v.81h7.16v11.18h-7.16z" fill="#eabfc5"/><path d="m1856.02 224.48h9.11v-1.33h-9.11z" fill="#eabfc5"/><path d="m1856.01 224.48h2.99v-1.33h-2.99z" fill="#f9d0d5"/><path d="m1856.02 211.99h.97v-.81h-.97z" fill="#f9d0d5"/><path d="m1869.3 243.43h7.55v-11.99h-7.55z" fill="#f1a5af"/><path d="m1869.32 243.84h7.92v-12.8h-7.92v.81h7.15v11.18h-7.15z" fill="#eabfc5"/><path d="m1869.3 244.36h9.12v-1.33h-9.12z" fill="#eabfc5"/><path d="m1869.32 244.36h2.98v-1.33h-2.98z" fill="#f9d0d5"/><path d="m1869.3 231.87h.98v-.81h-.98z" fill="#f9d0d5"/><path d="m1869.3 265.83h7.55v-11.99h-7.55z" fill="#f1a5af"/><path d="m1869.32 266.24h7.92v-12.8h-7.92v.81h7.15v11.18h-7.15z" fill="#eabfc5"/><path d="m1869.3 266.74h9.12v-1.33h-9.12z" fill="#97b7dc"/><path d="m1869.32 266.74h2.98v-1.33h-2.98z" fill="#81a8d5"/><path d="m1869.3 254.27h.98v-.81h-.98z" fill="#f9d0d5"/><path d="m1842.71 243.84h7.55v-11.99h-7.55z" fill="#f1a5af"/><path d="m1842.73 244.25h7.91v-12.8h-7.91v.81h7.15v11.16h-7.15z" fill="#eabfc5"/><path d="m1842.71 244.77h9.12v-1.33h-9.12z" fill="#eabfc5"/><path d="m1842.71 244.77h2.98v-1.33h-2.98z" fill="#f9d0d5"/><path d="m1842.71 232.26h.98v-.81h-.98z" fill="#f9d0d5"/><path d="m1842.71 266.24h7.55v-11.99h-7.55z" fill="#f1a5af"/><path d="m1842.73 266.64h7.91v-12.78h-7.91v.81h7.15v11.16h-7.15z" fill="#eabfc5"/><path d="m1842.71 267.17h9.12v-1.33h-9.12z" fill="#eabfc5"/><path d="m1842.71 267.17h2.98v-1.33h-2.98z" fill="#f9d0d5"/><path d="m1842.71 254.67h.98v-.81h-.98z" fill="#f9d0d5"/><path d="m1802.35 231.46h-7.54v11.99h7.54z" fill="#6b99ce"/><path d="m1802.34 243.84h-7.92v-12.8h7.92v.81h-7.16v11.18h7.16z" fill="#adc6e4"/><path d="m1802.34 243.03h-9.11v1.33h9.11z" fill="#adc6e4"/><path d="m1802.34 243.03h-2.98v1.33h2.98z" fill="#9ab9dd"/><path d="m1802.34 231.04h-.98v.81h.98z" fill="#9ab9dd"/><path d="m1802.35 253.86h-7.54v11.99h7.54z" fill="#6b99ce"/><path d="m1802.34 266.24h-7.92v-12.8h7.92v.81h-7.16v11.18h7.16z" fill="#adc6e4"/><path d="m1802.34 265.43h-9.11v1.33h9.11z" fill="#adc6e4"/><path d="m1802.34 265.43h-2.98v1.33h2.98z" fill="#9ab9dd"/><path d="m1802.34 253.44h-.98v.81h.98z" fill="#adc6e4"/><path d="m1822.63 231.85h-7.55v11.99h7.55z" fill="#9e2d3c"/><path d="m1822.61 244.25h-7.92v-12.8h7.92v.81h-7.15v11.16h7.15z" fill="#f9d0d5"/><path d="m1822.61 243.43h-9.11v1.33h9.11z" fill="#f9d0d5"/><path d="m1822.61 243.43h-2.98v1.33h2.98z" fill="#f1a5af"/><path d="m1822.61 231.46h-.98v.81h.98z" fill="#f1a5af"/><path d="m1822.63 254.25h-7.55v11.99h7.55z" fill="#9e2d3c"/><path d="m1822.61 266.64h-7.92v-12.78h7.92v.81h-7.15v11.16h7.15z" fill="#f9d0d5"/><path d="m1822.61 265.83h-9.11v1.33h9.11z" fill="#f9d0d5"/><path d="m1822.61 265.83h-2.98v1.33h2.98z" fill="#f1a5af"/><path d="m1822.61 253.86h-.98v.81h.98z" fill="#f1a5af"/><path d="m1736.01 277.88h30.25v-41.95h-30.25z" fill="#eabfc5"/><path d="m1735.98 237.24 22.06-19.01 22.05 19.01 1-1.3-23.05-19.88-23.05 19.88z" fill="#89a6c7"/><path d="m1766.26 277.88h43.19v-42.77l-20.85-17.96-22.34 17.96z" fill="#e9d4d7"/><path d="m1766.26 237.24 22.06-19.01 22.05 19.01 1.01-1.3-23.06-19.88-23.05 19.88z" fill="#eabfc5"/><path d="m1734.99 235.95h30.27l23.06-19.88h-30.28z" fill="#f7a11e"/><path d="m1734.99 235.95h30.27l1 1.3h-30.28z" fill="#9e2d3c"/><path d="m1786.29 237.01h5.67v-9.01h-5.67z" fill="#f1a5af"/><path d="m1786.29 237.32h5.96v-9.63h-5.96v.61h5.38v8.41h-5.38z" fill="#eabfc5"/><path d="m1786.29 237.69h6.85v-.99h-6.85z" fill="#eabfc5"/><path d="m1786.29 237.69h2.24v-.99h-2.24z" fill="#f9d0d5"/><path d="m1786.28 228.29h.74v-.61h-.74z" fill="#f9d0d5"/><path d="m1796.29 251.96h5.68v-9.01h-5.68z" fill="#f1a5af"/><path d="m1796.29 252.27h5.96v-9.64h-5.96v.61h5.39v8.41h-5.39v.61z" fill="#eabfc5"/><path d="m1796.29 252.65h6.86v-.99h-6.86z" fill="#eabfc5"/><path d="m1796.29 252.65h2.25v-.99h-2.25z" fill="#f9d0d5"/><path d="m1796.29 243.26h.74v-.61h-.74z" fill="#f9d0d5"/><path d="m1796.29 269.51h6.86v-.99h-6.86z" fill="#c3d5eb"/><path d="m1796.29 269.51h2.25v-.99h-2.25z" fill="#adc6e4"/><path d="m1796.29 260.12h.74v-.61h-.74z" fill="#adc6e4"/><path d="m1776.28 252.27h5.67v-9.01h-5.67z" fill="#f1a5af"/><path d="m1776.28 252.58h5.96v-9.64h-5.96v.61h5.38v8.41h-5.38v.61z" fill="#eabfc5"/><path d="m1776.28 252.96h6.85v-.99h-6.85z" fill="#eabfc5"/><path d="m1776.28 252.96h2.25v-.99h-2.25z" fill="#f9d0d5"/><path d="m1776.28 243.57h.73v-.61h-.73z" fill="#f9d0d5"/><path d="m1776.28 269.13h5.67v-9.01h-5.67z" fill="#6b99ce"/><path d="m1776.28 269.43h5.96v-9.64h-5.96v.61h5.38v8.41h-5.38v.61z" fill="#c3d5eb"/><path d="m1776.28 269.81h6.85v-.99h-6.85z" fill="#c3d5eb"/><path d="m1776.28 269.81h2.25v-.99h-2.25z" fill="#adc6e4"/><path d="m1776.28 260.41h.73v-.61h-.73z" fill="#adc6e4"/><path d="m1745.9 242.94h-5.67v9.01h5.67z" fill="#9e2d3c"/><path d="m1745.9 252.27h-5.96v-9.63h5.96v.61h-5.39v8.41h5.39z" fill="#f9d0d5"/><path d="m1745.89 251.66h-6.86v.99h6.86z" fill="#f9d0d5"/><path d="m1745.9 251.66h-2.25v.99h2.25z" fill="#f1a5af"/><path d="m1745.9 242.64h-.73v.61h.73z" fill="#f1a5af"/><path d="m1745.9 259.8h-5.67v9.01h5.67z" fill="#9e2d3c"/><path d="m1745.9 269.13h-5.96v-9.64h5.96v.61h-5.39v8.41h5.39v.61z" fill="#f9d0d5"/><path d="m1745.89 268.52h-6.86v.99h6.86z" fill="#adc6e4"/><path d="m1745.9 268.52h-2.25v.99h2.25z" fill="#9ab9dd"/><path d="m1745.9 259.49h-.73v.61h.73z" fill="#f1a5af"/><path d="m1761.15 243.25h-5.68v9.01h5.68z" fill="#9e2d3c"/><path d="m1761.15 252.58h-5.96v-9.64h5.96v.61h-5.39v8.41h5.39v.61z" fill="#f9d0d5"/><path d="m1761.15 251.96h-6.86v.99h6.86z" fill="#f9d0d5"/><path d="m1761.15 251.96h-2.25v.99h2.25z" fill="#f1a5af"/><path d="m1761.15 242.94h-.74v.61h.74z" fill="#f1a5af"/><path d="m1761.15 260.1h-5.68v9.01h5.68z" fill="#9e2d3c"/><path d="m1761.15 269.43h-5.96v-9.64h5.96v.61h-5.39v8.41h5.39v.61z" fill="#f9d0d5"/><path d="m1761.15 268.82h-6.86v.99h6.86z" fill="#adc6e4"/><path d="m1761.15 268.82h-2.25v.99h2.25z" fill="#9ab9dd"/><path d="m1761.15 259.8h-.74v.61h.74z" fill="#f1a5af"/><path d="m1511.79 277.88h30.25v-41.95h-30.25z" fill="#eabfc5"/><path d="m1511.77 237.24 22.06-19.01 22.06 19.01.99-1.3-23.05-19.88-23.06 19.88z" fill="#89a6c7"/><path d="m1542.05 277.88h43.2v-42.77l-20.85-17.96-22.35 17.96z" fill="#e9d4d7"/><path d="m1542.05 237.24 22.06-19.01 22.06 19.01.99-1.3-23.05-19.88-23.06 19.88z" fill="#eabfc5"/><path d="m1510.77 235.95h30.28l23.06-19.88h-30.28z" fill="#f05a5f"/><path d="m1510.77 235.95h30.28l1 1.3h-30.28z" fill="#9e2d3c"/><path d="m1562.08 237.02h5.67v-9.01h-5.67z" fill="#f1a5af"/><path d="m1562.07 237.32h5.96v-9.64h-5.96v.61h5.38v8.41h-5.38v.61z" fill="#eabfc5"/><path d="m1562.08 237.69h6.85v-.99h-6.85z" fill="#eabfc5"/><path d="m1562.08 237.69h2.25v-.99h-2.25z" fill="#f9d0d5"/><path d="m1562.08 228.3h.74v-.61h-.74z" fill="#f9d0d5"/><path d="m1572.09 251.96h5.67v-9.01h-5.67z" fill="#f1a5af"/><path d="m1572.07 252.27h5.96v-9.63h-5.96v.61h5.39v8.41h-5.39z" fill="#eabfc5"/><path d="m1572.09 252.65h6.85v-.99h-6.85z" fill="#eabfc5"/><path d="m1572.09 252.65h2.24v-.99h-2.24z" fill="#f9d0d5"/><path d="m1572.09 243.26h.73v-.61h-.73z" fill="#f9d0d5"/><path d="m1572.09 268.82h5.67v-9.01h-5.67z" fill="#f1a5af"/><path d="m1572.07 269.13h5.96v-9.64h-5.96v.61h5.39v8.41h-5.39v.61z" fill="#eabfc5"/><path d="m1572.09 269.51h6.85v-.99h-6.85z" fill="#4a8bd6"/><path d="m1572.09 269.51h2.24v-.99h-2.24z" fill="#0760c7"/><path d="m1572.09 260.12h.73v-.61h-.73z" fill="#f9d0d5"/><path d="m1552.07 252.27h5.68v-9.01h-5.68z" fill="#f1a5af"/><path d="m1552.06 252.57h5.96v-9.64h-5.96v.61h5.4v8.41h-5.4v.61z" fill="#eabfc5"/><path d="m1552.07 252.96h6.86v-.99h-6.86z" fill="#eabfc5"/><path d="m1552.07 252.96h2.25v-.99h-2.25z" fill="#f9d0d5"/><path d="m1552.07 243.57h.74v-.61h-.74z" fill="#f9d0d5"/><path d="m1552.07 269.13h5.68v-9.01h-5.68z" fill="#6b99ce"/><path d="m1552.06 269.43h5.96v-9.64h-5.96v.61h5.4v8.41h-5.4v.61z" fill="#4a8bd6"/><path d="m1552.07 269.82h6.86v-.99h-6.86z" fill="#4a8bd6"/><path d="m1552.07 269.82h2.25v-.99h-2.25z" fill="#0760c7"/><path d="m1552.07 260.41h.74v-.61h-.74z" fill="#0760c7"/><path d="m1521.68 242.94h-5.67v9.01h5.67z" fill="#9e2d3c"/><path d="m1521.68 252.27h-5.96v-9.63h5.96v.61h-5.38v8.41h5.38z" fill="#f9d0d5"/><path d="m1521.68 251.66h-6.85v.99h6.85z" fill="#f9d0d5"/><path d="m1521.68 251.66h-2.25v.99h2.25z" fill="#9ab9dd"/><path d="m1521.68 242.64h-.73v.61h.73z" fill="#f1a5af"/><path d="m1521.68 259.8h-5.67v9.01h5.67z" fill="#6b99ce"/><path d="m1521.68 269.13h-5.96v-9.64h5.96v.61h-5.38v8.41h5.38v.61z" fill="#adc6e4"/><path d="m1521.68 268.52h-6.85v.99h6.85z" fill="#adc6e4"/><path d="m1521.68 268.52h-2.25v.99h2.25z" fill="#9ab9dd"/><path d="m1521.68 259.49h-.73v.61h.73z" fill="#adc6e4"/><path d="m1536.94 243.25h-5.67v9.01h5.67z" fill="#9e2d3c"/><path d="m1536.94 252.58h-5.96v-9.64h5.96v.61h-5.38v8.41h5.38v.61z" fill="#f9d0d5"/><path d="m1536.93 251.96h-6.86v.99h6.86z" fill="#adc6e4"/><path d="m1536.94 251.96h-2.24v.99h2.24z" fill="#9ab9dd"/><path d="m1536.93 242.94h-.74v.61h.74z" fill="#f1a5af"/><path d="m1536.94 260.1h-5.67v9.01h5.67z" fill="#6b99ce"/><path d="m1536.94 269.43h-5.96v-9.64h5.96v.61h-5.38v8.41h5.38v.61z" fill="#adc6e4"/><path d="m1536.93 268.82h-6.86v.99h6.86z" fill="#adc6e4"/><path d="m1536.94 268.82h-2.24v.99h2.24z" fill="#9ab9dd"/><path d="m1536.93 259.8h-.74v.61h.74z" fill="#adc6e4"/><path d="m963.99 277.68h62.47v-121.78h-62.47z" fill="#9e2d3c"/><path d="m989.1 277.68h54.77v-121.78h-54.77z" fill="#eabfc5"/><path d="m989.08 156.34h49.71v-6.44h-49.71z" fill="#f9d0d5"/><path d="m968.34 156.37h20.76v-6.44h-20.76z" fill="#9e2d3c"/><path d="m989.1 157.26h55.36v-3.31h-55.36z" fill="#eabfc5"/><path d="m962.65 157.26h26.43v-3.31h-26.43z" fill="#f9d0d5"/><path d="m989.07 160.22h54.78v-2.95h-54.78z" fill="#f9d0d5"/><path d="m963.99 160.2h25.1v-2.95h-25.1z" fill="#9e2d3c"/><path d="m998.44 186.33h9.28v-14.74h-9.28z" fill="#9e2d3c"/><path d="m998.44 186.84h9.74v-15.73h-9.74v.99h8.8v13.74h-8.8v.99z" fill="#f9d0d5"/><path d="m998.44 187.48h11.2v-1.63h-11.2z" fill="#f9d0d5"/><path d="m998.43 187.48h3.67v-1.63h-3.67z" fill="#f9d0d5"/><path d="m998.43 172.12h1.21v-.99h-1.21z" fill="#f9d0d5"/><path d="m1026.46 186.03h9.27v-14.74h-9.27z" fill="#9e2d3c"/><path d="m1026.46 186.52h9.75v-15.73h-9.75v1.01h8.81v13.73h-8.81z" fill="#f9d0d5"/><path d="m1026.48 187.16h11.2v-1.63h-11.2z" fill="#f9d0d5"/><path d="m1026.46 187.16h3.67v-1.63h-3.67z" fill="#f9d0d5"/><path d="m1026.46 171.79h1.21v-.99h-1.21z" fill="#f9d0d5"/><path d="m1007.72 198.06h-9.28v14.74h9.28z" fill="#9e2d3c"/><path d="m998.44 213.28h9.74v-15.73h-9.74v.99h8.8v13.74h-8.8v.99z" fill="#f9d0d5"/><path d="m1009.64 212.29h-11.2v1.63h11.2z" fill="#f9d0d5"/><path d="m1002.11 212.29h-3.67v1.63h3.67z" fill="#f9d0d5"/><path d="m999.65 197.56h-1.21v.99h1.21z" fill="#f9d0d5"/><path d="m1035.73 197.74h-9.27v14.74h9.27z" fill="#9e2d3c"/><path d="m1026.46 212.96h9.75v-15.73h-9.75v.99h8.81v13.74h-8.81v.99z" fill="#f9d0d5"/><path d="m1037.66 211.97h-11.2v1.63h11.2z" fill="#aec7e4"/><path d="m1030.13 211.97h-3.67v1.63h3.67z" fill="#89aed8"/><path d="m1027.67 197.24h-1.21v.99h1.21z" fill="#f9d0d5"/><path d="m1035.73 224.66h-9.27v14.74h9.27z" fill="#6b99ce"/><path d="m1026.46 239.9h9.75v-15.73h-9.75v.99h8.81v13.73h-8.81z" fill="#aec7e4"/><path d="m1037.66 238.89h-11.2v1.63h11.2z" fill="#aec7e4"/><path d="m1030.13 238.89h-3.67v1.63h3.67z" fill="#89aed8"/><path d="m1027.67 224.17h-1.21v.99h1.21z" fill="#89aed8"/><path d="m998.44 265.68h9.28v-14.74h-9.28z" fill="#6b99ce"/><path d="m998.44 266.18h9.74v-15.73h-9.74v.99h8.8v13.73h-8.8z" fill="#aec7e4"/><path d="m998.44 266.82h11.2v-1.63h-11.2z" fill="#aec7e4"/><path d="m998.43 266.82h3.67v-1.63h-3.67z" fill="#89aed8"/><path d="m998.43 251.44h1.21v-.99h-1.21z" fill="#89aed8"/><path d="m1026.46 265.36h9.27v-14.74h-9.27z" fill="#6b99ce"/><path d="m1026.46 265.86h9.75v-15.73h-9.75v.99h8.81v13.74h-8.81v.99z" fill="#aec7e4"/><path d="m1026.48 266.49h11.2v-1.63h-11.2z" fill="#aec7e4"/><path d="m1026.46 266.49h3.67v-1.63h-3.67z" fill="#89aed8"/><path d="m1026.46 251.12h1.21v-.99h-1.21z" fill="#89aed8"/><path d="m1384.18 279.22h62.47v-121.78h-62.47z" fill="#9e2d3c"/><path d="m1409.28 279.22h54.76v-121.78h-54.76z" fill="#edcacf"/><path d="m1409.26 157.89h49.7v-6.44h-49.7z" fill="#578bc7"/><path d="m1388.53 157.93h20.76v-6.44h-20.76z" fill="#294f7a"/><path d="m1409.29 158.82h55.36v-3.31h-55.36z" fill="#e9d4d7"/><path d="m1382.84 158.82h26.44v-3.31h-26.44z" fill="#f9d0d5"/><path d="m1384.18 161.76h25.1v-2.95h-25.1z" fill="#9e2d3c"/><path d="m1418.63 187.89h9.28v-14.74h-9.28z" fill="#9e2d3c"/><path d="m1418.62 188.38h9.75v-15.73h-9.75v1.01h8.81v13.73h-8.81z" fill="#f9d0d5"/><path d="m1418.63 189.02h11.21v-1.63h-11.21z" fill="#f9d0d5"/><path d="m1418.62 189.02h3.67v-1.63h-3.67z" fill="#f9d0d5"/><path d="m1418.62 173.66h1.21v-.99h-1.21z" fill="#f9d0d5"/><path d="m1446.64 187.57h9.27v-14.74h-9.27z" fill="#9e2d3c"/><path d="m1446.65 188.07h9.74v-15.73h-9.74v.99h8.8v13.73h-8.8z" fill="#f9d0d5"/><path d="m1446.65 188.71h11.2v-1.63h-11.2z" fill="#f9d0d5"/><path d="m1446.64 188.71h3.67v-1.63h-3.67z" fill="#f9d0d5"/><path d="m1446.64 173.34h1.21v-.99h-1.21z" fill="#f9d0d5"/><path d="m1427.89 199.6h-9.27v14.74h9.27z" fill="#9e2d3c"/><path d="m1418.62 214.83h9.75v-15.73h-9.75v.99h8.81v13.74h-8.81v.99z" fill="#f9d0d5"/><path d="m1429.82 213.84h-11.2v1.63h11.2z" fill="#f9d0d5"/><path d="m1422.29 213.84h-3.67v1.63h3.67z" fill="#f9d0d5"/><path d="m1419.83 199.1h-1.21v.99h1.21z" fill="#f9d0d5"/><path d="m1455.92 199.28h-9.27v14.74h9.27z" fill="#9e2d3c"/><path d="m1446.65 214.51h9.74v-15.71h-9.74v.99h8.8v13.73h-8.8z" fill="#f9d0d5"/><path d="m1457.85 213.51h-11.2v1.63h11.2z" fill="#f9d0d5"/><path d="m1450.32 213.51h-3.67v1.63h3.67z" fill="#f9d0d5"/><path d="m1447.86 198.79h-1.21v.99h1.21z" fill="#f9d0d5"/><path d="m1427.89 226.05h-9.27v14.74h9.27z" fill="#9e2d3c"/><path d="m1418.62 241.27h9.75v-15.73h-9.75v.99h8.81v13.74h-8.81v.99z" fill="#f9d0d5"/><path d="m1429.82 240.28h-11.2v1.63h11.2z" fill="#f9d0d5"/><path d="m1422.29 240.28h-3.67v1.63h3.67z" fill="#f9d0d5"/><path d="m1419.83 225.55h-1.21v.99h1.21z" fill="#f9d0d5"/><path d="m1455.92 226.22h-9.27v14.74h9.27z" fill="#9e2d3c"/><path d="m1446.65 241.44h9.74v-15.73h-9.74v.99h8.8v13.74h-8.8v.99z" fill="#f9d0d5"/><path d="m1457.85 240.45h-11.2v1.63h11.2z" fill="#f9d0d5"/><path d="m1450.32 240.45h-3.67v1.63h3.67z" fill="#f9d0d5"/><path d="m1447.86 225.72h-1.21v.99h1.21z" fill="#f9d0d5"/><path d="m1418.63 267.22h9.28v-14.74h-9.28z" fill="#9e2d3c"/><path d="m1418.62 267.72h9.75v-15.73h-9.75v.99h8.81v13.74h-8.81v.99z" fill="#f9d0d5"/><path d="m1418.63 268.35h11.21v-1.63h-11.21z" fill="#f9d0d5"/><path d="m1418.62 268.35h3.67v-1.63h-3.67z" fill="#f9d0d5"/><path d="m1418.62 252.99h1.21v-.99h-1.21z" fill="#f9d0d5"/><path d="m1446.64 266.9h9.27v-14.74h-9.27z" fill="#9e2d3c"/><path d="m1446.65 267.4h9.74v-15.73h-9.74v.99h8.8v13.74h-8.8v.99z" fill="#f9d0d5"/><path d="m1446.65 268.04h11.2v-1.63h-11.2z" fill="#f9d0d5"/><path d="m1446.64 268.04h3.67v-1.63h-3.67z" fill="#89aed8"/><path d="m1446.64 252.68h1.21v-.99h-1.21z" fill="#f9d0d5"/><path d="m1270.84 277.89h40.2v-55.74h-40.2z" fill="#eabfc5"/><path d="m1270.8 223.88 29.31-25.26 29.31 25.26 1.33-1.74-30.64-26.4-30.64 26.4z" fill="#89a6c7"/><path d="m1311.04 277.88h57.4v-56.84l-27.71-23.87-29.69 23.87z" fill="#e9d4d7"/><path d="m1311.04 223.88 29.31-25.26 29.3 25.26 1.34-1.74-30.64-26.4-30.64 26.4z" fill="#eabfc5"/><path d="m1269.47 222.14h40.24l30.64-26.4h-40.24z" fill="#f7a11e"/><path d="m1269.47 222.14h40.24l1.33 1.74h-40.25z" fill="#9e2d3c"/><path d="m1337.63 223.56h7.54v-11.99h-7.54z" fill="#f1a5af"/><path d="m1337.64 223.97h7.92v-12.8h-7.92v.81h7.16v11.18h-7.16z" fill="#eabfc5"/><path d="m1337.64 224.48h9.12v-1.33h-9.12z" fill="#eabfc5"/><path d="m1337.64 224.48h2.99v-1.33h-2.99z" fill="#f9d0d5"/><path d="m1337.64 211.99h.98v-.81h-.98z" fill="#f9d0d5"/><path d="m1350.93 243.43h7.55v-11.99h-7.55z" fill="#f1a5af"/><path d="m1350.95 243.84h7.92v-12.8h-7.92v.81h7.15v11.18h-7.15z" fill="#eabfc5"/><path d="m1350.93 244.36h9.12v-1.33h-9.12z" fill="#eabfc5"/><path d="m1350.93 244.36h2.98v-1.33h-2.98z" fill="#f9d0d5"/><path d="m1350.93 231.87h.98v-.81h-.98z" fill="#f9d0d5"/><path d="m1350.93 265.83h7.55v-11.99h-7.55z" fill="#f1a5af"/><path d="m1350.95 266.24h7.92v-12.8h-7.92v.81h7.15v11.18h-7.15z" fill="#eabfc5"/><path d="m1350.93 266.74h9.12v-1.33h-9.12z" fill="#c3d5eb"/><path d="m1350.93 266.74h2.98v-1.33h-2.98z" fill="#adc6e4"/><path d="m1350.93 254.27h.98v-.81h-.98z" fill="#f9d0d5"/><path d="m1324.34 243.84h7.55v-11.99h-7.55z" fill="#f1a5af"/><path d="m1324.34 244.25h7.92v-12.8h-7.92v.81h7.16v11.16h-7.16z" fill="#eabfc5"/><path d="m1324.36 244.77h9.11v-1.33h-9.11z" fill="#eabfc5"/><path d="m1324.36 244.77h2.98v-1.33h-2.98z" fill="#f9d0d5"/><path d="m1324.36 232.27h.97v-.81h-.97z" fill="#f9d0d5"/><path d="m1324.34 266.24h7.55v-11.99h-7.55z" fill="#f1a5af"/><path d="m1324.34 266.64h7.92v-12.78h-7.92v.81h7.16v11.16h-7.16z" fill="#eabfc5"/><path d="m1324.36 267.17h9.11v-1.33h-9.11z" fill="#eabfc5"/><path d="m1324.36 267.17h2.98v-1.33h-2.98z" fill="#f9d0d5"/><path d="m1324.36 254.67h.97v-.81h-.97z" fill="#f9d0d5"/><path d="m1283.98 231.45h-7.54v11.99h7.54z" fill="#6b99ce"/><path d="m1283.97 243.84h-7.92v-12.8h7.92v.81h-7.16v11.18h7.16z" fill="#adc6e4"/><path d="m1283.97 243.03h-9.11v1.33h9.11z" fill="#adc6e4"/><path d="m1283.97 243.03h-2.98v1.33h2.98z" fill="#9ab9dd"/><path d="m1283.97 231.04h-.98v.81h.98z" fill="#9ab9dd"/><path d="m1283.98 253.85h-7.54v11.99h7.54z" fill="#6b99ce"/><path d="m1283.97 266.24h-7.92v-12.8h7.92v.81h-7.16v11.18h7.16z" fill="#adc6e4"/><path d="m1283.97 265.43h-9.11v1.33h9.11z" fill="#adc6e4"/><path d="m1283.97 265.43h-2.98v1.33h2.98z" fill="#9ab9dd"/><path d="m1283.97 253.44h-.98v.81h.98z" fill="#adc6e4"/><path d="m1304.24 231.85h-7.54v11.99h7.54z" fill="#9e2d3c"/><path d="m1304.24 244.25h-7.92v-12.8h7.92v.81h-7.15v11.16h7.15z" fill="#f9d0d5"/><path d="m1304.24 243.43h-9.11v1.33h9.11z" fill="#f9d0d5"/><path d="m1304.24 243.43h-2.98v1.33h2.98z" fill="#f1a5af"/><path d="m1304.24 231.45h-.98v.81h.98z" fill="#f1a5af"/><path d="m1304.24 254.25h-7.54v11.99h7.54z" fill="#9e2d3c"/><path d="m1304.24 266.64h-7.92v-12.78h7.92v.81h-7.15v11.16h7.15z" fill="#f9d0d5"/><path d="m1304.24 265.83h-9.11v1.33h9.11z" fill="#f9d0d5"/><path d="m1304.24 265.83h-2.98v1.33h2.98z" fill="#9ab9dd"/><path d="m1304.24 253.86h-.98v.81h.98z" fill="#f1a5af"/><path d="m1217.64 277.88h30.25v-41.95h-30.25z" fill="#eabfc5"/><path d="m1217.61 237.24 22.06-19.01 22.05 19.01 1-1.3-23.05-19.88-23.07 19.88z" fill="#89a6c7"/><path d="m1247.89 277.88h43.19v-42.77l-20.85-17.96-22.34 17.96z" fill="#e9d4d7"/><path d="m1247.89 237.24 22.06-19.01 22.05 19.01 1-1.3-23.05-19.88-23.07 19.88z" fill="#eabfc5"/><path d="m1216.6 235.95h30.28l23.07-19.88h-30.28z" fill="#578bc7"/><path d="m1216.6 235.95h30.28l1.01 1.3h-30.28z" fill="#294f7a"/><path d="m1267.9 237.01h5.67v-9.01h-5.67z" fill="#f1a5af"/><path d="m1267.91 237.32h5.97v-9.63h-5.97v.61h5.39v8.41h-5.39z" fill="#eabfc5"/><path d="m1267.92 237.69h6.85v-.99h-6.85z" fill="#eabfc5"/><path d="m1267.9 237.69h2.25v-.99h-2.25z" fill="#f9d0d5"/><path d="m1267.9 228.29h.73v-.61h-.73z" fill="#f9d0d5"/><path d="m1277.91 251.96h5.67v-9.01h-5.67z" fill="#f1a5af"/><path d="m1277.92 252.27h5.96v-9.64h-5.96v.61h5.39v8.41h-5.39v.61z" fill="#eabfc5"/><path d="m1277.92 252.65h6.86v-.99h-6.86z" fill="#eabfc5"/><path d="m1277.91 252.65h2.24v-.99h-2.24z" fill="#f9d0d5"/><path d="m1277.91 243.26h.73v-.61h-.73z" fill="#f9d0d5"/><path d="m1277.91 268.82h5.67v-9.01h-5.67z" fill="#f1a5af"/><path d="m1277.92 269.13h5.96v-9.64h-5.96v.61h5.39v8.41h-5.39v.61z" fill="#eabfc5"/><path d="m1277.92 269.51h6.86v-.99h-6.86z" fill="#eabfc5"/><path d="m1277.91 269.51h2.24v-.99h-2.24z" fill="#adc6e4"/><path d="m1277.91 260.12h.73v-.61h-.73z" fill="#f9d0d5"/><path d="m1257.89 252.27h5.68v-9.01h-5.68z" fill="#f1a5af"/><path d="m1257.91 252.57h5.96v-9.64h-5.96v.61h5.38v8.41h-5.38v.61z" fill="#eabfc5"/><path d="m1257.91 252.96h6.85v-.99h-6.85z" fill="#eabfc5"/><path d="m1257.89 252.96h2.25v-.99h-2.25z" fill="#f9d0d5"/><path d="m1257.89 243.57h.74v-.61h-.74z" fill="#f9d0d5"/><path d="m1257.89 269.13h5.68v-9.01h-5.68z" fill="#f1a5af"/><path d="m1257.91 269.43h5.96v-9.64h-5.96v.61h5.38v8.41h-5.38v.61z" fill="#eabfc5"/><path d="m1257.91 269.81h6.85v-.99h-6.85z" fill="#c3d5eb"/><path d="m1257.89 269.81h2.25v-.99h-2.25z" fill="#adc6e4"/><path d="m1257.89 260.41h.74v-.61h-.74z" fill="#f9d0d5"/><path d="m1227.51 242.94h-5.67v9.01h5.67z" fill="#9e2d3c"/><path d="m1227.51 252.27h-5.94v-9.63h5.94v.61h-5.38v8.41h5.38z" fill="#f9d0d5"/><path d="m1227.51 251.66h-6.85v.99h6.85z" fill="#f9d0d5"/><path d="m1227.53 251.66h-2.25v.99h2.25z" fill="#f1a5af"/><path d="m1227.52 242.64h-.74v.61h.74z" fill="#f1a5af"/><path d="m1227.51 259.8h-5.67v9.01h5.67z" fill="#9e2d3c"/><path d="m1227.51 269.13h-5.94v-9.64h5.94v.61h-5.38v8.41h5.38v.61z" fill="#f9d0d5"/><path d="m1227.51 268.52h-6.85v.99h6.85z" fill="#adc6e4"/><path d="m1227.53 268.52h-2.25v.99h2.25z" fill="#9ab9dd"/><path d="m1227.52 259.49h-.74v.61h.74z" fill="#f9d0d5"/><path d="m1242.78 243.25h-5.68v9.01h5.68z" fill="#9e2d3c"/><path d="m1242.78 252.58h-5.96v-9.64h5.96v.61h-5.39v8.41h5.39v.61z" fill="#f9d0d5"/><path d="m1242.78 251.96h-6.86v.99h6.86z" fill="#f9d0d5"/><path d="m1242.78 251.96h-2.25v.99h2.25z" fill="#f1a5af"/><path d="m1242.78 242.94h-.74v.61h.74z" fill="#f1a5af"/><path d="m1242.78 260.1h-5.68v9.01h5.68z" fill="#9e2d3c"/><path d="m1242.78 269.43h-5.96v-9.64h5.96v.61h-5.39v8.41h5.39v.61z" fill="#f9d0d5"/><path d="m1242.78 268.82h-6.86v.99h6.86z" fill="#f9d0d5"/><path d="m1242.78 268.82h-2.25v.99h2.25z" fill="#f1a5af"/><path d="m1242.78 259.8h-.74v.61h.74z" fill="#f1a5af"/><path d="m1040.67 229.3c2.02 2.66 3.23 6.03 3.23 9.71 0 3.91-1.37 7.47-3.63 10.2 3.43 2.15 5.74 6.08 5.74 10.61 0 4.81-2.6 8.92-6.37 10.96.8 1.68 1.31 3.56 1.31 5.57 0 .47-.09.92-.13 1.37h-42.38c0-6.23 4.35-11.33 10-12.2-1.53-2.09-2.48-4.69-2.48-7.54 0-6.31 4.45-11.44 10.19-12.22-.93-2.05-1.48-4.34-1.48-6.76 0-7.86 5.54-14.35 12.7-15.35-1.01-1.83-1.61-3.92-1.61-6.18 0-6.84 5.22-12.37 11.66-12.37s11.66 5.54 11.66 12.37c0 5.64-3.57 10.32-8.42 11.83v-.02z" fill="#1d5a25"/><path d="m1032.85 278.47h37.76v-52.35h-37.76z" fill="#eabfc5"/><path d="m1032.81 227.76 27.53-23.73 27.53 23.73 1.24-1.63-28.77-24.8-28.78 24.8z" fill="#89a6c7"/><path d="m1070.59 278.47h53.92v-53.39l-26.02-22.4-27.9 22.4z" fill="#e9d4d7"/><path d="m1070.59 227.76 27.53-23.73 27.53 23.73 1.25-1.63-28.78-24.8-28.77 24.8z" fill="#eabfc5"/><path d="m1031.56 226.13h37.79l28.77-24.8h-37.78z" fill="#578bc7"/><path d="m1031.56 226.13h37.79l1.24 1.63h-37.78z" fill="#9e2d3c"/><path d="m1095.58 216.58h.93v-.76h-.93z" fill="#f9d0d5"/><path d="m1108.07 246.12h7.08v-11.25h-7.08z" fill="#f1a5af"/><path d="m1108.08 246.5h7.43v-12h-7.43v.76h6.71v10.49h-6.71z" fill="#eabfc5"/><path d="m1108.07 246.99h8.55v-1.24h-8.55z" fill="#eabfc5"/><path d="m1108.07 246.99h2.81v-1.24h-2.81z" fill="#f9d0d5"/><path d="m1108.07 235.24h.92v-.76h-.92z" fill="#f9d0d5"/><path d="m1108.07 268.03h8.55v-1.24h-8.55z" fill="#97b7dc"/><path d="m1108.07 268.03h2.81v-1.24h-2.81z" fill="#81a8d5"/><path d="m1083.09 246.5h7.08v-11.25h-7.08z" fill="#f1a5af"/><path d="m1083.1 246.88h7.43v-12h-7.43v.75h6.73v10.51h-6.73v.75z" fill="#eabfc5"/><path d="m1083.1 247.37h8.55v-1.24h-8.55z" fill="#eabfc5"/><path d="m1083.09 247.37h2.8v-1.24h-2.8z" fill="#f9d0d5"/><path d="m1083.09 235.63h.92v-.76h-.92z" fill="#f9d0d5"/><path d="m1083.09 267.54h7.08v-11.25h-7.08z" fill="#6b99ce"/><path d="m1083.1 267.92h7.43v-12.02h-7.43v.76h6.73v10.49h-6.73v.76z" fill="#97b7dc"/><path d="m1083.1 268.41h8.55v-1.24h-8.55z" fill="#97b7dc"/><path d="m1083.09 268.41h2.81v-1.24h-2.81z" fill="#81a8d5"/><path d="m1083.09 256.68h.92v-.77h-.92z" fill="#81a8d5"/><path d="m1045.18 234.88h-7.09v11.25h7.09z" fill="#9e2d3c"/><path d="m1045.18 246.5h-7.45v-12h7.45v.76h-6.73v10.49h6.73z" fill="#f9d0d5"/><path d="m1045.18 245.75h-8.55v1.24h8.55z" fill="#f9d0d5"/><path d="m1045.18 245.75h-2.81v1.24h2.81z" fill="#f1a5af"/><path d="m1045.18 234.49h-.92v.76h.92z" fill="#f1a5af"/><path d="m1045.18 255.9h-7.09v11.25h7.09z" fill="#9e2d3c"/><path d="m1045.18 267.54h-7.44v-12.02h7.44v.76h-6.72v10.49h6.72v.76z" fill="#f9d0d5"/><path d="m1045.18 266.78h-8.55v1.24h8.55z" fill="#f9d0d5"/><path d="m1045.18 266.78h-2.81v1.24h2.81z" fill="#f1a5af"/><path d="m1045.18 255.52h-.92v.77h.92z" fill="#f1a5af"/><path d="m1064.21 235.26h-7.08v11.25h7.08z" fill="#9e2d3c"/><path d="m1064.21 246.88h-7.43v-12h7.43v.75h-6.72v10.51h6.72v.75z" fill="#f9d0d5"/><path d="m1064.21 246.13h-8.55v1.24h8.55z" fill="#f9d0d5"/><path d="m1064.23 246.13h-2.81v1.24h2.81z" fill="#f1a5af"/><path d="m1064.21 234.88h-.92v.76h.92z" fill="#f1a5af"/><path d="m1064.21 256.29h-7.08v11.25h7.08z" fill="#9e2d3c"/><path d="m1064.21 267.92h-7.43v-12.02h7.43v.76h-6.72v10.49h6.72v.76z" fill="#f9d0d5"/><path d="m1064.21 267.16h-8.55v1.24h8.55z" fill="#adc6e4"/><path d="m1064.23 267.16h-2.81v1.24h2.81z" fill="#9ab9dd"/><path d="m1064.21 255.9h-.92v.76h.92z" fill="#f1a5af"/><path d="m1005.92 226.69c0 9.68-5.22 20.66-14.34 20.66s-22.91-6.49-22.91-16.17 4.65-21.65 13.78-21.65 23.47 7.47 23.47 17.15z" fill="#39b44a"/><path d="m987.03 262.99c-.14 0-.26-.12-.26-.28v-45.29c0-.15.11-.27.26-.27s.26.12.26.27v45.29c0 .15-.11.28-.26.28z" fill="#123a18"/><path d="m987.03 238.97s-.1 0-.14-.05l-4.65-3.13c-.11-.08-.16-.24-.07-.38.07-.12.24-.17.36-.08l4.65 3.13c.11.08.16.24.07.38-.04.08-.13.12-.22.12z" fill="#123a18"/><path d="m987.03 226.07c-.07 0-.14-.03-.2-.11-.09-.12-.07-.29.04-.38l5.17-4.37c.12-.09.27-.08.36.05s.07.29-.04.38l-5.17 4.37s-.1.06-.16.06z" fill="#123a18"/><path d="m987.03 222.6s-.12-.01-.17-.08l-2.04-1.92c-.1-.09-.11-.27-.03-.38.09-.11.26-.12.36-.02l2.04 1.92c.1.09.11.27.03.38-.06.06-.11.09-.19.09z" fill="#123a18"/><path d="m987.03 233c-.09 0-.17-.04-.22-.14-.07-.12-.03-.29.09-.37l2.04-1.3c.11-.08.27-.03.34.09s.03.29-.09.37l-2.04 1.3s-.09.04-.13.04z" fill="#123a18"/><path d="m987.28 242.16c-.09 0-.17-.05-.22-.14-.07-.12-.03-.29.09-.38l2.04-1.3c.12-.08.27-.03.35.09.07.12.03.29-.09.37l-2.04 1.3s-.09.05-.13.05v.02z" fill="#123a18"/><path d="m987.03 230.49s-.1-.02-.14-.05l-2.04-1.57c-.11-.09-.14-.26-.06-.38.09-.12.24-.15.36-.06l2.04 1.57c.12.09.14.26.06.38-.04.08-.13.11-.2.11h-.01z" fill="#123a18"/><path d="m1001.38 229.52c0 2.61-2 4.73-4.46 4.73s-4.46-2.12-4.46-4.73 2-4.73 4.46-4.73 4.46 2.12 4.46 4.73z" fill="#1c5724"/><path d="m996.38 234.88c0 1.25-.96 2.27-2.15 2.27s-2.14-1.02-2.14-2.27.96-2.27 2.14-2.27 2.15 1.02 2.15 2.27z" fill="#1c5724"/><path d="m978.7 229.33c0 2.06-1.57 3.73-3.51 3.73s-3.51-1.66-3.51-3.73 1.57-3.73 3.51-3.73 3.51 1.67 3.51 3.73z" fill="#1c5724"/><path d="m1519.91 215.09c0 12.11-9.73 22.71-21.15 22.71s-23.11-11.38-23.11-23.49 9.26-21.91 20.66-21.91 23.58 10.6 23.58 22.71z" fill="#39b44a"/><path d="m1497.78 259.63c-.17 0-.32-.15-.32-.34v-56.67c0-.18.15-.34.32-.34s.32.15.32.34v56.67c0 .18-.15.34-.32.34z" fill="#1c5724"/><path d="m1497.78 229.59s-.12-.02-.17-.05l-5.82-3.92c-.14-.11-.19-.31-.1-.47.1-.15.3-.2.45-.11l5.81 3.93c.15.11.19.3.1.47-.05.11-.16.15-.27.15z" fill="#1c5724"/><path d="m1497.78 218.66c-.1 0-.19-.05-.26-.12-.12-.15-.09-.37.06-.47l6.48-5.47c.14-.12.34-.09.44.06.12.15.09.37-.05.47l-6.48 5.47s-.13.08-.21.08h.02z" fill="#1c5724"/><path d="m1497.78 209.1c-.07 0-.16-.03-.22-.09l-2.56-2.41c-.13-.12-.14-.34-.03-.49.12-.14.32-.15.46-.03l2.56 2.41c.13.12.15.34.03.49-.05.08-.15.12-.24.12z" fill="#1c5724"/><path d="m1497.78 212.69c-.12 0-.22-.06-.27-.17-.09-.17-.05-.37.11-.47l2.56-1.62c.16-.09.35-.05.45.12.09.17.04.37-.12.47l-2.56 1.62s-.11.05-.16.05z" fill="#1c5724"/><path d="m1497.78 223.27s-.13-.02-.19-.06l-2.56-1.97c-.15-.11-.17-.32-.07-.47s.3-.18.44-.08l2.57 1.97c.14.11.17.32.07.47-.06.09-.16.14-.26.14z" fill="#1c5724"/><path d="m1490.15 218.08c0 2.81-2.15 5.1-4.81 5.1s-4.81-2.27-4.81-5.1 2.15-5.1 4.81-5.1 4.81 2.27 4.81 5.1z" fill="#1c5724"/><path d="m1490.78 205.44c0 1.18-.89 2.12-2 2.12s-2-.95-2-2.12.89-2.12 2-2.12 2 .95 2 2.12z" fill="#1c5724"/><path d="m1510.31 223.06c0 1.98-1.52 3.59-3.39 3.59s-3.38-1.6-3.38-3.59 1.51-3.59 3.38-3.59 3.39 1.6 3.39 3.59z" fill="#1c5724"/><path d="m1919.99 280.66v-13.01c-2.78-.81-5.71-1.25-8.73-1.25-8.83 0-16.82 3.7-22.75 9.68-3.22-7.15-10.08-12.08-18.04-12.08s-15.23 5.22-18.33 12.71c-4.59-2.57-9.8-4.03-15.36-4.03-6.74 0-12.99 2.15-18.21 5.82-5.19-12.14-16.69-20.6-30.08-20.6-10.22 0-19.35 4.92-25.4 12.64-3.67-4.57-9.13-7.45-15.22-7.45-6.98 0-13.13 3.8-16.71 9.56-5.99-8.92-15.8-14.75-26.9-14.75-6.88 0-13.27 2.24-18.56 6.06-5.53-11.16-16.54-18.78-29.24-18.78-13.94 0-25.84 9.18-30.7 22.13-3.34-2.64-7.46-4.21-11.93-4.21-8.02 0-14.93 5.02-18.13 12.25-4.94-4.34-11.27-6.93-18.18-6.93-5.26 0-10.17 1.54-14.4 4.17-2.21-14.4-13.94-25.39-28.14-25.39-11.28 0-21.02 6.98-25.65 17.07-3.52-3.27-8.11-5.25-13.16-5.25-9.98 0-18.23 7.76-19.76 17.88-2.65-1.36-5.6-2.15-8.74-2.15s-6.16.81-8.82 2.2c-3.04-7.63-10.15-12.98-18.46-12.98-9.22 0-16.95 6.61-19.28 15.59-5.24-6.78-13.19-11.12-22.09-11.12-6.29 0-12.08 2.18-16.8 5.83-3.92-11.16-14.04-19.13-25.93-19.13-10.7 0-19.97 6.44-24.58 15.87-5.58-4.58-12.57-7.33-20.17-7.33-9.72 0-18.43 4.47-24.48 11.58-3.36-6.7-10.02-11.29-17.68-11.29-8.69 0-16.08 5.89-18.84 14.12-3.63-3.91-8.68-6.35-14.27-6.35-.94 0-1.86.09-2.75.23-6.03-8.51-15.59-14.03-26.39-14.03-11.33 0-21.33 6.06-27.27 15.29-5.92-5.89-13.85-9.54-22.61-9.54-7.15 0-13.76 2.44-19.18 6.55-2.79-8.15-10.15-13.97-18.78-13.97-4.81 0-9.21 1.8-12.66 4.78-6.02-6.64-14.44-10.8-23.82-10.8-14.55 0-26.88 9.99-31.28 23.84-3.41-1.59-7.17-2.49-11.13-2.49-2.15 0-4.22.27-6.22.76-4.82-13-16.75-22.2-30.71-22.2-11.66 0-21.89 6.43-27.76 16.09-4.77-2.92-10.28-4.63-16.17-4.63-3.71 0-7.26.7-10.58 1.93v17.15h971.04-.01z" fill="#114e19"/><g clip-path="url(#a)"><g fill="#fff" mask="url(#b)"><path d="m852.34 289.02-56.41 38.76h57.47l40.08-38.76z"/><path d="m701.91 289.02-122.9 38.76h44.51l105.37-38.76h-26.99z"/><path d="m770.04 289.02-89.05 38.76h57.48l72.73-38.76h-41.15z"/><path d="m934.63 289.02-23.76 38.76h57.48l7.43-38.76z"/><path d="m1413.39 327.78-122.89-38.76h-26.69l106.82 38.76z"/><path d="m1222.66 289.02h-41.14l74.18 38.76h57.46z"/><path d="m1016.92 289.02 8.89 38.76h57.47l-25.21-38.76z"/><path d="m1099.22 289.02 41.53 38.76h57.47l-57.85-38.76z"/></g></g><path d="m0 455.46v-30.75l634.67-153.75v10.28z" fill="#578bc7"/><path d="m634.67 270.96h-634.67v153.75z" fill="#90bcec"/><path d="m1944.35 455.46v-30.75l-641.71-153.75v10.28z" fill="#578bc7"/><path d="m1302.64 270.96h641.71v153.75z" fill="#90bcec"/><path d="m465.02 148.59c0 40.59-34.62 76.11-75.21 76.11s-82.17-38.15-82.17-78.74 32.91-73.49 73.49-73.49 83.88 35.53 83.88 76.11h.01z" fill="#39b44a"/><path d="m386.34 297.95c-.63 0-1.14-.51-1.14-1.14v-190c0-.63.51-1.14 1.14-1.14s1.14.51 1.14 1.14v190c0 .63-.51 1.14-1.14 1.14z" fill="#168125"/><path d="m386.34 197.23c-.22 0-.42-.06-.61-.18l-20.66-13.16c-.53-.33-.69-1.04-.36-1.59.35-.53 1.05-.68 1.58-.35l20.66 13.16c.53.34.69 1.04.36 1.59-.22.33-.59.53-.97.53z" fill="#168125"/><path d="m386.34 160.6c-.33 0-.67-.15-.9-.43-.39-.49-.32-1.21.19-1.61l23.01-18.32c.49-.39 1.22-.32 1.61.19.39.49.32 1.21-.19 1.61l-23.02 18.32c-.21.17-.46.25-.71.25z" fill="#168125"/><path d="m386.34 128.56c-.27 0-.54-.1-.76-.29l-9.11-8.09c-.47-.41-.51-1.14-.1-1.62s1.14-.52 1.62-.1l9.11 8.09c.47.41.51 1.14.1 1.62-.23.26-.54.38-.86.38z" fill="#168125"/><path d="m386.34 140.58c-.38 0-.77-.2-.98-.56-.33-.54-.15-1.24.39-1.57l9.09-5.44c.54-.32 1.24-.15 1.57.39s.15 1.24-.39 1.57l-9.09 5.44c-.19.11-.38.16-.59.16h.01z" fill="#168125"/><path d="m386.34 176.06c-.24 0-.46-.07-.67-.22l-9.11-6.58c-.51-.37-.63-1.08-.26-1.6.38-.51 1.08-.62 1.6-.26l9.11 6.58c.51.37.63 1.08.26 1.6-.23.3-.57.47-.93.47z" fill="#168125"/><path d="m359.19 158.62c0 9.43-7.64 17.08-17.07 17.08s-17.08-7.65-17.08-17.08 7.65-17.07 17.08-17.07 17.07 7.64 17.07 17.07z" fill="#168125"/><path d="m361.44 116.24c0 3.94-3.19 7.13-7.13 7.13s-7.13-3.19-7.13-7.13 3.19-7.13 7.13-7.13 7.13 3.19 7.13 7.13z" fill="#168125"/><path d="m430.9 175.35c0 6.63-5.38 12.01-12.01 12.01s-12.01-5.38-12.01-12.01 5.38-12.01 12.01-12.01 12.01 5.38 12.01 12.01z" fill="#168125"/><path d="m1631.26 148.59c0 40.59-34.62 76.11-75.22 76.11s-82.17-38.15-82.17-78.74 32.91-73.49 73.49-73.49 83.89 35.53 83.89 76.11h.01z" fill="#39b44a"/><path d="m1552.57 297.95c-.64 0-1.15-.51-1.15-1.14v-190c0-.63.51-1.14 1.15-1.14s1.14.51 1.14 1.14v190c0 .63-.51 1.14-1.14 1.14z" fill="#168125"/><path d="m1552.57 197.23c-.22 0-.43-.06-.62-.18l-20.66-13.16c-.53-.33-.69-1.04-.35-1.59.34-.53 1.05-.68 1.58-.35l20.66 13.16c.53.34.69 1.04.35 1.59-.22.33-.59.53-.96.53z" fill="#168125"/><path d="m1552.57 160.6c-.34 0-.67-.15-.9-.43-.4-.49-.32-1.21.19-1.61l23.01-18.32c.49-.39 1.22-.32 1.61.19.39.49.31 1.21-.19 1.61l-23.02 18.32c-.2.17-.46.25-.7.25z" fill="#168125"/><path d="m1552.57 128.56c-.27 0-.55-.1-.76-.29l-9.12-8.09c-.47-.41-.51-1.14-.1-1.62.42-.48 1.15-.52 1.62-.1l9.11 8.09c.48.41.52 1.14.1 1.62-.22.26-.54.38-.85.38z" fill="#168125"/><path d="m1552.57 140.58c-.39 0-.77-.2-.99-.56-.32-.54-.15-1.24.39-1.57l9.1-5.44c.54-.32 1.24-.15 1.56.39.33.54.15 1.24-.39 1.57l-9.09 5.44c-.19.11-.39.16-.59.16z" fill="#168125"/><path d="m1552.57 176.06c-.24 0-.47-.07-.67-.22l-9.12-6.58c-.51-.37-.63-1.08-.25-1.6.37-.51 1.08-.62 1.59-.26l9.12 6.58c.51.37.63 1.08.25 1.6-.23.3-.57.47-.92.47z" fill="#168125"/><path d="m1525.42 158.62c0 9.43-7.64 17.08-17.07 17.08s-17.08-7.65-17.08-17.08 7.65-17.07 17.08-17.07 17.07 7.64 17.07 17.07z" fill="#168125"/><path d="m1527.67 116.24c0 3.94-3.19 7.13-7.14 7.13s-7.13-3.19-7.13-7.13 3.19-7.13 7.13-7.13 7.14 3.19 7.14 7.13z" fill="#168125"/><path d="m1597.13 175.35c0 6.63-5.38 12.01-12.01 12.01s-12.01-5.38-12.01-12.01 5.38-12.01 12.01-12.01 12.01 5.38 12.01 12.01z" fill="#168125"/><path d="m294.05 121.17c0 64.61-55.12 121.16-119.72 121.16s-130.79-60.74-130.79-125.34 52.37-116.99 116.99-116.99 133.53 56.55 133.53 121.16h-.01z" fill="#39b44a"/><path d="m168.79 358.93c-1.01 0-1.82-.82-1.82-1.82v-302.45c0-1 .82-1.82 1.82-1.82s1.82.82 1.82 1.82v302.44c0 1.01-.82 1.82-1.82 1.82z" fill="#168125"/><path d="m168.79 198.6c-.34 0-.68-.09-.98-.29l-32.9-20.96c-.85-.54-1.1-1.67-.56-2.52.54-.84 1.68-1.09 2.51-.55l32.9 20.95c.85.54 1.1 1.67.56 2.52-.35.54-.94.84-1.54.84z" fill="#168125"/><path d="m168.79 140.29c-.53 0-1.06-.24-1.43-.69-.63-.78-.49-1.93.29-2.55l36.64-29.15c.78-.63 1.94-.5 2.56.29.63.78.49 1.93-.3 2.55l-36.64 29.15c-.33.27-.74.39-1.13.39z" fill="#168125"/><path d="m168.79 89.27c-.43 0-.86-.15-1.21-.46l-14.5-12.88c-.75-.66-.82-1.81-.16-2.57s1.81-.83 2.57-.15l14.51 12.88c.75.66.82 1.81.16 2.57-.35.4-.86.61-1.36.61z" fill="#168125"/><path d="m168.79 108.41c-.62 0-1.22-.32-1.57-.89-.52-.86-.24-1.98.63-2.5l14.47-8.65c.86-.5 1.98-.25 2.5.63.52.86.24 1.98-.63 2.5l-14.47 8.65c-.29.17-.62.26-.94.26z" fill="#168125"/><path d="m168.79 164.89c-.37 0-.75-.12-1.06-.35l-14.5-10.47c-.82-.59-.99-1.72-.41-2.55.59-.81 1.73-.98 2.54-.41l14.51 10.47c.82.59 1 1.73.4 2.55-.35.49-.92.76-1.48.76z" fill="#168125"/><path d="m125.59 137.13c0 15.02-12.17 27.18-27.18 27.18s-27.18-12.17-27.18-27.18 12.17-27.18 27.18-27.18 27.18 12.17 27.18 27.18z" fill="#168125"/><path d="m129.17 69.66c0 6.27-5.08 11.35-11.35 11.35s-11.35-5.08-11.35-11.35 5.08-11.35 11.35-11.35 11.35 5.08 11.35 11.35z" fill="#168125"/><path d="m239.73 163.76c0 10.56-8.56 19.12-19.11 19.12s-19.12-8.56-19.12-19.12 8.56-19.12 19.12-19.12 19.11 8.56 19.11 19.12z" fill="#168125"/><path d="m1909.85 121.17c0 64.61-55.12 121.16-119.72 121.16s-130.79-60.72-130.79-125.33 52.37-117 116.99-117 133.53 56.55 133.53 121.16h-.01z" fill="#39b44a"/><path d="m1784.59 358.93c-1 0-1.82-.82-1.82-1.82v-302.45c0-1 .82-1.82 1.82-1.82s1.82.82 1.82 1.82v302.44c0 1.01-.81 1.82-1.82 1.82z" fill="#168125"/><path d="m1784.59 198.6c-.33 0-.68-.09-.97-.29l-32.9-20.96c-.85-.54-1.1-1.67-.56-2.52.54-.84 1.67-1.09 2.51-.55l32.9 20.95c.84.54 1.1 1.67.56 2.52-.35.54-.94.84-1.54.84z" fill="#168125"/><path d="m1784.59 140.29c-.53 0-1.06-.24-1.43-.69-.63-.78-.49-1.93.3-2.55l36.64-29.15c.78-.63 1.94-.5 2.56.29.63.78.49 1.93-.29 2.55l-36.65 29.15c-.33.27-.73.39-1.13.39z" fill="#168125"/><path d="m1784.59 89.27c-.43 0-.86-.15-1.21-.46l-14.5-12.88c-.75-.66-.82-1.81-.16-2.57s1.81-.83 2.57-.15l14.51 12.88c.75.66.82 1.81.16 2.57-.35.4-.86.61-1.36.61z" fill="#168125"/><path d="m1784.59 108.41c-.62 0-1.22-.32-1.56-.89-.53-.86-.24-1.98.63-2.5l14.47-8.65c.86-.5 1.98-.25 2.5.63.52.86.24 1.98-.63 2.5l-14.47 8.65c-.3.17-.62.26-.94.26z" fill="#168125"/><path d="m1784.59 164.89c-.37 0-.75-.12-1.06-.35l-14.5-10.47c-.82-.59-1-1.72-.42-2.55.59-.81 1.74-.98 2.54-.41l14.52 10.47c.81.59 1 1.73.4 2.55-.35.49-.92.76-1.48.76z" fill="#168125"/><path d="m1741.39 137.13c0 15.02-12.17 27.18-27.18 27.18s-27.19-12.17-27.19-27.18 12.17-27.18 27.19-27.18 27.18 12.17 27.18 27.18z" fill="#168125"/><path d="m1744.97 69.66c0 6.27-5.09 11.35-11.35 11.35s-11.35-5.08-11.35-11.35 5.08-11.35 11.35-11.35 11.35 5.08 11.35 11.35z" fill="#168125"/><path d="m1855.53 163.76c0 10.56-8.56 19.12-19.11 19.12s-19.13-8.56-19.13-19.12 8.56-19.12 19.13-19.12 19.11 8.56 19.11 19.12z" fill="#168125"/></svg>