<svg viewBox="0 0 242.54 308.45" xmlns="http://www.w3.org/2000/svg"><path d="m96.53 305.3c-63.83-14.95-103.59-79.04-88.64-142.86s79.04-103.58 142.86-88.63 103.58 79.04 88.63 142.86-79.04 103.58-142.86 88.63z" fill="#ff725e"/><path d="m96.53 305.3c-63.83-14.95-103.59-79.04-88.64-142.86s79.04-103.58 142.86-88.63 103.58 79.04 88.63 142.86-79.04 103.58-142.86 88.63z" opacity=".4"/><circle cx="118.89" cy="177.53" fill="#fff" r="114.76" transform="matrix(.70710678 -.70710678 .70710678 .70710678 -90.71 136.07)"/><path d="m91.78 293.27c-63.82-14.95-103.58-79.04-88.63-142.86s79.04-103.58 142.86-88.63 103.58 79.04 88.63 142.86-79.04 103.58-142.86 88.63zm52.35-223.46c-59.4-13.91-119.04 23.09-132.95 82.48-13.91 59.4 23.09 119.04 82.48 132.95 59.4 13.91 119.04-23.09 132.95-82.48 13.91-59.4-23.09-119.04-82.48-132.95z" fill="#ff725e"/><path d="m70.7 265.55-.7-.38 2.97-5.5.67.36-2.94 5.51zm7.18 3.5 2.54-5.71.7.31-2.51 5.72zm-14.77-7.94-.68-.44 3.42-5.23.63.41zm22.92 11.22 2.11-5.88.72.26-2.08 5.89zm-30.12-16.28-.64-.49 3.85-4.92.59.46-3.81 4.95zm38.43 18.98 1.74-6 .72.21-1.69 6.01zm-45.18-24.67-.59-.55 4.28-4.55.55.51zm53.92 26.52 1-6.17.74.12-.94 6.18-.8-.12zm-60.12-32.81-.54-.6 4.69-4.13.5.56zm68.88 33.83.45-6.23.74.05-.39 6.24c-.27-.02-.54-.03-.81-.05zm-74.46-40.67c-.16-.22-.32-.44-.48-.66l5.06-3.67c.14.2.29.4.44.6l-5.01 3.73zm83.28 40.91-.12-6.25.76-.02.15 6.25zm-88.2-48.26-.41-.68 5.37-3.2.39.66zm97 47.72-.67-6.21.75-.08.7 6.21-.79.09zm-101.2-55.49-.34-.72 5.65-2.67.33.69-5.63 2.71zm109.92 54.18-1.21-6.13.75-.15 1.24 6.12-.77.15zm-113.38-62.31c-.1-.26-.19-.51-.28-.77l5.88-2.11c.08.23.17.46.25.69l-5.86 2.18zm121.94 60.23-1.73-6 .72-.21 1.79 5.99-.77.23zm-124.63-68.65c-.07-.26-.14-.52-.21-.78l6.05-1.57c.06.24.13.48.19.72l-6.03 1.64zm132.99 65.84-2.26-5.83.7-.27 2.3 5.81-.75.29zm-134.92-74.45-.14-.78 6.16-1.05.13.75-6.15 1.09zm143 70.91-2.77-5.6.68-.34 2.79 5.59-.71.35zm-144.15-79.65-.07-.79 6.23-.53.07.76-6.22.55zm151.88 75.43-3.24-5.34.64-.39 3.28 5.32-.68.42zm-152.29-84.24v-.79s6.25.01 6.25.01v.77s-6.25.01-6.25.01zm159.63 79.36-3.67-5.05c.2-.15.4-.29.6-.44l3.73 5.01c-.22.16-.43.32-.65.48zm-159.29-88.15c.02-.27.04-.54.07-.8l6.22.55-.06.74zm166.18 82.64-4.11-4.71.56-.49 4.15 4.67-.61.53zm-165.12-91.39.13-.78 6.16 1.05-.13.75zm171.5 85.3-4.51-4.32.52-.55 4.54 4.29zm-169.72-93.91c.07-.26.13-.53.2-.79l6.04 1.58c-.06.24-.12.48-.18.72l-6.06-1.5zm175.55 87.28-4.87-3.91.47-.59 4.9 3.88zm-173.08-95.73.26-.75 5.9 2.04-.25.72-5.92-2.01zm178.3 88.63-5.19-3.48.41-.63 5.22 3.43-.45.67zm-175.14-96.84.32-.74 5.71 2.53-.3.69-5.74-2.48zm179.71 89.29-5.48-3 .36-.66 5.5 2.96-.39.71zm-170.37-94.27-5.5-2.96.38-.71 5.48 3-.36.66zm168.54 83.84.3-.69 5.74 2.46-.32.74zm-164.32-90.96-5.23-3.42.44-.66 5.21 3.45zm167.3 83.24.24-.71 5.94 1.94-.25.77-5.92-1.99zm-162.48-89.97-4.92-3.85.5-.63 4.88 3.9-.47.59zm164.78 82.02.18-.74 6.08 1.43-.18.77-6.07-1.47zm-159.4-88.28-4.55-4.29.55-.58 4.52 4.31-.52.55zm160.54 82.91.13-.74 6.15 1.07-.14.79-6.14-1.13zm-154.61-88.66-4.14-4.68.6-.53 4.1 4.72zm155.74 80.47.07-.74 6.22.53c-.02.27-.05.54-.07.81l-6.22-.59zm-149.31-85.64-3.69-5.04c.22-.16.44-.32.65-.47l3.64 5.08-.6.44zm149.72 77.38v-.75s6.25-.02 6.25-.02v.81zm-142.84-81.92-3.18-5.38.69-.4 3.15 5.39-.65.39zm142.52 73.65-.06-.74 6.22-.57c.02.27.05.54.07.8zm-135.24-77.52-2.67-5.65c.24-.11.49-.23.73-.34l2.61 5.67-.68.32zm134.19 69.33-.13-.75 6.15-1.1.14.78zm-126.57-72.5-2.13-5.87.76-.27 2.08 5.89zm124.81 64.42-.2-.73 6.03-1.65.21.77-6.04 1.6zm-116.92-66.87-1.58-6.04.78-.2 1.53 6.06-.73.19zm114.45 58.98-.26-.7 5.86-2.17.28.76-5.88 2.12zm-106.37-60.71-1.04-6.16c.27-.04.53-.09.8-.13l.98 6.17zm103.22 53.06c-.1-.22-.21-.45-.32-.67l5.64-2.68c.12.24.23.49.34.73l-5.67 2.62zm-95.01-54.08-.51-6.23.79-.06.48 6.23zm91.2 46.74-.37-.65 5.39-3.16.4.7zm-82.91-47.08v-6.25s.79 0 .79 0l-.03 6.25h-.75zm78.49 40.09-.43-.62 5.1-3.61.46.65-5.12 3.57zm-70.19-39.8.45-6.23.79.06-.49 6.23zm65.16 33.23-.48-.58 4.76-4.04.52.61zm-56.88-32.33.89-6.18.78.11-.92 6.18zm51.31 26.22-.53-.53 4.39-4.44.57.57-4.43 4.41zm-43.25-24.71 1.55-6.05.78.2-1.61 6.04zm37.16 19.11-.58-.48 3.98-4.81.62.52-4.03 4.78zm-29.24-16.71 2.07-5.89.76.27-2.12 5.88-.71-.25zm22.68 11.67-.62-.43 3.54-5.15.66.46zm-15.01-8.58 2.58-5.69.73.33-2.63 5.67-.69-.32zm8.04 4.13-.66-.38 3.08-5.44.7.4-3.12 5.41z" fill="#263238"/><path d="m144.13 69.81s2.38.49 6.84 1.77c4.45 1.28 10.93 3.55 18.79 7.52 7.8 4.03 16.98 9.92 26.01 18.61 8.99 8.67 17.84 20.18 24.33 34.57 3.26 7.17 5.86 15.07 7.55 23.5s2.55 17.41 2.08 26.68c-.42 9.26-1.96 18.8-4.95 28.22-1.41 4.74-3.32 9.39-5.41 14.01-2.16 4.6-4.69 9.1-7.5 13.48-11.37 17.45-28.51 32.55-49.45 41.43-5.2 2.27-10.66 4.05-16.25 5.51-5.58 1.46-11.34 2.46-17.18 2.97-11.67 1.13-23.68.24-35.42-2.44-11.71-2.81-22.86-7.35-32.83-13.54-5.01-3.05-9.72-6.5-14.08-10.29-4.36-3.78-8.46-7.8-12.11-12.15-14.82-17.26-23.47-38.41-25.91-59.09-.58-5.18-.84-10.33-.73-15.42.18-5.07.53-10.09 1.37-14.96 1.51-9.77 4.37-19.01 8.1-27.49 3.7-8.51 8.46-16.18 13.72-22.98 5.27-6.8 11.1-12.73 17.21-17.7 12.21-10.01 25.25-16.39 37.15-20.16 11.95-3.77 22.78-4.97 31.57-5.12 8.81-.07 15.62.78 20.17 1.61 4.56.83 6.91 1.45 6.91 1.45s-.6-.1-1.77-.32c-1.17-.2-2.88-.64-5.17-.96-4.55-.78-11.36-1.57-20.14-1.46-8.76.2-19.55 1.43-31.43 5.23-11.84 3.8-24.8 10.19-36.92 20.17-6.07 4.97-11.85 10.87-17.08 17.64-5.22 6.77-9.93 14.4-13.6 22.86-3.7 8.44-6.53 17.62-8.01 27.33-.83 4.84-1.18 9.82-1.35 14.86-.1 5.05.17 10.16.74 15.31 2.44 20.55 11.05 41.53 25.77 58.67 3.63 4.31 7.71 8.3 12.03 12.06 4.33 3.76 9.01 7.18 13.98 10.21 9.89 6.15 20.97 10.65 32.59 13.44 11.65 2.66 23.57 3.54 35.16 2.42 5.8-.51 11.51-1.49 17.05-2.94 5.54-1.44 10.96-3.21 16.13-5.46 20.79-8.81 37.82-23.79 49.14-41.11 2.8-4.36 5.31-8.82 7.47-13.39 2.09-4.59 3.99-9.21 5.39-13.91 2.98-9.36 4.53-18.84 4.96-28.04.48-9.21-.36-18.14-2.03-26.52-1.67-8.39-4.24-16.25-7.46-23.39-6.42-14.33-15.2-25.81-24.12-34.48-8.96-8.69-18.08-14.59-25.84-18.65-7.82-4-14.27-6.32-18.7-7.64-2.2-.73-3.93-1.09-5.06-1.44-1.14-.31-1.73-.49-1.73-.49z" fill="#263238"/><path d="m135.69 56.61c-4.69-2.45-8.65-6.11-11.51-10.72-4.21-6.78-5.52-14.8-3.7-22.56 1.82-7.77 6.56-14.37 13.34-18.57 6.78-4.21 14.79-5.52 22.56-3.7 16.03 3.76 26.03 19.87 22.27 35.9-1.82 7.77-6.56 14.36-13.34 18.57s-14.79 5.52-22.56 3.7c-2.49-.58-4.85-1.46-7.06-2.62zm24.28-46.33c-1.66-.86-3.43-1.52-5.3-1.96-5.83-1.37-11.84-.38-16.92 2.78-5.09 3.15-8.64 8.1-10 13.93-2.82 12.03 4.68 24.11 16.7 26.92 5.83 1.37 11.84.38 16.92-2.78 5.09-3.15 8.64-8.1 10-13.93 1.37-5.83.38-11.84-2.78-16.92-2.14-3.46-5.12-6.21-8.63-8.04z" fill="#e0e0e0"/><path d="m135.69 56.61c-4.69-2.45-8.65-6.11-11.51-10.72-4.21-6.78-5.52-14.8-3.7-22.56 1.82-7.77 6.56-14.37 13.34-18.57 6.78-4.21 14.79-5.52 22.56-3.7 16.03 3.76 26.03 19.87 22.27 35.9-1.82 7.77-6.56 14.36-13.34 18.57s-14.79 5.52-22.56 3.7c-2.49-.58-4.85-1.46-7.06-2.62zm24.28-46.33c-1.66-.86-3.43-1.52-5.3-1.96-5.83-1.37-11.84-.38-16.92 2.78-5.09 3.15-8.64 8.1-10 13.93-2.82 12.03 4.68 24.11 16.7 26.92 5.83 1.37 11.84.38 16.92-2.78 5.09-3.15 8.64-8.1 10-13.93 1.37-5.83.38-11.84-2.78-16.92-2.14-3.46-5.12-6.21-8.63-8.04z" fill="none"/><path d="m159.97 10.28s.12.04.33.15c.22.1.53.28.94.51.81.47 1.98 1.23 3.33 2.41 1.34 1.18 2.85 2.8 4.2 4.97 1.34 2.16 2.52 4.87 3.08 8.04.55 3.16.45 6.77-.65 10.39-1.07 3.62-3.2 7.23-6.35 10.1-3.13 2.87-7.28 5-11.87 5.69-4.57.7-9.56-.04-13.91-2.35-4.4-2.24-7.78-5.97-9.84-10.11-1.01-2.09-1.66-4.29-2.03-6.49s-.3-4.4-.06-6.51c.57-4.23 2.33-8.02 4.67-10.98 2.37-2.96 5.28-5.09 8.19-6.43 2.91-1.36 5.81-1.94 8.35-2.06 2.55-.12 4.74.22 6.47.64 1.74.43 3.03.97 3.88 1.36.43.2.74.36.96.48.21.12.32.18.31.19 0 0-.12-.04-.34-.14-.24-.11-.57-.25-.97-.43-.86-.36-2.15-.86-3.88-1.26-1.73-.39-3.9-.7-6.41-.55-2.5.15-5.35.75-8.21 2.1-2.85 1.34-5.71 3.45-8.01 6.36-2.29 2.91-3.99 6.64-4.54 10.78-.23 2.07-.29 4.22.07 6.37s1.01 4.3 2 6.34c2.03 4.04 5.33 7.68 9.63 9.87 4.24 2.26 9.12 2.99 13.59 2.31 4.49-.67 8.55-2.75 11.62-5.54 3.09-2.8 5.19-6.33 6.26-9.87 1.1-3.55 1.22-7.1.7-10.21-.52-3.12-1.66-5.8-2.96-7.95-1.31-2.15-2.78-3.78-4.08-4.97-1.31-1.19-2.46-1.97-3.25-2.47-.4-.25-.7-.43-.91-.55s-.31-.19-.31-.2z" fill="#263238"/><path d="m135.69 56.61s.15.06.44.2c.31.14.74.33 1.3.58 1.15.49 2.87 1.16 5.18 1.7 2.3.52 5.2.94 8.56.75 3.34-.19 7.15-.99 10.97-2.8 3.82-1.79 7.63-4.61 10.71-8.5 3.06-3.89 5.34-8.87 6.07-14.41.3-2.76.39-5.64-.1-8.52-.49-2.87-1.34-5.74-2.67-8.47-1.36-2.71-3.14-5.26-5.29-7.53-2.13-2.29-4.75-4.18-7.58-5.67-5.68-3.03-12.2-4-18.18-3.09-6.01.89-11.43 3.67-15.54 7.42-4.13 3.75-6.94 8.46-8.36 13.2-1.46 4.75-1.62 9.49-.93 13.64.7 4.17 2.22 7.75 3.97 10.61 1.75 2.87 3.72 5.04 5.47 6.62 1.75 1.59 3.29 2.62 4.34 3.29.53.33.94.57 1.22.73s.41.25.41.25-.61-.26-1.69-.89-2.64-1.65-4.42-3.23-3.79-3.74-5.58-6.62c-1.78-2.87-3.35-6.48-4.08-10.7-.73-4.2-.59-9.01.88-13.83 1.43-4.82 4.26-9.61 8.45-13.43 4.17-3.81 9.68-6.65 15.79-7.57 6.08-.93 12.72.05 18.49 3.13 2.88 1.52 5.54 3.44 7.71 5.78 2.19 2.31 3.99 4.91 5.37 7.66 1.34 2.78 2.21 5.7 2.7 8.62.49 2.93.4 5.86.08 8.66-.76 5.62-3.09 10.67-6.21 14.61-3.14 3.94-7.02 6.77-10.9 8.56-3.88 1.81-7.74 2.59-11.11 2.76-3.39.17-6.31-.28-8.62-.84-2.32-.57-4.03-1.28-5.17-1.8-.57-.26-.99-.48-1.28-.63-.28-.15-.42-.24-.42-.24z" fill="#263238"/><path d="m155.88 65.58-25.65-6.01 3.28-14c1.66-7.08 8.74-11.48 15.83-9.82 7.08 1.66 11.48 8.74 9.82 15.83z" fill="#ff725e"/><path d="m168.68 70.03s-.76-.25-2.07-.84c-.65-.31-1.46-.64-2.4-1.02-.94-.4-2.01-.83-3.22-1.26-4.78-1.82-11.57-3.86-19.23-5.44-7.66-1.57-14.7-2.39-19.81-2.74-2.55-.19-4.63-.27-6.06-.32-1.43-.04-2.23-.1-2.23-.15 0-.06.79-.11 2.23-.16s3.52-.06 6.09.06c5.14.2 12.24.94 19.94 2.51 7.7 1.59 14.51 3.73 19.27 5.7 1.2.47 2.26.94 3.19 1.38.93.42 1.73.8 2.36 1.15 1.27.68 1.96 1.07 1.94 1.12z" fill="#263238"/><circle cx="119.81" cy="175.13" fill="#ebebeb" r="78.67" transform="matrix(.18051915 -.98357147 .98357147 .18051915 -74.07 261.36)"/><g fill="#e0e0e0"><path d="m100.22 100.48s-.06 0-.12 0c-.18.03-.46.11-.51.13-.04.02-.57.3-.57.3-.03.02-.06.04-.05.05 0 0 .2.14.93-.18.4-.17.38-.27.32-.3z"/><path d="m98.93 100.01c.05-.01.32-.12.34-.15-.02-.02-.03 0-.05 0-.12.02-.38.08-.43.1s-.11.06-.1.08c.02.02.13 0 .24-.03z"/><path d="m101.32 99.4q.19 0 .4-.04s.2-.04.5-.13c0 0 .34-.1.4-.13t-.07 0s-1.23.18-2.38.52l.63-.11c.18-.03.35-.1.54-.11z"/><path d="m99.97 99.84s-.01 0-.02 0c.03-.02.04-.03.5-.12.16-.03.37-.08.49-.11.02 0 .05-.02.07-.03-.03 0-.07 0-.09 0-1.33.15-2.42.59-2.62.71.09.04 1.56-.34 1.64-.38 0-.02.02-.04.03-.06z"/><path d="m101.25 99.98s.06-.02.09-.04c.05-.03.09-.07.14-.1l.27-.15c.05-.03.05-.04.06-.05 0 0 0 0-.04 0-.27.03-.77.27-.81.3t-.11.16s.4-.13.4-.13z"/><path d="m97.67 101.64s-.05 0-.08 0c-.12.01-.23.04-.23.04-.33.09-.72.27-.75.3.05 0 .66-.1.93-.22.1-.04.19-.1.13-.12z"/><path d="m97.97 103.03s-.05-.06-.22-.06c-.03 0-.07 0-.1 0-.28 0-.56 0-.84 0-.35 0-1.53.3-1.71.47v.02c.08.05.19.02.26.09.11.12.06.17.02.2-.06.07-.89.45-1.1.51-.09.03-.1.02-.14.01-.01-.22.26-.24.3-.42-.14 0-.87.21-.99.38-.01.02-.03.05-.03.07 0 .16.07.32.06.48 0 .06.03.13.01.19-.02.12-.12.21-.13.33 0 .02 0 .05.01.07.16.25 2.18-.44 2.77-.83.13-.09.57-.65.36-.69-.23-.04-.45.03-.68.04.48-.2.99-.3 1.48-.5 0 0 .63-.35.64-.38z"/><path d="m92.81 101.9c.86-.19 1.63-.61 2.48-.83q-.88.33-.92.37l2.94-.96c.06-.02.15-.05.25-.13-.03-.01-.07 0-.1 0-.61.14-4.75 1.38-5.68 1.87.41.03.72-.24 1.09-.34-.01.01-.03.02-.05.03z"/><path d="m91.68 107.46s-.03 0-.04 0c-.05 0-.1.02-.2.07-.4.2-.72.5-1.14.66-.7.25-.91.33-.95.41 0 0 0 .01.01.01.05.02.09.02.25.02.25 0 .27 0 .31.05.07.07.02.2.13.26.03.02.21.04.38.04 1.11.02 1.64-.33 1.65-.33.15-.12-.04-.73-.04-.73-.08-.25-.32-.44-.36-.45z"/><path d="m94.1 103.25s-.08-.02-.19-.01c-.61.04-1.09.31-1.12.36.06.01.12 0 .17.03 0 .04 0 .05-.07.15-.05.06-.17.23-.05.22.2-.02.88-.4.95-.45.32-.19.41-.28.3-.31z"/><path d="m149.73 112.14c-.38-.75-1.08-1.28-1.44-2.04-.23-.49-.11-1.02-.23-1.52-.14-.59 0-.71.37-.95.51-.33.25-.56-.52-1.25-2.53-2.23-2.54-2.27-2.71-2.69.02-.03.05-.07.07-.11.05 0 .11-.02.16-.02-.67-.97-2.5-.68-2.6-2.28-.08-.06-.18-.14-.26-.2.03-.07.07-.16.11-.22h.12c-.36-.13-1.44-.41-1.45-.42-.72-.19-1.66-.22-1.85-.23-.65-.02-1.1-.53-1.7-.67-.84-.2-2.7-.58-3.45-.7q-1.38-.2-1.56-.13s0 0 0 0q-1.5-.22-2.24-.24s-.03-.01-.04 0h.01c.01 0 .03.01.05.02q.86.24 1.1.36-.07 0-1.04-.22c-.4-.09-.55-.12-1.03-.17-3.57-.33-6.3.25-6.32.26q.11.09.61.19c-.48.38-1.53.44-2.1.47-.03 0-2.9.21-3.05.34-.95.83.87 1.53.9 1.53 4.75.62 4.79.68 5.07 1.03.02.03 1.72 2.82.75 3.95-.39.46-.39.48-.39.56 0 .28.33.37.38.63.08.39-.16.76-.02 1.15.65-.02 1.27-.54 1.94-.07 1.14.8.36 1.66.35 1.67-.64.49-1.57.27-2.17.85-.33.31-.79 1.27-.71 1.91.03.3 2.46 7.06 4.09 8 4.21 1.71 4.33 1.63 4.67 1.38.57-.41 2.15-4.14 2.16-4.18.23-.55.04-1.22.49-1.71.24-.25.26-.25 1.42-.35q3.66-.31 3.88-.93c.23-.64.35-.99 1.04-1.17 1.66-.44 3.41-.19 5.06-.64.68-.18 1.39-.25 2.04-.52.01 0 .34-.15.08-.66z"/><path d="m105.48 110.15c.27-.44.24-.67-.1-.68-.01 0-1.06.06-1.33.47-.16.23.12.98.27 1.12.35.34 1.16-.89 1.17-.9z"/><path d="m115.45 97.49c-.24.05-.48.08-.73.12.75-.02 3.19-.19 3.59-.21-1.65.2-2.96.36-4.32.37-.32 0-.42.06-.56.12-.02.09-.23.51-.5.66-.65-.35-2.65.33-2.74.37.14.1.34.11.47.24-.01.02-.03.05-.04.07.24.02.33.03 1.15-.1-1.47.45-1.58.25-1.66.11-1-.18-1.14.19-1.2.37-.65.26-1.39.15-2 .54 0 .02.02.06.03.08.16.04.27.07 1.35.08.8 0 1.59-.4 2.4-.04q-.09.14-.3.23c.54.23 2.52-.28 2.44-.76-.06-.03-.13-.07-.19-.09.17-.16 1.52-.67 1.8-.68 1.69-.06 2.37-.55 2.42-.68-.02-.01-.05-.03-.08-.04 1.57-.09 2.28-.13 2.81-.34q-.12-.03-.39-.04s3.59-.36 3.77-.38c-.89-.05-.95-.06-1.28-.1.88-.05 1.76 0 2.64-.05-.81-.16-2.19-.27-2.2-.27-.03 0-3.38-.11-4.13.02.02.05.07.1.11.13-.14.01-.27.03-.6-.09-.23-.08-3.15.03-3.51.32.13.1.16.12 1.43.05z"/><path d="m101.3 100.44c-.08.08-.14.17-.23.24-.12.1-.14.1-.54.3.05-.08.12-.18.17-.26.02-.04.06-.08.07-.13-.03-.02-.31-.05-.67.19.03 0 .07.01.1.02v.03c-.39.21-.85.17-1.26.3.05.04.12-.01.17.04q-.07.09-.07.11t1.21-.1c-.38.12-1.38.43-1.5.64v.02s1.31-.2 1.48-.25q.12-.04.92-.5s.01.04-.02.1c0 0 0 .01-.01.02q.38-.23 1.34-.75c.21-.11.22-.12.26-.16q-.05-.02-.12-.02s-1.14.1-1.26.14c-.01 0-.03 0-.04.02z"/><path d="m111.28 111.41c.51.06 1.33 1.67 1.34 1.69.19.39.39.8.65.81.72.01 2.28-2.41 2.3-2.44.04-.08.09-.18.1-.27l-4.8-2.17c.16-.08.32-.16 1.64-.45.58-.13.87-.19.88-.33.03-.37-1.4-2.41-2.23-2.72-.37-.14-.8-.1-1.13-.36-.35-.27-.17-.9-.7-1.05-.49-.14-1.63.04-2.46.18-.85.14-.85.13-.98.1-.03-.14-.06-.28.13-1.43-.29-.19-1.32-.22-1.63-.23-1.59.05-6.88 2.92-6.15 3.67.72.75 3.75.75 4.17.64 0-.25-.01-.42 1.28-.3 1.1.1 1.31-.12 1.45-.28.23.19.8.93.8.94.29.47.33 1.04.59 1.52.33.61 1.34.76 1.16 1.71 0 .02-.66 2.11-3.82 2.4-.95.08-1.9-.16-2.84.11-.41.12-.55.75-.47.87.13.18.65.35 2.32.14q1.28-.16 3.22 1.21-.21.15-1.13.29c.38.51 3.87 2.01 4.7 1.75q0-.12-.18-.25t-1.4-1.9c1.24.39 1.6.64 2.22 1.27.12.12.21.21.28.21.43-.04 1.42-1.43 1.16-1.84-.55-.88-1.89-1.05-2.06-2.28-.14-1.01 1.57-1.19 1.58-1.19z"/><path d="m96.28 100.88s.35-.04.61-.13c.05-.02.14-.06.16-.07-.01 0-.02 0-.04 0-.11.02-.71.16-.73.21z"/><path d="m123.15 110.64h.8s.22-.05.3-.18c.05-.09.03-.15 0-.21-.05-.13-.18-.19-.24-.31-.04-.07-.03-.13-.02-.17 0-.01 0-.02 0-.03 0 0-.08-.09-.36-.11-.36 0-1.46.38-.99.81.1.1.29.2.51.2z"/><path d="m109.03 103.66s.01 0 .02-.01c-.06-.14-1.06-.67-1.88-.71-.72-.03-.6.49-.46.65.44.54 2.3.08 2.32.07z"/><path d="m104.36 98.96c-.24.04-.63.12-.72.16h.1c.36-.04.7.06.7.06-.06.12-.22.08-.28.2.03.07.66-.05.71-.06.23-.07 1.03-.52 1.05-.64-.08-.05-.17.01-.26 0 .11-.13.29-.09.41-.19t-.06 0c-.65.07-1.53.28-1.64.33.13.07.27 0 .4.03 0 .05-.07.08-.42.13z"/><path d="m100.78 101.57c-.17.07-.22.1-.03.28.17.16.68.15 1.16-.12.28-.16.87-.56.65-.62-.03 0-.07 0-.1 0-.41.03-1.62.44-1.69.47z"/><path d="m108.13 99.3s0-.01 0-.02c-.02 0-.04 0-.05 0-.02 0-.04 0-.05 0-.33.03-.66.09-.99.12-.38.04-.76.03-1.15.07-.27.03-.44.05-.5.07.09.04 1.17.08 1.76.04.3-.02.44-.05.87-.23.04-.02.07-.03.11-.06z"/><path d="m105.43 99.32s0 0 0 .01c.12.01 1.28-.22 1.62-.3.15-.04.18-.06.2-.11.01-.07-.1-.06-.09-.12 0-.03.03-.06.02-.09 0 0 0 0 0-.01 0 0 0-.02-.04-.04-.05-.03-.07-.02-.15-.02-.04 0-.11.02-.18.06-.27.12-.48.35-.78.4-.38.06-.5.08-.6.23z"/><path d="m108.24 98.22c.84-.22.84-.23.86-.25-.03 0-.06 0-.08 0 0 0-.81.09-1.06.15-.28.07-.21.18-.21.18.05.04.24-.01.49-.08z"/><path d="m109.95 98.2c.34-.03.45-.04.55.03 0 .01 0 .02-.02.04-.11.04-.22.05-.56.09-.93.1-1.18.15-1.24.18-.22.08-.29.31-.21.37t.61-.03c.24-.02.46.08.7.05.58-.08 1.12-.34 1.69-.47.36-.08.72-.05 1.07-.14.03 0 .06-.02.08-.03t-.24-.12s0-.02 0-.03c.06-.02.12-.04.18-.05.49-.12.5-.14.51-.18-.05-.02-.1-.02-.14-.06.09-.08.26-.08.26-.25.12-.09.28-.1.39-.2-.03 0-.07-.02-.1-.02-.57.03-2.69.36-2.91.45.1.04.21.01.31.02-.17.09-.6.1-.78.11-.63.01-1 .29-1 .3.06.05.75-.01.83-.02z"/><path d="m102.67 101.99s5.65.56 7.4-.58c.47-.31-.49-.57-.5-.57-.5-.12-3.14.23-3.69.33-.49.09-.76-.41-.64-.5.05-.04.13-.05.31-.06.94-.07.56-.44.46-.47-.23-.06-.46.04-.68.02-.27-.02-.5-.17-.76-.2-.08 0-.35-.03-.52-.02-.15.03-.67.39-.69.5.11.02.12.02.35 0 .26-.04.62-.08.69-.02.12.12-.43.59-.46.61-.32.19-.71.21-1.02.44-.59.45-.4.49-.25.52z"/><path d="m93.72 101.68s0 0 0 0c-.19.06-1.76.58-1.85.66.07.01.14.03 1.84-.66z"/><path d="m84.61 105.96s.02.02.02.03c.03 0 .07 0 .1-.02.51-.22.98-.52 1.49-.74.92-.4 1.88-.69 2.8-1.11q.21-.1.54-.49s0-.04 0-.05c-.29 0-.54.16-.81.24q.24-.14.3-.27s-.02-.02-.03-.02c-.03 0-.07 0-.1 0q-1.08.21-6.19 2.92c-.45.24-.8.42-1.25 1.02.01 0 .03.02.04.02 1.15-.28 2.07-1.03 3.1-1.54z"/><path d="m91.6 103.06c.1.03.5-.09.87-.21 1.51-.49 2.26-.64 2.26-.64.47-.08.95-.1 1.41-.24.37-.1 1.8-.72 1.81-.73.28-.12.3-.14.33-.18-.17-.05-.4.02-.4.02-.43.14-.82.37-1.25.51.57-.37 1.2-.64 1.76-1.03-.02 0-.04 0-.05 0-.02 0-1.75.49-1.84.7-.07.15-.36.51-1.61.55 0 0-.01-.02-.02-.03.04-.03.08-.06.11-.08.01 0 .03-.02.04-.03.2-.14.78-.14.6-.44-.03 0-3.55.9-3.67 1.33t1.72-.52c-.21.22-.51.25-.76.38.04 0 .05 0 .47-.12.11-.03.32-.1.74-.16-.4.17-1.66.53-2.36.69-.25.05-.28.19-.16.23z"/><path d="m81.07 109.18c.22.1.44-.06.66 0 0 .02.02.03.03.05-.16.26-.45.36-.64.58.27.06 2.61-.46 4.03-1.19.46-.24.65-.33.88-.37l.04.04q-.14.17-.16.21c.08.12.86.47.87.47q.82-.1 1.74-.79s.04-.03.04-.04q-.08-.03-.87.21c.13-.24.99-.65 1.5-.52.18.05.22.04.3 0 0 0 .47-.28.47-.61-.36-.31-.43-.79-.16-1.01.24-.19 2.31-1.89 2.3-2.06-.07-.06-.15-.09-.23-.13 0-.03-.01-.06-.01-.09 0 0-.02 0-.02.01-.9.49-1.61 1.29-2.61 1.62-.01-.39.39-.43.56-.67-.02-.02-.04-.04-.06-.06-.38.06-.73.27-1.12.27.14-.14.34-.21.47-.38 0-.01-.02-.03-.03-.05-.53.05-.98.36-1.5.45.38-.35.91-.43 1.32-.73-.31-.03-4.76 1.71-4.76 2.2.04.03.1.07.14.11-.1.11-.11.12-.63.3-.88.32-.93.4-.95.51.04.03.09.05.14.05.45 0 .87-.22 1.32-.22.32 0 .6.19.92.19-.64.31-1.42.38-1.75.42-2.18.2-2.57 1.07-2.22 1.23z"/><path d="m97.89 117.82c.1-.16-.08-.19-.22-.2 0 0-.62-.01-.81.14-.27.22-.29.6-.21.7.18.23 1.1-.42 1.24-.64z"/><path d="m97.6 114.93s.12-.03.16-.09c.1-.12.04-.37-.02-.45-.1-.15-.26-.26-.36-.41-.17-.27-.22-.6-.43-.85-.03-.04-.08-.08-.11-.12-.22-.2-.53-.24-.75-.44-.14-.13-.1-.35-.24-.48-.02-.02-.05-.02-.07-.02-.25.06-1.23.98-1.27 1.02-.13.12-.29.28-.41.41l-1.11 1.18q.49.14.48.4t.03.33c.07 0 .23-.08.54-.25.46-.25 1.23-.67 2.01-.6.53.05.99.43 1.55.36z"/><path d="m95.61 116.82s-1.16.01-1.58.22c-.25.12-.38.58-.27.69.2.22 1.75-.32 2.08-.66.1-.11.15-.24-.23-.25z"/><path d="m75.97 179.12c-.45.09-.35.79-.11.94.16.1 1.21.53 1.28.07.04-.27-.6-1.01-1.17-1.01z"/><path d="m156.55 120.74s.02-.06.02-.09c-.06-.18-.26-.53-.54-.72-.05-.03-.11-.07-.16-.1-.44-.22-.95-.21-1.37-.48-.3-.2-.47-.56-.86-.62-.47.02-.92.12-1.39.13-.45.01-.9-.1-1.35-.05-.29.04-.16.41-.4.49-.26.09-.44-.21-.7-.12-.04.01-.09.03-.13.05-.16.36.09.87-.4 1.12-.12-.08-.93-1.08-1.03-1.41-.22-.77-1.68-1.51-2.18-1.25.05.38.49.39.63.68-.22.48-.81.28-1.13.59.12.13.62.16.9.16.5.01 1.9.85.92 1.37.27.52.83.24 1.21.44.4.21.37.36.3.74.08.1.16.16 1.03.24.57.05.76.08.94.13.4.11.74.37 1.14.48.05.01.11.03.17.04.14.03.34.06 1.53.02 1.07-.04 2.85-.85 2.84-1.2 0-.23-.16-.41-.18-.63q.06-.03.18 0z"/><path d="m77.72 177.58c.33.67 3.08 1.45 3.19 1.13.06-.17-2.67-5.02-2.71-5.06-.31-.33-1.27-1.33-3.42-1.33-1.23.14-2.19.76-2.21.79.12.17 1.03.22 1.84-.05 1.16-.38 1.78.09 1.81.29-.08.09-.25.21-.54-.04-.01 0-.03.01-.04.02-.06.51.73.88 1.25 1.13.96.46.98.69 1.06 1.37.04.34.07.55.22.86.11.22.19.37.18.48-.05.35-.43.25-.63.4z"/><path d="m81.47 181.91c.25.22-.08.71.32.83.7.22.81-.76 1.44-.7.07 0 .13.02.34.1 1.05.41 2.93.85 2.94.85.1 0 .16 0 .18-.09.08-.31-.13-.63.02-.94.47-.97-4.64-2.48-4.98-2.49-.09 0-.1.01-.14.04q-.02.08.05.16c.62.86.2 1.64.16 1.67-.12.06-.52-.09-1.07-.3-1.02-.38-1.13-.37-1.19-.36 0 .02 0 .05.03.07.56.51 1.35.66 1.92 1.16z"/><path d="m105.96 134.88c-.48.08.44.78.63.92 1.21.9 1.82.32 1.83.31.24-.33-1.95-1.21-2.45-1.23z"/><path d="m60.03 124.32s.03-.03.04-.04c0 0-.01.01-.02.02z"/><path d="m51.52 136.69c-5.26 8.58-8.07 20.25-8.07 20.25l.3 2.16q.19.07 2.14 7.61c-.24-.05-.56-.1-.8-.14.23.93 2.41 5.34 2.42 5.38.35-.34.71-.69-.25-2.89-.44-1-.94-2.13-1.14-7.17 1.26 1.38 1.27 2.12 1.29 3.05 0 .67.02 1.42.21 1.93.41 1.09.97 2.1 1.42 3.17.58 1.38 1.87 2.35 2.29 3.83.34 1.19-.22 2.58.77 3.62.13.14.37.28.53.39.3.19.67.51.99.67 1.13.55 2.31.99 3.45 1.52 1.16.55 2.61.11 3.67 1.04q2.43 2.13 3.38 2.43c.14.04.33.11.47.16 4.2 1.48 4.9 7.2 9.66 7.99 2.82-3.08 3.26 1.39 3.32 3.46q.02.65-1.7 3.01s-2.12 4.49-1.81 5.46c.05.16.11.37.17.53 1.08 2.62 6.17 10.22 6.21 10.27 1.28 1.66 3.33 2.39 4.73 3.91 1.07 1.15 1.64 3.11 1.62 5.5 0 .11.21 11.56 3.24 18.4 3.84 8.68 9.23 8.9 9.28 8.9q-4.49-3.61-3.59-5.64-.54-.89-1.12-4.78.22-.03 1.16.2.01-.1-.81-1.92 1.04-.6 1.1-1.24c.1-.05.12-.06.22-.11 1.48.83 2.28-.37 1.99-1.04l-.33-.74c3.56.63 6.82-7.64 6.85-7.73.73-.99 2.2-1.37 2.8-1.48 1.36-.27 1.68-1.74 2.74-2.37.47-.28.83-.22 1.13-.12.5.17.54.19.71-.29.36-1.05.49-2.15.76-3.21.15-.6-.08-1.29.44-1.8.6-.58.82-.8.59-1.32-.04-.09-.08-.23-.09-.34 3.19-.48 4.89-3.47 4.91-3.5.01-.04.02-.09.02-.12 0-.37-.23-.69-.22-1.06 0-.55.87-1.14.26-1.62-.43-.34-.98-.08-1.43-.28-1.48-.65-2.22-2.2-3.61-2.96-2.07-1.13-4.27-1.99-6.39-3-1.2-.74-1.01-2.27-1.64-3.29-1.18-1.17-1.91-2.82-3.17-3.92-1.65-1.44-4.02-1.55-5.64-3.05-1.28-1.19-1.96-2.89-3.37-3.97-.21-.16-.51-.33-.75-.41-7.36-2.69-13.17-4.81-15.07 1.07-1.93-2.06-8.23-.71-6.93-4.34.79-2.2.16-4.06.15-4.07-1.58-1.25-3.55-.69-5.3-1.17q.98-1.82.74-2.81 1.13-1.64 1.75-3.21c-.28-.36-2.75-3.35-4.74 3.2-1.01-.27-1.95 1.02-2.98.12-2.42-2.12-2.94-4.3-3.04-5.42-.12-1.37 1.17-2.16 1.4-3.39.14-.79-.83-1.38-.38-2.22.59-1.09 3.17-2.83 3.75-3.11 1.04-.51 4.35.98 4.37 1 .11-.06.25-.14.36-.19-.21-.34-.58-.53-.83-.82.05-.11.11-.26.16-.36.78-.26 6.39.38 6.41.4 2.1 1.74-.01 4.77 1.99 6.54 3.25-2.28-.53-5.66.52-8.4 1.09-2.84 4.17-2.92 6.19-4.47-.04-.01-.04-.01-.04-.01-.05-.1-.13-.23-.19-.32.04-.1.08-.24.11-.35.11-.01.25-.02.36-.03.04-.13.09-.29.13-.42-.09-.06-.22-.14-.31-.2l1.64-5.28c-.12.81-.62 3.23-.62 3.24q.29-.11 1.24-3.61c.12.42.4.78.4 1.24.65-.73.71-1.85 1.61-2.43.02-.02 3.55-1.09 3.78-1.03q.86-2.72 2.72-3.86.26.07 5.32-1.63c-.07.09-.15.2-.22.29.22.13.53.29.78.33-.02.12-.06.28-.08.39q-3 1.33-3.14 1.86c1.77.39 7.88-1.67 7.41-4.33-.85.35-1.07 1.27-1.66 1.86-.55-.28-1-.51-1.37-.71.41 0 .79-.36.8-.37 0 0 0-.01.01-.02 0 0 0 0 0-.01-.03-.01-.04-.02-.15-.02-.73-.03-1.09-.27-1.22-.37-.31-.25-.32-.46-.24-.75.03-.11.02-.12 0-.14h-.02c-.05.05-.38.56-.26 1.01-.62-.46-.66-.83-.76-1.71-.59-.36-.62-.43-.83-.82 1.01-.07 1.74-.11 2.14-1.03q-.39-.59-8.09 2.3 5.7-3.93 10.82-4.41c.95.97 6.38-.47 7.41-1.68q-.12-.64.41-1.45c-.04-.15-.06-.22-.11-.37-.39-.17-.78-.34-1.18-.51-.34-.07-.34-.07-.35-.07-.24-.03-.99-.1-2.45.48-.03-.11-.06-.25-.08-.36.51-.48.71-.52 2.29-.78h.02c.08-.03.2-.05.26-.12.1-.16-.84-1.37-2.35-1.29q-.34.02-.5-.07c-.04-.3.24-.56.1-.87-.2-.42-.75-.43-.95-.85-.08-.18.02-.3.3-.55q.41-.38-.03-1.75-1.11-3.46-2.29-2.01c-.18.22.1.56-.17.76-.31.24-.71-.12-1.01.15q-.69.63-.85.65c-1 .1-1.51-.81-2.29-1.16-.09-.29.58-1.91 1.16-2.21-.45-.26-1-.13-1.45-.4-.1-.06-.16-.16-.26-.44-.03-.1-.11-.32-1.22-.96-.25-.14-.31-.15-.51-.17-1.15.07-2.26-.41-3.41-.18-.01 1.05-1.44 1.7-.81 2.93-.26.46-.94.5-1.09 1.07-.18.66.42 1.19.31 1.85 0 .03-.48 2.63-2.05 2.68-.34 0-1.14.09-1.09.68-.09.08-.14.1-.49.28-.7 1.43-.1 3.51-2.06 4.35-.37-.93-1.28-1.36-1.91-2.05.65-1.1.56-1.57.45-2.16.13-.07.36-.19.49-.26 0-.07.04-.19.03-.26-.12-.04-.3-.09-.43-.11-.57-.83-1.55-.38-2.27-.74-.73-.37-.97-1.23-1.65-1.64-.12-.07-.28-.15-.41-.2-.65-.25-1.24.15-1.86.2q-.17-.21-.11-1.81.02-.56-1.23-.92c.05-1.7 4.66-3.86 6.64-4.79-.09-.56-.71-.45-.99-.77q3.45.09 5.76-1.55c-1.34-.04-1.61-.04-2.54-.86 1.33-.2 2.77.91 4.01-.35-.08-.09-.22-.17-.34-.2 0 0 .77-.63 1.34-.08q2.32-.34 2.99-.72c.15-.08.33-.22.44-.34.31-.34.01-.84.3-1.19.27-.32.72-.19 1.02-.41.18-.15.25-.38.39-.55-.02-.02-1.46-2.25-2.61.26-1.25.42-2.59 2.88-3.71 1.38.28-.78 2.03-.97 1.43-1.93-.93.15-1.46.95-2.22 1.39-.06-.47 1.05-1.44 1.07-1.45t-.81-.22q1.78-1.89 1.84-2.15c-.05-.06-.12-.13-.17-.19q1.01-1.03 5.01-2.41-.24-.08-.66-.09c-3 .09-7.96 4.67-8 4.72.02.07.04.15.06.22.31.06.62.06.93.1v.2c-.7.19-.81.22-1.16.44l-.04.15s0 0 0 0c.05.02.12.05.18.08-.82.92-2.23 1.01-2.96 2.06q-.37-.58.7-1.34-.47-.23-2.37.72c-.1.05-.72.29-2.71-.22-.09-.22-.02-.46-.12-.68-1.71.09-2.39.93-3.74 2.62-.08-.51.42-.82.46-1.29-.91-.04-1.77.54-2.7.2.47-.31 1.13-.33 1.42-.91-.06-.07-.07-.08-.13-.16-.24.07-.28.08-.89-.11-.05-.11-.13-.26-.21-.36-.46 0-.79.33-1.19.5.09-.11.22-.24.33-.33q-.28.13-.74.42.29-.38 1.06-1.02l-1.3.71s-6.72 5.66-9.32 8.7c-2.94 3.44-5.69 6.8-9.97 13.77z"/><path d="m88.26 183.71c-.47.2-.04.85.45 1.04.35.13 1.55.21 1.62.1.04-.06-.02-.21-.82-.66-.89-.49-1.04-.48-1.24-.48z"/><path d="m167.1 140.53c.24-.09.47-.21.72-.28.29-.08.63.09.89-.15.15-.14.18-.53.09-1.15-.05-.32-.14-.52-.23-.75-.15-.37-.14-.49.07-.8.09-.13.25-.35.23-.67s-.21-.57-.36-.73c-.08-.08-.19-.18-.28-.24-.24-.18-.53-.31-.77-.48-.18-.13-.23-.22-.26-.26-.02-.03-.02-.03-.05-.04-.08 0-1.93.08-.95.93.06.05.1.09.25.13-.05.03-.13.05-.18.06-.8.21-1.01.35-1.21.49-.14.1-.32.28-.33.61.02.12.05.3.31.5.2.16.46.16.68.27 0 .02-.03.04-.04.06-.41.51-.85 1.57-.85 1.58-.16.42-.18.64-.07.85.19.35 1.38.46 2.34.09z"/><path d="m179.84 164.41c.08.01.13-.02.2-.06 0 0 .41-.3.41-.32.06-.13-.15-.29-.55-.41-.43-.13-1.15-.18-.95.19.12.21.64.57.88.6z"/><path d="m170.85 138.7c-.08 0-.07.04-.07.12l.52.15c-.26-.19-.36-.25-.45-.27z"/><path d="m191.32 147.79c1.03.99 1.8 2.04 2.32 3.23-.69-1.9-1.55-4.45-2.31-6.32-3.4-7.39-3.46-7.53-5.74-11.26l-2.47-3.79c-.1-.14-.19-.27-.29-.4.1.21.13.29 1.16 1.9-.21-.18-.37-.4-.56-.6.23.74.81 1.24 1.22 1.87-.04.02-.1.04-.14.06-1.81-2.22-3.23-4.73-5.07-6.92.96.91 1.62 2.09 2.7 2.89-.18-.57-2.93-4.14-4.85-5.91-1.38-1.28-1.52-1.47-1.66-1.66.09.05.19.12.27.17-.14-.17-.23-.27-.61-.63-.04.02-.09.05-.13.07-.13-.08-.38-.24-1.28-1.17.09.05.2.12.29.17-.09-.46-1.84-1.73-1.98-1.81q.04.24.29.68c-.62-.37-.82-1.15-1.44-1.52.06.33.37.54.43.87q-.35.48-.38.81c-.04.5.96 3.55.97 3.57.8 2.02.62 2.63.6 2.69q-.56 1.61-1.6 2.07c-.38.17-.4.29-.31.76.01.06 1.28 6.24 3.74 5.66.79-.19.67-1.45.61-2.06.16.17 3.36 4.98 3.85 6.4.23.67.46 1.31 1.07 1.43.17-.2.55-1.76.31-2.57-.56-1.84-.31-1.99.22-2.31.1-.4.08-.55-.93-1.56q-.7-.7-1.43-2.69c-.28-.76.58-1.47.1-2.23q-1.27-2-1.3-2.11c-.02-.07-.03-.16-.05-.23.03-.03.07-.08.11-.11.56.32 2.29 2.05 2.35 2.49-.05 0-.12-.01-.17-.02q.85 3.78 2.04 5.45c1.04 1.45 3.02 1.67 4.07 3.11-.22-.08-.38-.24-.57-.36-.04.02-.1.04-.14.05.05.17.12.33.19.49-.7-.37-1.35-.84-2.11-1.1.61 1.34 1.65 2.46 2.04 3.92-.83-.2-.64-1.43-1.56-1.55-.03.04-.08.09-.12.12 0 .02.64 2.08.72 2.23.1.2.61 1.22.48 1.6q-.5-.15-.61-.15c-.1.14-.16.31-.26.46.02.04.05.09.06.13h-.02q-2.33-.65-2.39-.43c-.11.04-.26.09-.37.13-.43-.38-1.02-.69-1.64-.95l1.1.43c-.16-.18-.6-.67-1.53-.82-.32-.05-.39-.06-1.06-1.25-.5-.87-1.04-2.11-.81-3.02.09-.38-.16-2.11-.57-2.24-.05-.01-1.28-.27-1.19.37.04.28 1.05 3.34 1.91 4.86.35.61.35.69.36.72-.07.05-.08.06-.43.06-.24 0-.56-.02-.81-.03-.73-.78-1.68-1.34-2.29-2.24-.31-.46-.49-1.01-.91-1.41-.72-.69-1.45-.96-1.82-1.05.57-.33 1.64-2.33.35-2.64-.23-.06-.51-.08-.69-.09-.84-.06-.99-.07-.95-.28.08-.43.97-1.08.38-1.24-.02 0-1.62-.3-1.97.22-.03.05-.02.13-.02.19-.03.52.24 1 .22 1.52-.02.43-.42.75-.34 1.21.12.07.39.1 1.05-.21.24-.12.44-.21.57-.11.51.44-.29.93-.18 1.42.22 1 .66 1.22 1.23 1.51.89.44 1 .49 1.15.65 0 .16-.12.29-.07.45.16.5.54.9.67 1.42.02.51-.52.11-.91-.19q-.17-.12-.69-.27c.09.66.72 1.1.72 1.79 0 .37-.37.49-.89.63-.14.03-.35.09-.31.25.02.08.18.37 1.33.57.48.09 1.48.26 1.46.59-.29-.04-.45-.02-.83.04v.12c-.18 0-.28.05-.4.12-.29.17-.4.51-.66.71-.33.25-.73.36-1.06.59v.1c.12.05.14.06 1.28.15-.07.19-.16.38-.26.52-1.19-.31-1.36-.49-1.8-.98.08.26.22.59.33.84-.06.11-.14.26-.21.37-.26.05-.62.11-.89.12q-.51-.49-1.45-.71c-.07.1-.17.23-.24.33.19.26.45.6.65.86-.11.05-.26.12-.37.17 5.33 2.72 3.29 8.22 3.24 8.26-2.59-.72-4.97-2.03-7.53-2.83.08.25.23.58.36.8-.02.07-1.15 7.14-.31 7.59q-.69 2.12-.77 2.3c1.86.23 2.24.28 2.99.62q.05 1.3.06 1.33l4.58-.55c1.21.09 1.82-1.35 1.38-2.48 1.26-2.68 1.29-2.69 3.2-3.02q.49-2.27.71-2.39c.96-.51 1.37.7 2.14.86.95-1.09 1.69-1.78 2.59-.62.04.05 3.09 5.43 4.32 8.53-.1.34-.15.76-.05.92.11.18.42.16.42.44 0 .25-.14.48-.13.73.02.21.15.27.2.3.02 0 .05.02.09.02-.06.78-.61.74-2.69.61.32.94 1.58 2.58 1.59 2.58.36-.64.06-1.39.33-2.04.11.04.26.09.36.13.41-.41.66-.94 1.05-1.37 0-.02 0-.04 0-.07.2-.11.38-.28.44-.54.02-.07.03-.17.03-.25.02-.28-.03-.56-.02-.84 0-.02 0-.04 0-.06.1.22.22.48.32.68 0-.36 0-.52-.26-1.07.02-.15.05-.29.05-.44.03-.48-.13-.56-.29-.61-.07-.01-.18-.01-.3 0-.19-.37-.43-.81-.73-1.37.05-.1.1-.22.15-.33.01.05.03.11.06.15 0 0 .48.88.52.91.16-.04.26-1.19.25-1.8 0 0-.01-.57-.07-.87l1.28 2.32s.01.04.72 5.31l.97 4.54c.08-.23.17-.55.22-.8.2-.99 0-1.99.01-2.98q0-3.23.36-3.39c.53.23 1.55 1.16 1.61 2.11.16-.19.36-.46.48-.67.13.02.29.04.41.06.95-2.75-.56-5.6.36-8.34.22-.03.54.05.72.19-.07.09-.16.22-.23.32.27.49.39.62.76.96q.02.52-.27 1.26c.28.49.35 1.07.57 1.58 1.52-.51-.23-2.31.41-3.38.63 0 .7.22.78.72-.08.1-.19.23-.28.32q.14.38.21 1.66c-.09.08-.2.2-.29.28.49 2.62 2.32 4.95 1.65 7.81-.11.03-.26.08-.38.12-1.01-1.02-.42-3.61-2.43-3.5-.06.22-.24.5-.43.64-.21-.12-.5-.27-.72-.37 0 .22.1.53.23.72-.51.28-1.06-.06-1.57.08-.09.25-.19.6-.23.86.1.05.24.13.34.18-.1 1.48-.3 4.24 1.17 6.1.1-.07.23-.16.33-.22.02-.12.05-.27.07-.39.48.6.51 1.45 1.09 2 .13-.21.27-.51.34-.74.13.2.36.43.55.56-.82 5.53-.94 6.38-1.84 7.73-.77-.22-.87-.42-.96-1.24-.22-.04-.54.02-.72.15-2.57-.72-1.56-4.47-4.28-5.07-.69.8-.5 1.94-1.04 2.79-.12.02-.28.05-.4.08-.48-.53-5.36-7.2-5.65-8-.09-.25.17-.61.35-.8q.43-.45.84-3.73c-.56-.56-.68-.66-1.03-.95q-.61.29-2.7-.66c-.22.14-.49.35-.67.55-2.62-1.69-5.56.96-8.19-.6-.31-.09-.36-.1-.42-.12-.84 0-1.12 0-1.78-1.22-.13-.14-.14-.14-.14-.14-.13.07-.31.16-.42.25-.67.54-.45 1.55-1.1 2.1-.82.68-2.03.42-2.81 1.18-.23.23-.25.71-.32 1.02q-.88 3.4-1.9 3.66c-.91.23-2.57 1.05-2.8 1.3-.69.72-5.82 6.53-5.82 6.54-.51 1.73.35 3.45.03 5.17-.27 1.45-2.47 1.71-2.16 3.52.46 2.71 1.34 5.3 2.01 7.96.28 1.11 3.22 5.34 3.92 5.42 3.5.37 7.08-.24 10.52.85.11.04.22.16.3.25.53.66-.12 1.53.39 2.19.5.65 1.34.55 1.98.9q.17 1.46-.66 2.66-2.31 3.35-2.28 4.44c.04 1.73.09 4.09-3.03 8.62-1.44 2.09-3.64 3.38-5.34 5.2-1.59 1.68-2.2 4-3.7 5.73-5.85 6.77-6 6.87-6.83 7.44-.56.38-.88.6-1.59 1.6 2.06 1.13 5.01-.1 5.97-.51l3.89-1.71 5.01-2.56c1.18-.81 2.03-2.02 3.26-2.77 1.41-.86 3.11-1.07 4.52-1.95 3.35-2.11 7.05-6.92 7.45-7.52 1.63-2.43 6.17-5.74 7.51-6.68 2.12-1.57 5.47-6.14 6.46-8q-.41-.23-1.22-.23-.13-.28.88-3.36c.37-1.14.34-2.35.56-3.51.56-3.03 1.76-5.92 2.1-9l1.14-9.69q.13.34.05 1.75c.24-.12.47-.43.59-.68.49 7.59-3.05 14.38-4.29 21.62q.86-.21 1.2-.06 3-4.07 3.22-4.63c-.05.12-.11.29-.15.42.09-.23.22-.53.3-.76l.09-.26.57-1.62c.25-.74.56-1.67 1.26-4.22-.03.14-.06.26-.09.39.56-2.22 1.28-4.98 1.7-7.13.32-2.21.81-5.15 1.03-7.37.04-.67.07-1.29.1-1.87-.17-1.83-.16-2.12.06-8.44 0 .03.02.06.02.09q-.81-8.83-.77-9.24s.02.03.03.04c-.35-2.78-.58-3.76-1.25-6.59l-1.61-5.79c-.54-1.13-1.22-2.17-2.32-3.23zm-16.08-7.7s.05 0 .37.14c-.15-.04-.28-.07-.4-.09 0-.01.02-.03.03-.04zm10.09 20.02s-.02.04-.02.05c-.11.27-.06.57-.12.85-.06.31-.22.4-.33.46-.08.05-.16.09-.16.24v.03c-.85-.61-1.54-1.15-3-6.78.16-.17.45-.33.68-.37l3 5.44s-.03.03-.04.07z"/></g><path d="m145.73 95.74-3.27 13.95-2.65-.62-4.97-10.1-1.98 8.47-3.19-.75 3.27-13.95 2.67.63 4.95 10.09 1.98-8.47z" fill="#263238"/><path d="m97.28 258.81c-.96-.54-1.69-1.12-2.21-1.75l1.66-2.17c.5.58 1.12 1.1 1.88 1.55.76.46 1.55.79 2.38.98.92.21 1.62.24 2.13.07.5-.17.81-.48.91-.93.08-.33.01-.64-.19-.92-.21-.28-.5-.53-.87-.76s-.89-.5-1.54-.82c-1-.5-1.81-.96-2.43-1.37s-1.1-.95-1.46-1.63c-.35-.67-.42-1.47-.2-2.4.19-.81.58-1.5 1.17-2.05s1.38-.92 2.35-1.1 2.1-.12 3.37.18c.89.21 1.74.52 2.54.93s1.47.89 2.02 1.44l-1.57 2.22c-1.12-1.03-2.32-1.7-3.61-2-.9-.21-1.61-.22-2.11-.03s-.81.52-.92 1 .05.89.5 1.24c.44.35 1.15.76 2.12 1.22 1 .5 1.82.96 2.43 1.37.62.41 1.11.95 1.46 1.6.36.66.43 1.45.21 2.38-.19.8-.58 1.47-1.18 2.02s-1.39.92-2.37 1.1-2.11.12-3.38-.18c-1.1-.26-2.13-.66-3.09-1.2z" fill="#263238"/><path d="m188.3 195.71-2.59-.61 2.53-10.8 13.95 3.27-2.47 10.54-2.59-.61 1.72-7.33-3.03-.71-1.52 6.48-2.51-.59 1.52-6.48-3.23-.76-1.78 7.59z" fill="#263238"/><path d="m43.56 145.96 12.88 7.83-.81 3.47-10.16.86 8.7 5.38-.81 3.45-15.02 1.31.78-3.35 10.54-.85-9.04-5.59.7-2.99 10.63-.87-9.12-5.56.72-3.09z" fill="#263238"/><path d="m119.68 166.09 47.05-46.06-35.39 55.04z" fill="#ff725e"/><path d="m118.68 190.27-45.95 47.16 34.08-55.87z" fill="#455a64"/><path d="m132.06 180.86c-1.66 7.09-8.75 11.49-15.84 9.83s-11.49-8.75-9.83-15.84 8.75-11.49 15.84-9.83 11.49 8.75 9.83 15.84z" fill="#263238"/></svg>