<svg viewBox="0 0 2770.94 1495.03" xmlns="http://www.w3.org/2000/svg"><path d="m599.47 289.51s39.07-33.01 28.83-49.15c-10.24-16.13 28.01-17.93 14.87-39.54 26.66-25.74-16.89-117.43-62.54-126.17s-69.99 5.89-78.49 28.4c-44.82 10.88-34 26.79-51.39 60.67s-78.05 22.62-79.21 54.51c-1.16 31.51-27.43 27.62-27.43 38.95 10.43-2.55 17.39 13.57 36.32 10.38 12.75 14.45-19.71 13.32-20.86 21.95 37.09 26.26 56.02-4.5 74.96 5.25 18.93 9.75 164.93-5.25 164.93-5.25z" fill="#272727"/><path d="m613.28 236.18s-3.8 48.08 0 60.65c3.81 12.57 13.66 18.2 13.66 18.2s25.98 70.06-9.37 81.6-85.1-72.97-79.5-117.24c11.11 2.72 15.98 2.06 12.94-17.26 12.94-14.35 62.25-25.95 62.25-25.95z" fill="#ffa17e"/><path d="m548 242.8s2.84 14.82 3.04 19.32c27.05 8.44 51.48 11.69 62.25-25.95.73-15.7-65.29 6.63-65.29 6.63z" fill="#c28d8d"/><path d="m641.21 329.87s42.54 23.51 40.99 55.78c-3.09 33.01 51.77 144.81 51.77 144.81l72.64 133.56s37.09 28.74 38.64 36.51c1.55 7.76-30.9 21.35-47.4 13.77-16.5-7.59-16.74-35.33-16.74-35.33s-92.35-95.23-101.43-126c-15.26-39.02-43.85-122.3-53.89-134.31-10.05-12.01 15.42-88.79 15.42-88.79z" fill="#ffa17e"/><path d="m562.25 902.22c-5.55.6-84.88 35.15-128.99 105.91-44.11 70.77-95.54 198.49-102.25 205.82s22.74 23.49 22.74 23.49 262.89-268.81 265.34-296.94c2.45-28.12-56.84-38.29-56.84-38.29z" fill="#494a5c"/><path d="m364.76 753.54s114.06 161.65 168.7 179.2 81.55-9.57 81.55-9.57-104.98-174.11-250.25-169.62z" fill="#494a5c"/><path d="m331.34 1220.12c-.31-.5-34.13 38.31-40.89 43.81s124.77 15.3 124.77 15.3-54.73-44.32-57.13-46.22-26.75-12.89-26.75-12.89z" fill="#c96868"/><path d="m432.83 1253.51 62.43 2.62s1.41 18 .15 18.01-65.77-.91-65.77-.91l3.18-19.71z" fill="#3a3c40"/><path d="m459.86 1275.53s127.51 21.84 129.85 21.93 11.49-20.84 1.13-26.35-126.71-14.8-129.41-13.25-3.82 17.29-1.56 17.67z" fill="#898e96"/><path d="m265.73 978.81c-140.78 0-254.9 114.12-254.9 254.9s114.12 254.9 254.9 254.9 254.9-114.12 254.9-254.9-114.12-254.9-254.9-254.9zm0 468.26c-117.83 0-213.36-95.52-213.36-213.36s95.52-213.36 213.36-213.36 213.36 95.52 213.36 213.36-95.52 213.36-213.36 213.36z" fill="#363636"/><path d="m265.73 1006.91c-125.26 0-226.8 101.54-226.8 226.8s101.54 226.8 226.8 226.8 226.8-101.54 226.8-226.8-101.54-226.8-226.8-226.8zm0 440.16c-117.83 0-213.36-95.52-213.36-213.36s95.52-213.36 213.36-213.36 213.36 95.52 213.36 213.36-95.52 213.36-213.36 213.36z" fill="#b9bec9"/><path d="m1058.66 978.81c-140.78 0-254.9 114.12-254.9 254.9s114.12 254.9 254.9 254.9 254.9-114.12 254.9-254.9-114.12-254.9-254.9-254.9zm0 468.26c-117.83 0-213.36-95.52-213.36-213.36s95.52-213.36 213.36-213.36 213.36 95.52 213.36 213.36-95.52 213.36-213.36 213.36z" fill="#363636"/><path d="m1058.66 1006.91c-125.26 0-226.8 101.54-226.8 226.8s101.54 226.8 226.8 226.8 226.8-101.54 226.8-226.8-101.54-226.8-226.8-226.8zm0 440.16c-117.83 0-213.36-95.52-213.36-213.36s95.52-213.36 213.36-213.36 213.36 95.52 213.36 213.36-95.52 213.36-213.36 213.36z" fill="#b9bec9"/><path d="m265.73 1261.51 306.99 85-5.16-7.51-301.83-83.77z" fill="#4e5054"/><path d="m74.9 1044.45s2.36-19.63-27.17-20.1c-.47.16-2.83 51.52-2.83 51.05s30-30.94 30-30.94z" fill="#4e5054"/><path d="m259.92 959.82c-129.84 0-237.78 93.56-259.92 216.85 9.01-2.98 18.01-6.02 26.96-9.16 25.8-105.38 122.03-183.69 236.86-183.69 134.59 0 243.7 107.55 243.7 240.23 0 16.07-1.61 31.76-4.67 46.95 5.32 1.48 10.67 2.87 16.06 4.12 3.32-16.69 5.07-33.95 5.07-51.62 0-145.63-118.23-263.68-264.07-263.68z" fill="#ebe1dc"/><path d="m1046.9 985.37c5-7.65 9.55-15.62 13.65-23.8-3.12-.11-6.24-.21-9.38-.21-145.84 0-264.07 118.05-264.07 263.68 0 17.67 1.75 34.92 5.07 51.62 5.39-1.25 10.73-2.65 16.06-4.12-3.05-15.18-4.67-30.88-4.67-46.95 0-132.55 108.91-240.02 243.33-240.22z" fill="#ebe1dc"/><path d="m381.59 804.56s14.24 44.19 15.5 44.4 79.58-16.33 82.51-18.43c2.93-2.09 6.49-23.25 6.49-23.25h-6.07l-2.3 18.22s-55.71 13.4-57.17 12.57c-1.47-.84-10.05-32.25-10.05-32.25l-28.9-1.26z" fill="#b9bec9"/><path d="m440.23 809.8 27.64 97.38 18.22-5.03-27.01-99.89z" fill="#b9bec9"/><path d="m533.21 792.84s-70.99 34.24-106.17 34.24c-13.51 0-76.96-32.98-76.96-35.81s12.88-27.33 19.16-27.64 36.12 6.91 70.36 9.11 83.24-4.08 89.21 0 7.32 18.73 4.4 20.1z" fill="#363636"/><path d="m913.93 754.51s-42.93 47.12-42.93 50.05 13.61 42.93 13.61 42.93l16.33-5.65s-10.05-30.57-8.48-34.55 18.53-20.52 18.53-20.52 9.63 4.4 10.47 4.4 13.19-19.48 13.61-23.45c.42-3.98-3.35-19.27-21.15-13.19z" fill="#b9bec9"/><path d="m911.19 757.54s-5.26 12.37-5.89 14.72c-.63 2.36 12.72 14.14 16.33 12.57s7.32-6.86 9.58-15.55c2.26-8.68-4.87-14.61-4.87-14.61l-15.16 2.87z" fill="#898e96"/><path d="m867.44 712.73s24.5 1.26 35.5 9.11c10.99 7.85 6.91 47.12 9.42 51.52s10.37 6.91 13.82 0c3.46-6.91-.31-47.12-3.77-58.11s-33.61-17.91-35.81-19.16c-2.2-1.26-16.33-5.65-16.33-5.65l-2.83 22.3z" fill="#b9bec9"/><path d="m861 682.42-21.83 4.55-54.34-9.27s-9.74-2.36-11.94 8.01 1.26 16.18 9.27 17.43c10.37 2.51 55.44 8.64 55.44 8.64l11.47 8.8s4.4 5.03 14.14 5.03c9.27-1.41 18.85-28.43 10.99-39.11-2.67-3.3-13.19-4.08-13.19-4.08z" fill="#363636"/><path d="m151.86 932.94 99.18 286.55 21.66 4.01 73.92-279.25 11.94 5.02-80.99 284.44-32.95-6.29-107.21-294.48z" fill="#898e96"/><circle cx="265.73" cy="1233.71" fill="#4e5054" r="27.8"/><circle cx="1056.81" cy="1240.31" fill="#898e96" r="14.29" transform="matrix(.16022575 -.9870804 .9870804 .16022575 -336.77 2084.8)"/><path d="m1063.46 1239.53c-1.88-3.14-78.53-121.88-80.42-128.16s-29.25-139.26-33.3-143.99c-.52-1-1.6-1.8-2.99-2.41l-41.93-127.83-24.82 7.54 6.29 19.53-390.39 57.86-7-24.62-25.76 7.54 10.19 33.74-202.88 273.22c-5.34 2.06-24.46 9.43-25 9.83-.63.47-2.04 16.33-.31 17.12s33.4 2.51 33.4 2.51 310.78 60.73 318.11 56.96 22.05-25.52 22.06-25.52l295.33-322.52 8.11 25.17c-.27 1.03-.47 2.12-.53 3.3-.19 3.58 28.74 106.8 44.45 141.99 15.71 35.18 86.7 126.28 89.21 126.28s10.05-4.4 8.17-7.54zm-785.89-19.62 201.53-262.17 93.62 309.91-291.94-36.85-3.2-10.89zm627.7-296.4-312.24 340.31-91.07-320.46c70.87-9.85 356.26-50.68 391.87-55.77l11.73 36.4-.29-.49z" fill="#05384c"/><circle cx="591.17" cy="1286.38" fill="#4e5054" r="62.88" transform="matrix(.17347629 -.98483805 .98483805 .17347629 -778.28 1645.39)"/><path d="m272.7 1215.02s292.35 6.28 327.53 31.83 29.74 57.8 29.74 57.8l37.7 4.19s10.89-85.44-56.96-98.01-310.08-25.13-314.55-24.29c-4.47.83-23.45 28.48-23.45 28.48z" fill="#ebe1dc"/><path d="m369.87 949.27 65.96 43.67 6.6-8.8-65.65-39.89z" fill="#898e96"/><path d="m374.59 953.12-263.69-17.78c-3.45-.23-6.08-3.24-5.85-6.69.23-3.45 3.24-6.08 6.69-5.85l263.69 17.78c3.45.23 6.08 3.24 5.85 6.69-.23 3.45-3.24 6.08-6.69 5.85z" fill="#b9bec9"/><path d="m713.31 1307.8s-129.21-6.28-131.51-6.7-6.7-22.84 4.61-25.97c11.31-3.14 126.91 12.99 129.21 15.08s-.02 17.7-2.3 17.59z" fill="#b9bec9"/><path d="m740.95 1293.76-62.41 3.14s-1.26 18.01 0 18.01 65.76-1.47 65.76-1.47l-3.35-19.69z" fill="#4e5054"/><path d="m656.45 405.45c-5.97 6.51-9.43 15.49-13.24 23.32-3.43 7.04-6.98 13.64-7.43 21.53-.13 2.34 3.66 2.54 4.11.36 3.28-15.78 18.56-27.61 22.11-43.43.67-3-3.96-3.51-5.55-1.78z" fill="#c28d8d"/><path d="m468.15 385.93s-23.18 137.31-18.55 147.44c6.95 10.88 91.18 56.28 93.5 59.65 2.32 3.38 41.73-68.66 55.25-86.29s44.05-28.89 47.52-38.27c3.48-9.38-2.32-132.81-2.32-135.06s-16.61-18.38-16.61-18.38 18.16 91.92-21.64 73.91-64.52-87.04-67.23-109.55c-6.18-2.63-19.32-6.75-19.32-6.75l-50.61 113.3z" fill="#fb8500"/><path d="m468.15 357.79v28.14s18.16 24.39 42.5 3.38 9.27-114.05 8.11-116.68c-4.25-2.25-33.23-16.51-48.68-12.01-15.46 4.5-129.05 84.41-133.3 84.41s-73.02-122.3-73.41-125.31c-.39-3 5.6-15.29 1.84-25.7-3.77-10.41-29.27-38.83-34.19-45.3-3.19 9.57 7.82 25.32 5.51 26.73s-36.8-30.39-39.41-29.83 22.89 35.73 22.89 35.73-40.28-17.16-42.89-15.48c-2.61 1.69 31.01 27.01 31.01 27.01s-30.14-3.1-31.15-.28c-1.01 2.81 27.96 10.97 27.96 13.22s-24.38.28-24.38 3.66 55.97 24.76 63.5 22.79c7.24 40.8 48.97 187.11 62.01 189.93 13.04 2.81 162.08-64.43 162.08-64.43z" fill="#ffa17e"/><path d="m446.44 523.61-19.39 18.41s-99.09 53.25-108.88 123.26 152.3 225.58 292.36 270.45c-23.85 104.71 14.08 194.46 30.89 229.76s26.6 79.56 27.82 85.25c1.22 5.7 28.78 8.07 33.04 0s2.31-152.87-5.28-220.48 3.01-116.68-7.18-129.24c-10.19-12.57-136.8-196.86-155.15-220.19 8.56-71.2 11.01-81.97 11.01-90.35s-99.26-66.87-99.26-66.87z" fill="#55566b"/><path d="m670.2 1252.21s-13.19 43.31-12.57 49.2c.61 5.89 139.01 13.69 141.22 9.79s-95.83-63.46-95.83-63.46-20.85 5.02-32.81 4.47z" fill="#ff8585"/><path d="m515.04 652.56c-7.96-10.14-15.58-21.86-25.42-30.3-2.31-1.98-8.36-.45-6.34 3.26 5.98 10.98 15.49 20.44 23.38 30.17 6.7 8.27 13.44 20.65 23.59 24.8.9.37 2.02-.34 1.96-1.3-.61-9.74-11.29-19.15-17.17-26.64z" fill="#494a5c"/><path d="m493.81 349.14c-7.85-5.7-19.02 1.62-25.33 6.2-2.04 1.48.11 3.38 2.02 2.87 3.64-.96 7.36-2.24 11.07-2.85 3.51-.57 6.73-.04 10.21-.18 3.37-.13 4.64-4.15 2.02-6.05z" fill="#c28d8d"/><path d="m508.05 139.45s-5.75 65.28 15.67 90.32 54.17 29.83 63.73 26.45 37.09-20.42 40.57-57.91c3.48-37.48-25.21-79.41-34.48-86.44-8.98 6.75-41.44 15.19-43.76 14.91s13.33 8.72-41.73 12.66z" fill="#ffa17e"/><path d="m568.31 198.34c-2.59-3.95-2.94-4.76-2.15-9.58.5-3.06.8-5.54.26-8.63-1.04-6-4.08-11.44-8.13-15.99-.84-.94-2.75-.1-2.27 1.16 3.28 8.56 8 14.99 5.17 24.51-1.3 4.37.25 7 3.39 10.45 1.29 1.42 5 .02 3.74-1.91z" fill="#c28d8d"/><path d="m576.42 195.06c-.27-1.03-.67-1.96-1.1-2.94-.96-2.18-5.34-.65-4.11 1.55.52.94 1.03 1.84 1.7 2.7.94 1.22 3.96.38 3.52-1.31z" fill="#c28d8d"/><path d="m552.38 223.11s24.44-15.19 47.09-9.94c-5.94 25.7-33.76 27.95-47.09 9.94z" fill="#fff"/><path d="m603.74 246.37c-3.83 9.05-4.5 18.55-5.57 28.2-1.39 12.56-3.7 24.83-4.03 37.5-.04 1.61 2.75 1.79 2.86.25 1.59-21.83 3.38-43.81 11.41-64.44 1.1-2.82-3.62-4-4.67-1.51z" fill="#c28d8d"/><path d="m511.43 190.28c0-.56-15.07-7.5-14.68 12.01s25.35 22.32 26.97 17.63-12.29-29.64-12.29-29.64z" fill="#ffa17e"/><path d="m618.34 157.97c-.34-.46 7.64-14.68 19.15 1.32s-6.97 32.53-11.13 29.67c-4.15-2.87-8.02-30.99-8.02-30.99z" fill="#ffa17e"/><path d="m516.23 210.91s-7.05 1.41-8.89-2.25c-1.83-3.66 2.01-5.14 1.79-6.68-.22-1.55-7.82-9.07-9.56-4.57s-.29 15.41 8.33 17.87 9.56-1.83 8.33-4.36z" fill="#c28d8d"/><path d="m626.53 179.63s6.14-3.66 4.9-7.55-5.08-2.41-6.01-3.69c-.93-1.27-.69-11.82 3.75-9.69s11.07 11.04 6.52 18.57c-4.55 7.52-8.26 5.02-9.15 2.35z" fill="#c28d8d"/><path d="m237.39 180.24s.58 13.22 6.23 20.68-15.79 4.64-21.3 12.66 5.51-33.91 15.07-33.34z" fill="#c28d8d"/><path d="m2403.15 1115.27-3.52-4.19c-11.02 10-20.82 21.33-29.13 33.74l15.03 8.68c2.62-14.31 8.8-27.38 17.62-38.22z" fill="none"/><path d="m2190.75 1118.45 199.76-206.71-133.86 17.35c-19.87 28.7-50.77 67.94-82.45 106.33 5.53 24.92 11.21 53.96 16.55 83.02z" fill="none"/><path d="m2494.33 1087.6c.81-7.63 2.25-15.07 4.28-22.26-7.01.9-13.9 2.21-20.64 3.89l3.06 15.43c4.56.64 9 1.62 13.3 2.95z" fill="none"/><path d="m2384.34 1174.71-23.56-13.6c-5.48 10.37-9.99 21.34-13.41 32.77h40.49c-1.88-6.12-3.07-12.55-3.52-19.17z" fill="none"/><path d="m2452.48 1085.46-1.44-7.26c-13.09 5.54-25.39 12.58-36.7 20.89l2.39 2.85c10.28-8.07 22.45-13.83 35.75-16.48z" fill="none"/><path d="m2145.73 884.6c5.82-8.4-29.47-18.75-49.29-23.8 10 20.19 20.05 39.89 29.04 56.9l.99-.13c10.31-18.04 17.54-30.49 19.26-32.97z" fill="none"/><path d="m1955.18 898.34.02.09h.04s-.04-.07-.06-.09z" fill="none"/><path d="m2203.95 1193.89h74.89c18.09-84.5 79.08-153.09 159.07-181.86l-17.91-90.29-223.13 230.88c2.52 14.33 4.89 28.26 7.07 41.26z" fill="none"/><path d="m1968.47 938.06 12.83-1.66c-4.8-6.98-9.69-14.1-14.61-21.27l-3.02.66z" fill="none"/><path d="m1919.64 846.4c-6.35 1.05-13.15 1.66-20.45 1.66-2.65 0-5.12-.18-7.43-.52 16.84 13.93 31.6 30.27 43.76 48.5l-7.91-37.97c-2.72-3.98-5.39-7.88-7.98-11.67z" fill="none"/><path d="m2275.65 898.24 136.2-17.66-6.27-31.61-3.47.32c-.29.03-.58.04-.87.04-4.8 0-8.89-3.66-9.34-8.53-.47-5.16 3.33-9.73 8.49-10.2l5.94-.54-5.93-19.56c-6.02-3.23-10.11-9.57-10.11-16.88 0-10.57 8.57-19.14 19.14-19.14 6.61 0 12.45 3.36 15.88 8.46 6.4-1.15 14.13-3.26 21.97-7.14-13.33-4.28-24.95-16.23-29.1-23.48-6.11-10.67-127.23-37.29-181.95-39.19-54.73-1.9-115.44-78.65-115.44-78.65-10.74 6.75-18.37 10.82-18.37 10.82-6.41-4.45-12.62-9.12-18.66-13.94-9.66 37.71-19.82 70.28-28.33 83.68 0 0-1.99.94-5.56 2.49 30.25 13.19 171.58 74.6 200.97 83.34 32.67 9.71 52.2 41.3 24.8 97.37z" fill="none"/><path d="m2104.01 397.53c.81 5.16-.61 10.56-8.47 13.2-2.93.98-6.75 1.58-11.69 1.64-34.42.38-61.24-53.06-61.24-53.06-15.87-8.05-27.01.53-55.18 32.34-33.07 37.33-86.52 336.27-86.54 336.36 33.59 27.27 92.46 15.82 132.45 3.12 8.46-2.68 16.08-5.42 22.43-7.86 5.92-2.27 10.73-4.28 14.12-5.75 3.57-1.54 5.56-2.49 5.56-2.49 8.51-13.4 18.66-45.97 28.33-83.68-49.2-39.27-85.94-89.09-106.77-121.32-14.8-22.9-16.48-52.09-3.68-76.17 7.11-13.39 14.73-18.1 26.78-17.61 8.8 1.28 18.79 3.87 29.99 8.01t.03 0c5.16 1.91 10.37 4.2 15.58 6.81 24.07 12.04 48.34 30.86 69.93 50.49 1.8-10.67 2.95-18.62 3.27-22.7.22-2.8.17-5.83-.09-9-1.44-17.33-9.33-39.01-14.81-52.33z" fill="#ff5f5f"/><path d="m2515.16 1214.31-11.28-14.5-1.17-5.92-15.75-79.42-5.92-29.82-3.06-15.43-1.69-8.51-2.09-10.55-3.23-16.28-5.93-29.89-31.26-157.6-4.79.44-16.78 1.54-6.63.61 6.27 31.61-136.2 17.66-149.18 19.34-.99.13c.15.28.29.55.44.83 5.07 9.58 9.8 18.27 13.98 25.7l116.75-15.13 133.86-17.35-199.76 206.71c2.11 11.47 4.16 22.95 6.13 34.18l223.13-230.88 17.91 90.29 6 30.25 3.28 16.52v.07s.84 4.14.84 4.14l1.29 6.52 1.72 8.66 1.44 7.26 15.35 77.37 6.16 31.05 1.51 7.6.88 4.46.52 2.61c.43 2.15 1.35 4.17 2.7 5.91l10.88 13.98 7.64 9.82 3.01 3.87 1.21 1.55c.03-.26.08-.52.12-.79.34-2.03.98-3.96 1.88-5.73.14-.27.28-.54.43-.81 1-1.77 2.27-3.36 3.74-4.73.22-.21.44-.42.68-.61 1.53-1.3 3.24-2.38 5.11-3.18.28-.12.58-.22.87-.33 1.86-.69 3.84-1.11 5.91-1.22.3-.02.6-.04.91-.05h.15c.82 0 1.63.06 2.42.16l-1.79-2.3-7.6-9.78z" fill="#dc0000"/><path d="m1989.19 1290.33c5.46 3.15 12.45 1.28 15.6-4.18.48-.83.83-1.7 1.08-2.59l-22.37-3.81c-.25 4.18 1.81 8.34 5.68 10.58z" fill="#dc0000"/><path d="m1967.03 1276.95-17.04-2.9-30.05-5.12-16.39-2.79-10.62-1.81-8.57-1.46-19.68-3.35-85.59-14.58-11.09-1.89-8.41-1.43-3.77 2.12-4.51 2.54 3.7 2.08 1.13.64 7.87 4.43c-.07.61-.15 1.21-.24 1.81l-14.13 3.62 9.78 9.55.66.64c-.15.39-.32.77-.48 1.15l120.09 20.46 8.56 1.46 10.62 1.81 16.39 2.79 30.07 5.12 17.35 2.96c-.06-1.16-.09-2.34-.09-3.51 0-.23.01-.45.02-.68.08-8.32 1.65-16.28 4.45-23.63z" fill="#dc0000"/><path d="m2118.55 1193.89c-.07-.17-.13-.35-.2-.52l-.5.52-48.84 50.53c7.26 4.87 13.52 11.09 18.45 18.3.42.61.82 1.24 1.22 1.87l40.56-41.97c-.64-1.76-1.28-3.53-1.93-5.29-2.85-7.78-5.78-15.61-8.76-23.44z" fill="#dc0000"/><path d="m2076.91 1274.73c-.59-1.03-1.32-1.93-2.16-2.7-3.58-3.29-9.01-4.05-13.45-1.49-4.45 2.57-6.51 7.67-5.43 12.43.23 1.02.62 2.02 1.14 2.97.04.07.07.14.1.21 1.38 2.39 3.49 4.09 5.89 4.99l1.19-1.23 13.11-13.57.25-.26c-.18-.44-.38-.87-.62-1.29-.01-.02-.02-.04-.03-.06z" fill="#dc0000"/><path d="m1738.75 1206.08-1.63 5.83 12.83-3.59.33-.09.87-.24c.28.35.55.71.82 1.07.1.13.2.25.29.38l-.13.21-2.09 3.52 3.3-3.8.72-.83 2.77-3.19 9.93-11.45 65.76-75.81 5.7-6.57 7.06-8.14 10.88-12.55 19.98-23.03 73.28-84.48 37.66 174.79 7.71 35.79 9.56 44.36c8.18-3.46 17.18-5.38 26.63-5.38.35 0 .68.02 1.03.03l-8.4-39-2.29-10.62-3.31-15.38-7.43-34.49-36.13-167.71 24.84-3.22c-2.27-3.29-4.59-6.65-6.95-10.07-3.59-5.21-7.27-10.56-11.01-16l-12.83 1.66-4.8-22.27-13.81 3.03s0 0 0 0l-.9.2-12.79 2.81 5.83 27.05-87.13 100.45-19.98 23.04-10.88 12.55-7.05 8.13-5.7 6.57-73.04 84.2-8.73 10.07-2.33 2.69-.09 7.61 3.65-2.17 1.11-.66 7.77-4.6c.49.36.97.74 1.45 1.12l-1.03 3.68-1.27 4.53z" fill="#dc0000"/><path d="m2030.96 1248.2c-6.31 0-11.42 5.11-11.42 11.42 0 1.19.18 2.34.52 3.42.17.55.4 1.08.65 1.6.88 1.8 2.21 3.34 3.85 4.45 1.83 1.24 4.03 1.96 6.4 1.96.44 0 .87-.03 1.3-.08 2.82-.32 5.33-1.67 7.15-3.67l-3.91-18.16c-1.39-.6-2.92-.94-4.53-.94z" fill="#dc0000"/><path d="m2153.47 966.53c5.76 7.98 13.1 34.52 20.73 68.9 31.68-38.39 62.58-77.63 82.45-106.33l-116.75 15.13c5.71 10.14 10.41 17.92 13.57 22.3z" fill="#3a3a3a"/><path d="m2250.85 800.86c-29.39-8.74-170.72-70.15-200.97-83.34-3.39 1.47-8.2 3.48-14.12 5.75 1.34 1.37 2.21 2.94 2.5 4.74 1.18 7.08 7.33 23.04 16.25 43.56 1.94-.09 3.72-.17 5.31-.25 5.2-.25 9.1 4.85 7.35 9.75-1.12 3.13-2.66 6.05-4.53 8.76 9.9 21.83 21.8 46.74 33.79 70.96 19.82 5.05 55.11 15.4 49.29 23.8-1.72 2.48-8.95 14.94-19.26 32.97l149.18-19.34c27.41-56.07 7.87-87.66-24.8-97.37z" fill="#3a3a3a"/><path d="m2009.43 1125.14s1.97 2.4 5.11 6.06c7.6 8.85 22.06 25.07 32.24 32.65 2.87 2.13 5.4 3.58 7.34 3.99h1.85c3.08-1.14 17.25-15.76 37.07-37.8-14.6-34.99-28.51-65.71-38.48-85.26-24.9 44.26-45.13 80.37-45.13 80.37z" fill="#3a3a3a"/><path d="m1856.15 1090.83-10.88 12.55c14.34 14.31 26.53 30.78 36.07 48.87l2.04 3.53-.17.1c6.04 12.03 10.9 24.75 14.45 38.01 2.16 8.05 3.83 16.3 4.98 24.71l.78 4.41-.22.04c.65 5.66 1.07 11.38 1.24 17.17.5-.88 1.52-1.37 2.55-1.14l11.07 2.49c1.26.28 2.06 1.54 1.78 2.8-.25 1.09-1.21 1.83-2.29 1.83-.17 0-.34-.02-.52-.06l-11.07-2.49c-.63-.14-1.15-.53-1.47-1.04.02 1.2.05 2.39.05 3.6 0 6.72-.34 13.37-.98 19.92l16.39 2.79c.77-7.47 1.17-15.04 1.17-22.71 0-18.04-2.2-35.56-6.33-52.33-9.78-39.75-30.43-75.21-58.63-103.06z" fill="#1c1c1c"/><path d="m1873.53 1353.71-2.15 3.73-.19-.11c-.15.23-.3.46-.45.69l1.47-.32c1.27-.28 2.52.53 2.79 1.8s-.53 2.52-1.8 2.79l-6.36 1.38c-11.31 15.78-24.84 29.86-40.14 41.78l-3.53 2.96-.14-.16c-17.75 13.2-37.74 23.55-59.31 30.38l-3.29 1.2-.06-.17c-18.26 5.43-37.61 8.37-57.63 8.37-2.36 0-4.7-.06-7.04-.14h-4.96v-.23c-22.85-1.34-44.67-6.48-64.85-14.8l-3.4-1.24.06-.17c-20.27-8.79-38.81-20.79-54.98-35.39l-3.66-3.07.15-.18c-16.05-15.19-29.61-33-40-52.73l-1.98-3.43.17-.1c-9.71-19.36-16.4-40.5-19.44-62.8l-.54-3.05-.23-1.29.22-.04c-.87-7.6-1.33-15.33-1.33-23.16 0-14.73 1.59-29.08 4.59-42.91l.69-3.93.19.03c.44-1.85.91-3.69 1.4-5.52 5.28-19.73 13.48-38.26 24.1-55.12l2.18-3.78.19.11c12.12-18.33 27.14-34.57 44.42-48.06l3.61-3.03.14.17c17.71-13.17 37.65-23.5 59.15-30.33l3.44-1.25.06.18c16.13-4.8 33.11-7.64 50.66-8.23s.11 0 .11 0c2.28-.08 4.57-.13 6.87-.13s4.59.05 6.87.13h5.13v.24c22.79 1.34 44.55 6.45 64.69 14.73l3.56 1.3-.07.18c14.68 6.36 28.46 14.42 41.08 23.92l10.88-12.55c-36.69-27.93-82.48-44.53-132.15-44.53-102.57 0-188.6 70.71-212.05 166.04-4.12 16.77-6.33 34.29-6.33 52.33 0 8.64.52 17.16 1.49 25.53 10.78 92.58 79.45 167.47 168.87 187.53 15.45 3.47 31.51 5.31 48.01 5.31 31.77 0 61.95-6.79 89.18-18.99 40.89-18.32 75.12-48.85 98.05-86.95l-6.15 1.33c-.17.04-.33.05-.5.05-1.08 0-2.05-.75-2.29-1.85-.27-1.27.53-2.52 1.8-2.79l10.34-2.24c9.83-17.47 17.33-36.43 22.07-56.46l-16.39-2.79c-5.21 21.48-13.85 41.62-25.31 59.8z" fill="#1c1c1c"/><path d="m2522.13 1027.85c-2.17 0-4.33.04-6.48.1-15.35.45-30.29 2.48-44.69 5.94l3.23 16.28c10.35-2.52 21.02-4.26 31.93-5.11 2.99-.24 6.01-.4 9.04-.5s.11 0 .11 0c2.28-.08 4.57-.13 6.87-.13s4.59.05 6.87.13h5.13v.24c22.79 1.34 44.55 6.45 64.69 14.73l3.56 1.3-.07.18c20.2 8.75 38.68 20.71 54.81 35.24l3.83 3.21-.15.18c16.03 15.16 29.56 32.93 39.94 52.62l2.04 3.53-.17.1c6.04 12.03 10.9 24.75 14.45 38.01 2.16 8.05 3.83 16.3 4.98 24.71l.78 4.41-.22.04c.87 7.6 1.33 15.33 1.33 23.17 0 5.45-.22 10.84-.65 16.18-.72 9.09-2.05 18.01-3.94 26.72l-.69 3.94-.19-.03c-5.18 21.82-13.9 42.26-25.53 60.69l-2.15 3.73-.19-.11c-12.13 18.36-27.18 34.62-44.49 48.12l-3.53 2.96-.14-.16c-17.75 13.2-37.74 23.55-59.31 30.38l-3.29 1.2-.06-.17c-18.26 5.43-37.61 8.37-57.63 8.37-2.36 0-4.7-.06-7.04-.14h-4.96v-.23c-22.85-1.34-44.67-6.48-64.85-14.8l-3.4-1.24.06-.17c-20.26-8.79-38.81-20.79-54.97-35.38l-3.66-3.07.15-.18c-16.06-15.19-29.61-33-40-52.73l-1.98-3.43.17-.1c-9.71-19.36-16.4-40.5-19.44-62.8l-.76-4.34.22-.04c-.87-7.6-1.33-15.33-1.33-23.16 0-14.73 1.59-29.08 4.59-42.91l.69-3.93.19.03c.44-1.85.91-3.69 1.4-5.52 5.28-19.73 13.48-38.26 24.1-55.12l2.18-3.78.19.11c12.12-18.33 27.14-34.57 44.42-48.06l3.61-3.03.14.17c13.86-10.31 29.09-18.87 45.36-25.38l-3.28-16.52c-66.08 25.36-116.69 81.89-133.84 151.6-4.12 16.77-6.33 34.29-6.33 52.33 0 32.89 7.28 64.08 20.31 92.05 4.92 3.08 7.69 5.6 7.69 6.99 0 .56-1.08 1.4-3.02 2.46 22.76 43.27 59.6 77.97 104.44 97.99 27.17 12.13 57.27 18.89 88.95 18.89 16.32 0 32.21-1.8 47.51-5.2 90.82-20.15 160.35-96.83 169.77-191.23.72-7.22 1.09-14.54 1.09-21.95 0-18.04-2.2-35.56-6.33-52.33-23.45-95.33-109.48-166.04-212.05-166.04z" fill="#1c1c1c"/><g fill="#333"><path d="m2542.16 998.21c-6.61-.53-13.28-.8-20.03-.8-19.65 0-38.76 2.29-57.09 6.59l5.93 29.89c14.39-3.46 29.34-5.49 44.69-5.94 2.15-.06 4.31-.1 6.48-.1 102.57 0 188.6 70.71 212.05 166.04 4.12 16.77 6.33 34.29 6.33 52.33 0 7.41-.37 14.73-1.09 21.95-9.42 94.4-78.96 171.08-169.77 191.23-15.3 3.39-31.19 5.2-47.51 5.2-31.68 0-61.78-6.75-88.95-18.89-44.84-20.02-81.68-54.72-104.44-97.99-4.86 2.65-15.27 6.69-28.53 11.12 16.48 32.41 39.84 60.73 68.17 83.03 42.32 33.3 95.71 53.17 153.75 53.17 38.08 0 74.15-8.57 106.41-23.86 76.88-36.43 132.11-111.1 141.11-199.45.85-8.39 1.29-16.9 1.29-25.51 0-17.95-1.92-35.45-5.53-52.33-22.68-105.95-112.8-186.88-223.26-195.68z"/><path d="m2303.76 1246.22c0-18.04 2.2-35.56 6.33-52.33 17.15-69.71 67.76-126.25 133.84-151.6l-6-30.25c-80 28.77-140.98 97.36-159.07 181.86-3.61 16.88-5.53 34.38-5.53 52.33 0 25.94 3.97 50.95 11.34 74.46 17.14 5.76 31.24 12.46 39.41 17.59-13.02-27.97-20.31-59.16-20.31-92.05z"/><path d="m1674.23 1290.72-.59.35-3.47 2.06.27.59c.18.38.45.69.77.92.29.21.63.34.99.4.12.02.25.05.38.05.33 0 .66-.07.98-.21 1.18-.54 1.7-1.93 1.16-3.11l-.38-.83-.09-.21z"/><path d="m1689.29 1323.6c-.54-1.18-1.93-1.7-3.11-1.16s-1.7 1.93-1.16 3.11l4.86 10.61c.19.42.49.74.85.98.38.25.83.39 1.29.39.33 0 .66-.07.98-.21 1.18-.54 1.7-1.93 1.16-3.11l-3.42-7.47-1.44-3.15z"/><path d="m1676.46 1301.22c-1.18.54-1.7 1.93-1.16 3.11l4.86 10.61c.39.86 1.25 1.37 2.13 1.37.33 0 .66-.07.98-.21 1.18-.54 1.7-1.93 1.16-3.11l-4.39-9.58-.13.13c-.56-.22-1.12-.46-1.68-.7l.02-1.69c-.56-.21-1.21-.21-1.8.06z"/><path d="m1695.91 1343.67c-1.18.54-1.7 1.93-1.16 3.11l4.86 10.61c.39.86 1.25 1.37 2.13 1.37.33 0 .66-.07.98-.21 1.18-.54 1.7-1.93 1.16-3.11l-4.86-10.61c-.54-1.18-1.93-1.7-3.11-1.16z"/><path d="m1716.01 1393.17.54 1.19c.39.85 1.23 1.37 2.13 1.37.16 0 .33-.02.5-.05l5.5-1.19c1.26-.27 2.06-1.51 1.8-2.77-2.38 1.07-5.02 1.67-7.8 1.67-.91 0-1.8-.09-2.68-.21z"/><path d="m1797.97 1378.38c.15.03.31.05.47.05s.33-.02.5-.05l10.61-2.3c1.27-.27 2.07-1.52 1.8-2.79s-1.52-2.07-2.79-1.8l-10.61 2.3c-1.12.24-1.88 1.25-1.84 2.37 0 .14.02.28.05.43.2.93.94 1.61 1.82 1.8z"/><path d="m1817.37 1371.98c.17.78.71 1.38 1.4 1.67.28.12.58.19.89.19.16 0 .33-.02.5-.05l10.61-2.3c1.27-.28 2.07-1.52 1.8-2.79s-1.53-2.07-2.79-1.8l-10.61 2.3c-1.27.27-2.07 1.52-1.8 2.79z"/><path d="m1935.86 1343.9-4.67 1.01c5.96-13.77 10.71-28.17 14.12-43.09l-30.07-5.12c-4.74 20.03-12.24 38.99-22.07 56.46l-10.34 2.24c-1.27.28-2.07 1.52-1.8 2.79.24 1.1 1.21 1.85 2.29 1.85.16 0 .33-.02.5-.05l6.15-1.33c-22.93 38.1-57.16 68.63-98.05 86.95-27.23 12.2-57.41 18.99-89.18 18.99-16.49 0-32.56-1.84-48.01-5.31-89.42-20.06-158.09-94.95-168.87-187.53-.98-8.38-1.49-16.89-1.49-25.53 0-18.04 2.2-35.56 6.33-52.33 23.45-95.33 109.48-166.04 212.05-166.04 49.67 0 95.46 16.59 132.15 44.53l19.98-23.04c-42.06-32.55-94.83-51.93-152.13-51.93-119.46 0-219.25 84.2-243.28 196.48-3.61 16.88-5.53 34.38-5.53 52.33 0 7.52.35 14.95 1.01 22.3 7.96 89.57 63.36 165.48 140.91 202.44 32.39 15.43 68.63 24.08 106.89 24.08 58.07 0 111.49-19.9 153.83-53.24 30.77-24.24 55.67-55.59 72.25-91.56l8.04-1.74c1.27-.28 2.07-1.52 1.8-2.79s-1.52-2.07-2.79-1.8z"/><path d="m1838.71 1367.77c.36.89 1.22 1.47 2.17 1.47.16 0 .33-.02.5-.05l9.24-2 1.37-.3c1.27-.28 2.07-1.52 1.8-2.79-.05-.21-.13-.41-.23-.59-.48-.91-1.51-1.43-2.56-1.2l-9.27 2.01-1.34.29c-1.27.27-2.07 1.52-1.8 2.79.03.13.07.26.12.38z"/><path d="m1972.08 1336.05-4.4.95c-1.27.27-2.07 1.52-1.8 2.79.24 1.1 1.21 1.85 2.29 1.85.16 0 .33-.02.5-.05l6.11-1.33c-.95-1.37-1.86-2.77-2.71-4.21z"/><path d="m1957.08 1339.3-10.61 2.3c-1.27.28-2.07 1.52-1.8 2.79.24 1.1 1.21 1.85 2.29 1.85.16 0 .33-.02.5-.05l10.61-2.3c1.27-.27 2.07-1.52 1.8-2.79s-1.52-2.07-2.79-1.8z"/><path d="m1777.23 1383.03c.16 0 .33-.02.5-.05l10.61-2.3c1.27-.27 2.07-1.52 1.8-2.79s-1.52-2.07-2.79-1.8l-10.61 2.3c-1.27.28-2.07 1.52-1.8 2.79.24 1.1 1.21 1.85 2.29 1.85z"/><path d="m1859.81 1362.79c.24 1.1 1.21 1.85 2.29 1.85.16 0 .33-.02.5-.05l4.24-.92 6.36-1.38c1.27-.27 2.07-1.52 1.8-2.79s-1.52-2.08-2.79-1.8l-1.47.32-9.14 1.98c-1.27.28-2.07 1.52-1.8 2.79z"/><path d="m1744.91 1385.29-4.01.87-6.6 1.43c-1.27.28-2.07 1.52-1.8 2.79.24 1.1 1.21 1.85 2.29 1.85.16 0 .33-.02.5-.05l7.23-1.57 3.38-.73c1.27-.28 2.07-1.52 1.8-2.79s-1.52-2.07-2.79-1.8z"/><path d="m1756.01 1387.63c.16 0 .33-.02.5-.05l4.72-1.02 5.88-1.28c1.27-.28 2.07-1.52 1.8-2.79s-1.52-2.07-2.79-1.8l-6.51 1.41-4.1.89c-1.27.27-2.07 1.52-1.8 2.79.24 1.1 1.21 1.85 2.29 1.85z"/><path d="m1998 1326.15c-1.19-.51-2.57.06-3.07 1.25l-1.71 4.07-3.53.76c2.41 1.23 5.21 1.6 7.9.94l1.66-3.95c.5-1.19-.06-2.57-1.25-3.07z"/><path d="m2000.86 1319.35c.3.13.61.19.91.19.92 0 1.79-.54 2.16-1.44l.78-1.85c-.91-1.54-2.13-2.78-3.54-3.7l-1.57 3.73c-.5 1.19.06 2.57 1.25 3.07z"/><path d="m1962.35 1251.52-10.83-2.43c.01-.96.04-1.91.04-2.87 0-17.95-1.92-35.45-5.53-52.33-10.47-48.91-35.31-92.48-69.88-126.09l-19.98 23.03c28.2 27.85 48.85 63.31 58.63 103.06 4.12 16.77 6.33 34.29 6.33 52.33 0 7.67-.4 15.25-1.17 22.71l30.05 5.12c.74-6.65 1.22-13.37 1.43-20.17l9.9 2.22c.17.04.35.06.52.06 1.07 0 2.04-.74 2.29-1.83.28-1.26-.51-2.52-1.78-2.8z"/><path d="m1884.97 1238.94 8.74 1.96 1.17.26c.17.04.35.06.52.06 1.07 0 2.04-.74 2.29-1.83.28-1.26-.51-2.52-1.78-2.8l-2.39-.54-8.68-1.95s-.08 0-.12-.01c-1.22-.21-2.41.57-2.68 1.79-.28 1.26.51 2.52 1.78 2.8l1.16.26z"/><path d="m1784.15 1216.29c.17.04.35.06.52.06 1.07 0 2.04-.74 2.29-1.83.22-.98-.22-1.96-1.02-2.48-.23-.15-.48-.26-.76-.33l-11.07-2.49c-1.27-.29-2.52.51-2.8 1.78-.28 1.26.51 2.52 1.77 2.8l7.06 1.59 4.02.9z"/><path d="m1861.66 1233.71 11.07 2.49c.17.04.35.06.52.06 1.07 0 2.04-.74 2.29-1.83.28-1.26-.51-2.52-1.78-2.8l-8.41-1.89-2.66-.6c-1.19-.26-2.35.42-2.73 1.55-.03.08-.06.15-.08.23-.28 1.26.51 2.52 1.78 2.8z"/><path d="m1970.62 1255.79c-.28 1.26.51 2.52 1.78 2.8l4.37.98c1.07-1.39 2.19-2.75 3.37-4.05l-6.71-1.51c-1.27-.28-2.52.51-2.8 1.78z"/><path d="m1905.95 1243.66 11.07 2.49c.17.04.35.06.52.06 1.07 0 2.04-.74 2.29-1.83.28-1.26-.51-2.52-1.78-2.8l-11.07-2.49c-1.03-.23-2.05.26-2.55 1.14-.11.2-.2.4-.26.63-.14.63-.01 1.26.31 1.77s.84.9 1.47 1.04z"/><path d="m1850.59 1231.22c.17.04.35.06.52.06 1.07 0 2.04-.74 2.29-1.83.28-1.26-.51-2.52-1.78-2.8l-11.07-2.49c-1.27-.28-2.52.51-2.8 1.78-.28 1.26.51 2.52 1.78 2.8l11.07 2.49z"/><path d="m1806.29 1221.26c.17.04.35.06.52.06.71 0 1.36-.33 1.8-.86.23-.28.4-.6.48-.98.28-1.26-.51-2.52-1.77-2.8l-11.07-2.49c-1.27-.28-2.52.51-2.8 1.78-.28 1.26.51 2.52 1.78 2.8l10.1 2.27.97.22z"/><path d="m1828.96 1226.3c1.07 0 2.04-.74 2.29-1.83.28-1.26-.51-2.52-1.78-2.8l-11.07-2.49c-1.26-.29-2.52.51-2.8 1.78-.28 1.26.51 2.52 1.78 2.8l11.07 2.49c.17.04.35.06.52.06z"/><path d="m1762.52 1211.37c1.07 0 2.04-.74 2.29-1.83.28-1.26-.51-2.52-1.78-2.8l-4.21-.95-1.99-.45-2.77 3.19-.72.83 8.66 1.95c.17.04.35.06.52.06z"/><path d="m2401.24 849.33c.29 0 .58-.01.87-.04l3.47-.32 6.63-.61 16.78-1.54 4.79-.44 2.63-.24c5.16-.47 8.97-5.04 8.49-10.2-.47-5.16-5.04-8.96-10.2-8.49l-9.26.85-19.09 1.75-5.94.54c-5.16.47-8.97 5.04-8.49 10.2.45 4.87 4.54 8.53 9.34 8.53z"/><path d="m2400.41 810.49c2.69 1.44 5.77 2.27 9.03 2.27 3.82 0 7.36-1.13 10.35-3.05 3.03-1.95 5.46-4.73 6.99-8.02 1.15-2.46 1.8-5.18 1.8-8.07 0-3.96-1.2-7.63-3.26-10.69-3.44-5.1-9.27-8.46-15.88-8.46-10.57 0-19.14 8.57-19.14 19.14 0 7.3 4.09 13.65 10.11 16.88z"/><path d="m2488.87 752.34c-3.23 8.79-9.54 16.5-18.52 21.34 2.22 1.59 4.79 2.72 7.58 3.25 1.16.22 2.34.34 3.56.34 10.57 0 19.14-8.57 19.14-19.14 0-7.01-3.78-13.13-9.41-16.46-.3 3.65-1.09 7.24-2.35 10.67z"/><path d="m1928.75 923.24c.67 0 1.35-.07 2.02-.22l5.4-1.19 12.79-2.81.9-.2s13.81-3.04 13.81-3.04l3.02-.66c-1.54-2.24-3.07-4.48-4.61-6.72-.36-.53-.72-1.06-1.09-1.58-1.92-2.8-3.84-5.6-5.76-8.4h-.04s-15.88 3.5-15.88 3.5l-2.45.54-10.12 2.22c-5.06 1.11-8.27 6.12-7.15 11.18.96 4.39 4.85 7.38 9.16 7.38z"/><path d="m1872.03 767.3c-.54.58-1 1.24-1.34 1.99l-9.95 21.89c-.33.73-.55 1.51-.62 2.31-.46 4.67-1.51 21.57 5.4 35.33 4.53 9.02 12.47 16.69 26.25 18.71 2.31.34 4.78.52 7.43.52 7.3 0 14.1-.62 20.45-1.66-18.11-26.5-32.7-47.88-38.75-56.72-5.21-7.61-7.84-15.22-8.86-22.37z"/><path d="m2067.19 781.08c1.75-4.91-2.15-10-7.35-9.75-1.59.08-3.37.16-5.31.25 2.51 5.76 5.23 11.88 8.13 18.27 1.87-2.71 3.42-5.63 4.53-8.76z"/><path d="m2025.71 1353.03 4.75-21.53 3.33-15.08 3.31-15 1.06-4.82-12.88-1.82-2.31-.33-.26 1.02-2.46 9.57-2.35 9.13-12.96 50.33-10.03 38.95h-15.78c-5.5 0-9.96 4.46-9.96 9.96v7.43c0 5.5 4.46 9.96 9.96 9.96h49.07c5.5 0 9.96-4.46 9.96-9.96v-7.43c0-5.5-4.46-9.96-9.96-9.96h-13.61l7.59-34.39 3.54-16.04z"/><path d="m2044.8 1201.8-6.93 31.41s.02 0 .05 0c.57.07 6.15.82 11.42 2.17 2.08.53 4.12 1.16 5.77 1.87l3.12-12.12 7.71-29.95h-19.68z"/><path d="m2081.73 1167.83h-49.07c-4.12 0-7.65 2.5-9.17 6.06-.51 1.2-.79 2.51-.79 3.9v7.43c0 3.72 2.04 6.96 5.06 8.67 1.45.82 3.12 1.29 4.9 1.29h49.07c1.78 0 3.45-.47 4.9-1.29 3.02-1.71 5.06-4.95 5.06-8.67v-7.43c0-5.5-4.46-9.96-9.96-9.96z"/><path d="m2125.9 163.92c-17.64-7.78 1.04 15.05-31.13 14.53s-56.55-3.11-73.67 13.49-30.09 48.25-16.08 72.63c0 0-4.87 20.88 30.14 45.86-.33-8.01-.65-13.88-.65-13.88-2.56-5.55-3.78-9.4-4.46-9.4-2.26 0-24.89-6.79-18.86-27.16.1-.35.2-.71.31-1.09 1.03-.94 2.14-1.98 3.32-3.11 8.09-7.73 19.14-19.54 24.95-31.17 9.86-19.71 33.2-14.01 40.99-6.74 4.87 4.54 23.14 8.27 38.42 7 9.15-.76 17.23-3.31 20.72-8.56 9.34-14.01 3.63-44.62-14.01-52.4z"/></g><path d="m1904.18 1240.86c.05-.23.14-.44.26-.63-.17-5.79-.59-11.51-1.24-17.17l.22-.04-.78-4.41c-1.15-8.41-2.82-16.66-4.98-24.71-3.55-13.26-8.42-25.98-14.45-38.01l.17-.1-2.04-3.53c-9.54-18.08-21.72-34.55-36.07-48.87l-7.06 8.14c9.97 10.03 18.83 21.16 26.39 33.19l-7.51 4.34-77.68 44.85-20.6 11.89 4.21.95c1.26.28 2.06 1.54 1.78 2.8-.25 1.09-1.21 1.83-2.29 1.83-.17 0-.34-.02-.52-.06l-8.66-1.95-3.3 3.8 2.09-3.52.13-.21c-.1-.13-.19-.25-.29-.38-.27-.36-.54-.72-.82-1.07l-.87.24-.33.09-12.83 3.59 1.63-5.83 1.27-4.53 1.03-3.68c-.48-.38-.96-.75-1.45-1.12l-7.77 4.6-1.11.66-3.65 2.17.09-7.61 2.33-2.69 8.73-10.07 38.05-104.55 2.97-8.16c13.45 5.88 26.09 13.26 37.71 21.94l7.05-8.13c-12.62-9.51-26.4-17.56-41.08-23.92l.07-.18-3.56-1.3c-20.14-8.28-41.9-13.4-64.69-14.73v-.24h-5.13c-2.28-.08-4.57-.13-6.87-.13s-4.59.05-6.87.13h-.11c-17.55.6-34.52 3.44-50.66 8.24l-.06-.18-3.44 1.25c-21.5 6.83-41.44 17.16-59.15 30.33l-.14-.17-3.61 3.03c-3.7 2.89-7.29 5.91-10.78 9.05l-.15.12c-12.74 11.47-24.01 24.54-33.49 38.89l-.19-.11-2.18 3.78c-10.62 16.85-18.82 35.39-24.1 55.12-.49 1.83-.96 3.67-1.4 5.52l-.19-.03-.69 3.93c-3 13.83-4.59 28.18-4.59 42.91 0 7.83.46 15.56 1.33 23.16l-.22.04.23 1.29.54 3.05c3.04 22.3 9.73 43.44 19.44 62.8l-.17.1 1.98 3.43c10.39 19.73 23.94 37.54 40 52.73l-.15.18 3.66 3.07c16.17 14.59 34.71 26.6 54.98 35.39l-.06.17 3.4 1.24c20.18 8.32 42 13.46 64.85 14.8v.23h4.96c2.34.08 4.68.14 7.04.14 20.03 0 39.37-2.93 57.63-8.37l.06.17 3.29-1.2c21.56-6.83 41.56-17.18 59.31-30.38l.14.16 3.53-2.96c15.29-11.92 28.82-26 40.14-41.78l-4.24.92c-.17.04-.33.05-.5.05-1.08 0-2.05-.75-2.29-1.85-.27-1.27.53-2.52 1.8-2.79l9.14-1.98c.15-.23.3-.46.45-.69l.19.11 2.15-3.73c11.47-18.18 20.11-38.32 25.31-59.8l-10.62-1.81c-3.78 15.33-9.41 29.93-16.64 43.56l-7.51-4.34-104.98-60.61h.26c.08-.17.15-.35.22-.52.16-.38.33-.76.48-1.15l-.66-.64-9.78-9.55 14.13-3.62c.09-.6.17-1.2.24-1.81l-7.87-4.43-1.13-.64-3.7-2.08 4.51-2.54 3.77-2.12 8.41 1.43 11.09 1.89 61.25-10.8 19.62-3.46c.38-1.13 1.54-1.81 2.73-1.55l2.66.6 18.7-3.3 8.55-1.51c.41 3.68.72 7.39.92 11.13l2.39.54c1.26.28 2.06 1.54 1.78 2.8-.25 1.09-1.21 1.83-2.29 1.83-.17 0-.34-.02-.52-.06l-1.17-.26c.05 1.76.08 3.53.08 5.31 0 6.11-.3 12.15-.86 18.11l10.62 1.81c.64-6.55.98-13.2.98-19.92 0-1.2-.02-2.4-.05-3.6-.32-.51-.45-1.14-.31-1.77zm-208.27 102.81c1.18-.54 2.57-.02 3.11 1.16l4.86 10.61c.54 1.18.02 2.57-1.16 3.11-.32.15-.65.21-.98.21-.89 0-1.74-.51-2.13-1.37l-4.86-10.61c-.54-1.18-.02-2.57 1.16-3.11zm-11.48-30.68c.54 1.18.02 2.57-1.16 3.11-.32.15-.65.21-.98.21-.89 0-1.74-.51-2.13-1.37l-4.86-10.61c-.54-1.18-.02-2.57 1.16-3.11.59-.27 1.24-.28 1.8-.06l-.02 1.69c.56.24 1.11.47 1.68.7l.13-.13 4.39 9.58zm77.06-248.6-2.97 8.15-43.8 120.33v-137.31c16.22 1 31.89 4.03 46.76 8.83zm-65.73-9.09v129.85l-.12-.22c-.61.07-1.21.15-1.81.23l-.22.88-41.85-114.99-2.97-8.16c14.98-4.4 30.72-7.01 46.98-7.6zm-64.89 13.85 2.97 8.15 42.43 116.58 1.36 3.74-3.14-3.74-79.55-94.8-5.58-6.65c12.72-9.39 26.65-17.24 41.51-23.28zm-56.2 35.29 5.57 6.64 69.48 82.81 12.8 15.26-26.43-15.26-84.99-49.07-7.52-4.34c8.84-13.27 19.29-25.38 31.08-36.04zm-55.73 89.45c3.69-12.99 8.73-25.41 14.94-37.11l7.51 4.34 56.77 32.77 9.94 5.74 38.27 22.09h-.26c-.24.55-.47 1.11-.7 1.67l.66.64-48.33-8.52-72.18-12.73-8.55-1.51c.6-2.48 1.23-4.95 1.93-7.39zm-7.26 52.33c0-8.92.63-17.7 1.81-26.29l8.54 1.5 60.96 10.75 65.12 11.48-118.36 20.87-8.33 1.47-8.55 1.51c-.78-6.99-1.19-14.09-1.19-21.29zm4.21 40.02 8.54-1.51 126.1-22.23-111.43 64.33-7.52 4.34c-7-14.08-12.32-29.15-15.69-44.94zm24.97 61.48 7.51-4.34 104.97-60.6-.13.21c.36.49.73.97 1.11 1.45l.87-.24-78.63 93.71-5.58 6.66c-11.5-10.95-21.62-23.34-30.12-36.85zm44.49 49.24 5.58-6.65 80.29-95.68c-.32-.23-.6-.53-.77-.92l-.27-.59 3.47-2.06.59-.35.09.21.38.83c.54 1.18.02 2.57-1.16 3.11-.32.15-.65.21-.98.21-.13 0-.25-.03-.38-.05l-43 118.13-2.97 8.16c-14.68-6.42-28.4-14.63-40.88-24.36zm58.62 31.09 2.97-8.15 43.8-120.33v27.18l3.42 7.47c.54 1.18.02 2.57-1.16 3.11-.32.15-.65.21-.98.21-.46 0-.91-.14-1.29-.39v99.74c-16.22-1-31.89-4.03-46.76-8.83zm130.63-4.77-2.97-8.15-10.4-28.57-4.72 1.02c-.17.04-.33.05-.5.05-1.08 0-2.05-.75-2.29-1.85-.27-1.27.53-2.52 1.8-2.79l4.1-.89-20.66-56.77c2.97 20.31.89 33.51-2.46 41.95.84 2.16 1.33 4.5 1.33 6.96 0 .96-.09 1.9-.23 2.82l3.31 9.1 4.01-.87c1.27-.27 2.52.53 2.79 1.8s-.53 2.52-1.8 2.79l-3.38.73 11.2 30.76 2.97 8.16c-14.98 4.4-30.72 7.01-46.98 7.6v-46c-6.04-3.22-10.16-9.57-10.16-16.9s4.12-13.68 10.16-16.9v-50.06l.12.21c.61-.07 1.21-.15 1.81-.23l.22-.88 9.57 26.3c-.94-13.78-3.39-27.12-6.33-38.97-1.7-6.86-3.57-13.22-5.4-18.88-.3-.92-.59-1.81-.88-2.69-.42-1.25-.83-2.47-1.24-3.64-.52.11-1.04.21-1.57.28-1.07.15-2.16.24-3.27.24-.29 0-.58-.01-.87-.02-1.29-.05-2.55-.2-3.77-.45-1.38-.28-2.7-.7-3.98-1.22-1.18-.48-2.31-1.06-3.38-1.72-1.18-.73-2.29-1.57-3.32-2.5-.94-.85-1.8-1.79-2.59-2.78-.86-1.08-1.62-2.25-2.27-3.48-.59-1.11-1.09-2.28-1.49-3.49-.43-1.3-.74-2.65-.93-4.05-.14-1.01-.21-2.05-.21-3.1 0-.23.01-.47.02-.7.04-1.41.21-2.79.5-4.12.27-1.25.64-2.46 1.11-3.63.52-1.3 1.15-2.53 1.89-3.7.01-.02.03-.04.04-.06.67-1.05 1.42-2.05 2.25-2.97.92-1.03 1.94-1.98 3.03-2.83 1-.78 2.06-1.47 3.18-2.08 1.21-.65 2.49-1.2 3.83-1.63 1.19-.38 2.43-.67 3.7-.85 1.07-.15 2.16-.24 3.27-.24.29 0 .58.01.87.02h.24c1.2.06 2.38.21 3.52.45 1.38.28 2.7.7 3.98 1.22 1.18.48 2.31 1.06 3.38 1.72 1.18.73 2.29 1.57 3.32 2.5.94.85 1.8 1.79 2.59 2.78.86 1.08 1.62 2.25 2.27 3.48.59 1.11 1.09 2.28 1.49 3.49.37 1.13.66 2.29.85 3.49.03.18.05.37.08.56.14 1.01.22 2.05.22 3.1 0 .23-.01.47-.02.7-.04 1.41-.21 2.79-.5 4.12-.27 1.25-.64 2.46-1.11 3.63-.52 1.3-1.15 2.53-1.88 3.7-.63 1-1.34 1.95-2.12 2.84.03.08.07.16.1.24.29.71.59 1.44.88 2.15 1.24 3.07 2.39 6.06 3.49 8.98 2.38 6.31 4.44 12.26 6.21 17.88 1.3 4.09 2.44 8.01 3.45 11.75l62.06 73.96c-.03-1.11.72-2.12 1.84-2.37l10.61-2.3c1.27-.27 2.52.53 2.79 1.8s-.53 2.52-1.8 2.79l-10.61 2.3c-.17.04-.33.05-.5.05s-.32-.02-.47-.05l12.56 14.96 5.58 6.66c-12.72 9.39-26.65 17.24-41.51 23.28zm79.76-75.67 7.52 4.34c-2.63 3.95-5.41 7.81-8.32 11.55.1.18.18.38.23.59.27 1.27-.53 2.52-1.8 2.79l-1.37.3c-6.08 7.42-12.7 14.38-19.82 20.81l-5.57-6.64-6.46-7.7c-.69-.29-1.23-.88-1.4-1.67l-74.43-88.7zm-38.77-126.66c.28-1.26 1.54-2.06 2.8-1.78l11.07 2.49c1.26.28 2.06 1.54 1.78 2.8-.25 1.09-1.21 1.83-2.29 1.83-.17 0-.34-.02-.52-.06l-11.07-2.49c-1.26-.28-2.06-1.54-1.78-2.8zm37.8 8.49c-.25 1.09-1.21 1.83-2.29 1.83-.17 0-.34-.02-.52-.06l-11.07-2.49c-1.26-.28-2.06-1.54-1.78-2.8.28-1.27 1.54-2.06 2.8-1.78l11.07 2.49c1.26.28 2.06 1.54 1.78 2.8zm27.65-21.75-72.42 12.77c-.44.53-1.1.86-1.8.86-.17 0-.34-.02-.52-.06l-.97-.22-50.38 8.88 25.19-14.54-7.06-1.59c-1.26-.28-2.06-1.54-1.77-2.8.28-1.26 1.54-2.06 2.8-1.78l11.07 2.49c.28.06.53.18.76.33l31.43-18.15 49.01-28.29 7.52-4.34c5.16 10.38 9.42 21.29 12.64 32.63 1.15 4.05 2.16 8.15 3.04 12.3l-8.54 1.5z" fill="#d3d3d3"/><path d="m2722.81 1223.01-.78-4.41c-1.15-8.41-2.82-16.66-4.98-24.71-3.55-13.26-8.42-25.98-14.45-38.01l.17-.1-2.04-3.53c-10.38-19.69-23.91-37.45-39.94-52.62l.15-.18-3.83-3.21c-3.45-3.11-7.01-6.08-10.67-8.95l-.04-.04c-13.44-10.52-28.24-19.38-44.1-26.25l.07-.18-3.56-1.3c-20.14-8.28-41.9-13.4-64.69-14.73v-.24h-5.13c-2.28-.08-4.57-.13-6.87-.13s-4.59.05-6.87.13h-.11c-3.03.11-6.04.27-9.04.5-10.91.86-21.57 2.59-31.93 5.11l2.09 10.55c8.21-2.02 16.63-3.52 25.22-4.44 4.5-.48 9.06-.81 13.65-.97v136.67l-28.21-77.5 15.75 79.42 1.17 5.92 11.28 14.5 7.6 9.78 1.79 2.3c1.16.14 2.3.37 3.39.7.3.09.58.2.87.31.51.18 1.01.38 1.5.6 1.36.61 2.63 1.38 3.81 2.26.24.18.5.36.73.55 1.55 1.29 2.9 2.81 4.01 4.5.17.26.32.52.48.78 1.01 1.72 1.78 3.6 2.24 5.6.07.3.13.59.19.9.22 1.18.34 2.38.34 3.62 0 .82-.06 1.62-.16 2.41-.04.3-.09.6-.14.9-.34 2.03-.98 3.96-1.88 5.73-.14.27-.28.54-.43.81-1 1.77-2.27 3.36-3.74 4.73-.22.21-.44.42-.67.61-1.53 1.3-3.24 2.38-5.11 3.18-.28.12-.58.22-.87.33-1.86.69-3.84 1.11-5.91 1.22-.3.02-.6.04-.91.05-.05 0-.1 0-.15 0-2.02 0-3.97-.31-5.81-.86-.3-.09-.58-.2-.87-.31-1.93-.68-3.71-1.65-5.32-2.86-.24-.18-.5-.36-.73-.55-1.55-1.29-2.9-2.81-4-4.5-.17-.26-.32-.52-.48-.79-1.01-1.72-1.78-3.6-2.24-5.6-.07-.3-.13-.6-.19-.9-.15-.83-.24-1.68-.29-2.54-.02-.36-.05-.71-.05-1.08 0-.82.06-1.62.16-2.41 0-.04.01-.08.02-.12l-1.21-1.55-3.01-3.87-7.64-9.82-10.88-13.98c-1.35-1.73-2.27-3.75-2.7-5.91l-.52-2.61-20.88-12.06-69.96-40.39-15.03-8.68-7.52-4.34c8.84-13.27 19.29-25.38 31.08-36.04l5.57 6.64 3.52 4.19 65.97 78.62 6.38 7.6-1.51-7.6-6.16-31.05-51.1-60.9-2.39-2.85-5.58-6.65c12.45-9.2 26.06-16.91 40.57-22.89l-1.29-6.52-.82-4.14v-.07c-16.29 6.51-31.51 15.08-45.37 25.38l-.14-.17-3.61 3.03c-3.7 2.89-7.29 5.91-10.78 9.05l-.14.12c-12.74 11.47-24.01 24.54-33.49 38.89l-.19-.11-2.18 3.78c-10.62 16.85-18.82 35.39-24.1 55.12-.49 1.83-.96 3.67-1.4 5.52l-.19-.03-.69 3.93c-3 13.83-4.59 28.18-4.59 42.91 0 7.83.46 15.56 1.33 23.16l-.22.04.76 4.34c3.04 22.3 9.73 43.44 19.44 62.8l-.17.1 1.98 3.43c10.39 19.73 23.94 37.54 40 52.73l-.15.18 3.66 3.07c16.17 14.59 34.71 26.6 54.97 35.38l-.06.17 3.4 1.24c20.18 8.32 42 13.46 64.85 14.8v.23h4.96c2.34.08 4.68.14 7.04.14 20.03 0 39.37-2.93 57.63-8.37l.06.17 3.29-1.2c21.56-6.83 41.56-17.18 59.31-30.38l.14.16 3.53-2.96c3.75-2.92 7.38-5.98 10.91-9.15l.09-.08c12.74-11.47 24.01-24.54 33.49-38.89l.19.11 2.15-3.73c11.62-18.43 20.35-38.87 25.53-60.69l.19.03.69-3.94c1.89-8.71 3.22-17.63 3.94-26.72.42-5.34.65-10.73.65-16.18 0-7.84-.46-15.56-1.33-23.17l.22-.04zm-16.88-29.12c1.15 4.05 2.16 8.15 3.04 12.3l-8.54 1.5-118.83 20.95-7.26 1.28 4.24-2.45 58.19-33.59 49.01-28.29 7.52-4.34c5.16 10.38 9.42 21.29 12.64 32.63zm-21.93-49.18-7.51 4.34-77.68 44.85-33.2 19.17 16.08-19.17 66.6-79.37 5.58-6.65c11.5 10.95 21.62 23.33 30.12 36.84zm-44.49-49.23-5.57 6.64-77.01 91.77-5.28 6.29 2.29-6.29 41.72-114.62 2.97-8.16c14.68 6.42 28.4 14.63 40.88 24.36zm-58.62-31.09-2.97 8.15-43.8 120.33v-137.31c16.22 1 31.89 4.03 46.76 8.83zm-242.56 129.5c3.69-12.99 8.73-25.41 14.94-37.11l7.51 4.34 23.56 13.6 33.21 19.17 54.12 31.25-75.96-13.39-50.76-8.95-8.55-1.51c.6-2.48 1.23-4.95 1.93-7.39zm-7.25 52.33c0-8.92.63-17.7 1.81-26.29l8.54 1.5 73.5 12.96 52.58 9.27-28.03 4.94-98.66 17.4-8.55 1.51c-.78-6.99-1.19-14.09-1.19-21.29zm4.21 40.02 8.54-1.51 126.1-22.23-111.43 64.34-7.52 4.34c-7-14.08-12.32-29.15-15.69-44.94zm24.97 61.48 7.51-4.34 110.88-64.01-82.69 98.54-5.58 6.66c-11.5-10.95-21.62-23.34-30.12-36.85zm44.48 49.24 5.58-6.65 82.29-98.06-44.01 120.91-2.97 8.16c-14.68-6.42-28.4-14.63-40.88-24.36zm58.63 31.09 2.97-8.15 43.8-120.33v137.32c-16.22-1-31.89-4.03-46.76-8.83zm65.73 9.08v-136.67l44.01 120.91 2.97 8.16c-14.98 4.4-30.72 7.01-46.98 7.6zm64.9-13.85-2.97-8.15-43.79-120.32 82.69 98.54 5.58 6.66c-12.72 9.39-26.65 17.24-41.51 23.28zm56.2-35.29-5.57-6.64-82.29-98.06 111.42 64.33 7.52 4.34c-8.84 13.27-19.29 25.38-31.07 36.04zm40.79-52.34-7.51-4.34-110.89-64.02 126.71 22.34 8.55 1.51c-3.78 15.68-9.49 30.6-16.87 44.5zm22.19-89.43c0 3.6-.11 7.18-.31 10.73-.29 5.24-.8 10.43-1.5 15.55l-8.54-1.5-126.08-22.23 106.03-18.7 20.66-3.64 8.55-1.51c.78 6.99 1.19 14.1 1.19 21.3z" fill="#d3d3d3"/><path d="m1927.62 858.07 7.91 37.97 1.34 6.42 2.45-.54 15.88-3.49-.02-.09c-9.46-13.8-18.81-27.46-27.57-40.27z" fill="#d3d3d3"/><path d="m2477.92 776.93c-2.79-.53-5.36-1.66-7.58-3.25-1.17.63-2.38 1.21-3.63 1.73-6.45 2.71-13.12 2.39-19.42.37-7.84 3.88-15.57 6-21.97 7.14 2.06 3.05 3.26 6.73 3.26 10.69 0 2.89-.66 5.62-1.8 8.07 14.22-2.31 34.42-8.5 51.14-24.76z" fill="#d3d3d3"/><path d="m2409.44 812.76c-3.27 0-6.34-.82-9.03-2.27l5.93 19.56 19.09-1.75-5.64-18.6c-2.99 1.92-6.53 3.05-10.35 3.05z" fill="#d3d3d3"/><path d="m2087.46 1262.72c-4.93-7.21-11.2-13.43-18.45-18.3-.92-.62-1.85-1.21-2.8-1.78-5.21-3.14-10.88-5.59-16.87-7.26-5.26-1.35-10.85-2.09-11.42-2.17-1.95-.2-3.93-.3-5.93-.33-.34 0-.68-.03-1.03-.03-9.45 0-18.44 1.92-26.63 5.38-3.93 1.66-7.67 3.69-11.18 6.03-4.8 3.19-9.18 6.97-13.03 11.25-1.18 1.31-2.29 2.66-3.37 4.05-4.04 5.24-7.33 11.09-9.73 17.38-2.8 7.35-4.36 15.31-4.45 23.63 0 .23-.02.45-.02.68 0 1.18.03 2.35.09 3.51.58 11.38 3.95 22.03 9.42 31.27.85 1.44 1.76 2.84 2.71 4.21 7.46 10.72 17.91 19.21 30.14 24.25l12.96-50.33 2.35-9.13 2.46-9.57.26-1.02 2.31.33 12.88 1.82-1.06 4.82-3.31 15-3.33 15.08c.17 0 .33-.03.5-.03 6.31 0 11.42 5.11 11.42 11.42s-5.11 11.42-11.42 11.42c-1.9 0-3.68-.47-5.25-1.29l-3.54 16.04c2.88.37 5.81.58 8.79.58 37.77 0 68.39-30.62 68.39-68.39 0-13.5-3.93-26.07-10.67-36.67-.4-.63-.8-1.26-1.22-1.87zm-9.06 18.63c-.29 3.62-2.29 7.04-5.67 8.99-1.53.88-3.19 1.36-4.84 1.49-1.66.12-3.32-.1-4.87-.68-2.4-.89-4.51-2.6-5.89-4.99-.04-.07-.07-.14-.1-.21-.53-.96-.91-1.96-1.14-2.97-1.08-4.76.98-9.86 5.43-12.43 4.43-2.56 9.87-1.81 13.45 1.49.83.76 1.56 1.67 2.16 2.7.01.02.02.04.03.06.24.42.44.86.62 1.29.71 1.71.98 3.5.83 5.26zm-47.44-33.15c1.61 0 3.14.34 4.53.94 4.05 1.75 6.89 5.79 6.89 10.49 0 2.96-1.14 5.65-2.98 7.68-1.82 2-4.32 3.35-7.15 3.67-.43.05-.86.08-1.3.08-2.37 0-4.57-.72-6.4-1.96-1.65-1.11-2.97-2.65-3.85-4.45-.25-.51-.48-1.04-.65-1.6-.34-1.08-.52-2.23-.52-3.42 0-6.31 5.11-11.42 11.42-11.42zm-45.95 26.53c3.15-5.46 10.14-7.34 15.6-4.18 4.63 2.67 6.67 8.1 5.26 13.02-.25.88-.6 1.75-1.08 2.59-3.15 5.46-10.14 7.34-15.6 4.18-3.87-2.24-5.93-6.4-5.68-10.58.1-1.72.58-3.44 1.5-5.03zm15.61 57.24c-.97.56-1.99.96-3.03 1.21-2.69.65-5.49.29-7.9-.94-1.89-.97-3.54-2.47-4.68-4.44-3.15-5.46-1.28-12.45 4.18-15.6 3.87-2.23 8.49-1.94 11.99.36 1.4.92 2.62 2.16 3.54 3.7.03.04.06.08.08.12 3.15 5.46 1.28 12.45-4.18 15.6zm76.29-4.18c-3.15 5.46-10.14 7.34-15.6 4.18-5.46-3.15-7.34-10.14-4.18-15.6 3.15-5.46 10.14-7.34 15.6-4.18 5.46 3.15 7.34 10.14 4.18 15.6z" fill="#d3d3d3"/><path d="m1987.07 1158.1c-10.8 7.53-29.71 22.13-35.84 35.79-.83 1.85-1.43 3.67-1.74 5.46-1.46 8.42 18.78 26.59 43.66 44.92 3.51-2.34 7.25-4.37 11.18-6.03l-9.56-44.36-7.71-35.79z" fill="#4f4f4f"/><path d="m2064.21 1289.91c1.3.69 2.52 1.33 3.68 1.91 1.66-.12 3.31-.6 4.84-1.49 3.38-1.95 5.38-5.37 5.67-8.99-.31-1.57-.67-3.24-1.08-5z" fill="#4f4f4f"/><path d="m2058.23 1225.14-3.12 12.12c-1.65-.71-3.68-1.34-5.77-1.87 5.99 1.67 11.66 4.12 16.87 7.26-2.35-5.7-5.01-11.58-7.98-17.5z" fill="#4f4f4f"/><path d="m2032.65 1195.18c-1.78 0-3.45-.47-4.9-1.29-3.02-1.71-5.06-4.95-5.06-8.67v-7.43c0-1.38.28-2.7.79-3.9-1.62-1.9-3.47-3.95-5.5-6l3.31 15.38 2.29 10.62 8.4 39c2 .03 3.98.13 5.93.33-.03 0-.05 0-.05 0l6.93-31.41c-1.47-2.23-3-4.44-4.57-6.62h-7.58z" fill="#4f4f4f"/><path d="m2035.49 1249.14 3.91 18.16c1.85-2.03 2.98-4.72 2.98-7.68 0-4.7-2.84-8.73-6.89-10.49z" fill="#4f4f4f"/><path d="m2196.77 365.55c-7.15-15.18-29.23-40.3-39.09-46.37-1.13-.69-2.09-1.14-2.86-1.3-9.38-1.88-60.88 35.46-60.88 35.46.82 16.08 4.69 31.9 4.69 31.9s4.37 5.96 5.37 12.29c5.48 13.32 13.37 35 14.81 52.33 0 0 74.8-64.41 79.8-74.42 1.02-2.04.19-5.56-1.84-9.89z" fill="#4f4f4f"/><path d="m2216.82 1273.81s-5.2-34.23-12.86-79.92c-2.18-13-4.56-26.93-7.07-41.26-1.97-11.23-4.02-22.71-6.13-34.18-5.34-29.06-11.02-58.1-16.55-83.02-7.63-34.38-14.97-60.92-20.73-68.9-3.16-4.38-7.86-12.16-13.57-22.3-4.18-7.43-8.91-16.12-13.98-25.7-.15-.28-.29-.55-.44-.83-9-17.01-19.05-36.71-29.04-56.9-11.99-24.22-23.89-49.13-33.79-70.96-2.9-6.39-5.62-12.51-8.13-18.27-8.92-20.52-15.07-36.48-16.25-43.56-.3-1.79-1.16-3.37-2.5-4.74-6.35 2.44-13.97 5.18-22.43 7.86-40 12.69-98.86 24.15-132.45-3.12s0 0 0 0-11.96 17.48-8.86 39.28c1.02 7.15 3.65 14.76 8.86 22.37 6.05 8.84 20.64 30.22 38.75 56.72 2.59 3.79 5.26 7.69 7.98 11.67 8.76 12.8 18.11 26.47 27.57 40.27.02.03.04.06.06.09 1.92 2.8 3.84 5.6 5.76 8.4.36.53.72 1.06 1.09 1.58 1.54 2.24 3.08 4.48 4.61 6.72 4.92 7.17 9.81 14.29 14.61 21.27 3.74 5.44 7.42 10.78 11.01 16 2.36 3.42 4.68 6.78 6.95 10.07 21.36 30.94 38.52 55.52 43.87 62.48 2.62 3.4 6.55 10.29 11.42 19.83 9.98 19.55 23.88 50.28 38.48 85.26 8.41 20.15 17.05 41.7 25.3 63.34.07.17.13.35.2.52 2.98 7.83 5.91 15.66 8.76 23.44.65 1.77 1.29 3.53 1.93 5.29 9.42 25.97 17.87 51.19 24.23 73.29l10.51-3.67 44.8-15.63 8.03-2.8z" fill="#4f4f4f"/><path d="m2324.06 1338.27c-8.17-5.12-22.27-11.83-39.41-17.59-20.61-6.93-45.61-12.5-70.01-12.33s-32.12-3.51-45.93 7.57-7.73 48.4 5.66 64.63c9.36 11.35 82.65-7.27 125.84-21.71 13.26-4.43 23.67-8.47 28.53-11.12 1.94-1.06 3.02-1.9 3.02-2.46 0-1.39-2.78-3.91-7.69-6.99z" fill="#4f4f4f"/><path d="m2115.63 481.56c-21.59-19.63-45.86-38.45-69.93-50.49-5.2-2.61-10.41-4.9-15.58-6.81t-.03 0c-11.2-4.14-21.19-6.73-29.99-8.01-12.05-.49-19.67 4.23-26.78 17.61-12.79 24.08-11.11 53.27 3.68 76.17 20.83 32.23 57.57 82.05 106.77 121.32 6.04 4.82 12.25 9.49 18.66 13.94 0 0 7.63-4.07 18.37-10.82 17.39-10.92 42.95-28.85 57.55-47.89 4.23-5.51 7.53-11.12 9.46-16.68 1.01-2.91 1.64-5.8 1.82-8.65 0 0-9.07-11.78-23.93-28.59-12.99-14.7-30.42-33.24-50.08-51.11z" fill="#4f4f4f"/><path d="m2014.55 1131.2c-1.29.6-2.62 1.33-3.99 2.2l7.43 34.49c2.02 2.06 3.87 4.11 5.5 6 1.52-3.56 5.05-6.06 9.17-6.06h11.35c1.01-1.4 1.95-2.75 2.78-3.99-10.18-7.58-24.64-23.8-32.24-32.65z" fill="#ffc996"/><path d="m2196.77 365.55s22.88-28.03 43.96-40.14 65.93-169.99 70.42-185.24 30.05-46.65 35.88-57.41 25.57-19.74 36.33-25.57c9-4.88 2.95-12.88.73-15.38-.36-.4-.98-.4-1.33 0-5.75 6.79-19.33 7.97-24.83 8.16-.83.03-1.24-.99-.63-1.55 31.59-29.15 17.28-39.92 12.85-42.29-.55-.29-1.21.05-1.3.67-2.43 15.75-14.35 29.25-20.49 35.29-.72.71-1.86-.13-1.42-1.04 16.15-33.15 2.83-39.65-1.19-40.82-.55-.16-1.08.22-1.13.79-1.21 13.66-9.76 30.57-14.92 39.69-.52.92-1.93.33-1.63-.69 12.71-43.66-6.54-45.8-5.96-33.63.61 12.82-10.38 65.33-20.15 65.94s2.44-25.03-10.38-25.64-3.05 48.24-3.05 58.01-56.78 109.91-73.88 150.44-56.95 64.04-56.95 64.04c9.85 6.07 31.94 31.19 39.09 46.37z" fill="#ffc996"/><path d="m2163.99 1292.24s1.26 15.87 4.73 23.68c13.81-11.08 45.91-7.57 45.93-7.57 1.08-10.28-5.86-31.74-5.86-31.74z" fill="#ffc996"/><path d="m2447.58 709.49c-14.72 7.96-108.37-49.59-130.67-52.85s-103.25-34.54-129.1-86.74c-1.92 5.56-5.22 11.17-9.46 16.68-14.6 19.04-40.16 36.97-57.55 47.89 0 0 60.71 76.75 115.44 78.65s175.85 28.51 181.95 39.19c4.15 7.25 15.77 19.2 29.1 23.48 6.29 2.02 12.96 2.33 19.42-.37 1.25-.53 2.47-1.11 3.63-1.73 8.98-4.83 15.29-12.55 18.52-21.34 1.26-3.43 2.05-7.02 2.35-10.67.43-5.25-.17-10.62-1.87-15.78-6.31-19.15-27.05-24.35-41.77-16.39z" fill="#ffc996"/><path d="m2094.78 335.35c30.57-10.53 25.43-96.76 24.41-110.46-15.28 1.27-33.55-2.46-38.42-7-7.78-7.26-31.13-12.97-40.99 6.74-5.82 11.63-16.87 23.44-24.95 31.17-1.18 1.13-2.29 2.17-3.32 3.11-.1.38-.2.75-.31 1.09-6.03 20.37 16.6 27.16 18.86 27.16.68 0 1.89 3.85 4.46 9.4s.32 5.87.65 13.88c.69 16.85 1.43 43.15-.65 44.19-3.06 1.53-11.91 4.68-11.91 4.68s26.82 53.45 61.24 53.06c4.94-.05 8.76-.65 11.69-1.64 7.86-2.64 9.28-8.04 8.47-13.2-1-6.33-5.37-12.29-5.37-12.29s-3.86-15.82-4.69-31.9c-.32-6.27-.18-12.57.83-18z" fill="#ffc996"/><path d="m2056.52 225.67-11.39 8.89v61.63l19.32 21.33h26.43l15.37-17.14 10.59-22.56 5.33-24.88-8.1-27.27-30.41-4.74-27.13 4.74z" fill="#333"/><path d="m2039.18 251.47c1.3 13.65-5.53 33.81-14.3 26.66-3.74-3.05-5.06-6.36-6.15-9.25-.27-.73-.54-1.43-.81-2.09.18 5.09.72 10.04 1.59 14.82.48 2.53 1.54 7.26 3.48 12.97 6.69 19.65 23.95 50.86 65.17 43.43 25.27-7.96 44.1-38.44 44.1-74.83 0-18.58-4.91-35.62-13.07-48.91 0 0-15.13-12.54-20.75-7.99-5.61 4.55-24.15.94-28.7-.99s-19.83-2.2-26.33 8.99-5.53 23.54-4.23 37.2zm63.1 9.69c0-2.19 1.78-3.97 3.97-3.97s3.97 1.78 3.97 3.97-1.78 3.97-3.97 3.97-3.97-1.78-3.97-3.97zm-3.84-18.36c3.33-6.6 13.52-4.13 15.63 2.23-2.81-.81-5.18-1.8-7.85-2.37-2.71-.6-4.86-.33-7.78.14zm-3.62 36.87c-.65 2.18-2.45 4.19-4.78 4.48-1.24.22-2.47 0-3.65-.38 1.15-.25 2.22-.43 3.2-.99 3.97-2.08 2.27-8.4 1.51-12.18-1.38-5.9-3.36-11.64-4.72-17.66 5.3 6.43 10.79 18.33 8.43 26.73zm-33.73 13.23c2.56 2.33 4.96 4.64 7.58 6.55 8.61 6.66 17.29 6.14 26.35.53-2.96 4.47-8.11 7.47-13.5 7.84-5.57.43-10.98-2.26-14.76-6.2-2.48-2.54-4.37-5.52-5.67-8.72zm5.86-27.77c-2.19 0-3.97-1.78-3.97-3.97s1.78-3.97 3.97-3.97 3.97 1.78 3.97 3.97-1.78 3.97-3.97 3.97zm-10.43-21.09c2.33-6.51 12.5-4.69 15.88 0-3.99.23-8.02-.75-11.92-.69-1.22.02-2.43.19-3.96.69z" fill="#fac797"/><ellipse cx="537.44" cy="178" fill="#3a2a2b" rx="4.79" ry="7.49" transform="matrix(.97063257 -.24056687 .24056687 .97063257 -27.03 134.47)"/><ellipse cx="586.9" cy="161.7" fill="#3a2a2b" rx="4.79" ry="7.49" transform="matrix(.97063257 -.24056687 .24056687 .97063257 -21.66 145.89)"/><path d="m512.96 173.69s-.02 6.32 4.52 1.74 2.97-10.35 19.77-17.05c10.5-4.19 9.21-6.38 6.78-7.44-1.76-.76-3.79-.78-5.72-.15-6.2 2.04-22.54 8.71-25.34 22.89z" fill="#282728"/><path d="m563.53 142.8s-4.1 4.82 2.33 4.25 8.95-5.98 26.1-.26c10.72 3.58 11.16 1.07 9.98-1.31-.85-1.72-2.39-3.05-4.28-3.81-6.05-2.44-22.83-7.9-34.13 1.13z" fill="#282728"/></svg>