<?xml version="1.0" encoding="UTF-8"?><svg id="Capa_2" xmlns="http://www.w3.org/2000/svg" viewBox="0 0 317.47 99.12"><defs><style>.cls-1{fill:#35c055;}.cls-1,.cls-2{stroke-width:0px;}.cls-2{fill:#211f3d;}</style></defs><g id="Layer_1"><path class="cls-2" d="M0,6.39C0,2.95,2.95,0,6.39,0s6.39,2.95,6.39,6.39-2.95,6.39-6.39,6.39S0,9.83,0,6.39ZM11.79,63.89H.49V18.67h11.3v45.21Z"/><path class="cls-2" d="M62.9,37.35v26.54h-11.3v-25.06c0-5.9-3.93-9.83-9.34-9.83s-9.34,3.93-9.34,9.83v25.06h-11.3V18.67h8.36l1.96,4.42s5.41-4.91,12.78-4.91c10.81,0,18.18,7.37,18.18,19.16Z"/><path class="cls-2" d="M77.16,7.86h9.83v10.81h9.83v10.32h-9.83v18.67c0,3.93,2.46,6.39,6.39,6.39,1.96,0,2.95-.49,2.95-.49v9.83s-2.46.98-5.41.98c-8.84,0-15.23-6.39-15.23-16.22v-19.16h-6.88v-9.34h2.95c3.44,0,5.41-1.97,5.41-5.41v-6.39Z"/><path class="cls-2" d="M144.48,50.13c-2.46,6.88-9.83,14.25-20.15,14.25-12.28,0-22.6-10.32-22.6-23.1s10.32-23.1,22.6-23.1,21.62,9.34,21.62,23.1c0,1.96-.49,4.42-.49,4.42h-31.45c.98,4.42,4.42,7.86,10.32,7.86s8.35-3.44,8.35-3.44h11.79ZM113.52,37.84h21.62c-.98-4.92-4.91-8.85-10.81-8.85s-9.83,3.93-10.81,8.85Z"/><path class="cls-2" d="M164.63,63.89h-11.3V1.97h11.3v61.92Z"/><path class="cls-2" d="M214.76,50.13c-2.46,6.88-9.83,14.25-20.15,14.25-12.29,0-22.61-10.32-22.61-23.1s10.32-23.1,22.61-23.1,21.62,9.34,21.62,23.1c0,1.96-.49,4.42-.49,4.42h-31.45c.98,4.42,4.42,7.86,10.32,7.86s8.35-3.44,8.35-3.44h11.79ZM183.8,37.84h21.62c-.98-4.92-4.91-8.85-10.81-8.85s-9.83,3.93-10.81,8.85Z"/><path class="cls-2" d="M294.87,64.38c-12.28,0-22.6-10.32-22.6-23.1s10.32-23.1,22.6-23.1,22.61,10.32,22.61,23.1-10.32,23.1-22.61,23.1ZM294.87,53.57c6.39,0,11.3-4.91,11.3-12.28s-4.91-12.29-11.3-12.29-11.3,4.91-11.3,12.29,4.92,12.28,11.3,12.28Z"/><path class="cls-1" d="M266.6,24.18c.12.01.25,0,.37-.01.07,0,.14,0,.23-.01,3.78-.37,6.71-3.56,6.71-7.42,0-4.13-3.33-7.47-7.46-7.47-3.86,0-7.04,2.94-7.42,6.69-.02.26-.04.52-.04.78v.11c0,.13.01.26.02.4-.01,1.79-1.46,3.22-3.24,3.22-.42,0-.82-.07-1.18-.22-.16-.08-.31-.17-.48-.23-.04-.02-.07-.05-.12-.06-.19-.1-.4-.19-.6-.28-.05-.01-.1-.04-.13-.05-.1-.05-.2-.08-.3-.12-1.84-.73-3.8-1.24-5.83-1.47-13.88-1.56-25.66,9.26-25.66,22.84,0,8.28,4.38,15.54,10.96,19.58.13.1.28.18.43.26.84.47,1.82.7,2.85.65,2.89-.16,5.1-2.49,5.1-5.38,0-1.59-.69-3-1.76-3.98-.2-.18-.4-.34-.61-.48-.05-.04-.08-.07-.13-.1-.23-.17-.47-.31-.72-.46-.24-.16-.47-.32-.69-.51-3.45-2.72-5.4-7.25-4.4-12.16.96-4.78,4.85-8.56,9.62-9.45,7.8-1.44,14.58,4.49,14.58,12.02,0,3.91-1.83,7.39-4.69,9.64-.18.14-.37.28-.57.42-.01,0-.02,0-.02.01-.28.19-.55.36-.84.53-2.2,1.55-3.65,4.11-3.65,7.01s1.41,5.43,3.59,6.99c.32.17.62.37.93.58h.01c.19.14.37.28.55.42,3.31,2.59,5.23,6.82,4.56,11.46-.78,5.39-5.22,9.68-10.63,10.31-7.41.87-13.7-4.91-13.7-12.15,0-.05.01-.1.01-.14,0-1.59-.69-3.01-1.77-3.99-.19-.17-.4-.34-.61-.48-.85-.58-1.9-.93-3.02-.93-2.97,0-5.38,2.42-5.38,5.4,0,.05.01.1.01.14h-.01c0,13.6,11.8,24.45,25.72,22.86,10.45-1.2,18.9-9.62,20.11-20.08.87-7.35-1.74-14.11-6.4-18.85-.84-.87-.84-2.2,0-3.06,4.67-4.76,7.28-11.55,6.4-18.91-.32-2.72-1.14-5.3-2.36-7.65-.03-.09-.05-.12-.08-.17-.06-.11-.12-.22-.17-.32-.12-.24-.25-.46-.4-.69,0-.01-.01-.01-.01-.02-.06-.11-.12-.23-.19-.34-.01-.01-.02-.04-.04-.05-.01-.04-.04-.07-.06-.11,0,0,0,.01,0,0-.18-.4-.27-.84-.27-1.31,0-1.67,1.25-3.04,2.86-3.24Z"/></g></svg>