<svg viewBox="0 0 50 50" xmlns="http://www.w3.org/2000/svg"><circle cx="25" cy="25" fill="#f7a11e" r="24.5"/><path d="m39.64 35c0 1.94-2.99 2.55-7.44 2.55s-7.38-.51-7.38-2.48c0-.78.37-1.36 1.39-1.77.51-.21.82-.54.78-1.22 0-.24-.07-.54-.14-.88-1.16-.2-2.45-.24-3.84-.24-1.5 0-2.75.07-3.98.27-.1.37-.2.71-.24.95-.1.51-.1.85.37 1.09 1.05.51 1.67.95 1.67 1.87 0 1.84-2.01 2.41-5.13 2.41-3.33 0-5.34-.61-5.34-2.31 0-.99.54-1.6 1.56-2.01.92-.38 1.36-.71 3.06-4.35 1.02-2.18 3.6-8.06 4.11-9.66.27-.95.31-1.56.34-2.41.1-2.82 1.6-4.35 4.39-4.35 2.07 0 3.94.92 5.07 2.96 1.53 2.75 6.32 12.75 7.21 14.52 1.29 2.55 1.6 2.89 2.28 3.2.75.34 1.26.81 1.26 1.87zm-14.11-7.86c-.82-2.04-1.8-4.25-2.69-6.09-.85 1.9-1.73 4.08-2.48 6.09.92 0 1.8-.03 2.65-.03s1.67.03 2.52.03z" fill="#222"/></svg>