<svg viewBox="0 0 50 50" xmlns="http://www.w3.org/2000/svg"><circle cx="25" cy="25" fill="#f05a5f" r="24.5"/><path d="m37.38 30.2c0 5.61-6.12 7.21-9.76 7.21-3.94 0-5.44-.14-7.07-.14-1.33 0-2.48.1-3.71.1-2.72 0-4.22-.54-4.22-2.07 0-1.05.95-1.6 1.39-1.87.75-.47.75-.78.75-1.7v-13.43c0-.92 0-1.22-.75-1.7-.44-.27-1.39-.85-1.39-1.87 0-1.53 1.5-2.07 4.22-2.07 1.19 0 2.45.07 3.64.07 2.21 0 4.9-.14 6.59-.14 4.49 0 8.87 1.6 8.87 6.26 0 3.06-1.97 4.45-3.54 5.17 2.04.37 4.96 2.31 4.96 6.19zm-13.64-11.9v4.86c.34.03.65.03.85.03 2.14 0 2.89-1.5 2.89-3.37 0-2.01-.82-3.5-2.35-3.5-.48 0-.99.1-1.19.44s-.2.82-.2 1.53zm4.52 11.87c0-2.35-1.29-3.64-3.43-3.64-.31 0-.71.03-1.09.07v4.83c0 .61 0 1.22.24 1.63.24.44.78.61 1.5.61 1.67 0 2.79-1.33 2.79-3.5z" fill="#222"/></svg>