<svg viewBox="0 0 792.16 557.38" xmlns="http://www.w3.org/2000/svg"><path d="m698.43 174.99h10.48v382.39h-10.48z" fill="#484655"/><path d="m698.43 174.99h5.24v382.39h-5.24z" fill="#484655" opacity=".2"/><circle cx="704.42" cy="113.44" fill="#208cce" r="87.74"/><path d="m704.42 190.27c-42.36 0-76.83-34.46-76.83-76.83s34.46-76.83 76.83-76.83 76.83 34.46 76.83 76.83-34.46 76.83-76.83 76.83zm0-144.93c-37.55 0-68.1 30.55-68.1 68.1s30.55 68.1 68.1 68.1 68.1-30.55 68.1-68.1-30.55-68.1-68.1-68.1z" fill="#fff"/><path d="m742.46 77.27c-2.92-4.08-12.56-8.06-37.91-8.06-23.9 0-35.22 3.16-37.91 8.06-2.35 4.3-2.47 67.22-.05 70.75.8 1.17 5.64 1.9 5.64 1.9v9.36h12.22v-8.73h41.91v8.73h10.48v-9.36s4.74-.81 5.65-1.9c1.64-1.96 3.12-66.34-.03-70.75zm-58 5.18h41.91v3.49h-41.91zm-12.23 8.73h29.68v24.44h-29.68zm45.4 40.16v3.49h-26.19v-3.49zm-28.35 1.7c0 1.73-1.41 3.14-3.14 3.14s-3.14-1.41-3.14-3.14 1.41-3.14 3.14-3.14 3.14 1.41 3.14 3.14zm-8.55 0c0 1.73-1.41 3.14-3.14 3.14s-3.14-1.41-3.14-3.14 1.41-3.14 3.14-3.14 3.14 1.41 3.14 3.14zm56.11 10.52h-64.6v-3.49h64.6zm-15.93-10.52c0-1.73 1.41-3.14 3.14-3.14s3.14 1.41 3.14 3.14-1.41 3.14-3.14 3.14-3.14-1.41-3.14-3.14zm7.58 0c0-1.73 1.41-3.14 3.14-3.14s3.14 1.41 3.14 3.14-1.41 3.14-3.14 3.14-3.14-1.41-3.14-3.14zm8.35-17.42h-29.68v-24.44h29.68z" fill="#fff"/><path d="m703.42 140.06c-28.46-26.22-46.43-59.97-51.86-96.64-21.19 16.02-34.88 41.42-34.88 70.03 0 48.46 39.28 87.74 87.74 87.74 23.24 0 44.36-9.06 60.06-23.81-22.48-8.45-43.38-21.02-61.06-37.31z" fill="#208cce" opacity=".2"/><path d="m27.94 110.38h548.26v385.88h-548.26z" fill="#2c3045" opacity=".3"/><path d="m110.88 496.26 116.11-385.88h-43.65l-116.99 385.88z" fill="#fff" opacity=".2"/><path d="m168.5 496.26 116.11-385.88h-29.68l-116.99 385.88z" fill="#fff" opacity=".2"/><path d="m27.94 492.77h548.26v8.73h-548.26z" fill="#323041"/><path d="m27.94 105.15h548.26v8.73h-548.26z" fill="#323041"/><path d="m572.71 31.81h15.71v525.57h-15.71z" fill="#484655"/><path d="m572.71 31.81h6.98v525.57h-6.98z" fill="#484655" opacity=".3"/><path d="m13.97 31.81h15.71v525.57h-15.71z" fill="#484655"/><path d="m13.97 31.81h6.98v525.57h-6.98z" fill="#484655" opacity=".3"/><path d="m36.67 35.3h-29.69l6.99 12.23h15.71z" fill="#383646"/><path d="m595.41 35.3h-29.69l6.99 12.23h15.71z" fill="#383646"/><path d="m403.34 134.83h144.92v179.84h-144.92z" fill="#fffffa"/><g fill="#b2b2b2"><path d="m490.64 201.18h19.21v1.75h-19.21z"/><path d="m490.64 206.42h19.21v1.75h-19.21z"/><path d="m490.64 211.66h19.21v1.75h-19.21z"/><path d="m433.02 181.97h19.21v1.75h-19.21z"/><path d="m433.02 187.21h19.21v1.75h-19.21z"/><path d="m433.02 192.45h19.21v1.75h-19.21z"/></g><path d="m403.34 134.83h144.92v15.71h-144.92z" fill="#327fc6"/><path d="m523.82 269.28h19.21v1.75h-19.21z" fill="#b2b2b2"/><path d="m523.82 274.51h19.21v1.75h-19.21z" fill="#b2b2b2"/><path d="m523.82 279.75h19.21v1.75h-19.21z" fill="#b2b2b2"/><path d="m422.55 290.23h33.18v3.49h-33.18z" fill="#b2b2b2"/><path d="m422.55 279.75h33.18v3.49h-33.18z" fill="#b2b2b2"/><path d="m422.55 300.71h33.18v3.49h-33.18z" fill="#b2b2b2"/><path d="m417.25 282.2c0 1.35-1.09 2.44-2.44 2.44s-2.45-1.09-2.45-2.44 1.09-2.44 2.45-2.44 2.44 1.09 2.44 2.44z" fill="#ff5b79"/><path d="m417.25 291.97c0 1.35-1.09 2.45-2.44 2.45s-2.45-1.09-2.45-2.45 1.09-2.44 2.45-2.44 2.44 1.09 2.44 2.44z" fill="#f5c50f"/><path d="m417.25 301.75c0 1.35-1.09 2.45-2.44 2.45s-2.45-1.09-2.45-2.45 1.09-2.44 2.45-2.44 2.44 1.09 2.44 2.44z" fill="#3bc075"/><path d="m516.84 290.38v-66.5h-55.87v-52.54c1.21-.63 2.04-1.88 2.04-3.34 0-2.09-1.69-3.78-3.78-3.78s-3.78 1.69-3.78 3.78c0 1.46.83 2.71 2.04 3.34v56.03h55.87v63.01c-1.21.63-2.04 1.88-2.04 3.34 0 2.09 1.69 3.78 3.78 3.78s3.78-1.69 3.78-3.78c0-1.46-.83-2.71-2.04-3.34z" fill="#ff5b79"/><path d="m516.84 174.7c-1.46 0-2.71.83-3.34 2.04h-29.84v83.81h-17.46v26.34c-1.21.63-2.04 1.88-2.04 3.34 0 2.09 1.69 3.78 3.78 3.78s3.78-1.69 3.78-3.78c0-1.46-.83-2.71-2.04-3.34v-22.85h17.46v-83.81h26.34c.63 1.21 1.88 2.04 3.34 2.04 2.09 0 3.78-1.69 3.78-3.78s-1.69-3.78-3.78-3.78z" fill="#f5c50f"/><path d="m501.12 274.67v-31.58h-76.83v-49.04c1.21-.63 2.04-1.88 2.04-3.34 0-2.09-1.69-3.78-3.78-3.78s-3.78 1.69-3.78 3.78c0 1.46.83 2.71 2.04 3.34v52.54h76.83v28.09c-1.21.63-2.04 1.88-2.04 3.34 0 2.09 1.69 3.78 3.78 3.78s3.78-1.69 3.78-3.78c0-1.46-.83-2.71-2.04-3.34z" fill="#3bc075"/><path d="m0 16.1h604.14v19.21h-604.14z" fill="#484655"/><path d="m0 17.84h604.14s-19.34-17.84-296.29-17.84-307.85 17.84-307.85 17.84z" fill="#2f2d3e"/><path d="m565.72 557.38h29.69l-6.99-12.23h-15.71z" fill="#383646"/><path d="m6.98 557.38h29.69l-6.99-12.23h-15.71z" fill="#383646"/></svg>