<svg fill="none" height="451" viewBox="0 0 1920 451" width="1920" xmlns="http://www.w3.org/2000/svg" xmlns:xlink="http://www.w3.org/1999/xlink"><mask id="a" height="451" maskUnits="userSpaceOnUse" width="1920" x="0" y="0"><path d="m0 0h1920v451h-1920z" fill="#d9d9d9"/></mask><mask id="b" height="22" maskUnits="userSpaceOnUse" width="1015" x="454" y="174"><path d="m1468.68 174.314h-1013.729v21.03h1013.729z" fill="#fff"/></mask><g mask="url(#a)"><path d="m2036.18 167.032h-2157.794v284.015h2157.794z" fill="#aeb3ba"/><g fill="#fff" mask="url(#b)"><path d="m770.779 175.948-72.453 49.778h73.817l51.49-49.778z"/><path d="m577.55 175.948-157.858 49.778h57.183l135.341-49.778z"/><path d="m665.07 175.948-114.378 49.778h73.817l93.415-49.778z"/><path d="m876.487 175.948-30.515 49.778h73.817l9.552-49.778z"/><path d="m1491.44 225.726-157.86-49.778h-34.27l137.21 49.778z"/><path d="m1246.46 175.948h-52.86l95.28 49.778h73.82z"/><path d="m982.196 175.948 11.41 49.778h73.814l-32.38-49.778z"/><path d="m1087.89 175.948 53.36 49.778h73.82l-74.32-49.778z"/></g><path d="m-143.985 392.6v-39.61l720.574-198.05v13.244z" fill="#578bc7"/><path d="m576.589 154.94h-720.574v198.05z" fill="#90bcec"/><path d="m2063.54 392.6v-39.61l-728.58-198.05v13.244z" fill="#578bc7"/><path d="m1334.96 154.94h728.58v198.05z" fill="#90bcec"/><path d="m2002.57 63.9409c3.04-5.8055 4.76-12.4165 4.76-19.4302 0-23.1888-18.79-41.9814-41.98-41.9814-10.4 0-19.91 3.79209-27.25 10.0563-9.59-6.3537-21.08-10.0563-33.45-10.0563-21.29 0-40.01 10.9624-50.83 27.5402-5.85-3.0986-12.52-4.8548-19.59-4.8548-22.23 0-40.41 17.2713-41.87 39.1289-18.55 4.3514-32.36 20.9851-32.36 40.8624h276.89c0-20.5708-14.8-37.6743-34.32-41.2651z" fill="#39b44a"/><path d="m1914.19 71.4134c-3.65 0-7.16.5929-10.46 1.6667-2.16-16.5778-16.31-29.397-33.48-29.397s-30.63 12.204-33.3 28.2113c-1.77-.2908-3.57-.4698-5.43-.4698-18.67 0-33.8 15.1348-33.8 33.8044h150.25c0-18.6696-15.14-33.8044-33.81-33.8044z" fill="#61c36e"/><path d="m1543.31 141.103c-1.5-3.971-2.37-8.267-2.48-12.752-.54-21.5 16.44-39.3642 37.94-39.9011 10.71-.2685 20.51 3.8033 27.72 10.6268 1.87-19.296 17.89-34.6209 37.77-35.1131 21.5-.537 39.36 16.4435 39.9 37.9434.02.895 0 1.79-.04 2.673 6.42-5.1789 14.54-8.367 23.43-8.5907 21.5-.5369 39.36 16.4437 39.9 37.9437.02.749.01 1.487-.01 2.214 4.01-1.532 8.35-2.427 12.89-2.539 21.5-.537 39.37 16.444 39.9 37.943l-282.46 7.115c-.43-17.137 10.3-31.959 25.55-37.541z" fill="#2b8738"/><path d="m1819.92 134.133c1.3-4.049 1.96-8.367 1.85-12.864-.54-21.4993-18.4-38.4798-39.9-37.9429-10.71.2685-20.28 4.8324-27.15 12.0027-2.84-19.1841-19.6-33.6701-39.48-33.178-21.5.537-38.48 18.4012-37.94 39.9012.02.895.09 1.789.17 2.662-6.68-4.8548-14.95-7.629-23.83-7.4053-21.5.537-38.48 18.4013-37.94 39.9013.02.749.06 1.487.12 2.214-4.09-1.331-8.47-2.002-13.01-1.89-21.5.537-38.48 18.401-37.94 39.901l282.46-7.115c-.44-17.137-11.88-31.399-27.41-36.209z" fill="#39b44a"/><path d="m1566.23 154.112c-.95-2.517-1.5-5.224-1.57-8.054-.35-13.58 10.39-24.866 23.97-25.202 6.75-.168 12.95 2.405 17.5 6.712 1.19-12.193 11.3-21.869 23.85-22.182 13.58-.347 24.87 10.392 25.2 23.971.02.571 0 1.13-.02 1.69 4.06-3.278 9.19-5.292 14.8-5.426 13.58-.347 24.87 10.392 25.2 23.972.02.47 0 .94 0 1.398 2.54-.973 5.28-1.532 8.16-1.61 13.58-.347 24.87 10.391 25.2 23.971l-178.44 4.497c-.27-10.828 6.5-20.191 16.14-23.714z" fill="#61c36e"/><path d="m1732.97 135.923c-1.42-4.004-2.21-8.311-2.23-12.797-.12-21.499 17.22-39.0279 38.72-39.1398 10.71-.0559 20.43 4.2172 27.5 11.1749 2.26-19.2624 18.57-34.2518 38.46-34.3525 21.49-.1118 39.02 17.2266 39.14 38.7263 0 .8951-.04 1.7901-.09 2.6731 6.53-5.0446 14.69-8.076 23.59-8.1207 21.5-.1119 39.03 17.2267 39.14 38.7267 0 .749-.03 1.487-.06 2.214 4.05-1.454 8.4-2.259 12.95-2.282 21.5-.111 39.03 17.227 39.15 38.727l-282.55 1.465c-.09-17.148 10.92-31.746 26.28-37.026z" fill="#2b8738"/><path d="m2009.67 134.491c1.38-4.015 2.13-8.333 2.1-12.819-.11-21.5-17.62-38.838-39.14-38.7261-10.7.0559-20.38 4.4297-27.38 11.4546-2.46-19.2401-18.93-34.0617-38.8-33.961-21.5.1118-38.84 17.6292-38.73 39.1401 0 .8944.06 1.7894.11 2.6734-6.58-4.9777-14.79-7.9309-23.68-7.8749-21.5.1118-38.84 17.6289-38.72 39.1399 0 .75.03 1.488.07 2.215-4.06-1.409-8.42-2.17-12.97-2.148-21.5.112-38.84 17.63-38.73 39.14l282.55-1.465c-.09-17.148-11.25-31.634-26.68-36.746z" fill="#39b44a"/><path d="m1755.64 149.392c-.9-2.528-1.4-5.247-1.41-8.088-.07-13.58 10.88-24.654 24.46-24.721 6.77-.034 12.9 2.662 17.37 7.058 1.42-12.17 11.74-21.634 24.3-21.701 13.58-.067 24.65 10.884 24.72 24.464 0 .571-.02 1.13-.06 1.689 4.13-3.188 9.29-5.101 14.9-5.134 13.58-.067 24.66 10.884 24.73 24.464 0 .47-.02.94-.04 1.398 2.56-.917 5.32-1.432 8.18-1.443 13.58-.067 24.65 10.884 24.72 24.464l-178.5.929c-.05-10.829 6.91-20.057 16.61-23.391z" fill="#61c36e"/><path d="m-108.84 63.9409c-3.042-5.8055-4.765-12.4165-4.765-19.4302 0-23.1888 18.7927-41.9814 41.9814-41.9814 10.4031 0 19.9113 3.79209 27.2493 10.0563 9.5977-6.3537 21.0858-10.0563 33.4576-10.0563 21.2872 0 40.0015 10.9624 50.8296 27.5402 5.8504-3.0986 12.5173-4.8548 19.5869-4.8548 22.2267 0 40.4041 17.2713 41.8692 39.1289 18.547 4.3514 32.362 20.9851 32.362 40.8624h-276.89c0-20.5708 14.8-37.6743 34.319-41.2651z" fill="#39b44a"/><path d="m-20.4694 71.4134c3.6467 0 7.1591.5929 10.459 1.6667 2.15895-16.5778 16.30936-29.397 33.48-29.397 17.1707 0 30.6275 12.204 33.301 28.2113 1.7674-.2908 3.5684-.4698 5.4253-.4698 18.6695 0 33.8043 15.1348 33.8043 33.8044h-150.2627c0-18.6696 15.1347-33.8044 33.8043-33.8044z" fill="#61c36e"/><path d="m73.807 134.133c-1.2975-4.049-1.9575-8.367-1.8457-12.864.537-21.4993 18.4012-38.4798 39.9007-37.9429 10.705.2685 20.281 4.8324 27.149 12.0027 2.841-19.1841 19.598-33.6701 39.475-33.178 21.5.537 38.481 18.4012 37.944 39.9012-.023.895-.09 1.789-.168 2.662 6.678-4.8548 14.945-7.629 23.826-7.4053 21.5.537 38.48 18.4013 37.944 39.9013-.023.749-.068 1.487-.124 2.214 4.095-1.331 8.468-2.002 13.01-1.89 21.5.537 38.48 18.401 37.943 39.901l-282.4599-7.115c.4363-17.137 11.8797-31.399 27.4059-36.209z" fill="#2b8738"/><path d="m350.417 141.103c1.499-3.971 2.371-8.267 2.483-12.752.537-21.5-16.444-39.3642-37.943-39.9011-10.705-.2685-20.504 3.8033-27.719 10.6268-1.868-19.296-17.887-34.6209-37.765-35.1131-21.499-.537-39.363 16.4435-39.9 37.9434-.023.895 0 1.79.033 2.673-6.421-5.1789-14.542-8.367-23.424-8.5907-21.499-.5369-39.363 16.4437-39.9 37.9437-.023.749-.012 1.487.011 2.214-4.016-1.532-8.356-2.427-12.898-2.539-21.499-.537-39.3635 16.444-39.9005 37.943l282.4605 7.115c.436-17.137-10.292-31.959-25.55-37.541z" fill="#39b44a"/><path d="m327.496 154.112c.951-2.517 1.499-5.224 1.577-8.054.347-13.58-10.391-24.866-23.971-25.202-6.757-.168-12.954 2.405-17.507 6.712-1.185-12.193-11.298-21.869-23.848-22.182-13.58-.347-24.867 10.392-25.203 23.971-.011.571 0 1.13.023 1.69-4.061-3.278-9.184-5.292-14.799-5.426-13.58-.347-24.867 10.392-25.203 23.972-.011.47 0 .94 0 1.398-2.539-.973-5.28-1.532-8.154-1.61-13.58-.347-24.867 10.391-25.203 23.971l178.441 4.497c.268-10.828-6.499-20.191-16.142-23.714z" fill="#61c36e"/><path d="m-123.538 134.447c-1.421-4.016-2.192-8.334-2.17-12.82.112-21.499 18.155-38.8378 40.2922-38.7259 11.0183.0559 20.9852 4.4297 28.189 11.4657 2.5281-19.2289 19.475-34.0505 39.9567-33.9498 22.13729.1119 40.0015 17.6405 39.8896 39.1402 0 .8948-.0559 1.7898-.123 2.6738 6.7787-4.9782 15.2242-7.9201 24.3745-7.8754 22.1372.1119 40.0014 17.6404 39.8896 39.1404 0 .749-.0336 1.488-.0783 2.215 4.1836-1.41 8.6804-2.171 13.3557-2.148 22.138.112 40.002 17.64 39.89 39.14l-290.928-1.51c.09-17.148 11.578-31.634 27.462-36.746z" fill="#2b8738"/><path d="m128.406 135.923c1.421-4.004 2.215-8.311 2.238-12.797.111-21.499-17.227-39.0279-38.7267-39.1398-10.7051-.0559-20.4258 4.2172-27.4954 11.1749-2.2596-19.2624-18.5689-34.2518-38.4578-34.3525-21.49967-.1118-39.0283 17.2266-39.1401 38.7263 0 .8951.0335 1.7901.0895 2.6731-6.5327-5.0446-14.6986-8.076-23.5915-8.1207-21.4997-.1119-39.0283 17.2267-39.1401 38.7267 0 .749.0223 1.487.0559 2.214-4.0494-1.454-8.4008-2.259-12.9535-2.282-21.4993-.111-39.0283 17.227-39.1403 38.727l282.55 1.465c.089-17.148-10.929-31.746-26.288-37.026z" fill="#39b44a"/><path d="m105.755 149.392c.895-2.528 1.398-5.247 1.409-8.088.067-13.58-10.8839-24.654-24.4638-24.721-6.7676-.034-12.8975 2.662-17.372 7.058-1.4206-12.17-11.7342-21.634-24.2962-21.701-13.5799-.067-24.6541 10.884-24.7212 24.464 0 .571.0223 1.13.0559 1.689-4.1277-3.188-9.28445-5.101-14.89987-5.134-13.57993-.067-24.65413 10.884-24.72123 24.464 0 .47.0112.94.0335 1.398-2.5616-.917-5.3134-1.432-8.177-1.443-13.5799-.067-24.6542 10.884-24.7213 24.464l178.4962.929c.056-10.829-6.902-20.057-16.611-23.391z" fill="#61c36e"/></g></svg>