<svg viewBox="0 0 500 500" xmlns="http://www.w3.org/2000/svg" xmlns:xlink="http://www.w3.org/1999/xlink"><pattern id="a" height="707.92" patternTransform="translate(-47.64 -170.94)" patternUnits="userSpaceOnUse" viewBox="0 0 682.42 707.92" width="682.42"><path d="m0 0h682.42v707.92h-682.42z" fill="none"/><path d="m341.15 328.63h160.42v139.98h-160.42z" fill="#004b73"/><path d="m507.5 328.63h160.42v139.98h-160.42z" fill="#00c0ff"/><path d="m0 336.41h160.42v139.98h-160.42z" fill="#00c0ff"/><path d="m162.65 336.41h160.42v139.98h-160.42z" fill="#00c0ff"/><path d="m99.87 171.41h160.42v139.98h-160.42z" fill="#ffc540"/><path d="m266.22 171.41h160.42v139.98h-160.42z" fill="#00e6aa"/><path d="m432.56 171.41h160.42v139.98h-160.42z" fill="#ff426f"/><path d="m101.9 425.78h160.42v139.98h-160.42z" fill="#ffc540"/><path d="m268.25 425.78h160.42v139.98h-160.42z" fill="#ffc540"/><path d="m434.6 425.78h160.42v139.98h-160.42z" fill="#ffc540"/><path d="m355.65 560.16h160.42v139.98h-160.42z" fill="#ffc540"/><path d="m522 560.16h160.42v139.98h-160.42z" fill="#06d6a0"/><path d="m14.5 567.94h160.42v139.98h-160.42z" fill="#06d6a0"/><path d="m177.16 567.94h160.42v139.98h-160.42z" fill="#00c0ff"/><path d="m353.62 26.67h160.42v139.98h-160.42z" fill="#ffc540"/><path d="m519.96 26.67h160.42v139.98h-160.42z" fill="#06d6a0"/><path d="m12.47 34.45h160.42v139.98h-160.42z" fill="#06d6a0"/><path d="m175.12 34.45h160.42v139.98h-160.42z" fill="#00c0ff"/><path d="m415.87 194.35c.15-1.58-.21-3.66-.32-6.71-.32-8.93-43.7-56.27-48.33-59.59-5.66-4.05-9.09-10.72-9.09-17.68v-18.08h-33.21v18.08c0 8.04-4.59 15.59-11.72 19.3-10.79 5.6-43.65 63.68-43.45 64.68h146.13z" fill="#fe9b88"/><path d="m324.92 92.29v18.08c0 5.34-1.94 10.23-5.13 14.01 3.55.9 7.43 1.39 11.68 1.39 11.74 0 20.68-3.7 27.49-9.53-.52-1.87-.82-3.83-.82-5.87v-18.08h-33.21z" fill="#fe785e"/><path d="m415.85 187.18c-.31-8.93-.46-17.91-2.66-26.63-3.98-15.81-14.14-26.25-30.27-28.28-5.41-.68-10.77-1.36-15.41-4.68-.04-.03-.08-.06-.12-.09-5.57 6.84-14.63 11.3-24.87 11.3s-19.9-4.75-25.41-11.98c-1.12.91-2.33 1.71-3.63 2.39-10.79 5.6-24.37 2.3-33.51 11.74-4.43 4.58-6.38 10.98-7.59 17.24-2.03 10.51-3.25 47.49-3.25 47.49l147.06 1.25c.15-1.58-.25-16.7-.36-19.74z" fill="#00e6aa"/><path d="m374.93 58.81c0-19.14-15.52-34.66-34.66-34.66s-34.66 15.52-34.66 34.66c0 10.05 0 55.8 34.66 55.8s34.66-45.75 34.66-55.8z" fill="#fe9b88"/><path d="m307.58 72.89h65.38c4.31 0 7.81 3.5 7.81 7.81v1.59c0 4.31-3.5 7.81-7.81 7.81h-65.38c-4.31 0-7.81-3.5-7.81-7.81v-1.59c0-4.31 3.5-7.81 7.81-7.81z" fill="#fe9b88"/><path d="m331.92 77.63c0 1.99-1.03 3.6-2.3 3.6s-2.3-1.61-2.3-3.6 1.03-3.6 2.3-3.6 2.3 1.61 2.3 3.6z" fill="#431e41"/><path d="m353.23 77.63c0 1.99-1.03 3.6-2.3 3.6s-2.3-1.61-2.3-3.6 1.03-3.6 2.3-3.6 2.3 1.61 2.3 3.6z" fill="#431e41"/><path d="m326.67 90.1c.92 5.9 6.65 10.45 13.61 10.45s12.68-4.55 13.61-10.45h-27.21z" fill="#fff"/><path d="m340.31 87.8c-1.06 0-2.16-.21-2.87-1.11-.55-.7-.67-1.68-.32-2.75.22-.7.48-1.39.74-2.06.26-.69.51-1.34.72-2.01.15-.49.68-.77 1.17-.61.49.15.77.68.61 1.17-.23.72-.5 1.43-.76 2.12-.26.67-.5 1.31-.71 1.96-.14.45-.14.84 0 1.03.42.53 1.67.42 2.67.32.4-.04.78-.07 1.12-.07.52 0 .94.42.94.93s-.42.93-.94.93c-.26 0-.59.03-.95.07-.44.04-.94.09-1.44.09z" fill="#fe785e"/><path d="m321.73 67.24c-.38 0-.74-.26-.84-.65-.12-.46.16-.93.62-1.05 4.12-1.04 8.37-1.52 12.62-1.4.48.01.85.41.84.89s-.41.87-.88.84c-4.1-.11-8.18.35-12.16 1.35-.07.02-.14.03-.21.03z" fill="#431e41"/><path d="m358.82 67.24c-.07 0-.14 0-.21-.03-3.97-1-8.06-1.46-12.16-1.35-.46.03-.87-.36-.88-.84s.36-.87.84-.89c4.25-.11 8.5.36 12.62 1.4.46.12.74.59.62 1.05-.1.39-.45.65-.84.65z" fill="#431e41"/><path d="m313.17 68.5c.04-4.98-4.55-12.38.6-16.1 4.92-3.55 10.44 1.09 15.57 1.29 6.65.25 11.01-6.25 16.14-9.4 7.75-4.76 14 1.45 17.17 8.66 2.77 6.3 2.7 14.47 8.67 18.93 5.18 3.87 12.05 2.59 17.52.07 1.85-.85 3.68-1.84 5.11-3.3 2.16-2.2 2.86-5.07 1.54-7.88-2.95-6.27-11.28-8.41-9.52-16.67 1.27-5.97 8.52-11.88 4.7-18.33-1.44-2.43-4.13-3.84-6.84-4.64s-5.54-1.13-8.22-2.03c-6.92-2.34-5.68-8.12-8.21-13.69-4.13-9.07-14.16-4.97-20.16-.31-3.12 2.42-5.98 5.21-9.34 7.3-6.93 4.32-14.84 2.4-22.36 1.14-3.97-.66-8.37-.76-12.25.38-2.98.88-5.8 2.82-6.96 5.7-2.13 5.28 1.93 11.27-1.24 16.34-1.7 2.73-4.98 3.96-7.46 6-5.89 4.86-5.23 13.52-1.98 19.78 3.45 6.66 16.6 16.97 24.55 12.19 2.24-1.34 2.95-3.26 2.96-5.42z" fill="#431e41"/><path d="m263.66 194.35c.17-1.84-.25-4.28-.37-7.83-.37-10.43-.54-20.91-3.1-31.1-4.65-18.47-16.51-30.65-35.35-33.03-6.32-.8-12.58-1.59-17.99-5.47-6.61-4.73-60.11.34-63.09 1.89-12.6 6.54-28.46 2.69-39.13 13.71-5.17 5.34-7.45 12.83-8.86 20.13-2.37 12.28-2.77 24.84-3.05 37.34-.04 1.76.07 3.19.31 4.36h170.65z" fill="#ffc540"/><path d="m142.85 119.25.84.88c8.41 8.84 20.33 13.91 32.7 13.91s24.71-5.24 33.15-14.39l.68-.73c-1.16-.56-2.29-1.21-3.38-1.99-1.94-1.39-3.65-3.05-5.11-4.9-7.14 5.72-18.78 9.68-25.33 9.68s-19.06-2.96-25.39-8.59c-2.03 2.3-4.47 4.26-7.26 5.7-.3.15-.6.3-.9.44z" fill="#00c0ff"/><path d="m176.39 127.87c11.38 0 21.6-4.79 28.62-12.4-5.51-4.79-6.55-11.84-6.55-19.19v-21.11h-43.27v21.11c0 7.61-1.27 14.83-7.04 19.61 7.01 7.37 17.06 11.99 28.24 11.99z" fill="#9e5547"/><path d="m154.99 75.11v21.11c0 6.24-.59 11.79-3.75 16.36 4.14 1.05 8.67 1.62 13.64 1.62 13.71 0 26.04-4.25 33.99-11.06-.49-4.84-.4-7.44-.4-9.82l-.21-18.23h-43.27z" fill="#7f392f" opacity=".3"/><path d="m210.23 48.19c0-19.52-15.52-35.35-34.66-35.35s-34.66 15.83-34.66 35.35c0 6.75-1.87 29.28 8.02 43.89 5.13 7.58 14.78 13.03 26.62 13.03 10.29 0 19.41-4.12 24.5-10.17 12.04-14.33 10.17-39.54 10.17-46.75z" fill="#9e5547"/><path d="m142.86 61.57h65.38c4.31 0 7.81 3.5 7.81 7.81v1.59c0 4.31-3.5 7.81-7.81 7.81h-65.38c-4.31 0-7.81-3.5-7.81-7.81v-1.59c0-4.31 3.5-7.81 7.81-7.81z" fill="#9e5547"/><path d="m167.2 66.31c0 1.99-1.03 3.6-2.3 3.6s-2.3-1.61-2.3-3.6 1.03-3.6 2.3-3.6 2.3 1.61 2.3 3.6z" fill="#431e41"/><path d="m188.5 66.31c0 1.99-1.03 3.6-2.3 3.6s-2.3-1.61-2.3-3.6 1.03-3.6 2.3-3.6 2.3 1.61 2.3 3.6z" fill="#431e41"/><path d="m175.53 76.04c-2.02 0-2.89-.85-3.26-1.59-1.02-2.03.72-4.97 1.78-6.24.33-.4.92-.45 1.32-.12s.45.92.12 1.32c-1.08 1.29-1.97 3.33-1.54 4.2.28.55 1.32.58 1.91.55.5-.03.96.37.98.88.03.52-.37.96-.88.98-.15 0-.29.01-.42.01z" fill="#7f392f"/><path d="m156.76 53.76c-.39 0-.74-.26-.84-.65-.12-.46.16-.93.63-1.05 4.18-1.06 9.82-1.42 12.61-1.4.48 0 .86.39.86.87 0 .47-.39.86-.86.86-.04 0-.11 0-.17 0-2.74 0-8.06.35-12.01 1.35-.07.02-.14.03-.21.03z" fill="#431e41"/><path d="m194.34 53.77c-.07 0-.14 0-.21-.03-3.97-1-8.06-1.46-12.16-1.35-.47.03-.87-.36-.88-.84s.36-.87.84-.89c4.25-.11 8.5.36 12.62 1.4.46.12.74.59.62 1.05-.1.39-.45.65-.84.65z" fill="#431e41"/><path d="m175.67 83.15c-3.65 0-7.33-.91-10.67-2.72-.45-.25-.62-.81-.37-1.27.25-.45.81-.62 1.27-.37 6.11 3.32 13.5 3.33 19.29.01.45-.26 1.02-.1 1.28.35s.1 1.02-.35 1.28c-3.18 1.82-6.79 2.73-10.44 2.73z" fill="#7f392f"/><path d="m211.41 26.08c-2.4-13.57-21.78-25.6-38.16-23.72-15.73 1.8-31.93 13.59-33.42 35.59 25.3-.75 47.03-4.83 71.58-11.87z" fill="#00e6aa"/><path d="m142.52 37.5c-3.62 6.05-5.1 15.63-1.9 24.07 7.04-2.6 10.12-9.27 10.72-19.74 18.3 6.87 38.14 8.99 56.62 3.92 1.03-.28 2.12-.65 3.21-1.01 0 0 8.69-7.62-16.01-11.71-18.44-3.05-35.96-3.94-52.65 4.47z" fill="#431e41"/><path d="m208.33 37.5c-1.88-.95-3.77-1.78-5.66-2.52-1.17 2.33-2.35 4.65-3.52 6.98.12-.04.24-.09.36-.13.61 10.48 3.68 17.14 10.72 19.74 3.2-8.43 1.72-18.02-1.89-24.07z" fill="#431e41"/><path d="m213.12 39.79c-24.85-3.17-50.42-1.24-74.43 5.62-.23-3.42 0-7.46.72-11.4 23.05-7.5 48.57-11.89 72.76-9.05.97 4.71 1.3 9.52.98 14.31l-.03.53z" fill="#00bf8e"/><path d="m592.28 186.52c-.37-10.43-.54-20.91-3.1-31.1-4.65-18.47-16.51-30.65-35.35-33.03-6.32-.8-12.58-1.59-17.99-5.47-.19-.14-1.57-1.33-1.83-1.46-7.95-3.81-46.6-1.42-56.86.41 0 0-4.13 2.78-4.41 2.93-12.6 6.54-28.46 2.69-39.13 13.71-5.17 5.34-7.45 12.83-8.86 20.13-2.37 12.28-2.77 24.84-3.05 37.34-.04 1.76 170.71.08 170.58-3.48z" fill="#fe9b88"/><path d="m592.28 186.51c-.37-10.43-.54-20.91-3.1-31.09-4.65-18.47-16.51-30.65-35.35-33.03-5.61-.71-11.16-1.42-16.12-4.28-3.87 13.58-16.83 23.57-32.22 23.57s-28.15-9.84-32.13-23.26c-.32.21-.55.36-.61.39-12.6 6.54-28.46 2.69-39.13 13.71-5.17 5.34-7.45 12.83-8.86 20.13-2.37 12.28-2.77 24.84-3.05 37.34-.04 1.76.07 3.19.31 4.36h170.65c.17-1.84-.25-4.28-.37-7.83z" fill="#ff426f"/><path d="m505.38 127.87c11.38 0 21.6-4.79 28.62-12.4-5.51-4.79-6.55-11.84-6.55-19.19v-21.11h-43.27v21.11c0 7.61-1.27 14.83-7.04 19.61 7.01 7.37 17.06 11.99 28.23 11.99z" fill="#fe9b88"/><path d="m483.98 75.11v21.11c0 6.24-.59 11.79-3.75 16.36 4.14 1.05 8.67 1.62 13.64 1.62 13.71 0 26.04-4.25 33.99-11.06-.49-4.84-.4-7.44-.4-9.82l-.21-18.23h-43.27z" fill="#fe785e"/><path d="m537.86 41.92c0-20.31-11.34-34.54-30.48-34.54s-30.23 14.72-30.23 35.03c0 7.02-6.3 32.2 3.59 47.4 12.73 19.56 43.48 18.38 54.64-2.37 2.73-5.09 2.14-9.51 3.14-15.22 1.11-6.36-.66-27.71-.66-30.29z" fill="#fe9b88"/><path d="m474.27 56.33h65.38c4.31 0 7.81 3.5 7.81 7.81v1.59c0 4.31-3.5 7.81-7.81 7.81h-65.38c-4.31 0-7.81-3.5-7.81-7.81v-1.59c0-4.31 3.5-7.81 7.81-7.81z" fill="#fe9b88"/><path d="m498.62 60.85c0 1.99-1.03 3.6-2.3 3.6s-2.3-1.61-2.3-3.6 1.03-3.6 2.3-3.6 2.3 1.61 2.3 3.6z" fill="#431e41"/><path d="m519.92 60.85c0 1.99-1.03 3.6-2.3 3.6s-2.3-1.61-2.3-3.6 1.03-3.6 2.3-3.6 2.3 1.61 2.3 3.6z" fill="#431e41"/><path d="m488.18 49.65c-.42 0-.8-.28-.9-.71-.13-.5.18-1.01.68-1.13 4.19-1.06 9.83-1.42 12.62-1.41.52 0 .93.42.93.94 0 .51-.42.93-.94.93-.04 0-.11 0-.17 0-2.74 0-8.05.35-11.99 1.35-.08.02-.15.03-.23.03z" fill="#431e41"/><path d="m523.81 49.65c-.07 0-.15 0-.23-.03-4.02-1.02-9.46-1.35-12.16-1.35-.51 0-.93-.42-.93-.93 0-.52.41-.94.93-.94 2.78-.02 8.44.35 12.62 1.41.5.13.8.63.68 1.13-.11.42-.49.71-.91.71z" fill="#431e41"/><path d="m508.4 69.23c-2.65 0-4.29-.71-4.89-2.11-1.15-2.67 2.37-6.49 2.78-6.91.36-.37.95-.39 1.32-.04.37.36.39.95.04 1.32-1.29 1.36-2.9 3.78-2.42 4.89.27.63 1.4.98 3.18.98.52 0 .93.42.93.93s-.42.93-.93.93z" fill="#fe785e"/><path d="m537 56.76c1.67.16 3.48-.34 4.07-2.12 2.45-7.3-.46-25.24-2.19-30.96-.16-.53-4.2-.12-4.27-.04-1.99 2.12-7.97-.58-7.75 2.42.49 6.66 1.33 13.25 2.79 19.76.64 2.85 1.18 6.01 2.88 8.46.93 1.33 2.72 2.31 4.47 2.48z" fill="#431e41"/><path d="m476.42 57.25c2.49 0 4.14-2.04 4.52-4.5 1.21-7.84.97-17.35 1.21-20.65.22-3 .02-6.34-1.97-8.47-2.8-.75-8.33-.24-8.33-.24-1.02 3.09-2.9 18.86.04 29.22.69 2.44 1.99 4.63 4.52 4.63z" fill="#431e41"/><path d="m492.93 72.33c.94 6 6.77 10.62 13.84 10.62s12.9-4.62 13.84-10.62z" fill="#fff"/><path d="m464.55 29.82c-.7-9.31 9.71-19.07 17.68-22.45 33.09-14.02 52.77 5.41 56.66 16.05-6.16 12.02-40.65 16.67-54.73 16.67-7.96 0-19.03-2.8-19.6-10.28z" fill="#431e41"/><path d="m341.88 334.15c-.32-8.93-.46-17.91-2.66-26.63-3.98-15.81-14.14-26.25-30.27-28.28-7.99-1.01-19.06-4.48-19.01-12.2.02-2.42-.14-31.52-.11-31.52h-41.62c0 4.65 1.99 30.35-1.63 34.82-10.42 12.84-29.5 6.15-40.56 17.58-4.43 4.58-6.38 10.98-7.59 17.24-2.03 10.51-2.37 21.27-2.61 31.97-.04 1.5.06 72.32.26 73.32h146.12c.15-1.58-.21-73.25-.32-76.3z" fill="#fe9b88"/><path d="m257.53 270.16c13.83-1.09 24.35-5.89 32.36-12.92-.04-8.43-.07-19.45-.06-21.41l-.03-.31h-41.6c0 4.58 1.93 29.62-1.49 34.6 3.41.3 7 .33 10.81.03z" fill="#fe785e"/><path d="m220.72 318.19c0 8.28-.97 91.02-2.66 97.67h100.49c-1.69-6.64-2.66-89.39-2.66-97.67 0-13.82 2.7-26.17 6.94-34.37-3.99-2.35-8.61-3.92-13.88-4.58-2.55-.32-5.4-.9-8.11-1.78-4.87 9.85-17.6 16.88-32.53 16.88s-27.65-7.02-32.53-16.87c-7.22 2.42-15.46 2.55-22.45 5.52 4.5 8.18 7.39 20.89 7.39 35.19z" fill="#00e6aa"/><path d="m303.68 201.72c0-6.45-.96-12.38-2.11-16.35-1.42-4.93-19.86-18.31-32.55-18.31-19.14 0-34.66 15.52-34.66 34.66 0 10.05 0 55.8 34.66 55.8s34.66-45.75 34.66-55.8z" fill="#fe9b88"/><path d="m236.33 215.8h65.38c4.31 0 7.81 3.5 7.81 7.81v1.59c0 4.31-3.5 7.81-7.81 7.81h-65.38c-4.31 0-7.81-3.5-7.81-7.81v-1.59c0-4.31 3.5-7.81 7.81-7.81z" fill="#fe9b88"/><path d="m260.67 220.54c0 1.99-1.03 3.6-2.3 3.6s-2.3-1.61-2.3-3.6 1.03-3.6 2.3-3.6 2.3 1.61 2.3 3.6z" fill="#431e41"/><path d="m281.97 220.54c0 1.99-1.03 3.6-2.3 3.6s-2.3-1.61-2.3-3.6 1.03-3.6 2.3-3.6 2.3 1.61 2.3 3.6z" fill="#431e41"/><path d="m255.91 231.75c.89 5.68 6.41 10.07 13.11 10.07s12.22-4.38 13.11-10.07z" fill="#fff"/><path d="m269.37 230.48c-1.09 0-2.99-.13-3.85-1.68-.91-1.63-.23-4.17 2.07-7.76.28-.44.86-.56 1.29-.28.44.28.56.86.28 1.29-2.55 3.97-2.26 5.41-2.02 5.85.42.75 1.85.73 2.54.72h.23c.52 0 .94.42.94.93s-.42.93-.94.93h-.2c-.1 0-.22 0-.35 0z" fill="#fe785e"/><path d="m249.87 209.37c-.39 0-.74-.26-.84-.65-.12-.46.16-.93.63-1.05 4.12-1.04 8.37-1.52 12.62-1.4.48.01.85.41.84.89s-.39.86-.89.84c-4.1-.11-8.18.35-12.15 1.35-.07.02-.14.03-.21.03z" fill="#431e41"/><path d="m286.88 209.37c-.07 0-.14 0-.21-.03-3.97-1-8.06-1.46-12.15-1.35-.47.02-.87-.36-.89-.84-.01-.48.37-.87.84-.89 4.25-.11 8.5.36 12.62 1.4.46.12.74.59.63 1.05-.1.39-.45.65-.84.65z" fill="#431e41"/><path d="m301.57 185.37s-.74-1.03-2.3.2c-1.35 1.06-2 .77-2.91-.86.55.98-.93 5.87-.98 7.24-.08 1.89.06 3.75.17 5.63.67 11.37 5.41 16.68 7.47 18.32 1.24-4.57 1.26-21.7-1.44-30.54z" fill="#fe785e"/><path d="m240.54 210.07c1.54-6.09 2.96-19.34 1.08-25.36-.37-1.19-4.11 2.68-4.47 3.32-.5.86-.81 1.82-1.08 2.78-1.22 4.23-1.82 8.63-1.79 13.03 0 1.22-.06 11.54.72 11.8 3.11 1.05 4.95-3.24 5.54-5.58z" fill="#fe785e" opacity=".5"/><path d="m248.72 159.3c-6.8 2.14-12.29 7.15-18.45 10.74s-14.13 7.32-20.8 4.81c10.76 14.1 30.13 21.49 47.69 18.96-1.71 2.17-4.86 4.23-7.56 4.81 7.04 4.84 17.07 5.08 24.67 1.18-1.01 3.37-2.22 7.46-2.22 7.46 12.62-.62 26.33-12.28 29.52-21.88-2.55-9.93-19.44-36.59-52.84-26.07z" fill="#ff426f"/><path d="m507.39 340.86c.17-1.84-.25-4.28-.37-7.83-.37-10.43-.54-20.91-3.1-31.1-4.65-18.47-16.51-30.65-35.35-33.03-6.32-.8-12.58-1.59-17.99-5.47-6.61-4.73-60.11.34-63.09 1.89-12.6 6.54-28.46 2.69-39.13 13.71-5.17 5.34-7.45 12.83-8.86 20.13-2.37 12.28-2.77 24.84-3.05 37.34-.04 1.76.07 3.19.31 4.36h170.65z" fill="#004b73"/><path d="m418.34 275.44h4.37v104.79h-4.37z" fill="#003e5e"/><path d="m464.96 258.11c-3.11-2.3-6.96-3.65-10.79-4.82-6.45-1.97-13.04-3.54-19.74-4.71-2.86-.5-5.85-.92-8.67-.25-2.05.49-3.78 1.49-5.23 2.81-1.45-1.31-3.18-2.32-5.23-2.81-2.82-.67-5.81-.25-8.67.25-6.69 1.16-13.29 2.74-19.73 4.71-3.83 1.17-7.68 2.52-10.79 4.82s-5.41 5.72-5.22 9.3c.3 5.59 6.17 9.54 11.72 12.2 4.87 2.33 9.99 4.06 15.16 5.56 2.58.75 5.17 1.45 7.76 2.16 2.32.64 5.1.95 7.03 2.46 2.06 1.61 3.52 3.76 5.06 5.83.11.15.68.84 1.31 1.63.99 1.25 2.9 1.18 3.79-.15.3-.45.61-.9.91-1.35 1.45-2.11 2.95-4.69 5.1-6.14 2.01-1.36 4.5-1.57 6.78-2.21 2.77-.78 5.54-1.59 8.31-2.39 3.84-1.11 7.63-2.4 11.32-3.93 6.23-2.59 14.68-6.94 15.04-13.68.19-3.59-2.11-7-5.22-9.3z" fill="#003e5e"/><path d="m445.71 259.1c-1.91-2.76-3.54-16.87-3.54-19.25l-.21-17.94v-.29h-43.27v.29l-.21 17.94c0 2.38-1.64 16.49-3.54 19.25 12.14 8.02 25.6 14.56 25.6 14.56s13.25-7.99 25.17-14.56z" fill="#9e5547"/><path d="m442.53 244.21c-.23-2.05-.37-3.68-.37-4.36l-.21-17.94v-.29h-43.27v.29l-.21 17.94c0 1.98-1.14 12.09-2.62 17.01 6.25 3.14 13.35 4.56 20.86 3.56 12.22-1.63 20.37-7.77 25.8-16.21z" fill="#7f392f"/><path d="m454.47 185.7c-2.83-44.07-65.95-40.63-69.29-2.58-.55 6.3-.13 19.71.38 25.99.5 6.28 1.64 12.46 4.16 18.43 5.76 13.62 19.05 23.63 34.35 21.59 19.09-2.55 26.27-18.29 28.92-35.1 1.29-8.17 1.95-21.06 1.48-28.34z" fill="#9e5547"/><path d="m387.14 203.53h65.38c4.31 0 7.81 3.5 7.81 7.81v1.59c0 4.31-3.5 7.81-7.81 7.81h-65.38c-4.31 0-7.81-3.5-7.81-7.81v-1.59c0-4.31 3.5-7.81 7.81-7.81z" fill="#9e5547"/><path d="m411.48 208.27c0 1.99-1.03 3.6-2.3 3.6s-2.3-1.61-2.3-3.6 1.03-3.6 2.3-3.6 2.3 1.61 2.3 3.6z" fill="#431e41"/><path d="m432.79 208.27c0 1.99-1.03 3.6-2.3 3.6s-2.3-1.61-2.3-3.6 1.03-3.6 2.3-3.6 2.3 1.61 2.3 3.6z" fill="#431e41"/><path d="m421.43 218.29c-2.5 0-4.12-.73-4.83-2.18-1.05-2.13.45-4.82 1.38-5.94.33-.4.92-.45 1.32-.12s.45.92.12 1.32c-.93 1.11-1.63 2.93-1.14 3.92.51 1.03 2.25 1.18 3.62 1.12.51-.02.95.38.97.9s-.38.95-.9.97c-.18 0-.36.01-.53.01z" fill="#7f392f"/><path d="m401.05 192.6c-.39 0-.74-.26-.84-.65-.12-.46.16-.93.62-1.05 4.18-1.06 9.84-1.41 12.61-1.4.48 0 .86.39.86.87s-.39.86-.86.86c-.06 0-.11 0-.17 0-2.74 0-8.06.35-12.01 1.35-.07.02-.14.03-.21.03z" fill="#431e41"/><path d="m438.62 192.6c-.07 0-.14 0-.21-.03-3.97-1-8.06-1.46-12.15-1.35-.48.03-.87-.36-.89-.84-.01-.48.36-.87.84-.89 4.25-.11 8.5.36 12.62 1.4.46.12.74.59.63 1.05-.1.39-.45.65-.84.65z" fill="#431e41"/><path d="m419.96 225.11c-3.65 0-7.33-.91-10.67-2.72-.45-.25-.62-.81-.37-1.27.25-.45.81-.62 1.27-.37 6.11 3.32 13.5 3.33 19.28 0 .45-.26 1.02-.1 1.28.35s.1 1.02-.35 1.28c-3.18 1.82-6.79 2.73-10.44 2.73z" fill="#7f392f"/><path d="m392.05 175.44c7.23 1.81 17.42-4 24.15.91 3.08 2.25 4.9 7.12 8.72 8.64 5.65 2.24 11.2-3.18 16.74.48 2.7 1.79 2.96 5.28 4.92 7.65 2.09 2.52 5.79 4.41 9.06 4.61 12.19.75 6.83-13.15 3.92-19.07-2.39-4.86 1.96-9.91 1.57-14.92-.61-7.92-10.02-6.63-15.62-8.1-8.58-2.25-4.48-10.33-10.1-14.57-8.28-6.25-16.68 7.39-24.5 8.27-6.07.68-12.6-3.24-18.54-1.19-8.21 2.83-9.74 13.52-7.02 20.69 1.54 4.05 3.89 5.89 6.69 6.59z" fill="#431e41"/><path d="m137.81 227.9h-93.16c0 20.96 16.99 37.95 37.95 37.95h17.26c20.96 0 37.96-16.99 37.96-37.95z" fill="#2b0729"/><path d="m165.87 340.86c.15-1.58-.21-3.66-.32-6.71-.32-8.93-.46-17.91-2.66-26.63-3.98-15.81-14.14-26.25-30.27-28.28-5.41-.68-10.77-1.36-15.41-4.68-5.66-4.05-9.09-10.72-9.09-17.68v-18.08h-33.21v18.08c0 8.04-4.59 15.59-11.72 19.3-10.79 5.6-24.37 2.3-33.51 11.74-4.43 4.58-6.38 10.98-7.59 17.24-2.03 10.51-2.37 21.27-2.61 31.97-.03 1.5.06 2.73.26 3.73z" fill="#fe9b88"/><path d="m74.92 238.8v18.08c0 5.34-1.94 10.23-5.13 14.01 3.55.9 7.43 1.39 11.68 1.39 11.74 0 20.68-3.7 27.49-9.53-.52-1.87-.82-3.83-.82-5.87v-18.08h-33.21z" fill="#fe785e"/><path d="m125.79 204.49c0-19.14-15.52-34.66-34.66-34.66s-34.66 15.52-34.66 34.66c0 10.05 4.52 55.8 34.66 55.8s34.66-45.75 34.66-55.8z" fill="#fe9b88"/><rect fill="#fe9b88" height="17.21" rx="7.81" width="81" x="50.64" y="218.57"/><path d="m82.79 222.05c0 1.99-1.03 3.6-2.3 3.6s-2.3-1.61-2.3-3.6 1.03-3.6 2.3-3.6 2.3 1.61 2.3 3.6z" fill="#431e41"/><path d="m104.09 222.05c0 1.99-1.03 3.6-2.3 3.6s-2.3-1.61-2.3-3.6 1.03-3.6 2.3-3.6 2.3 1.61 2.3 3.6z" fill="#431e41"/><path d="m77.3 232.71c.94 6 6.77 10.62 13.84 10.62s12.9-4.62 13.84-10.62z" fill="#fff"/><path d="m91.44 231.03c-1.36 0-3.46-.64-3.52-2.39-.06-1.76 1.43-4.28 1.61-4.56.27-.44.84-.58 1.28-.31s.58.84.31 1.28c-.53.88-1.37 2.61-1.33 3.52 0 .05.05.12.16.19.43.32 1.25.42 1.63.4.16-.14.38-.23.62-.23.52 0 .94.42.94.93 0 .27-.12 1.14-1.61 1.17-.03 0-.05 0-.08 0zm-.19-1.17s0 0 0 0z" fill="#fe785e"/><path d="m72.59 211.69c-.38 0-.73-.25-.83-.64-.12-.46.15-.93.61-1.06 2.82-.76 7.62-1.53 12.63-1.41.48.01.86.41.84.88-.01.48-.41.87-.88.84-4.84-.12-9.44.62-12.14 1.35-.08.02-.15.03-.22.03z" fill="#431e41"/><path d="m109.68 211.69c-.15 0-.3-.04-.43-.12-1.83-1.07-8.35-1.76-11.83-1.27-.47.07-.91-.26-.98-.73s.26-.91.73-.98c3.65-.52 10.58.11 12.95 1.49.41.24.55.77.31 1.18-.16.28-.45.43-.75.43z" fill="#431e41"/><path d="m125.79 200.17c.04-1.59-6.41-39.82-36.58-36.41-15.4 1.74-43.48 22.98-29.37 31.41 33.43 19.96 62.44 8.22 65.95 5z" fill="#431e41"/><path d="m104.36 162.52c-4.43-1.41-9.08-2.17-13.84-2.17-14.5 0-28.64 4.89-36.5 17.07-17.3 26.8-9.37 59.78-6.1 65.91 0 0 20.64-9.48 20.67-44.88l-4.44-11.34c2.05-9.94 8.8-22.64 26.99-22.64 5.74 0 10.27 1.12 13.84 3.16l-.62-5.1z" fill="#431e41"/><path d="m76.68 162.52c4.43-1.41 9.08-2.17 13.84-2.17 14.5 0 29.87 4.89 37.73 17.07 17.3 26.8 9.37 59.78 6.1 65.91 0 0-20.64-9.48-20.67-44.88l4.44-11.34c-2.05-9.94-8.8-22.64-26.99-22.64-5.75 0-10.27 1.12-13.84 3.16l-.62-5.1z" fill="#431e41"/><path d="m165.55 334.15c-.32-8.93-.46-17.91-2.66-26.63-3.98-15.81-14.14-26.25-30.27-28.28-1.94-.24-3.87-.49-5.76-.85-9.25 9.12-21.17 14.62-34.18 14.62s-25.13-5.59-34.43-14.87c-9.77 2.94-20.79 1.73-28.58 9.78-4.43 4.58-6.38 10.98-7.59 17.24-2.03 10.51-2.37 21.27-2.61 31.97-.03 1.5.06 2.73.26 3.73l146.13 20.02c.15-1.58-.21-23.68-.32-26.73z" fill="#00c0ff"/><path d="m92.69 298.34c17.47 0 32.88-7.44 42.01-18.77-.68-.12-1.37-.23-2.08-.32-1.94-.24-3.87-.49-5.76-.85-9.25 9.12-21.17 14.62-34.18 14.62s-25.13-5.59-34.43-14.87c-2.42.73-4.91 1.2-7.42 1.62 9.15 11.21 24.48 18.57 41.84 18.57z" fill="#ff426f"/><path d="m637.81 227.9h-93.17c0 20.96 16.99 37.95 37.96 37.95h17.26c20.96 0 37.96-16.99 37.96-37.95z" fill="#2b0729"/><path d="m665.87 340.86c.15-1.58-.21-3.66-.32-6.71-.32-8.93-.46-17.91-2.66-26.63-3.98-15.81-14.14-26.25-30.27-28.28-5.41-.68-10.77-1.36-15.41-4.68-5.66-4.05-9.09-10.72-9.09-17.68v-18.08h-33.21v18.08c0 8.04-4.59 15.59-11.72 19.3-10.79 5.6-24.37 2.3-33.51 11.74-4.43 4.58-6.38 10.98-7.59 17.24-2.03 10.51-2.37 21.27-2.61 31.97-.04 1.5.06 2.73.26 3.73z" fill="#fe9b88"/><path d="m574.92 238.8v18.08c0 5.34-1.94 10.23-5.13 14.01 3.55.9 7.43 1.39 11.68 1.39 11.74 0 20.68-3.7 27.49-9.53-.52-1.87-.82-3.83-.82-5.87v-18.08h-33.21z" fill="#fe785e"/><path d="m625.79 204.49c0-19.14-15.52-34.66-34.66-34.66s-34.66 15.52-34.66 34.66c0 10.05 4.52 55.8 34.66 55.8s34.66-45.75 34.66-55.8z" fill="#fe9b88"/><path d="m558.45 218.57h65.38c4.31 0 7.81 3.5 7.81 7.81v1.59c0 4.31-3.5 7.81-7.81 7.81h-65.38c-4.31 0-7.81-3.5-7.81-7.81v-1.59c0-4.31 3.5-7.81 7.81-7.81z" fill="#fe9b88"/><path d="m582.79 222.05c0 1.99-1.03 3.6-2.3 3.6s-2.3-1.61-2.3-3.6 1.03-3.6 2.3-3.6 2.3 1.61 2.3 3.6z" fill="#431e41"/><path d="m604.09 222.05c0 1.99-1.03 3.6-2.3 3.6s-2.3-1.61-2.3-3.6 1.03-3.6 2.3-3.6 2.3 1.61 2.3 3.6z" fill="#431e41"/><path d="m577.3 232.71c.94 6 6.77 10.62 13.84 10.62s12.9-4.62 13.84-10.62z" fill="#fff"/><path d="m591.44 231.03c-1.36 0-3.46-.64-3.52-2.39-.06-1.76 1.43-4.28 1.61-4.56.27-.44.84-.58 1.28-.31s.58.84.31 1.28c-.53.88-1.37 2.61-1.33 3.52 0 .05.05.12.16.19.43.32 1.25.42 1.63.4.16-.14.38-.23.62-.23.52 0 .94.42.94.93 0 .27-.12 1.14-1.61 1.17-.03 0-.05 0-.08 0zm-.19-1.17s0 0 0 0z" fill="#fe785e"/><path d="m572.59 211.69c-.38 0-.73-.25-.83-.64-.12-.46.15-.93.61-1.06 2.82-.76 7.62-1.53 12.63-1.41.48.01.86.41.84.88-.01.48-.39.87-.88.84-4.83-.12-9.44.62-12.14 1.35-.07.02-.15.03-.22.03z" fill="#431e41"/><path d="m609.68 211.69c-.15 0-.3-.04-.44-.12-1.83-1.07-8.35-1.76-11.83-1.27-.47.07-.91-.26-.98-.73s.26-.91.73-.98c3.65-.52 10.58.11 12.95 1.49.41.24.55.77.31 1.18-.16.28-.45.43-.75.43z" fill="#431e41"/><path d="m625.79 200.17c.04-1.59-6.41-39.82-36.58-36.41-15.4 1.74-43.48 22.98-29.37 31.41 33.43 19.96 62.44 8.22 65.95 5z" fill="#431e41"/><path d="m604.36 162.52c-4.43-1.41-9.09-2.17-13.84-2.17-14.5 0-28.64 4.89-36.5 17.07-17.3 26.8-9.37 59.78-6.1 65.91 0 0 20.64-9.48 20.67-44.88l-4.44-11.34c2.05-9.94 8.8-22.64 26.99-22.64 5.74 0 10.27 1.12 13.84 3.16l-.62-5.1z" fill="#431e41"/><path d="m576.68 162.52c4.43-1.41 9.08-2.17 13.84-2.17 14.5 0 29.87 4.89 37.73 17.07 17.3 26.8 9.37 59.78 6.1 65.91 0 0-20.64-9.48-20.67-44.88l4.44-11.34c-2.05-9.94-8.8-22.64-26.99-22.64-5.75 0-10.27 1.12-13.84 3.16l-.62-5.1z" fill="#431e41"/><path d="m665.55 334.15c-.32-8.93-.46-17.91-2.66-26.63-3.98-15.81-14.14-26.25-30.27-28.28-1.94-.24-3.87-.49-5.76-.85-9.25 9.12-21.17 14.62-34.18 14.62s-25.13-5.59-34.43-14.87c-9.77 2.94-20.79 1.73-28.58 9.78-4.43 4.58-6.38 10.98-7.59 17.24-2.03 10.51-2.37 21.27-2.61 31.97-.04 1.5.06 26.81.26 27.81l146.13-24.08c.15-1.58-.21-3.66-.32-6.71z" fill="#00c0ff"/><path d="m592.69 298.34c17.47 0 32.88-7.44 42.01-18.77-.68-.12-1.37-.23-2.08-.32-1.94-.24-3.87-.49-5.76-.85-9.25 9.12-21.17 14.62-34.18 14.62s-25.13-5.59-34.43-14.87c-2.42.73-4.91 1.2-7.42 1.62 9.15 11.21 24.48 18.57 41.84 18.57z" fill="#ff426f"/><path d="m176.63 400.43c22.13 0 41.01-12.31 48.51-29.65-.2-.03-.39-.07-.59-.1-6.32-.8-12.58-1.59-17.99-5.47-6.61-4.73-10.62-12.52-10.62-20.65v-21.11h-38.78v21.11c0 9.39-5.36 18.21-13.69 22.54-4.71 2.45-9.89 3.44-15.07 4.3 7.68 17.01 26.38 29.03 48.24 29.03z" fill="#9e5547"/><path d="m259.9 403.71c-4.65-18.47-16.51-30.65-35.35-33.02.2.03.39.07.59.1-7.5 17.34-26.39 29.65-48.51 29.65s-40.55-12.02-48.24-29.03c-8.67 1.44-17.38 2.51-24.06 9.41-5.17 5.34-8.72 60.65-8.48 61.82h148.77c.17-1.84 17.84-28.75 15.27-38.93z" fill="#ffc540"/><path d="m157.16 323.45v21.11c0 6.24-2.26 11.94-5.99 16.36 4.15 1.05 8.67 1.62 13.64 1.62 13.71 0 24.15-4.33 32.1-11.13-.61-2.18-.96-4.48-.96-6.86v-21.11h-38.78z" fill="#7f392f"/><path d="m118.71 412.23c0-15.5-3.32-28.99-8.21-36.02-2.18 1.16-4.25 2.64-6.15 4.61-5.17 5.34-7.45 12.83-8.86 20.13-2.37 12.28-2.77 24.84-3.05 37.34-.04 1.76.07 3.19.31 4.36h20.78c3.19-7.53 5.19-18.36 5.19-30.4z" fill="#9e5547"/><path d="m263.01 434.81c-.37-10.43-.54-20.91-3.1-31.1-2.75-10.94-8.19-20.2-15.82-25.44-4.19 7.42-6.95 19.86-6.95 33.97 0 12.04 2 22.87 5.19 30.4h20.78c.13-.65.22-1.4.27-2.23-.09-1.5-.29-3.32-.37-5.6z" fill="#9e5547"/><path d="m210.13 293.42c0-19.14-15.52-34.66-34.66-34.66s-34.66 15.52-34.66 34.66c0 10.05.27 58.06 34.92 58.06s34.39-48.01 34.39-58.06z" fill="#9e5547"/><path d="m142.78 307.49h65.38c4.31 0 7.81 3.5 7.81 7.81v1.59c0 4.31-3.5 7.81-7.81 7.81h-65.38c-4.31 0-7.81-3.5-7.81-7.81v-1.59c0-4.31 3.5-7.81 7.81-7.81z" fill="#9e5547"/><path d="m167.39 312.23c0 1.99-1.03 3.6-2.3 3.6s-2.3-1.61-2.3-3.6 1.03-3.6 2.3-3.6 2.3 1.61 2.3 3.6z" fill="#431e41"/><path d="m188.69 312.23c0 1.99-1.03 3.6-2.3 3.6s-2.3-1.61-2.3-3.6 1.03-3.6 2.3-3.6 2.3 1.61 2.3 3.6z" fill="#431e41"/><path d="m175.99 322.46c-1.65 0-2.8-.53-3.44-1.6-1.31-2.2.42-5.54 1.41-6.72.33-.4.92-.45 1.32-.12s.45.92.12 1.32c-.92 1.1-1.89 3.49-1.24 4.57.56.94 2.48.71 3.57.49.51-.1 1 .23 1.1.73.1.51-.23 1-.73 1.1-.78.16-1.48.23-2.11.23z" fill="#7f392f"/><path d="m156.69 301.85c-.38 0-.74-.26-.84-.65-.12-.46.16-.93.62-1.05 4.18-1.06 9.83-1.42 12.61-1.4.48 0 .86.39.86.87s-.39.86-.86.86c-.05 0-.11 0-.17 0-2.74 0-8.06.35-12.01 1.35-.07.02-.14.03-.21.03z" fill="#431e41"/><path d="m194.26 301.85c-.07 0-.14 0-.21-.03-3.97-1-8.06-1.46-12.16-1.35-.47.03-.87-.36-.89-.84-.01-.48.36-.87.84-.89 4.25-.11 8.5.36 12.62 1.4.46.12.74.59.63 1.05-.1.39-.45.65-.84.65z" fill="#431e41"/><path d="m163.38 323.67c1.12 6.48 6.22 10.44 12.36 10.44s11.23-3.96 12.35-10.44z" fill="#fff"/><path d="m158.63 265.62c-.43-.61-.95-1.14-1.53-1.59-9.78 6.13-16.29 16.99-16.29 29.39 0 1.73 0 4.59.2 8.14 8.83.09 16.08-17.48 18.1-23.95 1.23-3.96 1.91-8.59-.48-11.99z" fill="#7f392f"/><path d="m141.06 261.81c-.07 6.14 4.26 12.47 10.35 13.32 4.75.66 10.23-1.76 14.06 1.13 2.51 1.9 3.33 5.54 6.03 7.16 4.52 2.71 9.96-2.1 15.24-2.06 8.95.06 14.41 13.74 23.12 11.7 5.34-1.25 7.47-8.21 5.8-13.44s-5.82-9.19-9.42-13.33c-3.59-4.14-6.9-9.25-6.25-14.69.66-5.44 5.16-9.96 5.28-15.44.16-7.72-8.95-12.93-16.58-11.74-9.23 1.44-16.85 11.3-25.03 16.89-8.96 6.12-22.46 7.88-22.6 20.51z" fill="#431e41"/><path d="m592.65 442.64c.17-1.84-.25-4.28-.37-7.83-.37-10.43-.54-20.91-3.1-31.1-4.65-18.47-16.51-30.65-35.35-33.03-6.32-.8-12.58-1.59-17.99-5.47-5.98-4.29-48.09-2.94-58.68-1.04 0 0-4.13 2.78-4.41 2.93-12.6 6.54-28.46 2.69-39.13 13.71-5.17 5.34-7.45 12.83-8.86 20.13-2.37 12.28-2.77 24.84-3.05 37.34-.04 1.76.07 3.19.31 4.36h170.65z" fill="#ffc540"/><path d="m505.38 376.16c11.38 0 21.6-4.79 28.62-12.4-5.51-4.79-6.55-11.84-6.55-19.19v-21.11h-43.27v21.11c0 7.61-1.27 14.83-7.04 19.61 7.01 7.37 17.06 11.99 28.23 11.99z" fill="#fe9b88"/><path d="m483.98 323.4v21.11c0 6.24-.59 11.79-3.75 16.36 4.14 1.05 8.67 1.62 13.64 1.62 13.71 0 26.04-4.25 33.99-11.06-.49-4.84-.4-7.44-.4-9.82l-.21-18.23h-43.27z" fill="#fe785e"/><path d="m471.84 367.54c-12.45 5.92-27.81 2.51-38.23 13.28-5.17 5.34-7.45 12.83-8.86 20.13-2.37 12.28-2.77 24.84-3.05 37.34-.04 1.76.07 95.86.31 97.02h52.3l-2.46-167.76z" fill="#ff426f"/><path d="m592.28 434.81c-.37-10.43-.54-20.91-3.1-31.09-4.65-18.47-16.51-30.65-35.35-33.03-5.69-.72-11.32-1.44-16.34-4.4l-3.48 169.02h58.64c.17-1.84-.25-96.94-.37-100.5z" fill="#ff426f"/><path d="m537.86 288.88c0-19.53-11.34-33.21-30.48-33.21s-30.23 14.15-30.23 33.68c0 6.75-6.3 30.96 3.59 45.57 3.69 5.45 10.42 9.72 16.75 12.23 7.35 2.92 14.64 2.71 21.44-.74 6.09-3.09 13.03-7.67 16.44-13.77 2.73-4.89 2.14-9.15 3.14-14.64 1.11-6.11-.66-26.64-.66-29.12z" fill="#fe9b88"/><path d="m474.27 304.62h65.38c4.31 0 7.81 3.5 7.81 7.81v1.59c0 4.31-3.5 7.81-7.81 7.81h-65.38c-4.31 0-7.81-3.5-7.81-7.81v-1.59c0-4.31 3.5-7.81 7.81-7.81z" fill="#fe9b88"/><path d="m498.62 309.14c0 1.99-1.03 3.6-2.3 3.6s-2.3-1.61-2.3-3.6 1.03-3.6 2.3-3.6 2.3 1.61 2.3 3.6z" fill="#431e41"/><path d="m519.92 309.14c0 1.99-1.03 3.6-2.3 3.6s-2.3-1.61-2.3-3.6 1.03-3.6 2.3-3.6 2.3 1.61 2.3 3.6z" fill="#431e41"/><path d="m488.18 297.94c-.42 0-.8-.28-.9-.71-.13-.5.18-1.01.68-1.13 4.19-1.06 9.86-1.41 12.62-1.4.52 0 .93.42.93.94 0 .51-.42.93-.94.93-.05 0-.11 0-.17 0-2.74 0-8.05.35-11.99 1.35-.08.02-.15.03-.23.03z" fill="#431e41"/><path d="m523.81 297.94c-.07 0-.15 0-.23-.03-4.02-1.02-9.48-1.37-12.16-1.35-.51 0-.93-.42-.93-.93 0-.52.41-.94.93-.94 2.77-.03 8.43.34 12.62 1.4.5.13.8.63.68 1.13-.11.42-.49.71-.91.71z" fill="#431e41"/><path d="m508.4 317.52c-2.65 0-4.29-.71-4.89-2.11-1.15-2.67 2.37-6.49 2.78-6.91.36-.37.95-.39 1.32-.03.37.35.39.95.04 1.32-1.29 1.36-2.9 3.78-2.42 4.89.27.63 1.4.98 3.18.98.52 0 .93.42.93.93s-.42.93-.93.93z" fill="#fe785e"/><path d="m538.88 271.97c-.08-.55-4.2-.12-4.27-.04-1.99 2.12-4.31 1.66-4.09 4.66.4 5.52 4.06 34.07.21 38.12-4.48 4.72-43.4 4.86-47.5-.21-4.04-5.01-1.58-26.94-1.15-32.79.22-3 .1-7.66-1.89-9.78-2.8-.75-5.09.63-5.09.63-2.5 7.56-10.2 66.73 13.08 78.96 14.08 7.4 35.52 4.13 46.57-7.75 7.85-8.44 8.58-42.08 4.13-71.81z" fill="#431e41"/><path d="m492.93 320.62c.94 6 6.77 10.62 13.84 10.62s12.9-4.63 13.84-10.62z" fill="#fff"/><path d="m464.55 278.11c-.7-9.31 6.39-16.49 13.9-20.8 10.34-5.93 24.82-9.85 36.6-6.65 10.78 2.92 19.95 10.41 23.83 21.06-6.16 12.02-17.75 18.19-30.83 20.35-9.09 1.51-20.47 1.84-29.28-1.08-6.23-2.07-13.66-5.41-14.22-12.88z" fill="#431e41"/><path d="m418.88 301.73c-6.81-3.8-14.27-7.34-15.74-13.06-1.63-6.32 1.8-13.56-2.73-19.19-9.68-12.02-53.62-12.34-83.12-1.05-26.85 10.28-36.59 25.92-35.53 52.54.8 20.1 5.66 41.26 18.56 62.21 5.4 8.77 7.87 13.42 13.66 21.96 4.69 6.9 9.41 13.96 17.82 16.96 9.36 3.34 19.86 2.58 29.55 1.26 7.11-.97 14.91-2.63 19.12-8.24 8.49-11.34-4.62-31.71 14.12-36.48 7.74-1.97 15.95-2.66 18.41-11.31 2.09-7.34-.38-14.99-.64-22.39-.48-13.97 13.04-14.86 17.6-25.74 3.57-8.5-3.34-13.14-11.07-17.45z" fill="#ff426f"/><path d="m411.26 442.28c.15-1.58-.21-3.66-.32-6.71-.31-8.93-.46-17.91-2.66-26.63-3.98-15.82-14.14-26.25-30.27-28.28-5.41-.68-10.77-1.36-15.4-4.68-5.66-4.05-9.09-10.72-9.09-17.68v-18.08h-33.21v18.08c0 8.04-4.59 15.59-11.73 19.3-10.79 5.6-24.37 2.3-33.51 11.74-4.43 4.58-6.38 10.98-7.59 17.24-2.03 10.51-2.37 21.27-2.61 31.97-.03 1.51.06 2.73.26 3.73h146.12z" fill="#fe9b88"/><path d="m320.31 340.22v18.08c0 5.34-1.94 10.23-5.13 14.01 3.55.89 7.43 1.39 11.68 1.39 11.74 0 20.68-3.7 27.49-9.53-.52-1.87-.82-3.83-.82-5.87v-18.08h-33.21z" fill="#fe785e"/><path d="m394.74 442.28h-110.21v-52.98l24.74 8.13c16.84 5.53 35.14 5.94 52.25 1.16l33.23-9.28v52.98z" fill="#ffc540"/><path d="m333.01 389.68s-19.8-19.11-19.81-19.12l-9.77 7.1c-5.92 1.91-13.15.4-18.95 2.52-5.82 2.13-10.56 6.84-13.94 11.92-5.15 7.75-7.94 16.98-8.21 26.26-.14 4.77-1.23 88.17-.02 92.78l67.03 42.54c.35-4.17 3.66-164.01 3.66-164.01z" fill="#004b73"/><path d="m343.71 553.12-1.98-163.44s19.8-19.11 19.81-19.12l9.77 7.1c5.92 1.91 13.15.4 18.95 2.52 5.83 2.13 10.56 6.84 13.94 11.92 5.15 7.75 7.94 16.98 8.21 26.26.14 4.77.06 134.66.06 134.66l-68.75.11z" fill="#004b73"/><path d="m346.91 398.9-3.12-.24.54-7.11c.04-.55.37-1.04.86-1.28.49-.25 1.08-.21 1.54.09l4.37 2.82 19.42-14.62 1.88 2.5-20.29 15.28c-.52.39-1.24.42-1.79.06l-3.07-1.99z" fill="#003e5e"/><path d="m327.93 398.9-.34-4.49-3.08 1.99c-.55.36-1.27.33-1.79-.06l-20.29-15.28 1.88-2.5 19.42 14.62 4.37-2.82c.46-.3 1.05-.33 1.54-.09.49.25.82.73.87 1.28l.54 7.11z" fill="#003e5e"/><path d="m371.07 304.75c0-18.82-15.52-34.07-34.66-34.07s-34.66 15.25-34.66 34.07c0 9.88 4.53 54.86 34.66 54.86s34.66-44.97 34.66-54.86z" fill="#fe9b88"/><path d="m368.46 335.51h-64.08c-4.67 0-8.46-3.79-8.46-8.46 0-4.67 3.79-8.46 8.46-8.46h64.08c4.67 0 8.46 3.79 8.46 8.46 0 4.67-3.79 8.46-8.46 8.46z" fill="#fe9b88"/><path d="m328.06 323.27c0 1.95-1.03 3.54-2.3 3.54s-2.3-1.58-2.3-3.54 1.03-3.54 2.3-3.54 2.3 1.58 2.3 3.54z" fill="#431e41"/><path d="m349.36 323.27c0 1.95-1.03 3.54-2.3 3.54s-2.3-1.58-2.3-3.54 1.03-3.54 2.3-3.54 2.3 1.58 2.3 3.54z" fill="#431e41"/><path d="m336.09 333.3c-.37 0-.74-.04-1.08-.16-.6-.2-1.06-.59-1.33-1.12-.74-1.48.22-5.08.86-6.53 0-.03.02-.06.03-.09l.04-.11h.02c.1-.2.19-.33.25-.39.32-.28.79-.3 1.14-.05.25.18.5.51.32 1.11s-.01.03-.02.05c0 .02-.02.05-.03.07 0 .01-.01.03-.02.04-.56 1.46-1.32 4.3-.94 5.07.03.07.09.14.25.2.63.21 1.87-.13 2.49-.44.45-.23 1.01-.04 1.24.41.23.46.04 1.02-.41 1.25-.57.29-1.72.7-2.83.7z" fill="#fe785e"/><path d="m336.42 339.82c-4.02 0-7.92-1.19-10.99-3.36-.42-.29-.52-.87-.22-1.29s.87-.52 1.29-.22c2.76 1.95 6.28 3.02 9.92 3.02s7.16-1.07 9.92-3.02c.42-.3 1-.2 1.29.22.3.42.2 1-.22 1.29-3.07 2.17-6.97 3.36-10.99 3.36z" fill="#fe785e"/><path d="m317.97 311.15c-.42 0-.8-.28-.9-.71-.13-.5.18-1.01.68-1.13 4.19-1.06 9.84-1.44 12.62-1.41.52 0 .93.42.93.94s-.42.93-.93.93c-.05 0-.11 0-.17 0-2.74 0-8.06.35-11.99 1.35-.08.02-.15.03-.23.03z" fill="#431e41"/><path d="m353.61 311.15c-.08 0-.15 0-.23-.03-4.02-1.02-9.47-1.35-12.15-1.35-.51 0-.93-.41-.93-.93s.41-.94.93-.94c2.77-.04 8.44.35 12.62 1.41.5.13.8.63.68 1.13-.11.42-.49.71-.9.71z" fill="#431e41"/><path d="m379.36 277.77c-3.68-10.01-29.29-14.83-55.91-7.08-30.86 8.97-47.05 50.52-21.69 56.37 14.67 3.39 12.06-29.84 12.36-29.58 9.33 8.13 33.05 9.4 50.28 8.57-.9 17.23 4.72 22.95 12.52 21.01 19.41-4.83 5.09-42.08 2.45-49.29z" fill="#ff426f"/><path d="m322.19 580.45c.15-1.58-.21-3.66-.32-6.71-.32-8.93-.46-17.91-2.66-26.63-3.98-15.81-14.14-26.25-30.27-28.28-5.41-.68-10.77-1.36-15.41-4.68-5.66-4.05-9.09-10.72-9.09-17.68v-18.08h-33.21v18.08c0 8.04-4.59 15.59-11.72 19.3-10.79 5.6-24.37 2.3-33.51 11.74-4.43 4.58-6.38 10.98-7.59 17.24-2.03 10.51-2.37 21.27-2.61 31.97-.04 1.5.06 2.73.26 3.73h146.12z" fill="#fe9b88"/><path d="m231.23 478.39v18.08c0 5.34-1.93 10.23-5.13 14.01 3.55.9 7.43 1.39 11.68 1.39 11.74 0 20.68-3.7 27.49-9.53-.53-1.87-.83-3.83-.83-5.87v-18.08z" fill="#fe785e"/><path d="m319.21 547.11c-2.67-10.61-8.13-18.77-16.29-23.63-37.87 15.44-80.69 18.64-120.41 8.87-2.07 3.78-3.27 8.11-4.09 12.39-2.03 10.51-2.37 21.27-2.61 31.97-.04 1.5.06 2.73.26 3.73l146.12 28.24c.15-1.58-.21-31.9-.32-34.95-.32-8.93-.46-17.91-2.66-26.63z" fill="#00c0ff"/><path d="m281.24 444.91c0-19.14-15.52-34.66-34.66-34.66s-34.66 15.52-34.66 34.66c0 10.05 0 55.8 34.66 55.8s34.66-45.75 34.66-55.8z" fill="#fe9b88"/><path d="m213.9 458.99h65.38c4.31 0 7.81 3.5 7.81 7.81v1.59c0 4.31-3.5 7.81-7.81 7.81h-65.38c-4.31 0-7.81-3.5-7.81-7.81v-1.59c0-4.31 3.5-7.81 7.81-7.81z" fill="#fe9b88"/><path d="m238.24 463.73c0 1.99-1.03 3.6-2.3 3.6s-2.3-1.61-2.3-3.6 1.03-3.6 2.3-3.6 2.3 1.61 2.3 3.6z" fill="#431e41"/><path d="m259.54 463.73c0 1.99-1.03 3.6-2.3 3.6s-2.3-1.61-2.3-3.6 1.03-3.6 2.3-3.6 2.3 1.61 2.3 3.6z" fill="#431e41"/><path d="m232.98 476.2c.92 5.9 6.65 10.45 13.61 10.45s12.68-4.55 13.61-10.45h-27.21z" fill="#fff"/><path d="m246.62 473.9c-1.06 0-2.16-.21-2.87-1.11-.55-.7-.67-1.67-.33-2.75.22-.71.49-1.4.74-2.06.26-.69.51-1.34.72-2.01.15-.49.68-.77 1.17-.61.49.15.77.68.61 1.17-.23.72-.5 1.43-.76 2.12-.26.67-.5 1.31-.71 1.96-.14.45-.14.84.01 1.03.42.54 1.67.42 2.67.32.4-.04.78-.07 1.12-.07.52 0 .93.42.93.93s-.42.93-.93.93c-.26 0-.59.03-.95.07-.44.04-.94.09-1.44.09z" fill="#fe785e"/><path d="m228.04 453.34c-.39 0-.74-.26-.84-.65-.12-.46.16-.93.63-1.05 4.12-1.04 8.37-1.51 12.62-1.4.48.01.85.41.84.89s-.4.87-.89.84c-4.1-.11-8.18.35-12.16 1.35-.07.02-.14.03-.21.03z" fill="#431e41"/><path d="m265.13 453.34c-.07 0-.14 0-.21-.03-3.97-1-8.06-1.46-12.16-1.35-.47.03-.87-.36-.89-.84-.01-.48.36-.87.84-.89 4.25-.11 8.5.36 12.62 1.4.46.12.74.59.63 1.05-.1.39-.45.65-.84.65z" fill="#431e41"/><path d="m270.39 473.99c-1.27-5.47.67-11.56 1.49-17.42.82-5.85-.13-12.81-4.79-14.67-4.12-1.64-9.11 1.56-13.51.81-4.62-.79-7.55-6.01-7.62-11.41s-1.56-18.44 1.66-22.93c8.35-11.65 39.15-8.9 44.33 28.17.82 5.86 8.43 6.26 12.96 9.23 6.06 3.96 8.55 13.41 5.67 21.48-5.51 15.41-36.04 24.63-40.18 6.74z" fill="#431e41"/><path d="m222.78 473.99c1.27-5.47-.67-11.56-1.49-17.42-.82-5.85.13-12.81 4.79-14.67 4.12-1.64 9.11 1.56 13.51.81 4.63-.79 7.55-6.01 7.62-11.41s1.56-18.44-1.66-22.93c-8.35-11.65-39.15-8.9-44.33 28.17-.82 5.86-8.43 6.26-12.96 9.23-6.06 3.96-8.55 13.41-5.67 21.48 5.51 15.41 36.04 24.63 40.18 6.74z" fill="#431e41"/><path d="m165.64 576.96c-.32-8.93-.46-17.91-2.66-26.63-3.98-15.81-17.89-26.25-34.02-28.28-7.99-1.01-15.31-4.48-15.26-12.2.02-2.42-.14-31.52-.11-31.52h-41.63c0 4.65 2.13 31.87-1.63 34.82-15.22 11.94-27.66 10.5-40.56 23.83-4.43 4.58-6.38 4.73-7.59 10.99-2.03 10.51-2.37 21.27-2.61 31.97-.03 1.51.06 2.73.26 3.73h146.13c.15-1.58-.21-3.66-.32-6.71z" fill="#fe9b88"/><path d="m165.95 581.76c.03-.56.05-1.16.03-1.82-.24-10.7-.58-21.46-2.61-31.97-1.21-6.25-3.16-12.66-7.59-17.24-5.39-5.57-16.44-6.84-23.72-8.16-.19-.04-.39-.07-.58-.11l-12.75-11.33c-11.53 9.86-23.28 19.87-23.28 19.87-.32.35-2.48 8.74-2.48 8.74s-2.57-8.39-2.88-8.74c0 0-11.32-9.39-23.28-19.87 0 0-13.33 11.44-12.75 11.33.19-.04-.39.07-.58.11-7.27 1.32-18.32 2.59-23.71 8.16-4.43 4.58-6.38 10.98-7.59 17.24-2.03 10.51-2.37 21.27-2.61 31.97-.01.66 0 1.26.03 1.82-.04.71-.05 1.35 0 1.91h146.36c.05-.56.04-1.2 0-1.91z" fill="#06d6a0"/><path d="m81.4 512.98c13.83-1.09 24.35-5.89 32.36-12.92-.04-8.43-.07-19.45-.06-21.41l-.03-.31h-41.6c0 4.58 1.93 29.62-1.49 34.6 3.41.3 7 .33 10.81.03z" fill="#fe785e"/><path d="m87.79 543.82-1.16-7.49-3.47 6.04c-.19.33-.52.56-.89.61-.38.06-.76-.06-1.04-.32-2.59-2.39-5.14-4.74-7.68-7.09-2.49-2.3-4.99-4.61-7.53-6.95l1.69-1.84c2.54 2.35 5.04 4.65 7.53 6.95 2.17 2 4.33 4 6.53 6.03l2.81-4.89c.52-.9 1.52-1.36 2.54-1.17s1.79.98 1.95 2.01l1.19 7.72-2.47.38z" fill="#05ba8b"/><path d="m97.96 543.82-2.47-.38 1.19-7.72c.16-1.03.92-1.82 1.95-2.01s2.02.27 2.54 1.17l2.81 4.89c2.22-2.05 4.41-4.07 6.6-6.09 2.47-2.28 4.95-4.57 7.47-6.89l1.7 1.84c-2.52 2.32-4.99 4.61-7.46 6.89-2.57 2.37-5.13 4.74-7.75 7.15-.28.26-.66.38-1.04.32s-.71-.28-.89-.61l-3.47-6.04-1.16 7.49z" fill="#05ba8b"/><path d="m93.37 411.62c-.23 0-.47.01-.7.02-.23 0-.46-.02-.7-.02-19.14 0-34.66 15.52-34.66 34.66 0 10.35 1.95 20.63 4.65 30.59 1.89 6.96 4.05 13.6 9.49 19.54 4.89 5.33 12.72 8.91 19.69 9.06 12.82.28 22.67-5.39 29.04-18.62 4.47-9.28 7.7-31.36 7.85-38.51.41-19.67-14.48-36.72-34.66-36.72z" fill="#fe9b88"/><path d="m59.28 460.35h65.38c4.31 0 7.81 3.5 7.81 7.81v1.59c0 4.31-3.5 7.81-7.81 7.81h-65.38c-4.31 0-7.81-3.5-7.81-7.81v-1.59c0-4.31 3.5-7.81 7.81-7.81z" fill="#fe9b88"/><path d="m83.62 465.72c0 1.99-1.03 3.6-2.3 3.6s-2.3-1.61-2.3-3.6 1.03-3.6 2.3-3.6 2.3 1.61 2.3 3.6z" fill="#431e41"/><path d="m104.92 465.72c0 1.99-1.03 3.6-2.3 3.6s-2.3-1.61-2.3-3.6 1.03-3.6 2.3-3.6 2.3 1.61 2.3 3.6z" fill="#431e41"/><path d="m72.82 454.59c-.32 0-.62-.18-.77-.48-.21-.43-.04-.95.39-1.16 4.19-2.08 8.55-2.56 12.99-1.44.46.12.74.59.62 1.05s-.59.74-1.05.63c-4.02-1.02-7.99-.58-11.79 1.31-.12.06-.26.09-.38.09z" fill="#431e41"/><path d="m109.82 454.51c-.1 0-.21-.02-.31-.06-4.15-1.57-8.05-2.01-11.94-1.33-.47.08-.92-.23-1-.7s.23-.92.7-1c4.14-.72 8.46-.24 12.84 1.42.45.17.67.67.5 1.11-.13.34-.46.56-.81.56z" fill="#431e41"/><path d="m120.14 460.36c-.08-.5-.48-.9-.99-.99-5.08-.87-15.6-2.68-24.25 1.32-.56-.35-1.26-.54-2-.56-.84 0-1.68.2-2.35.6-8.67-4.05-19.24-2.24-24.34-1.36-.52.09-.92.49-.99.99-.06.41-.1.83-.1 1.24 0 .53.32 1.01.82 1.18.46.17.96.41 1.04.46 1.05.56 1.47 3.36 1.61 4.25.58 3.67 3.43 6.86 7.21 7.87 1.1.29 2.28.44 3.49.44 2.75 0 5.51-.79 7.58-2.17 2.38-1.58 3.84-3.85 4.22-6.55.2-1.42.16-3.05.09-4.22.01-.01.02-.02.03-.03.06-.03.13-.07.19-.13.33-.31.88-.49 1.45-.46.48.01.91.16 1.12.38.02.03.05.04.07.06.05.07.1.13.15.19-.07 1.17-.11 2.8.09 4.22.38 2.7 1.83 4.97 4.22 6.55 2.07 1.38 4.84 2.17 7.58 2.17 1.21 0 2.38-.15 3.48-.44 4.24-1.13 6.87-4.82 7.32-9.23.13-1.27.6-2.64 1.5-2.87.09-.07.58-.3 1.05-.47.49-.18.82-.65.81-1.18 0-.42-.04-.83-.1-1.24zm-4.82 4.12v1.65c0 3.47-2.65 6.79-6.16 7.73-3.26.87-7.11.27-9.8-1.52-2-1.33-3.22-3.22-3.54-5.47-.18-1.26-.14-2.77-.08-3.86.84-.59 1.83-1.1 1.84-1.11 1.1-.57 2.18-.92 3.39-1.1 2.97-.45 5.99-.55 8.97-.31 1.37.11 2.79.33 3.85 1.12.87.66 1.44 1.72 1.52 2.87zm-45.28-.03c.07-1.12.64-2.19 1.51-2.85 1.06-.8 2.47-1.01 3.85-1.12 1.04-.08 2.09-.13 3.14-.13 1.95 0 3.9.15 5.83.44 1.21.18 2.29.53 3.39 1.1 0 0 1 .52 1.84 1.1.05.94.11 2.54-.08 3.86-.31 2.25-1.54 4.14-3.54 5.47-2.69 1.79-6.54 2.38-9.8 1.52-3.51-.93-6.16-4.26-6.16-7.73v-1.6s0-.07 0-.07z" fill="#003e5e"/><path d="m91.65 483.58c-4.2 0-8.28-1.19-11.5-3.35-.43-.29-.55-.88-.26-1.32s.88-.55 1.32-.26c2.9 1.95 6.61 3.03 10.44 3.03s7.53-1.08 10.44-3.03c.43-.29 1.02-.18 1.32.26.29.43.18 1.02-.26 1.32-3.21 2.16-7.3 3.35-11.5 3.35z" fill="#fe785e"/><path d="m92.13 474.58c-1.09 0-2.51-.18-3.14-1.38-.74-1.41.03-3.56 2.44-6.76.31-.41.9-.49 1.31-.18s.5.9.18 1.31c-2.68 3.56-2.37 4.59-2.28 4.76.24.45 1.61.39 2.12.37.16 0 .31-.01.42-.01.52 0 .93.42.93.93s-.42.93-.93.93c-.09 0-.21 0-.34.01-.21 0-.45.02-.72.02z" fill="#fe785e"/><path d="m115.84 410.61c-13.83-9.86-33.98-9.74-47.7.27-11.48 8.39-17.91 23.38-16.4 37.49.32 3.02 1.97 12.35 5.7 13.37 3.52.96 13.14-18.25 16.47-31.12 2.55 1.35 11.54 15.8 44.12 13.59.99 6.3 3.96 17.27 8.6 17.52 1.94.11 3.22-4.94 3.79-6.79 5-16.23-.77-34.48-14.6-44.34z" fill="#431e41"/><path d="m665.64 576.96c-.32-8.93-.46-17.91-2.66-26.63-3.98-15.81-17.89-26.25-34.02-28.28-7.99-1.01-15.31-4.48-15.26-12.2.02-2.42-.14-31.52-.11-31.52h-41.63c0 4.65 2.13 31.87-1.63 34.82-15.22 11.94-27.66 10.5-40.56 23.83-4.43 4.58-6.38 4.73-7.59 10.99-2.03 10.51-2.37 21.27-2.61 31.97-.04 1.51.06 2.73.26 3.73h146.13c.15-1.58-.21-3.66-.32-6.71z" fill="#fe9b88"/><path d="m665.95 581.76c.03-.56.05-1.16.03-1.82-.24-10.7-.58-21.46-2.61-31.97-1.21-6.25-3.16-12.66-7.59-17.24-5.39-5.57-16.44-6.84-23.71-8.16-.19-.04-.39-.07-.58-.11l-12.75-11.33c-11.53 9.86-23.28 19.87-23.28 19.87-.31.35-2.48 8.74-2.48 8.74s-2.57-8.39-2.88-8.74c0 0-11.32-9.39-23.28-19.87 0 0-13.33 11.44-12.75 11.33.19-.04-.39.07-.58.11-7.27 1.32-18.32 2.59-23.71 8.16-4.43 4.58-6.38 10.98-7.59 17.24-2.03 10.51-2.37 21.27-2.61 31.97-.02.66 0 1.26.03 1.82-.04.71-.05 1.35 0 1.91h146.36c.05-.56.04-1.2 0-1.91z" fill="#06d6a0"/><path d="m581.4 512.98c13.82-1.09 24.35-5.89 32.36-12.92-.04-8.43-.07-19.45-.06-21.41l-.03-.31h-41.6c0 4.58 1.93 29.62-1.49 34.6 3.41.3 7 .33 10.81.03z" fill="#fe785e"/><path d="m587.79 543.82-1.16-7.49-3.47 6.04c-.19.33-.52.56-.89.61-.38.06-.76-.06-1.04-.32-2.59-2.39-5.14-4.74-7.68-7.09-2.49-2.3-4.99-4.61-7.53-6.95l1.7-1.84c2.54 2.35 5.04 4.65 7.53 6.95 2.17 2 4.33 4 6.53 6.03l2.81-4.89c.52-.9 1.52-1.36 2.54-1.17s1.79.98 1.95 2.01l1.19 7.72-2.47.38z" fill="#05ba8b"/><path d="m597.96 543.82-2.47-.38 1.19-7.72c.16-1.03.92-1.82 1.95-2.01s2.02.27 2.54 1.17l2.81 4.89c2.22-2.05 4.41-4.07 6.6-6.09 2.47-2.28 4.95-4.57 7.46-6.89l1.7 1.84c-2.52 2.32-4.99 4.61-7.46 6.89-2.57 2.37-5.13 4.74-7.75 7.15-.28.26-.66.38-1.04.32-.37-.06-.71-.28-.89-.61l-3.47-6.04-1.16 7.49z" fill="#05ba8b"/><path d="m593.37 411.62c-.23 0-.47.01-.7.02-.23 0-.46-.02-.7-.02-19.14 0-34.66 15.52-34.66 34.66 0 10.35 1.95 20.63 4.65 30.59 1.89 6.96 4.05 13.6 9.49 19.54 4.89 5.33 12.72 8.91 19.69 9.06 12.82.28 22.67-5.39 29.04-18.62 4.47-9.28 7.7-31.36 7.85-38.51.41-19.67-14.48-36.72-34.66-36.72z" fill="#fe9b88"/><path d="m559.28 460.35h65.38c4.31 0 7.81 3.5 7.81 7.81v1.59c0 4.31-3.5 7.81-7.81 7.81h-65.38c-4.31 0-7.81-3.5-7.81-7.81v-1.59c0-4.31 3.5-7.81 7.81-7.81z" fill="#fe9b88"/><path d="m583.62 465.72c0 1.99-1.03 3.6-2.3 3.6s-2.3-1.61-2.3-3.6 1.03-3.6 2.3-3.6 2.3 1.61 2.3 3.6z" fill="#431e41"/><path d="m604.92 465.72c0 1.99-1.03 3.6-2.3 3.6s-2.3-1.61-2.3-3.6 1.03-3.6 2.3-3.6 2.3 1.61 2.3 3.6z" fill="#431e41"/><path d="m572.82 454.59c-.32 0-.62-.18-.77-.48-.21-.43-.04-.95.39-1.16 4.19-2.08 8.55-2.56 12.99-1.44.46.12.74.59.62 1.05s-.59.74-1.05.63c-4.02-1.02-7.99-.58-11.79 1.31-.12.06-.26.09-.38.09z" fill="#431e41"/><path d="m609.82 454.51c-.1 0-.21-.02-.31-.06-4.15-1.57-8.05-2.01-11.94-1.33-.47.08-.92-.23-1-.7s.23-.92.7-1c4.14-.72 8.46-.24 12.84 1.42.45.17.67.67.5 1.11-.13.34-.46.56-.81.56z" fill="#431e41"/><path d="m620.14 460.36c-.08-.5-.48-.9-.99-.99-5.07-.87-15.6-2.68-24.25 1.32-.56-.35-1.26-.54-2-.56-.84 0-1.68.2-2.35.6-8.67-4.05-19.24-2.24-24.34-1.36-.52.09-.92.49-.99.99-.06.41-.1.83-.1 1.24 0 .53.32 1.01.82 1.18.46.17.96.41 1.04.46 1.05.56 1.47 3.36 1.61 4.25.58 3.67 3.43 6.86 7.21 7.87 1.1.29 2.28.44 3.48.44 2.75 0 5.51-.79 7.58-2.17 2.38-1.58 3.84-3.85 4.22-6.55.2-1.42.16-3.05.09-4.22.01-.01.02-.02.04-.03.06-.03.12-.07.19-.13.33-.31.88-.49 1.45-.46.48.01.91.16 1.12.38.02.03.05.04.07.06.04.07.1.13.15.19-.07 1.17-.11 2.8.09 4.22.37 2.7 1.83 4.97 4.22 6.55 2.07 1.38 4.84 2.17 7.58 2.17 1.21 0 2.38-.15 3.48-.44 4.24-1.13 6.87-4.82 7.32-9.23.13-1.27.6-2.64 1.5-2.87.09-.07.57-.3 1.05-.47.49-.18.82-.65.81-1.18 0-.42-.04-.83-.1-1.24zm-4.82 4.12v1.65c0 3.47-2.65 6.79-6.16 7.73-3.26.87-7.11.27-9.8-1.52-2-1.33-3.22-3.22-3.54-5.47-.18-1.26-.14-2.77-.08-3.86.84-.59 1.83-1.1 1.84-1.11 1.1-.57 2.18-.92 3.39-1.1 2.97-.45 5.99-.55 8.97-.31 1.37.11 2.79.33 3.85 1.12.87.66 1.44 1.72 1.52 2.87zm-45.28-.03c.07-1.12.64-2.19 1.51-2.85 1.06-.8 2.47-1.01 3.85-1.12 1.04-.08 2.09-.13 3.14-.13 1.95 0 3.9.15 5.83.44 1.21.18 2.29.53 3.39 1.1 0 0 1 .52 1.84 1.1.05.94.11 2.54-.08 3.86-.31 2.25-1.54 4.14-3.54 5.47-2.69 1.79-6.54 2.38-9.8 1.52-3.51-.93-6.16-4.26-6.16-7.73v-1.6s0-.07 0-.07z" fill="#003e5e"/><path d="m591.65 483.58c-4.2 0-8.29-1.19-11.5-3.35-.44-.29-.55-.88-.26-1.32s.88-.55 1.32-.26c2.9 1.95 6.61 3.03 10.44 3.03s7.53-1.08 10.44-3.03c.43-.29 1.02-.18 1.32.26.29.43.18 1.02-.26 1.32-3.21 2.16-7.3 3.35-11.5 3.35z" fill="#fe785e"/><path d="m592.13 474.58c-1.09 0-2.51-.18-3.14-1.38-.74-1.41.03-3.56 2.44-6.76.31-.41.89-.49 1.31-.18.41.31.49.9.18 1.31-2.68 3.56-2.37 4.59-2.28 4.76.24.45 1.61.39 2.12.37.16 0 .31-.01.42-.01.52 0 .93.42.93.93s-.42.93-.93.93c-.09 0-.21 0-.34.01-.21 0-.45.02-.72.02z" fill="#fe785e"/><path d="m615.84 410.61c-13.83-9.86-33.98-9.74-47.7.27-11.48 8.39-17.91 23.38-16.39 37.49.32 3.02 1.97 12.35 5.7 13.37 3.52.96 13.14-18.25 16.47-31.12 2.55 1.35 11.54 15.8 44.12 13.59.99 6.3 3.96 17.27 8.6 17.52 1.94.11 3.22-4.94 3.79-6.79 5-16.23-.77-34.48-14.6-44.34z" fill="#431e41"/><path d="m513.26 583.67c.17-1.84-.25-4.28-.37-7.83-.37-10.43-.54-20.91-3.1-31.1-4.65-18.47-16.51-30.65-35.35-33.02-6.32-.8-12.58-1.59-17.99-5.47-6.61-4.73-10.62-12.52-10.62-20.65v-21.11h-38.78v21.11c0 9.39-5.36 18.21-13.69 22.54-12.6 6.54-28.46 2.69-39.13 13.71-5.17 5.34-7.45 12.83-8.86 20.13-2.37 12.28-2.77 24.84-3.05 37.34-.04 1.76.07 3.19.31 4.36h170.65z" fill="#9e5547"/><path d="m397.91 404.24c-4.48-.64-9.16-1.24-12.92-3.77-3.75-2.53-6.18-7.68-4.11-11.71 2.14-4.15 7.71-5.17 10.77-8.7 3.96-4.58 2.51-11.65 4.6-17.33 1.86-5.03 7.48-8.9 12.61-7.34 2.67.81 4.78 2.87 7.31 4.05 5.22 2.44 11.42.83 16.65-1.56 5.24-2.4 10.26-5.6 15.96-6.42 2.71-.39 5.62-.19 7.99 1.2 2.37 1.38 4.06 4.13 3.65 6.84-.78 5.07-7.96 7.73-7.74 12.86.14 3.22 3.23 5.44 6.15 6.81s6.23 2.63 7.74 5.47c2.06 3.87-.44 8.85-4.11 11.26s-8.18 3.02-12.43 4.09c-4.26 1.07-8.71 2.92-10.87 6.75-1.92 3.41-2.11 8.36-5.71 9.87-2.14.9-4.58.08-6.75-.73-5.17-1.94-11.38-3.36-15.92-6.55-3.91-2.75-7.77-5.08-12.87-5.08z" fill="#431e41"/><path d="m407.97 401c2.71-2.75 6.14-4.84 9.15-5.83 9.49-3.12 23.93-2.18 31.69 5.06 1.57 1.47 2.89 3.31 3.43 5.46 1.39 5.61-2.66 11.18-7.23 13.5-9.12 4.64-21.21 3.59-30.9 2.13-4.15-.62-9.04-1.96-10.53-6.63-1.63-5.14.94-10.19 4.39-13.69z" fill="#ffc540"/><path d="m427.8 514.72c11.83 0 22.84-2.37 32.08-6.45-1.18-.56-2.33-1.22-3.44-2.02-6.61-4.73-10.62-12.52-10.62-20.65v-21.11h-38.78v21.11c0 9.04-4.97 17.53-12.77 22.02 9.53 4.47 21.07 7.1 33.53 7.1z" fill="#9e5547"/><path d="m407.04 464.48v21.11c0 6.24-2.26 11.94-5.99 16.36 4.14 1.04 8.67 1.62 13.64 1.62 13.71 0 24.15-4.33 32.1-11.13-.61-2.18-.96-4.48-.96-6.86v-21.11h-38.78z" fill="#7f392f"/><path d="m462.19 436.6c0-19.14-15.52-34.66-34.66-34.66s-34.66 15.52-34.66 34.66c0 10.05 0 55.8 34.66 55.8s34.66-45.75 34.66-55.8z" fill="#9e5547"/><rect fill="#9e5547" height="17.21" rx="7.81" width="81" x="387.03" y="450.68"/><path d="m419.45 456.05c0 1.99-1.03 3.6-2.3 3.6s-2.3-1.61-2.3-3.6 1.03-3.6 2.3-3.6 2.3 1.61 2.3 3.6z" fill="#431e41"/><path d="m440.75 456.05c0 1.99-1.03 3.6-2.3 3.6s-2.3-1.61-2.3-3.6 1.03-3.6 2.3-3.6 2.3 1.61 2.3 3.6z" fill="#431e41"/><path d="m428.05 466.28c-1.65 0-2.8-.53-3.44-1.6-1.31-2.2.42-5.54 1.41-6.73.33-.4.92-.45 1.32-.12s.45.92.12 1.32c-.92 1.1-1.88 3.49-1.24 4.57.56.94 2.48.71 3.57.49.51-.1 1 .23 1.1.73.1.51-.23 1-.73 1.1-.78.16-1.48.23-2.11.23z" fill="#7f392f"/><path d="m408.74 445.66c-.38 0-.74-.26-.84-.65-.12-.46.16-.93.62-1.05 4.18-1.06 9.82-1.41 12.61-1.4.48 0 .86.39.86.87s-.39.86-.87.86c-.05 0-.11 0-.17 0-2.74 0-8.06.35-12.01 1.35-.07.02-.14.03-.21.03z" fill="#431e41"/><path d="m446.32 445.67c-.07 0-.14 0-.21-.03-3.97-1-8.06-1.46-12.16-1.35-.47 0-.87-.36-.88-.84s.36-.87.84-.89c4.25-.11 8.5.36 12.62 1.4.46.12.74.59.62 1.05-.1.39-.45.65-.84.65z" fill="#431e41"/><path d="m427.47 472.18c-4.6 0-8.58-1.53-10.76-4.16-.33-.4-.27-.99.12-1.32.4-.33.99-.27 1.32.12 1.92 2.33 5.66 3.63 9.99 3.47 3.91-.14 7.34-1.48 8.72-3.42.3-.42.88-.52 1.3-.22s.52.88.22 1.3c-1.74 2.43-5.63 4.04-10.18 4.2-.25 0-.5.01-.74.01z" fill="#7f392f"/><path d="m457.63 448.36c-1.04-1.64-1.81-3.7-2.35-4.83-1.7-3.57-3.07-7.29-4.07-11.11-1.11-4.21-3.3-11.32-1.53-15.56.46-1.12 1.54-2.06 2.74-2.01 4.74.19 7.56 7.63 9.03 11.26 2.6 6.45 3.57 13.56 2.73 20.46-.24 1.99-1.13 4.61-3.66 4.24-1.12-.16-2.08-1.18-2.88-2.45z" fill="#431e41"/><path d="m397.3 448.36c1.04-1.64 1.81-3.7 2.35-4.83 2.17-4.56 6.11-17.58 10.45-19.58 3.71-1.7 7.32-.06 12.34 1.58 4.91 1.61 8.38 2.52 13.52 3.13s10.63-.12 14.83-3.13c4.21-3.01 6.75-8.63 5.17-13.55-1.52-4.72-6.21-7.68-10.87-9.38-11.78-4.28-25.55-2.74-36 4.18-6.54 4.33-11.66 10.72-14.65 17.97-2.66 6.47-4.55 14.85-3.7 21.8.24 1.99 1.13 4.61 3.66 4.24 1.12-.16 2.08-1.18 2.88-2.45z" fill="#431e41"/><path d="m512.88 575.84c-.37-10.43-.54-20.91-3.1-31.1-4.23-16.8-14.43-28.4-30.42-32.14-11.75 14.04-31.68 23.28-54.28 23.28s-41.59-8.81-53.44-22.3c-6.37 1.23-12.46 3.14-17.43 8.27-5.17 5.34-7.45 12.83-8.86 20.13-2.37 12.28-2.77 24.84-3.05 37.34-.04 1.76.07 21.94.31 23.11l170.65-18.75c.17-1.84-.25-4.28-.37-7.83z" fill="#ffc540"/><path d="m415.87 694.35c.15-1.58-.21-3.66-.32-6.71-.32-8.93-.46-17.91-2.66-26.63-3.98-15.82-14.14-26.25-30.27-28.28-5.41-.68-10.77-1.36-15.41-4.68-5.66-4.05-9.09-10.72-9.09-17.68v-18.08h-33.21v18.08c0 8.04-4.59 15.59-11.72 19.3-10.79 5.6-24.37 2.3-33.51 11.74-4.43 4.58-6.38 10.98-7.59 17.24-2.03 10.51-2.37 21.27-2.61 31.97-.04 1.51.06 2.73.26 3.73z" fill="#fe9b88"/><path d="m324.92 592.29v18.08c0 5.34-1.94 10.23-5.13 14.01 3.55.9 7.43 1.39 11.68 1.39 11.74 0 20.68-3.7 27.49-9.53-.52-1.87-.82-3.83-.82-5.87v-18.08h-33.21z" fill="#fe785e"/><path d="m415.55 687.64c-.32-8.93-.46-17.91-2.66-26.63-3.98-15.82-14.14-26.25-30.27-28.28-5.41-.68-10.77-1.36-15.41-4.68-.04-.03-.08-.06-.12-.09-5.57 6.84-14.63 11.3-24.87 11.3s-19.9-4.75-25.41-11.98c-1.12.91-2.33 1.71-3.63 2.39-10.79 5.6-24.37 2.3-33.51 11.74-4.43 4.58-6.38 10.98-7.59 17.24-2.03 10.51-2.37 21.27-2.61 31.97-.04 1.51.06 2.73.26 3.73h146.13c.15-1.58-.21-3.66-.32-6.71z" fill="#00e6aa"/><path d="m374.93 558.81c0-19.14-15.52-34.66-34.66-34.66s-34.66 15.52-34.66 34.66c0 10.05 0 55.8 34.66 55.8s34.66-45.75 34.66-55.8z" fill="#fe9b88"/><path d="m307.58 572.89h65.38c4.31 0 7.81 3.5 7.81 7.81v1.59c0 4.31-3.5 7.81-7.81 7.81h-65.38c-4.31 0-7.81-3.5-7.81-7.81v-1.59c0-4.31 3.5-7.81 7.81-7.81z" fill="#fe9b88"/><path d="m331.92 577.63c0 1.99-1.03 3.6-2.3 3.6s-2.3-1.61-2.3-3.6 1.03-3.6 2.3-3.6 2.3 1.61 2.3 3.6z" fill="#431e41"/><path d="m353.23 577.63c0 1.99-1.03 3.6-2.3 3.6s-2.3-1.61-2.3-3.6 1.03-3.6 2.3-3.6 2.3 1.61 2.3 3.6z" fill="#431e41"/><path d="m326.67 590.1c.92 5.9 6.65 10.45 13.61 10.45s12.68-4.55 13.61-10.45h-27.21z" fill="#fff"/><path d="m340.3 587.8c-1.06 0-2.16-.21-2.87-1.12-.55-.7-.67-1.67-.32-2.75.22-.7.48-1.39.74-2.06.26-.69.51-1.34.72-2.01.15-.49.68-.77 1.17-.61.49.15.77.68.61 1.17-.23.72-.5 1.43-.76 2.12-.26.67-.5 1.31-.71 1.96-.14.44-.13.84 0 1.03.42.54 1.67.42 2.67.32.4-.04.78-.07 1.12-.07.52 0 .94.42.94.93s-.42.93-.94.93c-.26 0-.59.03-.95.07-.44.04-.94.09-1.44.09z" fill="#fe785e"/><path d="m321.73 567.24c-.38 0-.74-.26-.84-.65-.12-.46.16-.93.62-1.05 4.12-1.04 8.37-1.51 12.62-1.4.48.01.85.41.84.89s-.41.84-.88.84c-4.1-.11-8.19.35-12.16 1.35-.07.02-.14.03-.21.03z" fill="#431e41"/><path d="m358.82 567.24c-.07 0-.14 0-.21-.03-3.97-1-8.06-1.46-12.16-1.35-.46 0-.87-.36-.88-.84s.36-.87.84-.89c4.25-.11 8.5.36 12.62 1.4.46.12.74.59.62 1.05-.1.39-.45.65-.84.65z" fill="#431e41"/><path d="m315.88 570.9c-.05-5.75-4.72-12.91.82-17.26 5.29-4.15 10.97.52 16.66.37 7.36-.2 11.59-7.24 16.92-10.7 8.05-5.23 13.72-1.48 13.41 7.27-.27 7.64-4.66 13.54-.19 20.67 3.88 6.18 10.81 7.27 17.56 7.27 2.29 0 4.49-.22 6.45-1.26 2.97-1.57 4.91-3.48 4.49-7.35-.94-8.63-6.37-12.25-1.24-21.26 3.7-6.51 11.48-10.77 9.5-19.24-.75-3.19-3.53-5.03-6.21-6.65s-6.03-2.56-8.74-4c-7.02-3.73-6.65-9.34-9.98-15.67-5.42-10.32-13.88-6.45-21.67-1.45-4.06 2.6-6.91 5.66-10.9 7.75-8.23 4.31-16.06 3.06-24.79 1.87-4.6-.62-8.99-.72-13.31.61-3.32 1.03-6.24 3-7.32 6.28-1.98 6.01 1.68 11.93-1.39 17.77-1.65 3.15-5.64 4.03-8 6.7-5.6 6.36-6.11 13.63-1.61 21.48 4.79 8.35 16.47 16.81 26.36 12.68 2.78-1.16 3.21-3.38 3.19-5.88z" fill="#431e41"/><path d="m263.66 694.35c.17-1.84-.25-4.28-.37-7.83-.37-10.43-.54-20.91-3.1-31.1-4.65-18.47-16.51-30.65-35.35-33.03-6.32-.8-12.58-1.59-17.99-5.47-6.61-4.73-60.11.34-63.09 1.89-12.6 6.54-28.46 2.69-39.13 13.71-5.17 5.34-7.45 12.83-8.86 20.13-2.37 12.28-2.77 24.84-3.05 37.34-.04 1.76.07 3.19.31 4.36h170.65z" fill="#ffc540"/><path d="m142.85 619.25.84.88c8.41 8.84 20.33 13.91 32.7 13.91s24.71-5.24 33.15-14.39l.68-.73c-1.16-.56-2.29-1.21-3.38-1.99-1.94-1.39-3.65-3.05-5.11-4.9-7.14 5.72-18.78 9.68-25.33 9.68s-19.06-2.96-25.39-8.59c-2.03 2.3-4.47 4.26-7.26 5.7-.3.15-.6.3-.9.44z" fill="#00c0ff"/><path d="m176.39 627.87c11.38 0 21.6-4.79 28.62-12.4-5.51-4.79-6.55-11.84-6.55-19.19v-21.11h-43.27v21.11c0 7.61-1.27 14.83-7.04 19.61 7.01 7.37 17.06 11.99 28.24 11.99z" fill="#9e5547"/><path d="m154.99 575.11v21.11c0 6.24-.59 11.79-3.75 16.36 4.14 1.05 8.67 1.62 13.64 1.62 13.71 0 26.04-4.25 33.99-11.06-.49-4.84-.4-7.44-.4-9.82l-.21-18.23h-43.27z" fill="#7f392f"/><path d="m210.23 548.19c0-19.53-15.52-35.35-34.66-35.35s-34.66 15.83-34.66 35.35c0 6.75-1.87 29.28 8.02 43.89 5.13 7.58 14.78 13.03 26.62 13.03 10.29 0 19.41-4.12 24.5-10.17 12.04-14.33 10.17-39.54 10.17-46.75z" fill="#9e5547"/><path d="m142.86 561.57h65.38c4.31 0 7.81 3.5 7.81 7.81v1.59c0 4.31-3.5 7.81-7.81 7.81h-65.38c-4.31 0-7.81-3.5-7.81-7.81v-1.59c0-4.31 3.5-7.81 7.81-7.81z" fill="#9e5547"/><path d="m167.2 566.31c0 1.99-1.03 3.6-2.3 3.6s-2.3-1.61-2.3-3.6 1.03-3.6 2.3-3.6 2.3 1.61 2.3 3.6z" fill="#431e41"/><path d="m188.5 566.31c0 1.99-1.03 3.6-2.3 3.6s-2.3-1.61-2.3-3.6 1.03-3.6 2.3-3.6 2.3 1.61 2.3 3.6z" fill="#431e41"/><path d="m175.53 576.05c-2.02 0-2.89-.85-3.26-1.59-1.02-2.03.72-4.96 1.78-6.24.33-.4.92-.45 1.32-.12s.45.92.12 1.32c-1.08 1.29-1.97 3.34-1.54 4.2.28.55 1.32.58 1.91.55.5-.04.96.37.98.88.03.51-.37.96-.88.98-.14 0-.29.01-.42.01z" fill="#7f392f"/><path d="m156.76 553.76c-.39 0-.74-.26-.84-.65-.12-.46.16-.93.63-1.05 4.18-1.06 9.82-1.42 12.61-1.4.48 0 .86.39.86.87s-.39.86-.86.86c-.05 0-.11 0-.17 0-2.74 0-8.06.35-12.01 1.35-.07.02-.14.03-.21.03z" fill="#431e41"/><path d="m194.34 553.77c-.07 0-.14 0-.21-.03-3.97-1-8.06-1.46-12.16-1.35-.47 0-.87-.36-.88-.84s.36-.87.84-.89c4.25-.11 8.5.36 12.62 1.4.46.12.74.59.62 1.05-.1.39-.45.65-.84.65z" fill="#431e41"/><path d="m175.67 583.15c-3.65 0-7.33-.91-10.67-2.72-.45-.25-.62-.81-.37-1.27.25-.45.81-.62 1.27-.37 6.11 3.32 13.5 3.33 19.29 0 .45-.26 1.02-.1 1.28.35s.1 1.02-.35 1.28c-3.18 1.82-6.79 2.73-10.44 2.73z" fill="#7f392f"/><path d="m211.41 526.08c-2.4-13.57-21.78-25.6-38.16-23.72-15.73 1.8-31.93 13.59-33.42 35.59 25.3-.75 47.03-4.83 71.58-11.86z" fill="#ff426f"/><path d="m142.52 537.5c-3.62 6.05-5.1 15.63-1.9 24.07 7.04-2.6 10.12-9.27 10.72-19.74 18.3 6.87 38.14 8.99 56.62 3.92 1.03-.28 2.12-.65 3.21-1.01 0 0 8.69-7.62-16.01-11.71-18.44-3.05-35.96-3.94-52.65 4.47z" fill="#431e41"/><path d="m208.33 537.5c-1.88-.95-3.77-1.78-5.66-2.52-1.17 2.33-2.35 4.65-3.52 6.98.12-.04.24-.09.36-.13.61 10.48 3.68 17.14 10.72 19.74 3.2-8.43 1.72-18.02-1.89-24.07z" fill="#431e41"/><path d="m213.12 539.79c-24.85-3.17-50.42-1.24-74.43 5.62-.23-3.42 0-7.46.72-11.4 23.05-7.5 48.57-11.89 72.76-9.05.97 4.71 1.3 9.52.98 14.31l-.03.53z" fill="#cf355a"/><path d="m592.65 694.35c.17-1.84-.25-4.28-.37-7.83-.37-10.43-.54-20.91-3.1-31.1-4.65-18.47-16.51-30.65-35.35-33.03-6.32-.8-12.58-1.59-17.99-5.47-.19-.14-1.57-1.33-1.83-1.46-7.95-3.81-46.6-1.42-56.86.41 0 0-4.13 2.78-4.41 2.93-12.6 6.54-28.46 2.69-39.13 13.71-5.17 5.34-7.45 12.83-8.86 20.13-2.37 12.28-2.77 24.84-3.05 37.34-.04 1.76.07 3.19.31 4.36h170.65z" fill="#fe9b88"/><path d="m592.28 686.51c-.37-10.43-.54-20.91-3.1-31.09-4.65-18.47-16.51-30.65-35.35-33.03-5.61-.71-11.16-1.42-16.12-4.27-3.87 13.58-16.83 23.57-32.22 23.57s-28.15-9.84-32.13-23.26c-.32.21-.55.36-.61.39-12.6 6.54-28.46 2.69-39.13 13.71-5.17 5.34-7.45 12.83-8.86 20.13-2.37 12.28-2.77 24.84-3.05 37.34-.04 1.76.07 3.19.31 4.36h170.65c.17-1.84-.25-4.28-.37-7.83z" fill="#ff426f"/><path d="m505.38 627.87c11.38 0 21.6-4.79 28.62-12.4-5.51-4.79-6.55-11.84-6.55-19.19v-21.11h-43.27v21.11c0 7.61-1.27 14.83-7.04 19.61 7.01 7.37 17.06 11.99 28.23 11.99z" fill="#fe9b88"/><path d="m483.98 575.11v21.11c0 6.24-.59 11.79-3.75 16.36 4.14 1.05 8.67 1.62 13.64 1.62 13.71 0 26.04-4.25 33.99-11.06-.49-4.84-.4-7.44-.4-9.82l-.21-18.23h-43.27z" fill="#fe785e"/><path d="m537.86 541.92c0-20.31-11.34-34.54-30.48-34.54s-30.23 14.72-30.23 35.03c0 7.02-6.3 32.2 3.59 47.4 12.73 19.56 43.48 18.38 54.64-2.37 2.73-5.09 2.14-9.51 3.14-15.22 1.11-6.36-.66-27.71-.66-30.29z" fill="#fe9b88"/><path d="m474.27 556.33h65.38c4.31 0 7.81 3.5 7.81 7.81v1.59c0 4.31-3.5 7.81-7.81 7.81h-65.38c-4.31 0-7.81-3.5-7.81-7.81v-1.59c0-4.31 3.5-7.81 7.81-7.81z" fill="#fe9b88"/><path d="m498.62 560.85c0 1.99-1.03 3.6-2.3 3.6s-2.3-1.61-2.3-3.6 1.03-3.6 2.3-3.6 2.3 1.61 2.3 3.6z" fill="#431e41"/><path d="m519.92 560.85c0 1.99-1.03 3.6-2.3 3.6s-2.3-1.61-2.3-3.6 1.03-3.6 2.3-3.6 2.3 1.61 2.3 3.6z" fill="#431e41"/><path d="m488.18 549.65c-.42 0-.8-.28-.9-.71-.13-.5.18-1.01.68-1.13 4.19-1.06 9.83-1.44 12.62-1.41.52 0 .93.42.93.94 0 .51-.42.93-.94.93-.05 0-.11 0-.17 0-2.74 0-8.05.35-11.99 1.35-.08.02-.15.03-.23.03z" fill="#431e41"/><path d="m523.81 549.65c-.07 0-.15 0-.23-.03-4.02-1.02-9.47-1.35-12.16-1.35-.51 0-.93-.41-.93-.93s.41-.94.93-.94c2.79-.04 8.43.35 12.62 1.41.5.13.8.63.68 1.13-.11.42-.49.71-.91.71z" fill="#431e41"/><path d="m508.4 569.23c-2.65 0-4.29-.71-4.89-2.11-1.15-2.67 2.37-6.49 2.78-6.91.35-.37.95-.39 1.32-.03s.39.95.04 1.32c-1.29 1.36-2.9 3.78-2.42 4.89.27.63 1.4.98 3.18.98.52 0 .93.42.93.93s-.42.93-.93.93z" fill="#fe785e"/><path d="m537 556.76c1.67.16 3.48-.34 4.07-2.12 2.45-7.3-.46-25.24-2.19-30.96-.16-.53-4.2-.12-4.27-.04-1.99 2.12-7.97-.58-7.75 2.42.49 6.66 1.33 13.25 2.79 19.76.64 2.85 1.18 6.01 2.88 8.46.93 1.33 2.72 2.31 4.47 2.48z" fill="#431e41"/><path d="m476.42 557.25c2.49 0 4.14-2.04 4.52-4.5 1.21-7.84.97-17.35 1.21-20.65.22-3 .02-6.35-1.97-8.47-2.8-.75-8.33-.24-8.33-.24-1.02 3.09-2.9 18.86.04 29.22.69 2.44 1.99 4.63 4.52 4.63z" fill="#431e41"/><path d="m492.93 572.33c.94 6 6.77 10.62 13.84 10.62s12.9-4.63 13.84-10.62z" fill="#fff"/><path d="m464.55 529.82c-.7-9.31 9.71-19.07 17.68-22.45 33.09-14.02 52.77 5.41 56.66 16.05-6.16 12.02-40.65 16.67-54.73 16.67-7.96 0-19.03-2.8-19.6-10.28z" fill="#431e41"/></pattern><path d="m0 0h500v500h-500z" fill="#003549"/><path d="m0 0h500v500h-500z" fill="url(#a)"/></svg>