<svg fill="none" height="221" viewBox="0 0 221 221" width="221" xmlns="http://www.w3.org/2000/svg"><g fill="#f7a11e"><path d="m216.118 0c3.522 1.1266 4.719 3.59105 4.684 7.21731-.141 11.37169-.036 22.70809-.036 34.07979 0 5.8795-1.302 7.1821-7.183 7.7102-22.113 1.9364-43.24 7.4638-63.17 17.2863-39.296 19.3988-68.1346 49.0424-86.3743 88.8614-7.5706 16.476-12.2537 33.798-14.3665 51.823-.3169 2.676-.5633 5.352-.8098 8.063-.3521 3.837-2.2536 5.703-6.0917 5.703-12.2537 0-24.4722 0-36.72588 0-4.04936 0-6.302912-2.394-6.0212171-6.443 2.0774971-30.348 9.6128271-59.217 23.0988971-86.502 12.1129-24.539 28.0991-46.261 48.029-65.0964 27.1835-25.7007 58.6985-43.7968 94.6495-54.11224 15.387-4.47121 31.021-7.25252 46.972-8.273502.493 0 .986-.211239 1.444-.316858h1.866z"/><path d="m98.7577 220.744c-6.0916 0-12.1833 0-18.2749 0-4.5071 0-6.7255-2.429-6.2677-6.9 3.5916-34.362 16.8665-64.428 40.2819-89.917 19.543-21.3 43.241-36.0165 70.987-44.1844 9.472-2.7813 19.156-4.5416 28.98-5.457 3.697-.352 6.232 2.042 6.232 6.0555v31.8269 5.457c-.035 3.802-1.69 5.738-5.422 6.196-11.163 1.408-21.902 4.471-31.973 9.435-28.134 13.907-47.007 35.84-56.127 65.907-1.585 5.245-2.395 10.738-3.416 16.159-.669 3.662-2.465 5.422-6.197 5.422-6.268 0-12.536 0-18.8385 0z"/></g></svg>