<svg viewBox="0 0 455.44 737.15" xmlns="http://www.w3.org/2000/svg"><path d="m175.27 25.09c1.97-15.67 16.23-26.83 32-24.86l97.77 12.1c15.67 1.97 26.83 16.23 24.86 32l-78.53 633.15c-1.97 15.67-16.23 26.83-31.9 24.86l-97.77-12.1c-15.67-1.97-26.83-16.23-24.86-31.9z" fill="#c5d3cf"/><path d="m208.3 700.94 11.07 1.41c15.67 1.97 30.03-9.2 31.9-24.86l78.63-633.26c1.97-15.67-9.2-30.03-24.86-32l-11.07-1.41-85.57 690.01-.09.09z" fill="#ed193e"/><path d="m138.3 588.25-4.5 1.13s1.88 3.38 2.44 3.47c.38.09 13.79 1.69 19.99 2.44 0 .09.09.28.09.38.94 2.53 1.97 5.16 3.1 7.98.09.28.19.47.28.75.56 1.41 1.13 2.81 1.69 4.22 0 .19.19.47.28.66.56 1.41 1.13 2.72 1.69 4.13 0 .09 0 .19.09.28 2.16 5.35 4.41 10.79 6.57 15.95l-6.29 1.31v-.28s-.28-.38-.38-.56h-.09s-.28 0-.38.19c0 .09 0 .28.09.47v.28l-6.01 1.31s0-.09-.09-.19v-.09s-.28-.38-.38-.56h-.09s-.28 0-.38.19c0 .19 0 .28.09.47v.19l-4.69 1.03-1.31.28v-.19s-.28-.38-.38-.47h-.09s-.28 0-.38.19h-.09c0 .19 0 .28.09.47v.19l-6.01 1.31v-.19s-.28-.38-.38-.56h-.09s-.28.09-.38.19c0 .09 0 .28.09.47q.06.13 0 0c-.09-.19 0 .19 0 .28l-6.19 1.31s0 1.22.66 1.6h.66c.09 0 .28 0 .47.09h.09c.47 0 1.03.19 1.78.38h.19c.28 0 .66.09 1.03.19h.38c4.97.94 13.04 2.53 20.64 3.94.28.66.66 1.41 1.03 2.06.28.56.66 1.13 1.13 1.6h.66c.66-.19 1.6-.47 2.44-.94.09 0 .28-.19.38-.28h.19c.28-.19.47-.38.75-.66v-.28c1.88.38 3.66.66 5.16.94.19 0 .38 0 .56.09 1.03.19 1.97.38 2.81.56.47 1.13.94 2.25 1.41 3.28 1.03 2.35 1.88 4.41 2.63 6.01 0 .19.09.28.19.47.09.28.19.47.28.75 0 .19.09.28.19.47 0 .19.19.38.28.56 0 .09.09.28.19.38.09.28.19.47.38.66 3.66 7.88 9.01 13.23 11.92 11.92s2.25-8.82-1.5-16.8c0-.19-.19-.47-.28-.66 0-.09-.09-.28-.19-.47 0-.09-.09-.28-.19-.38-.09-.19-.19-.38-.28-.66 0-.09-.09-.28-.19-.38-.38-.75-.75-1.6-1.22-2.53-.19-.38-.38-.75-.56-1.13 0 0 0-.19-.09-.19-.38-.84-.84-1.69-1.31-2.63-.56-1.03-1.03-2.06-1.6-3.19.38-.75.84-1.5 1.41-2.44.84-1.5 1.88-3.28 2.91-5.16 0 .19.19.28.19.28.38 0 .66 0 .94-.09h.28c.19 0 .38 0 .47-.09.94-.38 1.69-.84 2.25-1.22.09 0 .19-.19.38-.28s0-.09.09-.09c0 0 .09 0 .09-.09-.09-.66-.38-1.31-.56-1.97-.28-.84-.66-1.6-.94-2.16 1.88-3.38 3.85-6.94 5.72-10.13 0-.19.19-.28.28-.47.28-.47.47-.84.75-1.31.19-.38.38-.75.56-1.03.09-.19.19-.28.28-.47.19-.38.38-.66.56-1.03 0-.09.09-.28.19-.38.19-.47.47-.84.66-1.22.38-.75.84-1.5 1.22-2.16 0-.09.09-.19.19-.28.19-.38.38-.66.56-.94.38-.66.66-1.22.84-1.6 0-.19.19-.38.28-.47v-.09c0-.09.09-.19.09-.28v-.19c0-.56-.47-1.22-.66-1.41l-.19-.09-4.97 3.85s0-.19-.09-.19c-.09-.09-.19-.28-.28-.38h-.09s-.28.09-.38.19c0 .19 0 .38.19.66q.13.19 0 0c-.19-.28 0 0 0 0v.19l-4.88 3.75s0-.09-.09-.19-.19-.28-.28-.38h-.09s-.28 0-.38.19c0 .19 0 .38.19.66v.19l-3.28 2.53-1.6 1.22s-.09-.09-.09-.19c-.09-.19-.19-.28-.28-.38h-.09s-.28 0-.38.19c0 .19 0 .38.09.66v.19l-4.88 3.75-.09-.19c-.09-.09-.19-.28-.28-.38h-.09s-.28 0-.38.19c0 .19 0 .38.09.66v.28l-4.97 3.85c-2.72-5.16-5.44-10.51-8.26-15.67s-.19-.38-.28-.56c-.66-1.22-1.22-2.35-1.88-3.47-.09-.19-.19-.38-.38-.66-.66-1.22-1.31-2.44-1.97-3.66-.19-.38-.38-.75-.66-1.13-.66-1.22-1.31-2.35-1.97-3.47 0-.09-.19-.28-.19-.38-.66-1.13-1.22-2.25-1.88-3.28 0-.09-.09-.19-.19-.28.28-.47.66-1.03 1.03-1.6 0 0 .09-.19.19-.28 2.06-3.19 4.88-7.51 6.94-10.7 0-.09.19-.28.28-.38.19-.28.38-.56.56-.84 0-.09.19-.28.19-.38.38-.56.75-1.13.94-1.5v-.09c.09-.19.28-.38.38-.56q.06-.13 0 0c-.09.19.19-.28.28-.38l.09-.19c.19-.28-.38-2.06-.75-3.19-.19-.56-.38-.94-.38-.94l-3.75 2.72-11.63 8.54h-.09s-.19-.19-.28-.28c-.09-.19-.28-.38-.38-.56-.28-.38-.56-.84-.75-1.13-.38.09-.75.19-1.13.38s-.75.38-1.03.66c0 .28.09.56.19.84 0 .19 0 .28.09.47 0 .09 0 .28.09.38s.09.38.19.56l-14.17 3.57v.19z" fill="#fff"/><path d="m186.58 629.41h105.84v7.22h-105.84z" fill="#fff" transform="matrix(.12256224 -.99246083 .99246083 .12256224 -418.11 793.14)"/><path d="m211.8 628.59h33.97v7.22h-33.97z" fill="#fff" transform="matrix(.12429422 -.99224541 .99224541 .12429422 -426.96 780.63)"/><path d="m216.17 592.18h33.97v7.22h-33.97z" fill="#fff" transform="matrix(.12290867 -.99241799 .99241799 .12290867 -386.78 753.95)"/><path d="m207.36 663.94h33.97v7.22h-33.97z" fill="#fff" transform="matrix(.12325508 -.99237502 .99237502 .12325508 -465.78 807.91)"/><path d="m310.67 29.97 3.56.47-12.95 104.99-3.66-.47z" fill="#fff"/><path d="m283.56 80.67h33.97v3.57h-33.97z" fill="#fff" transform="matrix(.12360148 -.99233194 .99233194 .12360148 181.58 370.5)"/><path d="m287.96 44.39h33.97v3.57h-33.97z" fill="#fff" transform="matrix(.12360148 -.99233194 .99233194 .12360148 221.43 343.08)"/><path d="m279.13 116.17h33.97v3.57h-33.97z" fill="#fff" transform="matrix(.12308188 -.99239652 .99239652 .12308188 142.61 397.3)"/><path d="m239.56 189.55h105.84v3.66h-105.84z" fill="#fff" transform="matrix(.12290867 -.99241799 .99241799 .12290867 66.6 458.12)"/><path d="m270.07 189.36h33.97v3.57h-33.97z" fill="#fff" transform="matrix(.11927045 -.9928618 .9928618 .11927045 63.03 453.35)"/><path d="m274.58 152.97h33.97v3.57h-33.97z" fill="#fff" transform="matrix(.12464058 -.99220196 .99220196 .12464058 101.68 424.75)"/><path d="m265.62 224.62h33.97v3.57h-33.97z" fill="#fff" transform="matrix(.12325508 -.99237502 .99237502 .12325508 23.1 478.95)"/><path d="m129.67 684.33 16.42 2.06c-13.98-1.69-23.74-15.58-21.86-30.87l76.75-618.42c1.88-15.29 14.73-26.37 28.71-24.58l-16.42-2.06c-13.98-1.69-26.83 9.29-28.71 24.58l-76.66 618.33c-1.88 15.29 7.88 29.18 21.86 30.87z" fill="#dedfe0"/><path d="m148.96 120.66h206.23v7.04h-206.23z" fill="#adafb2" transform="matrix(.12290867 -.99241799 .99241799 .12290867 97.86 359.08)"/><path d="m208.36 120.23h66.15v7.04h-66.15z" fill="#adafb2" transform="matrix(.12308188 -.99239652 .99239652 .12308188 88.91 348.11)"/><path d="m217.14 49.32h66.15v7.04h-66.15z" fill="#adafb2" transform="matrix(.12360148 -.99233194 .99233194 .12360148 166.86 294.61)"/><path d="m199.71 189.23h66.15v7.04h-66.15z" fill="#adafb2" transform="matrix(.12290867 -.99241799 .99241799 .12290867 12.89 400.07)"/><path d="m122.67 332.32h206.23v7.04h-206.23z" fill="#adafb2" transform="matrix(.12256224 -.99246083 .99246083 .12256224 -135.19 518.76)"/><path d="m182.1 331.89h66.15v7.04h-66.15z" fill="#adafb2" transform="matrix(.12290867 -.99241799 .99241799 .12290867 -144.14 507.73)"/><path d="m190.85 261.1h66.15v7.04h-66.15z" fill="#adafb2" transform="matrix(.12342828 -.9923535 .9923535 .12342828 -66.32 454.17)"/><path d="m173.44 400.98h66.24v7.04h-66.24z" fill="#adafb2" transform="matrix(.12290867 -.99241799 .99241799 .12290867 -220.26 559.77)"/><path d="m82.76 53.61c-.66-15.86 11.54-29.18 27.4-29.84l98.43-4.32c15.76-.66 29.18 11.54 29.84 27.4l27.77 637.38c.66 15.76-11.54 29.18-27.4 29.84l-98.43 4.32c-15.76.66-29.18-11.54-29.84-27.4z" fill="#e3f2ed"/><path d="m227.72 714.54 11.17-.47c15.86-.66 28.05-14.07 27.4-29.84l-27.87-637.37c-.66-15.86-14.07-28.05-29.84-27.4l-11.17.47s30.31 694.61 30.31 694.61z" fill="#ed193e"/><path d="m139.9 615.08-4.32 1.88s2.44 3 2.91 3c.38 0 13.89-.56 20.17-.84 0 .09.09.28.19.38 1.31 2.35 2.81 4.79 4.41 7.32.09.28.28.47.38.66.75 1.31 1.5 2.53 2.35 3.85.09.19.28.38.38.56.75 1.22 1.5 2.53 2.35 3.75 0 .09.09.19.19.28 3 4.88 6.1 9.95 9.1 14.64l-5.91 2.35s0-.09-.09-.09v-.09s-.38-.38-.47-.47h-.09s-.28.09-.38.28v.09c0 .09.09.28.19.47q.06.13 0 0c-.09-.19 0 0 0 .09v.09l-5.72 2.25s0-.09-.09-.09v-.09s-.38-.38-.47-.47h-.09s-.28.09-.38.28v.09c0 .09.09.28.19.47v.09l-4.5 1.78-1.22.47v-.09s-.38-.38-.47-.47h-.09s-.28.09-.38.28v.09c0 .09.09.28.19.47v.19l-5.72 2.25-.09-.09v-.09s-.38-.38-.47-.47h-.09s-.28.19-.38.28v.09c0 .09.19.28.19.47s0 .19.09.28l-5.91 2.35s.28 1.22.94 1.5h4.6c5.07.09 13.23.28 20.92.47.38.56.84 1.22 1.41 1.88.38.47.84 1.03 1.41 1.41h.28s.19 0 .28-.09c.56-.28 1.5-.66 2.25-1.41.09-.09.28-.19.38-.38h.09c.19-.28.47-.47.66-.75 0 0 0-.09-.09-.28h8.82c.66 1.03 1.31 2.06 1.88 3 1.41 2.16 2.53 4.03 3.57 5.44.09.19.19.28.28.47.19.19.28.47.47.66.09.19.19.28.28.47s.28.38.38.47c0 .09.19.28.19.38.19.28.28.47.47.66 4.97 7.22 11.07 11.54 13.7 9.76s.75-9.1-4.22-16.33c-.09-.19-.28-.38-.47-.66 0-.09-.19-.28-.28-.38 0-.09-.19-.28-.28-.38-.09-.19-.28-.38-.38-.56 0-.09-.19-.19-.28-.38-.47-.66-1.03-1.41-1.69-2.25-.28-.38-.47-.66-.75-1.03 0 0-.09-.09-.09-.19-.56-.75-1.13-1.5-1.78-2.35-.66-.94-1.41-1.88-2.16-2.91.28-.75.56-1.6.94-2.63.56-1.6 1.22-3.57 1.97-5.54.09.09.19.19.19.19.38 0 .66-.19.94-.28h.28c.19 0 .28-.19.47-.28.84-.47 1.6-1.13 1.97-1.6.09-.09.19-.19.28-.28s0-.09.09-.09c0 0 0-.09.09-.09-.19-.66-.56-1.22-.84-1.78-.47-.75-.84-1.41-1.31-1.97 1.31-3.66 2.72-7.51 3.94-10.98 0-.19.09-.38.19-.47.19-.47.38-.94.47-1.41.09-.38.28-.75.38-1.13 0-.19.09-.38.19-.47.09-.38.28-.75.38-1.13 0-.09.09-.28.19-.38.19-.47.28-.94.47-1.31.28-.84.56-1.6.84-2.35 0-.09 0-.28.09-.38v-.09c.09-.38.28-.75.38-1.03.28-.66.47-1.31.56-1.78 0-.19.09-.38.19-.47v-.09c0-.09 0-.19.09-.28v-.19c0-.56-.66-1.03-.94-1.31l-.19-.09-4.22 4.69s-.09-.19-.19-.19c-.09-.09-.28-.28-.38-.38h-.09s-.28.09-.38.28c0 .19.19.38.28.66s0 .09.09.19l-4.22 4.5s0-.09-.09-.19c-.09-.09-.28-.28-.38-.38h-.09s-.28.09-.38.28v.09c0 .19.19.38.28.56v.19l-2.81 3.1-1.31 1.5s-.09-.09-.19-.19c-.09-.09-.28-.28-.38-.38h-.09s-.28.09-.38.28v.09c0 .19.09.38.28.66s0 .09.09.19l-4.13 4.5s-.09-.09-.19-.19c-.09-.09-.28-.28-.38-.38h-.09s-.28.09-.38.28c0 .19.09.38.28.66s0 .19.09.28l-4.22 4.6c-3.47-4.6-7.13-9.48-10.79-14.07s-.28-.28-.38-.47c-.84-1.03-1.6-2.06-2.44-3.1-.19-.19-.28-.38-.47-.56-.84-1.13-1.69-2.16-2.53-3.28-.28-.38-.56-.66-.84-1.03-.84-1.03-1.69-2.16-2.53-3.1-.09-.09-.19-.28-.28-.38-.75-1.03-1.6-1.97-2.35-2.91 0 0-.19-.19-.19-.28.19-.56.47-1.13.75-1.69 0-.09 0-.19.09-.28 1.5-3.47 3.57-8.16 5.07-11.73 0-.09.09-.28.19-.38.19-.28.28-.66.38-.94 0-.09.09-.28.19-.38.28-.66.47-1.22.75-1.69v-.09c.09-.19.19-.47.28-.56q.06-.06 0 0c-.09.09.09-.28.19-.38v-.19c.09-.38-.75-1.97-1.31-3-.28-.47-.47-.84-.47-.84l-3.28 3.38-10.13 10.32h-.09s-.19-.09-.28-.28c-.19-.19-.28-.28-.47-.47-.38-.38-.66-.66-.94-1.03-.38.19-.75.38-1.03.56-.38.19-.66.47-.94.75.09.28.19.47.38.75 0 .09.09.28.19.38 0 .09.09.28.19.38 0 .19.19.38.28.47l-13.32 5.82.75-.09z" fill="#fff"/><path d="m243.57 589.52h7.22v105.84h-7.22z" fill="#fff" transform="matrix(.99901753 -.04431684 .04431684 .99901753 -28.23 11.59)"/><path d="m232.73 626.39h7.22v33.97h-7.22z" fill="#fff" transform="matrix(.99910815 -.04222441 .04222441 .99910815 -26.96 10.55)"/><path d="m231.06 589.82h7.22v33.97h-7.22z" fill="#fff" transform="matrix(.99906339 -.04327065 .04327065 .99906339 -26.04 10.72)"/><path d="m234.27 662.14h7.22v33.97h-7.22z" fill="#fff" transform="matrix(.99906339 -.04327065 .04327065 .99906339 -29.16 10.93)"/><path d="m219.49 35.82h3.66v105.84h-3.66z" fill="#fff" transform="matrix(.99908591 -.04274754 .04274754 .99908591 -3.59 9.54)"/><path d="m214.03 72.5h3.57v33.97h-3.57z" fill="#fff" transform="matrix(.99916613 -.04082935 .04082935 .99916613 -3.47 8.89)"/><path d="m212.39 35.89h3.57v33.97h-3.57z" fill="#fff" transform="matrix(.99903293 -.04396812 .04396812 .99903293 -2.12 9.47)"/><path d="m215.62 108.12h3.57v33.97h-3.57z" fill="#fff" transform="matrix(.99893866 -.04606039 .04606039 .99893866 -5.53 10.15)"/><path d="m221.9 145.28 3.57-.18 4.6 105.74-3.57.1z" fill="#fff"/><path d="m218.77 181.78h3.57v33.97h-3.57z" fill="#fff" transform="matrix(.99904059 -.04379375 .04379375 .99904059 -8.49 9.85)"/><path d="m217.25 145.16h3.57v33.97h-3.57z" fill="#fff" transform="matrix(.99917325 -.04065496 .04065496 .99917325 -6.41 9.04)"/><path d="m220.32 217.45h3.66v33.97h-3.66z" fill="#fff" transform="matrix(.99913012 -.04170127 .04170127 .99913012 -9.58 9.47)"/><path d="m147.4 711.26 16.51-.75c-14.07.66-25.99-11.45-26.65-26.83l-27.11-622.47c-.66-15.48 10.13-28.43 24.21-29.09l-16.51.75c-14.07.66-24.96 13.61-24.21 29.09l27.12 622.55c.66 15.39 12.57 27.4 26.65 26.83v-.09z" fill="#dedfe0"/><path d="m171.39 35.37h7.04v206.23h-7.04z" fill="#adafb2" transform="matrix(.99907843 -.04292191 .04292191 .99907843 -5.78 7.64)"/><path d="m160.91 106.79h7.04v66.15h-7.04z" fill="#adafb2" transform="matrix(.99906339 -.04327065 .04327065 .99906339 -5.9 7.25)"/><path d="m157.79 35.49h7.04v66.15h-7.04z" fill="#adafb2" transform="matrix(.99908591 -.04274754 .04274754 .99908591 -2.78 6.96)"/><path d="m163.9 176.31h7.04v66.15h-7.04z" fill="#adafb2" transform="matrix(.99908591 -.04274754 .04274754 .99908591 -8.8 7.35)"/><path d="m180.72 248.52h7.04v206.23h-7.04z" fill="#adafb2" transform="matrix(.99907843 -.04292191 .04292191 .99907843 -14.92 8.23)"/><path d="m170.21 319.84h7.04v66.15h-7.04z" fill="#adafb2" transform="matrix(.99906339 -.04327065 .04327065 .99906339 -15.11 7.85)"/><path d="m167.08 248.55h7.04v66.15h-7.04z" fill="#adafb2" transform="matrix(.99908591 -.04274754 .04274754 .99908591 -11.88 7.55)"/><path d="m173.16 389.47h7.04v66.15h-7.04z" fill="#adafb2" transform="matrix(.99910815 -.04222441 .04222441 .99910815 -17.68 7.84)"/><path d="m439.12 736.12c7.13-2.35 16.33-6.66 16.33-20.08v-580.14c-.38-11.54-6.57-20.17-15.39-22.43-3.47-.94-5.72-1.31-9.57-1.6h-430.49v625.27h431.33c2.81 0 6.38-.47 7.79-.94v-.09z" fill="#5e1e00"/><path d="m41.19 694.27v-543.83c1.97-33.78 82.01-38.28 82.01-38.28l-.19-.28h-123.01v625.27h116.53c-3.47-.56-7.32-.84-11.63-.94-62.77-.94-63.71-41.94-63.71-41.94z" fill="#5e1e00" opacity=".4"/><path d="m361.15 113.76h61.83s26.93-.84 29.84 20.45l-1.22 127.98-1.69-120.76s-5.72-22.99-25.99-25.24c-16.42-1.78-62.77-2.35-62.77-2.35v-.09z" fill="#294468"/><path d="m219.93 244.65c64.55-10.7 122.07 34.34 131.45 94.39 10.23 65.68-33.12 123.67-97.86 132.95-59.96 8.54-119.63-36.12-127.98-95.71-8.91-63.9 33.31-122.82 94.49-131.64h-.09zm101.15 181.37c13.23-10.6 28.24-52.45 23.08-64.74-13.79 0-27.87.09-42.6.19-.75 16.51-4.79 31.9-9.76 47.1 10.7 5.25 20.27 10.7 29.27 17.45zm-19.52-71.59h43.25c3.38-16.14-11.63-55.83-24.3-63.9-8.82 6.01-17.92 12.01-28.15 16.7 5.16 15.48 8.63 30.68 9.2 47.2zm-169.17 6.94c-4.03 14.73 11.17 54.98 23.64 64.18 8.82-5.44 17.64-10.88 26.93-16.51-6.85-15.29-9.2-30.87-10.7-47.57h-39.88v-.09zm-1.22-6.85h41c.94-12.48 2.44-24.02 5.25-35.28 1.13-4.41 6.47-9.76 2.53-13.04-7.41-6.19-16.42-10.51-24.96-15.76-15.29 18.86-22.8 39.69-23.93 64.18l.09-.09zm48.14 6.94c1.31 16.61 4.13 31.06 10.41 45.23 11.17-3.57 21.67-7.6 32.65-7.6 9.48 0 12.29-3.47 11.26-12.57-.94-8.16-.47-16.42-.56-25.15-18.3 0-35.47.09-53.76.19v-.09zm9.19-52.26c-5.72 14.82-9.1 29.27-8.82 45.32 18.2 0 35.47-.09 53.48-.19v-35.56c-15.58-1.6-30.21-4.5-44.66-9.66zm104.71 45.23c2.72-9.01-3.57-38.38-9.2-44.19-13.61 5.63-28.43 7.04-43.72 8.73v35.47h52.92zm-52.82 43.25c15.48.66 29.84 2.91 44.19 7.98 5.91-14.36 9.57-28.52 9.2-44.38-18.2 0-35.56.09-53.39.19v36.31-.09zm41.85-94.86c-9.38-20.64-22.89-37.44-42.13-52.36 0 21.39 0 40.63.09 59.49 7.41 2.72 30.03-1.31 42.04-7.13zm-49.17-50.85c-12.01 4.22-38.28 37.53-40.35 49.82 5.82 5.44 33.68 10.98 40.44 7.51 0-18.67 0-37.72-.09-57.33zm47.38 159.88c-12.67-4.22-25.62-7.32-40.06-6.76 0 18.95.09 37.34.19 55.92 11.63-3.38 39.41-38 39.88-49.17zm-86.98 2.82c8.91 18.77 21.96 33.97 38.09 46.73 2.25-2.91 2.81-50.29 1.03-55.36-6.66-2.06-33.31 3.57-39.03 8.63zm58.37 48.88c15.58 3.28 58.92-19.14 63.8-32.37-7.69-6.94-16.98-11.45-27.02-15.95-9.48 18.11-21.21 34.25-36.87 48.32zm63.61-179.02c-6.85-13.51-47.29-34.81-60.99-32 14.07 14.07 26.18 28.99 34.53 47.38 10.41-3.1 18.67-8.91 26.46-15.39zm-93.36 178.46c-15.29-13.61-26.93-28.99-36.22-46.73-9.01 4.88-17.45 8.82-24.49 15.01 6.94 13.61 47.1 35 60.71 31.71zm-37.25-163.73c8.73-17.08 18.86-32.28 32.75-45.23-10.79-3.57-48.32 16.89-56.67 30.4 6.94 6.19 14.73 10.88 23.93 14.73v.09z" fill="#fff"/><g fill="#5e1e00"><path d="m321.08 426.02c-9.01-6.76-18.48-12.29-29.27-17.45 4.97-15.2 9.01-30.59 9.76-47.1 14.64 0 28.71-.09 42.6-.19 5.25 12.29-9.76 54.14-23.08 64.74z"/><path d="m301.56 354.43c-.66-16.61-4.03-31.71-9.2-47.2 10.32-4.69 19.42-10.7 28.15-16.7 12.57 8.07 27.59 47.76 24.3 63.9z"/><path d="m132.39 361.37h39.88c1.41 16.7 3.75 32.28 10.7 47.57-9.2 5.63-18.11 11.17-26.93 16.51-12.48-9.1-27.68-49.45-23.64-64.18v.09z"/><path d="m131.17 354.52c1.13-24.49 8.63-45.32 23.93-64.18 8.54 5.25 17.55 9.48 24.96 15.76 3.94 3.28-1.5 8.63-2.53 13.04-2.81 11.35-4.32 22.89-5.25 35.28h-41l-.09.09z"/><path d="m179.31 361.46c18.3 0 35.47-.09 53.76-.19.19 8.73-.28 17.08.56 25.15 1.03 9.1-1.78 12.57-11.26 12.57-10.98 0-21.49 4.03-32.65 7.6-6.38-14.17-9.1-28.62-10.41-45.23v.09z"/><path d="m188.5 309.2c14.45 5.16 29.09 8.07 44.66 9.66v35.47c-17.92 0-35.28.09-53.48.19-.28-16.04 3.1-30.49 8.82-45.32z"/><path d="m293.21 354.43h-52.83v-35.47c15.29-1.78 30.12-3.1 43.72-8.73 5.63 5.82 11.92 35.09 9.2 44.19h-.09z"/><path d="m240.39 397.68v-36.31c17.83 0 35.19-.09 53.39-.19.38 15.95-3.28 30.03-9.2 44.38-14.45-5.07-28.71-7.32-44.19-7.98v.09z"/><path d="m282.24 302.82c-12.01 5.82-34.62 9.76-42.04 7.13 0-18.86 0-38.19-.09-59.49 19.23 14.92 32.75 31.71 42.13 52.36z"/><path d="m233.07 251.97c0 19.61 0 38.66.09 57.33-6.76 3.47-34.62-2.06-40.44-7.51 2.06-12.29 28.34-45.6 40.35-49.82z"/><path d="m280.45 411.85c-.56 11.26-28.24 45.88-39.88 49.17 0-18.58-.09-36.97-.19-55.92 14.36-.66 27.3 2.44 40.06 6.76z"/><path d="m193.47 414.67c5.72-5.16 32.46-10.7 39.03-8.73 1.88 5.16 1.31 52.54-1.03 55.36-16.14-12.76-29.18-27.96-38.09-46.73l.09.09z"/><path d="m251.84 463.55c15.58-14.07 27.4-30.21 36.87-48.32 9.95 4.5 19.23 9.01 27.02 15.95-4.88 13.23-48.23 35.65-63.8 32.37z"/><path d="m315.45 284.62c-7.79 6.47-15.95 12.39-26.46 15.39-8.35-18.39-20.45-33.31-34.53-47.38 13.7-2.91 54.14 18.48 60.99 32z"/><path d="m222.09 462.99c-13.61 3.28-53.76-18.02-60.71-31.71 7.04-6.19 15.48-10.13 24.49-15.01 9.29 17.73 21.02 33.12 36.22 46.73z"/><path d="m184.84 299.26c-9.2-3.85-16.98-8.63-23.93-14.73 8.35-13.51 45.88-34.06 56.67-30.4-13.89 12.95-24.02 28.15-32.75 45.23v-.09z"/></g><path d="m264.75 622.68c.66 4.69 1.13 8.35-.19 12.76-6.19-.47-12.67 3.66-17.92-4.13-3.94-5.72-12.67-5.25-17.36 0-4.41 4.97-9.57 6.1-17.36 3.66 0-3.75 0-7.6.09-12.2h52.73v-.09z" fill="#fff"/><path d="m212.58 653.55c-1.5-3.57-.66-7.22-.28-11.54 4.32-.09 8.63-.19 13.23-.28 3.47 4.97 6.94 10.32 14.54 8.82 2.63-.47 5.44-1.31 6.57-3.47 4.22-8.44 11.35-4.88 17.64-5.25 2.25 3.94.66 7.6 1.03 11.17-3.57 1.88-47.2 2.25-52.64.47l-.09.09z" fill="#fff"/><path d="m239.42 645.86c-3.94.09-7.04-1.13-7.79-5.54-.66-4.13.84-7.22 5.16-7.98 4.13-.66 7.13 1.03 7.79 5.35.66 4.03-.84 7.04-5.16 8.07v.09z" fill="#fff"/><text fill="#fff" font-family="NewKansas-Bold, 'New Kansas'" font-size="45.62" font-weight="700" transform="translate(107.83 562.3)"><tspan letter-spacing="-.07em" x="0" y="0">P</tspan><tspan letter-spacing="0em" x="28.15" y="0">A</tspan><tspan x="64.91" y="0">S</tspan><tspan letter-spacing="0em" x="95.8" y="0">S</tspan><tspan letter-spacing="0em" x="126.41" y="0">P</tspan><tspan letter-spacing="-.02em" x="157.84" y="0">O</tspan><tspan letter-spacing="-.05em" x="194.88" y="0">R</tspan><tspan letter-spacing="-.02em" x="228.13" y="0">T</tspan></text></svg>