<svg fill="none" height="60" viewBox="0 0 80 60" width="80" xmlns="http://www.w3.org/2000/svg" xmlns:xlink="http://www.w3.org/1999/xlink"><clipPath id="a"><path d="m0 0h80v60h-80z"/></clipPath><g clip-path="url(#a)"><path d="m32 0h48v60h-48z" fill="#f00"/><path d="m0 0h32v60h-32z" fill="#060"/><path d="m42.4375 38.2749c-4.0375-.125-22.5-11.65-22.625-13.5l1.0125-1.6875c1.8375 2.6625 20.7125 13.875 22.575 13.475z" style="fill-rule:evenodd;clip-rule:evenodd;fill:#ff0;stroke:#000;stroke-width:.075;stroke-linecap:round;stroke-linejoin:round"/><path d="m20.6119 22.8501c-.3625.975 4.825 4.175 11.05 7.975s11.6125 6.125 12 5.8l.1875-.35c-.075.1333-.2542.1583-.5375.075-1.6875-.4875-6.075-2.5-11.5125-5.8-5.45-3.3-10.175-6.3375-10.9125-7.625-.0592-.1202-.0851-.254-.075-.3875h-.025l-.15.275zm21.9125 15.475c-.0583.1083-.2042.1417-.4375.1-1.5-.1625-6.075-2.3875-11.4875-5.625-6.3-3.775-11.5-7.2-10.925-8.1l.15-.275.025.0125c-.5 1.525 10.2625 7.675 10.9 8.075 6.225 3.85 11.475 6.1125 11.9375 5.525z" style="fill-rule:evenodd;clip-rule:evenodd;fill:#ff0;stroke:#000;stroke-width:.075;stroke-linecap:round;stroke-linejoin:round"/><path d="m32.0246 25.9c4.025-.0375 9-.55 11.875-1.7l-.625-1c-1.6875.9375-6.6875 1.5625-11.2875 1.65-5.425-.05-9.2625-.5625-11.1875-1.85l-.575 1.075c3.525 1.5 7.15 1.8125 11.8 1.825z" style="fill-rule:evenodd;clip-rule:evenodd;fill:#ff0;stroke:#000;stroke-width:.075;stroke-linecap:round;stroke-linejoin:round"/><path clip-rule="evenodd" d="m44.0629 24.2252c-.1.1625-1.975.8-4.725 1.275-2.4242.3675-4.8731.5472-7.325.5375-2.3492.0088-4.6962-.1415-7.025-.45-2.8875-.45-4.375-1.075-4.9375-1.3l.1375-.275c1.5875.625 3.0875 1 4.8375 1.275 2.3118.312 4.6422.4665 6.975.4625 2.4391.0025 4.8751-.1772 7.2875-.5375 2.8125-.4625 4.35-1.05 4.575-1.3125zm-.55-1.0125c-.3.25-1.825.7875-4.5 1.2125-2.3099.3343-4.641.5014-6.975.5-2.75 0-5.0125-.2-6.725-.45-2.725-.35-4.175-1-4.7-1.175l.1625-.275c.4125.2125 1.8.775 4.5625 1.1625 2.2207.2975 4.4595.4395 6.7.425 2.3174.0007 4.6318-.1664 6.925-.5 2.6875-.375 4.1375-1.05 4.3625-1.225zm-24.725 7.5375c2.475 1.3375 7.9875 2 13.2 2.05 4.75.0125 10.925-.725 13.2375-1.95l-.0625-1.3375c-.725 1.125-7.35 2.2125-13.225 2.175s-11.3375-.95-13.1625-2.125v1.1875" fill="#ff0" fill-rule="evenodd"/><path d="m18.7879 30.7502c2.475 1.3375 7.9875 2 13.2 2.05 4.75.0125 10.925-.725 13.2375-1.95l-.0625-1.3375c-.725 1.125-7.35 2.2125-13.225 2.175s-11.3375-.95-13.1625-2.125v1.1875m25.2875-6.525c-.1.1625-1.975.8-4.725 1.275-2.4242.3675-4.8731.5472-7.325.5375-2.3492.0088-4.6962-.1415-7.025-.45-2.8875-.45-4.375-1.075-4.9375-1.3l.1375-.275c1.5875.625 3.0875 1 4.8375 1.275 2.3118.312 4.6422.4665 6.975.4625 2.4391.0025 4.8751-.1772 7.2875-.5375 2.8125-.4625 4.35-1.05 4.575-1.3125zm-.55-1.0125c-.3.25-1.825.7875-4.5 1.2125-2.3099.3343-4.641.5014-6.975.5-2.75 0-5.0125-.2-6.725-.45-2.725-.35-4.175-1-4.7-1.175l.1625-.275c.4125.2125 1.8.775 4.5625 1.1625 2.2207.2975 4.4595.4395 6.7.425 2.3174.0007 4.6318-.1664 6.925-.5 2.6875-.375 4.1375-1.05 4.3625-1.225z" stroke="#000" stroke-linecap="round" stroke-linejoin="round" stroke-width=".075"/><path clip-rule="evenodd" d="m45.35 30.5627v.3125c-.35.425-2.525 1.05-5.25 1.5-2.7072.3891-5.44.573-8.175.55-2.5934.0221-5.1845-.1576-7.75-.5375-1.9143-.2212-3.7849-.7268-5.55-1.5v-.3625c1.2125.8 4.4875 1.4 5.5875 1.575 1.975.3 4.5125.525 7.7125.525 3.3625 0 6.05-.2375 8.125-.55 1.9625-.2875 4.75-1.025 5.3-1.5125zm0-1.125v.3125c-.35.4125-2.525 1.0375-5.25 1.4875-2.7069.3933-5.4397.5814-8.175.5625-2.5932.0153-5.1838-.1644-7.75-.5375-1.9143-.2212-3.7849-.7268-5.55-1.5v-.375c1.2125.8125 4.5 1.4 5.5875 1.575 2.5535.374 5.1318.5537 7.7125.5375 3.3625 0 6.0625-.25 8.125-.5625 1.9625-.275 4.75-1.0125 5.3-1.5zm-13.375 8.6c-5.7-.025-10.5875-1.55-11.625-1.8l.75 1.175c3.5063 1.2412 7.206 1.8466 10.925 1.7875 4.3375-.125 8.125-.4625 10.7875-1.7625l.775-1.225c-1.8125.8625-8 1.825-11.625 1.825" fill="#ff0" fill-rule="evenodd"/><path d="m31.975 38.0377c-5.7-.025-10.5875-1.55-11.625-1.8l.75 1.175c3.5063 1.2412 7.206 1.8466 10.925 1.7875 4.3375-.125 8.125-.4625 10.7875-1.7625l.775-1.225c-1.8125.8625-8 1.825-11.625 1.825m13.3875-7.475v.3125c-.35.425-2.525 1.05-5.25 1.5-2.7072.3891-5.44.573-8.175.55-2.5934.0221-5.1845-.1576-7.75-.5375-1.9143-.2212-3.7849-.7268-5.55-1.5v-.3625c1.2125.8 4.4875 1.4 5.5875 1.575 1.975.3 4.5125.525 7.7125.525 3.3625 0 6.05-.2375 8.125-.55 1.9625-.2875 4.75-1.025 5.3-1.5125zm0-1.125v.3125c-.35.4125-2.525 1.0375-5.25 1.4875-2.7069.3933-5.4397.5814-8.175.5625-2.5932.0153-5.1838-.1644-7.75-.5375-1.9143-.2212-3.7849-.7268-5.55-1.5v-.375c1.2125.8125 4.5 1.4 5.5875 1.575 2.5535.374 5.1318.5537 7.7125.5375 3.3625 0 6.0625-.25 8.125-.5625 1.9625-.275 4.75-1.0125 5.3-1.5z" stroke="#000" stroke-linecap="round" stroke-linejoin="round" stroke-width=".075"/><g clip-rule="evenodd" fill-rule="evenodd"><path d="m43.1125 37.1628-.35.5c-1.25.45-3.25.925-4.075 1.05-2.2138.4122-4.4606.6214-6.7125.625-5.05-.075-9.1875-1.0625-11.125-1.9125l-.1625-.2625.025-.05.2625.1125c3.5578 1.1762 7.2779 1.7878 11.025 1.8125 2.35 0 4.6875-.2625 6.575-.6 2.9-.5875 4.075-1.025 4.4375-1.225l.0875-.05zm.6625-1.1-.25.4375c-.675.25-2.5.775-5.1625 1.15-1.75.2375-2.8375.475-6.325.5375-3.9868-.0394-7.9491-.6283-11.775-1.75l-.1375-.3125c3.8873 1.0744 7.8929 1.6622 11.925 1.75 3.1875-.0625 4.55-.3 6.2875-.5375 3.1-.475 4.6625-1 5.125-1.1375v-.025l.325-.125z" fill="#ff0" stroke="#000" stroke-linecap="round" stroke-linejoin="round" stroke-width=".075"/><path d="m43.8504 29.7c.0125 3.75-1.9125 7.125-3.45 8.6-2.2687 2.218-5.3026 3.4799-8.475 3.525-3.7875.0625-7.35-2.4-8.3125-3.4875-2.1532-2.2834-3.3787-5.287-3.4375-8.425.225-4.1 1.8375-6.95 4.1625-8.9125 2.2607-1.8555 5.1004-2.8596 8.025-2.8375 1.708.0813 3.38.5192 4.9085 1.2856 1.5286.7664 2.8797 1.8443 3.9665 3.1644 1.5625 1.9 2.25 3.9625 2.6125 7.0875zm-11.9-12.825c3.4969-.0001 6.852 1.3821 9.334 3.8454s3.8896 5.8078 3.916 9.3046c0 1.7351-.3417 3.4532-1.0057 5.0562s-1.6372 3.0596-2.8641 4.2864c-1.2269 1.2269-2.6835 2.2002-4.2865 2.8642-1.603.6639-3.3211 1.0057-5.0562 1.0057s-3.4532-.3418-5.0562-1.0057c-1.603-.664-3.0595-1.6373-4.2864-2.8642-1.2269-1.2268-2.2002-2.6834-2.8641-4.2864-.664-1.603-1.0058-3.3211-1.0058-5.0562-.0125-7.25 5.9125-13.15 13.175-13.15z" fill="#ff0" stroke="#000" stroke-linecap="round" stroke-linejoin="round" stroke-width=".075"/><path d="m31.9883 16.8125c7.275 0 13.2 5.925 13.2 13.2s-5.925 13.2-13.1875 13.2-13.2-5.925-13.2-13.2 5.925-13.2 13.2-13.2zm-12.9125 13.1875c0 7.1 5.8375 12.9125 12.9125 12.9125s12.9125-5.8125 12.9125-12.9125-5.8375-12.9125-12.9125-12.9125-12.9125 5.8125-12.9125 12.9125z" fill="#ff0" stroke="#000" stroke-linecap="round" stroke-linejoin="round" stroke-width=".075"/><path d="m31.9996 17.9126c3.2028.0099 6.2715 1.2866 8.5362 3.5513s3.5414 5.3334 3.5513 8.5362c-.0066 3.2049-1.2818 6.2769-3.5469 8.5443-2.265 2.2674-5.3357 3.5458-8.5406 3.5557-6.625 0-12.0875-5.45-12.0875-12.1.0099-3.2028 1.2866-6.2715 3.5513-8.5362s5.3334-3.5414 8.5362-3.5513zm-11.8 12.0875c0 6.5 5.325 11.8 11.8 11.8s11.8-5.3125 11.8-11.8-5.325-11.8-11.8-11.8c-3.1235.0197-6.1134 1.2692-8.3221 3.4779-2.2087 2.2086-3.4582 5.1986-3.4779 8.3221z" fill="#ff0" stroke="#000" stroke-linecap="round" stroke-linejoin="round" stroke-width=".075"/><path d="m32.5379 16.75h-1.1375v26.5375h1.125z" fill="#ff0" stroke="#000" stroke-linecap="round" stroke-linejoin="round" stroke-width=".075"/><path d="m32.4121 16.6001h.2875v26.8375h-.275v-26.8375zm-1.125 0h.3v26.8375h-.2875z" fill="#ff0" stroke="#000" stroke-linecap="round" stroke-linejoin="round" stroke-width=".075"/><path d="m45.2008 30.525v-.975l-.8-.75-4.5375-1.2-6.525-.6625-7.875.4-5.6 1.325-1.125.8375v.9875l2.8625-1.2875 6.8-1.0625h6.5375l4.8.525 3.325.8z" fill="#ff0" stroke="#000" stroke-linecap="round" stroke-linejoin="round" stroke-width=".075"/><path d="m32 27.9752c3.1125 0 6.125.2875 8.5375.75 2.475.5 4.2125 1.125 4.8125 1.8125v.35c-.725-.875-3.0625-1.5-4.875-1.875-2.375-.45-5.375-.75-8.4875-.75-3.2625 0-6.3125.325-8.6625.775-1.875.375-4.3875 1.125-4.7 1.85v-.3626c.1625-.5 2.0375-1.25 4.6625-1.7875 2.3625-.4625 5.4125-.7624 8.7-.7624zm0-1.1376c2.8625-.0057 5.7198.2453 8.5375.75 2.475.5 4.2125 1.1251 4.8125 1.8251v.3374c-.725-.8625-3.0625-1.4999-4.875-1.8624-2.375-.4625-5.375-.75-8.4875-.75-2.9011-.0092-5.7968.2502-8.65.775-1.8125.3375-4.425 1.1124-4.7125 1.8374v-.35c.175-.5 2.075-1.2875 4.6625-1.7875 2.375-.4625 5.4125-.775 8.7125-.775zm-.075-5.775c4.9125-.025 9.2.6875 11.1625 1.6875l.7125 1.25c-1.7-.925-6.325-1.875-11.8625-1.75-4.5125.0375-9.3375.5-11.75 1.8l.85-1.425c1.9875-1.0375 6.6625-1.5625 10.8875-1.5625z" fill="#ff0" stroke="#000" stroke-linecap="round" stroke-linejoin="round" stroke-width=".075"/><path d="m31.9996 22.0874c2.5649-.0433 5.1287.1366 7.6625.5375 2 .375 3.9125.925 4.1875 1.225l.2125.375c-.6625-.425-2.325-.9125-4.45-1.3125s-4.8375-.5375-7.625-.525c-3.1625-.0125-5.625.15-7.725.525-1.4476.2031-2.853.6378-4.1625 1.2875l.2125-.3875c.75-.375 1.9125-.8375 3.8875-1.2 2.1875-.4 4.675-.5125 7.8-.525zm0-1.125c2.675-.025 5.325.125 7.3875.5 1.3363.1984 2.6295.621 3.825 1.25l.3125.5c-.525-.5875-2.5-1.15-4.2625-1.45-2.05-.3625-4.5875-.5-7.2625-.525-2.4901-.0222-4.9777.1618-7.4375.55-1.2863.1786-2.5355.5627-3.7 1.1375l.275-.4125c.725-.375 1.9-.725 3.375-1.0125 2.476-.3933 4.9807-.5773 7.4875-.55zm6.55 14.5375c-2.1666-.3754-4.3641-.5428-6.5625-.5-8.1875.1-10.825 1.6875-11.15 2.1625l-.625-1c2.1-1.5 6.55-2.35 11.825-2.275 2.7417.0417 5.1.25 7.075.625l-.5625 1" fill="#ff0"/></g><path d="m38.5496 35.4999c-2.1666-.3754-4.3641-.5428-6.5625-.5-8.1875.1-10.825 1.6875-11.15 2.1625l-.625-1c2.1-1.5 6.55-2.35 11.825-2.275 2.7417.0417 5.1.25 7.075.625l-.5625 1m-6.55-13.425c2.5649-.0433 5.1287.1366 7.6625.5375 2 .375 3.9125.925 4.1875 1.225l.2125.375c-.6625-.425-2.325-.9125-4.45-1.3125s-4.8375-.5375-7.625-.525c-3.1625-.0125-5.625.15-7.725.525-1.4476.2031-2.853.6378-4.1625 1.2875l.2125-.3875c.75-.375 1.9125-.8375 3.8875-1.2 2.1875-.4 4.675-.5125 7.8-.525zm0-1.125c2.675-.025 5.325.125 7.3875.5 1.3363.1984 2.6295.621 3.825 1.25l.3125.5c-.525-.5875-2.5-1.15-4.2625-1.45-2.05-.3625-4.5875-.5-7.2625-.525-2.4901-.0222-4.9777.1618-7.4375.55-1.2863.1786-2.5355.5627-3.7 1.1375l.275-.4125c.725-.375 1.9-.725 3.375-1.0125 2.476-.3933 4.9807-.5773 7.4875-.55z" stroke="#000" stroke-linecap="round" stroke-linejoin="round" stroke-width=".075"/><path d="m31.9508 34.8624c2.275.0375 4.5.125 6.6625.525l-.15.275c-2-.375-4.15-.5-6.5-.5-3.0375-.025-6.0875.2625-8.75 1.025-.8375.2375-2.225.775-2.375 1.225l-.15-.25c.05-.275.875-.825 2.45-1.25 3.05-.875 5.9-1.0375 8.8125-1.05zm.1-1.15c2.4012-.0024 4.798.2067 7.1625.625l-.1625.2875c-2.3089-.4235-4.6526-.6286-7-.6125-3.025 0-6.2375.225-9.1625 1.075-.9375.275-2.575.875-2.625 1.3375l-.15-.275c.025-.425 1.4375-.9875 2.7125-1.35 2.9375-.8625 6.1625-1.075 9.225-1.0875z" style="fill-rule:evenodd;clip-rule:evenodd;fill:#ff0;stroke:#000;stroke-width:.075;stroke-linecap:round;stroke-linejoin:round"/><path d="m43.6746 36.3126-.975 1.5375-2.8375-2.5125-7.325-4.9375-8.275-4.5375-4.2875-1.4625.9125-1.7.3125-.1625 2.6625.6625 8.8 4.5375 5.075 3.2 4.2625 3.0625 1.7375 2z" style="fill-rule:evenodd;clip-rule:evenodd;fill:#ff0;stroke:#000;stroke-width:.075;stroke-linecap:round;stroke-linejoin:round"/><path d="m19.8246 24.4377c.75-.5 6.275 1.95 12.075 5.45 5.7625 3.5 11.2875 7.45 10.7875 8.1875l-.1625.2625-.075.0625c.0125-.0125.1-.125 0-.3875-.25-.8125-4.175-3.9375-10.6625-7.8625-6.3375-3.7625-11.6125-6.0375-12.125-5.3875zm24.05 11.8625c.475-.95-4.65-4.8125-11.0125-8.575-6.5-3.6875-11.2-5.8625-12.0625-5.2125l-.175.3625c-.0083 0 .0083-.0208.05-.0625.15-.125.4125-.125.525-.125 1.475.025 5.6875 1.9625 11.6 5.35 2.6 1.5 10.95 6.875 10.9125 8.375 0 .125.0125.15-.0375.225l.2125-.325z" style="fill-rule:evenodd;clip-rule:evenodd;fill:#ff0;stroke:#000;stroke-width:.075;stroke-linecap:round;stroke-linejoin:round"/><path d="m24.0801 31.4708c.0042 1.0347.2124 2.0584.6128 3.0125.4004.954.9851 1.8198 1.7205 2.5475.7283.7395 1.5957 1.3276 2.5522 1.7303.9565.4028 1.9833.6123 3.0212.6164 1.0404.0029 2.0711-.2007 3.0324-.599.9613-.3982 1.834-.9832 2.5676-1.721.7346-.7304 1.3178-1.5988 1.7159-2.5553.3981-.9564.6034-1.982.6041-3.018v-10.5601l-15.8267-.0266z" fill="#fff" stroke="#000" stroke-width=".093334"/><path d="m24.4004 31.4842c-.0002.9933.1979 1.9766.5825 2.8924.3847.9158.9481 1.7456 1.6575 2.4409 1.4196 1.427 3.3472 2.2326 5.36 2.24 2.009-.0003 3.9361-.7961 5.36-2.2133.707-.6964 1.268-1.5268 1.6503-2.4425.3823-.9158.5783-1.8985.5764-2.8909v-10.2667h-15.1867zm12.1334-7.1601v6.5201l-.0134.68c.0061.5959-.109 1.1868-.3382 1.7368-.2292.5501-.5678 1.0479-.9951 1.4632-.8479.8508-1.9988 1.3304-3.2 1.3333-1.2534 0-2.36-.5333-3.1867-1.36-.8508-.8479-1.3304-1.9988-1.3333-3.2v-7.2z" fill="#f00" stroke="#000" stroke-width=".066667"/><path d="m25.3594 23.9242c.0133-.7333.5333-.9066.5333-.9066.0133 0 .5733.1866.5733.92z" fill="#ff0"/><path d="m24.9067 23.0309-.0933.84h.56c0-.6933.5333-.8.5333-.8.0133 0 .5333.1467.5467.8h.56l-.1067-.8533zm-.1333.8533h2.2666c.0445 0 .0711.0312.08.0934 0 .0711-.0266.1066-.08.1066h-2.2666c-.0445 0-.0712-.0355-.08-.1066 0-.0622.0311-.0934.0933-.0934z" fill="#ff0" stroke="#000" stroke-width=".066667"/><path d="m25.5994 23.871c0-.44.3067-.56.3067-.56s.3067.1333.3067.56zm-.7733-1.2h2.1733c.0445.0089.0711.0445.08.1067 0 .0444-.0266.0711-.08.08h-2.1733c-.0445 0-.0711-.0311-.08-.0934 0-.0444.0267-.0711.08-.08zm.0533.2h2.0534c.0444 0 .0711.0311.08.0933.0089.0623-.0178.0934-.08.0934h-2.0667c-.0533 0-.08-.0311-.08-.0934 0-.0622.0267-.0933.08-.0933zm.6667-1.4133h.16v.1066h.12v-.1066h.1733v.12h.12v-.1334h.16v.2667c0 .0533-.0222.08-.0666.08h-.5867c-.0444 0-.0711-.0222-.08-.0667zm.6133.36.04.8533h-.5733l.04-.8667h.4933" fill="#ff0"/><path d="m26.1594 21.8177.04.8533h-.5733l.04-.8667h.4933m-.56 2.0667c0-.44.3067-.56.3067-.56s.3067.1333.3067.56zm-.7733-1.2h2.1733c.0445.0089.0711.0445.08.1067 0 .0444-.0266.0711-.08.08h-2.1733c-.0445 0-.0711-.0311-.08-.0934 0-.0444.0267-.0711.08-.08zm.0533.2h2.0534c.0444 0 .0711.0311.08.0933.0089.0623-.0178.0934-.08.0934h-2.0667c-.0533 0-.08-.0311-.08-.0934 0-.0622.0267-.0933.08-.0933zm.6667-1.4133h.16v.1066h.12v-.1066h.1733v.12h.12v-.1334h.16v.2667c0 .0533-.0222.08-.0666.08h-.5867c-.0444 0-.0711-.0222-.08-.0667z" stroke="#000" stroke-width=".066667"/><path d="m25.4669 22.2178v.4533h-.5333v-.4533z" fill="#ff0" stroke="#000" stroke-width=".066667"/><path d="m26.881 22.2178v.4533h-.5333v-.4533z" fill="#ff0" stroke="#000" stroke-width=".066667"/><path d="m24.8398 21.8711h.16v.1333h.12v-.1333h.16v.1333h.12v-.1333h.16v.2667c0 .0533-.0222.08-.0666.08h-.5734c-.0183-.0067-.035-.0173-.0489-.0311-.0138-.0139-.0244-.0306-.0311-.0489z" fill="#ff0" stroke="#000" stroke-width=".066667"/><path d="m26.2539 21.8711h.16v.1333h.12v-.1333h.16v.1333h.12v-.1333h.16v.2667c0 .0533-.0222.08-.0667.08h-.5733c-.0184-.0067-.0351-.0173-.0489-.0311-.0138-.0139-.0244-.0306-.0311-.0489z" fill="#ff0" stroke="#000" stroke-width=".066667"/><path d="m25.8535 22.0844c0-.08.12-.08.12 0v.2133h-.12z" fill="#000001"/><path d="m25.1465 22.3779c0-.08.1066-.08.1066 0v.16h-.1066z" fill="#000001"/><path d="m26.5605 22.3779c0-.08.1067-.08.1067 0v.16h-.1067z" fill="#000001"/><path d="m25.3594 30.0976c.0133-.7333.5333-.9067.5333-.9067.0133 0 .5733.1867.5733.92z" fill="#ff0"/><path d="m24.9067 29.2043-.0933.84h.56c0-.6934.5333-.8.5333-.8.0133 0 .5333.1466.5467.8h.56l-.1067-.8534zm-.1333.8533h2.2666c.0445 0 .0711.0311.08.0933 0 .0711-.0266.1067-.08.1067h-2.2666c-.0445 0-.0712-.0356-.08-.1067 0-.0622.0311-.0933.0933-.0933z" fill="#ff0" stroke="#000" stroke-width=".066667"/><path d="m25.5994 30.0443c0-.44.3067-.56.3067-.56s.3067.1334.3067.56zm-.7733-1.2h2.1733c.0445.0089.0711.0445.08.1067 0 .0445-.0266.0711-.08.08h-2.1733c-.0445 0-.0711-.0311-.08-.0933 0-.0445.0267-.0711.08-.08zm.0533.2h2.0534c.0444 0 .0711.0312.08.0934s-.0178.0933-.08.0933h-2.0667c-.0533 0-.08-.0311-.08-.0933s.0267-.0934.08-.0934zm.6667-1.4133h.16v.1067h.12v-.1067h.1733v.12h.12v-.1333h.16v.2666c0 .0534-.0222.08-.0666.08h-.5867c-.0444 0-.0711-.0222-.08-.0666zm.6133.36.04.8533h-.5733l.04-.8666h.4933" fill="#ff0"/><path d="m26.1594 27.991.04.8533h-.5733l.04-.8666h.4933m-.56 2.0666c0-.44.3067-.56.3067-.56s.3067.1334.3067.56zm-.7733-1.2h2.1733c.0445.0089.0711.0445.08.1067 0 .0445-.0266.0711-.08.08h-2.1733c-.0445 0-.0711-.0311-.08-.0933 0-.0445.0267-.0711.08-.08zm.0533.2h2.0534c.0444 0 .0711.0312.08.0934s-.0178.0933-.08.0933h-2.0667c-.0533 0-.08-.0311-.08-.0933s.0267-.0934.08-.0934zm.6667-1.4133h.16v.1067h.12v-.1067h.1733v.12h.12v-.1333h.16v.2666c0 .0534-.0222.08-.0666.08h-.5867c-.0444 0-.0711-.0222-.08-.0666z" stroke="#000" stroke-width=".066667"/><path d="m25.4669 28.3911v.4533h-.5333v-.4533z" fill="#ff0" stroke="#000" stroke-width=".066667"/><path d="m26.881 28.3911v.4533h-.5333v-.4533z" fill="#ff0" stroke="#000" stroke-width=".066667"/><path d="m24.8398 28.0444h.16v.1334h.12v-.1334h.16v.1334h.12v-.1334h.16v.2667c0 .0533-.0222.08-.0666.08h-.5734c-.0183-.0067-.035-.0173-.0489-.0311-.0138-.0138-.0244-.0305-.0311-.0489z" fill="#ff0" stroke="#000" stroke-width=".066667"/><path d="m26.2539 28.0444h.16v.1334h.12v-.1334h.16v.1334h.12v-.1334h.16v.2667c0 .0533-.0222.08-.0667.08h-.5733c-.0184-.0067-.0351-.0173-.0489-.0311s-.0244-.0305-.0311-.0489z" fill="#ff0" stroke="#000" stroke-width=".066667"/><path d="m25.8535 28.2578c0-.08.12-.08.12 0v.2133h-.12z" fill="#000001"/><path d="m25.1465 28.5512c0-.08.1066-.08.1066 0v.16h-.1066z" fill="#000001"/><path d="m26.5605 28.5512c0-.08.1067-.08.1067 0v.16h-.1067z" fill="#000001"/><path d="m27.7664 36.5319c-.511-.5262-.2675-1.0173-.2675-1.0173.0093-.0094.5364-.2753 1.0568.2415z" fill="#ff0"/><path d="m26.8141 36.2237.5303.6582.3946-.3974c-.492-.4885-.1919-.9421-.1919-.9421.0094-.0095.4799-.2751.9529.1758l.3946-.3974-.6807-.5256zm.5115.6959 1.5972-1.6083c.0313-.0316.0722-.0286.1226.009.0505.0501.0569.0941.0193.1319l-1.5972 1.6084c-.0313.0315-.0753.0254-.132-.0184-.0442-.0439-.0443-.0879-.0005-.132z" fill="#ff0" stroke="#000" stroke-width=".066667"/><path d="m27.8974 36.3237c-.3122-.3101-.1813-.6122-.1813-.6122s.3107-.1237.6135.1769zm-1.3964-.2969 1.5314-1.5421c.0376-.0253.0817-.0192.1321.0184.0315.0313.0316.069.0004.1131l-1.5314 1.5422c-.0314.0315-.0722.0285-.1226-.009-.0316-.0314-.0317-.0691-.0004-.1132zm.1795.1031 1.4468-1.457c.0314-.0315.0722-.0285.1226.009.0505.0376.0537.0784.0099.1226l-1.4562 1.4664c-.0376.0378-.0785.0348-.1226-.009-.0442-.0438-.0475-.0847-.0099-.1225zm-.5331-1.4689.1127-.1136.0757.0752.0846-.0851-.0757-.0752.1221-.123.0852.0846.0845-.0852-.0946-.0939.1128-.1136.1892.1879c.0378.0376.0411.0722.0098.1037l-.4134.4163c-.0313.0315-.0659.0348-.1037.0098zm.6876-.1816.6337.5729-.404.4069-.5868-.6391.3477-.3501" fill="#ff0"/><path d="m26.835 34.4794.6337.5729-.404.4069-.5868-.6391.3477-.3501m1.0718 1.8537c-.3122-.3101-.1813-.6122-.1813-.6122s.3107-.1237.6135.1769zm-1.3964-.2969 1.5314-1.5421c.0376-.0253.0817-.0192.1321.0184.0315.0313.0316.069.0004.1131l-1.5314 1.5422c-.0314.0315-.0722.0285-.1226-.009-.0316-.0314-.0317-.0691-.0004-.1132zm.1795.1031 1.4468-1.457c.0314-.0315.0722-.0285.1226.009.0505.0376.0537.0784.0099.1226l-1.4562 1.4664c-.0376.0378-.0785.0348-.1226-.009-.0442-.0438-.0475-.0847-.0099-.1225zm-.5331-1.4689.1127-.1136.0757.0752.0846-.0851-.0757-.0752.1221-.123.0852.0846.0845-.0852-.0946-.0939.1128-.1136.1892.1879c.0378.0376.0411.0722.0098.1037l-.4134.4163c-.0313.0315-.0659.0348-.1037.0098z" stroke="#000" stroke-width=".066667"/><path d="m26.6317 35.2534.3216.3194-.3758.3785-.3216-.3195z" fill="#ff0" stroke="#000" stroke-width=".066667"/><path d="m27.6258 34.2505.3217.3194-.3758.3784-.3217-.3194z" fill="#ff0" stroke="#000" stroke-width=".066667"/><path d="m25.9434 35.4541.1127-.1135.0946.0939.0846-.0851-.0946-.094.1127-.1135.0946.0939.0846-.0851-.0946-.094.1127-.1135.1892.1879c.0379.0376.0411.0722.0098.1037l-.404.4068c-.0177.0084-.037.0127-.0565.0128-.0196.0001-.0389-.0042-.0566-.0124z" fill="#ff0" stroke="#000" stroke-width=".066667"/><path d="m26.9395 34.4512.1127-.1136.0946.094.0846-.0852-.0946-.0939.1127-.1135.0946.0939.0846-.0851-.0947-.094.1128-.1135.1892.1879c.0379.0376.0411.0721.0098.1037l-.404.4068c-.0177.0083-.037.0127-.0565.0128-.0196 0-.0389-.0042-.0566-.0124z" fill="#ff0" stroke="#000" stroke-width=".066667"/><path d="m26.8082 34.8851c-.0568-.0564.0278-.1416.0846-.0852l.1513.1503-.0845.0852z" fill="#000001"/><path d="m26.5191 35.5935c-.0567-.0563.0184-.132.0752-.0756l.1135.1127-.0751.0757z" fill="#000001"/><path d="m27.5152 34.5906c-.0567-.0564.0184-.132.0752-.0757l.1135.1128-.0751.0757z" fill="#000001"/><path d="m31.4531 23.9242c.0134-.7333.5334-.9066.5334-.9066.0133 0 .5733.1866.5733.92z" fill="#ff0"/><path d="m31.0004 23.0309-.0933.84h.56c0-.6933.5333-.8.5333-.8.0134 0 .5334.1467.5467.8h.56l-.1066-.8533zm-.1333.8533h2.2667c.0444 0 .0711.0312.08.0934 0 .0711-.0267.1066-.08.1066h-2.2667c-.0444 0-.0711-.0355-.08-.1066 0-.0622.0311-.0934.0933-.0934z" fill="#ff0" stroke="#000" stroke-width=".066667"/><path d="m31.6932 23.871c0-.44.3066-.56.3066-.56s.3067.1333.3067.56zm-.7734-1.2h2.1734c.0444.0089.0711.0445.08.1067 0 .0444-.0267.0711-.08.08h-2.1734c-.0444 0-.0711-.0311-.08-.0934 0-.0444.0267-.0711.08-.08zm.0534.2h2.0533c.0445 0 .0711.0311.08.0933.0089.0623-.0178.0934-.08.0934h-2.0667c-.0533 0-.08-.0311-.08-.0934 0-.0622.0267-.0933.08-.0933zm.6666-1.4133h.16v.1066h.12v-.1066h.1734v.12h.12v-.1334h.16v.2667c0 .0533-.0222.08-.0667.08h-.5867c-.0444 0-.0711-.0222-.08-.0667zm.6134.36.04.8533h-.5734l.04-.8667h.4934" fill="#ff0"/><path d="m32.2532 21.8177.04.8533h-.5734l.04-.8667h.4934m-.56 2.0667c0-.44.3066-.56.3066-.56s.3067.1333.3067.56zm-.7734-1.2h2.1734c.0444.0089.0711.0445.08.1067 0 .0444-.0267.0711-.08.08h-2.1734c-.0444 0-.0711-.0311-.08-.0934 0-.0444.0267-.0711.08-.08zm.0534.2h2.0533c.0445 0 .0711.0311.08.0933.0089.0623-.0178.0934-.08.0934h-2.0667c-.0533 0-.08-.0311-.08-.0934 0-.0622.0267-.0933.08-.0933zm.6666-1.4133h.16v.1066h.12v-.1066h.1734v.12h.12v-.1334h.16v.2667c0 .0533-.0222.08-.0667.08h-.5867c-.0444 0-.0711-.0222-.08-.0667z" stroke="#000" stroke-width=".066667"/><path d="m31.5607 22.2178v.4533h-.5334v-.4533z" fill="#ff0" stroke="#000" stroke-width=".066667"/><path d="m32.9747 22.2178v.4533h-.5333v-.4533z" fill="#ff0" stroke="#000" stroke-width=".066667"/><path d="m30.9336 21.8711h.16v.1333h.12v-.1333h.16v.1333h.12v-.1333h.16v.2667c0 .0533-.0222.08-.0667.08h-.5733c-.0184-.0067-.0351-.0173-.0489-.0311-.0138-.0139-.0245-.0306-.0311-.0489z" fill="#ff0" stroke="#000" stroke-width=".066667"/><path d="m32.3477 21.8711h.16v.1333h.12v-.1333h.16v.1333h.12v-.1333h.16v.2667c0 .0533-.0223.08-.0667.08h-.5733c-.0184-.0067-.0351-.0173-.049-.0311-.0138-.0139-.0244-.0306-.031-.0489z" fill="#ff0" stroke="#000" stroke-width=".066667"/><path d="m31.9473 22.0844c0-.08.12-.08.12 0v.2133h-.12z" fill="#000001"/><path d="m31.2402 22.3779c0-.08.1067-.08.1067 0v.16h-.1067z" fill="#000001"/><path d="m32.6543 22.3779c0-.08.1067-.08.1067 0v.16h-.1067z" fill="#000001"/><path d="m38.6133 23.9242c-.0134-.7333-.5334-.9066-.5334-.9066-.0133 0-.5733.1866-.5733.92z" fill="#ff0"/><path d="m39.066 23.0309.0933.84h-.56c0-.6933-.5333-.8-.5333-.8-.0134 0-.5334.1467-.5467.8h-.56l.1067-.8533zm.1333.8533h-2.2667c-.0444 0-.0711.0312-.08.0934 0 .0711.0267.1066.08.1066h2.2667c.0444 0 .0711-.0355.08-.1066 0-.0622-.0311-.0934-.0933-.0934z" fill="#ff0" stroke="#000" stroke-width=".066667"/><path d="m38.3732 23.871c0-.44-.3066-.56-.3066-.56s-.3067.1333-.3067.56zm.7734-1.2h-2.1734c-.0444.0089-.0711.0445-.08.1067 0 .0444.0267.0711.08.08h2.1734c.0444 0 .0711-.0311.08-.0934 0-.0444-.0267-.0711-.08-.08zm-.0534.2h-2.0533c-.0445 0-.0711.0311-.08.0933-.0089.0623.0178.0934.08.0934h2.0667c.0533 0 .08-.0311.08-.0934 0-.0622-.0267-.0933-.08-.0933zm-.6666-1.4133h-.16v.1066h-.12v-.1066h-.1734v.12h-.12v-.1334h-.16v.2667c0 .0533.0222.08.0667.08h.5867c.0444 0 .0711-.0222.08-.0667zm-.6134.36-.04.8533h.5734l-.04-.8667h-.4934" fill="#ff0"/><path d="m37.8132 21.8177-.04.8533h.5734l-.04-.8667h-.4934m.56 2.0667c0-.44-.3066-.56-.3066-.56s-.3067.1333-.3067.56zm.7734-1.2h-2.1734c-.0444.0089-.0711.0445-.08.1067 0 .0444.0267.0711.08.08h2.1734c.0444 0 .0711-.0311.08-.0934 0-.0444-.0267-.0711-.08-.08zm-.0534.2h-2.0533c-.0445 0-.0711.0311-.08.0933-.0089.0623.0178.0934.08.0934h2.0667c.0533 0 .08-.0311.08-.0934 0-.0622-.0267-.0933-.08-.0933zm-.6666-1.4133h-.16v.1066h-.12v-.1066h-.1734v.12h-.12v-.1334h-.16v.2667c0 .0533.0222.08.0667.08h.5867c.0444 0 .0711-.0222.08-.0667z" stroke="#000" stroke-width=".066667"/><path d="m38.5057 22.2178v.4533h.5334v-.4533z" fill="#ff0" stroke="#000" stroke-width=".066667"/><path d="m37.0917 22.2178v.4533h.5333v-.4533z" fill="#ff0" stroke="#000" stroke-width=".066667"/><path d="m39.1328 21.8711h-.16v.1333h-.12v-.1333h-.16v.1333h-.12v-.1333h-.16v.2667c0 .0533.0222.08.0667.08h.5733c.0184-.0067.0351-.0173.0489-.0311.0138-.0139.0245-.0306.0311-.0489z" fill="#ff0" stroke="#000" stroke-width=".066667"/><path d="m37.7188 21.8711h-.1601v.1333h-.1199v-.1333h-.1601v.1333h-.12v-.1333h-.16v.2667c0 .0533.0223.08.0667.08h.5734c.0183-.0067.035-.0173.0489-.0311.0138-.0139.0244-.0306.0311-.0489z" fill="#ff0" stroke="#000" stroke-width=".066667"/><path d="m38.1191 22.0844c0-.08-.12-.08-.12 0v.2133h.12z" fill="#000001"/><path d="m38.8262 22.3779c0-.08-.1067-.08-.1067 0v.16h.1067z" fill="#000001"/><path d="m37.4121 22.3779c0-.08-.1067-.08-.1067 0v.16h.1067z" fill="#000001"/><path d="m38.6133 30.0976c-.0134-.7333-.5334-.9067-.5334-.9067-.0133 0-.5733.1867-.5733.92z" fill="#ff0"/><path d="m39.066 29.2043.0933.84h-.56c0-.6934-.5333-.8-.5333-.8-.0134 0-.5334.1466-.5467.8h-.56l.1067-.8534zm.1333.8533h-2.2667c-.0444 0-.0711.0311-.08.0933 0 .0711.0267.1067.08.1067h2.2667c.0444 0 .0711-.0356.08-.1067 0-.0622-.0311-.0933-.0933-.0933z" fill="#ff0" stroke="#000" stroke-width=".066667"/><path d="m38.3732 30.0443c0-.44-.3066-.56-.3066-.56s-.3067.1334-.3067.56zm.7734-1.2h-2.1734c-.0444.0089-.0711.0445-.08.1067 0 .0445.0267.0711.08.08h2.1734c.0444 0 .0711-.0311.08-.0933 0-.0445-.0267-.0711-.08-.08zm-.0534.2h-2.0533c-.0445 0-.0711.0312-.08.0934s.0178.0933.08.0933h2.0667c.0533 0 .08-.0311.08-.0933s-.0267-.0934-.08-.0934zm-.6666-1.4133h-.16v.1067h-.12v-.1067h-.1734v.12h-.12v-.1333h-.16v.2666c0 .0534.0222.08.0667.08h.5867c.0444 0 .0711-.0222.08-.0666zm-.6134.36-.04.8533h.5734l-.04-.8666h-.4934" fill="#ff0"/><path d="m37.8132 27.991-.04.8533h.5734l-.04-.8666h-.4934m.56 2.0666c0-.44-.3066-.56-.3066-.56s-.3067.1334-.3067.56zm.7734-1.2h-2.1734c-.0444.0089-.0711.0445-.08.1067 0 .0445.0267.0711.08.08h2.1734c.0444 0 .0711-.0311.08-.0933 0-.0445-.0267-.0711-.08-.08zm-.0534.2h-2.0533c-.0445 0-.0711.0312-.08.0934s.0178.0933.08.0933h2.0667c.0533 0 .08-.0311.08-.0933s-.0267-.0934-.08-.0934zm-.6666-1.4133h-.16v.1067h-.12v-.1067h-.1734v.12h-.12v-.1333h-.16v.2666c0 .0534.0222.08.0667.08h.5867c.0444 0 .0711-.0222.08-.0666z" stroke="#000" stroke-width=".066667"/><path d="m38.5057 28.3911v.4533h.5334v-.4533z" fill="#ff0" stroke="#000" stroke-width=".066667"/><path d="m37.0917 28.3911v.4533h.5333v-.4533z" fill="#ff0" stroke="#000" stroke-width=".066667"/><path d="m39.1328 28.0444h-.16v.1334h-.12v-.1334h-.16v.1334h-.12v-.1334h-.16v.2667c0 .0533.0222.08.0667.08h.5733c.0184-.0067.0351-.0173.0489-.0311s.0245-.0305.0311-.0489z" fill="#ff0" stroke="#000" stroke-width=".066667"/><path d="m37.7188 28.0444h-.1601v.1334h-.1199v-.1334h-.1601v.1334h-.12v-.1334h-.16v.2667c0 .0533.0223.08.0667.08h.5734c.0183-.0067.035-.0173.0489-.0311.0138-.0138.0244-.0305.0311-.0489z" fill="#ff0" stroke="#000" stroke-width=".066667"/><path d="m38.1191 28.2578c0-.08-.12-.08-.12 0v.2133h.12z" fill="#000001"/><path d="m38.8262 28.5512c0-.08-.1067-.08-.1067 0v.16h.1067z" fill="#000001"/><path d="m37.4121 28.5512c0-.08-.1067-.08-.1067 0v.16h.1067z" fill="#000001"/><path d="m36.2063 36.5319c.5109-.5262.2675-1.0173.2675-1.0173-.0094-.0094-.5364-.2753-1.0568.2415z" fill="#ff0"/><path d="m37.1586 36.2237-.5303.6582-.3946-.3974c.492-.4885.1919-.9421.1919-.9421-.0094-.0095-.4799-.2751-.9529.1758l-.3946-.3974.6807-.5256zm-.5116.6959-1.5972-1.6083c-.0313-.0316-.0721-.0286-.1225.009-.0505.0501-.0569.0941-.0194.1319l1.5972 1.6084c.0313.0315.0753.0254.1321-.0184.0441-.0439.0443-.0879.0004-.132z" fill="#ff0" stroke="#000" stroke-width=".066667"/><path d="m36.0753 36.3237c.3122-.3101.1812-.6122.1812-.6122s-.3107-.1237-.6134.1769zm1.3964-.2969-1.5315-1.5421c-.0376-.0253-.0816-.0192-.132.0184-.0315.0313-.0317.069-.0004.1131l1.5314 1.5422c.0313.0315.0722.0285.1226-.009.0315-.0314.0317-.0691.0004-.1132zm-.1795.1031-1.4469-1.457c-.0313-.0315-.0722-.0285-.1226.009-.0504.0376-.0537.0784-.0098.1226l1.4562 1.4664c.0376.0378.0785.0348.1226-.009.0442-.0438.0474-.0847.0099-.1225zm.5331-1.4689-.1128-.1136-.0757.0752-.0845-.0851.0757-.0752-.1222-.123-.0851.0846-.0846-.0852.0946-.0939-.1127-.1136-.1892.1879c-.0379.0376-.0411.0722-.0098.1037l.4134.4163c.0313.0315.0658.0348.1036.0098zm-.6877-.1816-.6336.5729.4039.4069.5868-.6391-.3476-.3501" fill="#ff0"/><path d="m37.1376 34.4794-.6336.5729.4039.4069.5868-.6391-.3476-.3501m-1.0718 1.8537c.3122-.3101.1812-.6122.1812-.6122s-.3107-.1237-.6134.1769zm1.3964-.2969-1.5315-1.5421c-.0376-.0253-.0816-.0192-.132.0184-.0315.0313-.0317.069-.0004.1131l1.5314 1.5422c.0313.0315.0722.0285.1226-.009.0315-.0314.0317-.0691.0004-.1132zm-.1795.1031-1.4469-1.457c-.0313-.0315-.0722-.0285-.1226.009-.0504.0376-.0537.0784-.0098.1226l1.4562 1.4664c.0376.0378.0785.0348.1226-.009.0442-.0438.0474-.0847.0099-.1225zm.5331-1.4689-.1128-.1136-.0757.0752-.0845-.0851.0757-.0752-.1222-.123-.0851.0846-.0846-.0852.0946-.0939-.1127-.1136-.1892.1879c-.0379.0376-.0411.0722-.0098.1037l.4134.4163c.0313.0315.0658.0348.1036.0098z" stroke="#000" stroke-width=".066667"/><path d="m37.341 35.2534-.3217.3194.3758.3785.3217-.3195z" fill="#ff0" stroke="#000" stroke-width=".066667"/><path d="m36.3469 34.2505-.3217.3194.3758.3784.3217-.3194z" fill="#ff0" stroke="#000" stroke-width=".066667"/><path d="m38.0293 35.4541-.1127-.1135-.0947.0939-.0845-.0851.0946-.094-.1127-.1135-.0947.0939-.0845-.0851.0946-.094-.1127-.1135-.1893.1879c-.0378.0376-.0411.0722-.0098.1037l.404.4068c.0177.0084.037.0127.0566.0128.0195.0001.0388-.0042.0566-.0124z" fill="#ff0" stroke="#000" stroke-width=".066667"/><path d="m37.0332 34.4512-.1127-.1136-.0946.094-.0846-.0852.0946-.0939-.1127-.1135-.0946.0939-.0846-.0851.0946-.094-.1127-.1135-.1893.1879c-.0378.0376-.0411.0721-.0097.1037l.4039.4068c.0177.0083.037.0127.0566.0128.0195 0 .0389-.0042.0566-.0124z" fill="#ff0" stroke="#000" stroke-width=".066667"/><path d="m37.1645 34.8851c.0567-.0564-.0278-.1416-.0846-.0852l-.1514.1503.0846.0852z" fill="#000001"/><path d="m37.4535 35.5935c.0568-.0563-.0184-.132-.0751-.0756l-.1136.1127.0752.0757z" fill="#000001"/><path d="m36.4574 34.5906c.0568-.0564-.0184-.132-.0751-.0757l-.1136.1128.0752.0757z" fill="#000001"/><path d="m31.014 30.3243c-.0067.2821.0988.5554.2933.76.088.1009.1966.1817.3185.2369s.2543.0835.3882.0831c.2844-.0178.52-.1245.7066-.32.1945-.2046.3-.4779.2934-.76v-1.44h-2z" fill="#039"/><path d="m31.4813 29.631c.1104 0 .2-.0896.2-.2 0-.1105-.0896-.2-.2-.2-.1105 0-.2001.0895-.2001.2 0 .1104.0896.2.2001.2z" fill="#fff"/><path d="m32.5867 29.631c.1105 0 .2-.0896.2-.2 0-.1105-.0895-.2-.2-.2-.1104 0-.2.0895-.2.2 0 .1104.0896.2.2.2z" fill="#fff"/><path d="m32.0281 30.1642c.1105 0 .2-.0896.2-.2 0-.1105-.0895-.2-.2-.2-.1104 0-.2.0895-.2.2 0 .1104.0896.2.2.2z" fill="#fff"/><path d="m31.4813 30.7242c.1104 0 .2-.0895.2-.2 0-.1104-.0896-.2-.2-.2-.1105 0-.2001.0896-.2001.2 0 .1105.0896.2.2001.2z" fill="#fff"/><path d="m32.5867 30.7242c.1105 0 .2-.0895.2-.2 0-.1104-.0895-.2-.2-.2-.1104 0-.2.0896-.2.2 0 .1105.0896.2.2.2z" fill="#fff"/><path d="m31.014 26.8575c-.0067.2821.0988.5554.2933.76.088.1009.1966.1817.3185.2369s.2543.0835.3882.0831c.2844-.0178.52-.1245.7066-.32.1945-.2046.3-.4779.2934-.76v-1.44h-2z" fill="#039"/><path d="m31.4813 26.1642c.1104 0 .2-.0896.2-.2 0-.1105-.0896-.2-.2-.2-.1105 0-.2001.0895-.2001.2 0 .1104.0896.2.2001.2z" fill="#fff"/><path d="m32.5867 26.1642c.1105 0 .2-.0896.2-.2 0-.1105-.0895-.2-.2-.2-.1104 0-.2.0895-.2.2 0 .1104.0896.2.2.2z" fill="#fff"/><path d="m32.0281 26.6974c.1105 0 .2-.0896.2-.2 0-.1105-.0895-.2-.2-.2-.1104 0-.2.0895-.2.2 0 .1104.0896.2.2.2z" fill="#fff"/><path d="m31.4813 27.2574c.1104 0 .2-.0895.2-.2 0-.1104-.0896-.2-.2-.2-.1105 0-.2001.0896-.2001.2 0 .1105.0896.2.2001.2z" fill="#fff"/><path d="m32.5867 27.2574c.1105 0 .2-.0895.2-.2 0-.1104-.0895-.2-.2-.2-.1104 0-.2.0896-.2.2 0 .1105.0896.2.2.2z" fill="#fff"/><path d="m28.2405 30.3243c-.0066.2821.0989.5554.2934.76.0879.1009.1965.1817.3185.2369.1219.0552.2543.0835.3881.0831.2845-.0178.52-.1245.7067-.32.1945-.2046.3-.4779.2933-.76v-1.44h-2z" fill="#039"/><path d="m28.7078 29.631c.1105 0 .2-.0896.2-.2 0-.1105-.0895-.2-.2-.2-.1104 0-.2.0895-.2.2 0 .1104.0896.2.2.2z" fill="#fff"/><path d="m29.8133 29.631c.1104 0 .2-.0896.2-.2 0-.1105-.0896-.2-.2-.2-.1105 0-.2.0895-.2.2 0 .1104.0895.2.2.2z" fill="#fff"/><path d="m29.2547 30.1642c.1104 0 .2-.0896.2-.2 0-.1105-.0896-.2-.2-.2-.1105 0-.2.0895-.2.2 0 .1104.0895.2.2.2z" fill="#fff"/><path d="m28.7078 30.7242c.1105 0 .2-.0895.2-.2 0-.1104-.0895-.2-.2-.2-.1104 0-.2.0896-.2.2 0 .1105.0896.2.2.2z" fill="#fff"/><path d="m29.8133 30.7242c.1104 0 .2-.0895.2-.2 0-.1104-.0896-.2-.2-.2-.1105 0-.2.0896-.2.2 0 .1105.0895.2.2.2z" fill="#fff"/><path d="m33.7874 30.3243c-.0066.2821.0989.5554.2933.76.088.1009.1966.1817.3186.2369.1219.0552.2543.0835.3881.0831.2845-.0178.52-.1245.7067-.32.1945-.2046.2999-.4779.2933-.76v-1.44h-2z" fill="#039"/><path d="m34.2547 29.631c.1104 0 .2-.0896.2-.2 0-.1105-.0896-.2-.2-.2-.1105 0-.2.0895-.2.2 0 .1104.0895.2.2.2z" fill="#fff"/><path d="m35.3602 29.631c.1104 0 .2-.0896.2-.2 0-.1105-.0896-.2-.2-.2-.1105 0-.2.0895-.2.2 0 .1104.0895.2.2.2z" fill="#fff"/><path d="m34.8016 30.1642c.1104 0 .2-.0896.2-.2 0-.1105-.0896-.2-.2-.2-.1105 0-.2.0895-.2.2 0 .1104.0895.2.2.2z" fill="#fff"/><path d="m34.2547 30.7242c.1104 0 .2-.0895.2-.2 0-.1104-.0896-.2-.2-.2-.1105 0-.2.0896-.2.2 0 .1105.0895.2.2.2z" fill="#fff"/><path d="m35.3602 30.7242c.1104 0 .2-.0895.2-.2 0-.1104-.0896-.2-.2-.2-.1105 0-.2.0896-.2.2 0 .1105.0895.2.2.2z" fill="#fff"/><path d="m31.014 33.7642c-.0067.2822.0988.5555.2933.76.088.1009.1966.1817.3185.2369s.2543.0836.3882.0831c.2844-.0178.52-.1244.7066-.32.1945-.2045.3-.4778.2934-.76v-1.44h-2z" fill="#039"/><path d="m31.4813 33.0709c.1104 0 .2-.0895.2-.2s-.0896-.2-.2-.2c-.1105 0-.2001.0895-.2001.2s.0896.2.2001.2z" fill="#fff"/><path d="m32.5867 33.0709c.1105 0 .2-.0895.2-.2s-.0895-.2-.2-.2c-.1104 0-.2.0895-.2.2s.0896.2.2.2z" fill="#fff"/><path d="m32.0281 33.6041c.1105 0 .2-.0895.2-.2s-.0895-.2-.2-.2c-.1104 0-.2.0895-.2.2s.0896.2.2.2z" fill="#fff"/><path d="m31.4813 34.1642c.1104 0 .2-.0896.2-.2 0-.1105-.0896-.2-.2-.2-.1105 0-.2001.0895-.2001.2 0 .1104.0896.2.2001.2z" fill="#fff"/><path d="m32.5867 34.1642c.1105 0 .2-.0896.2-.2 0-.1105-.0895-.2-.2-.2-.1104 0-.2.0895-.2.2 0 .1104.0896.2.2.2z" fill="#fff"/></g></svg>