<svg viewBox="0 0 3266.89 1539.91" xmlns="http://www.w3.org/2000/svg"><path d="m385.86 941.28-38.16 198.77-2.88 15.03-3 15.6-5.11 26.63-1.92 9.98-4.43 23-41.04 213.79h-.01c-11.92-1.43-23.62-3.73-35.03-6.84l37.86-209.08 1-5.45 4.11-22.74 5.09-28.11 1.57-8.68 2.74-15.14 38.86-214.53h.01c13.75 1.46 27.24 4.08 40.34 7.77z" fill="none" stroke="#eae9e8" stroke-miterlimit="10" stroke-width="5"/><path d="m556.54 1103.59-187.51 81.62-8.18 3.57-26.33 11.47-12.97 5.64-31.72 13.81-4.86 2.1-190.8 83.07-.03-.03c-5.79-11.61-10.74-23.69-14.75-36.18l190.04-84.12 8-3.54 28.14-12.46 11.14-4.93 24.87-11.01 14.48-6.41 183.5-81.24c6.66 12.32 12.34 25.23 16.96 38.64z" fill="none" stroke="#eae9e8" stroke-miterlimit="10" stroke-width="5"/><path d="m534.62 1321.8c-6.26 10.54-13.21 20.51-20.77 29.86l-171.38-127.46-16.65-12.38-8.02-5.96-22.86-17-16.12-12-6.39-4.75-164.97-122.69c6.78-10.79 14.33-20.96 22.5-30.44l173.42 129.79h.01s12.98 9.72 12.98 9.72l6.93 5.18 24.2 18.12 13.69 10.24 7.61 5.68 165.82 124.1z" fill="none" stroke="#eae9e8" stroke-miterlimit="10" stroke-width="5"/><path d="m319.05 863.55c-176.21 0-319.05 145.66-319.05 325.33s142.84 325.32 319.05 325.32 319.04-145.66 319.04-325.32-142.84-325.34-319.04-325.34zm272.13 332.5c-.03 1.16-.05 2.32-.11 3.48v.15c-.04 1-.08 2-.14 3.01-.04 1-.1 1.99-.15 2.99-.08 1.38-.18 2.76-.27 4.13-.01.14-.03.28-.03.42-.1 1.25-.2 2.51-.31 3.76-.11 1.38-.25 2.74-.4 4.12-.14 1.38-.29 2.74-.45 4.11-1.27 10.9-3.17 21.62-5.68 32.1 0 .03-.01.04-.01.07 0 .01-.01.04-.01.06-.19.81-.38 1.6-.59 2.41-.26 1.07-.53 2.14-.81 3.22-.37 1.42-.75 2.83-1.13 4.23-.76 2.81-1.58 5.61-2.46 8.38-.44 1.39-.87 2.77-1.32 4.15-1.05 3.22-2.14 6.4-3.32 9.56-1.17 3.16-2.39 6.29-3.66 9.4-.41 1-.83 2-1.24 2.99-1.87 4.45-3.88 8.87-5.99 13.2-.71 1.45-1.42 2.88-2.14 4.32-.49.96-.98 1.91-1.47 2.85-.42.85-.87 1.68-1.34 2.52-.45.84-.9 1.67-1.35 2.51-1.37 2.51-2.77 4.97-4.22 7.42-1.43 2.45-2.91 4.87-4.44 7.27-1.52 2.41-3.06 4.78-4.64 7.13-.53.78-1.06 1.56-1.6 2.34-1.73 2.52-3.52 5.01-5.34 7.48-1.13 1.53-2.29 3.06-3.45 4.58-3.49 4.54-7.13 8.95-10.91 13.25-1.01 1.16-2.02 2.3-3.04 3.42-.61.7-1.24 1.38-1.9 2.07-1.26 1.38-2.55 2.76-3.86 4.11-1.95 2.02-3.93 4.02-5.94 5.99-.67.67-1.35 1.32-2.02 1.95-.68.67-1.35 1.31-2.03 1.94-.68.64-1.38 1.28-2.06 1.92-.68.63-1.38 1.27-2.08 1.89-2.09 1.88-4.2 3.73-6.35 5.54-.71.61-1.43 1.23-2.16 1.81-.72.61-1.45 1.21-2.17 1.78-.72.58-1.46 1.18-2.18 1.77-1.46 1.17-2.95 2.32-4.44 3.45-.01 0-.01.01-.03.03-2.09 1.59-4.2 3.16-6.35 4.69-.23.17-.45.32-.68.49-1.43 1.03-2.88 2.03-4.33 3.02-3.1 2.13-6.24 4.19-9.43 6.18-1.58.99-3.18 1.96-4.78 2.92-9.68 5.78-19.73 10.96-30.12 15.49-.76.33-1.52.67-2.28.99-2.16.92-4.33 1.81-6.51 2.67-1.45.58-2.91 1.14-4.37 1.68-.35.14-.71.26-1.06.39-.83.32-1.67.63-2.51.92-1.04.39-2.09.75-3.15 1.11-1.05.36-2.1.72-3.17 1.07-1.02.35-2.06.68-3.1 1-2.4.77-4.82 1.5-7.25 2.2-.83.24-1.67.47-2.5.7-1.09.31-2.17.6-3.26.88-1.08.29-2.17.57-3.26.84-3.37.84-6.76 1.61-10.17 2.32-1 .21-1.98.4-2.96.6-.59.11-1.19.22-1.77.33-.96.18-1.91.36-2.87.53-.94.17-1.9.33-2.87.49-.89.15-1.77.29-2.66.43-1.04.17-2.08.32-3.1.47-.97.13-1.93.26-2.89.39-.7.1-1.41.18-2.1.28-3.48.43-6.98.79-10.5 1.09-.67.07-1.35.13-2.02.17-1.35.11-2.7.21-4.07.29-.93.06-1.84.11-2.77.15-1.05.06-2.12.1-3.17.14-1.31.06-2.63.1-3.95.13-1.13.04-2.25.06-3.37.07-1.17.01-2.35.03-3.52.03-150.35 0-272.24-124.29-272.24-277.59s121.89-277.6 272.24-277.6c36.62 0 71.55 7.38 103.44 20.76 65.6 27.49 118.34 80.35 146.46 146.62 14.36 33.79 22.32 71.07 22.32 110.23 0 1.2-.01 2.39-.03 3.59-.01 1.18-.03 2.38-.07 3.58z" fill="#fcb454"/><path d="m568.95 1078.66c-28.12-66.26-80.86-119.12-146.46-146.62-31.89-13.38-66.83-20.76-103.44-20.76-150.35 0-272.24 124.29-272.24 277.6s121.89 277.59 272.24 277.59c1.17 0 2.35-.01 3.52-.03 1.12-.01 2.24-.03 3.37-.07 1.31-.03 2.63-.07 3.95-.13 1.05-.04 2.12-.08 3.17-.14.93-.04 1.84-.1 2.77-.15 1.37-.08 2.72-.18 4.07-.29.67-.04 1.35-.1 2.02-.17 3.52-.29 7.02-.65 10.5-1.09.7-.1 1.41-.18 2.1-.28.97-.13 1.92-.26 2.89-.39 1.02-.15 2.06-.31 3.1-.47.89-.14 1.77-.28 2.66-.43.97-.15 1.93-.32 2.87-.49.96-.17 1.91-.35 2.87-.53.59-.11 1.19-.22 1.77-.33.98-.19 1.97-.39 2.96-.6 3.41-.71 6.8-1.49 10.17-2.32 1.09-.26 2.18-.54 3.26-.84 1.09-.28 2.17-.57 3.26-.88.83-.22 1.67-.46 2.5-.7 2.43-.7 4.85-1.43 7.25-2.2 1.04-.32 2.08-.65 3.1-1 1.06-.35 2.12-.71 3.17-1.07 1.06-.36 2.12-.72 3.15-1.11.85-.29 1.68-.6 2.51-.92.35-.13.71-.25 1.06-.39 1.46-.54 2.92-1.11 4.37-1.68 2.18-.86 4.36-1.75 6.51-2.67.76-.32 1.52-.65 2.28-.99 10.39-4.54 20.44-9.72 30.12-15.49 1.6-.96 3.19-1.94 4.78-2.92 3.19-1.99 6.33-4.05 9.43-6.18 1.45-.99 2.89-1.99 4.33-3.02.23-.17.45-.32.68-.49 2.14-1.53 4.26-3.1 6.35-4.69.01-.01.01-.03.03-.03 1.49-1.14 2.96-2.3 4.44-3.45.72-.58 1.46-1.18 2.18-1.77.72-.58 1.45-1.18 2.17-1.78s1.43-1.2 2.16-1.81c2.14-1.81 4.26-3.66 6.35-5.54.7-.63 1.39-1.27 2.08-1.89.68-.64 1.38-1.28 2.06-1.92s1.35-1.28 2.03-1.94c.67-.64 1.35-1.29 2.02-1.95 2.01-1.96 3.99-3.97 5.94-5.99 1.3-1.36 2.58-2.73 3.86-4.11.63-.68 1.27-1.38 1.9-2.07 1.02-1.13 2.03-2.27 3.04-3.42 3.75-4.3 7.4-8.71 10.91-13.25 1.16-1.52 2.32-3.05 3.45-4.58 1.82-2.46 3.6-4.96 5.34-7.48.53-.78 1.06-1.56 1.6-2.34 1.58-2.35 3.13-4.72 4.64-7.13 1.52-2.39 2.99-4.82 4.44-7.27 1.43-2.45 2.84-4.93 4.22-7.42.45-.84.9-1.67 1.35-2.51s.89-1.68 1.34-2.52c.49-.95.98-1.89 1.47-2.85.72-1.43 1.43-2.87 2.14-4.32 2.1-4.33 4.1-8.74 5.99-13.2.41-.99.83-1.99 1.24-2.99 1.27-3.1 2.48-6.24 3.66-9.4 1.16-3.17 2.27-6.35 3.32-9.56.45-1.38.89-2.76 1.32-4.15.86-2.77 1.68-5.57 2.46-8.38.38-1.41.76-2.81 1.13-4.23.27-1.07.55-2.14.81-3.22.2-.81.4-1.6.59-2.41 0-.01.01-.04.01-.06 0-.03.01-.04.01-.07 2.48-10.48 4.38-21.2 5.68-32.1.16-1.36.31-2.73.45-4.11s.27-2.74.4-4.12c.11-1.25.22-2.51.31-3.76 0-.14.01-.28.03-.42.1-1.38.19-2.76.27-4.13.05-1 .11-1.99.15-2.99.05-1 .1-2 .14-3.01v-.15c.05-1.16.08-2.33.11-3.48.04-1.2.05-2.39.07-3.58.01-1.2.03-2.39.03-3.59 0-39.16-7.96-76.44-22.32-110.23zm-4.71 169.21c-2.76 12-6.35 23.67-10.7 34.94-36.77 95.39-127.89 162.9-234.49 162.9-21.13 0-41.65-2.66-61.26-7.66h-.01c-11.65-2.97-22.96-6.75-33.9-11.32-50.99-21.23-93.64-59.01-121.48-106.8l-.03-.03c-6.53-11.19-12.25-22.91-17.05-35.11-11.71-29.64-18.16-62-18.16-95.92 0-22.64 2.87-44.58 8.27-65.48 3.18-12.4 7.28-24.45 12.18-36.04 38.59-91.36 127.69-155.32 231.43-155.32 19.95 0 39.35 2.37 57.95 6.84h.01c13.46 3.23 26.51 7.57 39.05 12.92 47.61 20.27 87.8 55.02 115.29 98.85 7.44 11.85 13.94 24.35 19.41 37.42 12.97 30.95 20.15 65.03 20.15 100.82 0 20.3-2.31 40.05-6.68 58.98z" fill="#033e56"/><ellipse cx="317.97" cy="1183.77" fill="#efa706" rx="53.38" ry="54.43"/><path d="m1321.9 942.67-38.16 198.77-2.88 15.03-3 15.6-5.11 26.63-1.92 9.98-4.43 23-41.04 213.79h-.01c-11.92-1.43-23.62-3.73-35.03-6.84l37.86-209.08 1-5.45 4.11-22.74 5.09-28.11 1.57-8.68 2.74-15.14 38.86-214.53h.01c13.75 1.46 27.24 4.08 40.34 7.77z" fill="none" stroke="#eae9e8" stroke-miterlimit="10" stroke-width="5"/><path d="m1492.57 1104.98-187.51 81.62-8.18 3.57-26.33 11.47-12.97 5.64-31.72 13.81-4.86 2.1-190.8 83.07-.03-.03c-5.79-11.61-10.74-23.69-14.75-36.18l190.04-84.12 8-3.54 28.14-12.46 11.14-4.93 24.87-11.01 14.48-6.41 183.5-81.24c6.66 12.32 12.34 25.23 16.96 38.64z" fill="none" stroke="#eae9e8" stroke-miterlimit="10" stroke-width="5"/><path d="m1470.65 1323.2c-6.26 10.54-13.21 20.51-20.77 29.86l-171.38-127.46-16.65-12.38-8.02-5.96-22.86-17-16.12-12-6.39-4.75-164.97-122.69c6.78-10.79 14.33-20.96 22.5-30.44l173.42 129.79h.01s12.98 9.72 12.98 9.72l6.93 5.18 24.2 18.12 13.69 10.24 7.61 5.68 165.82 124.1z" fill="none" stroke="#eae9e8" stroke-miterlimit="10" stroke-width="5"/><path d="m1255.08 864.94c-176.21 0-319.05 145.66-319.05 325.34s142.84 325.32 319.05 325.32 319.04-145.66 319.04-325.32-142.84-325.34-319.04-325.34zm272.13 332.51c-.03 1.16-.05 2.32-.11 3.48v.15c-.04 1-.08 2-.14 3.01-.04 1-.1 1.99-.15 2.99-.08 1.38-.18 2.76-.27 4.13-.01.14-.03.28-.03.42-.1 1.25-.2 2.51-.31 3.76-.11 1.38-.25 2.74-.4 4.12-.14 1.38-.29 2.74-.45 4.11-1.27 10.9-3.17 21.62-5.68 32.1 0 .03-.01.04-.01.07 0 .01-.01.04-.01.06-.19.81-.38 1.6-.59 2.41-.26 1.07-.53 2.14-.81 3.22-.37 1.42-.75 2.83-1.13 4.23-.76 2.81-1.58 5.61-2.46 8.38-.44 1.39-.87 2.77-1.32 4.15-1.05 3.22-2.14 6.4-3.32 9.56-1.17 3.16-2.39 6.29-3.66 9.4-.41 1-.83 2-1.24 2.99-1.87 4.45-3.88 8.87-5.99 13.2-.71 1.45-1.42 2.88-2.14 4.32-.49.96-.98 1.91-1.47 2.85-.42.85-.87 1.68-1.34 2.52-.45.84-.9 1.67-1.35 2.51-1.37 2.51-2.77 4.97-4.22 7.42-1.43 2.45-2.91 4.87-4.44 7.27-1.52 2.41-3.06 4.78-4.64 7.13-.53.78-1.06 1.56-1.6 2.34-1.73 2.52-3.52 5.01-5.34 7.48-1.13 1.53-2.29 3.06-3.45 4.58-3.49 4.54-7.13 8.95-10.91 13.25-1.01 1.16-2.02 2.3-3.04 3.42-.61.7-1.24 1.38-1.9 2.07-1.26 1.38-2.55 2.76-3.86 4.11-1.95 2.02-3.93 4.02-5.94 5.99-.67.67-1.35 1.32-2.02 1.95-.68.67-1.35 1.31-2.03 1.94-.68.64-1.38 1.28-2.06 1.92-.68.63-1.38 1.27-2.08 1.89-2.09 1.88-4.2 3.73-6.35 5.54-.71.61-1.43 1.23-2.16 1.81-.72.61-1.45 1.21-2.17 1.78-.72.58-1.46 1.18-2.18 1.77-1.46 1.17-2.95 2.32-4.44 3.45-.01 0-.01.01-.03.03-2.09 1.59-4.2 3.16-6.35 4.69-.23.17-.45.32-.68.49-1.43 1.03-2.88 2.03-4.33 3.02-3.1 2.13-6.24 4.19-9.43 6.18-1.58.99-3.18 1.96-4.78 2.92-9.68 5.78-19.73 10.96-30.12 15.49-.76.33-1.52.67-2.28.99-2.16.92-4.33 1.81-6.51 2.67-1.45.58-2.91 1.14-4.37 1.68-.35.14-.71.26-1.06.39-.83.32-1.67.63-2.51.92-1.04.39-2.09.75-3.15 1.11-1.05.36-2.1.72-3.17 1.07-1.02.35-2.06.68-3.1 1-2.4.77-4.82 1.5-7.25 2.2-.83.24-1.67.47-2.5.7-1.09.31-2.17.6-3.26.88-1.08.29-2.17.57-3.26.84-3.37.84-6.76 1.61-10.17 2.32-1 .21-1.98.4-2.96.6-.59.11-1.19.22-1.77.33-.96.18-1.91.36-2.87.53-.94.17-1.9.33-2.87.49-.89.15-1.77.29-2.66.43-1.04.17-2.08.32-3.1.47-.97.13-1.93.26-2.89.39-.7.1-1.41.18-2.1.28-3.48.43-6.98.79-10.5 1.09-.67.07-1.35.13-2.02.17-1.35.11-2.7.21-4.07.29-.93.06-1.84.11-2.77.15-1.05.06-2.12.1-3.17.14-1.31.06-2.63.1-3.95.13-1.13.04-2.25.06-3.37.07-1.17.01-2.35.03-3.52.03-150.35 0-272.24-124.29-272.24-277.59s121.89-277.6 272.24-277.6c36.62 0 71.55 7.38 103.44 20.76 65.6 27.49 118.34 80.35 146.46 146.62 14.36 33.79 22.32 71.07 22.32 110.23 0 1.2-.01 2.39-.03 3.59-.01 1.18-.03 2.38-.07 3.58z" fill="#fcb454"/><path d="m1504.99 1080.05c-28.12-66.26-80.86-119.12-146.46-146.62-31.89-13.38-66.83-20.76-103.44-20.76-150.35 0-272.24 124.29-272.24 277.6s121.89 277.59 272.24 277.59c1.17 0 2.35-.01 3.52-.03 1.12-.01 2.24-.03 3.37-.07 1.31-.03 2.63-.07 3.95-.13 1.05-.04 2.12-.08 3.17-.14.93-.04 1.84-.1 2.77-.15 1.37-.08 2.72-.18 4.07-.29.67-.04 1.35-.1 2.02-.17 3.52-.29 7.02-.65 10.5-1.09.7-.1 1.41-.18 2.1-.28.97-.13 1.92-.26 2.89-.39 1.02-.15 2.06-.31 3.1-.47.89-.14 1.77-.28 2.66-.43.97-.15 1.93-.32 2.87-.49.96-.17 1.91-.35 2.87-.53.59-.11 1.19-.22 1.77-.33.98-.19 1.97-.39 2.96-.6 3.41-.71 6.8-1.49 10.17-2.32 1.09-.26 2.18-.54 3.26-.84 1.09-.28 2.17-.57 3.26-.88.83-.22 1.67-.46 2.5-.7 2.43-.7 4.85-1.43 7.25-2.2 1.04-.32 2.08-.65 3.1-1 1.06-.35 2.12-.71 3.17-1.07 1.06-.36 2.12-.72 3.15-1.11.85-.29 1.68-.6 2.51-.92.35-.13.71-.25 1.06-.39 1.46-.54 2.92-1.11 4.37-1.68 2.18-.86 4.36-1.75 6.51-2.67.76-.32 1.52-.65 2.28-.99 10.39-4.54 20.44-9.72 30.12-15.49 1.6-.96 3.19-1.94 4.78-2.92 3.19-1.99 6.33-4.05 9.43-6.18 1.45-.99 2.89-1.99 4.33-3.02.23-.17.45-.32.68-.49 2.14-1.53 4.26-3.1 6.35-4.69.01-.01.01-.03.03-.03 1.49-1.14 2.96-2.3 4.44-3.45.72-.58 1.46-1.18 2.18-1.77.72-.58 1.45-1.18 2.17-1.78s1.43-1.2 2.16-1.81c2.14-1.81 4.26-3.66 6.35-5.54.7-.63 1.39-1.27 2.08-1.89.68-.64 1.38-1.28 2.06-1.92s1.35-1.28 2.03-1.94c.67-.64 1.35-1.29 2.02-1.95 2.01-1.96 3.99-3.97 5.94-5.99 1.3-1.36 2.58-2.73 3.86-4.11.63-.68 1.27-1.38 1.9-2.07 1.02-1.13 2.03-2.27 3.04-3.42 3.75-4.3 7.4-8.71 10.91-13.25 1.16-1.52 2.32-3.05 3.45-4.58 1.82-2.46 3.6-4.96 5.34-7.48.53-.78 1.06-1.56 1.6-2.34 1.58-2.35 3.13-4.72 4.64-7.13 1.52-2.39 2.99-4.82 4.44-7.27 1.43-2.45 2.84-4.93 4.22-7.42.45-.84.9-1.67 1.35-2.51s.89-1.68 1.34-2.52c.49-.95.98-1.89 1.47-2.85.72-1.43 1.43-2.87 2.14-4.32 2.1-4.33 4.1-8.74 5.99-13.2.41-.99.83-1.99 1.24-2.99 1.27-3.1 2.48-6.24 3.66-9.4 1.16-3.17 2.27-6.35 3.32-9.56.45-1.38.89-2.76 1.32-4.15.86-2.77 1.68-5.57 2.46-8.38.38-1.41.76-2.81 1.13-4.23.27-1.07.55-2.14.81-3.22.2-.81.4-1.6.59-2.41 0-.01.01-.04.01-.06 0-.03.01-.04.01-.07 2.48-10.48 4.38-21.2 5.68-32.1.16-1.36.31-2.73.45-4.11s.27-2.74.4-4.12c.11-1.25.22-2.51.31-3.76 0-.14.01-.28.03-.42.1-1.38.19-2.76.27-4.13.05-1 .11-1.99.15-2.99.05-1 .1-2 .14-3.01v-.15c.05-1.16.08-2.33.11-3.48.04-1.2.05-2.39.07-3.58.01-1.2.03-2.39.03-3.59 0-39.16-7.96-76.44-22.32-110.23zm-4.71 169.21c-2.76 12-6.35 23.67-10.7 34.94-36.77 95.39-127.89 162.9-234.49 162.9-21.13 0-41.65-2.66-61.26-7.66h-.01c-11.65-2.97-22.96-6.75-33.9-11.32-50.99-21.23-93.64-59.01-121.48-106.8l-.03-.03c-6.53-11.19-12.25-22.91-17.05-35.11-11.71-29.64-18.16-62-18.16-95.92 0-22.64 2.87-44.58 8.27-65.48 3.18-12.4 7.28-24.45 12.18-36.04 38.59-91.36 127.69-155.32 231.43-155.32 19.95 0 39.35 2.37 57.95 6.84h.01c13.46 3.23 26.51 7.57 39.05 12.92 47.61 20.27 87.8 55.02 115.29 98.85 7.44 11.85 13.94 24.35 19.41 37.42 12.97 30.95 20.15 65.03 20.15 100.82 0 20.3-2.31 40.05-6.68 58.98z" fill="#033e56"/><ellipse cx="1254.01" cy="1183.77" fill="#efa706" rx="48.42" ry="49.37"/><path d="m2078.19 966.99-38.16 198.77-2.88 15.03-3 15.6-5.11 26.63-1.92 9.98-4.43 23-41.04 213.79h-.01c-11.92-1.43-23.62-3.73-35.03-6.84l37.86-209.08 1-5.45 4.11-22.74 5.09-28.11 1.57-8.68 2.74-15.14 38.86-214.53h.01c13.75 1.46 27.24 4.08 40.34 7.77z" fill="none" stroke="#eae9e8" stroke-miterlimit="10" stroke-width="5"/><path d="m2248.86 1129.3-187.51 81.62-8.18 3.57-26.33 11.47-12.97 5.64-31.72 13.81-4.86 2.1-190.8 83.07-.03-.03c-5.79-11.61-10.74-23.69-14.75-36.18l190.04-84.12 8-3.54 28.14-12.46 11.14-4.93 24.87-11.01 14.48-6.41 183.5-81.24c6.66 12.32 12.34 25.23 16.96 38.64z" fill="none" stroke="#eae9e8" stroke-miterlimit="10" stroke-width="5"/><path d="m2226.94 1347.51c-6.26 10.54-13.21 20.51-20.77 29.86l-171.38-127.46-16.65-12.38-8.02-5.96-22.86-17-16.12-12-6.39-4.75-164.97-122.69c6.78-10.79 14.33-20.96 22.5-30.44l173.42 129.79h.01s12.98 9.72 12.98 9.72l6.93 5.18 24.2 18.12 13.69 10.24 7.61 5.68 165.82 124.1z" fill="none" stroke="#eae9e8" stroke-miterlimit="10" stroke-width="5"/><path d="m2011.37 889.26c-176.21 0-319.05 145.66-319.05 325.34s142.84 325.32 319.05 325.32 319.04-145.66 319.04-325.32-142.84-325.34-319.04-325.34zm272.13 332.5c-.03 1.16-.05 2.32-.11 3.48v.15c-.04 1-.08 2-.14 3.01-.04 1-.1 1.99-.15 2.99-.08 1.38-.18 2.76-.27 4.13-.01.14-.03.28-.03.42-.1 1.25-.2 2.51-.31 3.76-.11 1.38-.25 2.74-.4 4.12-.14 1.38-.29 2.74-.45 4.11-1.27 10.9-3.17 21.62-5.68 32.1 0 .03-.01.04-.01.07 0 .01-.01.04-.01.06-.19.81-.38 1.6-.59 2.41-.26 1.07-.53 2.14-.81 3.22-.37 1.42-.75 2.83-1.13 4.23-.76 2.81-1.58 5.61-2.46 8.38-.44 1.39-.87 2.77-1.32 4.15-1.05 3.22-2.14 6.4-3.32 9.56-1.17 3.16-2.39 6.29-3.66 9.4-.41 1-.83 2-1.24 2.99-1.87 4.45-3.88 8.87-5.99 13.2-.71 1.45-1.42 2.88-2.14 4.32-.49.96-.98 1.91-1.47 2.85-.42.85-.87 1.68-1.34 2.52-.45.84-.9 1.67-1.35 2.51-1.37 2.51-2.77 4.97-4.22 7.42-1.43 2.45-2.91 4.87-4.44 7.27-1.52 2.41-3.06 4.78-4.64 7.13-.53.78-1.06 1.56-1.6 2.34-1.73 2.52-3.52 5.01-5.34 7.48-1.13 1.53-2.29 3.06-3.45 4.58-3.49 4.54-7.13 8.95-10.91 13.25-1.01 1.16-2.02 2.3-3.04 3.42-.61.7-1.24 1.38-1.9 2.07-1.26 1.38-2.55 2.76-3.86 4.11-1.95 2.02-3.93 4.02-5.94 5.99-.67.67-1.35 1.32-2.02 1.95-.68.67-1.35 1.31-2.03 1.94-.68.64-1.38 1.28-2.06 1.92-.68.63-1.38 1.27-2.08 1.89-2.09 1.88-4.2 3.73-6.35 5.54-.71.61-1.43 1.23-2.16 1.81-.72.61-1.45 1.21-2.17 1.78-.72.58-1.46 1.18-2.18 1.77-1.46 1.17-2.95 2.32-4.44 3.45-.01 0-.01.01-.03.03-2.09 1.59-4.2 3.16-6.35 4.69-.23.17-.45.32-.68.49-1.43 1.03-2.88 2.03-4.33 3.02-3.1 2.13-6.24 4.19-9.43 6.18-1.58.99-3.18 1.96-4.78 2.92-9.68 5.78-19.73 10.96-30.12 15.49-.76.33-1.52.67-2.28.99-2.16.92-4.33 1.81-6.51 2.67-1.45.58-2.91 1.14-4.37 1.68-.35.14-.71.26-1.06.39-.83.32-1.67.63-2.51.92-1.04.39-2.09.75-3.15 1.11-1.05.36-2.1.72-3.17 1.07-1.02.35-2.06.68-3.1 1-2.4.77-4.82 1.5-7.25 2.2-.83.24-1.67.47-2.5.7-1.09.31-2.17.6-3.26.88-1.08.29-2.17.57-3.26.84-3.37.84-6.76 1.61-10.17 2.32-1 .21-1.98.4-2.96.6-.59.11-1.19.22-1.77.33-.96.18-1.91.36-2.87.53-.94.17-1.9.33-2.87.49-.89.15-1.77.29-2.66.43-1.04.17-2.08.32-3.1.47-.97.13-1.93.26-2.89.39-.7.1-1.41.18-2.1.28-3.48.43-6.98.79-10.5 1.09-.67.07-1.35.13-2.02.17-1.35.11-2.7.21-4.07.29-.93.06-1.84.11-2.77.15-1.05.06-2.12.1-3.17.14-1.31.06-2.63.1-3.95.13-1.13.04-2.25.06-3.37.07-1.17.01-2.35.03-3.52.03-150.35 0-272.24-124.29-272.24-277.59s121.89-277.6 272.24-277.6c36.62 0 71.55 7.38 103.44 20.76 65.6 27.49 118.34 80.35 146.46 146.62 14.36 33.79 22.32 71.07 22.32 110.23 0 1.2-.01 2.39-.03 3.59-.01 1.18-.03 2.38-.07 3.58z" fill="#424242"/><path d="m2261.28 1104.37c-28.12-66.26-80.86-119.12-146.46-146.62-31.89-13.38-66.83-20.76-103.44-20.76-150.35 0-272.24 124.29-272.24 277.6s121.89 277.59 272.24 277.59c1.17 0 2.35-.01 3.52-.03 1.12-.01 2.24-.03 3.37-.07 1.31-.03 2.63-.07 3.95-.13 1.05-.04 2.12-.08 3.17-.14.93-.04 1.84-.1 2.77-.15 1.37-.08 2.72-.18 4.07-.29.67-.04 1.35-.1 2.02-.17 3.52-.29 7.02-.65 10.5-1.09.7-.1 1.41-.18 2.1-.28.97-.13 1.92-.26 2.89-.39 1.02-.15 2.06-.31 3.1-.47.89-.14 1.77-.28 2.66-.43.97-.15 1.93-.32 2.87-.49.96-.17 1.91-.35 2.87-.53.59-.11 1.19-.22 1.77-.33.98-.19 1.97-.39 2.96-.6 3.41-.71 6.8-1.49 10.17-2.32 1.09-.26 2.18-.54 3.26-.84 1.09-.28 2.17-.57 3.26-.88.83-.22 1.67-.46 2.5-.7 2.43-.7 4.85-1.43 7.25-2.2 1.04-.32 2.08-.65 3.1-1 1.06-.35 2.12-.71 3.17-1.07 1.06-.36 2.12-.72 3.15-1.11.85-.29 1.68-.6 2.51-.92.35-.13.71-.25 1.06-.39 1.46-.54 2.92-1.11 4.37-1.68 2.18-.86 4.36-1.75 6.51-2.67.76-.32 1.52-.65 2.28-.99 10.39-4.54 20.44-9.72 30.12-15.49 1.6-.96 3.19-1.94 4.78-2.92 3.19-1.99 6.33-4.05 9.43-6.18 1.45-.99 2.89-1.99 4.33-3.02.23-.17.45-.32.68-.49 2.14-1.53 4.26-3.1 6.35-4.69.01-.01.01-.03.03-.03 1.49-1.14 2.96-2.3 4.44-3.45.72-.58 1.46-1.18 2.18-1.77.72-.58 1.45-1.18 2.17-1.78s1.43-1.2 2.16-1.81c2.14-1.81 4.26-3.66 6.35-5.54.7-.63 1.39-1.27 2.08-1.89.68-.64 1.38-1.28 2.06-1.92s1.35-1.28 2.03-1.94c.67-.64 1.35-1.29 2.02-1.95 2.01-1.96 3.99-3.97 5.94-5.99 1.3-1.36 2.58-2.73 3.86-4.11.63-.68 1.27-1.38 1.9-2.07 1.02-1.13 2.03-2.27 3.04-3.42 3.75-4.3 7.4-8.71 10.91-13.25 1.16-1.52 2.32-3.05 3.45-4.58 1.82-2.46 3.6-4.96 5.34-7.48.53-.78 1.06-1.56 1.6-2.34 1.58-2.35 3.13-4.72 4.64-7.13 1.52-2.39 2.99-4.82 4.44-7.27 1.43-2.45 2.84-4.93 4.22-7.42.45-.84.9-1.67 1.35-2.51s.89-1.68 1.34-2.52c.49-.95.98-1.89 1.47-2.85.72-1.43 1.43-2.87 2.14-4.32 2.1-4.33 4.1-8.74 5.99-13.2.41-.99.83-1.99 1.24-2.99 1.27-3.1 2.48-6.24 3.66-9.4 1.16-3.17 2.27-6.35 3.32-9.56.45-1.38.89-2.76 1.32-4.15.86-2.77 1.68-5.57 2.46-8.38.38-1.41.76-2.81 1.13-4.23.27-1.07.55-2.14.81-3.22.2-.81.4-1.6.59-2.41 0-.01.01-.04.01-.06 0-.03.01-.04.01-.07 2.48-10.48 4.38-21.2 5.68-32.1.16-1.36.31-2.73.45-4.11s.27-2.74.4-4.12c.11-1.25.22-2.51.31-3.76 0-.14.01-.28.03-.42.1-1.38.19-2.76.27-4.13.05-1 .11-1.99.15-2.99.05-1 .1-2 .14-3.01v-.15c.05-1.16.08-2.33.11-3.48.04-1.2.05-2.39.07-3.58.01-1.2.03-2.39.03-3.59 0-39.16-7.96-76.44-22.32-110.23zm-4.71 169.21c-2.76 12-6.35 23.67-10.7 34.94-36.77 95.39-127.89 162.9-234.49 162.9-21.13 0-41.65-2.66-61.26-7.66h-.01c-11.65-2.97-22.96-6.75-33.9-11.32-50.99-21.23-93.64-59.01-121.48-106.8l-.03-.03c-6.53-11.19-12.25-22.91-17.05-35.11-11.71-29.64-18.16-62-18.16-95.92 0-22.64 2.87-44.58 8.27-65.48 3.18-12.4 7.28-24.45 12.18-36.04 38.59-91.36 127.69-155.32 231.43-155.32 19.95 0 39.35 2.37 57.95 6.84h.01c13.46 3.23 26.51 7.57 39.05 12.92 47.61 20.27 87.8 55.02 115.29 98.85 7.44 11.85 13.94 24.35 19.41 37.42 12.97 30.95 20.15 65.03 20.15 100.82 0 20.3-2.31 40.05-6.68 58.98z" fill="#033e56"/><ellipse cx="2010.29" cy="1208.09" fill="#efa706" rx="48.42" ry="49.37"/><path d="m3014.67 959.18-38.16 198.77-2.88 15.03-3 15.6-5.11 26.63-1.92 9.98-4.43 23-41.04 213.79h-.01c-11.92-1.43-23.62-3.73-35.03-6.84l37.86-209.08 1-5.45 4.11-22.74 5.09-28.11 1.57-8.68 2.74-15.14 38.86-214.53h.01c13.75 1.46 27.24 4.08 40.34 7.77z" fill="none" stroke="#eae9e8" stroke-miterlimit="10" stroke-width="5"/><path d="m3185.34 1121.49-187.51 81.62-8.18 3.57-26.33 11.47-12.97 5.64-31.72 13.81-4.86 2.1-190.8 83.07-.03-.03c-5.79-11.61-10.74-23.69-14.75-36.18l190.04-84.12 8-3.54 28.14-12.46 11.14-4.93 24.87-11.01 14.48-6.41 183.5-81.24c6.66 12.32 12.34 25.23 16.96 38.64z" fill="none" stroke="#eae9e8" stroke-miterlimit="10" stroke-width="5"/><path d="m3163.43 1339.7c-6.26 10.54-13.21 20.51-20.77 29.86l-171.38-127.46-16.65-12.38-8.02-5.96-22.86-17-16.12-12-6.39-4.75-164.97-122.69c6.78-10.79 14.33-20.96 22.5-30.44l173.42 129.79h.01s12.98 9.72 12.98 9.72l6.93 5.18 24.2 18.12 13.69 10.24 7.61 5.68 165.82 124.1z" fill="none" stroke="#eae9e8" stroke-miterlimit="10" stroke-width="5"/><path d="m2947.85 881.45c-176.21 0-319.05 145.66-319.05 325.34s142.84 325.32 319.05 325.32 319.04-145.66 319.04-325.32-142.84-325.34-319.04-325.34zm272.13 332.5c-.03 1.16-.05 2.32-.11 3.48v.15c-.04 1-.08 2-.14 3.01-.04 1-.1 1.99-.15 2.99-.08 1.38-.18 2.76-.27 4.13-.01.14-.03.28-.03.42-.1 1.25-.2 2.51-.31 3.76-.11 1.38-.25 2.74-.4 4.12-.14 1.38-.29 2.74-.45 4.11-1.27 10.9-3.17 21.62-5.68 32.1 0 .03-.01.04-.01.07 0 .01-.01.04-.01.06-.19.81-.38 1.6-.59 2.41-.26 1.07-.53 2.14-.81 3.22-.37 1.42-.75 2.83-1.13 4.23-.76 2.81-1.58 5.61-2.46 8.38-.44 1.39-.87 2.77-1.32 4.15-1.05 3.22-2.14 6.4-3.32 9.56-1.17 3.16-2.39 6.29-3.66 9.4-.41 1-.83 2-1.24 2.99-1.87 4.45-3.88 8.87-5.99 13.2-.71 1.45-1.42 2.88-2.14 4.32-.49.96-.98 1.91-1.47 2.85-.42.85-.87 1.68-1.34 2.52-.45.84-.9 1.67-1.35 2.51-1.37 2.51-2.77 4.97-4.22 7.42-1.43 2.45-2.91 4.87-4.44 7.27-1.52 2.41-3.06 4.78-4.64 7.13-.53.78-1.06 1.56-1.6 2.34-1.73 2.52-3.52 5.01-5.34 7.48-1.13 1.53-2.29 3.06-3.45 4.58-3.49 4.54-7.13 8.95-10.91 13.25-1.01 1.16-2.02 2.3-3.04 3.42-.61.7-1.24 1.38-1.9 2.07-1.26 1.38-2.55 2.76-3.86 4.11-1.95 2.02-3.93 4.02-5.94 5.99-.67.67-1.35 1.32-2.02 1.95-.68.67-1.35 1.31-2.03 1.94-.68.64-1.38 1.28-2.06 1.92-.68.63-1.38 1.27-2.08 1.89-2.09 1.88-4.2 3.73-6.35 5.54-.71.61-1.43 1.23-2.16 1.81-.72.61-1.45 1.21-2.17 1.78-.72.58-1.46 1.18-2.18 1.77-1.46 1.17-2.95 2.32-4.44 3.45-.01 0-.01.01-.03.03-2.09 1.59-4.2 3.16-6.35 4.69-.23.17-.45.32-.68.49-1.43 1.03-2.88 2.03-4.33 3.02-3.1 2.13-6.24 4.19-9.43 6.18-1.58.99-3.18 1.96-4.78 2.92-9.68 5.78-19.73 10.96-30.12 15.49-.76.33-1.52.67-2.28.99-2.16.92-4.33 1.81-6.51 2.67-1.45.58-2.91 1.14-4.37 1.68-.35.14-.71.26-1.06.39-.83.32-1.67.63-2.51.92-1.04.39-2.09.75-3.15 1.11-1.05.36-2.1.72-3.17 1.07-1.02.35-2.06.68-3.1 1-2.4.77-4.82 1.5-7.25 2.2-.83.24-1.67.47-2.5.7-1.09.31-2.17.6-3.26.88-1.08.29-2.17.57-3.26.84-3.37.84-6.76 1.61-10.17 2.32-1 .21-1.98.4-2.96.6-.59.11-1.19.22-1.77.33-.96.18-1.91.36-2.87.53-.94.17-1.9.33-2.87.49-.89.15-1.77.29-2.66.43-1.04.17-2.08.32-3.1.47-.97.13-1.93.26-2.89.39-.7.1-1.41.18-2.1.28-3.48.43-6.98.79-10.5 1.09-.67.07-1.35.13-2.02.17-1.35.11-2.7.21-4.07.29-.93.06-1.84.11-2.77.15-1.05.06-2.12.1-3.17.14-1.31.06-2.63.1-3.95.13-1.13.04-2.25.06-3.37.07-1.17.01-2.35.03-3.52.03-150.35 0-272.24-124.29-272.24-277.59s121.89-277.6 272.24-277.6c36.62 0 71.55 7.38 103.44 20.76 65.6 27.49 118.34 80.35 146.46 146.62 14.36 33.79 22.32 71.07 22.32 110.23 0 1.2-.01 2.39-.03 3.59-.01 1.18-.03 2.38-.07 3.58z" fill="#424242"/><path d="m3197.76 1096.55c-28.12-66.26-80.86-119.12-146.46-146.62-31.89-13.38-66.83-20.76-103.44-20.76-150.35 0-272.24 124.29-272.24 277.6s121.89 277.59 272.24 277.59c1.17 0 2.35-.01 3.52-.03 1.12-.01 2.24-.03 3.37-.07 1.31-.03 2.63-.07 3.95-.13 1.05-.04 2.12-.08 3.17-.14.93-.04 1.84-.1 2.77-.15 1.37-.08 2.72-.18 4.07-.29.67-.04 1.35-.1 2.02-.17 3.52-.29 7.02-.65 10.5-1.09.7-.1 1.41-.18 2.1-.28.97-.13 1.92-.26 2.89-.39 1.02-.15 2.06-.31 3.1-.47.89-.14 1.77-.28 2.66-.43.97-.15 1.93-.32 2.87-.49.96-.17 1.91-.35 2.87-.53.59-.11 1.19-.22 1.77-.33.98-.19 1.97-.39 2.96-.6 3.41-.71 6.8-1.49 10.17-2.32 1.09-.26 2.18-.54 3.26-.84 1.09-.28 2.17-.57 3.26-.88.83-.22 1.67-.46 2.5-.7 2.43-.7 4.85-1.43 7.25-2.2 1.04-.32 2.08-.65 3.1-1 1.06-.35 2.12-.71 3.17-1.07 1.06-.36 2.12-.72 3.15-1.11.85-.29 1.68-.6 2.51-.92.35-.13.71-.25 1.06-.39 1.46-.54 2.92-1.11 4.37-1.68 2.18-.86 4.36-1.75 6.51-2.67.76-.32 1.52-.65 2.28-.99 10.39-4.54 20.44-9.72 30.12-15.49 1.6-.96 3.19-1.94 4.78-2.92 3.19-1.99 6.33-4.05 9.43-6.18 1.45-.99 2.89-1.99 4.33-3.02.23-.17.45-.32.68-.49 2.14-1.53 4.26-3.1 6.35-4.69.01-.01.01-.03.03-.03 1.49-1.14 2.96-2.3 4.44-3.45.72-.58 1.46-1.18 2.18-1.77.72-.58 1.45-1.18 2.17-1.78s1.43-1.2 2.16-1.81c2.14-1.81 4.26-3.66 6.35-5.54.7-.63 1.39-1.27 2.08-1.89.68-.64 1.38-1.28 2.06-1.92s1.35-1.28 2.03-1.94c.67-.64 1.35-1.29 2.02-1.95 2.01-1.96 3.99-3.97 5.94-5.99 1.3-1.36 2.58-2.73 3.86-4.11.63-.68 1.27-1.38 1.9-2.07 1.02-1.13 2.03-2.27 3.04-3.42 3.75-4.3 7.4-8.71 10.91-13.25 1.16-1.52 2.32-3.05 3.45-4.58 1.82-2.46 3.6-4.96 5.34-7.48.53-.78 1.06-1.56 1.6-2.34 1.58-2.35 3.13-4.72 4.64-7.13 1.52-2.39 2.99-4.82 4.44-7.27 1.43-2.45 2.84-4.93 4.22-7.42.45-.84.9-1.67 1.35-2.51s.89-1.68 1.34-2.52c.49-.95.98-1.89 1.47-2.85.72-1.43 1.43-2.87 2.14-4.32 2.1-4.33 4.1-8.74 5.99-13.2.41-.99.83-1.99 1.24-2.99 1.27-3.1 2.48-6.24 3.66-9.4 1.16-3.17 2.27-6.35 3.32-9.56.45-1.38.89-2.76 1.32-4.15.86-2.77 1.68-5.57 2.46-8.38.38-1.41.76-2.81 1.13-4.23.27-1.07.55-2.14.81-3.22.2-.81.4-1.6.59-2.41 0-.01.01-.04.01-.06 0-.03.01-.04.01-.07 2.48-10.48 4.38-21.2 5.68-32.1.16-1.36.31-2.73.45-4.11s.27-2.74.4-4.12c.11-1.25.22-2.51.31-3.76 0-.14.01-.28.03-.42.1-1.38.19-2.76.27-4.13.05-1 .11-1.99.15-2.99.05-1 .1-2 .14-3.01v-.15c.05-1.16.08-2.33.11-3.48.04-1.2.05-2.39.07-3.58.01-1.2.03-2.39.03-3.59 0-39.16-7.96-76.44-22.32-110.23zm-4.71 169.22c-2.76 12-6.35 23.67-10.7 34.94-36.77 95.39-127.89 162.9-234.49 162.9-21.13 0-41.65-2.66-61.26-7.66h-.01c-11.65-2.97-22.96-6.75-33.9-11.32-50.99-21.23-93.64-59.01-121.48-106.8l-.03-.03c-6.53-11.19-12.25-22.91-17.05-35.11-11.71-29.64-18.16-62-18.16-95.92 0-22.64 2.87-44.58 8.27-65.48 3.18-12.4 7.28-24.45 12.18-36.04 38.59-91.36 127.69-155.32 231.43-155.32 19.95 0 39.35 2.37 57.95 6.84h.01c13.46 3.23 26.51 7.57 39.05 12.92 47.61 20.27 87.8 55.02 115.29 98.85 7.44 11.85 13.94 24.35 19.41 37.42 12.97 30.95 20.15 65.03 20.15 100.82 0 20.3-2.31 40.05-6.68 58.98z" fill="#033e56"/><ellipse cx="2946.78" cy="1200.28" fill="#efa706" rx="48.42" ry="49.37"/><path d="m1267 1198.59c-2.05-15.63-159.48-373.21-175.85-461.82l-35.78 10.43 2.05 12.5-459.03 32.32-29.65-107.37-36.81-18.77 36.81 148.02-258.84 376.03c-2.79 4.06-.54 9.7 4.23 10.62l385.46 74.15 392.58-401.36s80.77 258.53 161.53 337.77c0 0 15.35 3.12 13.3-12.52zm-602.17 53.16-324.71-62.59c-4.88-.94-7.09-6.79-4.08-10.82l238.82-320.64s89.97 360.7 95.09 377.37c5.11 16.68-5.12 16.68-5.12 16.68zm408.94-434.71-366 395.11s-97.12-355.49-100.18-368c-3.07-12.52 10.21-15.63 10.21-15.63s426.33-29.19 444.73-30.24c18.4-1.04 11.24 18.77 11.24 18.77z" fill="#05384c"/><path d="m1091.16 736.77-16.01-48.7-30.03 10.73 10.25 48.39z" fill="#05384c"/><path d="m552.58 793.7s-5.61-3.18-3.11-12.38l43.01-10.67 3.18 11.53-43.08 11.53z" fill="#d6d7d8"/><path d="m1079.46 683.99c-2.23-20.3-8.49-29.21-8.49-29.21l62.06-52.08c3.46-2.9 8.76-1.29 10.03 3.04l5.24 18.02c.71 2.43-.12 5.04-2.09 6.63l-66.75 53.59z" fill="#065472"/><path d="m1249.82 679.08c-6.69 30.26-64.62 94.17-94.77 107.86-30.15 13.65-41.64 10.73-47.37 0-5.76-10.73 6.21-17.59 6.21-17.59 34.67-4.75 53.72-20.87 67.09-37.34 8.63-10.59 14.89-21.35 21.46-29.28 6.12-7.39 8.6-15.73 9.27-23.35.11-1.52.2-3.01.2-4.44.06-11.15-3.26-19.78-3.26-19.78s-26.18-2.16-49.36-4.19c-4.69-.39-9.27-.81-13.46-1.18-1.57-.14-3.09-.28-4.55-.42-.84-.06-1.66-.14-2.44-.22-.93-.08-1.83-.14-2.67-.22-2.28-.22-4.33-.42-6.01-.59-19.13-1.97-24.86-22.48-12.42-34.67 12.42-12.19 25.34 5.37 25.34 5.37 2.42.34 10.25 2.25 20.68 5.37 32.79 9.86 91.14 31.69 86.06 54.67z" fill="#022635"/><path d="m1079.46 683.99-4.31 4.09-30.02 10.73-11.97-3.91-6.23-23.9c11.5-18.56 38.29-16.11 38.29-16.11l5.74-.11s6.27 8.91 8.49 29.21z" fill="#d6d7d8"/><path d="m519.69 737.63s43.16-10.26 66.64-19.15c21.24-8.05-2.82-49.55-2.82-49.55s-57.81.83-82.24 20.8 18.42 47.9 18.42 47.9" fill="#021e28"/><path d="m1211.92 674.95c0 1.43-.08 2.92-.2 4.44-.67 7.61-3.15 15.96-9.27 23.35-6.57 7.92-12.84 18.68-21.46 29.28-17.92 12.76-33.26 16.52-45.06 22.7-16.74 8.79-23.94 5.87-27.76-8.77s17.7-18.07 17.7-18.07c43.07-10.73 74.2-61.5 74.2-61.5s-20.9-9.24-40.77-15.4c23.18 2.02 49.36 4.19 49.36 4.19s3.32 8.63 3.26 19.78z" fill="#021e28"/><ellipse cx="695.74" cy="1269.04" fill="#065472" rx="90.36" ry="92.14"/><ellipse cx="695.74" cy="1269.04" fill="#022635" rx="52.81" ry="53.85"/><path d="m703.66 1268.12-5.9-6.94c-.93-1.09-2.55-1.21-3.62-.26l-123.96 109.61-57.78-31.64c-2.45-1.34-5.51-.4-6.82 2.1l-6.43 12.22c-1.32 2.5-.4 5.61 2.06 6.96l116.29 63.67c2.45 1.34 5.51.4 6.82-2.1l6.43-12.22c1.32-2.5.4-5.61-2.06-6.96l-45.18-24.74 119.89-106.02c1.07-.95 1.19-2.6.26-3.69z" fill="#8d8d8e"/><path d="m817.25 1510.47c-7.15 7.83-78.26 6.46-88.81-1.7-10.55-8.17-39.47-16.33-47.98-17.36-3.06-.37-3.92-7.82-3.76-18.08.27-18.24 3.76-45.36 3.76-57.12 0-18.37 6.11-27.89 6.11-27.89 11.21-17.01 79.12-9.6 79.12-9.6s.86 33.75 3.58 52.81c2.4 16.78 26.45 35.94 36.09 44.22.01 0 .01.01.02.01 1.3 1.12 2.33 2.03 3.02 2.72 2.95 2.95 7.06 9.19 9.42 15.63.59 1.62 1.08 3.26 1.41 4.86.92 4.48.6 8.68-1.98 11.5z" fill="#e2e1e0"/><path d="m907.76 1508.77s-6.8 5.1-45.94 6.9c-2.05.09-4.03.13-5.93.1-.24 0-.47-.01-.7-.01-.42-.01-.84-.02-1.25-.04-1.58-.05-3.12-.15-4.6-.28-.41-.04-.81-.08-1.21-.12-.28-.03-.55-.06-.83-.09-.58-.06-1.15-.14-1.71-.21-.69-.1-1.37-.21-2.03-.31-.41-.07-.81-.14-1.21-.22-1.43-.26-2.8-.56-4.11-.89-.61-.15-1.22-.31-1.81-.48-.67-.19-1.33-.38-1.97-.59-.23-.07-.46-.15-.68-.22-1.75-.58-3.39-1.22-4.91-1.89-.92-.41-1.8-.83-2.64-1.26-.02 0-.03-.01-.05-.02-.68-.35-1.33-.71-1.96-1.06-.32-.18-.63-.37-.94-.55-.1-.06-.2-.12-.3-.18-1.11-.69-2.13-1.37-3.07-2.06-.51-.37-.99-.74-1.45-1.11-.23-.18-.46-.36-.67-.55-.22-.18-.43-.36-.64-.54-.45-.39-.86-.77-1.25-1.14-.3-.29-.58-.56-.84-.82-.04-.04-.07-.07-.1-.11-.16-.16-.31-.32-.46-.48-.16-.16-.3-.32-.43-.47-.11-.11-.21-.23-.31-.34-.57-.65-1.05-1.24-1.42-1.74-.13-.17-.24-.32-.35-.47-.07-.1-.14-.2-.2-.29-.05-.07-.1-.14-.14-.21-.23-.33-.38-.58-.46-.71-.01-.03-.03-.05-.04-.07l-.03-.06s.4-1.79.8-4.86c.71-5.42 1.44-14.82.05-25.39-.65-4.96-1.76-10.17-3.57-15.35-7.82-22.46-3.03-68.11-3.03-68.11l70.41-11.85s5.1.68 5.78 26.65 14.63 68.28 22.46 84.28c.63 1.3 1.19 2.57 1.67 3.8 1.12 2.81 1.86 5.44 2.34 7.84 1.93 9.54-.27 15.58-.27 15.58z" fill="#e2e1e0"/><path d="m781.7 1310.94v.03c-.31 1.55-.59 3.03-.87 4.55-7.19 38.07-9.11 65.37-14.84 72.11-19.75 23.15-54.9-7.21-68.18-1.9 0 0-17 15.85-9.86-10.34 7.14-26.21 19.05-82.68 21.77-138.14 2.73-55.49 14.97-106.85 9.52-135.78-2.5-13.2-2.39-47.59-1.55-81.08.08-2.36.14-4.72.2-7.05 16.72 34.08 23.43 64.96 22.45 94.26-1.66 49.08 26.77 165.23 41.36 203.35z" fill="#1e1e1e"/><path d="m867.28 779.24c-7.11 48.01-32.62 139.46-44.79 203.83-4.15 21.83-6.77 40.57-6.6 53.41.48 35.34-16.94 181.44-34.19 274.46-14.58-38.13-43.01-154.27-41.36-203.35.99-29.31-5.73-60.18-22.44-94.26 1.06-37.26 2.89-71.45 2.89-71.45s-150.56-254.51-147.5-267.1c3.06-12.61 276.63-2.72 276.63-2.72s.78 1.25 2.04 3.65c2.43 4.64 6.62 13.57 10.27 26.03 5.5 18.75 9.79 45.46 5.05 77.5z" fill="#262626"/><path d="m803.3 1380.14c-2.61-10.14-6.18-29.72-19.16-62.99-.51-1.32-1.04-2.67-1.6-4.05-.28-.67-.56-1.38-.84-2.14v-.03c-14.58-38.13-43.01-154.27-41.36-203.35.98-29.3-5.73-60.18-22.45-94.26-.79-1.63-1.6-3.26-2.44-4.89-11.6-22.62-27.59-46.69-48.6-72.68-54.45-67.37-69.42-110.92-90.86-149.38-21.44-38.43-2.7-111.59-2.7-111.59-1.49 13.82 85.75 52.73 85.75 52.73s51.02-6.8 77.57 38.8c26.55 45.57 29.61 80.97 58.52 148.34 11.32 26.35 20.51 48.58 27.36 68.41 10.62 30.85 15.59 56.02 14.16 82.32-2.39 43.21 11.21 136.46 13.26 181.05 2.05 44.56 23.15 109.21 25.85 124.18 2.73 14.97-69.73 20.09-72.46 9.52z" fill="#262626"/><path d="m741.45 748.36c.7 8.56 6.95 33.99 9.15 42.73.42 1.72.7 2.79.74 2.96-27.92-62.85-92.32-66.54-92.32-66.54 24.85-27.35 33.97-30.67 53.63-33.55 5.19-.76 18.04 2.68 31.03 6.85 17.33 5.58 34.91 12.47 34.91 12.47-19.86.9-37.99 24.67-37.14 35.08z" fill="#1c1c1c" opacity=".38"/><path d="m862.23 701.74c-24.77-5.78-110.33 87.93-111.63 89.35-2.2-8.74-8.45-34.17-9.15-42.73-.85-10.41 17.28-34.18 37.14-35.08 0 0-17.58-6.89-34.91-12.47l.49-6.16 107.79-18.94c2.43 4.64 6.62 13.57 10.27 26.03z" fill="#1c1c1c" opacity=".2"/><path d="m659.02 727.51s62.32-7.41 86.12 54.66 65.79 169.82 78.73 205.03l-61.01-145.34s-24.94-62.99-39.48-80.25c-14.73-17.5-32.27-28.63-64.36-34.1z" fill="#fcfcfc" opacity=".07"/><path d="m781.7 1310.94c-.31 1.55-.59 3.06-.87 4.58-7.22-12.02-31.47-106.17-34.16-118.37-2.7-12.17-10.03-72.82-10.28-104.49-.28-31.66-18.66-72.26-18.66-72.26l-.03-.03c.08-2.36.14-4.72.2-7.05 16.72 34.08 23.43 64.96 22.45 94.26-1.66 49.08 26.77 165.23 41.36 203.35z" opacity=".17"/><path d="m817.25 1510.47c-7.15 7.83-78.26 6.46-88.81-1.7-10.55-8.17-39.47-16.33-47.98-17.36-3.06-.37-3.92-7.82-3.76-18.08 1.28.26 56.91 11.62 62.41 20.78 5.57 9.27 68.01 10.39 78.71 0 2.27 6.17 2.93 12.53-.57 16.36z" fill="#2b2b2b"/><path d="m819.23 1498.97c-3.21 4.44-8.89 7.01-8.89 7.01s-39.76 4.04-38.71-4.6c0 0 .92-43.25 33.73-25.63.01 0 .01.01.02.01 1.3 1.12 2.33 2.03 3.02 2.72 2.95 2.95 7.06 9.19 9.42 15.63.59 1.62 1.08 3.26 1.41 4.86z" fill="#2b2b2b"/><path d="m782.93 1455.76c-6.61-1.38-13.47-1.22-19.99.59-5.55 1.54-11.01 4.36-14.16 9.46-1.01 1.64 1.53 3.14 2.53 1.51 2.82-4.56 7.91-6.89 12.84-8.2 5.87-1.57 12.06-1.71 18-.47 1.84.38 2.63-2.51.78-2.89z" fill="#2b2b2b"/><path d="m771.2 1439.9c-5.47-.89-11.09-1.79-16.58-.58-4.47.99-8.62 3.43-11.16 7.39-1.04 1.62 1.5 3.12 2.53 1.51 5.27-8.19 16.36-6.74 24.43-5.43 1.84.3 2.64-2.59.78-2.89z" fill="#2b2b2b"/><path d="m766.39 1421.12c-9.68-1.5-20.51-2.79-28.57 4.26-1.43 1.25.63 3.36 2.05 2.12 7.12-6.23 17.25-4.81 25.75-3.49 1.83.28 2.61-2.61.77-2.89z" fill="#2b2b2b"/><path d="m907.76 1508.77s-6.8 5.1-45.94 6.9c-2.05.09-4.03.13-5.93.1-.24 0-.47-.01-.7-.01-.42-.01-.84-.02-1.25-.04-1.58-.05-3.12-.15-4.6-.28-.41-.04-.81-.08-1.21-.12-.28-.03-.55-.06-.83-.09-.58-.06-1.15-.14-1.71-.21-.69-.1-1.37-.21-2.03-.31-.41-.07-.81-.14-1.21-.22-1.43-.26-2.8-.56-4.11-.89-.62-.15-1.22-.31-1.81-.48-.67-.19-1.33-.38-1.97-.59-.23-.07-.46-.15-.68-.22-1.75-.58-3.39-1.22-4.91-1.89-.92-.4-1.8-.82-2.64-1.26-.02 0-.03-.01-.05-.02-.68-.34-1.34-.7-1.96-1.06-.32-.18-.63-.37-.94-.55-.1-.06-.2-.12-.3-.18-1.11-.68-2.13-1.37-3.07-2.06-.51-.37-.99-.74-1.45-1.11-.23-.18-.46-.36-.67-.55-.22-.18-.43-.36-.64-.54-.45-.39-.86-.77-1.25-1.14-.29-.28-.58-.55-.84-.82-.04-.04-.07-.07-.1-.11-.16-.16-.31-.32-.46-.48-.16-.16-.3-.32-.43-.47-.11-.11-.21-.23-.31-.34-.57-.65-1.05-1.24-1.42-1.74-.13-.17-.24-.32-.35-.47-.07-.1-.14-.2-.2-.29-.05-.07-.1-.14-.14-.21-.23-.33-.38-.58-.46-.71-.01-.03-.03-.06-.04-.07l-.03-.06s.4-1.79.8-4.86c.71-5.42 1.44-14.82.05-25.39v-.03c2.78 9.91.89 19.75 5.26 26.52 21.93 33.96 89.86 1.13 90.8.77 1.93 9.54-.27 15.58-.27 15.58z" fill="#2b2b2b"/><path d="m907.76 1508.77s-6.8 5.1-45.94 6.9c-16.22.75-27.7-2.47-35.59-6.51.86-2.62 2.2-5.56 4.08-8.86 33.31-58.37 77.24-9.51 77.72-7.11 1.93 9.54-.27 15.58-.27 15.58z" fill="#2b2b2b"/><path d="m879.88 1457.35s-25.01-11.21-38.29 5.35" fill="none" stroke="#2b2b2b" stroke-linecap="round" stroke-miterlimit="10" stroke-width="3"/><path d="m875.51 1437.85s-28.08-11.21-42.99 5.35" fill="none" stroke="#2b2b2b" stroke-linecap="round" stroke-miterlimit="10" stroke-width="3"/><path d="m873.59 1419.9s-31.6-11.21-48.39 5.35" fill="none" stroke="#2b2b2b" stroke-linecap="round" stroke-miterlimit="10" stroke-width="3"/><path d="m652.39 101.28c9.51 38.12 6.17 30.82-5.26 52.6-11.24 21.42-4.88 31.61 8.7 50.42 19.9 27.59-12.83 18.47-14.13 50.76-1.18 29.08 28.79 29.89 16.19 48.41-12.6 18.53-10.65 45.09-5.6 50.63 27.87 30.57 56.34-9.92 96.29.64 39.96 10.57 69.56-60.44 104.24-72.14 68.23-23.03-16.91-62.52-9.17-90.93s26.82-47.88 8.1-73.28c-17.24-23.39-10.24-45.42-19.83-61.89-9.54-16.39-19.94-30.19-41.48-39.45-6.87-2.95-14.05-5.03-21.39-6.29-3.53-.6-7.1-1.02-10.69-1.23-1.81-.11-3.64-.18-5.45-.19-21.14-.17-55.74 4.33-75.27 32.58-2.71 3.92-4.98 7.86-6.87 11.76-8.7 17.83-19.08 32.48-18.84 41.28.1 3.99.47 6.32.47 6.32z" fill="#272727"/><path d="m798.19 210.65c-.06.53-.11 1.04-.14 1.55-11.27-12.47-26.77-20.06-41.86-23.52 21.07 1.07 43.66 5.93 42 21.97z" fill="#ffa17e"/><path d="m838.67 277.35-30.29 44.56-109.91-23.49s-25.51-65.66-3.74-61.58c9.58 1.8 15.96-7.16 20.06-17.76 5.23-13.46 6.83-29.53 6.83-29.53s16.69-1.8 34.5-.87h.06c15.09 3.46 30.6 11.04 41.86 23.52-.2 2.44-.28 4.72-.25 6.88.37 23.01 12.98 30.71 12.98 30.71 18.71 8.82 27.9 27.56 27.9 27.56z" fill="#ffa17e"/><path d="m814.17 198.91c-5.79 9.55-10.56 15.14-16.35 18.51-7.14 4.13-15.82 4.92-29.92 5.48-15.71.62-34.39-17.73-46.41-31.89-7.53-8.88-12.45-16.1-12.45-16.1s-20.76-42.2-23.09-64.98c-2.33-22.81 15.59-53.1 28.54-74.17 12.92-21.1 74.85-21.44 93.89 10.2 19.08 31.64 17.03 63.3 20.14 90.16 3.12 26.89-1.4 41.52-14.36 62.79z" fill="#ffa17e"/><path d="m693.98 120.83s-22.55-21.25-15.08 11.72c7.47 32.96 22.88 26.23 22.88 26.23l-7.79-37.94z" fill="#ffa17e"/><path d="m685.95 115.19s7.56 3.39 8.54 8.14c0 0 40.75-26.83 46.1-56.77 0 0 50.03 43.74 91.5 47.54l-14.64-72.11-55.13-32.2-41.96 7.32-34.4 33.18-8.57 40.01 8.57 24.9z" fill="#272727"/><path d="m797.77 217.36c-.03.56-.03 1.12-.03 1.66 0 0-37.32 43.01-82.99 0 4.27-11.04 6.12-23.82 6.69-28.07 12.02 14.16 30.71 32.51 46.41 31.89 14.1-.56 22.79-1.35 29.92-5.48z" fill="#f49376"/><ellipse cx="797.61" cy="141.11" fill="#3a2a2b" rx="6.97" ry="4.46" transform="matrix(.08019892 -.99677888 .99677888 .08019892 592.97 924.83)"/><ellipse cx="745.11" cy="136.45" fill="#3a2a2b" rx="7.49" ry="4.79" transform="matrix(.08019892 -.99677888 .99677888 .08019892 549.33 868.22)"/><path d="m821.65 122.71s1.73 5.1-3.71 3.38-5.55-7.06-22.89-5.14c-10.84 1.2-10.25-1.13-8.28-3.05 1.42-1.39 3.3-2.29 5.26-2.62 6.28-1.06 23.2-2.8 29.63 7.43z" fill="#282728"/><path d="m721.56 114.94s-3.65 5.17 2.7 4.02 8.38-6.76 25.98-2.6c11 2.6 11.21.07 9.82-2.2-1-1.64-2.65-2.82-4.6-3.41-6.25-1.89-23.45-5.81-33.89 4.19z" fill="#282728"/><path d="m794.26 182.48s-21.1 8.62-46.15-3.71c0 0-2.61 10.76 6.26 17.11 8.87 6.34 39 9.29 39.88-13.39z" fill="#fffeff"/><path d="m777.88 142.29c.03-.41-.02-.81-.18-1.19-.37-.91-1.15-2.18-1.87.48-.83 3.06.69 17.39 2.53 22.59.42 1.19-.06 2.51-1.17 3.11l-1.95 1.05c-.61.33-1.09.89-1.25 1.57-.17.76.11 1.59 2.2 1.5 3.81-.16 8.03-4.28 6.36-7.7-1.64-3.35-5.46-12.29-4.69-21.41z" fill="#f49376"/><path d="m684.68 126.7c-.91-.4-1.97.01-2.37.92s.02 1.97.93 2.37c.06.02 3.59 1.62 6.48 5.5-2.4.23-4.47 1.17-4.81 1.34-.9.43-1.28 1.5-.85 2.4.34.7 1.06 1.08 1.79 1.02.2-.02.41-.07.6-.17.87-.42 3.53-1.37 5.39-.91.78 1.79 1.35 3.87 1.55 6.28.08.99.95 1.73 1.94 1.65h.03c.98-.09 1.7-.95 1.62-1.93-1.07-13.39-11.85-18.27-12.31-18.47z" fill="#f49376"/><path d="m532.12 711.39c-.46.78-.82 1.61-1 2.5-.75 3.53-2.45 12.8.3 13.62 3.4 1.02 8.51-.68 14.63-10.89s13.61-25.86 7.83-39.81-20.76-58.87-22.46-87.79-3.4-110.25-5.78-127.6 64.65-70.1 64.65-70.1-38.45-62.95-52.06-47.64-65.98 60.1-71.09 119.3c-5.1 59.21 49.65 177.75 30.59 203.95s-21.44 27.56-13.27 50.02 38.11 21.78 41.85 19.74 1.89-11.36 2.23-18.51-3.2-.46-5.93-9.99c-2.72-9.53-2.43-19.82 6.25-19.82s10.59 10.57 3.25 23.01z" fill="#ffa17e"/><path d="m528.51 721.21s-15.04-7.26-16.86-18.35c0 0-1.41 9.59 16.86 19.17z" fill="#f49376"/><path d="m528.69 727.07s-17.12-2.45-25.22-18.17c0 0 3.7 14.89 25.22 19.1z" fill="#f49376"/><path d="m528 734.51s-21.73-3.27-30.83-16.06c0 0 5.66 12.12 30.49 16.8l.34-.75z" fill="#f49376"/><path d="m533.91 713.31c-.92.08-1.7.74-1.93 1.64-.84 3.29-2.54 11.51 1.44 10.91 3.33-.5 6.55-3.35 8.31-5.17.89-.92.93-2.33.13-3.32-1.49-1.84-4.25-4.39-7.94-4.06z" fill="#fff" opacity=".21"/><path d="m1138.84 649.16c2.16.22 4.52.42 7 .65-1.4 1.55-2.28 2.5-2.28 2.5s-1.32.08-2.73-.87c-.7-.48-1.4-1.18-1.99-2.28z" fill="#ffa17e"/><path d="m1145.05 657.39c.7 3.82 1.12 11.41-7.95 7.5-1.69-.73-3.96-1.69-6.63-2.84-16.13-6.91-47.09-20.4-57.01-27.08-11.58-7.84-144.94-42.87-174.89-66.7-29.95-23.82-46.95-59.9-53.07-108.56s67.74-13.2 67.74-13.2-2.08 49.28 27.53 70.38c29.58 21.1 121.82 94.6 151.74 85.41 29.95-9.19 41.52-21.44 54.79-3.4 9.52 12.9 16.04 19.55 16.46 25.51-10.42-3.12-18.26-5.03-20.68-5.37 0 0-12.92-17.56-25.34-5.37-12.45 12.19-6.71 32.7 12.42 34.67 1.69.17 3.74.37 6.01.59 4.75 3.85 8.4 6.43 8.4 6.43s.25.84.48 2.02z" fill="#ffa17e"/><path d="m1137.1 664.89c-1.69-.73-3.96-1.69-6.63-2.84.45-2.22 1.66-6.41 4.72-7.28 4.19-1.18 9.86 2.61 9.86 2.61.7 3.82 1.12 11.41-7.95 7.5z" fill="#fff" opacity=".21"/><path d="m1145.84 649.8c-1.4 1.55-2.28 2.5-2.28 2.5s-1.32.08-2.73-.87c0 0 .17-.87.45-2.05 1.46.14 2.98.28 4.55.42z" fill="#fff" opacity=".21"/><path d="m857.58 468.17c9.24-2.34 58.62-15.38 58-26.48-.68-12.25-13.95-65.33-11.91-98s-10.21-63.97-27.9-71.46c-9.68-6.96-64.99-22.46-64.99-22.46 11.91 8.85 16.33 25.18-2.72 40.49-19.06 15.31-73.16-.68-96.64-11.91s-16.67-41.51-16.67-41.51c-43.21-1.36-67.65 10.03-67.65 10.03-.02.04-.05.09-.07.13-14.9 3.16-84.93 70.08-115 119.14 0 0 39.81 50.36 52.74 53.08 0 0 28.21-21.56 47.85-41.73.94 17.92 2.67 36.48 5.24 55 10.89 78.6-2.72 128.62-22.12 160.27s-31.94 104.28-31.94 104.28c8.17 21.44 183.5-1.4 218.89 4.04s75.43-15.83 75.43-15.83c-6.47-28.24-16.03-141.83-7.52-178.24 1.74-7.44 4.22-21.36 6.99-38.85z" fill="#fb8500"/><path d="m865.97 397.91c-2.07-7.53-3.37-14.48-2.44-22.3.16-1.32-1.75-1.36-2.16-.29-5.04 13.25 5.01 27.68 5.4 41.02.24 8.05-1.43 16.15-2.96 24.01-.73 3.76-1.55 7.49-2.47 11.21-.9 3.67-2.32 7.44-2.45 11.24 0 .07.09.09.12.03 1.97-3 2.83-6.75 3.81-10.16 1.12-3.89 2.13-7.81 3.04-11.75 1.69-7.37 3.28-15.03 3.49-22.62.2-7.01-1.54-13.68-3.39-20.39z" fill="#dd7003"/><path d="m628.49 326.5c-.32-.31-.92-.45-1.32-.17-1.5 1.06-1.44 2.57-1.65 4.31-.25 2.08-.42 4.16-.71 6.23-.6 4.34-1.45 8.64-2.52 12.89-1.04 4.11-2.31 8.14-3.75 12.12-1.31 3.64-2.19 8.31-4.99 11.18-.06.07 0 .2.1.17 3.24-1.33 4.93-4.41 6.35-7.53 1.92-4.22 3.5-8.61 4.85-13.04 1.36-4.45 2.46-8.98 3.29-13.56.41-2.25.76-4.51 1.04-6.78.23-1.92.84-4.36-.7-5.83z" fill="#dd7003"/><path d="m699.07 689.75c-2.25-1.66-3.46-2.87-6.13-3.81-2.33-.83-4.76-1.49-7.15-2.12-5.02-1.32-10.12-2.39-15.2-3.46-9.71-2.05-19.59-3.61-29.42-4.88-10.11-1.31-20.52-1.51-30.27-4.76-8.51-2.84-16.49-7.9-21.55-15.45-.35-.53-1.15-.07-.85.5 8.69 16.77 29.93 20.22 46.73 23.35 10.65 1.98 21.23 4.18 31.8 6.54 5.29 1.18 10.58 2.37 15.85 3.62 2.63.62 5.31 1.2 7.97 1.68 3.19.58 4.77.2 7.93-.15.57-.06.74-.7.28-1.04z" fill="#dd7003"/><path d="m844.22 468.53c-11.31 5.45-22.48 9.14-35.06 10.18-12.4 1.03-24.88.29-37.26-.71-26.13-2.11-52.74-6.38-76.06-19.01-5.77-3.13-11.32-6.72-16.42-10.85-5.25-4.25-9.53-9.6-14.84-13.72-1.32-1.02-3.07.21-2.33 1.8 2.59 5.52 7.56 9.91 12.13 13.8 4.58 3.9 9.51 7.41 14.67 10.51 11.05 6.64 23.16 11.42 35.59 14.77 13.72 3.71 27.87 5.71 42.01 6.98 13.3 1.19 26.8 2.23 40.16 1.48 13.73-.77 28.81-3.31 39.87-12.01 1.93-1.52-.53-4.14-2.47-3.21z" fill="#dd7003"/><path d="m2909.07 1244.38c-.28-.65-.56-1.31-.82-1.97l.66-.64-15.12 2.58-126.56 22.32c4.22 17.26 10.52 33.7 18.62 49.04l123.52-71.31h-.3z" fill="none"/><path d="m2296.73 694.81c-3.89-2-6.21-3.67-6.84-4.68-5.03-8.05 4.43-260.68 4.43-260.68l-.35-.09-.61 26.98s-28.93 61.76-32.62 73.53c-3.69 11.76-112.6 93.45-134.75 103.61-18.04 8.27-33.64 15.31-44.29 11.16-.3 1.98-.85 3.88-1.63 5.66 14.61 13.14 31.89 18.8 44.76 21.23 3.93-6.59 11.13-11.01 19.36-11.01 12.44 0 22.52 10.08 22.52 22.52 0 9.23-5.55 17.15-13.49 20.63l-7.09 23.39 8.58.79c5.36.49 9.31 5.23 8.82 10.59-.46 5.06-4.71 8.86-9.69 8.86-.3 0-.6-.01-.9-.04l-5.9-.54-8 40.32 167.73 21.75c-6.15-67.75-10.04-113.96-10.04-113.96z" fill="none"/><path d="m2633.68 1316.15 3.91.85c2.42-1.12 4.54-2.97 5.97-5.46 3.71-6.43 1.51-14.65-4.92-18.36-2.45-1.41-5.15-1.96-7.77-1.76.73 8.67 1.32 16.14 1.76 22.24l1.04 2.48z" fill="none"/><path d="m2435.63 854.95c2.34 65.34 8.1 168.33 13.36 262.23l63.13 65.32c-19.24-107.46-43.31-244.28-59.31-325.32z" fill="none"/><path d="m2436.19 787.97c-1.58 0-1.93 13.95-1.44 37.39l11.89 1.54c-5.15-24.38-8.88-38.93-10.45-38.93z" fill="none"/><path d="m2643.57 1249.11c-3.45-5.98-10.81-8.3-16.99-5.6.53 5.69 1.04 11.18 1.52 16.43l17.21-2.93c.24-2.66-.3-5.41-1.74-7.9z" fill="none"/><path d="m2612.26 1097.89 46.12-214.07-69.16-8.97c7.35 70.04 15.64 149.87 23.04 223.03z" fill="none"/><path d="m2664.56 855.15 6.3-29.22-6.02-1.32c-5.26-1.15-8.58-6.35-7.43-11.61s6.35-8.58 11.61-7.43l10.64 2.34 14.29-68.58c.07-.33.15-.65.25-.96-25.51-8.85-43.2-21.33-56.79-21.82-13.03-.47-44.46-6.17-67.17-21.05 2.69 25.14 8.63 80.89 15.84 149.47l78.48 10.17z" fill="none"/><path d="m2681.55 1222.09c-.26-1.17.37-2.33 1.44-2.78-.02-1.25-.05-2.5-.05-3.75 0-83.05 34.59-158.01 90.13-211.29l-88.71-102.27-62.65 290.8c.48 4.89.94 9.7 1.4 14.41 10.12 4.66 19.11 11.36 26.44 19.57 1.31-.28 2.59.54 2.89 1.84.11.5.06 1-.12 1.44 5.59 6.98 10.04 14.91 13.07 23.52l19.59-3.34c-1.03-8.7-1.69-17.51-1.93-26.42-.74-.28-1.33-.91-1.52-1.74zm-8.38 4.38-11.28 2.54c-.18.04-.36.06-.54.06-1.11 0-2.12-.77-2.37-1.9-.3-1.31.53-2.62 1.84-2.91l11.28-2.54c1.31-.29 2.62.53 2.91 1.84.3 1.31-.53 2.62-1.84 2.91z" fill="none"/><path d="m2918.08 1171.44s-1.73.38-1.73.38l1.23.71-.15-.25c.21-.28.43-.56.65-.84z" fill="none"/><path d="m2965.22 1287.38-.26-1.03-11.26 30.95c-.6 8.79-.67 17.73-.03 26.62 1.07-.16 2.16-.24 3.27-.24 3.82 0 7.41.95 10.56 2.63v-58.9l-.14.25c-.71-.08-1.42-.17-2.13-.27z" fill="none"/><path d="m2535.44 1311.54c.18.32.39.61.59.91-.65-3.27-1.33-6.79-2.06-10.54-.7 3.17-.28 6.6 1.47 9.63z" fill="none"/><path d="m2161.18 819.37 162.62 168.27c-5.28-52.67-10.17-104.23-14.3-149.04z" fill="none"/><path d="m2481.22 1401.75s0 0 0 0c0-.01 0-.02 0-.03v.02z" fill="#a8a8a8"/><path d="m2599.08 1360.21c-2.86 1.1-4.9 3.87-4.9 7.11 0 4.2 3.42 7.61 7.62 7.61.44 0 .87-.05 1.29-.12l-3.24-14.7c-.25.03-.51.07-.76.1z" fill="#a8a8a8"/><path d="m2506.2 1394.27s0 0 0 0c-4.11-5.69-9.75-7.93-10.13-8.08-.44-.18-.81-.46-1.06-.82-8.11 6.19-13.81 12.06-13.81 16.13s0 .02 0 .02c0-.01 0-.02 0-.02s10.07-3.18 25-7.22z" fill="#a8a8a8"/><path d="m2511.11 1392.96c23.97-6.34 57.73-14.09 83.56-15.4-3.24-2.25-5.37-6-5.37-10.24 0-2.41.7-4.65 1.88-6.56-.56.01-1.12.04-1.69.04-12.71 0-24.73-2.96-35.41-8.2-.41.38-.84.75-1.35 1.1 2.05 2.06 8.46 9.11 10.77 18.75.31 1.31-.49 2.62-1.8 2.94-.19.04-.38.07-.57.07-1.1 0-2.09-.75-2.37-1.87-2.35-9.8-9.88-16.84-9.96-16.9-.32-.3-.54-.66-.66-1.05-.02 0-.05 0-.07.02-2.57.6-7.7 2.79-14.01 5.94 1.91 1.89 7.48 7.78 10.49 14.83.53 1.25-.05 2.67-1.29 3.2-.31.14-.63.19-.95.19-.95 0-1.84-.56-2.24-1.48-3.18-7.47-9.9-13.73-9.97-13.79-.21-.2-.38-.43-.51-.67-3.29 1.72-6.79 3.64-10.35 5.69 1.66 1.66 6.78 7.14 9.1 13.53.47 1.26-.19 2.66-1.45 3.12-.27.1-.56.15-.84.15-.99 0-1.93-.61-2.29-1.61-2.33-6.4-8.31-12.08-8.37-12.14-.18-.17-.32-.35-.43-.55-5.47 3.26-10.91 6.76-15.78 10.22 2.55 1.28 8.05 4.57 11.91 10.68z" fill="#a8a8a8"/><path d="m2627.34 1382.74c2.96 2.15 4.75 5.01 5.04 8.73 0 0 0 0 0-.01.98-12.2-1.66-29.23-3.88-40.75-2.7 1.5-5.49 2.85-8.37 4.03l7.21 27.99z" fill="#a8a8a8"/><path d="m2592.75 1400.57h16.02l-4.63-21c-.76.14-1.54.23-2.34.23-2.64 0-5.11-.83-7.12-2.24-25.83 1.31-59.59 9.06-83.56 15.4 2.62 4.14 4.48 9.58 4.16 16.56v.06c19.64 1.3 44.59 1.35 65.96.6.99-5.47 5.77-9.62 11.52-9.62z" fill="#a8a8a8"/><path d="m2627.34 1382.74 3.97 15.44c.52-1.98.87-4.24 1.06-6.7-.28-3.73-2.08-6.58-5.04-8.73z" fill="#a8a8a8"/><path d="m2510.41 1409.23c.29-6.54-1.67-11.42-4.21-14.96-14.93 4.05-25 7.22-25 7.22v.02c0 .07 0 .15.02.22v.03.05c.62 3.7 12.47 6.07 29.18 7.41z" fill="#a8a8a8"/><path d="m2317.33 1388.42c-8.51 6.4-14.55 12.5-14.55 16.69 0 .43.15.84.43 1.24 1.65-.5 11.35-3.43 25.1-7.03-3.31-5.37-7.71-8.86-10.98-10.9z" fill="#a8a8a8"/><path d="m2423.38 1378.55c4.2 0 7.62-3.42 7.62-7.62s-3.42-7.62-7.62-7.62-7.62 3.42-7.62 7.62 3.42 7.62 7.62 7.62z" fill="#a8a8a8"/><path d="m2379.66 1345.13c-.19.44-.37.88-.52 1.35 0 0 1.05 7.94-6.1 11.57 2.72 3.4 6.23 8.79 7.8 15.39.31 1.31-.49 2.62-1.8 2.93-.19.05-.38.07-.57.07-1.1 0-2.1-.75-2.37-1.87-1.61-6.7-5.6-12.07-8.01-14.85-2.84.94-7.26 2.89-12.5 5.51 2.49 2.67 6.64 7.64 9.08 13.38.53 1.24-.05 2.67-1.29 3.2-.31.13-.63.19-.95.19-.95 0-1.84-.56-2.24-1.48-2.49-5.87-7.21-11.01-9.12-12.96-3.25 1.7-6.7 3.6-10.21 5.61 2.23 2.56 5.38 6.71 7.06 11.33.46 1.27-.19 2.66-1.46 3.12-.27.11-.56.16-.83.16-.99 0-1.93-.61-2.29-1.61-1.57-4.33-4.81-8.32-6.77-10.48-5.22 3.11-10.43 6.44-15.13 9.74 3.77 2.64 8.33 6.74 11.68 12.66 43.03-10.95 117.06-25.93 118.9.23.14 1.96.2 3.87.16 5.7 5.18-13.4-1.1-45.58-3.75-57.62-16.86 7.63-49.31 5.46-68.78-1.27zm56.2 25.81c0 6.89-5.6 12.49-12.49 12.49s-12.49-5.6-12.49-12.49 5.6-12.49 12.49-12.49 12.49 5.6 12.49 12.49z" fill="#a8a8a8"/><path d="m2333.13 1398.08c2.36 4.13 4.13 9.16 4.63 15.18 39.46 2.5 99.5.11 109.61-3.68 2.18-.82 3.74-2.79 4.81-5.56.05-1.83-.02-3.74-.16-5.7-1.84-26.16-75.87-11.19-118.9-.23z" fill="#a8a8a8"/><path d="m2332.84 1412.92c-.56-5.49-2.3-9.97-4.53-13.59-13.75 3.6-23.45 6.53-25.1 7.03 2.34 3.24 13.92 5.34 29.63 6.57z" fill="#a8a8a8"/><path d="m2457.72 128.99c-.23 6.73-.95 13.3-2.11 19.63.32-1.67.46-2.63.46-2.63s.37 7.31.82 17.78c1.15-.55 2.46-.86 3.95-.88 0 0 .16.24.5.67 10.73-3.28 24.01-10.81 18.91-27.63-3.24-10.67-8.1-14.02-12.61-14.36-6.24.81-8.33 3.65-9.92 7.42zm11.33 18.27c1.32-1.33 2.78-3.11 3.19-4.73.67-3.99-6.75-7.71-9.87-10.03 13.62-.48 21.26 11.38 7.44 19.33-2.8 1.56-5.76 2.61-8.9 3.09 2.76-2.85 5.56-4.99 8.15-7.66z" fill="#eeb484"/><path d="m2456.88 163.77c.01.32.03.64.04.96 1.38-.31 2.87-.7 4.41-1.17-.35-.43-.5-.67-.5-.67-1.49.02-2.8.33-3.95.88z" fill="#eeb484"/><path d="m2451.7 207.31c-2.67-13.61-4.67-35.12 3.08-42.13-1.42.27-2.63.46-3.56.58-11.83 35.5-38.35 60.24-69.18 60.24-5.97 0-11.79-.93-17.36-2.69 0 .04-.44 6.79-.45 14.51 15.75 2.45 55.3 4.27 87.47-30.52z" fill="#eeb484"/><path d="m2456.93 164.73c-.75.17-1.47.32-2.15.45-7.75 7.01-5.76 28.52-3.08 42.13 2.21-2.39 4.38-4.95 6.51-7.69-.34-12.01-.85-24.8-1.28-34.88z" fill="#eeb484"/><path d="m2456.06 145.99s-.14.95-.46 2.63c-1.09 5.94-2.56 11.67-4.39 17.15.92-.12 2.14-.31 3.56-.58.63-.57 1.34-1.04 2.11-1.41-.45-10.47-.82-17.78-.82-17.78z" fill="#eeb484"/><path d="m2456.88 163.77c-.77.37-1.47.84-2.11 1.41.67-.13 1.39-.28 2.15-.45-.01-.32-.03-.65-.04-.96z" fill="#eeb484"/><path d="m2451.22 165.76c-.08.01-.15.02-.23.03-8.86 26.03-31.73 67.35-86.32 57.52 5.58 1.76 11.39 2.69 17.36 2.69 30.82 0 57.35-24.74 69.18-60.24z" fill="#eeb484"/><path d="m2450.99 165.79c.07 0 .15-.02.23-.03 1.83-5.48 3.3-11.21 4.39-17.15-.64 3.34-2.03 9.61-4.61 17.18z" fill="#eeb484"/><path d="m2462.36 132.5c3.12 2.32 10.54 6.04 9.87 10.03-.41 1.62-1.86 3.4-3.19 4.73-2.59 2.67-5.39 4.81-8.15 7.66 3.14-.48 6.1-1.53 8.9-3.09 13.82-7.96 6.18-19.81-7.44-19.33z" fill="#dc9f72"/><path d="m2577.93 449.78c-.49-.07-.98-.14-1.47-.21-15.25-2.13-30.58-2.95-45.94-3.43-12.24-.28-24.65-1.46-36.89-.83-3.85.2-7.52 1.6-11.37 1.96 3.72.55 7.44 1.01 11.18 1.42 12.29 1.33 24.61 1.93 36.96 2.32 12.77.3 25.54.35 38.3-.4 2.67-.16 5.34-.34 8.01-.57.65-.05 1.3-.11 1.95-.17-.24-.04-.48-.07-.72-.1z" fill="#e84b4b"/><path d="m2293.09 376.34c-.24 12.13-.28 24.25.2 36.37.17 4.39.42 8.78.75 13.17.09 1.19.17 2.37.27 3.56 2.34-17.6 3.18-35.28 3.64-52.99.34-17.72.3-35.41-1.23-53.1-2.33 17.6-3.17 35.28-3.64 52.99z" fill="#e84b4b"/><path d="m2289.89 690.13c.63 1.01 2.95 2.68 6.84 4.68 26.37 13.58 125 42.76 261.06-9.43-1.89-1.96-3.63-4.02-5.18-6.2-2.39-3.36-4.34-6.98-5.73-10.89-2.06-5.77 2.53-11.77 8.65-11.48 3.63.18 8.06.38 13.16.58v-133.67c-8.04 10.7-129.83 85.14-142.44 91.01-12.61 5.89-30.25 30.26-37.82 35.3-7.56 5.05-15.97 1.69-24.19 0-8.23-1.68-14.47 0-21.19 0s-15.13-4.18-15.13-4.18-8.4-.86-15.85-6.74c-7.45-5.89.73-11.77 7.45-19.33s0-6.72-5.89-8.41c-5.88-1.68 5.89-17.65 16.81-22.69 10.93-5.04 52.12-2.52 56.32-5.04s94.98-74.81 100.02-83.22c4.51-7.5 6.33-44.06 6.66-51.74-3.73-.41-7.45-.88-11.18-1.42 3.85-.36 7.52-1.76 11.37-1.96 12.24-.63 24.65.55 36.89.83 15.37.48 30.69 1.3 45.94 3.43.49.07.98.14 1.47.21l13.91-1.21s-4.03-172.11-50.33-187.21c-46.26-15.09-83.65-24.93-83.71-24.95-2.5 6.33-22.79 23.82-47.36 30.14-24.57 6.31-39.11-1.46-43.43-7.3-1.38-1.87-2.11-6.22-2.48-11.28l-2.38.3s-77.3 14.09-89.38 47.31c-10 27.5-35.18 89.5-43.55 110.02-1.33 3.27.28 6.91 3.43 8.22.28.12.58.22.89.3l60.42 15.24.35.09s-9.46 252.63-4.43 260.68zm4.15-264.25c-.33-4.39-.58-8.78-.75-13.17-.48-12.12-.44-24.24-.2-36.37.47-17.71 1.31-35.39 3.64-52.99 1.52 17.69 1.56 35.38 1.23 53.1-.46 17.71-1.3 35.39-3.64 52.99-.1-1.19-.18-2.37-.27-3.56z" fill="#eb6063"/><path d="m2011.77 1192.05c.37 0 .73.01 1.1.03 2.43.13 4.76.63 6.93 1.44.35.13.69.26 1.02.41 2.2.94 4.22 2.21 6.02 3.74.28.24.55.48.81.73 1.73 1.62 3.21 3.49 4.39 5.56.18.32.35.64.52.97.81 1.6 1.45 3.29 1.88 5.07l3.24-4.17 8.29-10.66 14.12-18.16c1.4-1.8 2.36-3.9 2.8-6.13l.28-1.4.68-3.44 9.02-45.48 20.52-103.44 1.01-5.08 1.01-5.1 2.47-12.47.03-.14 3.85-19.41 7.05-35.55 21.74-109.61 198.03 204.91 122.9 127.17 69.93 72.36 1.26 1.3c5.48-8.16 12.43-15.24 20.45-20.9l-31.01-32.09-63.13-65.32-125.19-129.54-162.62-168.27 148.32 19.23 126.13 16.35 17.18 2.23 136.41 17.68 69.16 8.97-46.12 214.07-21.97 101.98c10.13.1 19.8 2.07 28.7 5.58l2.73-12.65 62.65-290.8 88.71 102.27 23.51 27.1 12.8 14.76 8.29 9.56 6.69 7.71 90.08 103.85 3.62 4.18s0 0 0 0c.22-.29.43-.57.66-.86l1.02.29.38.11 15.11 4.23-2.01-7.18-1.32-4.7-1.3-4.65c.56-.45 1.13-.88 1.7-1.31l9.14 5.42 1.31.78 4.3 2.55-.07-5.93-11.18-12.89-89.37-103.04-6.69-7.71-8.29-9.56-12.81-14.76-23.51-27.1-103.08-118.84 7.34-34.06-28.55-6.27-6.3 29.22-78.48-10.17-139.43-18.08-11.89-1.54-127.99-16.59-167.73-21.75 8-40.32-6.83-.62-18.06-1.65-4.38-.4-37.09 187-6.98 35.17-3.8 19.16-2.46 12.41-1.99 10.01-8.08 40.75-22.46 113.26-15.1 19.41-8.16 10.49-.28.36h.23.17z" fill="#db0c15"/><path d="m2689.87 1279.07 35.35-6.02 19.1-3.25.17-.03 12.49-2.13 10.07-1.72 126.74-21.59 15.12-2.58.11-.11 11.5-11.24-16.63-4.25c-.1-.71-.2-1.42-.28-2.13l9.26-5.21 1.33-.75 4.35-2.45-7.04-3.96-19.94 3.4-129.41 22.04-10.07 1.72-12.48 2.13-19.26 3.28-35.36 6.02-19.59 3.34c2.95 8.37 4.57 17.36 4.57 26.74 0 .72-.04 1.43-.05 2.15z" fill="#db0c15"/><path d="m2620.29 1262.55c1.94 3.36 5.12 5.55 8.62 6.36 3.2.74 6.67.33 9.74-1.44 3.94-2.28 6.28-6.25 6.66-10.46l-17.21 2.93-8.41 1.43c.18.4.38.79.6 1.18z" fill="#db0c15"/><path d="m2558.72 1262.55c3.71-6.43 1.51-14.65-4.92-18.36-6.34-3.66-14.42-1.56-18.2 4.67l18.05 18.68c2.04-1.14 3.81-2.82 5.07-4.99z" fill="#db0c15"/><path d="m2586.32 1218.29-5.09 23.63c2.28 1.79 5.15 2.86 8.27 2.86 2.91 0 5.6-.93 7.79-2.51 1.7-1.21 3.1-2.8 4.09-4.66.99-1.87 1.56-4.01 1.56-6.27 0-7.42-6.02-13.44-13.44-13.44-1.1 0-2.16.15-3.18.39z" fill="#db0c15"/><path d="m2962.99 1239.2c-1.32-.71-2.57-1.53-3.74-2.44s-2.27-1.92-3.28-3.01c-.1-.11-.19-.21-.29-.32-.07-.08-.13-.15-.2-.23-.04.1-.08.19-.12.29-.05.13-.11.26-.16.4-1.77 4.36-3.44 8.59-4.98 12.69-2.79 7.43-5.22 14.43-7.31 21.04-1.53 4.82-2.87 9.42-4.06 13.83-2.72 10.1-4.58 19.14-5.77 27.21-3.5 23.88-1.05 39.41 2.88 49.34.51 1.3 1.05 2.49 1.61 3.6 5.03 10.1 11.29 12.84 11.29 12.84 2.08 2.04 4.93 3.3 8.07 3.3 2.57 0 4.94-.85 6.86-2.28 1.6-1.19 2.89-2.78 3.7-4.63.62-1.42.97-2.98.97-4.63s-.35-3.21-.97-4.63c-.1-.22-.2-.43-.31-.64-1.91-3.72-5.78-6.27-10.25-6.27-.71 0-1.41.07-2.09.2-.52-3.63-.91-7.28-1.18-10.94-.64-8.89-.57-17.83.03-26.62 1.1-16.21 3.99-31.91 7.45-45.86 2-8.07 4.2-15.56 6.35-22.22.35-1.08.7-2.13 1.04-3.16.49-1.47.98-2.9 1.46-4.28-.85-.18-1.68-.41-2.5-.67-1.57-.5-3.07-1.14-4.5-1.91z" fill="#bbbbba"/><g fill="#333"><path d="m2468.5 207.97c0-6.83 3.6-5.75 11.81-7.55s22.35-15.82 4.01-22.65c-15.19-5.66-21.32-12.14-22.98-14.2-1.54.47-3.03.86-4.41 1.17.43 10.08.94 22.88 1.28 34.88.2 7.18.34 14.08.38 19.95 4.17-1.23 9.92-6.69 9.92-11.59z"/><path d="m2367.02 110.65c-7.01 8.52-14.29 24.27-11.16 35.4.86 2.89 3.24 5.55 6.33 5.94 1.64.29 3.28 0 4.83-.5-1.52-.33-2.94-.57-4.24-1.32-5.26-2.76-3-11.12-2-16.13 1.83-7.82 4.45-15.42 6.24-23.38z"/><path d="m2355.59 172.95c3.92 5.93 10.74 9.9 17.88 10.39 7.38.57 14.54-2.99 19.55-8.22 3.29-3.36 5.78-7.31 7.51-11.55-3.39 3.08-6.57 6.15-10.04 8.67-11.4 8.82-22.89 8.13-34.9.71z"/><path d="m2330.37 100.18c3.72-1.08 6.87-2.38 10.39-3.14 3.59-.79 6.43-.44 10.31.18-4.42-8.74-17.9-5.47-20.7 2.96z"/><path d="m2406.58 98.86c-3.09-8.63-16.55-6.22-21.03 0 5.29.31 10.62-.99 15.78-.91 1.62.02 3.22.25 5.25.91z"/><path d="m2345.97 121.53c0-2.9-2.35-5.26-5.26-5.26s-5.26 2.35-5.26 5.26 2.35 5.26 5.26 5.26 5.26-2.35 5.26-5.26z"/><circle cx="2392.77" cy="121.53" r="5.26"/><path d="m2351.07 48.85c7.43 6.03 31.98 1.24 38.01-1.32s26.27-2.92 34.88 11.9 7.32 31.18 5.6 49.27c-1.72 18.08 7.32 44.78 18.95 35.31 4.96-4.04 6.7-8.42 8.15-12.25.36-.96.71-1.89 1.08-2.77 1.59-3.77 3.68-6.61 9.92-7.42.08-.01.15-.02.23-.03 13.78-1.64 23.68-25.75 15.93-49s-6.03-25.59 5.6-26.36 16.9-27.03-31.59-40.38-120.04-6.82-134.21 53.64 20.04-16.61 27.48-10.58z"/><path d="m3010.49 1271.8c.25.11.51.17.76.2.08 0 .17.03.25.03.26 0 .51-.05.75-.13.63-.2 1.17-.65 1.47-1.29s-3.8-2.27-3.8-2.27l-.41-.24-.16.35-.06.13c-.56 1.22-.02 2.67 1.2 3.23z"/><path d="m2999.81 1289.27c-.56 1.22-.02 2.67 1.2 3.23.33.15.67.22 1.01.22.92 0 1.81-.53 2.22-1.42l4.74-10.35c.56-1.22.02-2.67-1.2-3.23s-2.67-.02-3.23 1.2l-.08.16.04 3.1c-.6.26-1.2.51-1.8.75l-2.9 6.33z"/><path d="m2998.3 1298.41c-.41-.19-.84-.24-1.26-.2-.83.08-1.6.58-1.97 1.4l-4.74 10.35c-.56 1.22-.02 2.67 1.2 3.23.33.15.67.22 1.01.22.92 0 1.81-.53 2.22-1.42l4.07-8.88.67-1.47c.56-1.22.02-2.67-1.2-3.23z"/><path d="m2988.82 1319.1c-1.22-.56-2.67-.02-3.23 1.2l-4.74 10.35c-.56 1.22-.02 2.67 1.2 3.23.33.15.67.22 1.01.22.92 0 1.81-.53 2.22-1.42l4.53-9.89.21-.46c.37-.81.25-1.7-.21-2.38-.24-.35-.57-.65-.99-.85z"/><path d="m2979.34 1339.8c-1.22-.56-2.67-.02-3.23 1.2l-3.95 8.62c1.31 1.2 2.47 2.55 3.46 4.03.06-.09.13-.17.18-.27l4.74-10.35c.56-1.22.02-2.67-1.2-3.23z"/><path d="m2956.41 1391.09c.17.04.35.06.52.06.94 0 1.81-.54 2.21-1.42l.54-1.19c-.9.11-1.82.17-2.76.17-2.86 0-5.6-.54-8.12-1.52-.14 1.23.66 2.39 1.89 2.66l5.71 1.24z"/><path d="m2832.7 1361.78c-.28 1.31.55 2.61 1.87 2.9l4.48.97 7.13 1.55c.17.04.35.06.52.06 1.12 0 2.13-.78 2.38-1.92.28-1.31-.55-2.61-1.86-2.9l-4.62-1-6.99-1.52c-1.32-.28-2.61.55-2.9 1.86z"/><path d="m2660.35 1326.92c.17.04.35.06.52.06 1.12 0 2.13-.78 2.38-1.92.28-1.31-.55-2.61-1.86-2.9l-2.77-.6c-.89 1.49-1.83 2.95-2.81 4.38l4.56.99z"/><path d="m2684.61 1327.19-11.61-2.52c-1.31-.28-2.61.55-2.9 1.86-.28 1.32.55 2.61 1.86 2.9l11.61 2.52c.17.04.35.06.52.06 1.12 0 2.13-.78 2.38-1.92.28-1.31-.55-2.61-1.86-2.9z"/><path d="m2902.38 1376.89c-.28 1.31.55 2.61 1.86 2.9l2.73.59 8.88 1.93c.17.04.35.06.52.06 1.12 0 2.13-.78 2.38-1.92.28-1.31-.55-2.61-1.86-2.9l-8.23-1.78-3.38-.73c-1.32-.28-2.61.55-2.9 1.86z"/><path d="m2879.15 1371.85c-.28 1.31.55 2.61 1.86 2.9l11.61 2.52c.17.04.35.06.52.06 1.12 0 2.13-.78 2.38-1.92.28-1.31-.55-2.61-1.86-2.9l-11.61-2.52c-1.32-.29-2.61.55-2.9 1.86z"/><path d="m2764.88 1349.57 11.61 2.52c.17.04.35.06.52.06 1.12 0 2.13-.78 2.38-1.92.08-.39.06-.78-.04-1.14-.14-.54-.46-1.02-.91-1.35-.27-.19-.57-.34-.91-.41l-11.61-2.52c-1.32-.28-2.61.55-2.9 1.86-.28 1.31.55 2.61 1.86 2.9z"/><path d="m2788.1 1354.61 11.61 2.52c.17.04.35.06.52.06.27 0 .53-.05.78-.13.78-.27 1.41-.92 1.6-1.79.28-1.31-.55-2.61-1.86-2.9l-4.11-.89-7.5-1.63c-1.32-.28-2.61.55-2.9 1.86-.28 1.31.55 2.61 1.86 2.9z"/><path d="m2812.36 1354.88c-1.32-.28-2.61.55-2.9 1.86-.28 1.32.55 2.61 1.86 2.9l6.66 1.44 4.95 1.07c.17.04.35.06.52.06 1.12 0 2.13-.78 2.38-1.92.28-1.31-.55-2.61-1.86-2.9l-11.47-2.49-.14-.03z"/><path d="m2928.99 1385.15 10.09 2.19c.17.04.35.06.52.06 1.12 0 2.13-.78 2.38-1.92.28-1.31-.55-2.61-1.86-2.9l-9.44-2.05-2.17-.47c-1.32-.28-2.61.55-2.9 1.86-.28 1.31.55 2.61 1.86 2.9z"/><path d="m2855.92 1366.82c-.28 1.31.55 2.61 1.86 2.9l5.91 1.28 5.7 1.24c.17.04.35.06.52.06 1.12 0 2.13-.78 2.38-1.92.28-1.31-.55-2.61-1.86-2.9l-3.2-.69-8.42-1.83c-1.32-.28-2.61.55-2.9 1.86z"/><path d="m2627.41 1313.82 1.75 4.15c1.26.26 2.53.35 3.78.25 1.61-.12 3.18-.54 4.65-1.22l-3.91-.85-1.04-2.48-.73-1.74c-.52-1.24-1.95-1.82-3.19-1.3s-1.82 1.95-1.3 3.19z"/><path d="m2624.27 1293.79c-1.43.99-2.69 2.28-3.67 3.83l2.8 6.64c.39.93 1.3 1.49 2.25 1.49.32 0 .64-.06.94-.19 1.24-.52 1.82-1.95 1.3-3.19l-3.61-8.58z"/><path d="m2652.45 1228.63c-.29-1.3-1.58-2.13-2.89-1.84.95 1.07 1.87 2.17 2.77 3.29.18-.44.23-.94.12-1.44z"/><path d="m2672.11 1221.72-11.28 2.54c-1.31.29-2.14 1.6-1.84 2.91.25 1.13 1.26 1.9 2.37 1.9.18 0 .36-.02.54-.06l11.28-2.54c1.31-.29 2.14-1.6 1.84-2.91-.29-1.31-1.6-2.14-2.91-1.84z"/><path d="m2787.86 1198.2c-.17-.77-.69-1.36-1.35-1.66-.38-.18-.8-.25-1.23-.22-.11 0-.22.01-.33.04l-11.28 2.54c-1.31.29-2.14 1.6-1.84 2.91.25 1.13 1.26 1.9 2.37 1.9.18 0 .36-.02.54-.06l11.28-2.54c1.31-.3 2.14-1.6 1.84-2.91z"/><path d="m2864.47 1183.42c.18 0 .36-.02.54-.06l11.28-2.54c1.31-.3 2.14-1.6 1.84-2.91-.29-1.31-1.6-2.14-2.91-1.84l-11.28 2.54c-1.31.29-2.14 1.6-1.84 2.91.25 1.13 1.26 1.9 2.37 1.9z"/><path d="m2765.29 1203.27c-.3-1.31-1.6-2.14-2.91-1.84l-.82.18-10.36 2.33-.1.02c-1.31.3-2.14 1.6-1.84 2.91.21.92.91 1.59 1.76 1.81.2.05.4.09.61.09.18 0 .36-.02.54-.06l9.13-2.05 2.16-.48c1.31-.29 2.14-1.6 1.84-2.91z"/><path d="m2739.81 1206.5-1.37.31-9.92 2.23c-1.31.3-2.14 1.6-1.84 2.91.25 1.13 1.26 1.9 2.37 1.9.18 0 .36-.02.54-.06l8.72-1.96 2.57-.58c1.31-.29 2.14-1.6 1.84-2.91s-1.6-2.14-2.91-1.84z"/><path d="m2830.08 1186.22-11.28 2.54c-1.31.3-2.14 1.6-1.84 2.91.25 1.13 1.26 1.9 2.37 1.9.18 0 .36-.02.54-.06l11.28-2.54c1.31-.29 2.14-1.6 1.84-2.91-.29-1.31-1.6-2.14-2.91-1.84z"/><path d="m2841.9 1188.49c.18 0 .36-.02.54-.06l11.28-2.54c.12-.03.23-.07.34-.11 1.11-.43 1.77-1.6 1.5-2.8-.29-1.31-1.6-2.14-2.91-1.84l-10.94 2.46-.34.08c-1.31.29-2.14 1.6-1.84 2.91.25 1.13 1.26 1.9 2.37 1.9z"/><path d="m2807.51 1191.29-11.28 2.54c-1.31.29-2.14 1.6-1.84 2.91.12.55.42 1.01.82 1.34.43.36.97.56 1.55.56.18 0 .36-.02.54-.06l.34-.08 10.94-2.46c1.31-.29 2.14-1.6 1.84-2.91s-1.6-2.14-2.91-1.84z"/><path d="m2887.03 1178.35c.18 0 .36-.02.54-.06l11.28-2.54c1.31-.29 2.14-1.6 1.84-2.91-.29-1.31-1.6-2.14-2.91-1.84l-11.28 2.54c-1.31.3-2.14 1.6-1.84 2.91.25 1.13 1.26 1.9 2.37 1.9z"/><path d="m2909.6 1173.28c.18 0 .36-.02.54-.06l6.21-1.39 1.73-.39-3.62-4.18-4.33.97-1.05.24c-1.31.3-2.14 1.6-1.84 2.91.25 1.13 1.26 1.9 2.37 1.9z"/><path d="m2146.12 727.05-19.81-1.81-11.96-1.09c-5.36-.49-10.1 3.46-10.59 8.82s3.46 10.1 8.82 10.59l5.19.47 4.38.4 18.06 1.65 6.83.62 5.9.54c.3.03.6.04.9.04 4.98 0 9.23-3.8 9.69-8.86.49-5.36-3.46-10.1-8.82-10.59l-8.58-.79z"/><path d="m2144.18 660.51c-8.23 0-15.43 4.42-19.36 11.01-2.01 3.37-3.17 7.31-3.17 11.52 0 2.85.54 5.58 1.5 8.09 1.89 4.91 5.45 8.99 9.99 11.55 3.26 1.83 7.02 2.89 11.03 2.89 3.21 0 6.27-.68 9.03-1.89 7.94-3.48 13.49-11.41 13.49-20.63 0-12.44-10.08-22.52-22.52-22.52z"/><path d="m2041.23 628.01c-2.72 3.72-4.33 8.31-4.33 13.27 0 12.44 10.08 22.52 22.52 22.52 1.97 0 3.88-.25 5.7-.73 6.72-1.75 12.22-6.53 14.95-12.79.78-1.78 1.33-3.68 1.63-5.66.16-1.09.25-2.21.25-3.34 0-12.44-10.08-22.52-22.52-22.52-7.48 0-14.1 3.65-18.2 9.25z"/><path d="m2707.67 834.02c.7.15 1.41.23 2.1.23 4.48 0 8.51-3.1 9.51-7.65 1.15-5.26-2.17-10.45-7.43-11.61l-13.16-2.89-19.03-4.18-10.64-2.34c-5.25-1.15-10.45 2.17-11.61 7.43-1.15 5.26 2.17 10.45 7.43 11.61l6.02 1.32 28.55 6.27 8.26 1.82z"/><path d="m2552.61 679.18c1.55 2.18 3.29 4.24 5.18 6.2 3.64 3.77 7.86 7.14 12.43 10.13 22.71 14.87 54.14 20.57 67.17 21.05 13.58.49 31.28 12.97 56.79 21.82 5.83 2.02 12.06 3.85 18.75 5.31 9.57 2.09 20.06 3.41 31.61 3.41 50.08 0 46.94-54.49 45.98-64.19-.09-.94-.34-1.86-.74-2.72l-11.71-25.76c-1.71-3.76-5.82-5.79-9.85-4.87-52.98 12.06-153.48 9.72-199.55 7.85-5.09-.21-9.53-.41-13.16-.58-6.12-.3-10.7 5.7-8.65 11.48 1.39 3.91 3.34 7.53 5.73 10.89z"/><path d="m2581.23 1410.19c-.12.68-.2 1.38-.2 2.1v8.74c0 .29.02.57.04.85.44 6.07 5.49 10.86 11.68 10.86h57.74c6.47 0 11.72-5.25 11.72-11.72v-8.74c0-6.47-5.25-11.72-11.72-11.72h-18.57l-.05-.18-.57-2.22-3.97-15.44-7.21-27.99-3.65-14.17-1.36-5.3-9-34.97c-4.53 3.65-10.29 5.85-16.57 5.85-.54 0-1.08-.02-1.61-.05l2.16 9.8 3.45 15.63 2.14 9.71.37 1.67 2.71 12.31 1.05 4.76.03.14 3.24 14.7.57 2.57.48 2.19 4.63 21h-16.02c-5.75 0-10.53 4.15-11.52 9.62z"/><path d="m2548.34 1155.52 12.75 49.5c1.94-.84 4.33-1.58 6.79-2.2 6.19-1.58 12.76-2.46 13.43-2.55h.06l-9.87-44.74h-23.16z"/><rect height="32.18" rx="11.72" width="81.18" x="2518.05" y="1123.33"/></g><path d="m2712.94 743.68c-6.69-1.46-12.92-3.29-18.75-5.31-.1.31-.18.63-.25.96l-14.29 68.58 19.03 4.18 14.25-68.41z" fill="#d2d2d2"/><path d="m2080.07 650.28c-2.73 6.26-8.23 11.04-14.95 12.79 19 18.15 41.74 25.28 58.04 28.04-.97-2.51-1.5-5.24-1.5-8.09 0-4.21 1.16-8.15 3.17-11.52-12.87-2.43-30.15-8.09-44.76-21.23z" fill="#d2d2d2"/><path d="m2133.15 702.67-6.84 22.57 19.81 1.81 7.09-23.39c-2.77 1.21-5.82 1.89-9.03 1.89-4.01 0-7.77-1.05-11.03-2.89z" fill="#d2d2d2"/><path d="m2652.33 1230.07c-.9-1.12-1.82-2.22-2.77-3.29-7.33-8.22-16.32-14.91-26.44-19.57-1.36-.62-2.73-1.21-4.13-1.76-8.9-3.51-18.57-5.48-28.7-5.58-.26 0-.52-.02-.79-.02-2.77 0-5.5.14-8.19.41-.67.09-7.24.97-13.43 2.55-8.98 2.5-17.33 6.52-24.75 11.77-8.02 5.67-14.96 12.75-20.45 20.9-.27.41-.53.83-.8 1.24-8.12 12.57-12.85 27.52-12.85 43.6 0 31.73 18.37 59.17 45.06 72.27 10.69 5.25 22.7 8.2 35.41 8.2.57 0 1.13-.03 1.69-.04 2.66-.06 5.3-.24 7.89-.54.25-.03.51-.06.76-.1l-.03-.14-1.05-4.76-2.71-12.31-.37-1.67c-1.85.96-3.95 1.51-6.18 1.51-6.73 0-12.28-4.95-13.27-11.4-.1-.67-.17-1.34-.17-2.04 0-7.42 6.02-13.44 13.44-13.44.2 0 .39.02.59.03l-2.16-9.8c-13.84-.83-24.8-12.32-24.8-26.36 0-.77.04-1.53.1-2.28.82-9.56 6.72-17.66 15-21.59 1.12-.53 2.28-.99 3.48-1.36 2.48-.77 5.11-1.18 7.84-1.18 5.2 0 10.04 1.51 14.13 4.1 1.25.8 2.44 1.69 3.54 2.68 1 .9 1.93 1.88 2.78 2.92.69.84 1.32 1.73 1.9 2.65 1.35 2.15 2.41 4.5 3.1 7.01.62 2.25.96 4.61.96 7.05 0 1.88-.2 3.71-.57 5.48-.52 2.47-1.39 4.81-2.54 6.97-1.68 3.14-3.98 5.9-6.73 8.12l9 34.97 1.36 5.3 3.65 14.17c2.88-1.19 5.67-2.53 8.37-4.03 10.9-6.05 20.25-14.56 27.3-24.79.98-1.43 1.92-2.88 2.81-4.38 6.87-11.48 10.93-24.82 11.31-39.08.02-.72.05-1.43.05-2.15 0-9.38-1.62-18.37-4.57-26.74-3.03-8.6-7.48-16.53-13.07-23.52zm-8.76 19.04c1.44 2.49 1.98 5.24 1.74 7.9-.38 4.21-2.72 8.18-6.66 10.46-3.07 1.77-6.54 2.18-9.74 1.44-3.51-.81-6.68-3-8.62-6.36-.22-.39-.42-.78-.6-1.18-2.83-6.22-.52-13.7 5.52-17.18.45-.26.9-.48 1.37-.68 6.18-2.7 13.54-.38 16.99 5.6zm-108.13 62.43c-1.75-3.03-2.17-6.46-1.47-9.63.79-3.55 2.99-6.77 6.39-8.73 6.43-3.71 14.65-1.51 18.36 4.92s1.51 14.65-4.92 18.36c-6.11 3.53-13.83 1.7-17.77-4.01-.2-.3-.41-.59-.59-.91zm4.92-44.07c-6.43-3.71-8.63-11.93-4.92-18.36.05-.09.11-.16.16-.25 3.78-6.23 11.86-8.33 18.2-4.67 6.43 3.71 8.63 11.93 4.92 18.36-1.25 2.17-3.03 3.85-5.07 4.99-4 2.24-9.03 2.39-13.29-.07zm49.14-22.69c-3.12 0-5.99-1.07-8.27-2.86-3.14-2.46-5.17-6.28-5.17-10.58 0-6.33 4.38-11.62 10.26-13.05 1.02-.25 2.08-.39 3.18-.39 7.42 0 13.44 6.02 13.44 13.44 0 2.27-.57 4.4-1.56 6.27-.98 1.86-2.39 3.45-4.09 4.66-2.2 1.57-4.89 2.51-7.79 2.51zm54.07 66.76c-1.44 2.49-3.55 4.33-5.97 5.46-1.46.68-3.04 1.1-4.65 1.22-1.25.1-2.53.01-3.78-.25-1.35-.29-2.69-.78-3.95-1.51-6.43-3.71-8.63-11.93-4.92-18.36.1-.17.21-.32.31-.48.99-1.55 2.24-2.84 3.67-3.83 1.96-1.36 4.25-2.18 6.61-2.37 2.62-.21 5.32.34 7.77 1.76 6.43 3.71 8.63 11.93 4.92 18.36z" fill="#d2d2d2"/><path d="m2611.9 1265.68c-.58-.92-1.22-1.81-1.9-2.65-.85-1.04-1.78-2.02-2.78-2.92-1.1-.99-2.28-1.88-3.54-2.68-4.09-2.59-8.93-4.1-14.13-4.1-2.73 0-5.36.41-7.84 1.18-1.2.37-2.36.83-3.48 1.36-8.27 3.93-14.18 12.03-15 21.59-.06.75-.1 1.51-.1 2.28 0 14.05 10.97 25.53 24.8 26.36.53.03 1.07.05 1.61.05 6.27 0 12.04-2.19 16.57-5.85 2.75-2.22 5.05-4.98 6.73-8.12 1.16-2.16 2.02-4.5 2.54-6.97.37-1.77.57-3.6.57-5.48 0-2.44-.34-4.81-.96-7.05-.69-2.51-1.74-4.86-3.1-7.01z" fill="#a7a7a6"/><path d="m2948.81 1387.19c2.52.98 5.26 1.52 8.12 1.52.93 0 1.85-.06 2.76-.17 2.79-.34 5.42-1.19 7.8-2.45 7.11-3.78 11.96-11.27 11.96-19.89 0-4.65-1.41-8.96-3.82-12.55-.99-1.48-2.16-2.83-3.46-4.03-1.4-1.29-2.97-2.41-4.67-3.31-3.15-1.68-6.74-2.63-10.56-2.63-1.11 0-2.2.08-3.27.24.26 3.66.66 7.31 1.18 10.94.68-.12 1.38-.2 2.09-.2 4.47 0 8.34 2.55 10.25 6.27.11.21.21.42.31.64.62 1.42.97 2.98.97 4.63s-.35 3.21-.97 4.63c-.81 1.85-2.1 3.44-3.7 4.63-1.92 1.42-4.29 2.28-6.86 2.28-3.14 0-5.99-1.26-8.07-3.3 0 0-6.27-2.74-11.29-12.84-.55-1.11-1.09-2.31-1.61-3.6-1 2.54-1.55 5.31-1.55 8.21 0 1.15.09 2.27.25 3.37 1.21 8.09 6.73 14.76 14.14 17.63z" fill="#a7a7a6"/><path d="m3001.92 1209.89c-.32-1.47-.76-2.9-1.3-4.27-.61-1.53-1.35-2.98-2.22-4.35-.8-1.27-1.7-2.46-2.69-3.57-1.09-1.22-2.28-2.33-3.57-3.33-1.17-.91-2.42-1.73-3.74-2.44-1.43-.77-2.93-1.41-4.5-1.91-1.4-.45-2.86-.79-4.35-1-1.26-.18-2.54-.28-3.85-.28-.34 0-.69.01-1.03.03-.9.03-1.8.11-2.68.23-.59.08-1.18.18-1.76.3-1.62.33-3.18.82-4.68 1.43-1.39.57-2.72 1.25-3.98 2.03-1.39.86-2.7 1.84-3.9 2.94-1.1 1-2.12 2.1-3.05 3.27-1.01 1.28-1.9 2.64-2.67 4.09-.69 1.31-1.28 2.68-1.75 4.11-.5 1.53-.87 3.12-1.1 4.76-.16 1.19-.25 2.41-.25 3.64 0 .28.01.55.02.82.05 1.66.25 3.28.58 4.85.32 1.47.76 2.9 1.3 4.27.61 1.53 1.35 2.98 2.22 4.35.74 1.18 1.58 2.29 2.49 3.34.07.08.13.16.2.23.1.11.19.22.29.32 1.01 1.09 2.1 2.1 3.28 3.01 1.17.91 2.42 1.73 3.74 2.44 1.43.77 2.93 1.41 4.5 1.91.82.26 1.65.49 2.5.67.61.13 1.23.24 1.85.33 1.26.18 2.54.28 3.85.28.34 0 .68-.01 1.02-.03 1.51-.06 3-.23 4.43-.53 1.62-.33 3.18-.82 4.68-1.43 1.39-.57 2.72-1.25 3.98-2.03 1.39-.86 2.7-1.84 3.91-2.94 1.1-1 2.12-2.1 3.05-3.27 1.01-1.28 1.9-2.64 2.67-4.09.69-1.31 1.28-2.68 1.75-4.11.51-1.53.88-3.12 1.1-4.76.16-1.19.25-2.41.25-3.64 0-.28-.01-.55-.02-.82-.05-1.66-.25-3.28-.58-4.85z" fill="#a7a7a6"/><path d="m2019.48 1237.72c2.26-.8 4.36-1.94 6.24-3.35.29-.22.58-.45.86-.68 1.83-1.51 3.42-3.3 4.72-5.29.2-.31.39-.62.58-.93 1.19-2.02 2.08-4.23 2.63-6.58.08-.35.16-.71.22-1.07.25-1.38.39-2.8.39-4.25 0-.96-.06-1.9-.18-2.83-.04-.36-.09-.73-.15-1.08-.09-.56-.21-1.11-.34-1.65-.43-1.78-1.07-3.48-1.88-5.07-.17-.33-.34-.65-.52-.97-1.18-2.07-2.66-3.95-4.39-5.56-.27-.25-.54-.49-.81-.73-1.79-1.53-3.82-2.8-6.02-3.74-.34-.14-.68-.28-1.02-.41-2.18-.81-4.51-1.31-6.93-1.44-.36-.02-.73-.03-1.1-.03-.06 0-.12 0-.17 0-.08 0-.15 0-.23 0-2.29.02-4.51.37-6.6 1.01-.35.11-.7.22-1.04.35-2.26.8-4.36 1.94-6.24 3.35-.29.22-.58.45-.86.68-1.83 1.51-3.42 3.3-4.72 5.29-.2.3-.39.61-.58.93-1.19 2.02-2.08 4.23-2.63 6.58-.08.35-.16.71-.22 1.07-.25 1.38-.39 2.8-.39 4.25 0 .96.06 1.9.18 2.83.04.36.09.72.15 1.08.4 2.38 1.16 4.65 2.22 6.73.17.33.34.65.52.96 1.18 2.07 2.66 3.95 4.39 5.56.27.25.54.49.81.73 1.79 1.53 3.82 2.8 6.02 3.74.34.14.68.28 1.02.41 2.18.81 4.51 1.31 6.93 1.44.36.02.73.03 1.1.03h.18c2.38 0 4.67-.36 6.83-1.01.35-.11.7-.22 1.05-.35z" fill="#a7a7a6"/><path d="m2481.2 1401.52s0 .1.02.22c0-.07-.02-.15-.02-.22z" fill="#4f4f4f"/><path d="m2581.23 1410.19c-21.37.75-46.32.69-65.96-.6v-.06c.32-6.99-1.54-12.42-4.16-16.56-3.86-6.11-9.36-9.41-11.91-10.68-1.45 1.03-2.85 2.07-4.19 3.1.25.36.62.64 1.06.82.38.15 6.02 2.39 10.13 8.08 2.54 3.54 4.5 8.42 4.21 14.96-16.71-1.34-28.56-3.71-29.18-7.41 0-.02 0-.03 0-.05.22 1.68 2.73 10.81 31.66 13.8 14.65 1.51 42.78 5.82 68.2 6.33-.02-.28-.04-.57-.04-.85v-8.74c0-.72.07-1.42.2-2.1z" fill="#4f4f4f"/><path d="m2632.38 1391.53s0-.04 0-.06c-.19 2.46-.54 4.72-1.06 6.7l.57 2.22c.54-2.97.7-6 .5-8.87z" fill="#4f4f4f"/><path d="m2303.21 1406.35c-.17.05-.25.08-.25.08s-.21 10.65 30.71 14l.57.06c.81.09 1.67.18 2.56.28 23.49 2.66 76.36 10.81 102.64 2.17 9.75-3.2 12.53-10.28 12.75-18.93-1.07 2.78-2.63 4.75-4.81 5.56-10.11 3.79-70.15 6.19-109.61 3.68-.5-6.02-2.27-11.05-4.63-15.18-3.35-5.91-7.91-10.02-11.68-12.66-1.42 1-2.81 2.01-4.12 3 3.27 2.05 7.67 5.53 10.98 10.9 2.23 3.62 3.98 8.11 4.53 13.59-15.71-1.23-27.29-3.32-29.63-6.57z" fill="#4f4f4f"/><path d="m2514.98 1372.05c.11.19.25.38.43.55.06.06 6.04 5.74 8.37 12.14.36.99 1.3 1.61 2.29 1.61.28 0 .57-.05.84-.15 1.27-.46 1.92-1.86 1.45-3.12-2.32-6.39-7.44-11.88-9.1-13.53-1.42.82-2.85 1.66-4.28 2.5z" fill="#4f4f4f"/><path d="m2530.11 1364.53c.07.06 6.79 6.31 9.97 13.79.4.93 1.3 1.48 2.24 1.48.32 0 .64-.06.95-.19 1.24-.53 1.81-1.95 1.29-3.2-3.01-7.05-8.58-12.94-10.49-14.83-1.43.71-2.92 1.47-4.46 2.28.13.24.29.47.51.67z" fill="#4f4f4f"/><path d="m2552.73 1353.69c-1.21.81-2.71 1.48-4.58 1.93.13.39.34.75.66 1.05.08.07 7.61 7.1 9.96 16.9.27 1.12 1.27 1.87 2.37 1.87.19 0 .38-.03.57-.07 1.32-.32 2.11-1.64 1.8-2.94-2.31-9.64-8.72-16.69-10.77-18.75 0-.01 0 0 0 0z" fill="#4f4f4f"/><path d="m2594.67 1377.56s0 0 0 0c2.02 1.41 4.48 2.24 7.12 2.24.8 0 1.58-.08 2.34-.23l-.48-2.19-.57-2.57c-.42.07-.85.12-1.29.12-4.2 0-7.62-3.41-7.62-7.61 0-3.24 2.04-6.01 4.9-7.11-2.59.31-5.23.49-7.89.54-1.19 1.91-1.88 4.15-1.88 6.56 0 4.24 2.12 7.99 5.37 10.24z" fill="#4f4f4f"/><path d="m2345.64 1387.77c.27 0 .56-.05.83-.16 1.27-.46 1.92-1.85 1.46-3.12-1.69-4.62-4.83-8.77-7.06-11.33-1.42.82-2.85 1.66-4.29 2.51 1.96 2.16 5.2 6.16 6.77 10.48.36.99 1.3 1.61 2.29 1.61z" fill="#4f4f4f"/><path d="m2362.44 1381.99c.32 0 .64-.07.95-.19 1.24-.53 1.81-1.96 1.29-3.2-2.45-5.74-6.59-10.71-9.08-13.38-1.45.73-2.96 1.5-4.52 2.33 1.91 1.95 6.63 7.09 9.12 12.96.4.93 1.3 1.48 2.24 1.48z" fill="#4f4f4f"/><path d="m2378.48 1376.43c.19 0 .38-.02.57-.07 1.32-.31 2.11-1.63 1.8-2.93-1.58-6.6-5.09-11.98-7.8-15.39-.96.5-2.09.91-3.37 1.21-.45.11-.97.26-1.57.46 2.41 2.78 6.4 8.15 8.01 14.85.26 1.12 1.27 1.87 2.37 1.87z" fill="#4f4f4f"/><path d="m2435.86 1370.94c0-6.89-5.6-12.49-12.49-12.49s-12.49 5.6-12.49 12.49 5.6 12.49 12.49 12.49 12.49-5.6 12.49-12.49zm-20.1 0c0-4.2 3.42-7.62 7.62-7.62s7.62 3.42 7.62 7.62-3.42 7.62-7.62 7.62-7.62-3.42-7.62-7.62z" fill="#4f4f4f"/><path d="m2448.99 1117.18c-5.27-93.9-11.02-196.89-13.36-262.23l-126.13-16.35c4.13 44.81 9.02 96.37 14.3 149.04z" fill="#4f4f4f"/><path d="m2589.22 874.86-136.41-17.68c16 81.04 40.07 217.86 59.31 325.32l31.01 32.09c7.42-5.25 15.77-9.27 24.75-11.77-2.45.63-4.84 1.36-6.79 2.2l-12.75-49.5h23.16l9.87 44.74s-.03 0-.06 0c2.69-.27 5.43-.41 8.19-.41.26 0 .53.02.79.02l21.97-101.98c-7.4-73.16-15.7-152.99-23.04-223.03zm-1.71 280.66h-57.74c-6.47 0-11.72-5.25-11.72-11.72v-8.74c0-6.47 5.25-11.72 11.72-11.72h57.74c6.47 0 11.72 5.25 11.72 11.72v8.74c0 6.47-5.25 11.72-11.72 11.72z" fill="#4f4f4f"/><path d="m2521.42 1234.19c.15.85.31 1.7.46 2.54.27-.41.52-.83.8-1.24z" fill="#4f4f4f"/><path d="m2581.23 1241.92 5.09-23.63c-5.89 1.43-10.26 6.72-10.26 13.05 0 4.3 2.03 8.12 5.17 10.58z" fill="#4f4f4f"/><path d="m2459.17 1334.64c1.31-7.88-2.61-81.77-7.68-172.81l-122.9-127.17c15.97 153.97 34.33 303.23 45.92 308.44 1.58.71 3.31 1.39 5.15 2.02 19.47 6.73 51.93 8.9 68.78 1.27 5.87-2.66 9.86-6.5 10.73-11.76z" fill="#4f4f4f"/><path d="m2619.69 1261.38 8.41-1.43c-.48-5.26-.99-10.74-1.52-16.43-.46.2-.92.42-1.37.68-6.04 3.49-8.35 10.96-5.52 17.18z" fill="#4f4f4f"/><path d="m2557.8 685.37c-136.06 52.2-234.69 23.02-261.06 9.43 0 0 3.89 46.21 10.04 113.96l127.99 16.59c-.49-23.44-.14-37.39 1.44-37.39s5.3 14.56 10.45 38.93l139.43 18.08c-7.22-68.58-13.16-124.33-15.84-149.47-4.57-2.99-8.79-6.36-12.43-10.13z" fill="#4f4f4f"/><path d="m2540.36 1293.18c-3.4 1.96-5.6 5.18-6.39 8.73.72 3.75 1.41 7.27 2.06 10.54 3.94 5.71 11.66 7.54 17.77 4.01 6.43-3.71 8.63-11.93 4.92-18.36s-11.93-8.63-18.36-4.92z" fill="#4f4f4f"/><path d="m2625.21 1316.46c1.26.73 2.6 1.22 3.95 1.51l-1.75-4.15c-.52-1.24.06-2.67 1.3-3.19s2.67.06 3.19 1.3l.73 1.74c-.43-6.1-1.02-13.58-1.76-22.24-2.36.19-4.65 1-6.61 2.37l3.61 8.58c.52 1.24-.06 2.67-1.3 3.19-.31.13-.63.19-.94.19-.95 0-1.85-.56-2.25-1.49l-2.8-6.64c-.1.16-.21.31-.31.48-3.71 6.43-1.51 14.65 4.92 18.36z" fill="#4f4f4f"/><path d="m2535.44 1249.11c-3.71 6.43-1.51 14.65 4.92 18.36 4.26 2.46 9.29 2.31 13.29.07l-18.05-18.68c-.05.08-.11.16-.16.25z" fill="#4f4f4f"/><path d="m2621.72 1192.8-2.73 12.65c1.39.55 2.77 1.13 4.13 1.76-.46-4.71-.92-9.52-1.4-14.41z" fill="#4f4f4f"/><path d="m2595.68 1341.24-2.14-9.71-3.45-15.63c-.2 0-.39-.03-.59-.03-7.42 0-13.44 6.02-13.44 13.44 0 .69.07 1.37.17 2.04.98 6.45 6.54 11.4 13.27 11.4 2.23 0 4.33-.55 6.18-1.51z" fill="#4f4f4f"/><path d="m2423.95 59.44c-8.61-14.82-28.85-14.46-34.88-11.9s-30.57 7.35-38.01 1.32c-7.43-6.03-27.47 10.58-27.48 10.58-10.81 17.6-17.31 40.17-17.31 64.77 0 48.19 24.93 88.56 58.4 99.11 54.59 9.84 77.46-31.49 86.32-57.52 2.58-7.57 3.97-13.83 4.61-17.18 1.16-6.33 1.88-12.89 2.11-19.63-.37.88-.72 1.81-1.08 2.77-1.44 3.83-3.19 8.21-8.15 12.25-11.63 9.47-20.67-17.22-18.95-35.31 1.72-18.08 3.01-34.45-5.6-49.27zm-83.23 67.35c-2.9 0-5.26-2.35-5.26-5.26s2.35-5.26 5.26-5.26 5.26 2.35 5.26 5.26-2.35 5.26-5.26 5.26zm.04-29.75c-3.53.76-6.68 2.06-10.39 3.14 2.8-8.43 16.29-11.7 20.7-2.96-3.87-.62-6.72-.98-10.31-.18zm26.26 13.61c-1.79 7.97-4.41 15.57-6.24 23.38-1 5.01-3.26 13.37 2 16.13 1.3.75 2.72.99 4.24 1.32-1.55.49-3.19.79-4.83.5-3.09-.39-5.47-3.05-6.33-5.94-3.13-11.12 4.14-26.88 11.16-35.4zm26 64.47c-5.01 5.22-12.17 8.78-19.55 8.22-7.14-.49-13.96-4.46-17.88-10.39 12 7.42 23.49 8.11 34.9-.71 3.47-2.52 6.65-5.59 10.04-8.67-1.73 4.24-4.23 8.18-7.51 11.55zm-5.51-53.59c0-2.9 2.35-5.26 5.26-5.26s5.26 2.35 5.26 5.26-2.35 5.26-5.26 5.26-5.26-2.35-5.26-5.26zm13.83-23.58c-5.16-.08-10.5 1.22-15.78.91 4.48-6.22 17.94-8.63 21.03 0-2.03-.67-3.63-.89-5.25-.91z" fill="#fac797"/><path d="m2232.66 413.81s-.06.04-.08.06c0 0-31.83 83.92-55.83 102.38s-69.22 78.45-75.68 80.3-49.84-16.61-61.84 12.92c-4.08 10.04-2.39 15.39 2 18.54 4.1-5.61 10.72-9.25 18.2-9.25 12.44 0 22.52 10.08 22.52 22.52 0 1.14-.09 2.25-.25 3.34 10.65 4.16 26.24-2.89 44.29-11.16 22.15-10.15 131.06-91.84 134.75-103.61 3.69-11.76 32.62-73.53 32.62-73.53l.61-26.98-60.42-15.24c-.31-.08-.6-.18-.89-.3z" fill="#fac797"/><path d="m2364.23 237.83c0 3.36.08 6.9.31 10.15.36 5.05 1.1 9.41 2.48 11.28 4.32 5.84 18.85 13.61 43.43 7.3 24.57-6.32 44.86-23.82 47.36-30.14.62-1.58.82-8.05.77-16.84-.03-5.86-.17-12.76-.38-19.95-2.13 2.75-4.3 5.3-6.51 7.69-32.16 34.79-71.72 32.97-87.47 30.52z" fill="#fac797"/><path d="m2426.25 614.74c12.61-5.88 134.4-80.31 142.44-91.01 7.79-10.4 8-70.4 8.01-73.68-2.67.23-5.34.41-8.01.57-12.76.75-25.53.7-38.3.4-12.35-.39-24.67-.99-36.96-2.32-.33 7.68-2.15 44.24-6.66 51.74-5.04 8.41-95.82 80.7-100.02 83.22-4.2 2.51-45.39 0-56.32 5.04-10.92 5.05-22.69 21.02-16.81 22.69 5.89 1.69 12.61.85 5.89 8.41s-14.91 13.45-7.45 19.33c7.45 5.88 15.85 6.74 15.85 6.74s8.41 4.18 15.13 4.18 12.96-1.68 21.19 0c8.22 1.69 16.63 5.05 24.19 0 7.57-5.04 25.22-29.42 37.82-35.3z" fill="#fac797"/></svg>