<svg fill="none" height="60" viewBox="0 0 80 60" width="80" xmlns="http://www.w3.org/2000/svg" xmlns:xlink="http://www.w3.org/1999/xlink"><clipPath id="a"><path d="m0 0h80v60h-80z"/></clipPath><g clip-path="url(#a)"><path d="m0 0h80v60h-80z" fill="#012169"/><path d="m9.375 0 30.5 22.625 30.375-22.625h9.75v7.75l-30 22.375 30 22.25v7.625h-10l-30-22.375-29.875 22.375h-10.125v-7.5l29.875-22.25-29.875-22.25v-8z" fill="#fff"/><path d="m53 35.125 27 19.875v5l-33.875-24.875zm-23 2.5.75 4.375-24 18h-6.75zm50-37.625v.375l-31.125 23.5.25-5.5 24.625-18.375zm-80 0 29.875 22h-7.5l-22.375-16.75z" fill="#c8102e"/><path d="m30.125 0v60h20v-60zm-30.125 20v20h80v-20z" fill="#fff"/><path d="m0 24.125v12h80v-12zm34.125-24.125v60h12v-60z" fill="#c8102e"/></g></svg>