<svg fill="none" height="13" viewBox="0 0 13 13" width="13" xmlns="http://www.w3.org/2000/svg" xmlns:xlink="http://www.w3.org/1999/xlink"><clipPath id="a"><path d="m.134766.072266h12.8555v12.8555h-12.8555z"/></clipPath><g clip-path="url(#a)" fill="#02a5a5"><path d="m1.55405 12.9277c-.35482 0-.736935-.1364-1.009875-.4094-.54587932-.5458-.54587932-1.4465 0-1.9924l1.937875-1.9379c.54588-.54588 1.44658-.54588 1.99246 0s.54588 1.4466 0 1.9925l-1.93787 1.9378c-.27294.273-.62777.4094-1.00988.4094z"/><path d="m9.63315 4.8487c-.35482 0-.73693-.13647-1.00987-.40941-.54588-.54588-.54588-1.44658 0-1.99246l1.93792-1.937872c.5458-.5458796 1.4465-.5458796 1.9924 0 .5459.545882.5459 1.446582 0 1.992462l-1.9379 1.93787c-.2729.27294-.62772.40941-1.00984.40941z"/><path d="m3.49193 4.84871c-.35483 0-.73694-.13647-1.00988-.40941l-1.937875-1.93787c-.54587931-.57317-.54587931-1.47387 0-2.019755.573175-.5458793 1.446585-.5458793 2.019755 0l1.93787 1.937875c.54588.54588.54588 1.44658 0 1.99246-.27294.27294-.62776.40941-1.00987.40941z"/><path d="m11.571 12.9277c-.3548 0-.7369-.1364-1.0098-.4094l-1.93792-1.9378c-.54588-.5459-.54588-1.44662 0-1.9925s1.44662-.54588 1.99242 0l1.9379 1.9379c.5459.5459.5459 1.4466 0 1.9924-.2729.273-.6278.4094-1.0099.4094z"/></g></svg>